<svg width="24" height="24" viewBox="0 0 24 24" fill="none" xmlns="http://www.w3.org/2000/svg">
<path d="M16.6734 20.3815C15.8339 20.3815 15.0018 20.0431 14.3926 19.4473C14.192 19.2561 14.0805 19.1678 13.9691 19.0869C13.7908 18.9545 13.5679 18.7853 13.2113 18.4322C12.9735 18.1969 12.8398 18.0865 12.7135 17.9762C12.5426 17.8291 12.3717 17.6893 12.0523 17.3804C11.7402 17.0788 11.5917 16.9244 11.4431 16.7625C11.3242 16.6375 11.2053 16.5051 10.9527 16.2697C10.6778 16.0049 10.1132 15.468 9.82345 15.1885C9.47426 14.8501 9.30339 14.6442 9.16223 14.475C9.06564 14.3573 8.96906 14.247 8.76104 14.041L7.64662 12.9524C7.39402 12.7097 7.26772 12.5993 7.13399 12.4816C6.97054 12.3345 6.80709 12.1948 6.48763 11.8858C6.26475 11.6725 6.13845 11.5695 6.01958 11.4739C5.83384 11.3268 5.65553 11.1723 5.31378 10.8487C5.00917 10.5545 4.86801 10.4074 4.71942 10.2529C4.59312 10.1205 4.46682 9.99546 4.20679 9.73802C2.98836 8.56114 2.98836 6.60458 4.20679 5.3762C4.44453 5.13347 4.5634 4.99372 4.68227 4.86867C4.83829 4.69214 4.98688 4.53032 5.31378 4.19932C5.9007 3.60352 6.7328 3.25781 7.59461 3.25781C8.45643 3.25781 9.18452 3.56674 9.75658 4.11841L10.871 5.20703C11.1682 5.49389 11.3093 5.641 11.4579 5.78811C11.5842 5.92051 11.718 6.05291 11.978 6.303C12.2752 6.58986 12.4238 6.74433 12.5649 6.89144C12.6912 7.02384 12.8175 7.14888 13.0775 7.40632C13.4193 7.73732 13.5679 7.91386 13.7239 8.09774C13.8279 8.21543 13.9245 8.33312 14.1474 8.54643C14.3926 8.78916 14.5263 8.89949 14.6526 9.00983C14.816 9.15694 14.9869 9.29669 15.2989 9.60563C15.5664 9.86307 15.7001 9.98811 15.8339 10.1132C15.9825 10.2529 16.1385 10.3927 16.4282 10.6795C16.6734 10.9149 16.7997 11.0252 16.926 11.1356C17.0969 11.2827 17.2603 11.4224 17.5798 11.7314C17.8398 11.9815 17.9735 12.1065 18.1073 12.2242C18.2633 12.3639 18.4193 12.5111 18.7239 12.7979C19.1177 13.1804 19.3034 13.4378 19.4446 13.6291C19.5412 13.7615 19.5857 13.8277 19.7566 13.9895C20.9899 15.1811 21.0196 17.0641 19.8235 18.2704C19.6229 18.469 19.556 18.5646 19.452 18.697C19.3108 18.8883 19.1325 19.1237 18.7611 19.4988C18.2039 20.0652 17.4535 20.3741 16.6437 20.3741L16.6734 20.3815Z" fill="#E5E5E5"/>
<path d="M7.60973 5.01594C7.94405 5.01594 8.27837 5.13363 8.53098 5.37636C9.08818 5.92067 9.08818 5.92067 9.64539 6.46497C10.2026 7.00928 10.1952 7.02399 10.7524 7.5683C11.3096 8.11261 11.2947 8.12732 11.8594 8.67163C12.424 9.21594 12.372 9.26743 12.9292 9.81174C13.4938 10.356 13.5161 10.3266 14.0808 10.8709C14.638 11.4152 14.6528 11.4005 15.2175 11.9448C15.7821 12.4891 15.8118 12.4597 16.3765 13.004C16.9411 13.5483 16.9634 13.5263 17.5206 14.0779C18.0852 14.6222 17.9887 14.7252 18.5459 15.2695C19.0659 15.7771 19.0956 16.542 18.5904 17.0569C18.0184 17.6306 18.1001 17.7116 17.528 18.2926C17.2977 18.528 16.9857 18.6384 16.6736 18.6384C16.3022 18.6384 15.9233 18.4839 15.6335 18.2117C15.0763 17.6674 15.0094 17.741 14.4448 17.1967C13.8802 16.6524 13.8505 16.6891 13.2858 16.1448C12.7286 15.6005 12.7509 15.5785 12.1937 15.0342C11.6365 14.4898 11.6291 14.4972 11.0644 13.9529C10.4998 13.4086 10.5592 13.3497 10.002 12.8054C9.4448 12.2611 9.4448 12.2611 8.88759 11.7168C8.32295 11.1725 8.30066 11.2019 7.73603 10.6576C7.17139 10.1133 7.12681 10.1648 6.56217 9.61313C5.99753 9.06883 6.01982 9.04676 5.45519 8.50245C4.93513 7.99492 4.97227 7.14904 5.47747 6.6268C6.04211 6.04571 6.01982 6.02364 6.59189 5.44256C6.85935 5.1704 7.23082 5.03065 7.60229 5.03065M7.60973 1.5C6.27243 1.5 4.9797 2.03695 4.05845 2.9711C3.70184 3.33152 3.53839 3.50805 3.37494 3.6993C3.2635 3.81699 3.15206 3.94203 2.92917 4.17741C2.06736 5.05271 1.56216 6.22959 1.53244 7.48003C1.50272 8.80403 2.03021 10.0912 2.97375 11.0107C3.21149 11.2387 3.32294 11.3564 3.44181 11.4814C3.59783 11.6433 3.75384 11.8051 4.08074 12.1214C4.4745 12.5039 4.71967 12.7025 4.89798 12.8496C5.02428 12.9525 5.08371 12.9967 5.25459 13.1658C5.60377 13.5042 5.80437 13.6807 5.96782 13.8205C6.07926 13.9235 6.19813 14.0191 6.41358 14.225C6.68104 14.4898 6.81478 14.6222 6.94851 14.7473C7.08966 14.887 7.23825 15.0341 7.528 15.3137C7.66916 15.4534 7.7063 15.4975 7.80289 15.6079C7.99605 15.8433 8.20408 16.086 8.59041 16.4611C8.88016 16.748 9.02875 16.8877 9.17734 17.0275C9.31107 17.1525 9.44479 17.2849 9.71225 17.5424C9.93514 17.7557 10.0392 17.866 10.1432 17.9764C10.3066 18.1529 10.4701 18.3221 10.8118 18.6531C11.1684 18.9988 11.3839 19.1827 11.5473 19.3298C11.6513 19.4254 11.7628 19.5137 11.9634 19.7123C12.3646 20.1021 12.6395 20.3154 12.8921 20.5067C13.0035 20.5876 13.0332 20.6096 13.1521 20.7273C14.0956 21.6394 15.3809 22.1616 16.6736 22.1616C17.9664 22.1616 19.1699 21.6615 20.0615 20.7567C20.4849 20.3301 20.7153 20.0359 20.9084 19.7711C20.9902 19.6608 21.005 19.6387 21.1165 19.5284C22.0451 18.5942 22.5355 17.3658 22.4983 16.0713C22.4612 14.8282 21.9411 13.6513 21.0199 12.7613C20.9901 12.7319 20.9679 12.7098 20.953 12.6951L20.9084 12.6363C20.7078 12.3567 20.4552 12.0257 19.9872 11.5771C19.6603 11.2608 19.4894 11.1063 19.3185 10.9518C19.1997 10.8415 19.0734 10.7312 18.843 10.5031C18.4864 10.1574 18.2784 9.98091 18.1075 9.8338C17.9961 9.73818 17.8921 9.64991 17.684 9.45131C17.372 9.14973 17.216 9.00263 17.0525 8.85552C16.9262 8.73783 16.7925 8.62014 16.5473 8.37741C16.1982 8.03905 15.9976 7.86252 15.8341 7.72277C15.7227 7.62714 15.6112 7.52417 15.3958 7.31822C15.2323 7.16375 15.1803 7.1049 15.0837 6.98721C14.8906 6.76655 14.69 6.53853 14.3259 6.17811C14.0882 5.94273 13.9693 5.82504 13.8505 5.70736C13.6944 5.54553 13.5384 5.39107 13.219 5.07478C12.9738 4.8394 12.8549 4.71436 12.736 4.58931C12.58 4.43485 12.4314 4.27303 12.1194 3.97145C11.8445 3.70666 11.7108 3.57426 11.577 3.44186C11.4359 3.3021 11.2947 3.16234 11.005 2.88283C10.0986 2.00017 8.88759 1.52207 7.59486 1.52207L7.60973 1.5Z" fill="#1E1E1E"/>
<path d="M7.6252 20.7199C6.80053 20.7199 6.02787 20.4036 5.44094 19.8373C5.24035 19.6534 5.09919 19.5357 4.98032 19.4327C4.77973 19.2635 4.60885 19.1164 4.23738 18.756C3.65788 18.1896 3.31613 17.3952 3.30127 16.5641C3.28641 15.7329 3.61331 14.9238 4.18537 14.3427C4.5197 14.0043 4.70543 13.8499 4.88374 13.7028C5.00261 13.6072 5.12148 13.5042 5.33693 13.2909C5.57467 13.0481 5.69355 12.9157 5.80499 12.7907C5.95358 12.6289 6.09474 12.467 6.39934 12.1508C6.64451 11.908 6.75596 11.7756 6.87483 11.6432C7.01599 11.4814 7.16458 11.3196 7.46918 11.0107C7.75893 10.7164 7.90752 10.5767 8.05611 10.4369C8.18984 10.3119 8.32357 10.1795 8.5836 9.91469C8.94021 9.55426 9.16309 9.38509 9.3414 9.24533C9.47513 9.14235 9.56429 9.07615 9.75745 8.87755C9.91347 8.72309 9.95062 8.66424 10.0398 8.53184C10.2032 8.28176 10.3815 8.03167 10.7456 7.66389C11.0799 7.32554 11.2582 7.17843 11.4365 7.02397C11.5554 6.92099 11.6742 6.82537 11.8971 6.59735C12.224 6.26635 12.3949 6.11924 12.5732 5.96477C12.6921 5.86179 12.8184 5.75146 13.0413 5.52344C13.2196 5.33955 13.279 5.266 13.3682 5.1336C13.5019 4.94971 13.6802 4.69963 14.0517 4.32449C14.6089 3.76547 15.3518 3.45654 16.1542 3.45654C16.9566 3.45654 17.8184 3.7949 18.435 4.39805C18.7025 4.65549 18.8362 4.77318 18.9774 4.89822C19.1408 5.04533 19.3117 5.19244 19.6312 5.50138C20.8422 6.67826 20.857 8.54656 19.6609 9.75286C19.3934 10.025 18.8511 10.584 18.5688 10.8635C18.3682 11.0621 18.2865 11.1725 18.1973 11.2902C18.0636 11.4667 17.8927 11.6874 17.5361 12.0478L16.4365 13.1511C16.1988 13.3938 16.0873 13.5189 15.9685 13.6513C15.8199 13.8131 15.6787 13.9823 15.3667 14.2912C15.0101 14.6516 14.7872 14.8208 14.6089 14.9606C14.4751 15.0635 14.386 15.1297 14.1928 15.3283L13.0933 16.439C12.8258 16.7112 12.276 17.2776 12.0011 17.5571C11.7634 17.7998 11.6445 17.9248 11.5331 18.0572C11.3845 18.2264 11.2359 18.3882 10.9313 18.7045C10.649 18.9914 9.82432 19.8152 9.82432 19.8152C9.24482 20.4037 8.4573 20.7273 7.6252 20.7273V20.7199Z" fill="#E5E5E5"/>
<path d="M16.1541 5.20689C16.5256 5.20689 16.9045 5.36135 17.1943 5.64086C17.7738 6.20723 17.8035 6.17781 18.383 6.74419C18.903 7.25172 18.8956 7.99463 18.383 8.50951C17.8332 9.06118 17.8406 9.06853 17.2908 9.6202C16.7411 10.1792 16.8154 10.2454 16.2656 10.7971C15.8991 11.1649 15.5325 11.5351 15.166 11.9078C14.6162 12.4594 14.646 12.4962 14.0962 13.0479C13.5464 13.6069 13.4721 13.5333 12.9223 14.0924C12.5558 14.4601 12.1893 14.8304 11.8228 15.203C11.273 15.762 11.2804 15.7621 10.7306 16.3211C10.1809 16.8801 10.2106 16.9095 9.66081 17.4685C9.11103 18.0275 9.1036 18.0202 8.55382 18.5792C8.30122 18.8367 7.95947 18.9617 7.62514 18.9617C7.29082 18.9617 6.94163 18.8293 6.6816 18.5792C6.08725 18.0276 6.05753 18.057 5.47803 17.4906C4.95797 16.9831 4.94311 16.0857 5.45574 15.5635C6.00552 15.0118 6.05753 15.0633 6.60731 14.5116C7.15709 13.9526 7.12737 13.9305 7.67715 13.3715C8.22692 12.8198 8.19721 12.7904 8.74699 12.2314C9.29677 11.6797 9.31163 11.6871 9.8614 11.1354C10.4112 10.5764 10.4855 10.65 11.0353 10.0909C11.585 9.53929 11.4736 9.42895 12.0234 8.87729C12.5731 8.31827 12.6252 8.36976 13.1749 7.81074C13.7247 7.25172 13.7693 7.29585 14.3191 6.73684C14.8688 6.17782 14.7797 6.0969 15.3295 5.53788C15.5598 5.30251 15.857 5.19953 16.1616 5.19953M16.1541 1.68359C14.8688 1.68359 13.6727 2.17641 12.7812 3.08114C12.3503 3.52247 12.12 3.82405 11.9194 4.10356C11.8698 4.16731 11.8178 4.2286 11.7633 4.28745C11.585 4.46398 11.5182 4.52282 11.3993 4.63316C11.2284 4.78027 10.9907 4.98622 10.6192 5.36135C10.4558 5.52317 10.3963 5.57466 10.2775 5.67764C10.0546 5.86888 9.82426 6.06748 9.46764 6.4279C8.99216 6.90601 8.73956 7.26643 8.54639 7.56065L8.50925 7.61949C8.50925 7.61949 8.49439 7.63421 8.47953 7.64892C8.36809 7.76661 8.3458 7.78132 8.23435 7.86223C7.98918 8.05347 7.70686 8.28149 7.30567 8.68605C7.0605 8.93614 6.9342 9.06118 6.8079 9.17887C6.65188 9.32598 6.49587 9.48044 6.19869 9.78202C5.86436 10.1204 5.70092 10.3043 5.5449 10.4808C5.44089 10.5911 5.3443 10.7088 5.12885 10.9221C4.78709 11.2678 4.60879 11.4664 4.46763 11.6283C4.37104 11.7386 4.26704 11.8489 4.05901 12.0622C3.90299 12.2167 3.85099 12.2608 3.73211 12.3638C3.50923 12.555 3.27149 12.7536 2.90745 13.1214C1.00551 15.0412 1.04265 18.1379 2.98174 20.0209C3.36064 20.3887 3.56124 20.5652 3.80641 20.7712C3.91785 20.8668 4.03672 20.9698 4.23732 21.1536C5.15857 22.0216 6.35471 22.4997 7.62514 22.4997C8.89557 22.4997 10.1734 21.9848 11.0947 21.058C11.3547 20.7932 11.4885 20.6608 11.6222 20.5284C11.7633 20.3813 11.9119 20.2416 12.2017 19.9473C12.5509 19.5943 12.7292 19.3957 12.8703 19.2265C12.9669 19.1162 13.0635 19.0058 13.2715 18.7999C13.5613 18.5057 13.7024 18.3585 13.8436 18.2114C13.9699 18.079 14.1036 17.9466 14.3636 17.6818L14.906 17.1375L15.4632 16.5712C15.5746 16.4535 15.5969 16.4388 15.7084 16.3578C15.961 16.1666 16.2359 15.9386 16.6371 15.534C16.9788 15.1883 17.1571 14.9824 17.3057 14.8205C17.4023 14.7102 17.4989 14.5999 17.7069 14.3939L18.2492 13.8423L18.8065 13.2832C19.2002 12.886 19.4231 12.6065 19.6088 12.3638C19.6906 12.2535 19.7128 12.224 19.8317 12.1064C20.1215 11.8195 20.2626 11.6724 20.4038 11.5253C20.5301 11.3929 20.6638 11.2605 20.9238 10.9957C21.8228 10.0836 22.3206 8.89935 22.328 7.66363C22.328 6.38377 21.8154 5.17011 20.8718 4.25802C20.5227 3.91967 20.3443 3.76521 20.166 3.60338C20.0397 3.49305 19.9209 3.38272 19.6831 3.1547C18.7396 2.24261 17.4543 1.71302 16.1541 1.71302V1.68359Z" fill="#1E1E1E"/>
</svg>
