<svg width="151" height="151" viewBox="0 0 151 151" fill="none" xmlns="http://www.w3.org/2000/svg">
<rect width="150.769" height="150.769" rx="3.74293" fill="#E5E5E5"/>
<path d="M28.9412 130.627C26.181 128.071 24.2469 125.002 22.5195 121.748C20.8676 118.454 19.4996 115.095 19.0415 111.356C21.8047 113.903 23.7483 116.975 25.4631 120.235C27.115 123.529 28.4735 126.885 28.9412 130.627Z" fill="#1E1E1E"/>
<path d="M125.558 43.4945C125.737 39.7363 126.841 36.2808 128.219 32.864C129.675 29.4799 131.365 26.2704 133.932 23.5125C133.762 27.2669 132.662 30.7317 131.271 34.1431C129.814 37.5271 128.12 40.7274 125.558 43.4945Z" fill="#1E1E1E"/>
<path d="M116.642 22.637C120.482 18.634 125.925 16.3841 131.468 16.568C127.645 20.5857 122.177 22.8024 116.642 22.637Z" fill="#1E1E1E"/>
</svg>
