<svg width="104" height="152" viewBox="0 0 104 152" fill="none" xmlns="http://www.w3.org/2000/svg">
<path d="M3.82251 21.9709C3.82251 21.1909 3.99242 20.2309 4.35242 19.3509C4.71242 18.4709 5.2525 17.6609 5.8125 17.1009C6.6225 16.2909 6.68243 16.3409 7.49243 15.5309C8.30243 14.7209 8.28242 14.6909 9.10242 13.8809C9.92242 13.0709 9.8924 13.0409 10.7124 12.2309C11.2524 11.6909 11.7957 11.1475 12.3424 10.6009C13.1624 9.78086 13.1924 9.81085 14.0024 9.00085C14.8124 8.19085 14.7525 8.12086 15.5725 7.30086C16.3925 6.48086 16.4725 6.56086 17.2825 5.74086C17.8325 5.19086 18.6324 4.67086 19.5024 4.30086C20.3724 3.93086 21.3124 3.69086 22.0924 3.69086C23.2924 3.69086 23.2924 3.75085 24.4924 3.75085C25.6924 3.75085 25.6925 3.68086 26.8925 3.68086C28.0925 3.68086 28.0925 3.75085 29.2925 3.75085C30.4925 3.75085 30.4925 3.75085 31.6925 3.75085C32.8925 3.75085 32.8924 3.75085 34.0924 3.75085C35.2924 3.75085 35.2924 3.68086 36.4924 3.68086C37.6924 3.68086 37.6925 3.67085 38.8925 3.67085C40.0925 3.67085 40.0925 3.77086 41.2925 3.77086C42.4925 3.77086 42.4925 3.70085 43.6925 3.70085C44.8925 3.70085 44.8924 3.68086 46.0924 3.68086C47.2924 3.68086 47.2924 3.75085 48.4924 3.75085C49.6924 3.75085 49.6925 3.78085 50.8925 3.78085C52.0925 3.78085 52.0925 3.65086 53.3025 3.65086C54.5125 3.65086 54.5025 3.77086 55.7025 3.77086C56.9025 3.77086 56.9024 3.70085 58.1024 3.70085C59.3024 3.70085 59.3025 3.65086 60.5125 3.65086C61.7225 3.65086 61.7125 3.67085 62.9225 3.67085C64.1325 3.67085 64.1225 3.63086 65.3325 3.63086C66.5425 3.63086 66.5424 3.69086 67.7424 3.69086C68.9424 3.69086 68.9525 3.64085 70.1525 3.64085C70.9325 3.64085 71.8724 3.91085 72.7324 4.28085C73.5924 4.65085 74.3725 5.21085 74.9025 5.78085C75.7225 6.64085 75.7325 6.62086 76.5525 7.47086C77.3725 8.32086 77.4124 8.28085 78.2324 9.14085C79.0524 10.0009 78.9725 10.0709 79.7925 10.9309C80.6125 11.7909 80.6824 11.7209 81.5024 12.5809C82.3224 13.4409 82.3325 13.4209 83.1525 14.2809C83.9725 15.1409 83.9024 15.1909 84.7224 16.0509C85.5424 16.9109 85.5624 16.8809 86.3824 17.7409C87.2024 18.6009 87.1424 18.6509 87.9624 19.5009C88.7824 20.3509 88.8124 20.3309 89.6324 21.1809C90.4524 22.0309 90.4625 22.0309 91.2825 22.8809C92.1025 23.7409 92.0724 23.7708 92.8824 24.6208C93.6924 25.4708 93.7425 25.4409 94.5625 26.3009C95.3825 27.1609 95.3625 27.1809 96.1825 28.0409C97.0025 28.9009 97.0624 28.8409 97.8824 29.7009C98.4224 30.2609 98.9125 31.1209 99.2725 32.0009C99.6325 32.8809 99.7925 33.8408 99.7925 34.6208C99.7925 35.7608 99.8624 35.7609 99.8624 36.9109C99.8624 38.0609 99.8125 38.0508 99.8125 39.2009C99.8125 40.3509 99.7524 40.3409 99.7524 41.4909C99.7524 42.6409 99.8225 42.6309 99.8225 43.7709C99.8225 44.9109 99.8624 44.9109 99.8624 46.0609C99.8624 47.2109 99.7625 47.2109 99.7625 48.3509C99.7625 49.4909 99.8724 49.5009 99.8724 50.6409C99.8724 51.7809 99.8724 51.7909 99.8724 52.9309C99.8724 54.0709 99.8025 54.0808 99.8025 55.2309C99.8025 56.3809 99.7524 56.3809 99.7524 57.5309C99.7524 58.3109 99.5724 59.2408 99.2124 60.1208C98.8524 61.0009 98.3824 61.8409 97.8424 62.4009C96.9924 63.2809 97.0025 63.2809 96.1525 64.1609C95.3025 65.0409 95.3424 65.0709 94.4924 65.9409C93.6424 66.8109 93.5824 66.7609 92.7324 67.6309C91.8824 68.5009 91.8825 68.5109 91.0425 69.3809C90.2025 70.2509 90.2425 70.3009 89.3925 71.1809C88.5425 72.0609 88.4724 71.9909 87.6324 72.8609C86.7824 73.7409 86.7925 73.7508 85.9425 74.6208C85.0925 75.4909 85.1425 75.5409 84.2925 76.4209C83.4425 77.3008 83.4324 77.2809 82.5924 78.1609C81.7424 79.0409 81.7024 79.0009 80.8524 79.8809C80.0024 80.7609 80.0325 80.7809 79.1825 81.6609C78.3325 82.5409 78.4025 82.6009 77.5525 83.4809C76.7025 84.3609 76.6625 84.3109 75.8125 85.1909C74.9625 86.0709 74.9925 86.0909 74.1425 86.9709C73.2925 87.8509 73.2825 87.8409 72.4325 88.7209C71.5825 89.6009 71.5724 89.5909 70.7224 90.4709C69.8724 91.3509 69.8224 91.3009 68.9724 92.1909C68.4324 92.7509 67.9425 93.6108 67.5825 94.4908C67.2225 95.3708 67.0725 96.3309 67.0725 97.1109C67.0725 98.3009 67.1024 98.3008 67.1024 99.4908C67.1024 100.681 67.1224 100.681 67.1224 101.881C67.1224 103.071 67.0825 103.071 67.0825 104.271C67.0825 105.471 67.1024 105.461 67.1024 106.651C67.1024 107.841 67.1024 107.841 67.1024 109.041C67.1024 110.231 67.0525 110.231 67.0525 111.431C67.0525 112.631 67.1024 112.621 67.1024 113.821C67.1024 115.011 67.1024 115.011 67.1024 116.211C67.1024 117.411 67.1024 117.401 67.1024 118.601C67.1024 119.801 67.0125 119.791 67.0125 120.991C67.0125 122.181 67.0425 122.181 67.0425 123.381C67.0425 124.581 67.1224 124.571 67.1224 125.771C67.1224 126.971 67.0325 126.971 67.0325 128.161C67.0325 129.351 67.0325 129.351 67.0325 130.541C67.0325 131.731 67.0924 131.731 67.0924 132.931C67.0924 134.131 67.0325 134.131 67.0325 135.321C67.0325 136.511 67.0024 136.521 67.0024 137.711C67.0024 138.901 67.0725 138.911 67.0725 140.101C67.0725 141.291 67.0525 141.301 67.0525 142.501C67.0525 143.701 67.0225 143.701 67.0225 144.901C67.0225 145.681 66.7224 146.371 66.2124 146.881C65.7024 147.391 65.0124 147.801 64.2324 147.801C63.0624 147.801 63.0625 147.681 61.8925 147.681C60.7225 147.681 60.7225 147.681 59.5525 147.681C58.3825 147.681 58.3824 147.781 57.2124 147.781C56.0424 147.781 56.0424 147.711 54.8724 147.711C53.7024 147.711 53.7025 147.711 52.5325 147.711C51.3625 147.711 51.3625 147.781 50.1925 147.781C49.0225 147.781 49.0224 147.681 47.8524 147.681C46.6824 147.681 46.6824 147.721 45.5125 147.721C44.3425 147.721 44.3425 147.671 43.1725 147.671C42.0025 147.671 42.0025 147.781 40.8325 147.781C39.6625 147.781 39.6624 147.701 38.4924 147.701C37.3224 147.701 37.3225 147.721 36.1525 147.721C34.9825 147.721 34.9825 147.691 33.8125 147.691C32.6425 147.691 32.6424 147.681 31.4724 147.681C30.3024 147.681 30.3024 147.711 29.1324 147.711C27.9624 147.711 27.9625 147.711 26.7925 147.711C25.6225 147.711 25.6225 147.751 24.4425 147.751C23.2625 147.751 23.2724 147.701 22.0924 147.701C21.3124 147.701 20.3925 147.491 19.5125 147.131C18.6325 146.771 17.8425 146.261 17.2925 145.711C16.4825 144.901 16.4725 144.911 15.6525 144.091C14.8325 143.271 14.7725 143.341 13.9525 142.531C13.1325 141.721 13.1525 141.701 12.3325 140.891C11.5125 140.081 11.5225 140.071 10.7025 139.261C9.88251 138.451 9.8825 138.451 9.0625 137.641C8.2425 136.831 8.32244 136.741 7.50244 135.921C6.68244 135.101 6.59247 135.191 5.78247 134.371C5.23247 133.821 4.76246 132.961 4.39246 132.081C4.02246 131.201 3.8125 130.261 3.8125 129.481C3.8125 128.291 3.83252 128.291 3.83252 127.101C3.83252 125.911 3.8125 125.911 3.8125 124.721C3.8125 123.531 3.79248 123.531 3.79248 122.341C3.79248 121.151 3.82251 121.151 3.82251 119.951C3.82251 118.751 3.79248 118.761 3.79248 117.561C3.79248 116.361 3.85242 116.371 3.85242 115.171C3.85242 113.971 3.84241 113.981 3.84241 112.781C3.84241 111.581 3.84241 111.591 3.84241 110.391C3.84241 109.191 3.80249 109.201 3.80249 108.001C3.80249 106.801 3.74243 106.811 3.74243 105.611C3.74243 104.411 3.77246 104.421 3.77246 103.221C3.77246 102.031 3.76245 102.031 3.76245 100.831C3.76245 99.6309 3.83252 99.6409 3.83252 98.4409C3.83252 97.2409 3.83252 97.2508 3.83252 96.0508C3.83252 94.8608 3.8125 94.8609 3.8125 93.6609C3.8125 92.4709 3.8125 92.4708 3.8125 91.2708C3.8125 90.0808 3.8125 90.0809 3.8125 88.8809C3.8125 87.6909 3.74243 87.6908 3.74243 86.4908C3.74243 85.2908 3.82251 85.3009 3.82251 84.1009C3.82251 82.9009 3.78247 82.9109 3.78247 81.7109C3.78247 80.5109 3.76245 80.5209 3.76245 79.3209C3.76245 78.1309 3.75244 78.1309 3.75244 76.9309C3.75244 75.7409 3.74243 75.7409 3.74243 74.5409C3.74243 73.3409 3.85242 73.3509 3.85242 72.1609C3.85242 70.9709 3.82251 70.9709 3.82251 69.7809C3.82251 68.5909 3.74243 68.5909 3.74243 67.4009C3.74243 66.2109 3.86243 66.2109 3.86243 65.0109C3.86243 63.8109 3.75244 63.8209 3.75244 62.6208C3.75244 61.4208 3.82251 61.4309 3.82251 60.2309C3.82251 59.0308 3.82251 59.0409 3.82251 57.8409C3.82251 56.6409 3.73242 56.6409 3.73242 55.4509C3.73242 54.2609 3.73242 54.2609 3.73242 53.0609C3.73242 51.8609 3.73242 51.8609 3.73242 50.6709C3.73242 49.4809 3.73242 49.4809 3.73242 48.2809C3.73242 47.0809 3.79248 47.0809 3.79248 45.8909C3.79248 44.7009 3.79248 44.7009 3.79248 43.5009C3.79248 42.3009 3.79248 42.3009 3.79248 41.1109C3.79248 39.9209 3.80249 39.9109 3.80249 38.7209C3.80249 37.5309 3.86243 37.5309 3.86243 36.3309C3.86243 35.1309 3.80249 35.1309 3.80249 33.9409C3.80249 32.7509 3.73242 32.7409 3.73242 31.5509C3.73242 30.3609 3.85242 30.3509 3.85242 29.1609C3.85242 27.9709 3.79248 27.9609 3.79248 26.7709C3.79248 25.5809 3.75244 25.5709 3.75244 24.3708C3.75244 23.1708 3.78247 23.1709 3.78247 21.9709H3.82251Z" fill="#E5E5E5"/>
<path d="M2.16211 129.48C2.16211 128.873 2.16776 128.565 2.17285 128.263C2.17777 127.971 2.18262 127.683 2.18262 127.101C2.18262 126.518 2.17777 126.231 2.17285 125.938C2.16776 125.636 2.16211 125.328 2.16211 124.721C2.16211 124.138 2.15726 123.851 2.15234 123.559C2.14725 123.256 2.14258 122.948 2.14258 122.341C2.14258 121.727 2.15051 121.415 2.1582 121.108C2.16551 120.818 2.17285 120.532 2.17285 119.951C2.17285 119.37 2.16551 119.087 2.1582 118.798C2.1505 118.492 2.14258 118.179 2.14258 117.561C2.14258 116.923 2.15904 116.596 2.1748 116.283C2.189 116.001 2.20215 115.733 2.20215 115.171C2.20215 114.577 2.19975 114.284 2.19727 113.989C2.19474 113.689 2.19238 113.387 2.19238 112.781V110.391C2.19238 109.816 2.18345 109.538 2.17383 109.251C2.1635 108.943 2.15235 108.626 2.15234 108.001C2.15234 107.439 2.13922 107.17 2.125 106.889C2.1092 106.576 2.09278 106.248 2.09277 105.611C2.09277 104.993 2.10069 104.679 2.1084 104.374C2.1157 104.084 2.12207 103.802 2.12207 103.221C2.12207 102.632 2.11967 102.339 2.11719 102.043C2.11466 101.742 2.11231 101.437 2.1123 100.831C2.1123 100.187 2.1318 99.8548 2.15039 99.5391C2.16683 99.2599 2.18262 98.9966 2.18262 98.4404V96.0508C2.18262 95.4687 2.17777 95.1812 2.17285 94.8877C2.16776 94.5837 2.16211 94.2734 2.16211 93.6611V88.8809C2.16211 88.3299 2.14637 88.0673 2.12988 87.7861C2.1113 87.4692 2.09278 87.1346 2.09277 86.4912C2.09277 85.8415 2.11433 85.5038 2.13574 85.1855C2.15436 84.909 2.17285 84.6505 2.17285 84.1006C2.17285 83.5258 2.16297 83.2479 2.15332 82.9609C2.14296 82.6531 2.13281 82.3357 2.13281 81.7109C2.13281 81.1237 2.12796 80.8361 2.12305 80.5439C2.11795 80.2412 2.11231 79.9335 2.1123 79.3213C2.1123 78.7327 2.1099 78.4397 2.10742 78.1436C2.1049 77.8422 2.10254 77.5369 2.10254 76.9307C2.10254 76.3424 2.10014 76.0499 2.09766 75.7539C2.09513 75.4526 2.09277 75.1471 2.09277 74.541C2.09277 73.8722 2.1241 73.5197 2.1543 73.1943C2.17917 72.9263 2.20214 72.6863 2.20215 72.1611C2.20215 71.5852 2.19478 71.3023 2.1875 71.0127C2.17983 70.7075 2.17285 70.3948 2.17285 69.7812C2.17285 69.2366 2.15438 68.9781 2.13574 68.7012C2.11435 68.3833 2.09277 68.0454 2.09277 67.4004C2.09279 66.7303 2.12815 66.3733 2.16113 66.0449C2.18803 65.777 2.21289 65.536 2.21289 65.0107C2.21289 64.4797 2.18892 64.2368 2.16406 63.9678C2.13394 63.6418 2.10255 63.2898 2.10254 62.6211C2.10254 61.9774 2.12203 61.6449 2.14062 61.3291C2.15706 61.0499 2.17285 60.7866 2.17285 60.2305V57.8408C2.17285 57.2973 2.15258 57.0418 2.13184 56.7666C2.10762 56.4453 2.08204 56.1026 2.08203 55.4512V48.2812C2.08203 47.6438 2.09846 47.3134 2.11426 46.999C2.12851 46.7155 2.14258 46.4477 2.14258 45.8906V41.1113C2.14258 40.5102 2.14494 40.2048 2.14746 39.9023C2.14994 39.6049 2.15234 39.3094 2.15234 38.7207C2.15235 38.0883 2.16883 37.761 2.18457 37.4473C2.19877 37.1642 2.21289 36.8936 2.21289 36.3311C2.21289 35.7685 2.19877 35.4979 2.18457 35.2148C2.16883 34.901 2.15234 34.5731 2.15234 33.9404C2.15234 33.3896 2.13661 33.1242 2.12012 32.8418C2.10158 32.5243 2.08203 32.1895 2.08203 31.5508C2.08203 30.8807 2.11743 30.5211 2.15039 30.1914C2.17741 29.9212 2.20214 29.6806 2.20215 29.1611C2.20215 28.6037 2.18904 28.3328 2.1748 28.0479C2.15907 27.7329 2.14258 27.4028 2.14258 26.7705C2.14257 26.2011 2.13272 25.921 2.12305 25.6299C2.1127 25.3185 2.10254 24.9958 2.10254 24.3711C2.10254 23.7526 2.11047 23.4375 2.11816 23.1299C2.12548 22.8376 2.13281 22.552 2.13281 21.9707V20.3213H2.34668C2.45453 19.7888 2.61236 19.2469 2.8252 18.7266C3.26122 17.6607 3.91839 16.6618 4.64551 15.9346C5.08614 15.4939 5.33366 15.2766 5.56641 15.0732C5.76855 14.8966 5.95697 14.7335 6.32617 14.3643C6.71496 13.9755 6.90033 13.7777 7.0957 13.5713C7.30354 13.3517 7.5165 13.1277 7.94238 12.707C8.33256 12.3216 8.51546 12.1274 8.70508 11.9258C8.91033 11.7075 9.12314 11.481 9.55273 11.0566C9.82031 10.7891 10.0892 10.5212 10.3584 10.252C10.63 9.98034 10.9025 9.70784 11.1758 9.43457C11.6051 9.00527 11.833 8.79202 12.0527 8.58789C12.2559 8.39915 12.4506 8.21937 12.8359 7.83398C13.1983 7.47161 13.3548 7.28741 13.5283 7.08398C13.733 6.84411 13.9545 6.58555 14.4062 6.13379C14.8675 5.67261 15.1362 5.45048 15.3799 5.24902C15.5777 5.08543 15.7552 4.93861 16.1084 4.58105L16.1152 4.57422H16.1162C16.843 3.84751 17.831 3.21836 18.8564 2.78223C19.8516 2.35902 21.0186 2.04102 22.0928 2.04102C22.7299 2.04102 23.0597 2.05748 23.375 2.07324C23.6596 2.08747 23.9299 2.10058 24.4922 2.10059C25.0486 2.10059 25.3145 2.08482 25.5967 2.06836C25.9144 2.04983 26.2492 2.03125 26.8926 2.03125C27.5361 2.03125 27.8707 2.04982 28.1885 2.06836C28.4706 2.08482 28.7366 2.10059 29.293 2.10059H34.0928C34.6489 2.10058 34.9142 2.08481 35.1963 2.06836C35.5141 2.04982 35.8487 2.03125 36.4922 2.03125C37.0859 2.03125 37.3813 2.02885 37.6787 2.02637C37.9813 2.02384 38.2864 2.02051 38.8926 2.02051C39.5548 2.02051 39.9042 2.04906 40.2295 2.07617C40.5042 2.09906 40.7553 2.12109 41.293 2.12109C41.849 2.12108 42.1144 2.10532 42.3965 2.08887C42.7143 2.07033 43.0489 2.05078 43.6924 2.05078C44.2799 2.05078 44.5704 2.04593 44.8652 2.04102C45.1703 2.03593 45.4805 2.03125 46.0928 2.03125C46.7362 2.03126 47.0709 2.04982 47.3887 2.06836C47.6707 2.08481 47.9361 2.10058 48.4922 2.10059C49.1107 2.10059 49.4258 2.10852 49.7334 2.11621C50.0257 2.12352 50.3113 2.13086 50.8926 2.13086C51.4114 2.13086 51.6477 2.10425 51.917 2.0752C52.2512 2.03914 52.6176 2.00098 53.3027 2.00098C53.9819 2.00098 54.3409 2.0362 54.6709 2.06934C54.9393 2.09628 55.1775 2.12108 55.7021 2.12109C56.2585 2.12109 56.5245 2.10533 56.8066 2.08887C57.1244 2.07033 57.4591 2.05078 58.1025 2.05078C58.6713 2.05078 58.9466 2.03932 59.2354 2.02734C59.5495 2.01431 59.8768 2.00098 60.5127 2.00098C61.1299 2.00098 61.4399 2.00566 61.7451 2.01074C62.0399 2.01565 62.3304 2.02051 62.9229 2.02051C63.5026 2.0205 63.7828 2.0116 64.0723 2.00195C64.3827 1.99161 64.7032 1.98047 65.333 1.98047C65.9746 1.98048 66.3064 1.99693 66.623 2.0127C66.9092 2.02695 67.1798 2.04101 67.7422 2.04102C68.3109 2.04102 68.589 2.02956 68.8789 2.01758C69.1939 2.00456 69.5214 1.99121 70.1523 1.99121C71.2549 1.99121 72.434 2.35659 73.3848 2.76562C74.4387 3.21911 75.4039 3.90338 76.0957 4.64258H76.0967C76.4974 5.06285 76.6967 5.26481 76.8975 5.4668C77.1059 5.67643 77.3212 5.89086 77.7402 6.3252C78.1254 6.72446 78.32 6.90796 78.5273 7.10449C78.756 7.32115 78.9922 7.5462 79.4268 8.00195C79.883 8.48041 80.1016 8.75476 80.3037 9.00879C80.4715 9.2196 80.6229 9.41081 80.9863 9.79199C81.3533 10.1769 81.5398 10.3409 81.7432 10.5215C81.9847 10.7359 82.2433 10.9673 82.6963 11.4424C83.0971 11.8628 83.2974 12.0654 83.501 12.2715C83.7124 12.4854 83.9276 12.703 84.3467 13.1426C84.7937 13.6114 85.0091 13.8713 85.2109 14.1162C85.384 14.3263 85.5442 14.5211 85.917 14.9121C86.3113 15.3257 86.5087 15.5209 86.7119 15.7217C86.9285 15.9357 87.1509 16.1565 87.5762 16.6025C88.0198 17.0678 88.2349 17.3245 88.4355 17.5635C88.61 17.7712 88.7739 17.9662 89.1494 18.3555C89.5438 18.7643 89.7442 18.959 89.9502 19.1602C90.1692 19.374 90.3947 19.594 90.8203 20.0352C91.2269 20.4566 91.4316 20.6668 91.6377 20.8779L92.4697 21.7354L92.4766 21.7422C92.905 22.1915 93.1165 22.4303 93.3203 22.6602C93.5095 22.8735 93.6909 23.0771 94.0771 23.4824C94.4571 23.8811 94.6515 24.0663 94.8574 24.2627C95.0842 24.4789 95.3223 24.7063 95.7568 25.1621C96.1791 25.6049 96.3888 25.8352 96.5938 26.0605C96.7888 26.2751 96.9792 26.4852 97.377 26.9023C97.75 27.2935 97.9389 27.4652 98.1426 27.6504C98.3775 27.864 98.6269 28.092 99.0693 28.5557H99.0703C99.8123 29.3252 100.399 30.3968 100.8 31.376C101.246 32.4674 101.442 33.6415 101.442 34.6211C101.442 35.1448 101.458 35.3934 101.475 35.6611C101.493 35.9664 101.513 36.2907 101.513 36.9111C101.513 37.5185 101.499 37.8293 101.486 38.1279C101.474 38.3993 101.463 38.6588 101.463 39.2012C101.463 39.8151 101.447 40.1313 101.431 40.4326C101.417 40.7012 101.402 40.9554 101.402 41.4912C101.402 42.0202 101.418 42.2691 101.435 42.5332C101.453 42.8357 101.473 43.1547 101.473 43.7705C101.473 44.3142 101.482 44.5788 101.491 44.8545C101.502 45.1516 101.513 45.4598 101.513 46.0605C101.513 46.7005 101.483 47.0403 101.456 47.3535C101.433 47.6136 101.412 47.8467 101.412 48.3506C101.412 48.8487 101.435 49.0798 101.46 49.3389C101.49 49.6547 101.522 49.9989 101.522 50.6406V52.9307C101.522 53.5464 101.503 53.8702 101.484 54.1768C101.468 54.4469 101.452 54.701 101.452 55.2305C101.452 55.8377 101.439 56.1514 101.426 56.4521C101.414 56.7263 101.402 56.9888 101.402 57.5312C101.402 58.5421 101.174 59.6832 100.739 60.7451C100.343 61.7145 99.7769 62.7715 99.0303 63.5459L99.0293 63.5469C98.6076 63.9835 98.4 64.2014 98.1914 64.4199C97.9801 64.6413 97.7669 64.8644 97.3389 65.3076C96.9351 65.7256 96.7483 65.9357 96.5518 66.1553C96.3384 66.3936 96.119 66.6371 95.6729 67.0938C95.2145 67.5629 94.9586 67.7938 94.7168 68.0117C94.5037 68.2037 94.3045 68.3835 93.9131 68.7842C93.0656 69.6516 93.0845 69.6418 92.2295 70.5273C91.8368 70.934 91.6571 71.1406 91.4658 71.3604C91.2539 71.6038 91.031 71.8594 90.5791 72.3271C90.1121 72.8106 89.8464 73.0457 89.5986 73.2637C89.4409 73.4024 89.294 73.5314 89.0713 73.752L88.8193 74.0068C88.0211 74.8332 87.9567 74.9211 87.123 75.7744C86.7286 76.1782 86.5513 76.3816 86.3652 76.5967C86.1561 76.8384 85.9342 77.0966 85.4795 77.5674C85.0457 78.0165 84.823 78.2382 84.6084 78.4541C84.4013 78.6624 84.1969 78.8695 83.7861 79.2998L83.7793 79.3076C83.5551 79.5398 83.382 79.7128 83.2363 79.8555L82.5176 80.543C82.3903 80.6677 82.2396 80.8197 82.0391 81.0273C81.6294 81.4515 81.4361 81.6636 81.2373 81.8818C81.0262 82.1135 80.8093 82.352 80.3691 82.8076C79.9838 83.2066 79.8176 83.4072 79.6377 83.624C79.4278 83.8769 79.2034 84.1465 78.7393 84.627C78.2872 85.095 78.042 85.3244 77.8076 85.543C77.5971 85.7393 77.3968 85.9251 76.999 86.3369C76.5891 86.7613 76.3962 86.9741 76.1973 87.1924C75.9862 87.4241 75.7691 87.6616 75.3291 88.1172C74.8982 88.5633 74.6784 88.7858 74.4609 89.0059C74.2485 89.2208 74.0381 89.4334 73.6191 89.8672C73.1882 90.3133 72.9685 90.5359 72.751 90.7559C72.5385 90.9708 72.3281 91.1834 71.9092 91.6172C71.4543 92.0882 71.2047 92.3191 70.9697 92.5371C70.7608 92.731 70.5609 92.9166 70.166 93.3301L70.1602 93.3359C69.8223 93.6863 69.4288 94.3344 69.1094 95.1152C68.8402 95.7731 68.7227 96.5182 68.7227 97.1113C68.7227 97.6872 68.73 97.9701 68.7373 98.2598C68.745 98.5649 68.752 98.8777 68.752 99.4912C68.752 100.073 68.7568 100.361 68.7617 100.654C68.7668 100.958 68.7725 101.268 68.7725 101.881C68.7725 102.501 68.7623 102.818 68.752 103.127C68.7423 103.415 68.7324 103.696 68.7324 104.271C68.7324 104.858 68.7373 105.146 68.7422 105.437C68.7472 105.738 68.752 106.043 68.752 106.65V109.041C68.752 109.667 68.7386 109.99 68.7256 110.301C68.7137 110.586 68.7021 110.862 68.7021 111.431C68.7021 111.999 68.7137 112.272 68.7256 112.557C68.7386 112.867 68.752 113.19 68.752 113.821V118.601C68.752 119.257 68.7274 119.599 68.7031 119.92C68.6824 120.194 68.6621 120.448 68.6621 120.991C68.6621 121.567 68.6694 121.85 68.6768 122.141C68.6845 122.447 68.6924 122.762 68.6924 123.381C68.6924 123.931 68.7099 124.188 68.7285 124.465C68.7499 124.783 68.7725 125.121 68.7725 125.771C68.7725 126.427 68.7469 126.772 68.7227 127.094C68.7019 127.37 68.6826 127.623 68.6826 128.161V130.541C68.6826 131.098 68.6957 131.366 68.71 131.649C68.7257 131.964 68.7422 132.293 68.7422 132.931C68.7422 133.568 68.7257 133.898 68.71 134.212C68.6957 134.496 68.6826 134.764 68.6826 135.321C68.6826 135.935 68.6747 136.25 68.667 136.558C68.6597 136.85 68.6523 137.135 68.6523 137.711C68.6523 138.262 68.6681 138.527 68.6846 138.81C68.7031 139.127 68.7226 139.462 68.7227 140.101C68.7227 140.708 68.717 141.018 68.7119 141.324C68.707 141.62 68.7021 141.913 68.7021 142.501C68.7021 143.12 68.6942 143.435 68.6865 143.742C68.6792 144.034 68.6729 144.319 68.6729 144.9C68.6729 146.121 68.1961 147.231 67.3789 148.048C66.6861 148.741 65.6012 149.451 64.2324 149.451C63.571 149.451 63.2179 149.415 62.8945 149.382C62.633 149.355 62.4008 149.331 61.8926 149.331H59.5527C59.032 149.331 58.7898 149.352 58.5234 149.375C58.2051 149.402 57.8615 149.431 57.2129 149.431C56.5834 149.431 56.255 149.411 55.9443 149.393C55.6701 149.376 55.4123 149.361 54.8721 149.361H52.5322C51.9922 149.361 51.7351 149.376 51.4609 149.393C51.1502 149.411 50.8221 149.431 50.1924 149.431C49.5435 149.431 49.2003 149.402 48.8818 149.375C48.6153 149.352 48.3734 149.331 47.8525 149.331C47.2934 149.331 47.0211 149.34 46.7393 149.35C46.4363 149.36 46.1231 149.371 45.5127 149.371C44.896 149.371 44.5779 149.358 44.2725 149.345C43.9931 149.333 43.7256 149.321 43.1729 149.321C42.6584 149.321 42.4211 149.343 42.1572 149.368C41.8364 149.398 41.488 149.431 40.833 149.431C40.1969 149.431 39.8632 149.408 39.5498 149.387C39.2782 149.368 39.0259 149.351 38.4922 149.351C37.9201 149.351 37.6378 149.355 37.3506 149.36C37.0528 149.365 36.7501 149.371 36.1523 149.371C35.5484 149.371 35.2407 149.363 34.9404 149.355C34.6558 149.348 34.3783 149.341 33.8125 149.341C33.2211 149.341 32.9231 149.338 32.6279 149.336C32.3382 149.333 32.0508 149.331 31.4727 149.331C30.9068 149.331 30.6293 149.338 30.3447 149.346C30.0444 149.353 29.7367 149.361 29.1328 149.361H26.793C26.2338 149.361 25.9611 149.37 25.6777 149.38C25.3733 149.39 25.0577 149.4 24.4424 149.4C23.8208 149.4 23.503 149.387 23.1973 149.374C22.9181 149.362 22.6507 149.351 22.0928 149.351C21.0458 149.351 19.9105 149.077 18.8877 148.658C17.8411 148.23 16.8563 147.608 16.126 146.878C15.7277 146.48 15.5277 146.285 15.3242 146.086C15.1152 145.882 14.9018 145.674 14.4854 145.258C14.1175 144.89 13.9341 144.734 13.7363 144.566C13.501 144.367 13.2453 144.152 12.793 143.705C12.3699 143.287 12.1593 143.068 11.9541 142.855C11.8568 142.755 11.761 142.655 11.6396 142.531L9.54297 140.435C9.13303 140.03 8.92764 139.827 8.72266 139.625C8.51767 139.423 8.31327 139.219 7.90332 138.814C7.43783 138.355 7.21186 138.082 7.00488 137.829C6.83717 137.624 6.69114 137.443 6.33594 137.088C5.98384 136.736 5.80576 136.594 5.60254 136.43C5.34754 136.224 5.07138 135.999 4.6084 135.53V135.529C3.83266 134.75 3.26445 133.656 2.87109 132.721C2.43474 131.683 2.16211 130.524 2.16211 129.48ZM5.40234 24.3711C5.40235 24.9459 5.41221 25.2286 5.42188 25.5195C5.43221 25.8306 5.44238 26.1507 5.44238 26.7705C5.44238 27.328 5.45647 27.5988 5.4707 27.8838C5.48643 28.1988 5.50195 28.5288 5.50195 29.1611C5.50194 29.8311 5.46753 30.1909 5.43457 30.5205C5.40756 30.7907 5.38281 31.0313 5.38281 31.5508C5.38281 32.1017 5.39855 32.3671 5.41504 32.6494C5.43358 32.9669 5.45214 33.3018 5.45215 33.9404C5.45215 34.4977 5.46624 34.7662 5.48047 35.0498C5.49623 35.3641 5.5127 35.694 5.5127 36.3311C5.51269 36.9683 5.49624 37.298 5.48047 37.6123C5.46624 37.8959 5.45215 38.1635 5.45215 38.7207C5.45215 39.322 5.44979 39.6272 5.44727 39.9297C5.44478 40.2271 5.44238 40.5226 5.44238 41.1113V45.8906C5.44238 46.5234 5.42593 46.8512 5.41016 47.165C5.39593 47.4481 5.38281 47.7188 5.38281 48.2812V55.4512C5.38282 55.989 5.40205 56.2416 5.42285 56.5176C5.44713 56.8397 5.47266 57.1847 5.47266 57.8408V60.2305C5.47266 60.8741 5.45316 61.2067 5.43457 61.5225C5.41813 61.8016 5.40234 62.0649 5.40234 62.6211C5.40235 63.1521 5.42533 63.3951 5.4502 63.6641C5.48032 63.99 5.51269 64.342 5.5127 65.0107C5.5127 65.6852 5.47742 66.0446 5.44434 66.374C5.41734 66.6429 5.39259 66.8812 5.39258 67.4004C5.39258 67.9451 5.41007 68.2035 5.42871 68.4805C5.4501 68.7984 5.47266 69.1362 5.47266 69.7812C5.47266 70.3572 5.48002 70.64 5.4873 70.9297C5.49497 71.2348 5.50195 71.5475 5.50195 72.1611C5.50194 72.8254 5.47053 73.1757 5.44043 73.5C5.41565 73.767 5.39258 74.0101 5.39258 74.541C5.39258 75.1345 5.39498 75.4296 5.39746 75.7256C5.39998 76.0268 5.40234 76.3295 5.40234 76.9307C5.40234 77.5244 5.40475 77.8201 5.40723 78.1162C5.40975 78.4174 5.41211 78.7203 5.41211 79.3213C5.41211 79.9085 5.41696 80.1961 5.42188 80.4883C5.42697 80.791 5.43262 81.0985 5.43262 81.7109C5.43262 82.2858 5.44152 82.5636 5.45117 82.8506C5.46153 83.1585 5.47265 83.4759 5.47266 84.1006C5.47266 84.7504 5.45013 85.088 5.42871 85.4062C5.4101 85.6828 5.39258 85.9413 5.39258 86.4912C5.39259 87.0471 5.40837 87.3124 5.4248 87.5928C5.44336 87.9091 5.46289 88.2418 5.46289 88.8809V93.6611C5.46289 94.2485 5.46774 94.5386 5.47266 94.832C5.47775 95.1358 5.48242 95.4433 5.48242 96.0508V98.4404C5.48242 99.084 5.46292 99.4167 5.44434 99.7324C5.4279 100.012 5.41211 100.275 5.41211 100.831C5.41211 101.425 5.41451 101.72 5.41699 102.016C5.41952 102.317 5.42285 102.62 5.42285 103.221C5.42285 103.839 5.41493 104.152 5.40723 104.457C5.39992 104.747 5.39258 105.03 5.39258 105.611C5.39259 106.173 5.40571 106.441 5.41992 106.723C5.43573 107.036 5.45215 107.363 5.45215 108.001C5.45215 108.576 5.46205 108.854 5.47168 109.141C5.48201 109.449 5.49218 109.766 5.49219 110.391V112.781C5.49219 113.375 5.49459 113.667 5.49707 113.962C5.49959 114.262 5.50195 114.565 5.50195 115.171C5.50195 115.808 5.48648 116.136 5.4707 116.449C5.45652 116.731 5.44239 116.998 5.44238 117.561C5.44238 118.142 5.44973 118.424 5.45703 118.714C5.46474 119.019 5.47266 119.332 5.47266 119.951C5.47265 120.57 5.46473 120.885 5.45703 121.191C5.44972 121.482 5.44238 121.765 5.44238 122.341C5.44238 122.923 5.44723 123.211 5.45215 123.503C5.45724 123.806 5.46289 124.113 5.46289 124.721C5.46289 125.303 5.46774 125.591 5.47266 125.883C5.47775 126.185 5.48242 126.493 5.48242 127.101C5.48242 127.708 5.47775 128.016 5.47266 128.318C5.46774 128.611 5.46289 128.898 5.46289 129.48C5.46289 129.997 5.60947 130.719 5.91309 131.441C6.21531 132.16 6.537 132.726 6.82715 133.07L6.94922 133.204L6.95605 133.211C7.30285 133.562 7.47743 133.702 7.6748 133.861C7.92402 134.062 8.20118 134.286 8.66895 134.754C9.13345 135.218 9.35735 135.493 9.55957 135.74C9.72258 135.94 9.86738 136.117 10.2217 136.467C10.6317 136.872 10.837 137.075 11.042 137.277C11.2469 137.48 11.4524 137.682 11.8623 138.087L13.4922 139.717C13.915 140.134 14.125 140.353 14.3301 140.565C14.5248 140.767 14.7154 140.965 15.1123 141.357C15.4795 141.72 15.6637 141.875 15.8682 142.048C16.1104 142.253 16.3673 142.472 16.8193 142.924C17.2229 143.327 17.4254 143.525 17.6289 143.724C17.8377 143.927 18.0477 144.133 18.459 144.544C18.8286 144.914 19.4236 145.312 20.1367 145.604C20.8739 145.905 21.5797 146.051 22.0928 146.051C22.7143 146.051 23.0321 146.064 23.3379 146.077C23.6171 146.089 23.8843 146.101 24.4424 146.101C25.007 146.101 25.2823 146.092 25.5654 146.082C25.8694 146.072 26.1826 146.061 26.793 146.061H29.1328C29.6981 146.061 29.9754 146.054 30.2598 146.047C30.5601 146.039 30.8685 146.031 31.4727 146.031C32.0637 146.031 32.3612 146.034 32.6562 146.036C32.9461 146.039 33.2339 146.041 33.8125 146.041C34.4164 146.041 34.7241 146.049 35.0244 146.057C35.309 146.064 35.5866 146.071 36.1523 146.071C36.7243 146.071 37.0068 146.066 37.2939 146.062C37.5917 146.056 37.8946 146.051 38.4922 146.051C39.1283 146.051 39.462 146.073 39.7754 146.095C40.0469 146.113 40.2994 146.131 40.833 146.131C41.3471 146.131 41.5839 146.108 41.8477 146.083C42.1686 146.053 42.5175 146.021 43.1729 146.021C43.7896 146.021 44.1075 146.035 44.4131 146.048C44.6924 146.06 44.9598 146.071 45.5127 146.071C46.0719 146.071 46.3441 146.061 46.626 146.052C46.929 146.041 47.242 146.031 47.8525 146.031C48.5014 146.031 48.8446 146.06 49.1631 146.087C49.4296 146.11 49.6715 146.131 50.1924 146.131C50.7325 146.131 50.9896 146.115 51.2637 146.099C51.5744 146.08 51.9026 146.061 52.5322 146.061H54.8721C55.5016 146.061 55.8299 146.08 56.1406 146.099C56.4148 146.115 56.6726 146.131 57.2129 146.131C57.7336 146.131 57.9757 146.11 58.2422 146.087C58.5606 146.06 58.904 146.031 59.5527 146.031H61.8926C62.554 146.031 62.9071 146.066 63.2305 146.1C63.492 146.126 63.7242 146.15 64.2324 146.15C64.4234 146.15 64.7187 146.041 65.0459 145.714C65.2486 145.511 65.3721 145.239 65.3721 144.9C65.3721 144.282 65.38 143.967 65.3877 143.659C65.395 143.367 65.4023 143.082 65.4023 142.501C65.4023 141.889 65.408 141.576 65.4131 141.27C65.418 140.973 65.4229 140.683 65.4229 140.101C65.4228 139.55 65.4071 139.284 65.3906 139.002C65.3721 138.684 65.3525 138.35 65.3525 137.711C65.3525 137.097 65.3605 136.782 65.3682 136.475C65.3755 136.182 65.3828 135.897 65.3828 135.321C65.3828 134.689 65.3983 134.361 65.4141 134.047C65.4283 133.764 65.4424 133.493 65.4424 132.931C65.4424 132.368 65.4283 132.098 65.4141 131.814C65.3983 131.501 65.3828 131.173 65.3828 130.541V128.161C65.3828 127.51 65.4075 127.167 65.4316 126.846C65.4524 126.57 65.4727 126.314 65.4727 125.771C65.4726 125.221 65.4551 124.963 65.4365 124.687C65.4151 124.368 65.3926 124.031 65.3926 123.381C65.3926 122.8 65.3852 122.514 65.3779 122.224C65.3702 121.917 65.3623 121.605 65.3623 120.991C65.3623 120.335 65.3879 119.993 65.4121 119.672C65.4328 119.398 65.4521 119.144 65.4521 118.601V113.821C65.4521 113.253 65.4406 112.98 65.4287 112.695C65.4157 112.385 65.4023 112.062 65.4023 111.431C65.4023 110.8 65.4157 110.475 65.4287 110.163C65.4407 109.877 65.4521 109.604 65.4521 109.041V106.65C65.4521 106.068 65.4473 105.783 65.4424 105.492C65.4373 105.191 65.4326 104.883 65.4326 104.271C65.4326 103.646 65.4428 103.326 65.4531 103.017C65.4628 102.728 65.4727 102.45 65.4727 101.881C65.4727 101.293 65.4678 101.003 65.4629 100.71C65.4578 100.406 65.4522 100.099 65.4521 99.4912C65.4521 98.9153 65.4448 98.6324 65.4375 98.3428C65.4298 98.0376 65.4229 97.7248 65.4229 97.1113C65.4229 96.1444 65.6048 94.9684 66.0557 93.8662C66.4553 92.8894 67.0396 91.82 67.7793 91.0508L68.332 90.4893C68.4816 90.3433 68.6051 90.2289 68.7256 90.1172C68.9405 89.9178 69.1404 89.7329 69.5352 89.3242C69.9662 88.878 70.1868 88.6556 70.4043 88.4355C70.6167 88.2207 70.8273 88.0078 71.2461 87.5742C71.6769 87.1283 71.8968 86.9055 72.1143 86.6855C72.3266 86.4707 72.5373 86.2578 72.9561 85.8242C73.3657 85.4001 73.559 85.1879 73.7578 84.9697C73.9689 84.738 74.1859 84.5005 74.626 84.0449C75.078 83.5769 75.3232 83.3475 75.5576 83.1289C75.768 82.9327 75.9678 82.7464 76.3652 82.335C76.7509 81.9357 76.9176 81.7346 77.0977 81.5176C77.3075 81.2647 77.5319 80.9952 77.9961 80.5146C78.4059 80.0904 78.599 79.8774 78.7979 79.6592C79.0089 79.4276 79.2261 79.1898 79.666 78.7344C80.1147 78.2698 80.3571 78.041 80.5898 77.8213C80.802 77.6211 81.0045 77.4296 81.4053 77.0146C81.8298 76.57 82.0494 76.3483 82.2686 76.1279C82.4814 75.9138 82.6893 75.7053 83.1055 75.2744C83.5006 74.8654 83.6783 74.6581 83.8691 74.4375C84.0831 74.1901 84.3072 73.9339 84.7627 73.4678C85.6287 72.5814 85.5439 72.648 86.4453 71.7148C86.9078 71.2358 87.1719 71.0035 87.4189 70.7861C87.6286 70.6017 87.8231 70.4307 88.2061 70.0342C88.6038 69.6224 88.7861 69.4132 88.9766 69.1943C89.1878 68.9517 89.4083 68.6976 89.8555 68.2344C90.6802 67.3802 90.6994 67.35 91.5518 66.4775C92.01 66.0085 92.2661 65.7784 92.5078 65.5605C92.721 65.3685 92.9209 65.1889 93.3125 64.7881C93.7161 64.375 93.9012 64.1681 94.0928 63.9541C94.3012 63.7212 94.5199 63.4764 94.9658 63.0146C95.3877 62.5779 95.595 62.3602 95.8037 62.1416C96.0149 61.9203 96.2274 61.6978 96.6553 61.2549C96.9884 60.9092 97.3623 60.2862 97.6855 59.4961C97.9709 58.7985 98.1025 58.0802 98.1025 57.5312C98.1025 56.924 98.1158 56.6103 98.1289 56.3096C98.1408 56.0354 98.1523 55.7729 98.1523 55.2305C98.1524 54.6105 98.1718 54.2847 98.1904 53.9775C98.2068 53.7066 98.2227 53.4549 98.2227 52.9307V50.6406C98.2226 50.1429 98.1996 49.9122 98.1748 49.6533C98.1446 49.3374 98.1123 48.9925 98.1123 48.3506C98.1123 47.7153 98.1417 47.3785 98.1689 47.0664C98.1916 46.8071 98.2129 46.5705 98.2129 46.0605C98.2129 45.5118 98.203 45.245 98.1934 44.9697C98.183 44.673 98.1729 44.3667 98.1729 43.7705C98.1728 43.247 98.157 43.0011 98.1406 42.7363C98.1219 42.4331 98.1025 42.1117 98.1025 41.4912C98.1025 40.877 98.1189 40.5602 98.1348 40.2588C98.1489 39.9904 98.1621 39.7366 98.1621 39.2012C98.1621 38.5936 98.1764 38.2821 98.1895 37.9834C98.2013 37.7122 98.2129 37.4532 98.2129 36.9111C98.2129 36.3816 98.197 36.1295 98.1807 35.8623C98.1621 35.5579 98.1426 35.2366 98.1426 34.6211C98.1426 34.0407 98.0185 33.2945 97.7451 32.626C97.4257 31.8452 97.0322 31.1961 96.6943 30.8457L96.6885 30.8398C96.3155 30.4486 96.1265 30.277 95.9229 30.0918C95.6867 29.8771 95.4351 29.6483 94.9883 29.1797C94.5661 28.7369 94.3562 28.5066 94.1514 28.2812C93.9563 28.0667 93.7659 27.8566 93.3682 27.4395C92.9829 27.0354 92.7858 26.8476 92.5801 26.6514C92.3536 26.4354 92.1174 26.2099 91.6875 25.7588C91.2641 25.3145 91.0547 25.0787 90.8516 24.8496C90.663 24.637 90.4794 24.4302 90.0879 24.0195V24.0186C89.6861 23.602 89.4823 23.3934 89.2773 23.1836C89.0686 22.9698 88.8585 22.7544 88.4453 22.3262C88.0509 21.9173 87.8505 21.7226 87.6445 21.5215C87.4256 21.3077 87.2008 21.0874 86.7754 20.6465C86.331 20.1859 86.1147 19.9302 85.9092 19.6855C85.7299 19.4721 85.5645 19.2742 85.1885 18.8799C84.7938 18.466 84.596 18.2703 84.3926 18.0693C84.176 17.8554 83.9535 17.6354 83.5283 17.1895C83.0811 16.7205 82.8659 16.4598 82.6641 16.2148C82.4911 16.0049 82.3306 15.8107 81.958 15.4199C81.5572 14.9995 81.3569 14.7969 81.1533 14.5908C80.942 14.3769 80.7275 14.1591 80.3086 13.7197C79.9416 13.3349 79.7551 13.1708 79.5518 12.9902C79.3102 12.7758 79.0516 12.5444 78.5986 12.0693C78.1426 11.5911 77.9238 11.3174 77.7217 11.0635C77.5538 10.8525 77.4019 10.6608 77.0381 10.2793C76.653 9.87544 76.459 9.69068 76.2578 9.5C76.0353 9.28907 75.8 9.06684 75.3652 8.61621C74.9645 8.20078 74.7641 8.00072 74.5576 7.79297C74.3434 7.5775 74.1271 7.35945 73.708 6.91992L73.6943 6.9043C73.3272 6.50948 72.7387 6.08024 72.0801 5.79688C71.3109 5.46594 70.6097 5.29102 70.1523 5.29102C69.5835 5.29102 69.3056 5.30247 69.0156 5.31445C68.7007 5.32747 68.3732 5.34082 67.7422 5.34082C67.1049 5.34082 66.7752 5.32434 66.459 5.30859C66.1734 5.29437 65.9005 5.28126 65.333 5.28125C64.7529 5.28125 64.4722 5.29016 64.1826 5.2998C63.8723 5.31015 63.5524 5.32129 62.9229 5.32129C62.3057 5.32129 61.9955 5.31563 61.6904 5.31055C61.3957 5.30564 61.1051 5.30078 60.5127 5.30078C59.9386 5.30078 59.6604 5.31226 59.3721 5.32422C59.0583 5.33723 58.7336 5.35058 58.1025 5.35059C57.5465 5.35059 57.281 5.36636 56.999 5.38281C56.6812 5.40136 56.3458 5.4209 55.7021 5.4209C55.0275 5.42089 54.6707 5.38556 54.3418 5.35254C54.0744 5.32569 53.8331 5.30079 53.3027 5.30078C52.7781 5.30078 52.5387 5.32751 52.2705 5.35645C51.9374 5.39238 51.5735 5.43066 50.8926 5.43066C50.274 5.43066 49.959 5.42273 49.6514 5.41504C49.3591 5.40773 49.0735 5.40039 48.4922 5.40039C47.8487 5.40039 47.5141 5.38182 47.1963 5.36328C46.9142 5.34683 46.6489 5.33106 46.0928 5.33105C45.5052 5.33105 45.2148 5.33591 44.9199 5.34082C44.6148 5.3459 44.3048 5.35059 43.6924 5.35059C43.1363 5.35059 42.8709 5.36636 42.5889 5.38281C42.2711 5.40135 41.9363 5.42089 41.293 5.4209C40.6306 5.4209 40.2804 5.39235 39.9551 5.36523C39.6805 5.34236 39.4299 5.32129 38.8926 5.32129C38.2988 5.32129 38.0035 5.32369 37.7061 5.32617C37.4035 5.3287 37.0983 5.33105 36.4922 5.33105C35.9361 5.33106 35.6707 5.34683 35.3887 5.36328C35.0709 5.38182 34.7362 5.40038 34.0928 5.40039H29.293C28.6493 5.40039 28.3139 5.38182 27.9961 5.36328C27.7141 5.34683 27.4487 5.33106 26.8926 5.33105C26.3362 5.33105 26.0702 5.34682 25.7881 5.36328C25.4704 5.38181 25.1355 5.40039 24.4922 5.40039C23.8549 5.40039 23.5252 5.3849 23.21 5.36914C22.9254 5.35491 22.6551 5.34083 22.0928 5.34082C21.607 5.34082 20.8933 5.50259 20.1484 5.81934C19.4341 6.12311 18.8224 6.5341 18.4492 6.90723C17.9968 7.36478 17.7307 7.5867 17.4824 7.79199C17.2787 7.96047 17.0978 8.10923 16.7393 8.46777C16.3711 8.83593 16.2119 9.02299 16.0391 9.22559C15.8352 9.46452 15.6163 9.72063 15.1689 10.168C14.7445 10.5924 14.5181 10.8021 14.2988 11.0059C14.0961 11.1942 13.8994 11.377 13.5088 11.7676L11.8721 13.4043C11.4817 13.7899 11.2991 13.9848 11.1094 14.1865C10.9042 14.4047 10.6912 14.6304 10.2617 15.0547C9.86822 15.4434 9.6816 15.6397 9.49219 15.8398C9.29012 16.0534 9.08016 16.2763 8.65918 16.6973C8.21842 17.138 7.97109 17.3552 7.73828 17.5586C7.53616 17.7352 7.34861 17.8985 6.97949 18.2676C6.58678 18.6603 6.16378 19.2817 5.87988 19.9756C5.60197 20.6549 5.47268 21.4025 5.47266 21.9707V23.6211H5.4082C5.40495 23.8139 5.40234 24.0464 5.40234 24.3711Z" fill="#1E1E1E"/>
<path d="M31.1837 91.3607L23.0137 83.1907L28.4736 77.7307L31.3937 77.4707L33.9437 80.0207L33.6737 83.0307L29.6837 87.0207L32.6036 89.9407L31.1937 91.3506L31.1837 91.3607ZM28.2637 85.6006L31.7437 82.1207L31.8737 80.7707L30.6437 79.5406L29.4337 79.6507L25.8737 83.2107L28.2637 85.6006Z" fill="#1E1E1E"/>
<path d="M39.7043 82.8405L35.5444 78.6805L33.2344 77.4605L34.1344 75.6705L35.9244 76.6205L35.9644 74.2005L37.9344 72.2305L39.3744 73.6705L37.9344 75.1105L37.8844 78.1905L41.1144 81.4205L39.7043 82.8305V82.8405Z" fill="#1E1E1E"/>
<path d="M46.4834 76.0503H43.0535L40.2734 73.2903V69.8603L43.3235 66.8203H46.7534L49.5334 69.5803V73.0103L46.4834 76.0503ZM45.6835 74.0703L47.5435 72.2103V70.4303L45.9235 68.8103L44.1134 68.8403L42.2734 70.6803V72.4603L43.8934 74.0803H45.6735L45.6835 74.0703Z" fill="#1E1E1E"/>
<path d="M58.3641 64.5403L56.9541 63.8103L56.7141 65.8303L54.1442 68.4003L50.8042 68.2603L48.0042 65.4603L47.9142 62.2603L50.3142 59.8603L52.2542 59.4903L49.4941 56.7303L50.9042 55.3203L57.4941 61.9103L59.2241 62.7503L58.3741 64.5603L58.3641 64.5403ZM53.4142 66.3403L54.7642 64.9903L55.0941 62.3303L53.9541 61.1903L51.2241 61.7303L49.9541 63.0003L50.0042 64.6303L51.6542 66.2803L53.4142 66.3403Z" fill="#1E1E1E"/>
<path d="M66.1838 56.7109L64.6438 55.9209L64.3938 58.1409L62.1838 60.3509L59.3038 60.2709L54.5938 55.5609L56.0038 54.1509L60.1638 58.3109L61.3038 58.3509L62.5638 57.0909L62.8538 54.4409L59.2838 50.8709L60.6938 49.4609L65.2938 54.0609L67.0238 54.9009L66.1738 56.7109H66.1838Z" fill="#1E1E1E"/>
<path d="M69.9347 52.6105L66.6947 52.5105L63.8047 49.6205L63.8346 46.3205L66.9247 43.2305L70.0946 43.3105L70.0747 45.2705L67.7246 45.2105L65.8346 47.1005V48.8105L67.5247 50.5005L69.1747 50.5505L71.2246 48.5005L72.0647 46.4905L73.9047 47.2505L72.9147 49.6105L69.9247 52.6005L69.9347 52.6105Z" fill="#1E1E1E"/>
<path d="M78.1146 44.4205L75.5747 44.3406L72.0747 40.8406L70.1847 42.7305L68.8047 41.3505L70.3346 39.8206L68.8947 37.7505L70.5146 36.5605L71.7747 38.3806L74.3446 35.8105L75.7246 37.1906L73.4846 39.4305L76.4447 42.3906L77.3346 42.4105L78.9746 40.7706L80.3646 42.1605L78.1046 44.4205H78.1146Z" fill="#1E1E1E"/>
<path d="M23.9941 121.18L15.8242 113.01L17.2341 111.6L25.4042 119.77L23.9941 121.18Z" fill="#1E1E1E"/>
<path d="M27.1752 118L23.0151 113.84L20.7051 112.62L21.6051 110.83L23.3951 111.78L23.4352 109.36L25.8851 106.91L28.7651 106.99L33.4751 111.7L32.0652 113.11L27.9052 108.95L26.7651 108.92L25.4052 110.28L25.3551 113.36L28.5851 116.59L27.1752 118Z" fill="#1E1E1E"/>
<path d="M37.1146 108.051L34.5747 107.971L31.0747 104.471L29.1847 106.361L27.8047 104.981L29.3346 103.451L27.8947 101.381L29.5146 100.201L30.7747 102.021L33.3446 99.4512L34.7246 100.831L32.4846 103.071L35.4447 106.031L36.3346 106.051L37.9746 104.411L39.3646 105.801L37.1046 108.061L37.1146 108.051Z" fill="#1E1E1E"/>
<path d="M44.3741 95.9598L39.3741 100.96L39.6642 101.25H41.1442L43.6642 98.7198L44.2942 97.2698L46.0941 98.0098L45.3341 99.8198L41.9541 103.2L38.9242 103.23L35.7441 100.05L35.7742 97.0198L39.2041 93.5898L42.0941 93.6798L44.3741 95.9598ZM37.7341 97.8398V99.3198L38.0742 99.6698L41.6542 96.0898L41.2141 95.6498L39.9741 95.6098L37.7341 97.8498V97.8398Z" fill="#1E1E1E"/>
<path d="M48.2043 96.9714L44.0444 92.8113L41.7344 91.5914L42.6344 89.8013L44.4244 90.7513L44.4644 88.3314L46.4344 86.3613L47.8744 87.8013L46.4344 89.2413L46.3844 92.3214L49.6144 95.5513L48.2043 96.9614V96.9714Z" fill="#1E1E1E"/>
<path d="M58.9637 86.5698L57.1038 86.9398L56.6138 86.4498L56.4938 87.7897L55.7137 89.4598L54.0438 91.1298L51.9637 91.0497L50.5837 89.6697L50.4738 87.8398L53.4038 83.4897L53.1038 83.1898H52.2738L50.3138 85.1398L50.1838 85.6697L50.4637 86.4197L48.6238 87.1797L48.1738 85.9698L48.5538 84.2498L51.5438 81.2598L54.0238 81.2798L57.5338 84.7897L58.1138 84.6597L58.7738 83.6898L60.2338 84.6998L58.9738 86.5598L58.9637 86.5698ZM53.4138 89.2297L54.2738 88.3698L54.7838 87.2798L55.1338 85.2498L54.5739 84.6898L52.3239 88.1898L52.3738 88.6697L52.9138 89.2098L53.4138 89.2397V89.2297Z" fill="#1E1E1E"/>
<path d="M62.3937 82.7706L59.1537 82.6706L56.2637 79.7806L56.2937 76.4806L59.3837 73.3906L62.5537 73.4706L62.5337 75.4306L60.1837 75.3706L58.2937 77.2606V78.9706L59.9836 80.6606L61.6337 80.7106L63.6837 78.6606L64.5237 76.6506L66.3636 77.4106L65.3737 79.7706L62.3837 82.7606L62.3937 82.7706Z" fill="#1E1E1E"/>
<path d="M70.5834 74.5905L68.0435 74.5105L64.5435 71.0105L62.6534 72.9005L61.2734 71.5205L62.8035 69.9905L61.3634 67.9205L62.9834 66.7305L64.2434 68.5505L66.8135 65.9805L68.1935 67.3605L65.9534 69.6005L68.9135 72.5605L69.8035 72.5805L71.4435 70.9405L72.8334 72.3305L70.5735 74.5905H70.5834Z" fill="#1E1E1E"/>
<path d="M65.8736 63.2804C65.3136 62.7204 65.3036 61.7903 65.8536 61.2303C66.4036 60.6803 67.3336 60.6804 67.9036 61.2504C68.4736 61.8204 68.4737 62.7403 67.9237 63.3003C67.3737 63.8503 66.4436 63.8504 65.8736 63.2804ZM74.1837 70.9803L67.9936 64.7903L69.4036 63.3804L75.5936 69.5704L74.1837 70.9803Z" fill="#1E1E1E"/>
<path d="M78.7942 66.3706H75.3641L72.5841 63.6106V60.1806L75.6342 57.1406H79.0642L81.8441 59.9006V63.3306L78.7942 66.3706ZM77.9841 64.3906L79.8441 62.5306V60.7506L78.2241 59.1306L76.4142 59.1606L74.5742 61.0006V62.7906L76.1942 64.4106H77.9841V64.3906Z" fill="#1E1E1E"/>
<path d="M85.0247 60.1408L80.8646 55.9808L78.5547 54.7608L79.4546 52.9708L81.2446 53.9208L81.2847 51.5008L83.7346 49.0508L86.6146 49.1308L91.3247 53.8408L89.9147 55.2508L85.7546 51.0908L84.6146 51.0608L83.2546 52.4208L83.2046 55.5008L86.4347 58.7308L85.0247 60.1408Z" fill="#1E1E1E"/>
</svg>
