<svg width="245" height="148" viewBox="0 0 245 148" fill="none" xmlns="http://www.w3.org/2000/svg">
<path d="M228.048 103.33C227.498 102.78 227.128 102.14 226.948 101.44C226.768 100.74 226.678 99.9504 226.868 99.2304C227.058 98.5104 227.508 97.9104 228.058 97.3704C228.848 96.5804 228.798 96.5304 229.598 95.7404C230.168 95.1704 230.718 94.4404 231.168 93.6004C231.588 92.8304 231.868 91.9604 232.118 91.1104C232.398 90.1904 232.648 89.3004 232.648 88.5004C232.648 87.3904 232.588 87.3904 232.588 86.2704C232.588 85.1504 232.588 85.1604 232.588 84.0404C232.588 82.9204 232.598 82.9304 232.598 81.8104C232.598 81.0104 232.468 80.0904 232.198 79.1804C231.948 78.3404 231.578 77.4904 231.158 76.7204C230.708 75.8804 230.158 75.1404 229.588 74.5704C228.798 73.7804 228.788 73.7904 227.998 73.0004C227.448 72.4504 227.158 71.7604 226.968 71.0604C226.778 70.3604 226.768 69.6004 226.968 68.8804C227.168 68.1604 227.428 67.4604 227.978 66.9204C228.898 66.0004 228.908 66.0204 229.828 65.1004C230.748 64.1804 230.818 64.2504 231.728 63.3404C232.638 62.4304 232.648 62.4304 233.568 61.5104C234.488 60.5904 234.438 60.5404 235.358 59.6204C236.278 58.7004 236.288 58.7204 237.208 57.8004C237.778 57.2304 238.238 56.4404 238.688 55.5904C239.108 54.8204 239.488 53.9904 239.738 53.1504C240.018 52.2304 240.208 51.3304 240.208 50.5304C240.208 49.4204 240.238 49.4204 240.238 48.3004C240.238 47.1804 240.278 47.1904 240.278 46.0704C240.278 44.9504 240.148 44.9604 240.148 43.8404C240.148 43.0404 240.028 42.1404 239.758 41.2204C239.508 40.3804 239.218 39.5004 238.798 38.7204C238.348 37.8804 237.808 37.1104 237.238 36.5404C236.318 35.6204 236.258 35.6904 235.338 34.7704C234.418 33.8504 234.438 33.8404 233.518 32.9304C232.598 32.0204 232.658 31.9604 231.738 31.0404C230.818 30.1204 230.788 30.1504 229.868 29.2404C228.948 28.3304 228.978 28.2904 228.058 27.3804C227.488 26.8104 226.718 26.2804 225.878 25.8204C225.108 25.4004 224.228 25.1104 223.378 24.8604C222.458 24.5804 221.558 24.3404 220.758 24.3404C219.588 24.3404 219.588 24.3704 218.408 24.3704C217.228 24.3704 217.238 24.4604 216.058 24.4604C214.878 24.4604 214.888 24.3704 213.708 24.3704C212.528 24.3704 212.538 24.3904 211.358 24.3904C210.178 24.3904 210.188 24.3604 209.008 24.3604C207.828 24.3604 207.838 24.3904 206.658 24.3904C205.478 24.3904 205.478 24.4104 204.308 24.4104C203.138 24.4104 203.138 24.4104 201.958 24.4104C200.778 24.4104 200.778 24.4504 199.608 24.4504C198.438 24.4504 198.438 24.3404 197.258 24.3404C196.078 24.3404 196.078 24.3404 194.908 24.3404C193.738 24.3404 193.728 24.3804 192.558 24.3804C191.388 24.3804 191.388 24.4504 190.208 24.4504C189.028 24.4504 189.028 24.4404 187.858 24.4404C186.688 24.4404 186.678 24.3804 185.508 24.3804C184.338 24.3804 184.328 24.4004 183.158 24.4004C181.988 24.4004 181.978 24.3704 180.808 24.3704C179.638 24.3704 179.628 24.4204 178.448 24.4204C177.268 24.4204 177.268 24.4804 176.088 24.4804C175.288 24.4804 174.368 24.5404 173.448 24.8204C172.608 25.0704 171.758 25.4404 170.978 25.8604C170.138 26.3104 169.348 26.8204 168.778 27.3904C167.888 28.2804 167.978 28.3804 167.078 29.2704C166.178 30.1604 166.118 30.1004 165.228 30.9904C164.338 31.8804 164.318 31.8704 163.418 32.7604C162.518 33.6504 162.558 33.7004 161.658 34.5904C160.758 35.4804 160.748 35.4804 159.848 36.3704C159.018 37.2004 158.298 37.4204 157.748 37.1904C157.198 36.9604 156.838 36.2904 156.838 35.1204C156.838 33.9004 156.768 33.9004 156.768 32.6904C156.768 31.4804 156.868 31.4704 156.868 30.2604C156.868 29.0504 156.768 29.0404 156.768 27.8304C156.768 26.6204 156.828 26.6104 156.828 25.3904C156.828 24.1704 156.798 24.1704 156.798 22.9504C156.798 22.1504 156.628 21.2504 156.358 20.3304C156.108 19.4904 155.788 18.6304 155.378 17.8504C154.928 17.0104 154.348 16.3004 153.778 15.7304C152.868 14.8204 152.908 14.7804 151.998 13.8604C151.088 12.9404 151.118 12.9204 150.198 12.0104C149.278 11.1004 149.308 11.0804 148.398 10.1704C147.488 9.26038 147.488 9.25038 146.578 8.34038C145.668 7.43038 145.628 7.46038 144.708 6.55038C143.788 5.64038 143.738 5.69039 142.828 4.77039C142.258 4.20039 141.538 3.65038 140.698 3.19038C139.928 2.77038 139.078 2.43038 138.238 2.17038C137.318 1.89038 136.418 1.75038 135.618 1.75038C134.408 1.75038 134.408 1.68039 133.208 1.68039C132.008 1.68039 131.998 1.78038 130.788 1.78038C129.578 1.78038 129.578 1.65039 128.368 1.65039C127.158 1.65039 127.158 1.76039 125.948 1.76039C124.738 1.76039 124.738 1.71039 123.528 1.71039C122.318 1.71039 122.318 1.78038 121.108 1.78038C119.898 1.78038 119.898 1.71039 118.688 1.71039C117.888 1.71039 116.978 1.88039 116.058 2.16039C115.218 2.41039 114.348 2.73039 113.578 3.15039C112.738 3.60039 112.038 4.21038 111.478 4.78038C110.598 5.66038 110.548 5.62038 109.668 6.50038C108.788 7.38038 108.778 7.37039 107.898 8.26039C107.018 9.15039 107.038 9.16039 106.158 10.0404C105.278 10.9204 105.218 10.8704 104.338 11.7504C103.458 12.6304 103.498 12.6704 102.618 13.5504C101.738 14.4304 101.718 14.4204 100.838 15.3004C99.9581 16.1804 99.9581 16.1904 99.0681 17.0704C98.1781 17.9504 98.2181 17.9904 97.3381 18.8704C96.4581 19.7504 96.4481 19.7504 95.5681 20.6404C94.6881 21.5304 94.6681 21.5104 93.7781 22.3904C92.8881 23.2704 92.8581 23.2404 91.9681 24.1304C91.3981 24.7004 90.6681 25.2504 89.8281 25.7004C89.0581 26.1204 88.2182 26.4904 87.3682 26.7504C86.4482 27.0304 85.5382 27.2004 84.7382 27.2004C83.6782 27.2004 83.6781 27.1904 82.6281 27.1904C81.5781 27.1904 81.5681 27.1504 80.5181 27.1504C79.4681 27.1504 79.4581 27.2004 78.3981 27.2004C77.3381 27.2004 77.3381 27.2004 76.2781 27.2004C75.4781 27.2004 74.5882 26.9604 73.6682 26.6804C72.8282 26.4304 71.9381 26.1704 71.1682 25.7504C70.3282 25.3004 69.5881 24.7304 69.0181 24.1704C68.1381 23.2904 68.1182 23.3004 67.2382 22.4204C66.3582 21.5404 66.4181 21.4804 65.5281 20.6004C64.6381 19.7204 64.5981 19.7704 63.7181 18.8904C62.8381 18.0104 62.8981 17.9504 62.0081 17.0604C61.1181 16.1704 61.0782 16.2204 60.1982 15.3404C59.3181 14.4604 59.3282 14.4404 58.4482 13.5604C57.5681 12.6804 57.5681 12.6804 56.6781 11.7904C55.7881 10.9004 55.7581 10.9404 54.8781 10.0604C53.9981 9.18038 53.9681 9.20039 53.0781 8.32039C52.1881 7.44039 52.2281 7.40039 51.3381 6.51039C50.4481 5.62039 50.4581 5.62039 49.5681 4.74039C48.9981 4.17039 48.2281 3.67038 47.3881 3.22038C46.6181 2.80038 45.7882 2.40039 44.9482 2.15039C44.0282 1.87039 43.1181 1.74039 42.3181 1.74039C41.1081 1.74039 41.1081 1.73038 39.9081 1.73038C38.7081 1.73038 38.6981 1.73038 37.4881 1.73038C36.2781 1.73038 36.2781 1.71039 35.0681 1.71039C33.8581 1.71039 33.8581 1.74039 32.6481 1.74039C31.4381 1.74039 31.4381 1.80038 30.2281 1.80038C29.0182 1.80038 29.0181 1.72038 27.8081 1.72038C26.5981 1.72038 26.5981 1.75038 25.3881 1.75038C24.5881 1.75038 23.6881 1.94039 22.7781 2.21039C21.9381 2.46039 21.0481 2.72038 20.2781 3.14038C19.4381 3.59038 18.6981 4.16038 18.1281 4.73038C17.2181 5.64038 17.1881 5.61038 16.2781 6.53038C15.3681 7.45038 15.3681 7.45038 14.4581 8.36038C13.5481 9.27038 13.5281 9.25039 12.6181 10.1604C11.7081 11.0704 11.7981 11.1704 10.8881 12.0804C9.97812 12.9904 9.94814 12.9704 9.02814 13.8804C8.10814 14.7904 8.10815 14.7904 7.19815 15.7104C6.62815 16.2804 6.03813 16.9904 5.57812 17.8304C5.15813 18.6004 4.81814 19.4704 4.55814 20.3104C4.27814 21.2304 4.14813 22.1504 4.14813 22.9504C4.14813 24.1604 4.22815 24.1604 4.22815 25.3704C4.22815 26.5804 4.13812 26.5804 4.13812 27.7904C4.13812 29.0004 4.11813 29.0004 4.11813 30.2104C4.11813 31.4204 4.22815 31.4204 4.22815 32.6304C4.22815 33.8404 4.19815 33.8404 4.19815 35.0504C4.19815 36.2604 4.09814 36.2604 4.09814 37.4704C4.09814 38.6804 4.11813 38.6804 4.11813 39.8904C4.11813 41.1004 4.18814 41.1004 4.18814 42.3104C4.18814 43.5204 4.13812 43.5204 4.13812 44.7304C4.13812 45.9404 4.15814 45.9404 4.15814 47.1504C4.15814 48.3604 4.08813 48.3604 4.08813 49.5704C4.08813 50.7804 4.14813 50.7804 4.14813 51.9904C4.14813 53.2004 4.12814 53.2004 4.12814 54.4104C4.12814 55.6204 4.14813 55.6204 4.14813 56.8304C4.14813 58.0404 4.11813 58.0404 4.11813 59.2504C4.11813 60.4604 4.11813 60.4604 4.11813 61.6704C4.11813 62.8804 4.22815 62.8804 4.22815 64.0904C4.22815 65.3004 4.19815 65.3004 4.19815 66.5104C4.19815 67.7204 4.09814 67.7204 4.09814 68.9304C4.09814 70.1404 4.12814 70.1404 4.12814 71.3504C4.12814 72.5604 4.14813 72.5604 4.14813 73.7704C4.14813 74.9804 4.21814 74.9804 4.21814 76.1904C4.21814 77.4004 4.14813 77.4004 4.14813 78.6104C4.14813 79.8204 4.16815 79.8204 4.16815 81.0304C4.16815 82.2404 4.14813 82.2404 4.14813 83.4504C4.14813 84.6604 4.14813 84.6604 4.14813 85.8704C4.14813 87.0804 4.09814 87.0804 4.09814 88.2904C4.09814 89.5004 4.22815 89.5004 4.22815 90.7104C4.22815 91.9204 4.09814 91.9204 4.09814 93.1304C4.09814 94.3404 4.21814 94.3404 4.21814 95.5504C4.21814 96.7604 4.19815 96.7604 4.19815 97.9704C4.19815 99.1804 4.21814 99.1804 4.21814 100.39C4.21814 101.6 4.15814 101.6 4.15814 102.81C4.15814 104.02 4.17813 104.02 4.17813 105.23C4.17813 106.44 4.17813 106.44 4.17813 107.65C4.17813 108.86 4.14813 108.86 4.14813 110.07C4.14813 111.28 4.09814 111.28 4.09814 112.49C4.09814 113.7 4.08813 113.7 4.08813 114.91C4.08813 116.12 4.20813 116.12 4.20813 117.34C4.20813 118.56 4.20813 118.55 4.20813 119.76C4.20813 120.97 4.10812 120.97 4.10812 122.19C4.10812 123.41 4.10812 123.4 4.10812 124.62C4.10812 125.84 4.17813 125.83 4.17813 127.04C4.17813 128.25 4.07812 128.25 4.07812 129.46C4.07812 130.67 4.17813 130.67 4.17813 131.89C4.17813 133.11 4.17813 133.1 4.17813 134.32C4.17813 135.54 4.14813 135.53 4.14813 136.75C4.14813 137.97 4.21814 137.97 4.21814 139.18C4.21814 140.39 4.21814 140.4 4.21814 141.61C4.21814 142.38 4.31814 143.13 4.68814 143.76C5.05814 144.39 5.63814 144.93 6.27814 145.3C6.91814 145.67 7.63814 145.83 8.40814 145.83C9.56814 145.83 9.56814 145.79 10.7181 145.79C11.8681 145.79 11.8681 145.92 13.0281 145.92C14.1881 145.92 14.1781 145.92 15.3381 145.92C16.4981 145.92 16.4881 145.93 17.6481 145.93C18.8081 145.93 18.7981 145.87 19.9581 145.87C21.1181 145.87 21.1081 145.87 22.2681 145.87C23.4281 145.87 23.4281 145.89 24.5781 145.89C25.7281 145.89 25.7381 145.89 26.8881 145.89C28.0381 145.89 28.0482 145.9 29.1982 145.9C30.3482 145.9 30.3581 145.79 31.5181 145.79C32.6781 145.79 32.6781 145.89 33.8381 145.89C34.6381 145.89 35.5681 145.75 36.4781 145.47C37.3181 145.22 38.1581 144.82 38.9281 144.4C39.7681 143.95 40.5681 143.45 41.1381 142.89C42.0481 141.98 41.9781 141.91 42.8881 140.99C43.7981 140.07 43.8381 140.11 44.7481 139.2C45.6581 138.29 45.6681 138.3 46.5781 137.39C47.4881 136.48 47.4781 136.46 48.3881 135.55C49.2981 134.64 49.3281 134.66 50.2381 133.74C51.1481 132.82 51.0781 132.75 51.9981 131.84C52.5481 131.29 53.2581 131.02 53.9581 130.84C54.6581 130.66 55.4181 130.61 56.1381 130.81C56.8581 131.01 57.4681 131.38 58.0081 131.93C58.9181 132.84 58.9281 132.84 59.8381 133.75C60.7481 134.66 60.8081 134.6 61.7181 135.51C62.6281 136.42 62.5481 136.5 63.4581 137.41C64.3681 138.32 64.4281 138.27 65.3381 139.18C66.2481 140.09 66.2281 140.12 67.1381 141.03C68.0481 141.94 68.0981 141.9 69.0081 142.82C69.5781 143.39 70.2782 143.99 71.1182 144.45C71.8882 144.87 72.7682 145.18 73.6082 145.43C74.5282 145.71 75.4382 145.85 76.2382 145.85C77.2982 145.85 77.2981 145.88 78.3481 145.88C79.3981 145.88 79.4081 145.82 80.4581 145.82C81.5081 145.82 81.5181 145.92 82.5781 145.92C83.6381 145.92 83.6381 145.84 84.6981 145.84C85.4981 145.84 86.3982 145.64 87.3082 145.37C88.1482 145.12 89.0282 144.85 89.8082 144.43C90.6482 143.98 91.4081 143.43 91.9681 142.86C92.5748 142.254 93.1815 141.644 93.7881 141.03C94.6982 140.12 94.7082 140.12 95.6182 139.21C96.5282 138.3 96.5281 138.3 97.4381 137.39C98.3481 136.48 98.3581 136.48 99.2681 135.57C100.178 134.66 100.188 134.66 101.098 133.75C102.008 132.84 101.988 132.81 102.898 131.9C103.448 131.35 104.098 130.95 104.798 130.76C105.498 130.57 106.278 130.67 106.998 130.86C107.718 131.05 108.348 131.38 108.898 131.92C109.808 132.83 109.848 132.79 110.758 133.71C111.668 134.63 111.688 134.61 112.598 135.52C113.508 136.43 113.468 136.47 114.378 137.38C115.288 138.29 115.348 138.23 116.268 139.15C117.188 140.07 117.148 140.1 118.068 141.01C118.988 141.92 118.928 141.98 119.838 142.9C120.408 143.47 121.178 144 122.018 144.46C122.788 144.88 123.658 145.2 124.508 145.46C125.428 145.74 126.338 145.93 127.138 145.93C128.198 145.93 128.198 145.85 129.248 145.85C130.298 145.85 130.308 145.9 131.358 145.9C132.408 145.9 132.418 145.92 133.478 145.92C134.538 145.92 134.538 145.9 135.598 145.9C136.398 145.9 137.328 145.78 138.248 145.5C139.088 145.25 139.958 144.9 140.728 144.48C141.568 144.03 142.258 143.39 142.818 142.83C143.708 141.94 143.778 142.01 144.678 141.11C145.578 140.21 145.508 140.15 146.398 139.26C147.288 138.37 147.378 138.45 148.268 137.56C149.158 136.67 149.128 136.63 150.018 135.73C150.908 134.83 150.888 134.81 151.788 133.91C152.688 133.01 152.718 133.05 153.618 132.15C154.168 131.6 154.798 131.18 155.488 130.99C156.178 130.8 156.958 130.91 157.678 131.11C158.398 131.31 159.018 131.64 159.558 132.19C160.438 133.08 160.448 133.07 161.328 133.96C162.208 134.85 162.198 134.86 163.078 135.75C163.958 136.64 163.958 136.63 164.838 137.52C165.718 138.41 165.708 138.42 166.588 139.31C167.468 140.2 167.538 140.13 168.418 141.03C169.298 141.93 169.228 142 170.108 142.89C170.668 143.46 171.458 143.97 172.298 144.43C173.068 144.85 173.938 145.16 174.778 145.41C175.688 145.69 176.598 145.84 177.398 145.84C178.608 145.84 178.608 145.93 179.818 145.93C181.028 145.93 181.028 145.87 182.238 145.87C183.448 145.87 183.448 145.84 184.658 145.84C185.868 145.84 185.868 145.84 187.078 145.84C188.288 145.84 188.288 145.89 189.498 145.89C190.708 145.89 190.708 145.84 191.918 145.84C193.128 145.84 193.128 145.87 194.338 145.87C195.548 145.87 195.548 145.8 196.758 145.8C197.968 145.8 197.968 145.88 199.178 145.88C200.388 145.88 200.388 145.91 201.598 145.91C202.808 145.91 202.808 145.83 204.028 145.83C205.248 145.83 205.238 145.87 206.448 145.87C207.658 145.87 207.658 145.87 208.878 145.87C210.098 145.87 210.088 145.88 211.308 145.88C212.528 145.88 212.518 145.92 213.728 145.92C214.938 145.92 214.938 145.82 216.148 145.82C217.358 145.82 217.358 145.83 218.578 145.83C219.798 145.83 219.788 145.88 221.008 145.88C222.228 145.88 222.218 145.79 223.438 145.79C224.658 145.79 224.658 145.9 225.868 145.9C227.078 145.9 227.088 145.84 228.298 145.84C229.098 145.84 230.028 145.76 230.938 145.48C231.778 145.23 232.588 144.78 233.368 144.37C234.208 143.92 234.998 143.44 235.568 142.87C236.298 142.14 236.268 142.11 236.988 141.38C237.708 140.65 237.768 140.7 238.488 139.97C239.208 139.24 239.168 139.19 239.898 138.46C240.468 137.89 240.978 137.14 241.428 136.3C241.848 135.53 242.228 134.7 242.488 133.86C242.768 132.94 242.988 132.04 242.988 131.24C242.988 130.15 242.918 130.15 242.918 129.07C242.918 127.99 242.958 127.98 242.958 126.9C242.958 125.82 242.888 125.81 242.888 124.72C242.888 123.63 242.908 123.63 242.908 122.54C242.908 121.74 242.778 120.83 242.508 119.91C242.258 119.07 241.888 118.23 241.468 117.45C241.018 116.61 240.468 115.87 239.908 115.3C239.058 114.45 239.068 114.44 238.208 113.58C237.348 112.72 237.398 112.69 236.538 111.83C235.678 110.97 235.628 111.03 234.778 110.17C233.928 109.31 233.998 109.24 233.148 108.39C232.298 107.54 232.248 107.58 231.398 106.72C230.548 105.86 230.488 105.91 229.638 105.05C228.788 104.19 228.838 104.13 227.988 103.28L228.048 103.33Z" fill="#E5E5E5"/>
<path d="M104.366 129.168C105.48 128.866 106.595 129.047 107.419 129.265C108.262 129.487 109.052 129.868 109.757 130.471L110.054 130.743L110.06 130.748L110.064 130.754C110.496 131.186 110.716 131.385 110.946 131.598C111.196 131.828 111.454 132.067 111.932 132.55C112.375 132.998 112.597 133.214 112.822 133.431C113.057 133.656 113.298 133.887 113.765 134.354C114.243 134.832 114.478 135.088 114.705 135.336C114.913 135.563 115.113 135.782 115.545 136.214C115.965 136.634 116.178 136.821 116.407 137.021C116.666 137.249 116.94 137.489 117.435 137.983C117.915 138.463 118.15 138.718 118.376 138.96C118.585 139.185 118.789 139.402 119.229 139.837C119.723 140.326 119.966 140.599 120.197 140.863C120.402 141.096 120.588 141.313 121.004 141.733C121.425 142.154 122.05 142.596 122.809 143.012L123.051 143.138C123.628 143.425 124.29 143.668 124.988 143.882C125.84 144.141 126.572 144.28 127.138 144.28C127.611 144.28 127.832 144.263 128.072 144.245C128.359 144.223 128.666 144.2 129.248 144.2C129.809 144.2 130.102 144.214 130.381 144.228C130.632 144.239 130.869 144.25 131.358 144.25C131.897 144.25 132.174 144.256 132.445 144.261C132.706 144.266 132.963 144.271 133.479 144.271C133.994 144.271 134.248 144.266 134.507 144.261C134.778 144.256 135.055 144.25 135.599 144.25C136.244 144.25 137.011 144.152 137.768 143.922L137.777 143.919L138.336 143.737C138.894 143.541 139.446 143.301 139.938 143.032L139.949 143.026C140.565 142.697 141.113 142.202 141.651 141.664C142.138 141.177 142.413 140.941 142.672 140.72C142.895 140.529 143.103 140.352 143.512 139.943C143.923 139.532 144.102 139.324 144.293 139.103C144.514 138.847 144.748 138.577 145.231 138.094C145.727 137.598 146.015 137.359 146.282 137.139C146.505 136.954 146.707 136.788 147.102 136.394C147.526 135.969 147.724 135.755 147.929 135.532C148.149 135.293 148.379 135.041 148.845 134.57C149.278 134.132 149.487 133.912 149.704 133.684C149.93 133.446 150.159 133.205 150.621 132.743C151.092 132.273 151.342 132.043 151.583 131.819C151.807 131.613 152.022 131.413 152.451 130.983C153.14 130.294 154.01 129.686 155.05 129.399C156.172 129.09 157.303 129.293 158.12 129.521C159.074 129.785 159.96 130.246 160.731 131.03L162.501 132.8C162.947 133.251 163.17 133.481 163.39 133.709C163.605 133.931 163.817 134.151 164.251 134.59C164.688 135.032 164.906 135.25 165.125 135.469C165.346 135.69 165.569 135.912 166.012 136.36C166.458 136.811 166.68 137.041 166.899 137.269C167.115 137.491 167.328 137.711 167.762 138.15C168.16 138.553 168.363 138.728 168.585 138.921C168.844 139.146 169.117 139.385 169.598 139.877C170.079 140.369 170.312 140.646 170.527 140.903C170.666 141.068 170.797 141.224 171.021 141.462L171.281 141.73L171.285 141.734C171.672 142.128 172.29 142.544 173.088 142.981C173.555 143.236 174.091 143.453 174.664 143.645L175.249 143.829L175.256 143.831L175.264 143.833C176.047 144.074 176.792 144.19 177.398 144.19C178.059 144.19 178.405 144.216 178.73 144.24C179.01 144.261 179.269 144.28 179.818 144.28C180.386 144.28 180.659 144.266 180.946 144.252C181.264 144.236 181.596 144.221 182.238 144.221C182.825 144.221 183.112 144.213 183.407 144.206C183.717 144.198 184.035 144.19 184.658 144.19H187.078C187.714 144.19 188.041 144.204 188.356 144.217C188.646 144.229 188.924 144.24 189.498 144.24C190.072 144.24 190.35 144.229 190.64 144.217C190.955 144.204 191.282 144.19 191.918 144.19C192.541 144.19 192.859 144.198 193.169 144.206C193.464 144.213 193.752 144.221 194.338 144.221C194.9 144.221 195.168 144.205 195.453 144.188C195.773 144.17 196.11 144.15 196.758 144.15C197.412 144.15 197.754 144.173 198.077 144.194C198.359 144.213 198.623 144.23 199.178 144.23C199.801 144.23 200.119 144.238 200.429 144.246C200.724 144.253 201.012 144.261 201.599 144.261C202.154 144.261 202.417 144.242 202.701 144.224C203.025 144.202 203.369 144.181 204.028 144.181C204.663 144.181 204.985 144.191 205.297 144.201C205.588 144.211 205.868 144.221 206.448 144.221H208.878C209.494 144.221 209.801 144.223 210.106 144.226C210.406 144.228 210.705 144.23 211.309 144.23C211.943 144.23 212.265 144.241 212.577 144.251C212.868 144.261 213.149 144.271 213.729 144.271C214.271 144.27 214.525 144.248 214.802 144.226C215.129 144.199 215.482 144.17 216.148 144.17C216.759 144.17 217.067 144.173 217.373 144.176C217.674 144.178 217.974 144.181 218.578 144.181C219.219 144.181 219.546 144.194 219.861 144.207C220.151 144.219 220.429 144.23 221.008 144.23C221.562 144.23 221.821 144.21 222.101 144.189C222.426 144.165 222.773 144.141 223.438 144.141C224.116 144.141 224.474 144.172 224.806 144.202C225.082 144.227 225.331 144.25 225.868 144.25C226.436 144.25 226.712 144.237 227.002 144.223C227.322 144.207 227.656 144.19 228.298 144.19C228.998 144.19 229.752 144.119 230.453 143.903L230.46 143.901L230.468 143.899C231.112 143.708 231.75 143.357 232.589 142.916L233.164 142.595C233.699 142.283 234.111 141.994 234.401 141.704C234.745 141.361 234.902 141.189 235.064 141.012C235.243 140.816 235.432 140.608 235.813 140.222C236.213 139.816 236.442 139.617 236.654 139.432C236.832 139.277 236.993 139.136 237.313 138.812C237.641 138.48 237.787 138.312 237.949 138.127C238.136 137.914 238.334 137.691 238.731 137.294C239.148 136.877 239.569 136.277 239.974 135.521L239.979 135.511C240.363 134.808 240.691 134.083 240.909 133.38C241.183 132.48 241.338 131.779 241.338 131.24C241.338 130.743 241.323 130.509 241.307 130.258C241.288 129.967 241.269 129.659 241.269 129.07C241.269 128.503 241.279 128.208 241.289 127.925C241.299 127.663 241.309 127.413 241.309 126.9C241.309 126.409 241.293 126.174 241.276 125.919C241.258 125.626 241.238 125.313 241.238 124.721C241.238 124.162 241.243 123.878 241.248 123.6C241.253 123.333 241.258 123.071 241.258 122.54C241.258 121.91 241.154 121.157 240.925 120.375C240.714 119.669 240.394 118.936 240.016 118.232L240.014 118.229C239.634 117.521 239.176 116.91 238.731 116.457C238.307 116.033 238.094 115.814 237.882 115.597C237.673 115.383 237.465 115.171 237.041 114.747C236.587 114.293 236.366 114.05 236.153 113.816C235.961 113.605 235.776 113.402 235.371 112.997C234.975 112.601 234.776 112.426 234.562 112.236C234.318 112.021 234.063 111.794 233.604 111.33C233.137 110.857 232.911 110.587 232.702 110.34C232.526 110.131 232.363 109.938 231.981 109.557C231.585 109.16 231.382 108.978 231.166 108.782C230.926 108.565 230.677 108.338 230.225 107.88C229.834 107.484 229.634 107.308 229.421 107.118C229.179 106.903 228.924 106.674 228.465 106.21C228.007 105.746 227.781 105.488 227.571 105.248C227.386 105.037 227.212 104.838 226.821 104.447L226.827 104.439C226.111 103.705 225.602 102.829 225.351 101.852C225.138 101.025 224.98 99.9182 225.272 98.8096C225.57 97.6818 226.252 96.8317 226.902 96.1934C227.256 95.8389 227.415 95.6579 227.59 95.4609C227.792 95.2332 228.005 94.9944 228.438 94.5664C228.888 94.1154 229.34 93.5197 229.714 92.8213L229.72 92.8105C230.048 92.2089 230.287 91.4878 230.535 90.6445L230.537 90.6377L230.54 90.6299C230.83 89.677 230.998 89.0164 230.998 88.5C230.998 87.9857 230.985 87.7401 230.971 87.4775C230.955 87.1821 230.938 86.8703 230.938 86.2705V84.04C230.938 83.4735 230.941 83.1904 230.943 82.9102C230.946 82.6356 230.948 82.3635 230.948 81.8105C230.948 81.1784 230.843 80.4165 230.616 79.6504C230.404 78.9386 230.084 78.1958 229.71 77.5107L229.704 77.5C229.324 76.7914 228.869 76.1841 228.422 75.7373C228.034 75.3491 227.839 75.159 227.642 74.9668C227.439 74.7691 227.233 74.5687 226.831 74.167C225.992 73.3278 225.602 72.3231 225.376 71.4922C225.112 70.5202 225.095 69.4579 225.378 68.4385C225.594 67.662 225.947 66.6025 226.822 65.7432C227.284 65.2817 227.521 65.051 227.756 64.8242C227.985 64.6029 228.21 64.3847 228.661 63.9336C229.161 63.4334 229.444 63.1907 229.708 62.9639C229.937 62.7676 230.148 62.5878 230.562 62.1738C231.019 61.7159 231.252 61.4857 231.484 61.2559C231.714 61.0284 231.944 60.8007 232.401 60.3438C232.832 59.9127 233.028 59.6938 233.234 59.4639C233.463 59.209 233.703 58.9427 234.191 58.4541C234.66 57.9855 234.9 57.753 235.136 57.5244C235.364 57.3031 235.59 57.0849 236.041 56.6338C236.417 56.2576 236.779 55.6702 237.229 54.8184L237.234 54.8096L237.239 54.7998C237.624 54.0936 237.95 53.3739 238.156 52.6797L238.159 52.6699C238.419 51.8155 238.559 51.0944 238.559 50.5303C238.559 49.9553 238.566 49.6618 238.574 49.375C238.581 49.1048 238.588 48.8405 238.588 48.3008C238.588 47.714 238.599 47.4147 238.609 47.126C238.619 46.8598 238.628 46.6035 238.628 46.0703C238.628 45.5976 238.603 45.3891 238.574 45.1475C238.538 44.8343 238.498 44.4877 238.498 43.8408C238.498 43.2024 238.402 42.4607 238.177 41.6914L237.99 41.0879C237.8 40.5021 237.596 39.9687 237.346 39.5029L237.344 39.5C236.948 38.7608 236.498 38.1334 236.071 37.707C235.649 37.2847 235.435 37.1004 235.207 36.9023C234.946 36.6755 234.669 36.4347 234.172 35.9375C233.703 35.4691 233.471 35.2292 233.245 34.9971C233.026 34.7721 232.809 34.5497 232.357 34.1035C231.863 33.6142 231.621 33.3423 231.391 33.0811C231.187 32.8497 230.997 32.6326 230.571 32.207C230.129 31.7644 229.906 31.5556 229.679 31.3438C229.437 31.1183 229.185 30.8852 228.708 30.4131C228.228 29.9381 227.989 29.6844 227.759 29.4385C227.544 29.2095 227.337 28.9885 226.897 28.5537L226.892 28.5469C226.471 28.1259 225.846 27.6836 225.086 27.2676C224.481 26.9379 223.745 26.6882 222.912 26.4434L222.905 26.4414L222.897 26.4385C221.965 26.1547 221.282 25.9902 220.758 25.9902C220.192 25.9902 219.915 25.9976 219.629 26.0049C219.327 26.0126 219.017 26.0205 218.408 26.0205C217.875 26.0205 217.628 26.0399 217.359 26.0605C217.043 26.0849 216.705 26.1103 216.059 26.1104C215.411 26.1104 215.073 26.0849 214.757 26.0605C214.488 26.0399 214.241 26.0205 213.708 26.0205C213.131 26.0205 212.849 26.0254 212.562 26.0303C212.264 26.0354 211.961 26.04 211.358 26.04C210.749 26.04 210.441 26.0321 210.141 26.0244C209.856 26.0171 209.579 26.0107 209.008 26.0107C208.437 26.0107 208.159 26.0171 207.875 26.0244C207.575 26.0321 207.267 26.04 206.658 26.04C206.081 26.04 205.796 26.0449 205.508 26.0498C205.209 26.0549 204.906 26.0605 204.309 26.0605H201.958C201.394 26.0605 201.119 26.0695 200.836 26.0791C200.532 26.0894 200.219 26.1006 199.608 26.1006C198.953 26.1006 198.605 26.0682 198.283 26.0381C198.018 26.0133 197.778 25.9902 197.258 25.9902H194.908C194.349 25.9902 194.074 26.0001 193.789 26.0098C193.484 26.0201 193.169 26.0303 192.559 26.0303C192.019 26.0303 191.761 26.0461 191.485 26.0625C191.173 26.0811 190.842 26.1006 190.208 26.1006C189.612 26.1006 189.312 26.0982 189.016 26.0957C188.725 26.0932 188.437 26.0908 187.858 26.0908C187.235 26.0908 186.91 26.0744 186.6 26.0586C186.32 26.0444 186.055 26.0303 185.508 26.0303C184.936 26.0303 184.651 26.0351 184.361 26.04C184.061 26.0451 183.756 26.0508 183.158 26.0508C182.554 26.0508 182.244 26.0429 181.941 26.0352C181.654 26.0279 181.374 26.0205 180.809 26.0205C180.255 26.0205 179.985 26.032 179.701 26.0439C179.392 26.057 179.07 26.0703 178.448 26.0703C177.896 26.0703 177.631 26.0844 177.352 26.0986C177.041 26.1144 176.716 26.1309 176.088 26.1309C175.362 26.1309 174.626 26.1863 173.929 26.3984L173.919 26.4023C173.207 26.6142 172.462 26.9359 171.761 27.3135L171.757 27.3145C170.971 27.7354 170.347 28.1554 169.945 28.5566C169.557 28.9454 169.396 29.145 169.212 29.3711C168.988 29.6464 168.745 29.9426 168.238 30.4434C167.753 30.9235 167.483 31.1574 167.231 31.376C167.011 31.5676 166.804 31.7481 166.395 32.1572C165.941 32.6109 165.706 32.8385 165.471 33.0645C165.243 33.2836 165.019 33.4971 164.578 33.9336C164.155 34.352 163.961 34.5654 163.756 34.7891C163.531 35.0353 163.295 35.2923 162.818 35.7637C162.366 36.2115 162.136 36.4365 161.907 36.6602C161.681 36.8815 161.456 37.1019 161.009 37.5439L161.008 37.543C160.036 38.5125 158.616 39.3421 157.111 38.7129C155.618 38.0884 155.188 36.5051 155.188 35.1201C155.188 34.5532 155.173 34.2819 155.156 33.9961C155.138 33.6752 155.118 33.3384 155.118 32.6904C155.118 32.024 155.147 31.6702 155.174 31.3408C155.197 31.0604 155.218 30.8039 155.218 30.2607C155.218 29.7177 155.197 29.461 155.174 29.1807C155.147 28.8512 155.118 28.4967 155.118 27.8301C155.118 27.1883 155.135 26.8539 155.15 26.5332C155.165 26.2421 155.178 25.9637 155.178 25.3906C155.178 24.799 155.171 24.5084 155.164 24.2109C155.156 23.8984 155.148 23.5786 155.148 22.9502C155.148 22.3663 155.021 21.6345 154.776 20.7998C154.548 20.032 154.267 19.2844 153.924 18.6299L153.785 18.3838C153.45 17.8205 153.036 17.3219 152.611 16.8975C152.133 16.4192 151.897 16.1615 151.668 15.9102C151.457 15.6788 151.257 15.4572 150.825 15.0205C150.356 14.5464 150.125 14.2996 149.903 14.0654C149.693 13.8432 149.483 13.6239 149.038 13.1836C148.564 12.7142 148.328 12.469 148.099 12.2275C147.881 11.9985 147.672 11.7773 147.231 11.3369C146.774 10.8793 146.544 10.6471 146.315 10.416C146.089 10.1872 145.863 9.95894 145.411 9.50684C144.977 9.07237 144.756 8.86889 144.528 8.65918C144.284 8.43383 144.028 8.19844 143.548 7.72363C143.117 7.29705 142.898 7.10275 142.663 6.89258C142.405 6.66126 142.141 6.42157 141.661 5.93652C141.204 5.47963 140.61 5.02381 139.905 4.6377C139.251 4.28089 138.506 3.98108 137.75 3.74707C136.967 3.5094 136.232 3.40039 135.618 3.40039C134.97 3.40039 134.633 3.38085 134.313 3.3623C134.03 3.34583 133.764 3.33008 133.208 3.33008C132.671 3.33008 132.417 3.35201 132.138 3.375C131.809 3.40206 131.455 3.43066 130.788 3.43066C130.103 3.43066 129.737 3.39143 129.402 3.35547C129.132 3.32645 128.893 3.30078 128.368 3.30078C127.831 3.30078 127.583 3.32364 127.308 3.34863C126.978 3.37863 126.621 3.41015 125.948 3.41016C125.312 3.41016 124.985 3.39681 124.67 3.38379C124.38 3.37181 124.102 3.36035 123.528 3.36035C122.967 3.36035 122.698 3.3761 122.413 3.39258C122.093 3.41109 121.756 3.43066 121.108 3.43066C120.46 3.43066 120.123 3.4111 119.803 3.39258C119.518 3.37611 119.25 3.36036 118.688 3.36035C118.104 3.36035 117.363 3.48867 116.539 3.73926L116.529 3.74219C115.75 3.97418 114.999 4.25452 114.368 4.59863L114.357 4.60449C113.72 4.9459 113.153 5.42989 112.655 5.93652L112.65 5.94238L112.645 5.94727C112.178 6.41408 111.923 6.64494 111.679 6.86523C111.458 7.06474 111.248 7.2543 110.835 7.66699C109.904 8.59776 109.967 8.51529 109.071 9.4209C108.64 9.85688 108.432 10.0751 108.218 10.2979C107.997 10.528 107.774 10.7583 107.325 11.207C106.852 11.68 106.589 11.9119 106.34 12.1318C106.119 12.3269 105.912 12.51 105.505 12.917C105.089 13.3329 104.897 13.543 104.696 13.7627C104.477 14.0029 104.249 14.253 103.785 14.7168C103.336 15.1656 103.104 15.3903 102.875 15.6113C102.654 15.8252 102.436 16.0359 102.005 16.4668C101.14 17.3315 101.121 17.3619 100.229 18.2441C99.8077 18.6603 99.6142 18.8701 99.415 19.0869C99.1971 19.3242 98.9688 19.5732 98.5049 20.0371C97.6095 20.9325 97.619 20.913 96.7412 21.8008C95.892 22.6596 95.7267 22.7841 94.9385 23.5635C94.4756 24.0211 94.2307 24.2468 93.9961 24.4648C93.7766 24.6689 93.5619 24.8698 93.1348 25.2969C92.4466 25.985 91.5853 26.6314 90.6074 27.1553L90.6064 27.1543C89.7583 27.6161 88.8196 28.0317 87.8506 28.3281L87.8486 28.3291C86.8322 28.6384 85.7532 28.8506 84.7383 28.8506C84.2014 28.8506 83.9307 28.8482 83.6641 28.8457C83.4032 28.8432 83.1458 28.8408 82.6279 28.8408C82.0747 28.8408 81.7871 28.8298 81.5107 28.8193C81.2572 28.8098 81.0148 28.8008 80.5186 28.8008C80.029 28.8008 79.7915 28.8114 79.5391 28.8232C79.2585 28.8364 78.9632 28.8506 78.3984 28.8506H76.2783C75.2013 28.8506 74.0915 28.5339 73.1875 28.2588C72.3932 28.0225 71.334 27.7177 70.3887 27.2041C69.4002 26.6745 68.5343 26.0089 67.8613 25.3477L67.8564 25.3418L67.8516 25.3369C67.4206 24.9059 67.2027 24.6954 66.9814 24.4814C66.7528 24.2604 66.5202 24.0359 66.0713 23.5869C65.5955 23.1111 65.3637 22.8461 65.1465 22.5986C64.9567 22.3824 64.7769 22.1776 64.3682 21.7734C63.9503 21.3603 63.7397 21.1729 63.5176 20.9736C63.2718 20.7531 63.0189 20.5238 62.5518 20.0566C62.0758 19.5807 61.8435 19.3159 61.624 19.0645C61.4318 18.8443 61.2509 18.6366 60.8418 18.2275C60.4239 17.8096 60.2132 17.6196 59.9941 17.4219C59.7514 17.2027 59.4984 16.974 59.0312 16.5068C58.5824 16.058 58.3578 15.8253 58.1367 15.5967C57.9229 15.3755 57.712 15.1583 57.2812 14.7275C56.8413 14.2876 56.6216 14.0669 56.4004 13.8457C56.1791 13.6245 55.9566 13.402 55.5117 12.957C55.0877 12.533 54.8747 12.3364 54.6553 12.1338C54.4177 11.9143 54.172 11.6886 53.7109 11.2275C53.286 10.8026 53.0714 10.5992 52.8516 10.3926C52.6195 10.1744 52.3775 9.9485 51.918 9.49414C51.4489 9.0303 51.2175 8.77929 50.9932 8.53516C50.7876 8.31144 50.5931 8.09794 50.1719 7.67676C49.2665 6.77139 49.2957 6.79163 48.4082 5.91406L48.4014 5.90723C47.9981 5.50396 47.3912 5.09364 46.6094 4.6748L46.5977 4.66895C45.8673 4.27057 45.1549 3.93303 44.4775 3.73145L44.4678 3.72852C43.6957 3.49356 42.9475 3.39065 42.3184 3.39062C41.7072 3.39062 41.3996 3.38827 41.0957 3.38574C40.797 3.38326 40.5019 3.38086 39.9082 3.38086H37.4883C36.871 3.38086 36.5585 3.3752 36.251 3.37012C35.9536 3.3652 35.6609 3.36035 35.0684 3.36035C34.4822 3.36035 34.1942 3.36769 33.8994 3.375C33.5893 3.38269 33.2718 3.39062 32.6484 3.39062C32.0805 3.39062 31.8068 3.40372 31.5195 3.41797C31.202 3.43371 30.8702 3.45019 30.2285 3.4502C29.5741 3.4502 29.2319 3.42856 28.9092 3.40723C28.627 3.38857 28.3638 3.37013 27.8086 3.37012C27.2221 3.37012 26.9335 3.37745 26.6387 3.38477C26.3287 3.39245 26.011 3.40039 25.3877 3.40039C24.8217 3.40046 24.0991 3.53855 23.248 3.79102C22.3666 4.05334 21.6562 4.26823 21.0684 4.58887L21.0576 4.59473C20.3665 4.96498 19.7557 5.4367 19.2949 5.89746C18.8227 6.36965 18.5735 6.60267 18.334 6.82812C18.1092 7.03979 17.8887 7.24809 17.4512 7.69043C16.5391 8.61256 16.5371 8.61521 15.625 9.52734C15.1584 9.99391 14.9161 10.225 14.6787 10.4521C14.4511 10.67 14.2284 10.8839 13.7852 11.3271C13.3854 11.727 13.2195 11.9319 13.0342 12.1602C12.8096 12.4368 12.5648 12.737 12.0547 13.2471C11.5852 13.7166 11.3376 13.951 11.0928 14.1816C10.8599 14.4009 10.634 14.613 10.1885 15.0537C9.27288 15.9594 9.27684 15.9554 8.37109 16.8711L8.36523 16.877C7.87275 17.3694 7.39046 17.9564 7.02539 18.623L7.02441 18.6221C6.67139 19.2697 6.37194 20.0317 6.13477 20.7979C5.90184 21.5657 5.79787 22.3211 5.79785 22.9502C5.79785 23.5057 5.81629 23.7694 5.83496 24.0518C5.85629 24.3743 5.87792 24.716 5.87793 25.3701C5.87793 26.0308 5.85232 26.378 5.82812 26.7031C5.80732 26.9828 5.78809 27.2412 5.78809 27.79C5.78809 28.4072 5.7834 28.7199 5.77832 29.0273C5.77341 29.3247 5.76856 29.6176 5.76855 30.21C5.76855 30.7466 5.79142 30.9957 5.81641 31.2705C5.84642 31.6006 5.87793 31.9578 5.87793 32.6309C5.87793 33.2538 5.86999 33.5709 5.8623 33.8809C5.85499 34.1757 5.84863 34.4643 5.84863 35.0508C5.84862 35.7174 5.82004 36.0689 5.79297 36.3965C5.77005 36.6738 5.74805 36.9276 5.74805 37.4707C5.74805 38.0631 5.7529 38.356 5.75781 38.6533C5.76289 38.9608 5.76855 39.2734 5.76855 39.8906C5.76856 40.4521 5.78431 40.7202 5.80078 41.0049C5.81931 41.3251 5.83789 41.6623 5.83789 42.3105C5.83789 42.9464 5.82455 43.2737 5.81152 43.5889C5.79955 43.8786 5.78809 44.1566 5.78809 44.7305C5.78809 45.323 5.79293 45.6157 5.79785 45.9131C5.80294 46.2207 5.80859 46.533 5.80859 47.1504C5.80859 47.7987 5.78903 48.1359 5.77051 48.4561C5.75404 48.7407 5.73828 49.0089 5.73828 49.5703C5.73828 50.1379 5.75139 50.4111 5.76562 50.6982C5.78138 51.0159 5.79785 51.3482 5.79785 51.9902C5.79785 52.6075 5.79317 52.92 5.78809 53.2275C5.78317 53.5249 5.77832 53.8177 5.77832 54.4102C5.77832 55.0026 5.78317 55.2955 5.78809 55.5928C5.79317 55.9003 5.79785 56.2129 5.79785 56.8301C5.79785 57.4535 5.78991 57.771 5.78223 58.0811C5.77492 58.3759 5.76856 58.6638 5.76855 59.25V61.6699C5.76855 62.2069 5.79141 62.4565 5.81641 62.7314C5.8464 63.0614 5.87793 63.4181 5.87793 64.0908C5.87793 64.7138 5.86999 65.0309 5.8623 65.3408C5.85499 65.6357 5.84863 65.9243 5.84863 66.5107C5.84862 67.1773 5.82004 67.5289 5.79297 67.8564C5.77005 68.1338 5.74805 68.3876 5.74805 68.9307C5.74805 69.5169 5.75539 69.8048 5.7627 70.0996C5.77038 70.4097 5.77832 70.7271 5.77832 71.3506C5.77832 71.9431 5.78317 72.2358 5.78809 72.5332C5.79317 72.8408 5.79785 73.1532 5.79785 73.7705C5.79785 74.3319 5.81361 74.6001 5.83008 74.8848C5.8486 75.205 5.86816 75.5422 5.86816 76.1904C5.86816 76.8387 5.8486 77.1759 5.83008 77.4961C5.81361 77.7807 5.79785 78.0489 5.79785 78.6104C5.79785 79.2029 5.8027 79.4956 5.80762 79.793C5.81271 80.1005 5.81836 80.413 5.81836 81.0303C5.81836 81.6476 5.81271 81.96 5.80762 82.2676C5.8027 82.5649 5.79785 82.8577 5.79785 83.4502V85.8701C5.79785 86.506 5.7845 86.8333 5.77148 87.1484C5.75951 87.4382 5.74805 87.7162 5.74805 88.29C5.74805 88.8147 5.77468 89.0541 5.80371 89.3242C5.83968 89.659 5.87791 90.0249 5.87793 90.71C5.87793 91.3953 5.83969 91.7618 5.80371 92.0967C5.77469 92.3668 5.74805 92.6063 5.74805 93.1309C5.74806 93.6613 5.77278 93.9053 5.7998 94.1777C5.83277 94.5101 5.86816 94.8717 5.86816 95.5508C5.86816 96.1679 5.86348 96.4806 5.8584 96.7881C5.85349 97.0854 5.84863 97.3783 5.84863 97.9707C5.84863 98.5631 5.85349 98.856 5.8584 99.1533C5.86348 99.4608 5.86816 99.7734 5.86816 100.391C5.86816 101.032 5.85168 101.364 5.83594 101.682C5.82169 101.969 5.80859 102.243 5.80859 102.811C5.80859 103.403 5.81345 103.696 5.81836 103.993C5.82344 104.301 5.82812 104.613 5.82812 105.23V107.65C5.82812 108.274 5.82019 108.591 5.8125 108.901C5.80519 109.196 5.79785 109.484 5.79785 110.07C5.79785 110.706 5.78451 111.033 5.77148 111.349C5.75951 111.638 5.74805 111.916 5.74805 112.49C5.74805 113.101 5.74569 113.409 5.74316 113.714C5.74068 114.014 5.73828 114.311 5.73828 114.91C5.73828 115.441 5.76295 115.685 5.79004 115.959C5.82303 116.293 5.8584 116.657 5.8584 117.341V119.761C5.85839 120.427 5.82975 120.779 5.80273 121.107C5.77984 121.386 5.75781 121.642 5.75781 122.19V124.62C5.75781 125.187 5.77361 125.455 5.79004 125.738C5.80857 126.057 5.82812 126.392 5.82812 127.04C5.82812 127.707 5.79954 128.059 5.77246 128.387C5.74955 128.664 5.72853 128.917 5.72852 129.46C5.72852 130.003 5.74949 130.257 5.77246 130.536C5.79956 130.865 5.82812 131.219 5.82812 131.891V134.32C5.82812 134.949 5.82019 135.266 5.8125 135.576C5.80519 135.871 5.79785 136.159 5.79785 136.75C5.79785 137.317 5.81361 137.588 5.83008 137.874C5.84858 138.195 5.86816 138.532 5.86816 139.181V141.61C5.86816 142.271 5.96169 142.67 6.11133 142.925C6.31714 143.275 6.67447 143.624 7.10352 143.872C7.44628 144.07 7.86967 144.181 8.4082 144.181C8.96238 144.181 9.23186 144.171 9.50977 144.161C9.80891 144.151 10.117 144.141 10.7178 144.141C11.3772 144.141 11.7318 144.18 12.0537 144.216C12.308 144.244 12.5321 144.271 13.0283 144.271H15.3379C15.9244 144.271 16.2176 144.273 16.5078 144.275C16.7925 144.278 17.0751 144.28 17.6484 144.28C18.1891 144.28 18.4458 144.267 18.7168 144.253C19.0205 144.237 19.3393 144.221 19.958 144.221H22.2686C22.8609 144.221 23.1611 144.225 23.4551 144.23C23.7386 144.235 24.0161 144.24 24.5781 144.24H26.8877C27.4692 144.24 27.765 144.243 28.0576 144.245C28.3449 144.248 28.6299 144.25 29.1982 144.25C29.7018 144.25 29.9356 144.228 30.1992 144.203C30.519 144.173 30.8679 144.141 31.5186 144.141C32.1628 144.141 32.5042 144.169 32.8203 144.196C33.0839 144.219 33.3228 144.24 33.8379 144.24C34.382 144.24 35.0372 144.155 35.7061 143.976L36 143.892L36.0078 143.889C36.6886 143.686 37.413 143.347 38.1377 142.952L38.1494 142.946C38.954 142.515 39.5839 142.103 39.9814 141.713C40.3883 141.306 40.5668 141.097 40.7578 140.873C40.9807 140.612 41.22 140.33 41.7148 139.83C42.1929 139.347 42.45 139.108 42.7002 138.878C42.9307 138.666 43.1492 138.465 43.5811 138.033C44.0418 137.572 44.2774 137.344 44.5098 137.116C44.7373 136.894 44.9621 136.673 45.4111 136.224C45.8574 135.777 46.0763 135.552 46.2979 135.323C46.5263 135.087 46.758 134.847 47.2217 134.384C47.691 133.915 47.9376 133.681 48.1758 133.454C48.402 133.239 48.625 133.025 49.0654 132.58C49.4804 132.161 49.6614 131.946 49.8623 131.712C50.0934 131.442 50.3373 131.162 50.8379 130.667C51.6991 129.809 52.7499 129.447 53.5469 129.242C54.4401 129.013 55.5063 128.922 56.5801 129.221C57.5919 129.502 58.4476 130.026 59.1748 130.764L60.083 131.667C60.3142 131.896 60.547 132.126 61.0049 132.584C61.4248 133.004 61.638 133.191 61.8652 133.39C62.1229 133.615 62.3949 133.854 62.8848 134.344C63.3863 134.845 63.6278 135.132 63.8525 135.4C64.0428 135.627 64.2166 135.835 64.625 136.243C65.0481 136.666 65.2643 136.858 65.4932 137.061C65.7492 137.288 66.0181 137.527 66.5049 138.014C66.9743 138.483 67.2083 138.73 67.4365 138.971C67.6533 139.2 67.8644 139.423 68.3047 139.863C68.7337 140.292 68.9527 140.491 69.1846 140.702C69.4372 140.932 69.6981 141.172 70.1748 141.653C70.6816 142.16 71.2572 142.645 71.9111 143.003C72.376 143.256 72.9136 143.472 73.4902 143.664L74.0791 143.849L74.0889 143.852C74.8732 144.09 75.6209 144.2 76.2383 144.2C76.7893 144.2 77.0711 144.208 77.3438 144.216C77.5989 144.223 77.845 144.23 78.3486 144.23C78.8305 144.23 79.0618 144.217 79.3096 144.203C79.5915 144.187 79.8905 144.17 80.458 144.17C81.054 144.17 81.3754 144.2 81.6689 144.228C81.9067 144.25 82.1186 144.271 82.5781 144.271C83.0515 144.271 83.2718 144.254 83.5137 144.235C83.8017 144.214 84.1118 144.19 84.6982 144.19C85.1163 144.19 85.6237 144.109 86.2168 143.96L86.8389 143.788C87.6952 143.533 88.4173 143.305 89.0264 142.978L89.0293 142.976C89.7531 142.588 90.3702 142.132 90.791 141.704L90.8018 141.693C91.4062 141.089 92.0108 140.481 92.6152 139.87L92.6211 139.863C93.079 139.405 93.3118 139.176 93.543 138.947C93.7717 138.721 93.9993 138.496 94.4512 138.044L96.2715 136.224C96.7291 135.766 96.9613 135.536 97.1924 135.308C97.4212 135.081 97.6495 134.855 98.1016 134.403C98.5592 133.946 98.7914 133.716 99.0225 133.487C99.2513 133.261 99.4796 133.036 99.9316 132.584C100.372 132.144 100.583 131.92 100.8 131.691C101.028 131.45 101.262 131.203 101.731 130.733C102.455 130.01 103.35 129.444 104.366 129.168ZM158.448 22.9502C158.448 23.5418 158.456 23.8324 158.463 24.1299C158.471 24.4424 158.479 24.7623 158.479 25.3906C158.479 26.0371 158.462 26.3741 158.446 26.6953C158.432 26.9868 158.418 27.2626 158.418 27.8301C158.418 28.3732 158.44 28.6298 158.463 28.9102C158.49 29.2397 158.519 29.5941 158.519 30.2607C158.519 30.9271 158.49 31.2809 158.463 31.6104C158.44 31.8908 158.418 32.1471 158.418 32.6904C158.418 33.252 158.434 33.5203 158.45 33.8066C158.469 34.1283 158.488 34.4674 158.488 35.1201C158.488 35.2151 158.492 35.2993 158.497 35.373C158.552 35.325 158.615 35.2705 158.682 35.2041L158.688 35.1973C159.14 34.7494 159.371 34.5245 159.6 34.3008C159.826 34.0795 160.051 33.859 160.498 33.417C160.921 32.9986 161.116 32.7852 161.32 32.5615C161.546 32.3153 161.781 32.0583 162.258 31.5869C162.716 31.1334 162.954 30.9073 163.184 30.6865C163.406 30.4726 163.625 30.2593 164.062 29.8232C164.542 29.3427 164.811 29.108 165.067 28.8848C165.293 28.6885 165.504 28.5063 165.918 28.0967C166.311 27.7076 166.473 27.5087 166.651 27.2891C166.87 27.0202 167.11 26.7248 167.611 26.2236C168.349 25.4857 169.303 24.8859 170.196 24.4072L170.522 24.2363C171.184 23.8989 171.893 23.592 172.615 23.3525L172.978 23.2393C174.117 22.8941 175.217 22.8301 176.088 22.8301C176.64 22.8301 176.905 22.8169 177.185 22.8027C177.495 22.7869 177.82 22.7705 178.448 22.7705C179.007 22.7705 179.279 22.759 179.562 22.7471C179.871 22.734 180.192 22.7207 180.809 22.7207C181.412 22.7207 181.723 22.7286 182.025 22.7363C182.313 22.7436 182.593 22.75 183.158 22.75C183.73 22.75 184.015 22.7451 184.305 22.7402C184.605 22.7351 184.91 22.7305 185.508 22.7305C186.131 22.7305 186.456 22.7469 186.767 22.7627C187.046 22.7769 187.312 22.79 187.858 22.79C188.449 22.79 188.747 22.7934 189.043 22.7959C189.334 22.7984 189.624 22.8008 190.208 22.8008C190.754 22.8008 191.014 22.7849 191.289 22.7686C191.601 22.75 191.929 22.7305 192.559 22.7305C193.118 22.7305 193.392 22.7206 193.677 22.7109C193.982 22.7006 194.298 22.6904 194.908 22.6904H197.258C197.918 22.6904 198.268 22.7227 198.591 22.7529C198.857 22.7778 199.094 22.8008 199.608 22.8008C200.168 22.8008 200.44 22.7909 200.724 22.7812C201.028 22.7709 201.343 22.7607 201.958 22.7607H204.309C204.88 22.7607 205.163 22.7559 205.451 22.751C205.75 22.7459 206.056 22.7402 206.658 22.7402C207.229 22.7402 207.507 22.7329 207.791 22.7256C208.091 22.7179 208.399 22.71 209.008 22.71C209.617 22.71 209.925 22.7179 210.226 22.7256C210.51 22.7329 210.788 22.7402 211.358 22.7402C211.935 22.7402 212.218 22.7354 212.505 22.7305C212.803 22.7254 213.105 22.7207 213.708 22.7207C214.355 22.7207 214.693 22.7462 215.01 22.7705C215.278 22.7912 215.526 22.8105 216.059 22.8105C216.591 22.8105 216.838 22.7912 217.106 22.7705C217.423 22.7462 217.761 22.7207 218.408 22.7207C218.979 22.7207 219.259 22.7134 219.545 22.7061C219.846 22.6984 220.154 22.6904 220.758 22.6904C221.827 22.6904 222.938 23.0023 223.843 23.2773C224.601 23.5003 225.481 23.7804 226.314 24.1885L226.668 24.3721L226.671 24.373C227.588 24.8754 228.5 25.491 229.218 26.207C229.698 26.6821 229.937 26.9367 230.167 27.1826C230.382 27.4117 230.589 27.6325 231.028 28.0674C231.471 28.5053 231.695 28.7126 231.928 28.9297C232.175 29.1603 232.428 29.3968 232.905 29.874C233.399 30.368 233.639 30.6415 233.865 30.8975C234.065 31.1236 234.254 31.3365 234.679 31.7568C235.147 32.2204 235.379 32.4588 235.61 32.6963C235.834 32.9266 236.053 33.152 236.505 33.6035C236.927 34.0261 237.141 34.2111 237.369 34.4092C237.631 34.6361 237.908 34.8766 238.405 35.374C239.118 36.0869 239.747 36.9988 240.251 37.9385L240.433 38.293C240.722 38.8898 240.947 39.5062 241.133 40.082L241.34 40.75L241.342 40.7559C241.655 41.8242 241.798 42.881 241.798 43.8408C241.798 44.3133 241.823 44.522 241.852 44.7637C241.888 45.0769 241.928 45.4233 241.928 46.0703C241.928 46.6571 241.918 46.9563 241.907 47.2451C241.898 47.5112 241.888 47.7678 241.888 48.3008C241.888 48.8806 241.88 49.1768 241.872 49.4639C241.865 49.7344 241.858 49.9958 241.858 50.5303C241.858 51.5625 241.617 52.6373 241.318 53.6201L241.319 53.6211C241.028 54.5995 240.597 55.5323 240.146 56.3613L240.146 56.3623C239.698 57.2103 239.139 58.203 238.375 58.9668C237.906 59.4354 237.667 59.6679 237.431 59.8965C237.202 60.1179 236.976 60.3359 236.524 60.7871C236.093 61.2182 235.898 61.437 235.691 61.667C235.463 61.9219 235.223 62.188 234.734 62.6768C234.272 63.1396 234.037 63.3726 233.805 63.6025C233.575 63.8301 233.346 64.0549 232.895 64.5068C232.399 65.0024 232.12 65.2427 231.856 65.4688C231.628 65.6645 231.415 65.8478 230.995 66.2676C230.527 66.7362 230.287 66.9678 230.051 67.1963C229.822 67.4177 229.596 67.6356 229.145 68.0869L229.14 68.0928L229.134 68.0977C228.909 68.3183 228.742 68.6589 228.558 69.3223C228.441 69.7425 228.444 70.2002 228.561 70.6279C228.715 71.197 228.904 71.5732 229.165 71.834C229.553 72.2221 229.748 72.4113 229.945 72.6035C230.148 72.8012 230.353 73.0017 230.755 73.4033C231.445 74.0939 232.087 74.9638 232.606 75.9307L232.779 76.2559C233.119 76.9149 233.426 77.6249 233.666 78.3477L233.779 78.71L233.78 78.7109C234.093 79.7646 234.248 80.8429 234.248 81.8105C234.248 82.3772 234.246 82.6601 234.243 82.9404C234.241 83.215 234.238 83.4871 234.238 84.04V86.2705C234.238 86.7904 234.252 87.0388 234.266 87.3008C234.281 87.5956 234.298 87.905 234.298 88.5C234.298 89.5773 233.969 90.6906 233.7 91.5752C233.449 92.4286 233.13 93.4435 232.621 94.3789L232.623 94.3799C232.099 95.3577 231.453 96.2191 230.765 96.9072L230.758 96.9141C230.391 97.2759 230.229 97.4582 230.059 97.6504C229.863 97.8713 229.653 98.1089 229.225 98.5371L229.214 98.5479C228.764 98.9894 228.546 99.3393 228.464 99.6514C228.376 99.9826 228.398 100.456 228.546 101.029C228.648 101.426 228.861 101.81 229.215 102.164L229.21 102.169C229.632 102.594 229.849 102.839 230.056 103.075C230.245 103.292 230.42 103.495 230.812 103.891C231.203 104.286 231.402 104.464 231.615 104.653C231.857 104.869 232.113 105.097 232.571 105.561C232.969 105.963 233.171 106.146 233.381 106.336C233.614 106.547 233.862 106.771 234.314 107.224C234.783 107.692 235.011 107.96 235.225 108.213C235.406 108.428 235.57 108.624 235.952 109.011C236.343 109.406 236.539 109.58 236.747 109.764C236.985 109.974 237.241 110.2 237.705 110.664C238.16 111.119 238.381 111.361 238.594 111.595C238.786 111.806 238.97 112.009 239.375 112.414C239.811 112.85 240.028 113.072 240.242 113.291L241.075 114.134L241.085 114.144C241.76 114.83 242.401 115.698 242.921 116.668C243.323 117.415 243.695 118.232 243.976 119.076L244.09 119.439L244.092 119.445C244.402 120.503 244.559 121.57 244.559 122.54C244.559 123.099 244.553 123.383 244.548 123.661C244.543 123.928 244.538 124.19 244.538 124.721C244.538 125.218 244.553 125.455 244.569 125.709C244.588 126.001 244.608 126.312 244.608 126.9C244.608 127.468 244.597 127.762 244.587 128.046C244.577 128.307 244.568 128.558 244.568 129.07C244.568 129.561 244.583 129.793 244.6 130.045C244.618 130.336 244.638 130.647 244.638 131.24C244.638 132.301 244.352 133.401 244.066 134.341L244.064 134.349C243.763 135.323 243.332 136.256 242.877 137.091L242.876 137.09C242.382 138.01 241.785 138.907 241.064 139.627C240.732 139.959 240.585 140.126 240.43 140.304C240.25 140.509 240.055 140.731 239.663 141.129C239.263 141.534 239.034 141.734 238.822 141.919C238.644 142.074 238.483 142.214 238.163 142.539C237.825 142.882 237.668 143.055 237.499 143.239C237.314 143.442 237.121 143.651 236.734 144.037C235.981 144.79 235.006 145.365 234.147 145.825L234.136 145.831C233.424 146.205 232.45 146.749 231.423 147.057C230.304 147.401 229.198 147.49 228.298 147.49C227.73 147.49 227.454 147.504 227.164 147.519C226.844 147.534 226.51 147.551 225.868 147.551C225.195 147.551 224.839 147.518 224.508 147.488C224.232 147.463 223.981 147.44 223.438 147.44C222.884 147.44 222.625 147.46 222.346 147.48C222.02 147.505 221.673 147.53 221.008 147.53C220.687 147.53 220.445 147.527 220.244 147.522L219.26 147.487C219.082 147.483 218.868 147.48 218.578 147.48C217.962 147.48 217.652 147.478 217.346 147.476C217.045 147.473 216.747 147.471 216.148 147.471C215.605 147.471 215.352 147.492 215.074 147.515C214.747 147.542 214.395 147.57 213.729 147.57C213.099 147.57 212.778 147.56 212.467 147.55C212.176 147.54 211.893 147.53 211.309 147.53C210.692 147.53 210.384 147.528 210.079 147.525C209.779 147.523 209.482 147.521 208.878 147.521H206.448C205.819 147.521 205.499 147.509 205.188 147.499C204.897 147.489 204.614 147.48 204.028 147.48C203.467 147.48 203.201 147.498 202.918 147.517C202.595 147.538 202.253 147.561 201.599 147.561C200.975 147.561 200.658 147.553 200.348 147.545C200.053 147.538 199.764 147.53 199.178 147.53C198.524 147.53 198.182 147.508 197.859 147.486C197.577 147.468 197.313 147.45 196.758 147.45C196.196 147.45 195.928 147.466 195.644 147.482C195.323 147.501 194.986 147.521 194.338 147.521C193.715 147.521 193.397 147.513 193.087 147.505C192.792 147.498 192.504 147.49 191.918 147.49C191.344 147.49 191.066 147.502 190.776 147.514C190.461 147.527 190.134 147.54 189.498 147.54C188.862 147.54 188.535 147.527 188.22 147.514C187.93 147.502 187.652 147.49 187.078 147.49H184.658C184.072 147.49 183.784 147.498 183.489 147.505C183.179 147.513 182.862 147.521 182.238 147.521C181.67 147.521 181.397 147.535 181.109 147.549C180.792 147.565 180.46 147.58 179.818 147.58C179.158 147.58 178.811 147.555 178.485 147.531C178.206 147.51 177.947 147.49 177.398 147.49C176.41 147.49 175.34 147.308 174.308 146.991C173.421 146.727 172.425 146.379 171.508 145.879L171.506 145.878C170.625 145.396 169.663 144.793 168.931 144.047C168.452 143.563 168.219 143.287 167.999 143.025C167.81 142.8 167.637 142.592 167.238 142.184C166.84 141.776 166.637 141.6 166.421 141.412C166.168 141.193 165.896 140.957 165.415 140.471C164.969 140.02 164.746 139.79 164.526 139.562C164.311 139.34 164.099 139.12 163.665 138.681C163.228 138.239 163.01 138.021 162.791 137.802C162.57 137.581 162.348 137.358 161.905 136.91C161.459 136.459 161.237 136.229 161.017 136.002C160.802 135.78 160.589 135.559 160.155 135.12C159.721 134.681 159.503 134.466 159.283 134.249L158.381 133.347C158.073 133.033 157.721 132.835 157.236 132.7C156.614 132.527 156.183 132.51 155.926 132.581C155.586 132.675 155.196 132.907 154.785 133.317C154.315 133.788 154.065 134.019 153.823 134.242C153.6 134.449 153.384 134.648 152.955 135.077C152.517 135.515 152.306 135.735 152.095 135.957C151.874 136.189 151.648 136.429 151.191 136.891C150.767 137.32 150.567 137.539 150.357 137.767C150.132 138.012 149.9 138.262 149.435 138.728C148.939 139.223 148.652 139.462 148.385 139.683C148.162 139.867 147.959 140.032 147.564 140.427C147.159 140.833 146.983 141.038 146.791 141.26C146.57 141.516 146.333 141.789 145.845 142.277C145.354 142.768 145.076 143.006 144.816 143.229C144.593 143.42 144.388 143.594 143.984 143.997C143.405 144.577 142.577 145.358 141.518 145.928L141.519 145.929C140.636 146.41 139.656 146.803 138.719 147.082L138.718 147.081C137.638 147.408 136.55 147.551 135.599 147.551C135.083 147.551 134.829 147.556 134.569 147.561C134.299 147.566 134.022 147.57 133.479 147.57C132.935 147.57 132.656 147.566 132.384 147.561C132.123 147.556 131.869 147.551 131.358 147.551C130.798 147.551 130.505 147.537 130.226 147.523C129.975 147.512 129.738 147.5 129.248 147.5C128.78 147.5 128.562 147.518 128.321 147.536C128.034 147.558 127.724 147.58 127.138 147.58C126.104 147.58 125.015 147.34 124.027 147.039L124.025 147.038C123.125 146.763 122.136 146.405 121.228 145.909L121.226 145.907C120.306 145.403 119.391 144.786 118.672 144.067L118.665 144.061C118.176 143.566 117.939 143.292 117.717 143.039C117.521 142.816 117.333 142.604 116.908 142.184C116.428 141.709 116.191 141.456 115.961 141.209C115.747 140.979 115.541 140.757 115.102 140.317C114.676 139.892 114.46 139.702 114.231 139.502C113.973 139.275 113.701 139.037 113.211 138.547C112.733 138.069 112.498 137.812 112.271 137.564C112.063 137.337 111.863 137.119 111.432 136.688C110.988 136.244 110.765 136.029 110.534 135.808C110.294 135.577 110.051 135.343 109.585 134.871C109.153 134.434 108.935 134.232 108.71 134.025C108.467 133.802 108.213 133.569 107.742 133.098L107.619 132.984C107.327 132.732 106.994 132.566 106.577 132.456C105.961 132.294 105.517 132.275 105.23 132.353C104.847 132.457 104.441 132.691 104.064 133.067C103.624 133.508 103.413 133.731 103.196 133.96C102.968 134.201 102.734 134.448 102.265 134.917C101.807 135.375 101.575 135.604 101.344 135.833C101.115 136.059 100.887 136.285 100.435 136.737C99.977 137.195 99.7448 137.425 99.5137 137.653C99.2849 137.88 99.0565 138.105 98.6045 138.557C98.1497 139.011 97.9227 139.239 97.6953 139.467C97.4679 139.694 97.24 139.922 96.7852 140.377C96.3273 140.835 96.0945 141.065 95.8633 141.294C95.6346 141.52 95.4069 141.745 94.9551 142.197L94.9541 142.196C94.3509 142.806 93.7477 143.412 93.1445 144.016L93.1455 144.017C92.4472 144.727 91.5446 145.37 90.5898 145.882L90.5908 145.883C89.6403 146.395 88.6023 146.707 87.7793 146.952H87.7773C86.8241 147.235 85.7406 147.49 84.6982 147.49C84.225 147.49 84.0045 147.507 83.7627 147.525C83.4747 147.547 83.1646 147.57 82.5781 147.57C81.978 147.57 81.655 147.54 81.3604 147.513C81.1214 147.49 80.912 147.471 80.458 147.471C79.9757 147.471 79.7441 147.484 79.4961 147.498C79.2143 147.514 78.9157 147.53 78.3486 147.53C77.8022 147.53 77.5223 147.522 77.25 147.515C76.9952 147.507 76.747 147.5 76.2383 147.5C75.2558 147.5 74.1835 147.33 73.1279 147.009C72.2486 146.747 71.2444 146.398 70.3281 145.898L70.3252 145.897C69.2995 145.336 68.4749 144.62 67.8418 143.987L67.835 143.98C67.4059 143.547 67.1881 143.347 66.9619 143.141C66.7139 142.915 66.4525 142.678 65.9717 142.197C65.5023 141.728 65.2682 141.481 65.04 141.24C64.8233 141.011 64.6124 140.787 64.1719 140.347C63.7489 139.924 63.5325 139.733 63.3037 139.53C63.0476 139.303 62.7779 139.064 62.291 138.577C61.7896 138.076 61.5479 137.788 61.3232 137.521C61.133 137.294 60.9601 137.085 60.5518 136.677C60.1316 136.257 59.9178 136.07 59.6904 135.871C59.4329 135.645 59.1615 135.407 58.6719 134.917C58.2198 134.465 57.9915 134.24 57.7627 134.014C57.5315 133.785 57.2997 133.555 56.8418 133.097L56.8359 133.092L56.8311 133.086C56.4807 132.729 56.1194 132.518 55.6963 132.4C55.3301 132.299 54.8759 132.308 54.3691 132.438C53.7683 132.593 53.4025 132.77 53.165 133.007L53.1582 133.014C52.7391 133.428 52.5575 133.638 52.3662 133.861C52.1448 134.119 51.9057 134.4 51.4111 134.9C50.942 135.375 50.6948 135.612 50.4512 135.844C50.2193 136.064 49.9953 136.276 49.5547 136.717C49.1084 137.163 48.8905 137.389 48.6689 137.618C48.4406 137.854 48.2085 138.093 47.7451 138.557C47.2845 139.017 47.0497 139.247 46.8174 139.475C46.5898 139.697 46.3642 139.918 45.915 140.367C45.4369 140.845 45.18 141.08 44.9355 141.306C44.711 141.513 44.493 141.714 44.0615 142.15C43.6467 142.57 43.4656 142.784 43.2686 143.015C43.0412 143.281 42.8004 143.561 42.3047 144.057L42.2998 144.062L42.2949 144.067C41.5554 144.794 40.5894 145.38 39.7168 145.848L39.7178 145.849C38.9066 146.291 37.9566 146.749 36.9629 147.047C35.9095 147.371 34.8161 147.54 33.8379 147.54C33.1936 147.54 32.8523 147.512 32.5361 147.484C32.2725 147.462 32.0336 147.44 31.5186 147.44C31.0093 147.44 30.7723 147.463 30.5098 147.488C30.191 147.518 29.8445 147.551 29.1982 147.551C28.617 147.551 28.3218 147.547 28.0293 147.545C27.7419 147.542 27.4562 147.54 26.8877 147.54H24.5781C23.9902 147.54 23.6924 147.535 23.3984 147.53C23.1152 147.525 22.8354 147.521 22.2686 147.521H19.958C19.4169 147.521 19.1599 147.534 18.8887 147.548C18.5851 147.564 18.2668 147.58 17.6484 147.58C17.062 147.58 16.7687 147.578 16.4785 147.575C16.1938 147.573 15.9112 147.57 15.3379 147.57H13.0283C12.3645 147.57 12.0077 147.531 11.6846 147.495C11.4291 147.466 11.208 147.44 10.7178 147.44C10.1691 147.44 9.90225 147.449 9.62402 147.459C9.32445 147.469 9.01395 147.48 8.4082 147.48C7.40673 147.48 6.38938 147.27 5.45215 146.729C4.6015 146.237 3.79973 145.505 3.26562 144.596C2.67531 143.591 2.56836 142.49 2.56836 141.61V139.181C2.56836 138.619 2.55263 138.351 2.53613 138.064C2.5176 137.743 2.49805 137.403 2.49805 136.75C2.49805 136.122 2.50598 135.804 2.51367 135.494C2.52098 135.2 2.52832 134.912 2.52832 134.32V131.891C2.52832 131.342 2.50631 131.085 2.4834 130.807C2.45638 130.478 2.42773 130.127 2.42773 129.46C2.42775 128.793 2.45633 128.442 2.4834 128.114C2.50632 127.837 2.52832 127.583 2.52832 127.04C2.52831 126.479 2.51256 126.213 2.49609 125.93C2.47753 125.61 2.45801 125.273 2.45801 124.62V122.19C2.45801 121.519 2.48658 121.165 2.51367 120.836C2.53663 120.557 2.55858 120.303 2.55859 119.761V117.341C2.55859 116.805 2.53285 116.557 2.50586 116.284C2.47297 115.951 2.43848 115.589 2.43848 114.91C2.43848 114.299 2.44084 113.992 2.44336 113.687C2.44584 113.387 2.44824 113.089 2.44824 112.49C2.44824 111.854 2.46159 111.527 2.47461 111.212C2.48658 110.922 2.49805 110.644 2.49805 110.07C2.49805 109.447 2.50598 109.129 2.51367 108.819C2.52098 108.525 2.52832 108.237 2.52832 107.65V105.23C2.52832 104.638 2.52347 104.345 2.51855 104.048C2.51347 103.74 2.50781 103.428 2.50781 102.811C2.50781 102.168 2.52429 101.836 2.54004 101.519C2.55428 101.231 2.56836 100.958 2.56836 100.391C2.56836 99.7982 2.5635 99.5053 2.55859 99.208C2.55351 98.9005 2.54785 98.5879 2.54785 97.9707C2.54785 97.3535 2.55351 97.0409 2.55859 96.7334C2.56351 96.4361 2.56836 96.1432 2.56836 95.5508C2.56836 95.02 2.54363 94.7755 2.5166 94.5029C2.48365 94.1706 2.44826 93.8096 2.44824 93.1309C2.44824 92.4455 2.48649 92.079 2.52246 91.7441C2.55149 91.474 2.57812 91.2346 2.57812 90.71C2.57811 90.1857 2.55148 89.9468 2.52246 89.6768C2.48648 89.3419 2.44824 88.9754 2.44824 88.29C2.44825 87.6546 2.4616 87.3277 2.47461 87.0127C2.48658 86.7229 2.49805 86.4442 2.49805 85.8701V83.4502C2.49805 82.8329 2.5037 82.5204 2.50879 82.2129C2.51371 81.9156 2.51855 81.6228 2.51855 81.0303C2.51855 80.4377 2.51371 80.1451 2.50879 79.8477C2.5037 79.5401 2.49805 79.2277 2.49805 78.6104C2.49805 77.9621 2.51761 77.6249 2.53613 77.3047C2.5526 77.0201 2.56836 76.7519 2.56836 76.1904C2.56836 75.629 2.5526 75.3608 2.53613 75.0762C2.51761 74.756 2.49805 74.4187 2.49805 73.7705C2.49805 73.178 2.49319 72.8852 2.48828 72.5879C2.4832 72.2803 2.47852 71.9678 2.47852 71.3506C2.47852 70.7644 2.47117 70.4764 2.46387 70.1816C2.45618 69.8716 2.44824 69.554 2.44824 68.9307C2.44824 68.2642 2.47684 67.9124 2.50391 67.585C2.52683 67.3076 2.54784 67.0537 2.54785 66.5107C2.54785 65.8874 2.55579 65.5698 2.56348 65.2598C2.57079 64.965 2.57812 64.677 2.57812 64.0908C2.57812 63.5538 2.55527 63.3042 2.53027 63.0293C2.50028 62.6994 2.46777 62.3426 2.46777 61.6699V59.25C2.46778 58.6267 2.47571 58.3091 2.4834 57.999C2.49071 57.7043 2.49805 57.4162 2.49805 56.8301C2.49805 56.2376 2.49319 55.9448 2.48828 55.6475C2.4832 55.3399 2.47852 55.0274 2.47852 54.4102C2.47852 53.7929 2.4832 53.4804 2.48828 53.1729C2.49319 52.8755 2.49805 52.5827 2.49805 51.9902C2.49804 51.4225 2.48397 51.1495 2.46973 50.8623C2.45397 50.5446 2.43848 50.2124 2.43848 49.5703C2.43848 48.9221 2.45706 48.5848 2.47559 48.2646C2.49205 47.98 2.50781 47.7118 2.50781 47.1504C2.50781 46.5578 2.50297 46.2652 2.49805 45.9678C2.49296 45.6602 2.48828 45.3478 2.48828 44.7305C2.48828 44.0945 2.50162 43.7673 2.51465 43.4521C2.52663 43.1624 2.53808 42.8845 2.53809 42.3105C2.53809 41.7488 2.52234 41.4801 2.50586 41.1953C2.48734 40.8753 2.46778 40.5385 2.46777 39.8906C2.46777 39.2982 2.46292 39.0053 2.45801 38.708C2.45293 38.4005 2.44824 38.0878 2.44824 37.4707C2.44824 36.8039 2.47683 36.4516 2.50391 36.124C2.52681 35.8469 2.54784 35.5934 2.54785 35.0508C2.54785 34.4274 2.55579 34.1098 2.56348 33.7998C2.57079 33.505 2.57812 33.217 2.57812 32.6309C2.57812 32.0939 2.55527 31.8443 2.53027 31.5693C2.50028 31.2394 2.46777 30.8827 2.46777 30.21C2.46778 29.5929 2.47344 29.2802 2.47852 28.9727C2.48343 28.6754 2.48828 28.3824 2.48828 27.79C2.48829 27.1296 2.5139 26.7831 2.53809 26.458C2.55891 26.1782 2.57812 25.9195 2.57812 25.3701C2.57812 24.815 2.56065 24.5517 2.54199 24.2695C2.52065 23.9468 2.49805 23.6047 2.49805 22.9502C2.49807 21.9813 2.65399 20.8996 2.97949 19.8301L2.98145 19.8223C3.26398 18.9095 3.6435 17.9317 4.12988 17.04L4.13086 17.0381C4.68572 16.0249 5.3838 15.1914 6.03125 14.5439C6.93937 13.6258 6.94594 13.6192 7.86816 12.707C8.34227 12.2381 8.59154 12.0049 8.83105 11.7793C9.05861 11.565 9.28138 11.3544 9.72168 10.9141C10.1216 10.5142 10.2863 10.3084 10.4717 10.0801C10.6962 9.80349 10.9413 9.50401 11.4512 8.99414C11.9178 8.52752 12.1601 8.29554 12.3975 8.06836C12.625 7.85056 12.8477 7.63667 13.291 7.19336C14.1989 6.28549 14.1976 6.28799 15.1055 5.37012C15.5776 4.89277 15.8272 4.65553 16.0723 4.4248C16.3026 4.20792 16.5235 4.00087 16.9609 3.56348C17.5553 2.96913 18.2956 2.3828 19.1338 1.89062L19.499 1.68555C20.4482 1.16995 21.5124 0.865573 22.3076 0.628906C23.2758 0.341631 24.354 0.100652 25.3877 0.100586C25.9741 0.100586 26.2627 0.0932481 26.5576 0.0859375C26.8676 0.0782518 27.1853 0.0703125 27.8086 0.0703125C28.4627 0.0703229 28.8043 0.0929281 29.127 0.114258C29.4093 0.132924 29.673 0.150391 30.2285 0.150391C30.7962 0.150385 31.0692 0.136313 31.3564 0.12207C31.6741 0.106318 32.0064 0.0908203 32.6484 0.0908203C33.2347 0.0908178 33.5226 0.0834812 33.8174 0.0761719C34.1275 0.0684841 34.4449 0.0605469 35.0684 0.0605469C35.6856 0.0605481 35.9981 0.0652318 36.3057 0.0703125C36.603 0.0752242 36.8958 0.0800781 37.4883 0.0800781H39.9082C40.5144 0.0800783 40.8193 0.0824379 41.123 0.0849609C41.4217 0.0874418 41.7195 0.0908203 42.3184 0.0908203C43.2861 0.0908432 44.3535 0.247427 45.418 0.570312L45.4189 0.569336C45.4203 0.569745 45.4215 0.570879 45.4229 0.571289C45.4247 0.571836 45.4269 0.571718 45.4287 0.572266L45.4277 0.573242C46.4268 0.871719 47.3717 1.3313 48.1787 1.77148C49.0736 2.25157 50.0015 2.83942 50.7354 3.57324C51.6214 4.4494 51.6324 4.47123 52.5049 5.34375C52.9734 5.81229 53.2036 6.06408 53.4229 6.30273C53.6235 6.5211 53.8174 6.7313 54.2383 7.14746C54.6683 7.57268 54.887 7.77656 55.1123 7.98828C55.3499 8.21155 55.5901 8.43874 56.0449 8.89355C56.4638 9.31246 56.6737 9.5069 56.8936 9.70996C57.1316 9.92977 57.379 10.1583 57.8447 10.624C58.2896 11.0689 58.5122 11.2915 58.7334 11.5127C58.9546 11.7339 59.1753 11.9536 59.6152 12.3936C60.0641 12.8425 60.2887 13.075 60.5098 13.3037C60.7236 13.5249 60.9344 13.743 61.3652 14.1738C61.7779 14.5865 61.9854 14.7734 62.2051 14.9717C62.4484 15.1913 62.7031 15.4218 63.1748 15.8936C63.6554 16.3742 63.8902 16.6413 64.1104 16.8936C64.3033 17.1145 64.4809 17.3198 64.8848 17.7236C65.2976 18.1365 65.505 18.3231 65.7217 18.5176C65.9619 18.7331 66.2167 18.9603 66.6885 19.4268C67.1695 19.9024 67.4043 20.1682 67.627 20.4219C67.8222 20.6444 68.0012 20.8498 68.4053 21.2539C68.8361 21.6847 69.0542 21.8955 69.2754 22.1094C69.5021 22.3286 69.7321 22.5516 70.1738 22.9932C70.6407 23.4518 71.256 23.9256 71.9473 24.2959L71.958 24.3018C72.546 24.6225 73.2571 24.8363 74.1387 25.0986L74.1484 25.1016C75.0845 25.3864 75.7554 25.5508 76.2783 25.5508H78.3984C78.8931 25.5508 79.133 25.5392 79.3848 25.5273C79.6648 25.5142 79.9582 25.5 80.5186 25.5C81.0716 25.5 81.3595 25.5111 81.6357 25.5215C81.8892 25.531 82.1317 25.54 82.6279 25.54C83.1601 25.54 83.4287 25.5434 83.6953 25.5459C83.956 25.5484 84.2155 25.5508 84.7383 25.5508C85.2502 25.5508 85.8815 25.4522 86.583 25.2598L86.8877 25.1719C87.6136 24.9496 88.3499 24.6273 89.0381 24.252L89.0488 24.2461C89.751 23.8699 90.3499 23.4157 90.8018 22.9639C91.2646 22.5011 91.5096 22.2713 91.75 22.0479C91.9753 21.8384 92.1911 21.639 92.6182 21.2168C93.6094 20.2367 93.4844 20.401 94.3945 19.4805C95.2767 18.5883 95.3073 18.5687 96.1719 17.7041C96.5879 17.288 96.7798 17.0772 96.9844 16.8545C97.2077 16.6113 97.4392 16.3612 97.9082 15.8975C98.796 15.0197 98.7766 15.0291 99.6719 14.1338C100.121 13.6851 100.352 13.4602 100.581 13.2393C100.802 13.0254 101.02 12.8147 101.451 12.3838C101.867 11.9679 102.059 11.7578 102.26 11.5381C102.479 11.2978 102.708 11.048 103.172 10.584C103.645 10.111 103.907 9.87814 104.156 9.6582C104.377 9.46329 104.585 9.28067 104.991 8.87402C105.422 8.44316 105.629 8.22795 105.838 8.01074C106.054 7.78607 106.276 7.55425 106.725 7.10059C107.589 6.22633 107.672 6.16285 108.501 5.33398C108.968 4.86717 109.223 4.63628 109.467 4.41602C109.688 4.21635 109.899 4.0263 110.312 3.61328C110.855 3.06166 111.557 2.43352 112.418 1.91309L112.799 1.69629C113.702 1.2052 114.684 0.849646 115.578 0.583008C116.594 0.273713 117.674 0.0605469 118.688 0.0605469C119.336 0.0605541 119.673 0.079143 119.993 0.0976562C120.278 0.114131 120.547 0.130859 121.108 0.130859C121.67 0.130855 121.938 0.114124 122.223 0.0976562C122.543 0.0791344 122.88 0.0605469 123.528 0.0605469C124.164 0.0605494 124.491 0.0738903 124.807 0.0869141C125.096 0.0988849 125.374 0.110352 125.948 0.110352C126.485 0.110348 126.734 0.0874944 127.009 0.0625C127.339 0.0324961 127.695 0 128.368 0C129.054 0 129.42 0.0392235 129.755 0.0751953C130.025 0.104196 130.264 0.130857 130.788 0.130859C131.331 0.130859 131.588 0.108866 131.866 0.0859375C132.194 0.0589542 132.546 0.0302769 133.208 0.0302734C133.852 0.0302734 134.186 0.0498502 134.505 0.0683594C134.788 0.0848077 135.056 0.100586 135.618 0.100586C136.479 0.100586 137.401 0.231 138.323 0.478516L138.726 0.59375C139.533 0.843649 140.365 1.1657 141.153 1.56543L141.488 1.74219L141.49 1.74316C142.343 2.21026 143.099 2.76149 143.731 3.34961L143.995 3.60352L144.001 3.61035C144.427 4.04106 144.642 4.23541 144.865 4.43555C145.113 4.65782 145.38 4.89375 145.868 5.37695C146.308 5.81204 146.532 6.01781 146.765 6.23242C147.014 6.46265 147.27 6.6985 147.745 7.17383C148.203 7.63145 148.433 7.86365 148.661 8.09473C148.887 8.32353 149.112 8.55185 149.564 9.00391C150.034 9.47324 150.265 9.71731 150.489 9.95312C150.702 10.1767 150.913 10.3965 151.358 10.8369C151.833 11.3062 152.068 11.5527 152.3 11.7979C152.521 12.0311 152.73 12.2544 153.171 12.7002C153.648 13.183 153.883 13.4416 154.107 13.6875C154.313 13.9137 154.514 14.1318 154.945 14.5635C155.518 15.1364 156.117 15.8497 156.622 16.6992L156.833 17.0713L156.839 17.083C157.313 17.9854 157.669 18.9521 157.939 19.8594L157.941 19.8662C158.236 20.8692 158.448 21.9354 158.448 22.9502Z" fill="#1E1E1E"/>
<path d="M178.225 133.91V122.35H182.245L184.745 132.04H185.245L187.745 122.35H191.765V133.91H189.765V124.22H189.265L186.795 133.91H183.195L180.725 124.22H180.225V133.91H178.225Z" fill="#1E1E1E"/>
<path d="M202.824 130.5H195.764V130.91L196.814 131.95H200.384L201.854 131.37L202.604 133.17L200.784 133.92H196.004L193.834 131.8V127.3L196.004 125.18H200.854L202.834 127.29V130.52L202.824 130.5ZM196.814 127.13L195.764 128.17V128.66H200.834V128.03L199.984 127.13H196.814Z" fill="#1E1E1E"/>
<path d="M212.554 134.169L212.074 132.659L210.474 133.919H206.844L204.574 131.459V127.499L206.774 125.169H210.174L211.804 126.269V122.359H213.804V131.669L214.434 133.489L212.554 134.169ZM207.774 131.939H209.694L211.814 130.289V128.679L209.494 127.129H207.694L206.574 128.319V130.649L207.774 131.939Z" fill="#1E1E1E"/>
<path d="M215.875 122.589C215.875 121.789 216.525 121.129 217.305 121.129C218.085 121.129 218.735 121.789 218.735 122.589C218.735 123.389 218.085 124.049 217.305 124.049C216.525 124.049 215.875 123.389 215.875 122.589ZM216.305 133.909V125.159H218.305V133.909H216.305Z" fill="#1E1E1E"/>
<path d="M228.515 134.17L226.935 133.12V132.42L225.905 133.29L224.175 133.92H221.805L220.385 132.39V130.44L221.605 129.06L226.755 128.06V127.64L226.175 127.04H223.405L222.935 127.33L222.605 128.06L220.775 127.3L221.305 126.13L222.785 125.18H227.015L228.745 126.95V131.91L229.245 132.23L230.395 132.01L230.715 133.76L228.515 134.18V134.17ZM222.715 132.13H223.935L225.065 131.72L226.745 130.53V129.73L222.675 130.61L222.375 130.98V131.74L222.705 132.11L222.715 132.13Z" fill="#1E1E1E"/>
</svg>
