<svg width="261" height="150" viewBox="0 0 261 150" fill="none" xmlns="http://www.w3.org/2000/svg">
<path d="M236.423 26.5104C235.873 25.9604 235.103 25.3704 234.233 25.0104C233.363 24.6504 232.393 24.4204 231.623 24.4204C230.443 24.4204 230.443 24.5004 229.253 24.5004C228.063 24.5004 228.063 24.5404 226.883 24.5404C225.703 24.5404 225.693 24.4204 224.513 24.4204C223.333 24.4204 223.333 24.5204 222.143 24.5204C220.953 24.5204 220.953 24.5404 219.773 24.5404C218.593 24.5404 218.583 24.5304 217.403 24.5304C216.223 24.5304 216.213 24.4704 215.033 24.4704C213.853 24.4704 213.843 24.4404 212.663 24.4404C211.483 24.4404 211.473 24.4304 210.293 24.4304C209.113 24.4304 209.103 24.5204 207.923 24.5204C206.743 24.5204 206.733 24.4604 205.553 24.4604C204.373 24.4604 204.363 24.4304 203.183 24.4304C202.003 24.4304 201.993 24.5104 200.813 24.5104C199.633 24.5104 199.633 24.4304 198.443 24.4304C197.253 24.4304 197.253 24.5004 196.073 24.5004C194.893 24.5004 194.883 24.5004 193.693 24.5004C192.503 24.5004 192.503 24.5204 191.313 24.5204C190.123 24.5204 190.123 24.5204 188.933 24.5204C187.743 24.5204 187.743 24.4504 186.553 24.4504C185.363 24.4504 185.363 24.5404 184.173 24.5404C183.393 24.5404 182.443 24.6704 181.563 25.0304C180.683 25.3904 179.923 25.9804 179.373 26.5304C178.553 27.3504 178.503 27.3004 177.673 28.1204C176.843 28.9404 176.913 29.0004 176.093 29.8204C175.273 30.6404 175.233 30.6004 174.403 31.4204C173.573 32.2404 173.573 32.2304 172.753 33.0504C171.933 33.8704 171.973 33.9104 171.153 34.7304C170.333 35.5504 170.253 35.4804 169.433 36.3004C168.613 37.1204 168.663 37.1704 167.843 37.9904C167.023 38.8104 167.033 38.8204 166.203 39.6404C165.373 40.4604 165.373 40.4504 164.543 41.2704C163.713 42.0904 163.763 42.1304 162.943 42.9504C162.123 43.7704 162.063 43.7104 161.233 44.5404C160.403 45.3704 160.423 45.3804 159.593 46.2004C158.773 47.0204 158.813 47.0704 157.993 47.8904C156.893 48.9904 155.933 48.5804 155.933 47.0204C155.933 45.8604 155.933 45.8604 155.933 44.7004C155.933 43.9271 155.933 43.1571 155.933 42.3904C155.933 41.2304 155.923 41.2304 155.923 40.0704C155.923 38.9104 155.923 38.9104 155.923 37.7504C155.923 36.5904 155.983 36.5904 155.983 35.4404C155.983 34.2804 155.953 34.2804 155.953 33.1304C155.953 31.9804 156.003 31.9704 156.003 30.8104C156.003 29.6504 155.953 29.6504 155.953 28.4904C155.953 27.3304 155.923 27.3304 155.923 26.1704C155.923 25.0104 156.013 25.0104 156.013 23.8504C156.013 22.6904 155.963 22.6904 155.963 21.5304C155.963 20.7504 155.763 19.8104 155.403 18.9304C155.043 18.0504 154.563 17.2004 154.013 16.6504C153.203 15.8404 153.143 15.9104 152.333 15.1004C151.523 14.2904 151.583 14.2304 150.773 13.4204C149.963 12.6104 149.973 12.6004 149.163 11.7904C148.353 10.9804 148.313 11.0204 147.503 10.2104C146.693 9.40039 146.643 9.4504 145.843 8.6404C145.043 7.8304 145.023 7.8404 144.213 7.0204C143.403 6.2104 143.443 6.1704 142.633 5.3604C141.823 4.5504 141.823 4.55039 141.003 3.74039C140.453 3.19039 139.653 2.65039 138.773 2.29039C137.893 1.93039 136.953 1.74039 136.173 1.74039C134.933 1.74039 134.933 1.79039 133.703 1.79039C132.473 1.79039 132.473 1.7504 131.233 1.7504C129.993 1.7504 130.003 1.70039 128.763 1.70039C127.523 1.70039 127.523 1.7804 126.293 1.7804C125.063 1.7804 125.053 1.67039 123.823 1.67039C122.593 1.67039 122.583 1.70039 121.353 1.70039C120.123 1.70039 120.113 1.79039 118.873 1.79039C117.633 1.79039 117.633 1.79039 116.393 1.79039C115.613 1.79039 114.693 1.99039 113.813 2.35039C112.933 2.71039 112.083 3.1604 111.533 3.7204C110.986 4.26706 110.437 4.81706 109.883 5.37039C109.063 6.19039 109.113 6.25039 108.293 7.07039C107.473 7.89039 107.413 7.84039 106.593 8.67039C105.773 9.50039 105.823 9.5404 105.003 10.3604C104.183 11.1804 104.123 11.1204 103.303 11.9504C102.483 12.7804 102.493 12.7904 101.673 13.6204C100.853 14.4504 100.873 14.4704 100.053 15.2904C99.2331 16.1104 99.2032 16.0904 98.3832 16.9104C97.5632 17.7304 97.5832 17.7604 96.7532 18.5804C95.9232 19.4004 95.8931 19.3704 95.0731 20.1904C94.2531 21.0104 94.2631 21.0304 93.4331 21.8604C92.6031 22.6904 92.6431 22.7204 91.8131 23.5504C90.9831 24.3804 90.9931 24.3804 90.1631 25.2104C89.6131 25.7604 88.7632 26.2404 87.8832 26.6104C87.0032 26.9804 86.0631 27.1504 85.2831 27.1504C84.1531 27.1504 84.1531 27.2204 83.0231 27.2204C81.8931 27.2204 81.8931 27.2504 80.7631 27.2504C79.6331 27.2504 79.6332 27.2404 78.5032 27.2404C77.3732 27.2404 77.3732 27.1504 76.2432 27.1504C75.1132 27.1504 75.1132 27.2404 73.9832 27.2404C73.2032 27.2404 72.2432 27.0204 71.3732 26.6504C70.5032 26.2804 69.7031 25.7204 69.1531 25.1704C68.3331 24.3504 68.2831 24.3904 67.4631 23.5604C66.6431 22.7304 66.6832 22.7004 65.8531 21.8704C65.0231 21.0404 65.0531 21.0304 64.2231 20.2004C63.3931 19.3704 63.3531 19.4304 62.5331 18.6004C61.7131 17.7704 61.6832 17.8104 60.8632 16.9804C60.0432 16.1504 60.1031 16.0904 59.2831 15.2604C58.4631 14.4304 58.4532 14.4404 57.6332 13.6204C56.8132 12.8004 56.7931 12.8104 55.9731 11.9804C55.1531 11.1504 55.1731 11.1304 54.3531 10.3004C53.5331 9.4704 53.5231 9.48039 52.7031 8.65039C51.8831 7.82039 51.8031 7.90039 50.9731 7.07039C50.4198 6.51706 49.8698 5.96373 49.3231 5.4104C48.4931 4.5804 48.5231 4.55039 47.6931 3.73039C47.1431 3.18039 46.3531 2.63039 45.4731 2.26039C44.5931 1.89039 43.6432 1.71039 42.8632 1.71039C41.6232 1.71039 41.6231 1.65039 40.3931 1.65039C39.1631 1.65039 39.1631 1.7704 37.9231 1.7704C36.6831 1.7704 36.6931 1.6904 35.4531 1.6904C34.2131 1.6904 34.2132 1.6904 32.9832 1.6904C31.7532 1.6904 31.7431 1.7204 30.5131 1.7204C29.2831 1.7204 29.2731 1.6904 28.0431 1.6904C26.8131 1.6904 26.8031 1.7704 25.5631 1.7704C24.3231 1.7704 24.3231 1.7504 23.0831 1.7504C22.3031 1.7504 21.3531 1.90039 20.4731 2.26039C19.5931 2.62039 18.8331 3.2004 18.2731 3.7504C17.4631 4.5604 17.4531 4.5504 16.6431 5.3604C15.8331 6.1704 15.8431 6.18039 15.0431 6.99039C14.2431 7.80039 14.2031 7.7704 13.3931 8.5804C12.5831 9.3904 12.5331 9.34039 11.7231 10.1504C10.9131 10.9604 10.9631 11.0104 10.1531 11.8204C9.34308 12.6304 9.38312 12.6704 8.57312 13.4804C7.76312 14.2904 7.67315 14.2004 6.85315 15.0104C6.03315 15.8204 6.1231 15.9004 5.3031 16.7104C4.7531 17.2604 4.22316 18.0504 3.86316 18.9304C3.50316 19.8104 3.28308 20.7404 3.28308 21.5204C3.28308 22.7104 3.28308 22.7104 3.28308 23.9004C3.28308 25.0904 3.31311 25.0904 3.31311 26.2804C3.31311 27.4704 3.22314 27.4704 3.22314 28.6604C3.22314 29.8504 3.31311 29.8504 3.31311 31.0404C3.31311 32.2304 3.34314 32.2304 3.34314 33.4204C3.34314 34.6104 3.22314 34.6104 3.22314 35.8004C3.22314 36.9904 3.21313 36.9904 3.21313 38.1804C3.21313 39.3704 3.33313 39.3704 3.33313 40.5604C3.33313 41.7504 3.28308 41.7504 3.28308 42.9404C3.28308 44.1304 3.33313 44.1304 3.33313 45.3204C3.33313 46.5104 3.33313 46.5104 3.33313 47.7004C3.33313 48.8904 3.29309 48.8904 3.29309 50.0804C3.29309 51.2704 3.25317 51.2704 3.25317 52.4604C3.25317 53.6504 3.29309 53.6504 3.29309 54.8404C3.29309 56.0304 3.29309 56.0304 3.29309 57.2204C3.29309 58.4104 3.26306 58.4104 3.26306 59.6004C3.26306 60.7904 3.29309 60.7904 3.29309 61.9804C3.29309 63.1704 3.20312 63.1704 3.20312 64.3604C3.20312 65.5504 3.22314 65.5504 3.22314 66.7404C3.22314 67.9304 3.32312 67.9304 3.32312 69.1204C3.32312 70.3104 3.27307 70.3104 3.27307 71.5004C3.27307 72.6904 3.20312 72.6904 3.20312 73.8804C3.20312 75.0704 3.27307 75.0704 3.27307 76.2604C3.27307 77.4504 3.32312 77.4504 3.32312 78.6404C3.32312 79.8304 3.23315 79.8304 3.23315 81.0204C3.23315 82.2104 3.3031 82.2104 3.3031 83.4004C3.3031 84.5904 3.3031 84.5904 3.3031 85.7804C3.3031 86.9704 3.32312 86.9704 3.32312 88.1604C3.32312 89.3504 3.27307 89.3504 3.27307 90.5404C3.27307 91.7304 3.21313 91.7304 3.21313 92.9204C3.21313 94.1104 3.21313 94.1104 3.21313 95.3004C3.21313 96.4904 3.32312 96.4904 3.32312 97.6804C3.32312 98.8704 3.34314 98.8704 3.34314 100.06C3.34314 101.25 3.26306 101.25 3.26306 102.44C3.26306 103.63 3.31311 103.63 3.31311 104.82C3.31311 106.01 3.24316 106.01 3.24316 107.2C3.24316 108.39 3.26306 108.39 3.26306 109.59C3.26306 110.79 3.23315 110.78 3.23315 111.97C3.23315 113.16 3.26306 113.16 3.26306 114.36C3.26306 115.56 3.26306 115.55 3.26306 116.74C3.26306 117.93 3.29309 117.93 3.29309 119.13C3.29309 120.33 3.28308 120.32 3.28308 121.52C3.28308 122.72 3.22314 122.71 3.22314 123.91C3.22314 125.1 3.3031 125.1 3.3031 126.3C3.3031 127.5 3.3031 127.49 3.3031 128.68C3.3031 129.87 3.25317 129.87 3.25317 131.07C3.25317 132.26 3.31311 132.26 3.31311 133.46C3.31311 134.66 3.35315 134.65 3.35315 135.85C3.35315 137.05 3.24316 137.04 3.24316 138.24C3.24316 139.44 3.26306 139.44 3.26306 140.63C3.26306 141.82 3.32312 141.83 3.32312 143.02C3.32312 143.8 3.6531 144.47 4.1731 144.98C4.6931 145.49 5.35318 145.81 6.13318 145.81C7.31318 145.81 7.31315 145.84 8.48315 145.84C9.65315 145.84 9.66313 145.79 10.8331 145.79C12.0031 145.79 12.0131 145.8 13.1831 145.8C14.3531 145.8 14.3631 145.88 15.5331 145.88C16.7031 145.88 16.7132 145.9 17.8832 145.9C19.0532 145.9 19.0532 145.9 20.2332 145.9C21.4132 145.9 21.4131 145.83 22.5831 145.83C23.7531 145.83 23.7631 145.81 24.9431 145.81C26.1231 145.81 26.1231 145.85 27.3031 145.85C28.4831 145.85 28.4831 145.92 29.6631 145.92C30.8431 145.92 30.8431 145.91 32.0231 145.91C33.2031 145.91 33.2032 145.91 34.3832 145.91C35.1632 145.91 36.0931 145.63 36.9731 145.27C37.8531 144.91 38.6932 144.44 39.2532 143.88C40.0632 143.07 40.0131 143.02 40.8231 142.22C41.6331 141.42 41.7032 141.48 42.5032 140.67C43.3032 139.86 43.3032 139.85 44.1132 139.04C44.9232 138.23 44.8931 138.2 45.7031 137.39C46.5131 136.58 46.4631 136.53 47.2731 135.72C48.0831 134.91 48.0931 134.92 48.9031 134.11C49.7131 133.3 49.7531 133.33 50.5631 132.52C51.3731 131.71 51.3631 131.7 52.1731 130.88C52.7231 130.33 53.4631 130.12 54.1931 130.12C54.9231 130.12 55.6832 130.3 56.2332 130.85C57.0432 131.66 57.0231 131.67 57.8331 132.48C58.6431 133.29 58.6631 133.27 59.4731 134.07C60.2831 134.87 60.1832 134.98 60.9932 135.79C61.8032 136.6 61.8132 136.59 62.6232 137.4C63.4332 138.21 63.4831 138.15 64.2931 138.96C65.1031 139.77 65.0931 139.78 65.9031 140.59C66.7131 141.4 66.6832 141.44 67.4932 142.25C68.3032 143.06 68.3431 143.03 69.1531 143.84C69.7031 144.39 70.5231 144.9 71.3931 145.27C72.2631 145.64 73.2032 145.85 73.9832 145.85C75.1132 145.85 75.1132 145.89 76.2432 145.89C77.3732 145.89 77.3732 145.81 78.5032 145.81C79.6332 145.81 79.6331 145.83 80.7631 145.83C81.8931 145.83 81.8931 145.87 83.0231 145.87C84.1531 145.87 84.1531 145.79 85.2831 145.79C86.0631 145.79 86.9831 145.58 87.8531 145.22C88.7232 144.86 89.6131 144.44 90.1631 143.89C90.7031 143.35 91.2431 142.81 91.7831 142.27C92.5931 141.46 92.5732 141.44 93.3832 140.64C94.1932 139.84 94.1732 139.81 94.9832 139C95.7932 138.19 95.7631 138.16 96.5731 137.35C97.3831 136.54 97.3531 136.51 98.1631 135.71C98.9731 134.91 99.0231 134.95 99.8431 134.14C100.663 133.33 100.623 133.3 101.433 132.48C102.243 131.66 102.303 131.73 103.123 130.92C103.673 130.37 104.363 129.99 105.083 129.99C105.803 129.99 106.553 130.31 107.103 130.86C107.643 131.4 108.183 131.937 108.723 132.47C109.533 133.28 109.513 133.29 110.323 134.1C111.133 134.91 111.143 134.9 111.953 135.7C112.763 136.5 112.763 136.51 113.563 137.32C114.363 138.13 114.303 138.19 115.113 139C115.923 139.81 116.003 139.73 116.813 140.54C117.623 141.35 117.643 141.33 118.453 142.15C119.263 142.97 119.233 143 120.043 143.81C120.593 144.36 121.413 144.84 122.293 145.2C123.173 145.56 124.083 145.83 124.863 145.83C125.993 145.83 125.993 145.89 127.123 145.89C128.253 145.89 128.253 145.84 129.383 145.84C130.513 145.84 130.513 145.81 131.643 145.81C132.773 145.81 132.773 145.79 133.903 145.79C135.033 145.79 135.033 145.86 136.163 145.86C136.943 145.86 137.863 145.58 138.743 145.21C139.623 144.84 140.433 144.36 140.983 143.81C141.793 143 141.843 143.05 142.653 142.24C143.463 141.43 143.393 141.36 144.193 140.55C144.993 139.74 145.073 139.81 145.873 139C146.673 138.19 146.623 138.13 147.433 137.32C148.243 136.51 148.263 136.54 149.073 135.73C149.883 134.92 149.943 134.97 150.753 134.16C151.563 133.35 151.563 133.35 152.383 132.54C153.203 131.73 153.113 131.65 153.923 130.84C154.473 130.29 155.243 130.11 155.973 130.1C156.703 130.09 157.413 130.32 157.973 130.86C158.823 131.67 158.833 131.66 159.683 132.47C160.533 133.28 160.553 133.26 161.393 134.07C162.233 134.88 162.223 134.9 163.073 135.71C163.64 136.25 164.203 136.794 164.763 137.34C165.613 138.15 165.593 138.17 166.443 138.98C167.293 139.79 167.343 139.74 168.193 140.56C169.043 141.38 168.993 141.43 169.843 142.24C170.693 143.05 170.723 143.02 171.573 143.84C172.133 144.38 172.923 144.94 173.813 145.29C174.703 145.64 175.653 145.88 176.433 145.88C177.653 145.88 177.653 145.87 178.863 145.87C180.073 145.87 180.083 145.8 181.303 145.8C182.523 145.8 182.523 145.86 183.743 145.86C184.963 145.86 184.963 145.84 186.173 145.84C187.383 145.84 187.393 145.88 188.613 145.88C189.833 145.88 189.833 145.76 191.053 145.76C192.273 145.76 192.273 145.84 193.493 145.84C194.713 145.84 194.713 145.8 195.933 145.8C197.153 145.8 197.153 145.84 198.373 145.84C199.593 145.84 199.593 145.84 200.813 145.84C202.033 145.84 202.033 145.74 203.253 145.74C204.473 145.74 204.473 145.87 205.693 145.87C206.913 145.87 206.913 145.74 208.133 145.74C209.353 145.74 209.353 145.75 210.573 145.75C211.793 145.75 211.793 145.8 213.013 145.8C214.233 145.8 214.233 145.76 215.453 145.76C216.673 145.76 216.673 145.76 217.893 145.76C219.113 145.76 219.113 145.87 220.333 145.87C221.553 145.87 221.553 145.82 222.783 145.82C224.013 145.82 224.003 145.8 225.233 145.8C226.013 145.8 226.933 145.54 227.803 145.17C228.673 144.8 229.473 144.3 230.013 143.73C230.853 142.85 230.843 142.84 231.683 141.97C232.523 141.1 232.583 141.15 233.423 140.28C234.263 139.41 234.193 139.33 235.033 138.46C235.873 137.59 235.963 137.67 236.803 136.79C237.643 135.91 237.653 135.92 238.493 135.04C239.333 134.16 239.283 134.11 240.123 133.24C240.963 132.37 240.993 132.4 241.833 131.53C242.673 130.66 242.693 130.67 243.533 129.79C244.373 128.91 244.343 128.89 245.183 128.01C246.023 127.13 245.993 127.1 246.833 126.23C247.673 125.36 247.743 125.42 248.583 124.54C249.423 123.66 249.363 123.6 250.203 122.73C251.043 121.86 251.043 121.85 251.883 120.97C252.723 120.09 252.723 120.09 253.573 119.21C254.423 118.33 254.473 118.39 255.323 117.51C255.863 116.95 256.313 116.09 256.663 115.2C257.013 114.31 257.243 113.39 257.243 112.61C257.243 111.41 257.303 111.41 257.303 110.2C257.303 108.99 257.223 109 257.223 107.79C257.223 106.58 257.223 106.59 257.223 105.38C257.223 104.17 257.213 104.18 257.213 102.97C257.213 101.76 257.233 101.77 257.233 100.57C257.233 99.7704 257.233 98.9704 257.233 98.1704C257.233 96.9704 257.283 96.9704 257.283 95.7704C257.283 94.5704 257.243 94.5704 257.243 93.3604C257.243 92.1604 257.333 92.1604 257.333 90.9504C257.333 89.7404 257.283 89.7504 257.283 88.5404C257.283 87.3404 257.283 87.3404 257.283 86.1304C257.283 84.9204 257.283 84.9204 257.283 83.7204C257.283 82.5204 257.293 82.5204 257.293 81.3104C257.293 80.1004 257.273 80.1004 257.273 78.9004C257.273 77.7004 257.333 77.7004 257.333 76.4904C257.333 75.2804 257.213 75.2804 257.213 74.0804C257.213 72.8804 257.263 72.8804 257.263 71.6704C257.263 70.4604 257.283 70.4604 257.283 69.2604C257.283 68.0604 257.253 68.0504 257.253 66.8504C257.253 65.6504 257.253 65.6504 257.253 64.4404C257.253 63.2304 257.303 63.2404 257.303 62.0304C257.303 60.8204 257.283 60.8204 257.283 59.6204C257.283 58.4204 257.243 58.4104 257.243 57.2104C257.243 56.0004 257.303 56.0004 257.303 54.8004C257.303 53.6004 257.213 53.5904 257.213 52.3804C257.213 51.5737 257.213 50.7671 257.213 49.9604C257.213 49.1804 257.033 48.2504 256.673 47.3704C256.313 46.4904 255.783 45.7004 255.233 45.1504C254.383 44.3004 254.453 44.2204 253.603 43.3704C252.753 42.5204 252.683 42.5904 251.823 41.7404C250.963 40.8904 251.033 40.8304 250.183 39.9804C249.333 39.1304 249.263 39.2004 248.403 38.3504C247.543 37.5004 247.593 37.4604 246.743 36.6104C245.893 35.7604 245.923 35.7204 245.073 34.8704C244.223 34.0204 244.143 34.1004 243.283 33.2404C242.433 32.3904 242.443 32.3804 241.583 31.5304C240.723 30.6804 240.773 30.6404 239.913 29.7804C239.053 28.9204 239.013 28.9704 238.153 28.1204C237.293 27.2704 237.303 27.2504 236.453 26.4004L236.423 26.5104Z" fill="#E5E5E5"/>
<path d="M1.63281 21.5205C1.63281 20.4654 1.9216 19.3185 2.33594 18.3057C2.77253 17.2384 3.42031 16.2604 4.13672 15.5439L4.14355 15.5361C4.49777 15.1862 4.6407 15.011 4.80273 14.8135C5.00555 14.5662 5.22821 14.2964 5.69336 13.8369C6.16194 13.3741 6.43997 13.1526 6.68945 12.9541C6.8866 12.7973 7.06014 12.6596 7.40625 12.3135C7.7851 11.9346 7.95832 11.7442 8.14062 11.543C8.34328 11.3192 8.55522 11.0844 8.98633 10.6533C9.35859 10.2811 9.52467 10.0934 9.70215 9.89258C9.90461 9.6635 10.1192 9.42086 10.5566 8.9834C10.9941 8.54593 11.2367 8.33138 11.4658 8.12891C11.6665 7.95153 11.8544 7.7862 12.2266 7.41406C12.6541 6.98657 12.8848 6.77426 13.1025 6.57324C13.3012 6.38983 13.4921 6.21284 13.8691 5.83105C14.6142 5.07664 14.6833 4.98664 15.4766 4.19336C15.8879 3.78201 16.098 3.57664 16.3057 3.37402C16.5079 3.17672 16.7081 2.98233 17.1064 2.58398L17.1113 2.57812L17.1172 2.57324C17.7822 1.92018 18.7168 1.19644 19.8486 0.733398C20.9487 0.283383 22.1138 0.100601 23.083 0.100586C23.715 0.100586 24.0347 0.105271 24.3496 0.110352C24.6546 0.115273 24.9555 0.120117 25.5635 0.120117C26.1352 0.12011 26.4096 0.102719 26.7012 0.0839844C27.0313 0.0627684 27.3796 0.0400418 28.043 0.0400391C28.6761 0.0400391 29.001 0.0479873 29.3184 0.0556641C29.6208 0.0629821 29.9164 0.0703096 30.5127 0.0703125C31.1094 0.0703125 31.4054 0.0629852 31.708 0.0556641C32.0253 0.0479874 32.3502 0.0400391 32.9834 0.0400391H35.4531C36.1214 0.0400391 36.4673 0.0626756 36.7949 0.0839844C37.0822 0.102668 37.3515 0.120112 37.9229 0.120117C38.4703 0.120117 38.7232 0.0954479 39.002 0.0683594C39.3396 0.0355505 39.7055 0 40.3936 0C41.0445 8.10515e-06 41.3809 0.0165248 41.7041 0.0322266C41.9977 0.0464906 42.2795 0.0605469 42.8633 0.0605469C43.87 0.0605652 45.0368 0.287094 46.1123 0.739258C47.1844 1.19001 48.151 1.85712 48.8525 2.55664L49.3672 3.07422C49.5017 3.21318 49.6077 3.32706 49.7129 3.43945C49.8105 3.54381 49.9059 3.64585 50.0264 3.77148L50.4902 4.24414L50.4971 4.25098C51.0412 4.80174 51.5888 5.35246 52.1396 5.90332C52.5037 6.26737 52.6881 6.41876 52.8945 6.58984C53.1463 6.79848 53.4159 7.02449 53.877 7.49121C54.2804 7.89955 54.4827 8.09944 54.6875 8.30176C54.8977 8.50939 55.111 8.71917 55.5273 9.14062C55.9499 9.56837 56.1592 9.79189 56.3643 10.0098C56.5591 10.2168 56.7495 10.4185 57.1465 10.8203C57.5469 11.2256 57.749 11.423 57.9521 11.6201C58.1629 11.8246 58.3805 12.0348 58.7998 12.4541C59.5657 13.22 59.6533 13.2871 60.457 14.1006C60.9052 14.5543 61.1237 14.8095 61.3281 15.0488C61.5037 15.2544 61.6655 15.4442 62.0371 15.8203C62.4248 16.2127 62.6185 16.3936 62.8213 16.582C63.0435 16.7885 63.2748 17.0029 63.707 17.4404C64.0849 17.823 64.2727 17.9908 64.4717 18.168C64.6992 18.3705 64.9431 18.5866 65.3896 19.0332C65.8175 19.461 66.0281 19.6819 66.2334 19.8975C66.428 20.1018 66.6175 20.3021 67.0195 20.7041C67.4569 21.1415 67.6729 21.3756 67.8809 21.6035C68.071 21.8118 68.2494 22.0083 68.6367 22.4004C69.0181 22.7864 69.211 22.9622 69.4131 23.1445C69.6395 23.3488 69.8806 23.5652 70.3193 24.0039C70.7202 24.4048 71.3439 24.8449 72.0186 25.1318C72.7324 25.4354 73.4721 25.5908 73.9834 25.5908C74.4886 25.5908 74.7242 25.5713 74.9824 25.5508C75.2891 25.5264 75.6188 25.5 76.2432 25.5C76.8676 25.5 77.1973 25.5264 77.5039 25.5508C77.7621 25.5713 77.9977 25.5908 78.5029 25.5908C79.0744 25.5908 79.3624 25.5932 79.6475 25.5957C79.9271 25.5982 80.2046 25.6006 80.7627 25.6006C81.3078 25.6006 81.5753 25.5932 81.8496 25.5859C82.1402 25.5782 82.4388 25.5703 83.0234 25.5703C83.5417 25.5703 83.7874 25.5544 84.0508 25.5381C84.3522 25.5194 84.6719 25.5 85.2832 25.5C85.846 25.5 86.5689 25.3738 87.2441 25.0898C88.0453 24.753 88.6672 24.3727 88.9961 24.0439C89.4079 23.6321 89.6108 23.4269 89.8145 23.2207C90.0208 23.0119 90.2284 22.8019 90.6465 22.3838C91.0391 21.9912 91.2196 21.7941 91.4082 21.5889C91.6145 21.3642 91.8294 21.1305 92.2666 20.6934C92.6719 20.2881 92.8695 20.0831 93.0693 19.876C93.2768 19.6609 93.4867 19.443 93.9062 19.0234C94.3356 18.594 94.5652 18.3816 94.79 18.1738C94.9985 17.9812 95.198 17.7973 95.5938 17.4062C95.9924 17.0124 96.182 16.8131 96.374 16.6104C96.5785 16.3945 96.7911 16.1698 97.2168 15.7441C97.6429 15.3181 97.8677 15.1047 98.0869 14.8984C98.2927 14.7048 98.4928 14.5179 98.8867 14.124C99.2837 13.7271 99.4729 13.5281 99.665 13.3252C99.8673 13.1116 100.077 12.8885 100.499 12.4609C100.903 12.0524 101.101 11.847 101.301 11.6396C101.506 11.4272 101.713 11.212 102.129 10.791C102.577 10.3373 102.83 10.115 103.07 9.90625C103.277 9.72671 103.466 9.56476 103.837 9.19336C104.217 8.81281 104.387 8.62238 104.565 8.42188C104.767 8.19586 104.98 7.9546 105.419 7.51074C105.864 7.0603 106.114 6.83781 106.353 6.62793C106.561 6.44461 106.751 6.27794 107.126 5.90332C107.501 5.52867 107.667 5.33865 107.847 5.13379C108.052 4.89869 108.272 4.64936 108.717 4.2041C108.993 3.92746 109.269 3.65098 109.544 3.37598C109.819 3.10107 110.093 2.82699 110.366 2.55371C111.158 1.75221 112.261 1.20284 113.188 0.823242C114.224 0.399674 115.357 0.140625 116.394 0.140625H118.873C119.439 0.140625 119.709 0.120516 119.998 0.0996094C120.331 0.0755733 120.684 0.0507812 121.354 0.0507812C121.95 0.0507783 122.245 0.0434507 122.548 0.0361328C122.865 0.028456 123.19 0.0205078 123.823 0.0205078C124.505 0.0205116 124.868 0.0521866 125.204 0.0820312C125.488 0.107176 125.745 0.130856 126.293 0.130859C126.859 0.130859 127.129 0.11249 127.418 0.09375C127.747 0.0724564 128.095 0.0507893 128.763 0.0507812C129.413 0.0507812 129.745 0.064132 130.065 0.0771484C130.36 0.089129 130.644 0.100586 131.233 0.100586C131.877 0.100589 132.207 0.110769 132.525 0.121094C132.824 0.130774 133.113 0.140625 133.703 0.140625C134.287 0.140625 134.571 0.129187 134.867 0.117188C135.189 0.104177 135.523 0.0908237 136.173 0.0908203C137.193 0.0908203 138.345 0.333012 139.397 0.763672C140.465 1.20022 141.45 1.85515 142.163 2.56641L143.8 4.19336C144.231 4.6245 144.444 4.85927 144.646 5.08301C144.738 5.1835 144.826 5.2813 144.939 5.40137L145.38 5.85352L145.387 5.86035V5.86133C145.782 6.26148 145.982 6.45607 146.185 6.65332C146.395 6.85834 146.608 7.06571 147.018 7.48047C147.385 7.8523 147.569 8.01762 147.766 8.19238C147.991 8.39228 148.232 8.60652 148.67 9.04395C149.049 9.42275 149.24 9.59503 149.441 9.77734C149.665 9.97998 149.899 10.193 150.33 10.624C150.741 11.0354 150.947 11.2455 151.149 11.4531C151.347 11.6554 151.541 11.8556 151.939 12.2539C152.383 12.6979 152.601 12.9481 152.803 13.1826C152.975 13.383 153.134 13.5678 153.5 13.9336C153.862 14.2959 154.044 14.4494 154.242 14.6182C154.479 14.8193 154.732 15.036 155.18 15.4834C155.952 16.2558 156.534 17.3352 156.931 18.3057C157.356 19.3463 157.613 20.4989 157.613 21.5303C157.613 22.0779 157.625 22.3425 157.637 22.6191C157.65 22.9223 157.663 23.2384 157.663 23.8506C157.663 24.4883 157.638 24.8242 157.613 25.1377C157.593 25.404 157.573 25.6483 157.573 26.1699C157.573 26.7306 157.581 27.0061 157.588 27.2881C157.596 27.5859 157.604 27.8912 157.604 28.4902C157.604 29.0379 157.615 29.3024 157.627 29.5791C157.64 29.8823 157.653 30.1983 157.653 30.8105C157.653 31.4225 157.64 31.7405 157.627 32.0449C157.615 32.3235 157.604 32.5883 157.604 33.1309C157.604 33.6857 157.61 33.9576 157.617 34.2383C157.625 34.5352 157.633 34.8411 157.633 35.4404C157.633 36.0545 157.616 36.3733 157.601 36.6777C157.586 36.9501 157.573 37.2093 157.573 37.75V40.0703C157.573 40.6436 157.576 40.9286 157.578 41.2158C157.581 41.5085 157.583 41.8042 157.583 42.3906V45.9238C157.784 45.7 158.001 45.4592 158.427 45.0332L158.434 45.0264C158.839 44.6262 159.033 44.4273 159.229 44.2256C159.432 44.0159 159.642 43.7982 160.066 43.374C160.52 42.9208 160.774 42.6993 161.013 42.4932C161.218 42.3161 161.405 42.1545 161.776 41.7832C162.157 41.4023 162.328 41.2114 162.514 41.0059C162.722 40.775 162.94 40.5354 163.384 40.0967C163.802 39.6836 164.012 39.4782 164.221 39.2744C164.427 39.0733 164.632 38.8735 165.044 38.4668C165.891 37.6304 165.802 37.6976 166.677 36.8232C167.054 36.4458 167.222 36.2552 167.402 36.0518C167.607 35.8203 167.824 35.576 168.267 35.1338C168.725 34.6758 168.99 34.4529 169.236 34.248C169.44 34.078 169.625 33.9252 169.986 33.5635C170.37 33.1793 170.546 32.9861 170.731 32.7822C170.937 32.5562 171.151 32.3196 171.587 31.8838C172.409 31.0618 172.43 31.0502 173.243 30.2471C173.684 29.8117 173.922 29.5968 174.146 29.3945C174.349 29.2121 174.543 29.0374 174.927 28.6533C175.294 28.2857 175.451 28.1011 175.627 27.8965C175.835 27.6545 176.057 27.3979 176.514 26.9463C176.96 26.5049 177.207 26.289 177.437 26.0869C177.638 25.9093 177.828 25.7409 178.206 25.3633C178.861 24.7087 179.799 23.9692 180.938 23.5029C182.059 23.0445 183.23 22.8907 184.173 22.8906C184.711 22.8906 184.964 22.8704 185.238 22.8496C185.559 22.8254 185.901 22.8008 186.553 22.8008C187.192 22.8008 187.524 22.8193 187.84 22.8379C188.119 22.8543 188.383 22.8701 188.934 22.8701H191.313C191.896 22.8701 192.183 22.8653 192.476 22.8604C192.778 22.8553 193.086 22.8506 193.693 22.8506H196.073C196.619 22.8506 196.879 22.8348 197.157 22.8184C197.472 22.7998 197.804 22.7803 198.443 22.7803C199.088 22.7803 199.426 22.8028 199.743 22.8242C200.019 22.8428 200.274 22.8604 200.813 22.8604C201.353 22.8603 201.61 22.8429 201.888 22.8242C202.205 22.8029 202.543 22.7803 203.184 22.7803C203.792 22.7803 204.105 22.7882 204.41 22.7959C204.7 22.8032 204.982 22.8105 205.553 22.8105C206.181 22.8105 206.509 22.827 206.821 22.8428C207.104 22.857 207.371 22.8701 207.923 22.8701C208.456 22.8701 208.709 22.8509 208.983 22.8301C209.304 22.8059 209.646 22.7803 210.293 22.7803C210.889 22.7803 211.192 22.7826 211.492 22.7852C211.787 22.7876 212.08 22.79 212.663 22.79C213.272 22.79 213.585 22.798 213.89 22.8057C214.18 22.813 214.462 22.8203 215.033 22.8203C215.661 22.8203 215.988 22.8368 216.301 22.8525C216.583 22.8668 216.851 22.8809 217.403 22.8809C217.999 22.8809 218.302 22.8832 218.602 22.8857C218.897 22.8882 219.19 22.8906 219.773 22.8906C220.351 22.8906 220.636 22.8858 220.927 22.8809C221.228 22.8758 221.536 22.8701 222.144 22.8701C222.675 22.8701 222.923 22.849 223.193 22.8262C223.515 22.7991 223.86 22.7705 224.513 22.7705C225.178 22.7705 225.536 22.8059 225.863 22.8389C226.131 22.8658 226.369 22.8906 226.883 22.8906C227.447 22.8906 227.723 22.8807 228.009 22.8711C228.316 22.8607 228.633 22.8506 229.253 22.8506C229.798 22.8506 230.056 22.833 230.331 22.8145C230.647 22.7931 230.983 22.7705 231.623 22.7705C232.67 22.7705 233.859 23.0693 234.864 23.4854C235.07 23.5704 235.268 23.6674 235.461 23.7686L235.61 23.2236L237.62 25.2334C238.054 25.6674 238.271 25.8921 238.483 26.1104C238.688 26.3212 238.892 26.5315 239.312 26.9473C239.714 27.3445 239.917 27.5237 240.133 27.7168C240.373 27.9317 240.622 28.1555 241.08 28.6133C241.538 29.0709 241.761 29.3187 241.972 29.5518C242.161 29.7605 242.341 29.9593 242.743 30.3564C243.587 31.1904 243.653 31.2759 244.45 32.0732C244.831 32.454 245.023 32.6139 245.234 32.7891C245.49 33.0005 245.765 33.2293 246.24 33.7041C246.687 34.1505 246.909 34.3905 247.122 34.6221C247.319 34.8354 247.507 35.0401 247.91 35.4434C248.363 35.8963 248.584 36.1425 248.793 36.374C248.98 36.5811 249.161 36.7798 249.562 37.1768C249.949 37.5588 250.145 37.723 250.36 37.9043C250.613 38.1177 250.881 38.345 251.35 38.8135C251.815 39.2789 252.04 39.5401 252.249 39.7822C252.427 39.9886 252.594 40.1815 252.983 40.5664C253.37 40.9484 253.565 41.1127 253.78 41.2939C254.033 41.5074 254.301 41.7354 254.77 42.2041C255.241 42.6756 255.471 42.9475 255.683 43.2002C255.861 43.4123 256.021 43.6053 256.399 43.9834C257.116 44.6998 257.764 45.6789 258.2 46.7461C258.635 47.808 258.863 48.9492 258.863 49.96V52.3809C258.863 52.9302 258.883 53.1915 258.903 53.4727C258.927 53.7981 258.953 54.1451 258.953 54.8008C258.953 55.4379 258.937 55.7678 258.921 56.084C258.907 56.3695 258.894 56.6425 258.894 57.21C258.894 57.7852 258.902 58.0688 258.912 58.3613C258.922 58.6736 258.933 58.9957 258.933 59.6201C258.933 60.2074 258.937 60.4978 258.942 60.7939C258.947 61.1004 258.953 61.413 258.953 62.0303C258.953 62.6661 258.94 62.9908 258.927 63.3037C258.915 63.5907 258.903 63.8664 258.903 64.4404V66.8506C258.903 67.4319 258.911 67.7197 258.918 68.0146C258.926 68.3246 258.933 68.6422 258.933 69.2607C258.933 69.873 258.928 70.183 258.923 70.4893C258.918 70.7852 258.913 71.0777 258.913 71.6699C258.913 72.3056 258.9 72.6331 258.887 72.9473C258.875 73.236 258.863 73.5114 258.863 74.0801C258.863 74.6052 258.888 74.8465 258.915 75.1182C258.948 75.45 258.983 75.8112 258.983 76.4902C258.983 77.1323 258.967 77.4645 258.951 77.7812C258.937 78.0675 258.923 78.3378 258.923 78.9004C258.923 79.4879 258.928 79.778 258.933 80.0742C258.938 80.3807 258.943 80.6932 258.943 81.3105C258.943 81.9216 258.941 82.2294 258.938 82.5332C258.936 82.8318 258.933 83.1272 258.933 83.7207V88.54C258.933 89.114 258.945 89.3898 258.957 89.6768C258.97 89.9897 258.983 90.3144 258.983 90.9502C258.983 91.6108 258.958 91.9578 258.934 92.2822C258.913 92.561 258.894 92.8166 258.894 93.3604C258.894 93.9407 258.902 94.2238 258.912 94.5146C258.922 94.8259 258.933 95.1457 258.933 95.7705C258.933 96.4016 258.919 96.7263 258.906 97.0391C258.894 97.3262 258.883 97.6014 258.883 98.1699V100.57C258.883 101.183 258.878 101.49 258.873 101.794C258.868 102.087 258.863 102.378 258.863 102.971C258.863 103.569 258.866 103.865 258.868 104.162C258.871 104.465 258.873 104.77 258.873 105.381V107.79C258.873 108.345 258.891 108.606 258.909 108.886C258.931 109.206 258.953 109.546 258.953 110.2C258.953 110.842 258.937 111.174 258.921 111.491C258.907 111.777 258.894 112.048 258.894 112.61C258.894 113.676 258.588 114.813 258.198 115.805C257.822 116.76 257.277 117.861 256.511 118.655L256.51 118.656C256.052 119.13 255.799 119.362 255.56 119.58C255.349 119.772 255.152 119.951 254.76 120.356C253.912 121.234 253.915 121.232 253.077 122.109C252.252 122.974 252.233 123.005 251.391 123.877C251.007 124.274 250.839 124.474 250.66 124.688C250.454 124.936 250.232 125.202 249.776 125.68C249.317 126.161 249.056 126.396 248.809 126.618C248.595 126.809 248.401 126.983 248.021 127.377C247.619 127.793 247.43 128.001 247.237 128.217C247.03 128.448 246.815 128.691 246.377 129.149C245.972 129.573 245.781 129.786 245.585 130.004C245.376 130.236 245.162 130.474 244.727 130.93C244.298 131.379 244.075 131.605 243.854 131.827C243.639 132.043 243.432 132.251 243.021 132.677C242.582 133.131 242.349 133.355 242.124 133.572C241.914 133.775 241.712 133.971 241.311 134.387C240.921 134.79 240.746 134.993 240.562 135.208C240.356 135.45 240.136 135.708 239.687 136.18C239.261 136.626 239.043 136.848 238.828 137.068C238.618 137.283 238.411 137.496 237.997 137.93C237.526 138.423 237.249 138.663 236.99 138.884C236.777 139.066 236.588 139.225 236.22 139.606C235.845 139.994 235.686 140.192 235.51 140.409C235.301 140.667 235.076 140.945 234.61 141.427C234.157 141.896 233.903 142.127 233.664 142.345C233.453 142.537 233.257 142.716 232.87 143.116C232.014 144.003 232.099 143.936 231.207 144.87L231.206 144.869C230.462 145.653 229.448 146.264 228.449 146.688C227.488 147.097 226.331 147.45 225.233 147.45C224.631 147.45 224.335 147.455 224.035 147.46C223.725 147.465 223.41 147.471 222.783 147.471C222.199 147.471 221.915 147.482 221.622 147.494C221.304 147.507 220.974 147.521 220.333 147.521C219.656 147.521 219.297 147.489 218.965 147.459C218.687 147.434 218.436 147.41 217.894 147.41H215.453C214.868 147.41 214.582 147.42 214.287 147.43C213.972 147.44 213.647 147.45 213.013 147.45C212.372 147.45 212.043 147.437 211.726 147.424C211.433 147.412 211.153 147.4 210.573 147.4C209.957 147.4 209.647 147.398 209.34 147.396C209.037 147.393 208.737 147.391 208.133 147.391C207.603 147.391 207.361 147.417 207.088 147.446C206.751 147.482 206.383 147.52 205.693 147.521C205.004 147.521 204.635 147.482 204.298 147.446C204.025 147.417 203.783 147.391 203.253 147.391C202.704 147.391 202.448 147.412 202.168 147.435C201.838 147.462 201.485 147.49 200.813 147.49H198.373C197.739 147.49 197.414 147.48 197.099 147.47C196.804 147.46 196.518 147.45 195.934 147.45C195.348 147.45 195.062 147.46 194.768 147.47C194.453 147.48 194.128 147.49 193.493 147.49C192.834 147.49 192.49 147.469 192.165 147.447C191.88 147.429 191.614 147.41 191.053 147.41C190.517 147.41 190.27 147.436 189.995 147.463C189.66 147.496 189.297 147.53 188.613 147.53C187.979 147.53 187.652 147.52 187.336 147.51C187.039 147.5 186.753 147.49 186.173 147.49C185.581 147.49 185.288 147.495 184.989 147.5C184.68 147.505 184.365 147.511 183.743 147.511C183.097 147.511 182.762 147.494 182.442 147.479C182.152 147.464 181.876 147.45 181.303 147.45C180.736 147.45 180.462 147.466 180.174 147.482C179.851 147.501 179.511 147.521 178.863 147.521C178.264 147.521 177.966 147.523 177.665 147.525C177.359 147.528 177.049 147.53 176.434 147.53C175.365 147.53 174.196 147.214 173.209 146.826C172.228 146.44 171.364 145.863 170.7 145.278L170.428 145.028C170.022 144.637 169.818 144.454 169.609 144.268C169.385 144.067 169.149 143.858 168.705 143.435C168.247 142.998 168.022 142.757 167.807 142.524C167.617 142.319 167.441 142.127 167.048 141.748C166.655 141.369 166.457 141.2 166.249 141.023C166.014 140.823 165.762 140.61 165.305 140.175C164.867 139.758 164.649 139.54 164.437 139.327C164.234 139.125 164.037 138.928 163.625 138.535L163.617 138.528L163.61 138.521C163.055 137.979 162.496 137.441 161.935 136.905C161.5 136.491 161.282 136.275 161.066 136.061C160.858 135.854 160.658 135.654 160.248 135.258C159.841 134.865 159.637 134.678 159.429 134.488C159.21 134.289 158.982 134.082 158.545 133.665C158.126 133.266 157.916 133.071 157.704 132.873C157.486 132.671 157.266 132.466 156.835 132.055L156.828 132.048C156.625 131.852 156.356 131.745 155.996 131.75C155.476 131.757 155.209 131.887 155.09 132.007C154.741 132.356 154.6 132.531 154.437 132.732C154.232 132.983 154.008 133.254 153.543 133.714C152.725 134.522 152.728 134.52 151.92 135.327C151.479 135.768 151.232 135.985 150.999 136.188C150.797 136.365 150.609 136.528 150.24 136.897C149.819 137.319 149.597 137.526 149.383 137.728C149.182 137.916 148.988 138.099 148.6 138.487C148.231 138.856 148.068 139.043 147.896 139.242C147.696 139.472 147.482 139.719 147.047 140.16C146.598 140.614 146.336 140.835 146.095 141.038C145.896 141.205 145.718 141.355 145.367 141.71C145.013 142.069 144.863 142.25 144.693 142.453C144.49 142.697 144.27 142.956 143.819 143.407C143.382 143.845 143.14 144.059 142.911 144.262C142.71 144.439 142.522 144.605 142.149 144.978C141.392 145.734 140.37 146.316 139.383 146.731C138.445 147.126 137.278 147.511 136.163 147.511C135.552 147.511 135.232 147.491 134.931 147.473C134.667 147.456 134.422 147.44 133.903 147.44C133.352 147.44 133.08 147.445 132.803 147.45C132.515 147.455 132.221 147.46 131.644 147.46C131.098 147.46 130.831 147.467 130.557 147.475C130.266 147.482 129.967 147.49 129.383 147.49C128.851 147.49 128.595 147.502 128.326 147.514C128.03 147.527 127.721 147.54 127.123 147.54C126.518 147.54 126.204 147.524 125.905 147.508C125.639 147.494 125.388 147.48 124.863 147.48C123.757 147.48 122.606 147.111 121.668 146.728C120.676 146.322 119.638 145.739 118.876 144.978C118.452 144.553 118.241 144.326 118.036 144.104C117.846 143.898 117.665 143.7 117.279 143.31C116.887 142.913 116.691 142.724 116.492 142.533C116.282 142.332 116.064 142.125 115.646 141.707C115.294 141.354 115.116 141.209 114.917 141.046C114.671 140.844 114.404 140.624 113.946 140.167C113.502 139.723 113.285 139.471 113.081 139.233C112.907 139.03 112.75 138.845 112.389 138.479C111.58 137.66 111.594 137.664 110.794 136.874C110.04 136.129 109.949 136.061 109.156 135.268C108.741 134.853 108.536 134.639 108.335 134.43C108.143 134.23 107.954 134.034 107.563 133.644C107.021 133.108 106.479 132.57 105.937 132.027C105.674 131.764 105.335 131.641 105.083 131.641C104.946 131.641 104.651 131.726 104.29 132.087L104.283 132.095C103.831 132.541 103.575 132.756 103.344 132.953C103.15 133.118 102.97 133.273 102.607 133.64C102.225 134.027 102.048 134.222 101.857 134.43C101.649 134.657 101.436 134.887 101.003 135.314C100.564 135.748 100.322 135.962 100.093 136.165C99.8886 136.346 99.6976 136.514 99.3223 136.885C98.9374 137.265 98.7586 137.456 98.5742 137.653C98.3743 137.867 98.1646 138.093 97.7402 138.518C97.355 138.903 97.1745 139.096 96.9873 139.298C96.7846 139.516 96.574 139.742 96.1494 140.167C95.7607 140.556 95.5757 140.753 95.3818 140.958C95.1752 141.176 94.9645 141.398 94.543 141.814C94.1512 142.201 93.9639 142.395 93.7744 142.593C93.5746 142.801 93.3679 143.02 92.9502 143.438C92.9491 143.439 92.9473 143.439 92.9463 143.44L92.9434 143.443C92.9451 143.442 92.936 143.452 92.9375 143.45C92.9319 143.456 92.9363 143.45 92.9307 143.456L92.9277 143.459C92.9267 143.46 92.9259 143.462 92.9248 143.463C92.9238 143.464 92.9219 143.465 92.9209 143.466L92.8994 143.487C92.8984 143.488 92.8975 143.49 92.8965 143.491C92.8954 143.492 92.8936 143.493 92.8926 143.494L92.874 143.513C92.873 143.514 92.8721 143.516 92.8711 143.517C92.87 143.518 92.8682 143.518 92.8672 143.52L92.8613 143.525C92.8603 143.526 92.8595 143.528 92.8584 143.529C92.8574 143.53 92.8555 143.531 92.8545 143.532L92.8486 143.538C92.8476 143.539 92.8468 143.541 92.8457 143.542C92.8447 143.543 92.8428 143.544 92.8418 143.545L92.8203 143.566C92.8193 143.567 92.8184 143.569 92.8174 143.57C92.8163 143.571 92.8145 143.572 92.8135 143.573L92.8105 143.576C92.8021 143.585 92.8131 143.575 92.8047 143.583C92.8036 143.584 92.8018 143.585 92.8008 143.586L92.7949 143.592C92.7939 143.593 92.793 143.595 92.792 143.596C92.7836 143.604 92.7936 143.593 92.7852 143.602C92.7796 143.607 92.7849 143.603 92.7793 143.608C92.7783 143.609 92.7764 143.61 92.7754 143.611L92.7695 143.617C92.7685 143.618 92.7677 143.62 92.7666 143.621C92.7656 143.622 92.7637 143.623 92.7627 143.624L92.7285 143.658C92.7275 143.659 92.7266 143.661 92.7256 143.662C92.7245 143.663 92.7227 143.664 92.7217 143.665L92.7158 143.671C92.7148 143.672 92.7139 143.674 92.7129 143.675C92.7118 143.676 92.71 143.677 92.709 143.678C92.7011 143.686 92.7111 143.676 92.7031 143.684C92.7021 143.685 92.7012 143.686 92.7002 143.688C92.6992 143.689 92.6973 143.689 92.6963 143.69L92.6621 143.725C92.6611 143.726 92.6602 143.727 92.6592 143.729C92.6581 143.73 92.6563 143.73 92.6553 143.731L92.6494 143.737C92.6484 143.738 92.6475 143.74 92.6465 143.741C92.6454 143.742 92.6436 143.743 92.6426 143.744L92.6396 143.747C92.6368 143.75 92.6366 143.751 92.6338 143.754C92.6282 143.76 92.6326 143.754 92.627 143.76L92.624 143.763C92.623 143.764 92.6221 143.766 92.6211 143.767C92.62 143.768 92.6182 143.768 92.6172 143.77L92.6113 143.775C92.6103 143.776 92.6095 143.778 92.6084 143.779C92.6001 143.788 92.61 143.777 92.6016 143.785L92.5703 143.816C92.5693 143.817 92.5684 143.819 92.5674 143.82C92.5663 143.821 92.5645 143.822 92.5635 143.823L92.5576 143.829C92.5566 143.83 92.5557 143.832 92.5547 143.833C92.5536 143.834 92.5518 143.835 92.5508 143.836L92.5449 143.842C92.5439 143.843 92.543 143.845 92.542 143.846C92.541 143.847 92.5391 143.848 92.5381 143.849L92.5068 143.88C92.4984 143.888 92.5093 143.878 92.501 143.887C92.4999 143.888 92.4981 143.889 92.4971 143.89L92.4912 143.896C92.4902 143.897 92.4893 143.898 92.4883 143.899C92.4799 143.908 92.4898 143.897 92.4814 143.905C92.4758 143.911 92.4812 143.906 92.4756 143.912C92.4745 143.913 92.4727 143.914 92.4717 143.915L92.4658 143.921C92.4648 143.922 92.4639 143.924 92.4629 143.925C92.4619 143.926 92.46 143.927 92.459 143.928L92.4531 143.934C92.4521 143.935 92.4512 143.936 92.4502 143.938C92.4492 143.939 92.4473 143.939 92.4463 143.94L92.4248 143.962C92.4238 143.963 92.4229 143.965 92.4219 143.966C92.4208 143.967 92.419 143.968 92.418 143.969L92.4121 143.975C92.4111 143.976 92.4102 143.977 92.4092 143.979C92.4081 143.98 92.4063 143.98 92.4053 143.981C92.3973 143.989 92.4073 143.979 92.3994 143.987C92.3984 143.988 92.3975 143.99 92.3965 143.991C92.3954 143.992 92.3936 143.993 92.3926 143.994L92.374 144.013C92.373 144.014 92.3721 144.016 92.3711 144.017C92.3701 144.018 92.3682 144.019 92.3672 144.02L92.3457 144.041C92.3447 144.042 92.3438 144.044 92.3428 144.045C92.3417 144.046 92.3399 144.047 92.3389 144.048L92.3359 144.051C92.3351 144.052 92.3312 144.057 92.3301 144.058C92.3245 144.063 92.3288 144.058 92.3232 144.063L92.3203 144.066C92.3193 144.067 92.3184 144.069 92.3174 144.07C92.3163 144.071 92.3145 144.072 92.3135 144.073L92.3076 144.079C92.3066 144.08 92.3057 144.082 92.3047 144.083C92.2963 144.091 92.3063 144.08 92.2979 144.089L92.2949 144.092C92.2939 144.093 92.293 144.095 92.292 144.096C92.291 144.097 92.2891 144.098 92.2881 144.099L92.2666 144.12C92.2656 144.121 92.2647 144.123 92.2637 144.124C92.2626 144.125 92.2608 144.126 92.2598 144.127L92.2539 144.133C92.2529 144.134 92.252 144.136 92.251 144.137C92.2499 144.138 92.2481 144.139 92.2471 144.14L92.2412 144.146C92.2402 144.147 92.2393 144.148 92.2383 144.149C92.2372 144.15 92.2354 144.151 92.2344 144.152L92.2158 144.171C92.2148 144.172 92.2139 144.174 92.2129 144.175C92.2119 144.176 92.21 144.177 92.209 144.178L92.1875 144.199C92.1865 144.2 92.1856 144.202 92.1846 144.203C92.1762 144.212 92.1861 144.201 92.1777 144.209C92.1721 144.215 92.1774 144.21 92.1719 144.216C92.1708 144.217 92.169 144.218 92.168 144.219L92.1621 144.225C92.1611 144.226 92.1602 144.227 92.1592 144.229C92.1581 144.23 92.1563 144.23 92.1553 144.231L92.1494 144.237C92.1484 144.238 92.1475 144.24 92.1465 144.241C92.1454 144.242 92.1436 144.243 92.1426 144.244L92.1367 144.25C92.1357 144.251 92.1348 144.253 92.1338 144.254C92.1324 144.255 92.126 144.261 92.127 144.26L92.1084 144.278C92.1074 144.279 92.1065 144.281 92.1055 144.282C92.1044 144.283 92.1026 144.284 92.1016 144.285C92.0936 144.293 92.1035 144.283 92.0957 144.291C92.0947 144.292 92.0938 144.294 92.0928 144.295C92.0917 144.296 92.0899 144.297 92.0889 144.298L92.0703 144.316C92.0693 144.317 92.0684 144.319 92.0674 144.32C92.0663 144.321 92.0645 144.322 92.0635 144.323L92.0576 144.329C92.0566 144.33 92.0557 144.332 92.0547 144.333C92.0537 144.334 92.0518 144.335 92.0508 144.336L92.0322 144.354C92.0294 144.357 92.0291 144.359 92.0264 144.361C92.0208 144.367 92.0251 144.362 92.0195 144.367L92.0166 144.37C92.0156 144.371 92.0147 144.373 92.0137 144.374C92.0126 144.375 92.0108 144.376 92.0098 144.377L92.0039 144.383C92.0029 144.384 92.002 144.386 92.001 144.387C91.9925 144.395 92.0026 144.384 91.9941 144.393L91.9912 144.396C91.9902 144.397 91.9893 144.398 91.9883 144.399C91.9872 144.4 91.9854 144.401 91.9844 144.402L91.9814 144.405C91.9731 144.414 91.984 144.404 91.9756 144.412C91.9701 144.418 91.9743 144.412 91.9688 144.418L91.9502 144.437C91.9492 144.438 91.9483 144.439 91.9473 144.44C91.9462 144.441 91.9444 144.442 91.9434 144.443L91.9375 144.449C91.9365 144.45 91.9356 144.452 91.9346 144.453C91.9335 144.454 91.9317 144.455 91.9307 144.456L91.9121 144.475C91.9111 144.476 91.9102 144.477 91.9092 144.479C91.9081 144.48 91.9063 144.48 91.9053 144.481L91.874 144.513C91.8684 144.518 91.8737 144.514 91.8682 144.52C91.8671 144.521 91.8653 144.521 91.8643 144.522L91.8584 144.528C91.8574 144.529 91.8565 144.531 91.8555 144.532C91.8544 144.533 91.8526 144.534 91.8516 144.535L91.8457 144.541C91.8447 144.542 91.8438 144.544 91.8428 144.545C91.8417 144.546 91.8399 144.547 91.8389 144.548L91.833 144.554C91.832 144.555 91.8311 144.557 91.8301 144.558C91.8273 144.56 91.826 144.561 91.8232 144.563C91.8177 144.569 91.823 144.565 91.8174 144.57C91.8164 144.571 91.8145 144.572 91.8135 144.573L91.792 144.595C91.791 144.596 91.7901 144.598 91.7891 144.599C91.788 144.6 91.7862 144.601 91.7852 144.602L91.7666 144.62C91.7655 144.621 91.7647 144.623 91.7637 144.624C91.7626 144.625 91.7608 144.626 91.7598 144.627L91.7539 144.633C91.7529 144.634 91.752 144.636 91.751 144.637C91.7499 144.638 91.7481 144.639 91.7471 144.64L91.7412 144.646C91.7402 144.647 91.7393 144.648 91.7383 144.649C91.7373 144.65 91.7354 144.651 91.7344 144.652L91.7129 144.674C91.7119 144.675 91.711 144.677 91.71 144.678C91.7089 144.679 91.7071 144.68 91.7061 144.681L91.7002 144.687C91.6992 144.688 91.6983 144.689 91.6973 144.69C91.6888 144.699 91.6988 144.688 91.6904 144.696L91.6875 144.699C91.6864 144.7 91.6856 144.702 91.6846 144.703C91.6835 144.704 91.6817 144.705 91.6807 144.706L91.6777 144.709C91.6693 144.717 91.6803 144.707 91.6719 144.716C91.6663 144.721 91.6706 144.716 91.665 144.722L91.6621 144.725C91.6611 144.726 91.6602 144.727 91.6592 144.729C91.6581 144.73 91.6563 144.73 91.6553 144.731L91.6338 144.753C91.6328 144.754 91.6319 144.756 91.6309 144.757C91.6298 144.758 91.628 144.759 91.627 144.76L91.6084 144.778C91.6073 144.779 91.6065 144.781 91.6055 144.782C91.6044 144.783 91.6026 144.784 91.6016 144.785L91.583 144.804C91.582 144.805 91.5811 144.807 91.5801 144.808C91.579 144.809 91.5772 144.81 91.5762 144.811L91.5547 144.832C91.5537 144.833 91.5528 144.835 91.5518 144.836C91.5507 144.837 91.5489 144.838 91.5479 144.839L91.542 144.845C91.5409 144.846 91.5401 144.848 91.5391 144.849C91.538 144.85 91.5362 144.851 91.5352 144.852L91.5293 144.857C91.5282 144.858 91.5274 144.86 91.5264 144.861C91.5205 144.867 91.5188 144.868 91.5195 144.867C91.5139 144.873 91.5193 144.868 91.5137 144.874C91.5126 144.875 91.5108 144.876 91.5098 144.877L91.5039 144.883C91.5029 144.884 91.502 144.886 91.501 144.887C91.4999 144.888 91.4981 144.889 91.4971 144.89L91.4629 144.924C91.4618 144.925 91.461 144.927 91.46 144.928C91.4589 144.929 91.4571 144.93 91.4561 144.931L91.4502 144.937C91.4491 144.938 91.4483 144.939 91.4473 144.94C91.4462 144.941 91.4444 144.942 91.4434 144.943L91.4375 144.949C91.4364 144.95 91.4356 144.952 91.4346 144.953C91.4335 144.954 91.4317 144.955 91.4307 144.956L91.3965 144.99C91.3955 144.991 91.3946 144.993 91.3936 144.994C91.3851 145.003 91.3951 144.992 91.3867 145L91.3838 145.003C91.3827 145.004 91.3819 145.006 91.3809 145.007C91.3798 145.008 91.378 145.009 91.377 145.01L91.374 145.013C91.3656 145.021 91.3766 145.011 91.3682 145.02C91.3625 145.025 91.367 145.02 91.3613 145.025L91.3584 145.028C91.3573 145.029 91.3565 145.031 91.3555 145.032C91.3544 145.033 91.3526 145.034 91.3516 145.035L91.3457 145.041C91.3447 145.042 91.3438 145.044 91.3428 145.045C91.3417 145.046 91.3399 145.047 91.3389 145.048L91.3301 145.057C90.5179 145.869 89.3311 146.395 88.4844 146.745C87.4664 147.166 86.3297 147.44 85.2832 147.44C84.7712 147.44 84.5304 147.458 84.2695 147.477C83.9655 147.498 83.6411 147.52 83.0234 147.521C82.4321 147.521 82.1283 147.509 81.835 147.499C81.5633 147.489 81.3012 147.48 80.7627 147.48C80.1847 147.48 79.8914 147.475 79.6035 147.47C79.3266 147.465 79.0544 147.46 78.5029 147.46C77.9911 147.46 77.7501 147.478 77.4893 147.496C77.1853 147.518 76.8608 147.54 76.2432 147.54C75.6517 147.54 75.3481 147.53 75.0547 147.52C74.7831 147.51 74.5217 147.5 73.9834 147.5C72.9406 147.5 71.7799 147.228 70.7471 146.789C69.7461 146.363 68.728 145.748 67.9863 145.007C67.6042 144.625 67.4099 144.447 67.207 144.261C66.9851 144.057 66.7537 143.845 66.3262 143.417C65.8986 142.989 65.6862 142.758 65.4824 142.536C65.2962 142.333 65.1186 142.139 64.7363 141.757C64.3249 141.345 64.1196 141.135 63.917 140.928C63.7197 140.725 63.5244 140.525 63.126 140.127C62.7573 139.758 62.5729 139.597 62.374 139.424C62.1431 139.222 61.897 139.008 61.4561 138.567C61.0577 138.169 60.8585 137.974 60.6562 137.776C60.4485 137.574 60.2377 137.369 59.8262 136.957C59.3532 136.484 59.1284 136.195 58.9297 135.938C58.778 135.743 58.6491 135.576 58.3135 135.244C57.9216 134.857 57.7247 134.672 57.5195 134.478C57.3035 134.273 57.084 134.065 56.666 133.647C56.2513 133.233 56.0462 133.02 55.8447 132.811C55.6513 132.61 55.4614 132.413 55.0664 132.018C54.9453 131.897 54.6899 131.771 54.1934 131.771C53.7622 131.771 53.4944 131.892 53.3398 132.047C52.5913 132.805 52.5201 132.897 51.7295 133.688C51.3019 134.115 51.0707 134.327 50.8486 134.531C50.6458 134.717 50.4515 134.895 50.0693 135.277C49.658 135.689 49.4479 135.894 49.2402 136.097C49.038 136.294 48.8378 136.488 48.4395 136.887C48.0671 137.259 47.9021 137.448 47.7246 137.648C47.5222 137.877 47.3074 138.119 46.8701 138.557C46.4848 138.942 46.3044 139.136 46.1172 139.338C45.9145 139.556 45.7047 139.783 45.2803 140.207C44.4728 141.014 44.4931 141.003 43.6768 141.83C43.2345 142.278 42.9797 142.498 42.7363 142.705C42.5294 142.881 42.3449 143.036 41.9824 143.395C41.6108 143.762 41.4462 143.946 41.2715 144.143C41.0716 144.367 40.8574 144.609 40.4199 145.047C39.6364 145.83 38.5656 146.402 37.5977 146.798C36.6669 147.179 35.4932 147.561 34.3828 147.561H32.0234C31.44 147.561 31.1497 147.563 30.8574 147.565C30.5598 147.568 30.2594 147.57 29.6631 147.57C29.0289 147.57 28.6988 147.551 28.3857 147.532C28.1089 147.516 27.8484 147.5 27.3027 147.5C26.6877 147.5 26.3727 147.49 26.0674 147.479C25.7828 147.47 25.5078 147.46 24.9434 147.46C24.366 147.46 24.0782 147.465 23.7871 147.47C23.4859 147.475 23.1807 147.48 22.583 147.48C22.0429 147.48 21.7856 147.496 21.5098 147.513C21.1976 147.531 20.8674 147.551 20.2334 147.551H17.8828C17.2856 147.551 16.9806 147.545 16.6807 147.54C16.3908 147.535 16.1054 147.53 15.5332 147.53C14.8972 147.53 14.5614 147.508 14.2461 147.486C13.9717 147.468 13.717 147.45 13.1836 147.45C12.5922 147.45 12.2917 147.448 11.9941 147.445C11.7017 147.443 11.4116 147.44 10.833 147.44C10.2799 147.44 10.0097 147.452 9.72754 147.464C9.41995 147.477 9.09979 147.49 8.4834 147.49C7.87921 147.49 7.57099 147.482 7.26953 147.475C6.98387 147.467 6.70362 147.46 6.13281 147.46C4.86169 147.46 3.80093 146.926 3.01758 146.158C2.22367 145.379 1.67289 144.3 1.67285 143.021C1.67285 142.463 1.65976 142.193 1.64551 141.908C1.62974 141.593 1.61329 141.263 1.61328 140.631C1.61328 140.048 1.60841 139.76 1.60352 139.467C1.59845 139.163 1.59277 138.853 1.59277 138.24C1.59278 137.572 1.62515 137.219 1.65527 136.894C1.68013 136.625 1.70312 136.382 1.70312 135.851C1.70312 135.276 1.69325 134.998 1.68359 134.711C1.67323 134.403 1.66309 134.085 1.66309 133.46C1.66308 132.898 1.64895 132.628 1.63477 132.345C1.61902 132.031 1.60352 131.703 1.60352 131.07C1.60352 130.439 1.61686 130.115 1.62988 129.803C1.64184 129.517 1.65332 129.244 1.65332 128.681V126.301C1.65332 125.751 1.63578 125.49 1.61719 125.212C1.59586 124.893 1.57324 124.555 1.57324 123.91C1.57325 123.273 1.5897 122.946 1.60547 122.633C1.61966 122.351 1.63281 122.083 1.63281 121.521C1.63281 120.914 1.63517 120.612 1.6377 120.312C1.64017 120.017 1.64355 119.724 1.64355 119.131C1.64355 118.55 1.63622 118.264 1.62891 117.973C1.62121 117.666 1.61328 117.354 1.61328 116.74V114.36C1.61328 113.779 1.60591 113.494 1.59863 113.203C1.59097 112.897 1.58301 112.584 1.58301 111.971C1.58301 111.357 1.59096 111.046 1.59863 110.742C1.6059 110.454 1.61328 110.172 1.61328 109.591C1.61328 109.003 1.6084 108.712 1.60352 108.419C1.59846 108.115 1.59277 107.808 1.59277 107.2C1.59278 106.562 1.61233 106.229 1.63086 105.914C1.64729 105.635 1.66309 105.371 1.66309 104.82C1.66308 104.257 1.65161 103.985 1.63965 103.7C1.62659 103.39 1.61328 103.067 1.61328 102.44C1.61328 101.795 1.63582 101.458 1.65723 101.14C1.67586 100.863 1.69336 100.605 1.69336 100.061C1.69336 99.4783 1.68851 99.1907 1.68359 98.8984C1.6785 98.5958 1.67285 98.2881 1.67285 97.6807C1.67285 97.155 1.6499 96.912 1.625 96.6426C1.59492 96.3172 1.56349 95.9647 1.56348 95.3008V92.9199C1.56348 92.2876 1.57897 91.9603 1.59473 91.6475C1.60893 91.3654 1.62305 91.0974 1.62305 90.54C1.62305 89.9139 1.63636 89.5915 1.64941 89.2812C1.66138 88.9967 1.67285 88.7237 1.67285 88.1602C1.67285 87.5779 1.668 87.2903 1.66309 86.998C1.65799 86.6954 1.65332 86.3878 1.65332 85.7803V83.4004C1.65332 82.8496 1.63751 82.587 1.62109 82.3076C1.60255 81.9922 1.58301 81.6594 1.58301 81.0205C1.58301 80.369 1.60858 80.0266 1.63281 79.7061C1.65356 79.4316 1.67285 79.1789 1.67285 78.6406C1.67285 78.0771 1.66138 77.8041 1.64941 77.5195C1.63636 77.2092 1.62305 76.8868 1.62305 76.2607C1.62305 75.7097 1.60725 75.4465 1.59082 75.167C1.57229 74.8517 1.55274 74.5194 1.55273 73.8809C1.55273 73.242 1.57228 72.9092 1.59082 72.5938C1.60725 72.3142 1.62305 72.051 1.62305 71.5C1.62305 70.8739 1.63636 70.5515 1.64941 70.2412C1.66138 69.9566 1.67285 69.6837 1.67285 69.1201C1.67284 68.5882 1.65175 68.3403 1.62891 68.0684C1.60177 67.7454 1.57324 67.398 1.57324 66.7402C1.57324 66.1579 1.56839 65.8704 1.56348 65.5781C1.55838 65.2755 1.55273 64.9679 1.55273 64.3604C1.55274 63.7088 1.57831 63.3664 1.60254 63.0459C1.62329 62.7715 1.64355 62.5188 1.64355 61.9805C1.64355 61.4044 1.63622 61.1218 1.62891 60.832C1.6212 60.5268 1.61328 60.2143 1.61328 59.6006C1.61328 58.987 1.62121 58.6743 1.62891 58.3691C1.63622 58.0795 1.64355 57.7966 1.64355 57.2207V54.8408C1.64355 54.2711 1.63365 53.9931 1.62402 53.7061C1.6137 53.3982 1.60352 53.0801 1.60352 52.46C1.60352 51.8402 1.6137 51.5226 1.62402 51.2148C1.63365 50.9277 1.64355 50.6498 1.64355 50.0801C1.64356 49.4602 1.65371 49.1427 1.66406 48.835C1.67372 48.5478 1.68359 48.27 1.68359 47.7002V45.3203C1.68359 44.7571 1.67114 44.4846 1.65918 44.2002C1.64612 43.8898 1.63281 43.5669 1.63281 42.9404C1.63281 42.314 1.64612 41.9911 1.65918 41.6807C1.67114 41.3962 1.68359 41.1237 1.68359 40.5605C1.68359 40.0411 1.65876 39.8031 1.63184 39.5361C1.59877 39.2082 1.56349 38.8509 1.56348 38.1807C1.56348 37.5794 1.56584 37.2766 1.56836 36.9766C1.57084 36.6817 1.57324 36.3892 1.57324 35.8008C1.57324 35.1306 1.60855 34.7731 1.6416 34.4453C1.66853 34.1782 1.69336 33.9395 1.69336 33.4199C1.69336 32.8444 1.68602 32.562 1.67871 32.2725C1.67101 31.9672 1.66309 31.6539 1.66309 31.04C1.66308 30.5018 1.64379 30.249 1.62305 29.9746C1.59882 29.6541 1.57324 29.3116 1.57324 28.6602C1.57325 28.0088 1.59882 27.6662 1.62305 27.3457C1.64379 27.0713 1.66309 26.8185 1.66309 26.2803C1.66308 25.7042 1.65575 25.4216 1.64844 25.1318C1.64074 24.8266 1.63281 24.5141 1.63281 23.9004V21.5205ZM4.93262 23.9004C4.93262 24.4765 4.93995 24.7591 4.94727 25.0488C4.95497 25.3541 4.96289 25.6665 4.96289 26.2803C4.96289 26.9318 4.93732 27.2742 4.91309 27.5947C4.89234 27.8692 4.87305 28.1219 4.87305 28.6602C4.87305 29.1983 4.89235 29.4513 4.91309 29.7256C4.93731 30.046 4.96288 30.3887 4.96289 31.04C4.96289 31.616 4.97023 31.8988 4.97754 32.1885C4.98524 32.4937 4.99316 32.8064 4.99316 33.4199C4.99316 34.0904 4.95787 34.4484 4.9248 34.7764C4.89789 35.0433 4.87305 35.2815 4.87305 35.8008C4.87305 36.4016 4.87069 36.704 4.86816 37.0039C4.86568 37.2988 4.86328 37.592 4.86328 38.1807C4.86329 38.7 4.88811 38.9381 4.91504 39.2051C4.9481 39.5329 4.9834 39.8903 4.9834 40.5605C4.9834 41.1866 4.97008 41.5091 4.95703 41.8193C4.94506 42.1039 4.93262 42.3769 4.93262 42.9404C4.93262 43.5039 4.94506 43.7769 4.95703 44.0615C4.97008 44.3718 4.9834 44.6942 4.9834 45.3203V47.7002C4.9834 48.3204 4.97227 48.6384 4.96191 48.9463C4.95226 49.2332 4.94336 49.5107 4.94336 50.0801C4.94336 50.7002 4.9322 51.0184 4.92188 51.3262C4.91225 51.6131 4.90333 51.8907 4.90332 52.46C4.90332 53.0296 4.91225 53.3077 4.92188 53.5947C4.9322 53.9025 4.94336 54.2207 4.94336 54.8408V57.2207C4.94336 57.8344 4.93544 58.1469 4.92773 58.4521C4.92042 58.7418 4.91309 59.0245 4.91309 59.6006C4.91309 60.1766 4.92042 60.4593 4.92773 60.749C4.93544 61.0542 4.94336 61.3668 4.94336 61.9805C4.94336 62.632 4.91779 62.9744 4.89355 63.2949C4.87281 63.5693 4.85352 63.822 4.85352 64.3604C4.85352 64.9427 4.85836 65.2302 4.86328 65.5225C4.86837 65.8251 4.87305 66.1328 4.87305 66.7402C4.87305 67.2722 4.89415 67.5201 4.91699 67.792C4.94413 68.115 4.97265 68.4624 4.97266 69.1201C4.97266 69.7466 4.95934 70.0695 4.94629 70.3799C4.93432 70.6643 4.92286 70.9368 4.92285 71.5C4.92285 72.1389 4.90428 72.4717 4.88574 72.7871C4.86931 73.0666 4.85352 73.3298 4.85352 73.8809C4.85352 74.4316 4.86932 74.6942 4.88574 74.9736C4.90428 75.2891 4.92285 75.6218 4.92285 76.2607C4.92286 76.8239 4.93433 77.0964 4.94629 77.3809C4.95934 77.6913 4.97266 78.0142 4.97266 78.6406C4.97265 79.292 4.94806 79.6346 4.92383 79.9551C4.90308 80.2294 4.88281 80.4822 4.88281 81.0205C4.88281 81.5713 4.89862 81.8339 4.91504 82.1133C4.93358 82.4288 4.95312 82.7614 4.95312 83.4004V85.7803C4.95312 86.3625 4.95797 86.6501 4.96289 86.9424C4.96798 87.245 4.97265 87.5527 4.97266 88.1602C4.97266 88.7866 4.95934 89.1095 4.94629 89.4199C4.93433 89.7044 4.92286 89.9769 4.92285 90.54C4.92285 91.1727 4.90639 91.5005 4.89062 91.8135C4.87642 92.0954 4.86329 92.363 4.86328 92.9199V95.3008C4.86329 95.8264 4.88623 96.0694 4.91113 96.3389C4.94121 96.6643 4.97266 97.0167 4.97266 97.6807C4.97266 98.2629 4.9775 98.5505 4.98242 98.8428C4.98751 99.1454 4.99316 99.453 4.99316 100.061C4.99316 100.706 4.97062 101.043 4.94922 101.361C4.93059 101.638 4.91309 101.896 4.91309 102.44C4.91309 103.004 4.92455 103.277 4.93652 103.562C4.94957 103.872 4.96289 104.194 4.96289 104.82C4.96289 105.459 4.94432 105.792 4.92578 106.107C4.90936 106.387 4.89356 106.649 4.89355 107.2C4.89355 107.783 4.89843 108.071 4.90332 108.364C4.90838 108.668 4.91309 108.978 4.91309 109.591C4.91308 110.209 4.90514 110.522 4.89746 110.826C4.89018 111.115 4.88281 111.395 4.88281 111.971C4.88282 112.547 4.89018 112.829 4.89746 113.12C4.90513 113.427 4.91309 113.742 4.91309 114.36V116.74C4.91309 117.316 4.92042 117.599 4.92773 117.891C4.93544 118.197 4.94336 118.512 4.94336 119.131C4.94336 119.737 4.941 120.039 4.93848 120.339C4.936 120.634 4.93262 120.927 4.93262 121.521C4.93262 122.158 4.91714 122.486 4.90137 122.799C4.88718 123.08 4.87305 123.348 4.87305 123.91C4.87305 124.455 4.89054 124.713 4.90918 124.991C4.93056 125.311 4.95312 125.651 4.95312 126.301V128.681C4.95312 129.307 4.93976 129.629 4.92676 129.94C4.91482 130.226 4.90332 130.501 4.90332 131.07C4.90332 131.627 4.91644 131.895 4.93066 132.179C4.94643 132.493 4.96288 132.823 4.96289 133.46C4.96289 134.035 4.97277 134.313 4.98242 134.6C4.99279 134.908 5.00293 135.226 5.00293 135.851C5.00292 136.519 4.97153 136.871 4.94141 137.197C4.91654 137.466 4.89356 137.709 4.89355 138.24C4.89355 138.828 4.89843 139.119 4.90332 139.412C4.90838 139.716 4.91309 140.024 4.91309 140.631C4.91309 141.188 4.92715 141.458 4.94141 141.743C4.95717 142.058 4.97266 142.388 4.97266 143.021C4.97269 143.301 5.08219 143.562 5.32812 143.803C5.58459 144.054 5.84424 144.16 6.13281 144.16C6.74182 144.16 7.05276 144.168 7.35449 144.176C7.64036 144.183 7.91789 144.19 8.4834 144.19C9.03612 144.19 9.30586 144.179 9.58789 144.167C9.89564 144.154 10.2162 144.141 10.833 144.141C11.4244 144.141 11.7249 144.143 12.0225 144.146C12.3148 144.148 12.6052 144.15 13.1836 144.15C13.8192 144.15 14.1545 144.173 14.4697 144.194C14.7444 144.213 14.9992 144.23 15.5332 144.23C16.1309 144.23 16.4362 144.235 16.7363 144.24C17.0261 144.245 17.311 144.25 17.8828 144.25H20.2334C20.7787 144.25 21.0384 144.235 21.3135 144.219C21.6251 144.2 21.9533 144.181 22.583 144.181C23.1552 144.181 23.4402 144.176 23.7314 144.171C24.0329 144.166 24.3407 144.16 24.9434 144.16C25.5584 144.16 25.8734 144.171 26.1787 144.182C26.4632 144.191 26.7383 144.2 27.3027 144.2C27.9371 144.2 28.2679 144.22 28.5811 144.238C28.8578 144.255 29.1176 144.271 29.6631 144.271C30.2467 144.271 30.5367 144.268 30.8291 144.266C31.1267 144.263 31.4271 144.261 32.0234 144.261H34.3828C34.8323 144.261 35.5194 144.082 36.3486 143.743C37.1406 143.419 37.7505 143.05 38.0869 142.714C38.4593 142.341 38.6247 142.153 38.8047 141.95C39.0099 141.719 39.226 141.48 39.6641 141.047C40.1116 140.605 40.367 140.389 40.5977 140.192C40.7916 140.027 40.9718 139.872 41.3291 139.511C42.1126 138.717 42.134 138.686 42.9463 137.874C43.3317 137.489 43.512 137.294 43.6992 137.093C43.9019 136.874 44.1117 136.648 44.5361 136.224C44.9085 135.851 45.0745 135.664 45.252 135.463C45.4544 135.234 45.6688 134.991 46.1064 134.554C46.5178 134.142 46.7279 133.937 46.9355 133.734C47.1378 133.537 47.3379 133.342 47.7363 132.943C48.1639 132.516 48.3952 132.303 48.6172 132.1C48.8201 131.913 49.0143 131.736 49.3965 131.354C50.2233 130.527 50.1342 130.596 50.999 129.721L51.0059 129.714H51.0068C51.9523 128.769 53.1647 128.471 54.1934 128.471C55.1565 128.471 56.4206 128.705 57.3994 129.684C57.8142 130.098 58.0202 130.311 58.2217 130.521C58.4151 130.721 58.6049 130.918 59 131.313C59.3919 131.705 59.5882 131.892 59.7871 132.08C59.9969 132.278 60.2148 132.484 60.6328 132.896C61.1071 133.365 61.3338 133.653 61.5371 133.915C61.6933 134.116 61.8235 134.287 62.1602 134.624C62.5582 135.022 62.7579 135.217 62.96 135.414C63.1677 135.617 63.3785 135.822 63.79 136.233C64.159 136.602 64.3439 136.763 64.543 136.937C64.7739 137.138 65.019 137.353 65.46 137.794C65.8714 138.205 66.0767 138.415 66.2793 138.623C66.4766 138.825 66.671 139.025 67.0693 139.424C67.4971 139.852 67.7102 140.083 67.9141 140.305C68.1003 140.508 68.278 140.702 68.6602 141.084C69.0422 141.466 69.2356 141.644 69.4385 141.83C69.6605 142.034 69.8917 142.246 70.3193 142.674C70.6777 143.032 71.3 143.438 72.0391 143.752C72.7461 144.053 73.4662 144.2 73.9834 144.2C74.5747 144.2 74.8785 144.211 75.1719 144.222C75.4434 144.231 75.7049 144.24 76.2432 144.24C76.7552 144.24 76.9959 144.223 77.2568 144.204C77.5608 144.183 77.8853 144.16 78.5029 144.16C79.081 144.16 79.3743 144.166 79.6621 144.171C79.9391 144.176 80.2112 144.181 80.7627 144.181C81.354 144.181 81.6579 144.191 81.9512 144.201C82.2228 144.211 82.4849 144.221 83.0234 144.221C83.5349 144.221 83.7755 144.203 84.0361 144.185C84.3402 144.163 84.6653 144.141 85.2832 144.141C85.7967 144.141 86.5007 143.994 87.2227 143.695C88.1155 143.326 88.7084 143.011 88.9961 142.724C88.9971 142.723 88.9989 142.722 89 142.721L89.0029 142.718C89.0038 142.717 89.0106 142.709 89.0088 142.711C89.0144 142.705 89.0101 142.711 89.0156 142.705C89.0167 142.704 89.0175 142.702 89.0186 142.701L89.0244 142.695C89.0255 142.694 89.0273 142.693 89.0283 142.692C89.0294 142.691 89.0302 142.69 89.0312 142.688L89.0342 142.686C89.0426 142.677 89.0326 142.688 89.041 142.68C89.0421 142.679 89.0429 142.677 89.0439 142.676L89.0498 142.67C89.0509 142.669 89.0527 142.668 89.0537 142.667C89.062 142.659 89.0511 142.669 89.0596 142.66C89.0651 142.655 89.0608 142.66 89.0664 142.654L89.0693 142.651C89.0704 142.65 89.0712 142.649 89.0723 142.647L89.0752 142.645C89.0762 142.643 89.078 142.643 89.0791 142.642L89.082 142.639C89.0831 142.638 89.0839 142.636 89.085 142.635L89.0908 142.629C89.0919 142.628 89.0937 142.627 89.0947 142.626C89.0958 142.625 89.0966 142.623 89.0977 142.622L89.1162 142.604C89.1173 142.602 89.1191 142.602 89.1201 142.601C89.1212 142.6 89.122 142.598 89.123 142.597L89.1289 142.591C89.13 142.59 89.1318 142.589 89.1328 142.588C89.1339 142.587 89.1347 142.585 89.1357 142.584C89.1436 142.576 89.1336 142.586 89.1416 142.578C89.1427 142.577 89.1445 142.576 89.1455 142.575L89.1484 142.572C89.1495 142.571 89.1503 142.569 89.1514 142.568L89.1543 142.565C89.1627 142.557 89.1529 142.568 89.1611 142.56C89.1667 142.554 89.1615 142.558 89.167 142.553L89.1699 142.55C89.171 142.549 89.1728 142.548 89.1738 142.547C89.1749 142.546 89.1757 142.544 89.1768 142.543L89.1826 142.537C89.1837 142.536 89.1855 142.535 89.1865 142.534C89.1876 142.533 89.1884 142.531 89.1895 142.53L89.1953 142.524C89.1964 142.523 89.1982 142.523 89.1992 142.521C89.2003 142.52 89.2011 142.519 89.2021 142.518L89.2051 142.515C89.2064 142.513 89.2131 142.508 89.2119 142.509C89.2175 142.503 89.2122 142.508 89.2178 142.502L89.2207 142.499C89.2218 142.498 89.2236 142.497 89.2246 142.496L89.2275 142.493C89.2286 142.492 89.2294 142.49 89.2305 142.489L89.2334 142.486C89.2345 142.485 89.2363 142.484 89.2373 142.483C89.2455 142.475 89.2348 142.485 89.2432 142.477L89.249 142.471C89.2501 142.47 89.2519 142.469 89.2529 142.468C89.254 142.467 89.2548 142.465 89.2559 142.464L89.2744 142.445C89.2755 142.444 89.2773 142.443 89.2783 142.442C89.2794 142.441 89.2802 142.44 89.2812 142.438L89.2871 142.433C89.2882 142.432 89.29 142.431 89.291 142.43C89.2921 142.429 89.2929 142.427 89.2939 142.426L89.2998 142.42C89.3009 142.419 89.3027 142.418 89.3037 142.417L89.3066 142.414C89.3094 142.411 89.3098 142.41 89.3125 142.407C89.3181 142.402 89.3139 142.407 89.3193 142.401C89.3204 142.4 89.3212 142.399 89.3223 142.397L89.3281 142.392C89.3292 142.391 89.331 142.39 89.332 142.389C89.3331 142.388 89.3339 142.386 89.335 142.385L89.3379 142.382C89.3463 142.373 89.3363 142.384 89.3447 142.376C89.3458 142.375 89.3466 142.373 89.3477 142.372L89.3535 142.366C89.3546 142.365 89.3564 142.364 89.3574 142.363C89.3658 142.355 89.3549 142.365 89.3633 142.356C89.3689 142.351 89.3645 142.356 89.3701 142.351C89.3712 142.35 89.372 142.348 89.373 142.347L89.3789 142.341C89.38 142.34 89.3818 142.339 89.3828 142.338L89.3857 142.335C89.3868 142.334 89.3876 142.332 89.3887 142.331L89.3916 142.328C89.3927 142.327 89.3945 142.326 89.3955 142.325L89.3984 142.322C89.3995 142.321 89.4003 142.319 89.4014 142.318L89.4199 142.3C89.421 142.299 89.4228 142.298 89.4238 142.297C89.4249 142.296 89.4257 142.294 89.4268 142.293L89.4326 142.287C89.4337 142.286 89.4355 142.285 89.4365 142.284C89.4376 142.283 89.4384 142.281 89.4395 142.28C89.4473 142.272 89.4373 142.282 89.4453 142.274C89.4464 142.273 89.4482 142.273 89.4492 142.271C89.4503 142.27 89.4511 142.269 89.4521 142.268L89.458 142.262C89.4664 142.253 89.4567 142.264 89.4648 142.256C89.4704 142.25 89.4653 142.254 89.4707 142.249C89.4718 142.248 89.4736 142.247 89.4746 142.246L89.4775 142.243C89.4786 142.242 89.4794 142.24 89.4805 142.239L89.4863 142.233C89.4874 142.232 89.4892 142.232 89.4902 142.23C89.4913 142.229 89.4921 142.228 89.4932 142.227L89.499 142.221C89.5001 142.22 89.5019 142.219 89.5029 142.218C89.504 142.217 89.5048 142.215 89.5059 142.214L89.5088 142.211C89.5116 142.208 89.5128 142.208 89.5156 142.205C89.5212 142.199 89.5159 142.204 89.5215 142.198L89.5244 142.195C89.5255 142.194 89.5273 142.193 89.5283 142.192C89.5294 142.191 89.5302 142.19 89.5312 142.188L89.5371 142.183C89.5382 142.182 89.54 142.181 89.541 142.18C89.5493 142.171 89.5385 142.181 89.5469 142.173L89.5498 142.17C89.5509 142.169 89.5527 142.168 89.5537 142.167L89.5566 142.164C89.5577 142.163 89.5585 142.161 89.5596 142.16L89.5781 142.142C89.5792 142.141 89.581 142.14 89.582 142.139C89.5831 142.138 89.5839 142.136 89.585 142.135L89.5908 142.129C89.5919 142.128 89.5937 142.127 89.5947 142.126C89.5958 142.125 89.5966 142.123 89.5977 142.122L89.6035 142.116C89.6046 142.115 89.6064 142.114 89.6074 142.113C89.6085 142.112 89.6093 142.11 89.6104 142.109L89.6162 142.104C89.6218 142.098 89.6176 142.103 89.623 142.098C89.6241 142.097 89.6249 142.095 89.626 142.094L89.6289 142.091C89.63 142.09 89.6318 142.089 89.6328 142.088L89.6357 142.085C89.6368 142.084 89.6376 142.082 89.6387 142.081L89.6416 142.078C89.65 142.07 89.6401 142.081 89.6484 142.072C89.6495 142.071 89.6503 142.069 89.6514 142.068L89.6572 142.062C89.6583 142.061 89.6601 142.061 89.6611 142.06C89.6696 142.051 89.6586 142.061 89.667 142.053C89.6726 142.047 89.6682 142.053 89.6738 142.047C89.6749 142.046 89.6757 142.044 89.6768 142.043L89.6826 142.037C89.6837 142.036 89.6855 142.035 89.6865 142.034C89.6876 142.033 89.6884 142.031 89.6895 142.03L89.6953 142.024C89.6964 142.023 89.6982 142.023 89.6992 142.021L89.7021 142.019C89.7032 142.018 89.704 142.016 89.7051 142.015L89.708 142.012C89.7091 142.011 89.7109 142.01 89.7119 142.009C89.7146 142.006 89.715 142.005 89.7178 142.002L89.7236 141.996C89.7247 141.995 89.7265 141.994 89.7275 141.993C89.7286 141.992 89.7294 141.99 89.7305 141.989L89.7363 141.983C89.7374 141.982 89.7392 141.982 89.7402 141.98C89.7413 141.979 89.7421 141.978 89.7432 141.977C89.7511 141.969 89.7411 141.979 89.749 141.971C89.7501 141.97 89.7519 141.969 89.7529 141.968C89.754 141.967 89.7548 141.965 89.7559 141.964L89.7744 141.945C89.7755 141.944 89.7773 141.943 89.7783 141.942L89.7812 141.939C89.7823 141.938 89.7831 141.937 89.7842 141.936L89.7871 141.933C89.7882 141.932 89.79 141.931 89.791 141.93L89.7939 141.927C89.795 141.926 89.7958 141.924 89.7969 141.923L89.8027 141.917C89.8038 141.916 89.8056 141.915 89.8066 141.914C89.8077 141.913 89.8085 141.911 89.8096 141.91L89.8125 141.907C89.8119 141.908 89.8136 141.907 89.8193 141.901C89.825 141.896 89.8196 141.9 89.8252 141.895L89.8281 141.892C89.8292 141.891 89.831 141.89 89.832 141.889C89.8331 141.888 89.8339 141.886 89.835 141.885L89.8408 141.879C89.8419 141.878 89.8437 141.877 89.8447 141.876C89.8531 141.868 89.8422 141.878 89.8506 141.869L89.8535 141.866C89.8546 141.865 89.8564 141.864 89.8574 141.863L89.8604 141.86C89.8614 141.859 89.8622 141.857 89.8633 141.856C89.8715 141.848 89.8617 141.859 89.8701 141.851C89.8755 141.845 89.8704 141.849 89.876 141.844L89.8818 141.838C89.8829 141.837 89.8847 141.836 89.8857 141.835C89.8868 141.834 89.8876 141.832 89.8887 141.831L89.8945 141.825C89.8956 141.824 89.8974 141.823 89.8984 141.822C89.8995 141.821 89.9003 141.819 89.9014 141.818L89.9072 141.812C89.9083 141.811 89.9101 141.811 89.9111 141.81C89.9122 141.809 89.913 141.807 89.9141 141.806L89.9326 141.787C89.9337 141.786 89.9355 141.785 89.9365 141.784L89.9395 141.781C89.9405 141.78 89.9413 141.778 89.9424 141.777L89.9453 141.774C89.9537 141.766 89.9439 141.777 89.9521 141.769C89.9532 141.768 89.954 141.766 89.9551 141.765L89.9609 141.759C89.962 141.758 89.9638 141.757 89.9648 141.756C89.9733 141.747 89.9623 141.757 89.9707 141.749C89.9763 141.743 89.9719 141.749 89.9775 141.743C89.9786 141.742 89.9794 141.74 89.9805 141.739L89.9863 141.733C89.9874 141.732 89.9892 141.732 89.9902 141.73C89.9913 141.729 89.9921 141.728 89.9932 141.727L89.999 141.721C90.0001 141.72 90.0019 141.719 90.0029 141.718C90.004 141.717 90.0048 141.715 90.0059 141.714L90.0117 141.708C90.0128 141.707 90.0146 141.706 90.0156 141.705C90.0211 141.7 90.0219 141.698 90.0215 141.698C90.0269 141.693 90.0227 141.698 90.0283 141.692L90.0312 141.689C90.0323 141.688 90.0331 141.687 90.0342 141.686L90.04 141.68C90.0411 141.679 90.0429 141.678 90.0439 141.677C90.045 141.676 90.0458 141.674 90.0469 141.673C90.0549 141.665 90.0449 141.675 90.0527 141.667C90.0538 141.666 90.0556 141.665 90.0566 141.664C90.0577 141.663 90.0585 141.661 90.0596 141.66L90.0781 141.642C90.0792 141.641 90.081 141.64 90.082 141.639C90.0831 141.638 90.0839 141.636 90.085 141.635L90.0908 141.629C90.0919 141.628 90.0937 141.627 90.0947 141.626L90.0977 141.623C90.0987 141.622 90.0995 141.62 90.1006 141.619L90.1035 141.616C90.1046 141.615 90.1064 141.614 90.1074 141.613L90.1104 141.61C90.1114 141.609 90.1122 141.607 90.1133 141.606L90.1162 141.604C90.119 141.601 90.1203 141.6 90.123 141.598C90.1287 141.592 90.1233 141.596 90.1289 141.591L90.1318 141.588C90.1329 141.587 90.1347 141.586 90.1357 141.585C90.1368 141.584 90.1376 141.582 90.1387 141.581L90.1445 141.575C90.1456 141.574 90.1474 141.573 90.1484 141.572C90.1568 141.564 90.1459 141.574 90.1543 141.565L90.1572 141.562C90.1583 141.561 90.1601 141.561 90.1611 141.56C90.1622 141.559 90.163 141.557 90.1641 141.556L90.167 141.553C90.1753 141.544 90.1654 141.555 90.1738 141.547C90.1793 141.541 90.1741 141.546 90.1797 141.54L90.1826 141.537C90.1837 141.536 90.1855 141.535 90.1865 141.534L90.1895 141.531C90.1905 141.53 90.1913 141.528 90.1924 141.527L90.1982 141.521C90.1993 141.52 90.2011 141.52 90.2021 141.519C90.2032 141.518 90.204 141.516 90.2051 141.515L90.2109 141.509C90.212 141.508 90.2138 141.507 90.2148 141.506C90.2159 141.505 90.2167 141.503 90.2178 141.502L90.2363 141.483C90.2374 141.482 90.2392 141.482 90.2402 141.48C90.2413 141.479 90.2421 141.478 90.2432 141.477L90.249 141.471C90.2574 141.462 90.2477 141.473 90.2559 141.465C90.2569 141.464 90.2577 141.462 90.2588 141.461L90.2617 141.458C90.2628 141.457 90.2646 141.456 90.2656 141.455L90.2686 141.452C90.277 141.444 90.2661 141.454 90.2744 141.445C90.28 141.44 90.2757 141.445 90.2812 141.439C90.2823 141.438 90.2831 141.437 90.2842 141.436L90.29 141.43C90.2911 141.429 90.2929 141.428 90.2939 141.427C90.295 141.426 90.2958 141.424 90.2969 141.423L90.3027 141.417C90.3038 141.416 90.3056 141.415 90.3066 141.414C90.3077 141.413 90.3085 141.411 90.3096 141.41L90.3154 141.404C90.3165 141.403 90.3183 141.402 90.3193 141.401C90.3221 141.399 90.3224 141.397 90.3252 141.395C90.3307 141.389 90.3264 141.394 90.332 141.389L90.335 141.386C90.336 141.385 90.3368 141.383 90.3379 141.382L90.3408 141.379C90.3419 141.378 90.3437 141.377 90.3447 141.376L90.3477 141.373C90.3487 141.372 90.3495 141.37 90.3506 141.369C90.3586 141.361 90.3486 141.371 90.3564 141.363C90.3575 141.362 90.3593 141.361 90.3604 141.36C90.3614 141.359 90.3622 141.357 90.3633 141.356L90.3818 141.338C90.3829 141.337 90.3847 141.336 90.3857 141.335C90.3868 141.334 90.3876 141.332 90.3887 141.331L90.3945 141.325C90.3956 141.324 90.3974 141.323 90.3984 141.322C90.3995 141.321 90.4003 141.319 90.4014 141.318L90.4072 141.312C90.4083 141.311 90.4101 141.311 90.4111 141.31L90.4141 141.307C90.4151 141.306 90.4159 141.304 90.417 141.303L90.4199 141.3C90.4203 141.299 90.4226 141.298 90.4268 141.294C90.4324 141.288 90.4271 141.293 90.4326 141.287L90.4355 141.284C90.4366 141.283 90.4384 141.282 90.4395 141.281C90.4405 141.28 90.4413 141.278 90.4424 141.277L90.4482 141.271C90.4493 141.27 90.4511 141.27 90.4521 141.269C90.4606 141.26 90.4496 141.27 90.458 141.262L90.4609 141.259C90.462 141.258 90.4638 141.257 90.4648 141.256C90.4659 141.255 90.4667 141.253 90.4678 141.252L90.4707 141.249C90.4791 141.241 90.4691 141.252 90.4775 141.243C90.4831 141.238 90.4778 141.242 90.4834 141.236L90.4863 141.233C90.4874 141.232 90.4892 141.232 90.4902 141.23L90.4932 141.228C90.4942 141.226 90.495 141.225 90.4961 141.224L90.499 141.221C90.5001 141.22 90.5019 141.219 90.5029 141.218L90.5059 141.215C90.5069 141.214 90.5077 141.212 90.5088 141.211L90.5146 141.205C90.5157 141.204 90.5175 141.203 90.5186 141.202C90.5196 141.201 90.5204 141.199 90.5215 141.198L90.54 141.18C90.5411 141.179 90.5429 141.178 90.5439 141.177C90.545 141.176 90.5458 141.174 90.5469 141.173L90.5654 141.154C90.5665 141.153 90.5683 141.152 90.5693 141.151L90.5723 141.148C90.5807 141.14 90.5699 141.15 90.5781 141.142C90.5837 141.136 90.5795 141.141 90.585 141.136C90.586 141.135 90.5868 141.133 90.5879 141.132L90.5938 141.126C90.5948 141.125 90.5966 141.124 90.5977 141.123C90.5987 141.122 90.5995 141.12 90.6006 141.119L90.6064 141.113C90.6075 141.112 90.6093 141.111 90.6104 141.11C90.6114 141.109 90.6122 141.107 90.6133 141.106L90.6162 141.104C91.0084 140.711 91.1964 140.514 91.3916 140.311C91.5971 140.096 91.8056 139.88 92.2236 139.467C92.6119 139.083 92.7962 138.889 92.9844 138.69C93.1854 138.478 93.3954 138.255 93.8164 137.834C94.2018 137.449 94.3821 137.254 94.5693 137.053C94.772 136.834 94.9818 136.608 95.4062 136.184C95.7917 135.798 95.9721 135.604 96.1621 135.4C96.3677 135.18 96.579 134.956 97.0039 134.536C97.4383 134.107 97.6779 133.895 97.9062 133.693C98.1096 133.514 98.303 133.343 98.6836 132.967C99.0706 132.585 99.2467 132.394 99.4258 132.199C99.6226 131.985 99.8319 131.753 100.259 131.321C100.706 130.869 100.961 130.648 101.205 130.44C101.308 130.353 101.406 130.27 101.523 130.164L101.964 129.746C102.702 129.01 103.784 128.341 105.083 128.341C106.271 128.341 107.432 128.856 108.27 129.693L109.883 131.297L109.89 131.304C110.304 131.718 110.509 131.932 110.711 132.141C110.904 132.341 111.095 132.538 111.49 132.934C112.317 133.76 112.247 133.672 113.112 134.526C113.932 135.336 113.947 135.361 114.737 136.161C115.176 136.606 115.39 136.856 115.588 137.087C115.757 137.284 115.914 137.468 116.28 137.834C116.633 138.186 116.811 138.332 117.01 138.495C117.255 138.697 117.522 138.917 117.979 139.374C118.372 139.766 118.569 139.954 118.774 140.15C118.99 140.357 119.209 140.568 119.627 140.991C120.051 141.421 120.261 141.649 120.461 141.865C120.645 142.065 120.825 142.258 121.21 142.644C121.548 142.982 122.15 143.359 122.918 143.673C123.74 144.009 124.41 144.181 124.863 144.181C125.468 144.181 125.782 144.197 126.081 144.213C126.347 144.227 126.598 144.24 127.123 144.24C127.655 144.24 127.912 144.229 128.181 144.217C128.477 144.204 128.785 144.19 129.383 144.19C129.928 144.19 130.195 144.183 130.47 144.176C130.76 144.168 131.059 144.16 131.644 144.16C132.195 144.16 132.467 144.155 132.744 144.15C133.032 144.145 133.325 144.141 133.903 144.141C134.514 144.141 134.833 144.16 135.135 144.179C135.398 144.195 135.644 144.21 136.163 144.21C136.608 144.21 137.282 144.035 138.104 143.689C138.876 143.365 139.474 142.986 139.816 142.644C140.254 142.206 140.496 141.992 140.726 141.789C140.926 141.612 141.114 141.446 141.486 141.073C141.845 140.714 141.996 140.534 142.16 140.338C142.358 140.101 142.574 139.842 143.02 139.391C143.468 138.936 143.73 138.716 143.972 138.513C144.17 138.346 144.348 138.196 144.699 137.841C145.064 137.472 145.225 137.285 145.403 137.079C145.608 136.843 145.826 136.594 146.267 136.153C146.688 135.732 146.909 135.525 147.123 135.323C147.324 135.135 147.518 134.952 147.906 134.563C148.347 134.123 148.595 133.907 148.828 133.703C149.03 133.527 149.218 133.363 149.587 132.994C150.399 132.182 150.401 132.179 151.224 131.366C151.578 131.016 151.72 130.842 151.878 130.648C152.077 130.404 152.296 130.134 152.757 129.674C153.737 128.694 155.011 128.463 155.95 128.45C157.047 128.435 158.194 128.787 159.11 129.666H159.111C159.53 130.065 159.74 130.26 159.952 130.457C160.17 130.66 160.39 130.865 160.821 131.276C161.233 131.669 161.441 131.857 161.654 132.052C161.879 132.257 162.105 132.465 162.538 132.883C162.968 133.297 163.183 133.511 163.393 133.72C163.595 133.921 163.796 134.12 164.211 134.516C164.777 135.055 165.341 135.599 165.9 136.146C166.338 136.563 166.557 136.781 166.77 136.993C166.972 137.195 167.169 137.394 167.581 137.786C167.974 138.16 168.172 138.327 168.387 138.51C168.629 138.716 168.882 138.932 169.339 139.373C169.796 139.814 170.02 140.057 170.229 140.284C170.414 140.484 170.589 140.672 170.981 141.046C171.387 141.432 171.592 141.614 171.807 141.806C172.038 142.012 172.274 142.224 172.718 142.652H172.719C173.148 143.066 173.758 143.496 174.417 143.755C175.21 144.067 175.942 144.23 176.434 144.23C177.037 144.23 177.338 144.228 177.639 144.226C177.945 144.223 178.252 144.221 178.863 144.221C179.425 144.221 179.696 144.205 179.985 144.188C180.309 144.17 180.65 144.15 181.303 144.15C181.95 144.15 182.284 144.167 182.604 144.183C182.894 144.197 183.17 144.21 183.743 144.21C184.341 144.21 184.636 144.205 184.935 144.2C185.243 144.195 185.556 144.19 186.173 144.19C186.803 144.19 187.127 144.201 187.443 144.211C187.74 144.221 188.028 144.23 188.613 144.23C189.15 144.23 189.397 144.206 189.672 144.179C190.006 144.146 190.37 144.11 191.053 144.11C191.712 144.11 192.056 144.133 192.381 144.154C192.666 144.173 192.932 144.19 193.493 144.19C194.079 144.19 194.364 144.181 194.659 144.171C194.974 144.161 195.299 144.15 195.934 144.15C196.568 144.15 196.892 144.161 197.207 144.171C197.502 144.181 197.788 144.19 198.373 144.19H200.813C201.362 144.19 201.618 144.168 201.898 144.146C202.228 144.118 202.582 144.091 203.253 144.091C203.943 144.091 204.311 144.129 204.648 144.165C204.921 144.194 205.163 144.221 205.693 144.221C206.223 144.221 206.465 144.194 206.738 144.165C207.075 144.129 207.443 144.091 208.133 144.091C208.749 144.091 209.059 144.093 209.366 144.096C209.669 144.098 209.969 144.101 210.573 144.101C211.214 144.101 211.543 144.114 211.86 144.127C212.153 144.139 212.434 144.15 213.013 144.15C213.598 144.15 213.884 144.141 214.179 144.131C214.494 144.121 214.819 144.11 215.453 144.11H217.894C218.571 144.11 218.929 144.142 219.262 144.172C219.539 144.197 219.791 144.221 220.333 144.221C220.912 144.221 221.193 144.208 221.487 144.196C221.806 144.183 222.138 144.17 222.783 144.17C223.386 144.17 223.682 144.165 223.981 144.16C224.291 144.155 224.606 144.15 225.233 144.15C225.695 144.15 226.379 143.983 227.157 143.652C227.897 143.338 228.48 142.949 228.815 142.596L228.819 142.591C229.608 141.765 229.672 141.677 230.496 140.824C230.949 140.355 231.202 140.123 231.441 139.905C231.652 139.713 231.85 139.535 232.236 139.135C232.611 138.747 232.77 138.548 232.946 138.331C233.155 138.073 233.381 137.796 233.846 137.314C234.317 136.826 234.594 136.59 234.846 136.375C235.052 136.198 235.241 136.038 235.609 135.651C236.035 135.205 236.253 134.983 236.468 134.763C236.678 134.548 236.886 134.335 237.3 133.901C237.69 133.493 237.865 133.286 238.054 133.065C238.265 132.818 238.486 132.561 238.937 132.095C239.375 131.641 239.607 131.416 239.832 131.198C240.042 130.996 240.245 130.801 240.646 130.385C241.075 129.941 241.297 129.718 241.513 129.501C241.721 129.291 241.929 129.082 242.34 128.651C242.745 128.227 242.935 128.015 243.132 127.797C243.34 127.565 243.554 127.327 243.989 126.871C244.391 126.45 244.581 126.238 244.778 126.017C244.99 125.78 245.208 125.538 245.646 125.084C246.106 124.608 246.366 124.376 246.607 124.16C246.815 123.974 247.009 123.8 247.39 123.401C247.774 122.999 247.942 122.794 248.126 122.574C248.337 122.321 248.559 122.057 249.016 121.584C249.853 120.716 249.835 120.727 250.689 119.831C251.532 118.949 251.534 118.947 252.387 118.064C252.845 117.59 253.097 117.359 253.337 117.141C253.547 116.949 253.745 116.77 254.137 116.364C254.45 116.039 254.804 115.42 255.128 114.597C255.438 113.808 255.593 113.104 255.593 112.61C255.593 111.973 255.609 111.643 255.625 111.327C255.639 111.041 255.653 110.768 255.653 110.2C255.653 109.645 255.636 109.385 255.617 109.105C255.596 108.785 255.573 108.445 255.573 107.79V105.381C255.573 104.782 255.571 104.487 255.568 104.189C255.566 103.887 255.563 103.582 255.563 102.971C255.563 102.353 255.568 102.043 255.573 101.739C255.578 101.446 255.583 101.158 255.583 100.57V98.1699C255.583 97.5391 255.596 97.2141 255.609 96.9014C255.621 96.6143 255.633 96.339 255.633 95.7705C255.633 95.1956 255.624 94.9152 255.614 94.624C255.604 94.3124 255.593 93.99 255.593 93.3604C255.593 92.7043 255.618 92.3597 255.643 92.0361C255.663 91.7581 255.684 91.4995 255.684 90.9502C255.684 90.3766 255.671 90.1013 255.659 89.8145C255.646 89.5014 255.633 89.1761 255.633 88.54V83.7207C255.633 83.1147 255.635 82.8095 255.638 82.5059C255.64 82.2072 255.644 81.9093 255.644 81.3105C255.644 80.7179 255.639 80.425 255.634 80.1289C255.629 79.8227 255.623 79.5128 255.623 78.9004C255.623 78.2631 255.64 77.9334 255.655 77.6172C255.67 77.3315 255.684 77.0581 255.684 76.4902C255.684 75.9596 255.658 75.7159 255.631 75.4453C255.598 75.1145 255.563 74.7549 255.563 74.0801C255.563 73.4492 255.577 73.1242 255.59 72.8105C255.602 72.5223 255.613 72.2439 255.613 71.6699C255.613 71.0531 255.618 70.7408 255.623 70.4346C255.628 70.1384 255.633 69.848 255.633 69.2607C255.633 68.6793 255.625 68.3907 255.618 68.0957C255.611 67.7859 255.604 67.4687 255.604 66.8506V64.4404C255.604 63.8046 255.617 63.4799 255.63 63.167C255.642 62.88 255.653 62.6043 255.653 62.0303C255.653 61.4377 255.648 61.1447 255.644 60.8486C255.638 60.5425 255.633 60.2323 255.633 59.6201C255.633 59.0451 255.624 58.7622 255.614 58.4697C255.604 58.1573 255.593 57.8347 255.593 57.21C255.593 56.5684 255.609 56.2365 255.625 55.9199C255.639 55.6337 255.653 55.3631 255.653 54.8008C255.653 54.2567 255.633 53.9978 255.612 53.7158C255.588 53.3896 255.563 53.0408 255.563 52.3809V49.96C255.563 49.411 255.431 48.6928 255.146 47.9951C254.862 47.3025 254.45 46.7009 254.066 46.3174C253.595 45.8458 253.366 45.573 253.154 45.3203C252.976 45.1081 252.815 44.9155 252.437 44.5371C252.055 44.1558 251.863 43.9929 251.653 43.8164C251.406 43.6077 251.136 43.3819 250.663 42.9141C250.193 42.4491 249.964 42.1871 249.75 41.9385C249.566 41.7257 249.401 41.5318 249.017 41.1475C248.635 40.7662 248.443 40.6032 248.233 40.4268C247.986 40.218 247.717 39.9914 247.243 39.5234C246.785 39.0708 246.561 38.8247 246.346 38.5869C246.153 38.3735 245.973 38.1743 245.576 37.7773C245.129 37.3306 244.908 37.09 244.694 36.8584C244.498 36.6451 244.309 36.4403 243.906 36.0371C243.531 35.662 243.341 35.5051 243.129 35.3291C242.873 35.1168 242.595 34.8863 242.116 34.4072C241.214 33.5045 241.299 33.5702 240.423 32.7041C239.965 32.2514 239.74 32.0053 239.524 31.7666C239.33 31.5522 239.148 31.3496 238.746 30.9473C238.344 30.5451 238.142 30.3643 237.933 30.1768C237.755 30.0182 237.572 29.8505 237.294 29.583L237.267 29.6875L235.257 27.6768C234.816 27.2364 234.222 26.7914 233.603 26.5352C232.868 26.2313 232.116 26.0703 231.623 26.0703C231.084 26.0703 230.829 26.0878 230.553 26.1064C230.236 26.1279 229.898 26.1504 229.253 26.1504C228.683 26.1504 228.406 26.1603 228.12 26.1699C227.814 26.1803 227.498 26.1904 226.883 26.1904C226.217 26.1904 225.86 26.1551 225.532 26.1221C225.265 26.0951 225.027 26.0703 224.513 26.0703C223.986 26.0703 223.742 26.0914 223.471 26.1143C223.148 26.1415 222.801 26.1699 222.144 26.1699C221.561 26.1699 221.273 26.1748 220.982 26.1797C220.681 26.1848 220.376 26.1904 219.773 26.1904C219.177 26.1904 218.874 26.1881 218.574 26.1855C218.279 26.1831 217.987 26.1807 217.403 26.1807C216.775 26.1807 216.447 26.1642 216.135 26.1484C215.853 26.1342 215.585 26.1201 215.033 26.1201C214.424 26.1201 214.112 26.1122 213.807 26.1045C213.517 26.0972 213.234 26.0908 212.663 26.0908C212.067 26.0908 211.764 26.0875 211.464 26.085C211.169 26.0825 210.876 26.0801 210.293 26.0801C209.76 26.0801 209.507 26.1003 209.232 26.1211C208.912 26.1453 208.57 26.1699 207.923 26.1699C207.295 26.1699 206.968 26.1544 206.655 26.1387C206.373 26.1244 206.105 26.1104 205.553 26.1104C204.944 26.1103 204.631 26.1024 204.326 26.0947C204.036 26.0874 203.754 26.0801 203.184 26.0801C202.644 26.0801 202.386 26.0976 202.108 26.1162C201.791 26.1376 201.454 26.1601 200.813 26.1602C200.173 26.1602 199.837 26.1376 199.521 26.1162C199.245 26.0976 198.988 26.0801 198.443 26.0801C197.892 26.0801 197.629 26.0959 197.352 26.1123C197.038 26.1309 196.708 26.1504 196.073 26.1504H193.693C193.111 26.1504 192.823 26.1552 192.531 26.1602C192.229 26.1652 191.921 26.1699 191.313 26.1699H188.934C188.295 26.1699 187.962 26.1514 187.646 26.1328C187.367 26.1164 187.104 26.1006 186.553 26.1006C186.015 26.1006 185.762 26.1199 185.487 26.1406C185.167 26.1649 184.824 26.1904 184.173 26.1904C183.556 26.1905 182.827 26.2962 182.188 26.5576C181.567 26.8114 180.985 27.252 180.54 27.6973C180.098 28.1396 179.853 28.3571 179.617 28.5645C179.41 28.7472 179.216 28.9159 178.833 29.2939C178.46 29.6624 178.302 29.8469 178.132 30.0449C177.93 30.2802 177.712 30.5354 177.26 30.9873C176.824 31.4231 176.587 31.6381 176.356 31.8457C176.148 32.0333 175.952 32.2093 175.562 32.5938C174.716 33.4302 174.737 33.3993 173.92 34.2168C173.536 34.601 173.36 34.7951 173.175 34.999C172.97 35.225 172.755 35.4618 172.319 35.8975C171.861 36.3554 171.596 36.5783 171.35 36.7832C171.146 36.9532 170.961 37.1051 170.6 37.4668C170.222 37.8445 170.054 38.0358 169.874 38.2393C169.669 38.4707 169.452 38.715 169.01 39.1572C168.244 39.9227 168.176 40.011 167.362 40.8145C166.944 41.2274 166.734 41.4329 166.525 41.6367C166.319 41.8378 166.115 42.0378 165.703 42.4443C165.317 42.8256 165.144 43.0157 164.965 43.2148C164.763 43.4392 164.548 43.6782 164.109 44.1172C163.661 44.5657 163.408 44.7849 163.171 44.9902C162.967 45.1665 162.776 45.3303 162.399 45.707C161.994 46.1126 161.799 46.3157 161.598 46.5234C161.39 46.7379 161.179 46.9513 160.759 47.3662L160.76 47.3672C160.379 47.7481 160.205 47.9413 160.021 48.1465C159.816 48.3762 159.599 48.6179 159.16 49.0566C158.485 49.7316 157.259 50.5445 155.907 49.9717C154.569 49.4045 154.283 47.9726 154.283 47.0205V42.3906C154.283 41.8174 154.281 41.5323 154.278 41.2451C154.276 40.9525 154.273 40.6568 154.273 40.0703V37.75C154.273 37.1316 154.29 36.8108 154.306 36.5059C154.32 36.2328 154.333 35.9762 154.333 35.4404C154.333 34.8798 154.326 34.6048 154.318 34.3242C154.311 34.0278 154.303 33.7249 154.303 33.1309C154.303 32.5234 154.317 32.2073 154.33 31.9033C154.342 31.6253 154.354 31.3583 154.354 30.8105C154.354 30.2629 154.342 29.9984 154.33 29.7217C154.317 29.4184 154.303 29.1025 154.303 28.4902C154.303 27.9297 154.296 27.6551 154.289 27.373C154.281 27.0751 154.273 26.7693 154.273 26.1699C154.273 25.5322 154.299 25.1963 154.323 24.8828C154.344 24.6165 154.363 24.3724 154.363 23.8506C154.363 23.303 154.352 23.0384 154.34 22.7617C154.327 22.4585 154.313 22.1425 154.313 21.5303C154.313 21.0017 154.17 20.2739 153.876 19.5547C153.553 18.7656 153.174 18.145 152.847 17.8174C152.484 17.455 152.303 17.3006 152.104 17.1318C151.868 16.9307 151.614 16.7151 151.166 16.2676C150.722 15.8235 150.506 15.5725 150.304 15.3379C150.131 15.1375 149.972 14.9528 149.606 14.5869C149.195 14.1755 148.99 13.9655 148.787 13.7578C148.59 13.5555 148.395 13.3555 147.996 12.957C147.618 12.5785 147.427 12.4058 147.226 12.2236C147.002 12.021 146.768 11.8079 146.337 11.377C145.964 11.0045 145.776 10.8383 145.573 10.6582C145.342 10.453 145.102 10.2378 144.669 9.7998C144.279 9.40483 144.082 9.21202 143.88 9.01465C143.67 8.80944 143.454 8.59942 143.039 8.17969V8.17871C142.613 7.7526 142.402 7.52022 142.2 7.29785C142.018 7.09671 141.845 6.9059 141.467 6.52734C140.659 5.71974 140.661 5.7217 139.844 4.91406L139.836 4.90723V4.90625C139.45 4.52041 138.837 4.09923 138.148 3.81738C137.441 3.52808 136.713 3.39062 136.173 3.39062C135.583 3.39063 135.297 3.40208 135.001 3.41406C134.68 3.42706 134.348 3.44043 133.703 3.44043C133.064 3.44043 132.737 3.43023 132.419 3.41992C132.12 3.41025 131.829 3.40039 131.233 3.40039C130.583 3.40039 130.251 3.38704 129.931 3.37402C129.636 3.36204 129.352 3.35059 128.763 3.35059C128.191 3.35059 127.919 3.36803 127.631 3.38672C127.303 3.40798 126.957 3.43066 126.293 3.43066C125.611 3.43066 125.249 3.39899 124.912 3.36914C124.629 3.34399 124.371 3.32032 123.823 3.32031C123.226 3.32031 122.931 3.32764 122.628 3.33496C122.311 3.34264 121.986 3.35058 121.354 3.35059C120.793 3.35059 120.526 3.36968 120.236 3.39062C119.903 3.41472 119.547 3.44043 118.873 3.44043H116.394C115.87 3.44043 115.162 3.58152 114.438 3.87793C113.61 4.21662 113.017 4.56421 112.71 4.87695L111.05 6.53711C110.675 6.91153 110.509 7.10192 110.33 7.30664C110.124 7.54178 109.905 7.79195 109.46 8.2373C109.015 8.68252 108.765 8.9004 108.533 9.10449C108.332 9.28209 108.142 9.45057 107.767 9.83008C107.385 10.216 107.214 10.4098 107.03 10.6162C106.824 10.8481 106.609 11.0883 106.17 11.5273C105.721 11.9758 105.469 12.1936 105.235 12.3965C105.035 12.5702 104.848 12.7341 104.477 13.1104C104.073 13.5187 103.876 13.7234 103.676 13.9307C103.471 14.1433 103.263 14.3588 102.847 14.7803C102.449 15.1824 102.259 15.3849 102.062 15.5938C101.854 15.8133 101.643 16.0341 101.22 16.457C100.794 16.8831 100.568 17.0955 100.349 17.3018C100.143 17.4954 99.9436 17.6833 99.5498 18.0771C99.1557 18.4712 98.9675 18.6709 98.7695 18.8799C98.5592 19.1019 98.3439 19.3282 97.9131 19.7539C97.4789 20.1829 97.2483 20.3953 97.0293 20.5977C96.8267 20.7849 96.6307 20.9669 96.2402 21.3574C95.8399 21.7578 95.6444 21.9596 95.4443 22.167C95.2367 22.3823 95.0241 22.6028 94.5996 23.0273C94.2071 23.4198 94.0264 23.616 93.8379 23.8213C93.6315 24.046 93.4169 24.2794 92.9795 24.7168C92.5678 25.1285 92.3657 25.3339 92.1621 25.54C91.9558 25.7488 91.7481 25.9589 91.3301 26.377C90.5589 27.1481 89.481 27.7288 88.5225 28.1318C87.4379 28.5878 86.2803 28.8008 85.2832 28.8008C84.7645 28.8008 84.5184 28.8157 84.2549 28.832C83.9536 28.8507 83.6344 28.8701 83.0234 28.8701C82.4783 28.8701 82.2109 28.8775 81.9365 28.8848C81.646 28.8925 81.3473 28.9004 80.7627 28.9004C80.1913 28.9004 79.9033 28.898 79.6182 28.8955C79.3385 28.893 79.0611 28.8906 78.5029 28.8906C77.8785 28.8906 77.5489 28.8643 77.2422 28.8398C76.9839 28.8193 76.7486 28.8008 76.2432 28.8008C75.7378 28.8008 75.5024 28.8193 75.2441 28.8398C74.9375 28.8643 74.6078 28.8906 73.9834 28.8906C72.9347 28.8906 71.7537 28.6053 70.7275 28.1689C69.6623 27.7159 68.6854 27.036 67.9863 26.3369C67.6052 25.9558 67.4116 25.7819 67.2031 25.5938C66.9703 25.3836 66.7277 25.1637 66.2891 24.7197C65.8572 24.2826 65.6454 24.0495 65.4434 23.8281C65.2589 23.626 65.0791 23.4297 64.6865 23.0371C64.2587 22.6093 64.0491 22.3884 63.8438 22.1729C63.6491 21.9685 63.4587 21.7693 63.0566 21.3672C62.6736 20.9841 62.4822 20.8152 62.2773 20.6328C62.0438 20.425 61.8014 20.2072 61.3594 19.7598C60.9719 19.3676 60.7779 19.1874 60.5752 18.999C60.353 18.7925 60.1218 18.5772 59.6895 18.1396C59.2415 17.6862 59.0227 17.4317 58.8184 17.1924C58.6427 16.9867 58.4812 16.7963 58.1094 16.4199C57.2732 15.5735 57.3406 15.6609 56.4668 14.7871C56.0662 14.3865 55.8635 14.1913 55.6543 13.9883C55.4374 13.7779 55.2193 13.5643 54.7998 13.1396C54.3772 12.7119 54.1669 12.4893 53.9619 12.2715C53.767 12.0644 53.5769 11.862 53.1797 11.46C52.7761 11.0514 52.573 10.8518 52.3682 10.6494C52.158 10.4418 51.9456 10.231 51.5293 9.80957C51.1706 9.4465 50.9897 9.29717 50.7891 9.13086C50.5431 8.92704 50.2724 8.70301 49.8066 8.2373C49.251 7.68171 48.6984 7.126 48.1494 6.57031V6.56934C47.7207 6.14041 47.5073 5.91189 47.3037 5.69434C47.114 5.49159 46.9288 5.29513 46.5332 4.9043L46.5264 4.89746C46.1285 4.49964 45.5182 4.06896 44.834 3.78125C44.1497 3.49355 43.4164 3.36037 42.8633 3.36035C42.2071 3.36035 41.8679 3.34386 41.5439 3.32812C41.25 3.31385 40.9715 3.30079 40.3936 3.30078C39.8516 3.30078 39.6012 3.32534 39.3213 3.35254C38.9827 3.38544 38.6151 3.41992 37.9229 3.41992C37.2546 3.41992 36.9087 3.39826 36.5811 3.37695C36.2938 3.35827 36.0247 3.34082 35.4531 3.34082H32.9834C32.3866 3.34082 32.0908 3.34717 31.7881 3.35449C31.4707 3.36217 31.1459 3.37012 30.5127 3.37012C29.8798 3.37011 29.5555 3.36217 29.2383 3.35449C28.9356 3.34717 28.6398 3.34082 28.043 3.34082C27.4768 3.34082 27.2052 3.35818 26.9131 3.37695C26.5823 3.39821 26.2313 3.41991 25.5635 3.41992C24.9317 3.41992 24.6117 3.41524 24.2969 3.41016C23.9918 3.40524 23.6909 3.40039 23.083 3.40039C22.4923 3.40041 21.7574 3.51721 21.0977 3.78711C20.4697 4.04401 19.8847 4.48089 19.4297 4.92773L19.4287 4.92676C19.0241 5.33133 18.8163 5.53541 18.6104 5.73633C18.4081 5.93367 18.208 6.12887 17.8096 6.52734C16.9831 7.3538 17.0715 7.284 16.2168 8.14941C15.7939 8.57759 15.5646 8.79147 15.3408 8.99805C15.1362 9.1869 14.9418 9.36483 14.5596 9.74707C14.122 10.1846 13.8795 10.3991 13.6504 10.6016C13.4496 10.779 13.2619 10.9451 12.8896 11.3174C12.5175 11.6895 12.3522 11.8774 12.1748 12.0781C11.9723 12.3073 11.757 12.5497 11.3193 12.9873C10.9408 13.3659 10.7681 13.5567 10.5859 13.7578C10.3833 13.9815 10.1714 14.2163 9.74023 14.6475C9.27647 15.1112 8.99942 15.333 8.74414 15.5361C8.54115 15.6976 8.36409 15.8375 8.0127 16.1846C7.65845 16.5345 7.51555 16.7097 7.35352 16.9072C7.15169 17.1533 6.92922 17.4206 6.46875 17.876L6.46973 17.877C6.08623 18.2605 5.67403 18.8621 5.39062 19.5547C5.08497 20.3019 4.93262 21.0157 4.93262 21.5205V23.9004Z" fill="#1E1E1E"/>
<path d="M200.434 138.779L192.264 130.609L195.104 127.769L203.724 132.849L204.074 132.499L198.994 123.879L201.834 121.039L210.004 129.209L208.594 130.619L201.744 123.769L201.394 124.119L206.504 132.719L203.964 135.259L195.364 130.149L195.014 130.499L201.864 137.349L200.454 138.759L200.434 138.779Z" fill="#1E1E1E"/>
<path d="M213.194 126.019H209.764L206.984 123.259V119.829L210.034 116.789H213.464L216.244 119.549V122.979L213.194 126.019ZM212.394 124.039L214.254 122.179V120.389L212.634 118.769L210.824 118.799L208.984 120.639V122.419L210.604 124.039H212.384H212.394Z" fill="#1E1E1E"/>
<path d="M220.494 119.091L218.684 119.941L217.844 118.211L211.254 111.621L212.664 110.211L215.424 112.971L215.794 111.031L218.194 108.631L221.394 108.721L224.194 111.521L224.334 114.871L221.764 117.441L219.744 117.681L220.474 119.091H220.494ZM220.944 115.491L222.294 114.141L222.224 112.381L220.574 110.731L218.944 110.681L217.674 111.951L217.134 114.681L218.274 115.821L220.934 115.491H220.944Z" fill="#1E1E1E"/>
<path d="M219.114 104.101C218.554 103.541 218.544 102.611 219.094 102.051C219.644 101.491 220.574 101.501 221.144 102.071C221.714 102.641 221.714 103.561 221.164 104.121C220.614 104.681 219.684 104.661 219.114 104.101ZM227.424 111.791L221.234 105.601L222.644 104.191L228.834 110.381L227.424 111.791Z" fill="#1E1E1E"/>
<path d="M231.834 107.389L229.294 107.309L222.434 100.449L223.844 99.0391L230.164 105.359L231.054 105.379L232.564 103.869L233.954 105.259L231.824 107.389H231.834Z" fill="#1E1E1E"/>
<path d="M226.893 96.3193C226.333 95.7593 226.323 94.8293 226.873 94.2693C227.423 93.7093 228.353 93.7193 228.923 94.2893C229.493 94.8593 229.493 95.7793 228.943 96.3393C228.393 96.8993 227.463 96.8793 226.893 96.3193ZM235.203 104.019L229.013 97.8293L230.423 96.4193L236.613 102.609L235.203 104.019Z" fill="#1E1E1E"/>
<path d="M240.664 98.5492L238.124 98.4692L234.624 94.9692L232.734 96.8592L231.354 95.4792L232.884 93.9492L231.444 91.8792L233.064 90.6992L234.324 92.5192L236.894 89.9492L238.274 91.3292L236.034 93.5692L238.994 96.5292L239.884 96.5492L241.524 94.9092L242.914 96.2992L240.654 98.5592L240.664 98.5492Z" fill="#1E1E1E"/>
<path d="M245.965 97.5801L244.575 96.1901L246.755 94.0101L246.465 92.7601L245.605 93.6201L237.725 89.7001L238.585 87.9001L245.255 91.2001L245.605 90.85L242.295 84.1901L244.115 83.3301L248.095 91.3901L248.905 94.6501L245.955 97.6L245.965 97.5801Z" fill="#1E1E1E"/>
</svg>
