<svg width="120" height="151" viewBox="0 0 120 151" fill="none" xmlns="http://www.w3.org/2000/svg">
<path d="M3.83215 97.3309C3.83215 96.5509 4.07216 95.8209 4.59216 95.3109C5.11216 94.8009 5.83218 94.5509 6.61218 94.5509C7.81218 94.5509 7.8122 94.5509 9.0022 94.5509C10.1922 94.5509 10.2021 94.5009 11.3921 94.5009C12.5821 94.5009 12.5921 94.5509 13.7821 94.5509C14.9721 94.5509 14.9821 94.5209 16.1721 94.5209C17.3621 94.5209 17.3721 94.5509 18.5621 94.5509C19.7521 94.5509 19.7521 94.4209 20.9521 94.4209C22.1521 94.4209 22.1522 94.5309 23.3422 94.5309C24.5322 94.5309 24.5422 94.5108 25.7322 94.5108C26.9222 94.5108 26.9322 94.4409 28.1322 94.4409C29.3322 94.4409 29.3321 94.5509 30.5321 94.5509C31.7321 94.5509 31.7321 94.4309 32.9321 94.4309C34.1321 94.4309 34.1322 94.5209 35.3322 94.5209C36.8922 94.5209 37.2422 93.6009 36.1022 92.5509C35.2122 91.7309 35.2021 91.7409 34.3221 90.9209C33.4421 90.1009 33.3922 90.1509 32.5022 89.3309C31.6122 88.5109 31.6921 88.4209 30.8021 87.6009C29.9121 86.7809 29.8221 86.8809 28.9321 86.0609C28.0421 85.2409 28.0621 85.2209 27.1721 84.4009C26.2821 83.5809 26.3321 83.5209 25.4421 82.7009C24.5521 81.8809 24.4922 81.9409 23.6022 81.1309C22.7122 80.3209 22.7422 80.2809 21.8522 79.4609C20.9622 78.6409 20.9822 78.6209 20.0922 77.8009C19.2022 76.9809 19.2021 76.9809 18.3121 76.1609C17.4221 75.3409 17.3922 75.3709 16.5022 74.5509C15.6122 73.7309 15.6521 73.6909 14.7621 72.8709C13.8721 72.0509 13.8221 72.1009 12.9321 71.2809C12.0421 70.4609 12.0621 70.4309 11.1721 69.6109C10.2821 68.7909 10.2921 68.7809 9.39209 67.9609C8.49209 67.1409 8.53209 67.1009 7.64209 66.2809C6.75209 65.4609 6.72214 65.4909 5.82214 64.6709C5.25214 64.1409 4.68212 63.3709 4.30212 62.5109C3.92212 61.6509 3.7821 60.7109 3.7821 59.9309C3.7821 58.7609 3.7821 58.7609 3.7821 57.5809C3.7821 56.4009 3.76208 56.4109 3.76208 55.2309C3.76208 54.0609 3.69214 54.0609 3.69214 52.8809C3.69214 51.7009 3.77209 51.7109 3.77209 50.5309C3.77209 49.3509 3.73218 49.3609 3.73218 48.1809C3.73218 47.0009 3.73218 47.0109 3.73218 45.8309C3.73218 44.6609 3.68213 44.6609 3.68213 43.4809C3.68213 42.3009 3.66211 42.3009 3.66211 41.1309C3.66211 39.9609 3.72217 39.9509 3.72217 38.7809C3.72217 37.6109 3.70215 37.6009 3.70215 36.4309C3.70215 35.2609 3.72217 35.2509 3.72217 34.0709C3.72217 32.8909 3.69214 32.8909 3.69214 31.7109C3.69214 30.9309 4.00218 30.0209 4.36218 29.1409C4.72218 28.2609 5.15215 27.4109 5.70215 26.8609C6.52215 26.0409 6.5622 26.0709 7.3822 25.2509C8.2022 24.4309 8.17219 24.3909 8.99219 23.5709C9.81219 22.7509 9.82209 22.7509 10.6421 21.9309C11.4621 21.1109 11.4821 21.1209 12.3021 20.3009C13.1221 19.4809 13.0921 19.4509 13.9221 18.6309C14.7521 17.8109 14.8022 17.8609 15.6222 17.0409C16.4422 16.2209 16.3922 16.1709 17.2122 15.3409C18.0322 14.5109 18.0821 14.5609 18.9021 13.7409C19.7221 12.9209 19.6422 12.8309 20.4722 12.0109C21.3022 11.1909 21.3022 11.1909 22.1222 10.3709C22.9422 9.55086 22.9621 9.56086 23.7921 8.74086C24.6221 7.92086 24.6821 7.98086 25.5121 7.15086C26.3421 6.32086 26.2922 6.28086 27.1222 5.46086C27.6722 4.91086 28.4722 4.37085 29.3522 4.00085C30.2322 3.63085 31.1822 3.48087 31.9622 3.48087C33.1522 3.48087 33.1522 3.42087 34.3322 3.42087C35.5122 3.42087 35.5121 3.45087 36.7021 3.45087C37.8921 3.45087 37.8821 3.43086 39.0721 3.43086C40.2621 3.43086 40.2521 3.39085 41.4421 3.39085C42.6321 3.39085 42.6321 3.43086 43.8121 3.43086C44.9921 3.43086 45.0021 3.41086 46.1821 3.41086C47.3621 3.41086 47.3621 3.41086 48.5521 3.41086C49.7421 3.41086 49.7421 3.49086 50.9221 3.49086C52.1021 3.49086 52.1121 3.43086 53.2921 3.43086C54.4721 3.43086 54.4821 3.38086 55.6621 3.38086C56.8421 3.38086 56.8521 3.51086 58.0321 3.51086C59.2121 3.51086 59.2221 3.44086 60.4021 3.44086C61.5821 3.44086 61.5921 3.42087 62.7821 3.42087C63.9721 3.42087 63.9721 3.38086 65.1521 3.38086C66.3321 3.38086 66.3421 3.46086 67.5221 3.46086C68.7021 3.46086 68.7121 3.43086 69.9021 3.43086C71.0921 3.43086 71.0921 3.39085 72.2721 3.39085C73.4521 3.39085 73.4621 3.49086 74.6421 3.49086C75.8221 3.49086 75.8321 3.41086 77.0221 3.41086C78.2121 3.41086 78.2121 3.40086 79.4021 3.40086C80.5921 3.40086 80.5921 3.40086 81.7821 3.40086C82.9721 3.40086 82.9721 3.45087 84.1621 3.45087C85.3521 3.45087 85.3521 3.47086 86.5421 3.47086C87.3221 3.47086 88.2721 3.60086 89.1521 3.96086C90.0321 4.32086 90.8821 4.82086 91.4321 5.37086C92.3121 6.25086 92.2522 6.30087 93.1322 7.17087C94.0022 8.04087 93.9722 8.07087 94.8522 8.95087C95.7322 9.83087 95.8121 9.74086 96.6821 10.6209C97.5521 11.5009 97.5421 11.5109 98.4221 12.3809C99.3021 13.2509 99.3021 13.2409 100.172 14.1209C101.042 15.0009 100.962 15.0809 101.842 15.9509C102.722 16.8209 102.742 16.8009 103.612 17.6809C104.482 18.5609 104.552 18.4909 105.422 19.3709C106.292 20.2509 106.202 20.3409 107.082 21.2209C107.962 22.1009 108.032 22.0209 108.912 22.8909C109.792 23.7609 109.802 23.7609 110.682 24.6309C111.562 25.5009 111.562 25.5109 112.442 26.3909C113.322 27.2709 113.232 27.3509 114.112 28.2309C114.662 28.7809 115.202 29.5609 115.572 30.4409C115.942 31.3209 116.232 32.2509 116.232 33.0309C116.232 34.3009 116.122 34.3009 116.122 35.5709C116.122 36.8409 116.092 36.8409 116.092 38.1209C116.092 39.4009 116.092 39.3909 116.092 40.6709C116.092 41.9509 116.172 41.9409 116.172 43.2209C116.172 44.5009 116.172 44.4909 116.172 45.7709C116.172 47.0509 116.202 47.0509 116.202 48.3209C116.202 49.6009 116.112 49.6009 116.112 50.8709C116.112 51.6509 115.922 52.5809 115.552 53.4609C115.182 54.3409 114.672 55.1309 114.122 55.6909C113.292 56.5309 113.282 56.5209 112.452 57.3609C111.622 58.2009 111.632 58.2009 110.792 59.0409C109.962 59.8809 110.012 59.9309 109.172 60.7609C108.332 61.5909 108.332 61.6009 107.502 62.4309C106.672 63.2609 106.702 63.3009 105.862 64.1309C105.022 64.9609 105.002 64.9409 104.172 65.7809C103.342 66.6209 103.272 66.5609 102.432 67.4009C101.592 68.2409 101.662 68.3109 100.832 69.1509C100.282 69.7009 99.9521 70.4109 99.9321 71.1709C99.9121 71.9309 100.152 72.6809 100.672 73.2709C101.422 74.1309 101.372 74.1809 102.132 75.0409C102.892 75.9009 102.892 75.9009 103.652 76.7709C104.412 77.6409 104.412 77.6309 105.162 78.5009C105.912 79.3709 105.942 79.3409 106.702 80.2109C107.462 81.0809 107.492 81.0509 108.252 81.9109C109.012 82.7709 109.042 82.7409 109.802 83.6109C110.562 84.4809 110.462 84.5709 111.212 85.4309C111.962 86.2909 111.972 86.3008 112.732 87.1709C113.492 88.0409 113.512 88.0209 114.272 88.8909C114.782 89.4809 115.242 90.3209 115.582 91.2209C115.922 92.1209 116.192 93.0509 116.192 93.8309C116.192 94.9909 116.232 94.9909 116.232 96.1509C116.232 97.3109 116.132 97.3109 116.132 98.4709C116.132 99.6309 116.202 99.6308 116.202 100.791C116.202 101.951 116.132 101.951 116.132 103.111C116.132 104.271 116.112 104.271 116.112 105.431C116.112 106.591 116.152 106.591 116.152 107.751C116.152 108.911 116.242 108.911 116.242 110.071C116.242 111.231 116.142 111.231 116.142 112.391C116.142 113.551 116.162 113.551 116.162 114.711C116.162 115.871 116.102 115.871 116.102 117.031C116.102 118.191 116.172 118.191 116.172 119.351C116.172 120.511 116.102 120.511 116.102 121.681C116.102 122.841 116.112 122.841 116.112 124.011C116.112 124.791 115.952 125.731 115.572 126.591C115.192 127.451 114.642 128.241 114.072 128.771C113.172 129.601 113.202 129.641 112.302 130.481C111.402 131.321 111.412 131.331 110.512 132.161C109.612 132.991 109.602 132.991 108.692 133.821C107.782 134.651 107.792 134.661 106.892 135.491C105.992 136.321 105.932 136.261 105.022 137.101C104.112 137.941 104.152 137.971 103.242 138.811C102.332 139.651 102.362 139.671 101.452 140.501C100.542 141.331 100.502 141.291 99.6022 142.131C98.7022 142.971 98.6921 142.961 97.7821 143.801C96.8721 144.641 96.8822 144.651 95.9722 145.481C95.4022 146.011 94.5321 146.441 93.6421 146.791C92.7521 147.141 91.8221 147.341 91.0421 147.341C89.8621 147.341 89.8621 147.461 88.6821 147.461C87.5021 147.461 87.5021 147.371 86.3221 147.371C85.1421 147.371 85.1422 147.461 83.9622 147.461C82.7822 147.461 82.7822 147.361 81.6022 147.361C80.4222 147.361 80.4222 147.421 79.2422 147.421C78.0622 147.421 78.0622 147.401 76.8822 147.401C75.7022 147.401 75.7021 147.401 74.5221 147.401C73.3421 147.401 73.3421 147.391 72.1621 147.391C70.9821 147.391 70.9821 147.331 69.8121 147.331C68.6421 147.331 68.6321 147.401 67.4521 147.401C66.2721 147.401 66.2722 147.341 65.0922 147.341C63.9122 147.341 63.9122 147.441 62.7322 147.441C61.5522 147.441 61.5522 147.351 60.3722 147.351C59.1922 147.351 59.1921 147.341 58.0121 147.341C56.8321 147.341 56.8321 147.461 55.6521 147.461C54.4721 147.461 54.4721 147.431 53.2921 147.431C52.1121 147.431 52.1121 147.341 50.9321 147.341C49.7521 147.341 49.7521 147.431 48.5721 147.431C47.3921 147.431 47.3922 147.431 46.2122 147.431C45.0322 147.431 45.0322 147.431 43.8522 147.431C42.6722 147.431 42.6722 147.331 41.4922 147.331C40.3122 147.331 40.3122 147.431 39.1322 147.431C37.9522 147.431 37.9521 147.321 36.7721 147.321C35.5921 147.321 35.5921 147.321 34.4121 147.321C33.2321 147.321 33.2321 147.321 32.0521 147.321C30.8721 147.321 30.8721 147.311 29.6921 147.311C28.5121 147.311 28.5121 147.391 27.3221 147.391C26.1321 147.391 26.1421 147.411 24.9521 147.411C23.7621 147.411 23.7722 147.401 22.5822 147.401C21.8022 147.401 20.8522 147.191 19.9822 146.821C19.1122 146.451 18.3622 145.851 17.8322 145.281C16.9722 144.371 16.9021 144.431 16.0321 143.521C15.1621 142.611 15.1821 142.601 14.3121 141.681C13.4521 140.761 13.5221 140.691 12.6521 139.781C11.7821 138.871 11.7921 138.861 10.9221 137.951C10.0521 137.041 9.99219 137.091 9.12219 136.181C8.25219 135.271 8.30213 135.221 7.43213 134.301C6.56213 133.381 6.53211 133.411 5.66211 132.491C5.13211 131.921 4.6022 131.101 4.2522 130.211C3.9022 129.321 3.77209 128.361 3.77209 127.581C3.77209 126.411 3.80212 126.411 3.80212 125.251C3.80212 124.091 3.73218 124.081 3.73218 122.921C3.73218 121.751 3.7522 121.751 3.7522 120.591C3.7522 119.421 3.76208 119.421 3.76208 118.261C3.76208 117.091 3.67212 117.091 3.67212 115.931C3.67212 114.761 3.74219 114.761 3.74219 113.601C3.74219 112.441 3.76208 112.431 3.76208 111.271C3.76208 110.111 3.7821 110.101 3.7821 108.941C3.7821 107.781 3.76208 107.771 3.76208 106.601C3.76208 105.431 3.68213 105.431 3.68213 104.261C3.68213 103.091 3.80212 103.091 3.80212 101.921C3.80212 100.751 3.74208 100.751 3.76208 99.5809C3.78208 98.4109 3.79211 98.4109 3.79211 97.2409L3.83215 97.3309Z" fill="#E5E5E5"/>
<path d="M2.04199 31.7109C2.04199 30.5735 2.47592 29.3933 2.83496 28.5156C3.20557 27.6097 3.73653 26.4931 4.53516 25.6943C4.96758 25.2619 5.20134 25.047 5.42578 24.8408C5.63131 24.652 5.82835 24.4715 6.21582 24.084C6.60292 23.6969 6.78304 23.5003 6.97168 23.2949C7.17785 23.0705 7.39282 22.8367 7.8252 22.4043C8.23831 21.9912 8.44849 21.7834 8.65723 21.5771C8.8634 21.3734 9.06877 21.1705 9.47559 20.7637C9.89502 20.3442 10.1132 20.134 10.3271 19.9277C10.5331 19.7292 10.7356 19.5339 11.1357 19.1338C11.5263 18.7432 11.7093 18.5463 11.9033 18.3389C12.1126 18.1151 12.3283 17.8862 12.7627 17.457C13.2097 17.0154 13.4558 16.7989 13.6855 16.5967C13.8874 16.4191 14.0775 16.2516 14.4551 15.874C14.8327 15.4964 15.0011 15.3064 15.1787 15.1045C15.3808 14.8748 15.5967 14.6284 16.0381 14.1816C16.48 13.7344 16.7254 13.5137 16.96 13.3047C17.1667 13.1205 17.3577 12.9518 17.7354 12.5742C18.0905 12.2191 18.2368 12.0381 18.4062 11.8311C18.6148 11.5763 18.8427 11.301 19.3125 10.8369C20.14 10.0193 20.1377 10.0215 20.9551 9.2041C21.3746 8.78463 21.5936 8.57417 21.8115 8.36523C22.0219 8.1636 22.2272 7.96814 22.6328 7.56738C23.0863 7.1194 23.3403 6.90097 23.5762 6.69824C23.7786 6.52426 23.969 6.3611 24.3457 5.98438C24.732 5.59807 24.9055 5.40382 25.0918 5.19727C25.2997 4.96678 25.5158 4.72819 25.9551 4.29395C26.6691 3.57997 27.6533 2.92499 28.7129 2.47949C29.8212 2.01357 30.9925 1.83109 31.9619 1.83105C32.5192 1.83105 32.7869 1.81693 33.0674 1.80273C33.3789 1.78696 33.7041 1.77051 34.332 1.77051C34.9407 1.77051 35.2509 1.77844 35.5547 1.78613C35.843 1.79343 36.126 1.80078 36.7021 1.80078C37.2845 1.80078 37.5697 1.79593 37.8594 1.79102C38.1596 1.78593 38.4648 1.78125 39.0723 1.78125C39.6419 1.78125 39.9168 1.77136 40.2012 1.76172C40.5068 1.75136 40.8221 1.74121 41.4424 1.74121C42.0623 1.74121 42.3798 1.75136 42.6865 1.76172C42.9726 1.77138 43.2479 1.78125 43.8125 1.78125C44.3896 1.78125 44.6774 1.7764 44.9697 1.77148C45.2722 1.7664 45.5802 1.76074 46.1826 1.76074H48.5518C49.1967 1.76074 49.5345 1.78328 49.8516 1.80469C50.1275 1.82332 50.3828 1.84081 50.9219 1.84082C51.474 1.84082 51.7421 1.82673 52.0244 1.8125C52.337 1.79674 52.6644 1.78125 53.292 1.78125C53.8504 1.78125 54.1234 1.7688 54.4082 1.75684C54.7183 1.74381 55.0408 1.73047 55.6621 1.73047C56.3342 1.73047 56.6966 1.76964 57.0264 1.80566C57.2916 1.83464 57.5244 1.86133 58.0322 1.86133C58.5779 1.86133 58.8404 1.84556 59.1201 1.8291C59.4353 1.81056 59.7681 1.79102 60.4023 1.79102C60.9794 1.79101 61.2669 1.78616 61.5605 1.78125C61.8644 1.77617 62.1747 1.77051 62.7822 1.77051C63.3519 1.77051 63.6294 1.7616 63.915 1.75195C64.2215 1.74161 64.537 1.73047 65.1523 1.73047C65.7927 1.73047 66.1306 1.75306 66.4482 1.77441C66.7254 1.79305 66.9833 1.81055 67.5225 1.81055C68.0933 1.81054 68.3758 1.80321 68.667 1.7959C68.9734 1.78821 69.2886 1.78125 69.9023 1.78125C70.472 1.78125 70.7495 1.77136 71.0352 1.76172C71.3416 1.75137 71.6571 1.74121 72.2725 1.74121C72.9254 1.74122 73.2732 1.76977 73.5957 1.79688C73.868 1.81975 74.116 1.84082 74.6426 1.84082C75.1815 1.84081 75.439 1.82335 75.7178 1.80469C76.037 1.78332 76.3774 1.76074 77.0225 1.76074C77.6109 1.76074 77.9034 1.75834 78.1982 1.75586C78.4983 1.75334 78.8011 1.75098 79.4023 1.75098H81.7822C82.4083 1.75098 82.7308 1.76431 83.041 1.77734C83.3256 1.7893 83.5985 1.80078 84.1621 1.80078C84.7697 1.80078 85.0772 1.80644 85.3799 1.81152C85.6722 1.81643 85.9597 1.82129 86.542 1.82129C87.4847 1.82129 88.6556 1.97519 89.7764 2.43359C90.7704 2.84023 91.8379 3.4434 92.5986 4.2041C93.0714 4.67691 93.3012 4.93669 93.5166 5.17969C93.7062 5.39354 93.8858 5.59547 94.292 5.99707L94.2988 6.00391C94.7519 6.45698 94.9762 6.69698 95.1943 6.93066C95.3982 7.149 95.5967 7.36231 96.0186 7.78418C96.4074 8.173 96.6039 8.33402 96.8223 8.51465C97.0868 8.73349 97.3692 8.96905 97.8555 9.46094C98.7563 10.3721 98.7068 10.3418 99.582 11.207C100.453 12.0681 100.467 12.072 101.346 12.9609C101.828 13.4492 102.06 13.7304 102.271 13.9844C102.447 14.1957 102.611 14.3908 103.002 14.7773C103.779 15.5455 103.946 15.6722 104.785 16.5205C105.178 16.918 105.378 17.0898 105.595 17.2764C105.848 17.4947 106.119 17.7287 106.596 18.2109C107.085 18.7054 107.318 18.9945 107.531 19.2578C107.705 19.4728 107.863 19.668 108.249 20.0537C108.644 20.4482 108.842 20.615 109.056 20.7939C109.31 21.007 109.587 21.2377 110.072 21.7178C110.509 22.1496 110.729 22.3648 110.95 22.5811C111.174 22.7997 111.399 23.0193 111.842 23.457C112.724 24.3293 112.744 24.36 113.608 25.2246C114.1 25.7158 114.334 25.9997 114.551 26.2627C114.729 26.4797 114.891 26.6757 115.279 27.0645C115.984 27.769 116.642 28.7294 117.093 29.8018C117.483 30.7292 117.882 31.91 117.882 33.0312C117.882 33.7308 117.851 34.0996 117.821 34.4434C117.796 34.7345 117.772 35.0011 117.772 35.5713C117.772 36.2236 117.765 36.5551 117.757 36.8809C117.75 37.1922 117.742 37.4986 117.742 38.1211V40.6709C117.742 41.2638 117.761 41.544 117.779 41.8418C117.801 42.1788 117.822 42.5339 117.822 43.2207V45.7705C117.822 46.393 117.83 46.6994 117.837 47.0107C117.845 47.3366 117.853 47.6686 117.853 48.3213C117.853 49.0136 117.827 49.3753 117.803 49.7158C117.782 50.0134 117.762 50.2892 117.762 50.8711C117.762 51.8946 117.519 53.0415 117.073 54.1006C116.637 55.1378 116.02 56.113 115.3 56.8467L113.626 58.5205C112.812 59.3441 112.801 59.3657 111.959 60.208L111.958 60.207C111.579 60.5905 111.409 60.7867 111.221 60.999C111.007 61.2399 110.784 61.4881 110.332 61.9346C109.494 62.7623 109.515 62.7512 108.669 63.5977C108.276 63.9904 108.093 64.1901 107.897 64.4014C107.685 64.6312 107.464 64.8677 107.021 65.3047C106.59 65.7314 106.364 65.9438 106.151 66.1465C105.949 66.3397 105.748 66.5333 105.346 66.9404C104.89 67.4019 104.63 67.6282 104.383 67.8408C104.171 68.023 103.978 68.1882 103.599 68.5674C103.223 68.9432 103.064 69.1332 102.892 69.3379C102.687 69.5815 102.465 69.8461 102.006 70.3105L101.999 70.3174C101.718 70.5983 101.59 70.9169 101.582 71.2139C101.573 71.5501 101.664 71.8477 101.833 72.083L101.91 72.1797L101.916 72.1865C102.321 72.651 102.518 72.9071 102.703 73.1455C102.865 73.3545 103.019 73.553 103.368 73.9482C104.13 74.8107 104.133 74.8133 104.895 75.6855C105.641 76.5404 105.659 76.5499 106.412 77.4238C106.769 77.8376 106.948 78.031 107.134 78.2295C107.335 78.4445 107.547 78.6699 107.944 79.125C108.306 79.5393 108.489 79.7331 108.676 79.9307C108.878 80.1446 109.09 80.3679 109.488 80.8184C109.85 81.2277 110.033 81.4196 110.226 81.623C110.434 81.8429 110.647 82.0697 111.045 82.5254C111.482 83.0258 111.687 83.3229 111.871 83.5918C112.016 83.8027 112.139 83.9832 112.456 84.3467C113.205 85.2059 113.213 85.2129 113.975 86.085C114.342 86.5061 114.528 86.7082 114.718 86.915C114.818 87.024 114.919 87.1345 115.044 87.2734L115.515 87.8057L115.521 87.8115C116.195 88.5914 116.741 89.6188 117.126 90.6377C117.478 91.5695 117.842 92.7353 117.842 93.8311C117.842 94.3849 117.852 94.6544 117.861 94.9336C117.872 95.2341 117.882 95.5449 117.882 96.1504C117.882 96.7946 117.853 97.1361 117.826 97.4521C117.803 97.716 117.782 97.9553 117.782 98.4707C117.782 99.0054 117.798 99.2598 117.814 99.5312C117.833 99.8397 117.853 100.166 117.853 100.791C117.853 101.416 117.833 101.742 117.814 102.05C117.798 102.321 117.782 102.576 117.782 103.111C117.782 103.704 117.777 104.005 117.771 104.3C117.767 104.584 117.762 104.864 117.762 105.431C117.762 105.985 117.772 106.255 117.781 106.534C117.792 106.835 117.802 107.145 117.802 107.751C117.802 108.273 117.821 108.517 117.842 108.783C117.866 109.097 117.893 109.433 117.893 110.071C117.893 110.716 117.863 111.057 117.836 111.373C117.813 111.637 117.792 111.876 117.792 112.391C117.792 112.958 117.797 113.238 117.802 113.522C117.807 113.818 117.812 114.118 117.812 114.711C117.812 115.33 117.796 115.65 117.78 115.956C117.766 116.23 117.752 116.49 117.752 117.031C117.752 117.566 117.768 117.82 117.784 118.092C117.803 118.4 117.822 118.726 117.822 119.351C117.822 119.976 117.803 120.302 117.784 120.611C117.768 120.884 117.752 121.141 117.752 121.681C117.752 122.254 117.754 122.539 117.757 122.828C117.759 123.122 117.762 123.42 117.762 124.011C117.762 124.993 117.564 126.164 117.081 127.258C116.624 128.291 115.953 129.275 115.195 129.979L115.19 129.983C114.763 130.378 114.563 130.578 114.357 130.785C114.134 131.01 113.9 131.247 113.428 131.688C112.58 132.479 112.516 132.558 111.631 133.374C110.729 134.206 110.698 134.224 109.804 135.04C108.876 135.886 108.966 135.823 108.011 136.704C107.523 137.154 107.251 137.372 106.994 137.578C106.77 137.758 106.559 137.928 106.142 138.313C105.709 138.713 105.507 138.913 105.299 139.122C105.073 139.348 104.838 139.583 104.361 140.023C103.922 140.429 103.714 140.632 103.497 140.843C103.268 141.065 103.035 141.291 102.564 141.72C102.085 142.157 101.827 142.373 101.586 142.575C101.366 142.76 101.152 142.94 100.728 143.337C99.8455 144.16 99.7562 144.225 98.9014 145.014C98.0471 145.802 97.9789 145.882 97.0947 146.688L97.0957 146.689C96.2875 147.441 95.1728 147.962 94.2461 148.326C93.2123 148.733 92.0751 148.991 91.042 148.991C90.5283 148.991 90.2935 149.015 90.0293 149.042C89.7037 149.075 89.3484 149.111 88.6826 149.111C88.0358 149.111 87.6951 149.086 87.377 149.062C87.1052 149.041 86.8551 149.021 86.3223 149.021C85.7893 149.021 85.5394 149.041 85.2676 149.062C84.9494 149.086 84.6089 149.111 83.9619 149.111C83.3087 149.111 82.9633 149.082 82.6426 149.055C82.3735 149.032 82.1287 149.011 81.6025 149.011C81.0506 149.011 80.7853 149.025 80.5059 149.039C80.1953 149.055 79.8701 149.071 79.2422 149.071C78.6395 149.071 78.3344 149.066 78.0342 149.061C77.7444 149.056 77.4591 149.051 76.8818 149.051H74.5225C73.9261 149.051 73.6257 149.048 73.3281 149.046C73.0357 149.043 72.7458 149.041 72.1621 149.041C71.5342 149.041 71.209 149.025 70.8994 149.009C70.6211 148.995 70.3589 148.98 69.8125 148.98C69.2723 148.98 69.0121 148.996 68.7334 149.013C68.4191 149.031 68.0863 149.051 67.4521 149.051C66.8242 149.051 66.499 149.034 66.1885 149.019C65.9091 149.004 65.6438 148.991 65.0918 148.991C64.5656 148.991 64.3209 149.012 64.0518 149.035C63.7311 149.062 63.3857 149.091 62.7324 149.091C62.0854 149.091 61.745 149.065 61.4268 149.041C61.155 149.02 60.905 149.001 60.3721 149.001C59.7758 149.001 59.4754 148.999 59.1777 148.996C58.8855 148.994 58.5951 148.991 58.0117 148.991C57.4981 148.991 57.2633 149.015 56.999 149.042C56.6734 149.075 56.3183 149.111 55.6523 149.111C55.0433 149.111 54.7325 149.103 54.4297 149.096C54.1427 149.088 53.8627 149.081 53.292 149.081C52.645 149.081 52.3045 149.056 51.9863 149.031C51.7148 149.011 51.465 148.991 50.9326 148.991C50.3999 148.991 50.1496 149.011 49.8779 149.031C49.5597 149.056 49.2192 149.081 48.5723 149.081H43.8525C43.1994 149.081 42.8538 149.053 42.5332 149.025C42.2639 149.003 42.0188 148.98 41.4922 148.98C40.9656 148.98 40.7204 149.003 40.4512 149.025C40.1306 149.053 39.785 149.081 39.1318 149.081C38.4723 149.081 38.122 149.049 37.7988 149.019C37.5322 148.994 37.2923 148.971 36.7725 148.971H32.0518C31.4558 148.971 31.1559 148.968 30.8584 148.966C30.566 148.963 30.2759 148.961 29.6924 148.961C29.1532 148.961 28.8981 148.978 28.6221 148.997C28.3049 149.018 27.9674 149.041 27.3223 149.041C26.7399 149.041 26.4547 149.046 26.165 149.051C25.8648 149.056 25.5597 149.061 24.9521 149.061C24.3508 149.061 24.0506 149.058 23.7529 149.056C23.4607 149.053 23.1706 149.051 22.582 149.051C21.5418 149.051 20.3724 148.779 19.3369 148.339C18.2122 147.861 17.2817 147.109 16.6328 146.413C16.2409 145.998 16.0407 145.817 15.8262 145.622C15.5788 145.397 15.3123 145.155 14.8398 144.661C14.396 144.197 14.1755 143.958 13.957 143.721C13.7456 143.491 13.5396 143.265 13.1133 142.814L13.1064 142.808C12.6369 142.305 12.4109 142.022 12.2021 141.764C12.0231 141.542 11.8533 141.333 11.459 140.921C11.0184 140.46 10.7993 140.225 10.582 139.992C10.3694 139.765 10.1586 139.54 9.72949 139.091C9.32667 138.669 9.12096 138.48 8.90234 138.277C8.65616 138.05 8.3965 137.81 7.92969 137.321C7.46567 136.836 7.23784 136.57 7.01953 136.313C6.82329 136.083 6.63982 135.864 6.2334 135.435C5.81563 134.993 5.60438 134.785 5.38672 134.569C5.15438 134.34 4.91509 134.103 4.46289 133.625L4.4541 133.614C3.77935 132.889 3.14012 131.891 2.7168 130.814C2.27647 129.695 2.12209 128.523 2.12207 127.581C2.12207 126.977 2.12998 126.668 2.1377 126.369C2.145 126.086 2.15234 125.811 2.15234 125.251C2.15234 124.716 2.13652 124.459 2.12012 124.185C2.10156 123.874 2.08203 123.546 2.08203 122.921C2.08203 122.323 2.08768 122.02 2.09277 121.724C2.09769 121.438 2.10254 121.158 2.10254 120.591C2.10254 120 2.10493 119.702 2.10742 119.408C2.10987 119.12 2.1123 118.834 2.1123 118.261C2.1123 117.733 2.09291 117.486 2.07227 117.219C2.048 116.905 2.02246 116.568 2.02246 115.931C2.02247 115.301 2.04191 114.973 2.06055 114.663C2.07698 114.39 2.0918 114.135 2.0918 113.601C2.0918 113.008 2.09748 112.706 2.10254 112.408C2.10743 112.121 2.1123 111.838 2.1123 111.271C2.11231 110.678 2.11698 110.375 2.12207 110.077C2.12698 109.79 2.13184 109.507 2.13184 108.94C2.13183 108.374 2.12699 108.091 2.12207 107.803C2.11698 107.504 2.1123 107.198 2.1123 106.601C2.1123 106.067 2.09473 105.815 2.07617 105.543C2.05477 105.23 2.03223 104.897 2.03223 104.261C2.03223 103.599 2.06743 103.246 2.10059 102.923C2.12741 102.661 2.15234 102.429 2.15234 101.921C2.15234 101.373 2.13834 101.11 2.12598 100.821C2.11232 100.502 2.10165 100.176 2.1123 99.5527C2.13263 98.3639 2.14258 98.3921 2.14258 97.2412C2.14258 97.2412 2.04892 96.1504 2.55664 95.271C3.06436 94.3916 4.00781 93.666 4.00781 93.666C4.79305 93.1327 5.71473 92.9004 6.6123 92.9004H9.00195C9.56565 92.9004 9.8415 92.8889 10.1289 92.877C10.4413 92.8639 10.7666 92.8506 11.3926 92.8506C12.0186 92.8506 12.3438 92.8639 12.6562 92.877C12.9435 92.8889 13.2188 92.9004 13.7822 92.9004C14.3581 92.9004 14.6432 92.894 14.9355 92.8867C15.2431 92.879 15.5582 92.8711 16.1719 92.8711C16.7856 92.8711 17.1007 92.879 17.4082 92.8867C17.7006 92.894 17.9863 92.9004 18.5625 92.9004C19.0755 92.9004 19.3087 92.8747 19.5752 92.8457C19.9072 92.8096 20.2713 92.7705 20.9521 92.7705C21.6204 92.7705 21.9747 92.8029 22.3018 92.833C22.5731 92.858 22.8162 92.8809 23.3418 92.8809C23.9243 92.8809 24.2148 92.876 24.5098 92.8711C24.8148 92.866 25.125 92.8613 25.7324 92.8613C26.2834 92.8613 26.5489 92.8456 26.833 92.8291C27.1519 92.8106 27.4888 92.791 28.1318 92.791C28.8002 92.791 29.1548 92.8225 29.4824 92.8525C29.7546 92.8775 30.0008 92.9004 30.5322 92.9004C31.0573 92.9004 31.2986 92.8756 31.5684 92.8486C31.8984 92.8156 32.2581 92.7812 32.9326 92.7812C33.3846 92.7813 33.6885 92.7951 33.9395 92.8105C33.7492 92.6375 33.5303 92.4383 33.1973 92.1279C32.7895 91.748 32.5844 91.5783 32.3672 91.3994C32.1225 91.1979 31.8607 90.9834 31.3838 90.5439C30.8844 90.0838 30.6423 89.8123 30.4199 89.5625C30.2375 89.3575 30.0746 89.1738 29.6846 88.8145C29.3008 88.4609 29.1084 88.3202 28.8906 88.1602C28.6185 87.9602 28.3205 87.7407 27.8145 87.2744C27.3567 86.8527 27.1289 86.6329 26.9062 86.418C26.6939 86.213 26.4859 86.0124 26.0537 85.6143C25.5735 85.1718 25.3367 84.9245 25.1133 84.6904C24.9168 84.4846 24.7338 84.2914 24.3242 83.9141C23.9178 83.5396 23.7125 83.3769 23.4951 83.2041C23.2445 83.0049 22.9749 82.7918 22.4912 82.3516C22.0233 81.9257 21.7901 81.6951 21.5635 81.4697C21.3546 81.2621 21.1566 81.0638 20.7344 80.6748C20.2767 80.2531 20.0488 80.0333 19.8262 79.8184C19.6139 79.6134 19.4065 79.4126 18.9746 79.0146C18.5296 78.6047 18.3065 78.3993 18.084 78.1943C17.8615 77.9894 17.6393 77.784 17.1943 77.374C16.7686 76.9818 16.5539 76.7979 16.332 76.6074C16.094 76.403 15.8479 76.1923 15.3838 75.7646C14.9133 75.3312 14.6815 75.0962 14.459 74.8711C14.2566 74.6664 14.0638 74.4703 13.6445 74.084C13.2318 73.7037 13.0229 73.5337 12.8018 73.3525C12.5531 73.1488 12.2915 72.9336 11.8145 72.4941C11.3534 72.0693 11.1233 71.8447 10.8994 71.626C10.6883 71.4197 10.4826 71.2193 10.0537 70.8242C9.10831 69.9532 9.19913 70.017 8.28125 69.1807C7.80553 68.7472 7.56942 68.5121 7.34277 68.2842C7.1364 68.0766 6.94362 67.8804 6.52441 67.4941C6.09871 67.1019 5.88444 66.9187 5.66406 66.7305C5.42759 66.5285 5.17986 66.3179 4.71094 65.8906L4.70508 65.8848L4.69824 65.8789C3.96557 65.1976 3.26402 64.2438 2.79297 63.1777C2.30065 62.0635 2.13184 60.8866 2.13184 59.9307V57.5811C2.13184 57.0041 2.12698 56.7215 2.12207 56.4346C2.11697 56.1367 2.1123 55.8332 2.1123 55.2305C2.1123 54.6905 2.0965 54.433 2.08008 54.1572C2.0615 53.8451 2.04199 53.5149 2.04199 52.8809C2.04199 52.2402 2.06451 51.9074 2.08594 51.5938C2.10447 51.3225 2.12206 51.0701 2.12207 50.5312C2.12207 49.9666 2.11313 49.6939 2.10352 49.4121C2.09317 49.1089 2.08203 48.7961 2.08203 48.1807V45.8311C2.08203 45.2781 2.07056 45.0104 2.05859 44.7295C2.04552 44.4225 2.03223 44.1019 2.03223 43.4805C2.03222 42.9034 2.02737 42.6184 2.02246 42.3301C2.01737 42.0312 2.01172 41.7286 2.01172 41.1309C2.01172 40.5077 2.02815 40.1824 2.04395 39.8721C2.05818 39.5925 2.07226 39.3277 2.07227 38.7812C2.07227 38.209 2.06742 37.9237 2.0625 37.6338C2.05741 37.3337 2.05176 37.0284 2.05176 36.4307C2.05176 35.833 2.05741 35.5278 2.0625 35.2266C2.06741 34.9356 2.07226 34.6482 2.07227 34.0713C2.07227 33.5003 2.06493 33.2198 2.05762 32.9326C2.04991 32.6299 2.04199 32.3198 2.04199 31.7109ZM5.3418 31.7109C5.3418 32.2817 5.34914 32.5616 5.35645 32.8486C5.36415 33.1515 5.37207 33.4623 5.37207 34.0713C5.37207 34.6735 5.36739 34.9809 5.3623 35.2822C5.35739 35.5734 5.35254 35.8586 5.35254 36.4307C5.35254 37.0029 5.35739 37.2883 5.3623 37.5781C5.3674 37.8782 5.37207 38.1837 5.37207 38.7812C5.37206 39.4043 5.35563 39.7298 5.33984 40.04C5.32561 40.3196 5.3125 40.5843 5.3125 41.1309C5.3125 41.7031 5.31735 41.9858 5.32227 42.2744C5.32736 42.5733 5.33203 42.8783 5.33203 43.4805C5.33203 44.0388 5.34352 44.3094 5.35547 44.5898C5.36852 44.8963 5.38184 45.2143 5.38184 45.8311V48.1807C5.38184 48.7453 5.39175 49.018 5.40137 49.2998C5.41171 49.6029 5.42188 49.916 5.42188 50.5312C5.42187 51.1719 5.39936 51.5047 5.37793 51.8184C5.35939 52.0896 5.3418 52.3418 5.3418 52.8809C5.3418 53.4265 5.35764 53.6867 5.37402 53.9619C5.39256 54.2734 5.4121 54.6012 5.41211 55.2305C5.41211 55.8077 5.41696 56.0908 5.42188 56.3779C5.42697 56.6757 5.43164 56.9785 5.43164 57.5811V59.9307C5.43164 60.5347 5.54389 61.238 5.81152 61.8438C6.09753 62.491 6.52984 63.0722 6.93359 63.4512L7.44727 63.9111C7.58367 64.0304 7.69464 64.1252 7.80762 64.2217C8.04957 64.4283 8.2958 64.6399 8.75977 65.0674C9.23035 65.5009 9.46256 65.7357 9.68359 65.958C9.88431 66.1599 10.079 66.355 10.5029 66.7412C11.3846 67.5446 11.4558 67.6289 12.29 68.3975C12.7511 68.8223 12.9812 69.0469 13.2051 69.2656C13.4162 69.4719 13.6211 69.6724 14.0498 70.0674C14.4627 70.4478 14.6713 70.6186 14.8926 70.7998C15.1412 71.0035 15.403 71.2179 15.8799 71.6572C16.3505 72.0909 16.583 72.3255 16.8057 72.5508C17.008 72.7555 17.201 72.9508 17.6201 73.3369C18.0459 73.7292 18.2606 73.914 18.4824 74.1045C18.7204 74.3088 18.9659 74.52 19.4297 74.9473C19.8747 75.3573 20.0978 75.5626 20.3203 75.7676C20.5427 75.9725 20.7653 76.1772 21.21 76.5869C21.6676 77.0086 21.8956 77.2284 22.1182 77.4434C22.3304 77.6483 22.5379 77.8492 22.9697 78.2471C23.4371 78.6777 23.6696 78.9102 23.8906 79.1299C24.0938 79.3319 24.2911 79.5263 24.7129 79.9102C25.1191 80.2798 25.3245 80.4419 25.5488 80.6201C25.8064 80.8248 26.077 81.0418 26.5605 81.4873C27.0408 81.9298 27.2775 82.177 27.501 82.4111C27.6975 82.617 27.8805 82.8101 28.29 83.1875C28.7479 83.6093 28.9756 83.8289 29.1982 84.0439C29.4105 84.2489 29.6177 84.4496 30.0498 84.8477C30.4334 85.2011 30.6261 85.341 30.8438 85.501C31.1159 85.701 31.4137 85.9213 31.9199 86.3877C32.4196 86.8481 32.6623 87.1192 32.8848 87.3691C33.0672 87.5741 33.2301 87.7578 33.6201 88.1172C34.0332 88.4978 34.2421 88.6691 34.4648 88.8525C34.715 89.0586 34.9752 89.274 35.4473 89.7139C36.345 90.5504 36.2741 90.4657 37.2197 91.3369C37.6109 91.6972 37.9694 92.13 38.1924 92.6357C38.4203 93.1527 38.5372 93.8316 38.2686 94.5254C37.9992 95.2204 37.4531 95.6441 36.9326 95.8721C36.4245 96.0946 35.8661 96.1709 35.332 96.1709C34.676 96.1709 34.3316 96.1453 34.0088 96.1211C33.7317 96.1003 33.4762 96.0811 32.9326 96.0811C32.4075 96.0811 32.1662 96.1058 31.8965 96.1328C31.5663 96.1658 31.207 96.2012 30.5322 96.2012C29.8637 96.2012 29.5094 96.1687 29.1816 96.1387C28.9094 96.1137 28.6633 96.0908 28.1318 96.0908C27.5757 96.0908 27.3077 96.1066 27.0244 96.123C26.706 96.1415 26.3711 96.1611 25.7324 96.1611C25.15 96.1611 24.8594 96.166 24.5645 96.1709C24.2595 96.176 23.9492 96.1807 23.3418 96.1807C22.6781 96.1806 22.326 96.1492 22 96.1191C21.7296 96.0942 21.4836 96.0713 20.9521 96.0713C20.4332 96.0713 20.1971 96.0971 19.9316 96.126C19.6008 96.162 19.2389 96.2012 18.5625 96.2012C17.9489 96.2012 17.6336 96.1932 17.3262 96.1855C17.0337 96.1782 16.7481 96.1709 16.1719 96.1709C15.596 96.1709 15.3109 96.1782 15.0186 96.1855C14.711 96.1932 14.3959 96.2012 13.7822 96.2012C13.156 96.2012 12.8311 96.1878 12.5186 96.1748C12.2312 96.1628 11.9559 96.1504 11.3926 96.1504C10.8289 96.1504 10.553 96.1628 10.2656 96.1748C9.95315 96.1878 9.62812 96.2012 9.00195 96.2012H6.6123C6.17846 96.2012 5.90227 96.337 5.74707 96.4893C5.6218 96.6124 5.48242 96.8716 5.48242 97.3311V105.099L5.34082 104.78C5.34765 104.997 5.35694 105.154 5.36816 105.318C5.38957 105.632 5.4121 105.965 5.41211 106.601C5.41211 107.173 5.41696 107.458 5.42188 107.746C5.42696 108.045 5.43164 108.348 5.43164 108.94C5.43164 109.533 5.42697 109.836 5.42188 110.134C5.41696 110.421 5.41211 110.704 5.41211 111.271C5.41211 111.863 5.40741 112.166 5.40234 112.464C5.39746 112.751 5.39258 113.034 5.39258 113.601C5.39258 114.226 5.3731 114.552 5.35449 114.861C5.33811 115.134 5.32227 115.391 5.32227 115.931C5.32227 116.452 5.3416 116.697 5.3623 116.965C5.38664 117.28 5.41211 117.618 5.41211 118.261C5.41211 118.847 5.40972 119.143 5.40723 119.437C5.40478 119.725 5.40234 120.012 5.40234 120.591C5.40234 121.184 5.39669 121.484 5.3916 121.78C5.38669 122.066 5.38184 122.349 5.38184 122.921C5.38184 123.456 5.39765 123.713 5.41406 123.987C5.43262 124.298 5.45215 124.626 5.45215 125.251C5.45215 125.85 5.44423 126.156 5.43652 126.455C5.42923 126.738 5.42188 127.016 5.42188 127.581C5.4219 128.199 5.52853 128.947 5.78809 129.607C6.06257 130.305 6.47866 130.943 6.86133 131.357L7.35938 131.875C7.4914 132.009 7.59829 132.115 7.70703 132.223C7.93936 132.452 8.17872 132.689 8.63086 133.167C9.09417 133.657 9.32049 133.924 9.53418 134.176C9.72588 134.401 9.90852 134.616 10.3145 135.041C10.7175 135.463 10.9238 135.652 11.1426 135.854C11.3888 136.082 11.6484 136.322 12.1152 136.811C12.5559 137.271 12.7749 137.507 12.9922 137.739C13.2048 137.967 13.4156 138.192 13.8447 138.641C14.3202 139.138 14.5512 139.42 14.7695 139.69C14.9582 139.924 15.1275 140.136 15.5176 140.554C15.9567 141.018 16.1743 141.257 16.3867 141.488C16.5932 141.713 16.7984 141.935 17.2246 142.381C17.6219 142.796 17.8258 142.98 18.0459 143.18C18.2987 143.41 18.5635 143.652 19.0312 144.147L19.041 144.157C19.4517 144.599 20.0176 145.043 20.6279 145.303C21.3323 145.602 22.0624 145.751 22.582 145.751C23.1833 145.751 23.4836 145.753 23.7812 145.756C24.0736 145.758 24.3635 145.761 24.9521 145.761C25.5345 145.761 25.8197 145.756 26.1094 145.751C26.4096 145.746 26.7148 145.741 27.3223 145.741C27.8667 145.741 28.1243 145.724 28.3994 145.705C28.7159 145.684 29.0516 145.661 29.6924 145.661C30.2883 145.661 30.5883 145.663 30.8857 145.666C31.1781 145.668 31.4683 145.671 32.0518 145.671H36.7725C37.432 145.671 37.7823 145.703 38.1055 145.733C38.3721 145.758 38.612 145.781 39.1318 145.781C39.6584 145.781 39.9036 145.759 40.1729 145.736C40.4936 145.709 40.8388 145.681 41.4922 145.681C42.1456 145.681 42.4908 145.709 42.8115 145.736C43.0808 145.759 43.3259 145.781 43.8525 145.781H48.5723C49.1051 145.781 49.3552 145.761 49.627 145.74C49.9451 145.716 50.2858 145.69 50.9326 145.69C51.5791 145.69 51.9193 145.716 52.2373 145.74C52.5091 145.761 52.7591 145.781 53.292 145.781C53.9008 145.781 54.211 145.789 54.5137 145.797C54.8008 145.804 55.0814 145.811 55.6523 145.811C56.166 145.811 56.4008 145.787 56.665 145.76C56.9907 145.727 57.3459 145.69 58.0117 145.69C58.608 145.69 58.9084 145.694 59.2061 145.696C59.4985 145.699 59.7885 145.701 60.3721 145.701C61.0191 145.701 61.3595 145.727 61.6777 145.751C61.9495 145.772 62.1995 145.791 62.7324 145.791C63.2586 145.791 63.5034 145.77 63.7725 145.747C64.0931 145.72 64.4386 145.69 65.0918 145.69C65.7195 145.69 66.045 145.707 66.3555 145.723C66.6349 145.737 66.9002 145.751 67.4521 145.751C67.998 145.751 68.2609 145.735 68.5391 145.719C68.8526 145.7 69.1832 145.681 69.8125 145.681C70.4355 145.681 70.7584 145.697 71.0674 145.713C71.3452 145.727 71.6101 145.741 72.1621 145.741C72.7585 145.741 73.0588 145.744 73.3564 145.746C73.6487 145.749 73.939 145.751 74.5225 145.751H76.8818C77.4843 145.751 77.7897 145.756 78.0898 145.761C78.3796 145.766 78.6649 145.771 79.2422 145.771C79.7942 145.771 80.0594 145.757 80.3389 145.743C80.6493 145.727 80.9748 145.711 81.6025 145.711C82.2557 145.711 82.6012 145.739 82.9219 145.767C83.191 145.789 83.4357 145.811 83.9619 145.811C84.4948 145.811 84.7449 145.791 85.0166 145.771C85.3348 145.746 85.6752 145.721 86.3223 145.721C86.9692 145.721 87.3097 145.746 87.6279 145.771C87.8996 145.791 88.1499 145.811 88.6826 145.811C89.1962 145.811 89.4311 145.787 89.6953 145.76C90.021 145.727 90.376 145.69 91.042 145.69C91.5689 145.69 92.2919 145.548 93.0381 145.255C93.8913 144.919 94.5169 144.581 94.8486 144.272L94.8545 144.268L94.8604 144.262C95.7851 143.418 95.7014 143.477 96.6631 142.589C97.6282 141.698 97.5587 141.781 98.4766 140.925C98.9515 140.482 99.2083 140.262 99.4609 140.05C99.6926 139.855 99.91 139.674 100.34 139.282C100.779 138.882 100.987 138.681 101.197 138.477C101.421 138.259 101.653 138.033 102.123 137.599C102.556 137.199 102.757 136.998 102.966 136.789C103.192 136.563 103.427 136.329 103.903 135.889C104.396 135.434 104.67 135.213 104.928 135.006C105.153 134.825 105.362 134.658 105.773 134.278C106.618 133.499 106.688 133.415 107.58 132.602C108.505 131.758 108.496 131.776 109.394 130.948C110.308 130.105 110.225 130.163 111.177 129.274C111.604 128.875 111.805 128.672 112.017 128.459C112.245 128.229 112.481 127.993 112.953 127.558C113.335 127.201 113.76 126.608 114.062 125.924C114.339 125.297 114.462 124.588 114.462 124.011C114.462 123.432 114.46 123.145 114.457 122.856C114.455 122.563 114.452 122.267 114.452 121.681C114.452 121.051 114.472 120.723 114.49 120.413C114.507 120.14 114.522 119.885 114.522 119.351C114.522 118.816 114.507 118.562 114.49 118.29C114.472 117.982 114.452 117.656 114.452 117.031C114.452 116.413 114.469 116.092 114.484 115.786C114.499 115.512 114.512 115.252 114.512 114.711C114.512 114.144 114.507 113.864 114.502 113.579C114.497 113.284 114.492 112.983 114.492 112.391C114.492 111.746 114.521 111.405 114.548 111.089C114.571 110.825 114.592 110.586 114.592 110.071C114.592 109.55 114.572 109.305 114.552 109.039C114.527 108.725 114.502 108.389 114.502 107.751C114.502 107.197 114.493 106.927 114.483 106.647C114.473 106.347 114.462 106.036 114.462 105.431C114.462 104.838 114.468 104.537 114.473 104.242C114.478 103.958 114.482 103.678 114.482 103.111C114.482 102.486 114.502 102.16 114.521 101.852C114.537 101.58 114.552 101.326 114.552 100.791C114.552 100.256 114.537 100.002 114.521 99.7305C114.502 99.422 114.482 99.0958 114.482 98.4707C114.482 97.8263 114.511 97.4851 114.538 97.1689C114.561 96.9052 114.582 96.6658 114.582 96.1504C114.582 95.5966 114.573 95.3271 114.563 95.0479C114.553 94.7473 114.542 94.4367 114.542 93.8311C114.542 93.3668 114.367 92.6719 114.039 91.8037C113.746 91.0269 113.374 90.3772 113.029 89.9766L112.591 89.4814C112.475 89.3524 112.381 89.25 112.286 89.1465C112.086 88.9285 111.881 88.7055 111.489 88.2568C110.731 87.3894 110.719 87.3757 109.969 86.5156C109.536 86.0193 109.333 85.7245 109.15 85.458C109.007 85.2495 108.882 85.0658 108.56 84.6963C108.198 84.282 108.015 84.0882 107.828 83.8906C107.626 83.6768 107.413 83.454 107.016 83.0039C106.654 82.5945 106.471 82.4017 106.278 82.1982C106.07 81.9784 105.858 81.7514 105.46 81.2959C105.098 80.8814 104.914 80.6873 104.723 80.4824C104.516 80.261 104.305 80.034 103.912 79.5781C103.166 78.7122 103.182 78.7415 102.409 77.8564C101.651 76.9888 101.653 76.9913 100.896 76.1338C100.485 75.6693 100.284 75.4119 100.094 75.166C99.9261 74.9497 99.7732 74.7505 99.4287 74.3555C98.6118 73.4249 98.2525 72.2608 98.2822 71.1279C98.3144 69.9052 98.8463 68.8033 99.665 67.9844C100.031 67.6133 100.189 67.424 100.365 67.2139C100.576 66.9636 100.802 66.6985 101.266 66.2344C101.726 65.7737 101.988 65.5485 102.229 65.3408C102.434 65.1635 102.624 64.9995 102.998 64.6211C103.426 64.1885 103.65 63.972 103.875 63.7578C104.09 63.5531 104.294 63.36 104.702 62.957C105.1 62.5641 105.285 62.3653 105.475 62.1602C105.682 61.9365 105.899 61.7008 106.336 61.2637C107.149 60.4506 107.171 60.419 108.013 59.5869C108.401 59.2036 108.573 59.0111 108.752 58.8096C108.955 58.581 109.172 58.3321 109.618 57.8809L109.625 57.874C110.463 57.0364 110.432 57.0575 111.278 56.2012C111.7 55.7748 111.915 55.5626 112.128 55.3525L112.948 54.5312C113.327 54.1449 113.728 53.5417 114.031 52.8213C114.326 52.1206 114.462 51.4075 114.462 50.8711C114.462 50.1831 114.488 49.8233 114.512 49.4834C114.533 49.1866 114.552 48.9084 114.552 48.3213C114.552 47.7042 114.544 47.4004 114.537 47.0889C114.529 46.7628 114.522 46.428 114.522 45.7705V43.2207C114.522 42.6279 114.504 42.3476 114.485 42.0498C114.464 41.7128 114.442 41.3578 114.442 40.6709V38.1211C114.442 37.4638 114.45 37.1297 114.458 36.8037C114.465 36.4922 114.473 36.1883 114.473 35.5713C114.473 34.8715 114.503 34.502 114.533 34.1582C114.558 33.8672 114.582 33.601 114.582 33.0312C114.582 32.5926 114.401 31.9126 114.051 31.0801C113.762 30.3927 113.341 29.7928 112.945 29.3975C112.454 28.9063 112.219 28.6224 112.003 28.3594C111.824 28.1424 111.664 27.9464 111.275 27.5576C110.38 26.6624 110.4 26.672 109.522 25.8047C109.085 25.3727 108.865 25.1567 108.644 24.9404C108.42 24.7218 108.195 24.5022 107.752 24.0645C107.358 23.6747 107.159 23.5096 106.938 23.3252C106.677 23.1068 106.4 22.8729 105.915 22.3877C105.421 21.8937 105.184 21.6039 104.966 21.334C104.786 21.1124 104.63 20.9165 104.249 20.5312C103.856 20.1338 103.657 19.9619 103.44 19.7754C103.187 19.5569 102.916 19.3234 102.438 18.8408C101.538 17.9297 101.664 18.0957 100.682 17.124C100.193 16.6412 99.9567 16.3616 99.7354 16.0957C99.5494 15.8723 99.386 15.6727 98.999 15.2812C98.1379 14.4102 98.1507 14.4336 97.2617 13.5547C96.3773 12.6803 96.3477 12.6298 95.5088 11.7812C95.1251 11.3931 94.9317 11.2338 94.7188 11.0576C94.4597 10.8433 94.1766 10.6082 93.6855 10.1172C93.2277 9.65936 93.0008 9.41766 92.7822 9.18359C92.579 8.96595 92.3842 8.75639 91.9717 8.34375C91.4985 7.87596 91.2681 7.6176 91.0479 7.36914C90.8533 7.14972 90.6726 6.94412 90.2656 6.53711C89.9264 6.19791 89.2931 5.80157 88.5273 5.48828C87.8882 5.22683 87.1591 5.12109 86.542 5.12109C85.9345 5.12109 85.6269 5.11544 85.3242 5.11035C85.032 5.10544 84.7444 5.10059 84.1621 5.10059C83.536 5.10059 83.2136 5.08726 82.9033 5.07422C82.6187 5.06226 82.3457 5.05078 81.7822 5.05078H79.4023C78.8136 5.05078 78.5205 5.05319 78.2256 5.05566C77.9257 5.05818 77.6233 5.06055 77.0225 5.06055C76.4775 5.06055 76.2168 5.07902 75.9385 5.09766C75.6201 5.11897 75.2827 5.14061 74.6426 5.14062C73.9897 5.14062 73.6418 5.11206 73.3193 5.08496C73.047 5.06207 72.799 5.04103 72.2725 5.04102C71.7078 5.04102 71.4325 5.04991 71.1465 5.05957C70.8397 5.06993 70.5223 5.08105 69.9023 5.08105C69.3263 5.08105 69.0409 5.0884 68.75 5.0957C68.4439 5.10339 68.1312 5.11133 67.5225 5.11133C66.882 5.11133 66.5442 5.08874 66.2266 5.06738C65.9493 5.04874 65.6916 5.03126 65.1523 5.03125C64.5877 5.03125 64.3124 5.04015 64.0264 5.0498C63.7196 5.06016 63.4022 5.07129 62.7822 5.07129C62.1999 5.07129 61.9097 5.07614 61.6162 5.08105C61.3125 5.08613 61.0048 5.09082 60.4023 5.09082C59.8568 5.09082 59.5941 5.10659 59.3145 5.12305C58.9993 5.14159 58.6664 5.16113 58.0322 5.16113C57.3601 5.16113 56.9977 5.12196 56.668 5.08594C56.4028 5.05696 56.17 5.03125 55.6621 5.03125C55.1037 5.03125 54.8307 5.04272 54.5459 5.05469C54.2359 5.06771 53.9132 5.08105 53.292 5.08105C52.7401 5.08106 52.4726 5.09417 52.1904 5.1084C51.8778 5.12416 51.5498 5.14062 50.9219 5.14062C50.2814 5.14062 49.9463 5.11804 49.6299 5.09668C49.3546 5.07809 49.0965 5.06055 48.5518 5.06055H46.1826C45.6053 5.06055 45.3168 5.0654 45.0244 5.07031C44.722 5.0754 44.4146 5.08105 43.8125 5.08105C43.1971 5.08105 42.8816 5.06992 42.5752 5.05957C42.2896 5.04993 42.0121 5.04102 41.4424 5.04102C40.8729 5.04102 40.5977 5.04993 40.3135 5.05957C40.0079 5.06993 39.6924 5.08105 39.0723 5.08105C38.4899 5.08105 38.2047 5.08591 37.915 5.09082C37.6148 5.09591 37.3097 5.10059 36.7021 5.10059C36.0883 5.10059 35.7758 5.09266 35.4717 5.08496C35.1831 5.07765 34.903 5.07129 34.332 5.07129C33.7802 5.07129 33.5153 5.08441 33.2344 5.09863C32.9223 5.11443 32.5946 5.13086 31.9619 5.13086C31.3715 5.13089 30.6427 5.24758 29.9912 5.52148C29.2909 5.81599 28.675 6.24196 28.2891 6.62793L28.2822 6.63477C27.8963 7.016 27.723 7.20647 27.542 7.40723C27.3383 7.63303 27.1221 7.87401 26.6787 8.31738C26.2254 8.77066 25.9701 8.99266 25.7275 9.20117C25.5185 9.38083 25.3285 9.54326 24.9521 9.91504C24.5279 10.3342 24.3078 10.5438 24.0957 10.7471C23.8913 10.943 23.6892 11.1369 23.2891 11.5371C22.4667 12.3595 22.4641 12.3623 21.6318 13.1846C21.2717 13.5404 21.1239 13.7207 20.96 13.9209C20.7571 14.1687 20.5329 14.4427 20.0684 14.9072C19.6263 15.3493 19.3824 15.5664 19.1543 15.7695C18.9541 15.9479 18.7636 16.1185 18.3857 16.501C18.008 16.8834 17.8388 17.0767 17.6562 17.2842C17.4489 17.5198 17.2314 17.7657 16.7891 18.208C16.347 18.65 16.1017 18.867 15.8662 19.0742C15.6585 19.257 15.4648 19.4265 15.082 19.8047C14.6865 20.1955 14.5017 20.3916 14.3135 20.5928C14.1101 20.8103 13.8979 21.0386 13.4688 21.4678C13.0492 21.8873 12.8312 22.0974 12.6172 22.3037C12.4112 22.5023 12.2088 22.6974 11.8086 23.0977C11.3955 23.5107 11.1853 23.7185 10.9766 23.9248C10.7705 24.1284 10.5656 24.3308 10.1592 24.7373C9.7717 25.1248 9.59113 25.3218 9.40234 25.5273C9.19618 25.7518 8.98126 25.9855 8.54883 26.418C8.11645 26.8503 7.88266 27.0653 7.6582 27.2715C7.45283 27.4601 7.25624 27.6403 6.86914 28.0273C6.56802 28.3285 6.23898 28.9117 5.88965 29.7656C5.52869 30.648 5.3418 31.2884 5.3418 31.7109Z" fill="#1E1E1E"/>
<path d="M13.6836 56.1009L13.9835 52.6509L15.9935 52.7809L15.7736 55.3009L18.5236 58.0509H19.9236L20.6536 57.3309L19.1235 54.5009L16.5135 50.8109L19.1135 48.2109L22.3136 48.3809L25.4336 51.5009L25.9635 53.7309L25.1936 55.6109L23.3835 54.8509L23.8735 53.6109L23.6436 52.5909L21.3936 50.3409L19.8835 50.2709L19.0935 51.0609L20.9036 53.6109L23.1035 57.7109L20.7335 60.0809L17.6536 60.0509L13.6936 56.0909L13.6836 56.1009Z" fill="#1E1E1E"/>
<path d="M18.563 65.3116L24.8829 58.9916L26.1029 56.6816L27.8929 57.5817L27.1129 59.0616L29.4729 59.5217L31.8729 61.9216L31.783 65.1216L28.9829 67.9216L25.6329 68.0616L23.063 65.4916L22.8629 63.8016L19.9529 66.7117L18.543 65.3016L18.563 65.3116ZM25.033 64.6716L26.3929 66.0317L28.153 65.9617L29.803 64.3116L29.8529 62.6816L28.5829 61.4116L25.8529 60.8716L24.7129 62.0117L25.043 64.6716H25.033Z" fill="#1E1E1E"/>
<path d="M34.0033 76.7803L33.6333 74.9202L34.1233 74.4302L32.7833 74.3102L31.1133 73.5303L29.4434 71.8602L29.5233 69.7803L30.9033 68.4003L32.7333 68.2902L37.0833 71.2203L37.3833 70.9202V70.0903L35.4333 68.1302L34.9033 68.0002L34.1533 68.2803L33.3933 66.4402L34.6033 65.9902L36.3234 66.3702L39.3134 69.3602L39.2933 71.8403L35.7833 75.3502L35.9133 75.9302L36.8833 76.5903L35.8733 78.0502L34.0133 76.8002L34.0033 76.7803ZM31.3433 71.2402L32.2032 72.1002L33.2933 72.6102L35.3234 72.9603L35.8833 72.4003L32.3833 70.1503L31.9033 70.2003L31.3633 70.7402L31.3333 71.2402H31.3433Z" fill="#1E1E1E"/>
<path d="M37.793 80.2218L37.8929 76.9818L40.783 74.0918L44.0829 74.1218L47.173 77.2118L47.0929 80.3818L45.1329 80.3618L45.193 78.0118L43.303 76.1218H41.5929L39.903 77.8118L39.8529 79.4618L41.903 81.5118L43.913 82.3517L43.153 84.1918L40.793 83.2018L37.803 80.2118L37.793 80.2218Z" fill="#1E1E1E"/>
<path d="M52.1841 89.7706L47.1841 84.7706L46.894 85.0606V86.5406L49.4241 89.0606L50.874 89.6906L50.134 91.4906L48.3241 90.7306L44.9441 87.3506L44.9141 84.3206L48.094 81.1406L51.124 81.1706L54.5541 84.6006L54.464 87.4906L52.1841 89.7706ZM50.3041 83.1406H48.8241L48.474 83.4806L52.0541 87.0606L52.494 86.6206L52.5341 85.3806L50.2941 83.1406H50.3041Z" fill="#1E1E1E"/>
</svg>
