<svg width="118" height="151" viewBox="0 0 118 151" fill="none" xmlns="http://www.w3.org/2000/svg">
<path d="M3.22302 23.1395C3.22302 22.3595 3.463 21.4495 3.823 20.5695C4.183 19.6895 4.66301 18.8795 5.21301 18.3295C6.02301 17.5195 6.03302 17.5295 6.84302 16.7195C7.65302 15.9095 7.66302 15.9295 8.47302 15.1195C9.28302 14.3095 9.19304 14.2195 9.99304 13.4095C10.793 12.5995 10.843 12.6395 11.653 11.8295C12.463 11.0195 12.513 11.0795 13.323 10.2695C14.133 9.45953 14.123 9.44953 14.933 8.63953C15.743 7.82953 15.713 7.79952 16.523 6.97952C17.333 6.15952 17.303 6.12952 18.113 5.31952C18.663 4.76952 19.523 4.32953 20.403 3.96953C21.283 3.60953 22.203 3.30952 22.973 3.30952C24.153 3.30952 24.153 3.26953 25.333 3.26953C26.513 3.26953 26.513 3.34952 27.693 3.34952C28.873 3.34952 28.873 3.38953 30.053 3.38953C31.233 3.38953 31.233 3.37953 32.413 3.37953C33.593 3.37953 33.593 3.29953 34.773 3.29953C35.953 3.29953 35.953 3.41953 37.133 3.41953C38.313 3.41953 38.313 3.31952 39.493 3.31952C40.673 3.31952 40.673 3.36952 41.853 3.36952C43.033 3.36952 43.033 3.36952 44.213 3.36952C45.393 3.36952 45.393 3.31952 46.573 3.31952C47.753 3.31952 47.753 3.38953 48.933 3.38953C50.113 3.38953 50.113 3.41953 51.293 3.41953C52.473 3.41953 52.473 3.31952 53.653 3.31952C54.833 3.31952 54.833 3.33952 56.013 3.33952C57.193 3.33952 57.193 3.34952 58.383 3.34952C59.573 3.34952 59.563 3.41953 60.753 3.41953C61.533 3.41953 62.293 3.62953 62.803 4.13953C63.313 4.64953 63.643 5.40953 63.643 6.18953C63.643 7.36953 63.623 7.36952 63.623 8.55952C63.623 9.74952 63.633 9.73952 63.633 10.9295C63.633 12.1195 63.653 12.1195 63.653 13.2995C63.653 14.4795 63.653 14.4795 63.653 15.6695C63.653 16.8595 63.593 16.8595 63.593 18.0395C63.593 19.2195 63.553 19.2295 63.553 20.4095C63.553 21.5895 63.593 21.5895 63.593 22.7795C63.593 23.9695 63.523 23.9595 63.523 25.1495C63.523 26.3395 63.573 26.3295 63.573 27.5195C63.573 28.7095 63.563 28.7095 63.563 29.8895C63.563 31.0695 63.533 31.0695 63.533 32.2595C63.533 33.4495 63.573 33.4395 63.573 34.6295C63.573 35.8195 63.603 35.8095 63.603 36.9995C63.603 38.1895 63.533 38.1895 63.533 39.3695C63.533 40.5495 63.563 40.5495 63.563 41.7395C63.563 42.9295 63.533 42.9295 63.533 44.1095C63.533 45.2895 63.533 45.2995 63.533 46.4795C63.533 47.6595 63.593 47.6695 63.593 48.8495C63.593 50.0295 63.513 50.0395 63.513 51.2195C63.513 52.3995 63.563 52.4095 63.563 53.5895C63.563 54.7695 63.523 54.7795 63.523 55.9595C63.523 57.1395 63.523 57.1395 63.523 58.3295C63.523 59.5195 63.523 59.5195 63.523 60.6995C63.523 61.8795 63.543 61.8895 63.543 63.0695C63.543 64.2495 63.573 64.2595 63.573 65.4395C63.573 66.6195 63.573 66.6295 63.573 67.8195C63.573 69.0095 63.633 69.0095 63.633 70.1995C63.633 71.3895 63.653 71.3895 63.653 72.5795C63.653 73.3595 63.753 74.3195 64.123 75.1995C64.493 76.0795 65.013 76.9095 65.573 77.4595C66.383 78.2695 66.393 78.2495 67.203 79.0595C68.013 79.8695 68.013 79.8595 68.823 80.6695C69.633 81.4795 69.693 81.4095 70.503 82.2195C71.313 83.0295 71.313 83.0295 72.123 83.8395C72.933 84.6495 72.843 84.7395 73.653 85.5495C74.463 86.3595 74.483 86.3395 75.293 87.1495C76.103 87.9595 76.153 87.9195 76.963 88.7295C77.773 89.5395 77.7531 89.5595 78.563 90.3695C79.1131 90.9195 79.903 91.4895 80.783 91.8495C81.663 92.2095 82.623 92.3295 83.403 92.3295C84.583 92.3295 84.583 92.3195 85.753 92.3195C86.923 92.3195 86.933 92.3795 88.103 92.3795C89.273 92.3795 89.283 92.3995 90.453 92.3995C91.623 92.3995 91.633 92.3795 92.803 92.3795C93.973 92.3795 93.983 92.3795 95.153 92.3795C96.323 92.3795 96.323 92.3395 97.503 92.3395C98.683 92.3395 98.683 92.3795 99.853 92.3795C101.023 92.3795 101.033 92.3495 102.213 92.3495C103.393 92.3495 103.393 92.3095 104.573 92.3095C105.753 92.3095 105.753 92.3495 106.933 92.3495C108.113 92.3495 108.113 92.3495 109.293 92.3495C110.473 92.3495 110.473 92.3295 111.653 92.3295C112.433 92.3295 113.183 92.6495 113.693 93.1595C114.203 93.6695 114.543 94.4195 114.543 95.1995C114.543 96.3595 114.463 96.3595 114.463 97.5195C114.463 98.6795 114.503 98.6795 114.503 99.8395C114.503 101 114.543 101 114.543 102.16C114.543 103.32 114.543 103.32 114.543 104.48C114.543 105.64 114.413 105.64 114.413 106.8C114.413 107.96 114.463 107.96 114.463 109.12C114.463 110.28 114.503 110.28 114.503 111.44C114.503 112.6 114.473 112.6 114.473 113.76C114.473 114.92 114.453 114.92 114.453 116.08C114.453 117.24 114.413 117.24 114.413 118.4C114.413 119.56 114.503 119.56 114.503 120.72C114.503 121.88 114.443 121.88 114.443 123.05C114.443 124.22 114.473 124.21 114.473 125.38C114.473 126.55 114.503 126.54 114.503 127.71C114.503 128.49 114.273 129.44 113.913 130.32C113.553 131.2 113.043 132.04 112.493 132.59C111.683 133.4 111.673 133.38 110.863 134.19C110.053 135 110.053 135 109.243 135.8C108.433 136.6 108.393 136.57 107.583 137.38C106.773 138.19 106.753 138.17 105.943 138.98C105.133 139.79 105.203 139.86 104.393 140.67C103.583 141.48 103.583 141.48 102.773 142.29C101.963 143.1 101.953 143.09 101.143 143.9C100.333 144.71 100.343 144.72 99.533 145.53C98.983 146.08 98.133 146.55 97.253 146.91C96.373 147.27 95.443 147.55 94.663 147.55C93.443 147.55 93.443 147.5 92.233 147.5C91.023 147.5 91.023 147.44 89.803 147.44C88.583 147.44 88.583 147.5 87.373 147.5C86.163 147.5 86.153 147.53 84.943 147.53C83.733 147.53 83.733 147.48 82.513 147.48C81.293 147.48 81.303 147.56 80.083 147.56C78.863 147.56 78.873 147.53 77.653 147.53C76.433 147.53 76.433 147.45 75.223 147.45C74.013 147.45 74.013 147.47 72.793 147.47C71.573 147.47 71.583 147.56 70.363 147.56C69.143 147.56 69.153 147.56 67.933 147.56C66.713 147.56 66.713 147.54 65.503 147.54C64.293 147.54 64.293 147.54 63.073 147.54C61.853 147.54 61.853 147.47 60.643 147.47C59.433 147.47 59.423 147.46 58.213 147.46C57.003 147.46 56.993 147.58 55.783 147.58C54.573 147.58 54.563 147.48 53.353 147.48C52.143 147.48 52.133 147.48 50.923 147.48C49.713 147.48 49.703 147.56 48.493 147.56C47.283 147.56 47.2831 147.58 46.063 147.58C44.843 147.58 44.843 147.51 43.633 147.51C42.423 147.51 42.413 147.49 41.203 147.49C39.993 147.49 39.983 147.45 38.763 147.45C37.543 147.45 37.543 147.57 36.323 147.57C35.103 147.57 35.103 147.52 33.883 147.52C32.663 147.52 32.663 147.47 31.443 147.47C30.663 147.47 29.713 147.32 28.843 146.95C27.973 146.58 27.173 146.04 26.623 145.49C26.0764 144.943 25.5297 144.393 24.983 143.84C24.163 143.02 24.193 142.99 23.363 142.16C22.533 141.33 22.463 141.41 21.643 140.59C20.823 139.77 20.893 139.69 20.073 138.87C19.253 138.05 19.153 138.14 18.333 137.32C17.513 136.5 17.603 136.4 16.783 135.57C15.963 134.74 15.873 134.84 15.043 134.01C14.213 133.18 14.233 133.17 13.413 132.34C12.593 131.51 12.573 131.53 11.753 130.7C10.933 129.87 10.973 129.83 10.153 129.01C9.33301 128.19 9.30303 128.2 8.48303 127.38C7.66303 126.56 7.69304 126.52 6.86304 125.69C6.03304 124.86 6.03301 124.86 5.21301 124.03C4.66301 123.48 4.10304 122.7 3.74304 121.82C3.38304 120.94 3.14301 119.99 3.14301 119.21C3.14301 118.01 3.21301 118.01 3.21301 116.81C3.21301 115.61 3.133 115.61 3.133 114.41C3.133 113.21 3.203 113.21 3.203 112.01C3.203 110.81 3.203 110.81 3.203 109.61C3.203 108.41 3.12305 108.41 3.12305 107.21C3.12305 106.01 3.12305 106.01 3.12305 104.81C3.12305 103.61 3.25299 103.61 3.25299 102.41C3.25299 101.21 3.22302 101.21 3.22302 100.01C3.22302 98.8095 3.18304 98.8095 3.18304 97.6095C3.18304 96.4095 3.18304 96.4095 3.18304 95.2095C3.18304 94.0095 3.19299 94.0095 3.19299 92.8095C3.19299 91.6095 3.16302 91.6095 3.16302 90.4095C3.16302 89.2095 3.19299 89.2095 3.19299 88.0095C3.19299 86.8095 3.22302 86.8095 3.22302 85.6095C3.22302 84.4095 3.25299 84.4095 3.25299 83.2095C3.25299 82.0095 3.203 82.0095 3.203 80.8095C3.203 79.6095 3.22302 79.6095 3.22302 78.4095C3.22302 77.2095 3.22302 77.2095 3.22302 76.0095C3.22302 74.8095 3.203 74.8095 3.203 73.6095C3.203 72.4095 3.25299 72.4095 3.25299 71.2095C3.25299 70.0095 3.22302 70.0095 3.22302 68.8095C3.22302 67.6095 3.203 67.6095 3.203 66.4095C3.203 65.2095 3.14301 65.2095 3.14301 64.0095C3.14301 62.8095 3.22302 62.8095 3.22302 61.6095C3.22302 60.4095 3.16302 60.4095 3.16302 59.2095C3.16302 58.0095 3.16302 58.0095 3.16302 56.8095C3.16302 55.6095 3.24304 55.6095 3.24304 54.4095C3.24304 53.2095 3.263 53.2095 3.263 52.0095C3.263 50.8095 3.203 50.8095 3.203 49.6095C3.203 48.4095 3.22302 48.4095 3.22302 47.1995C3.22302 45.9895 3.24304 45.9995 3.24304 44.7995C3.24304 43.5995 3.19299 43.5995 3.19299 42.3895C3.19299 41.1795 3.28302 41.1895 3.28302 39.9795C3.28302 38.7695 3.21301 38.7795 3.21301 37.5795C3.21301 36.3795 3.25299 36.3795 3.25299 35.1795C3.25299 33.9795 3.17303 33.9795 3.17303 32.7695C3.17303 31.5595 3.24304 31.5695 3.24304 30.3595C3.24304 29.1495 3.23303 29.1595 3.23303 27.9495C3.23303 26.7395 3.253 26.7395 3.263 25.5395C3.273 24.3395 3.24304 24.3295 3.24304 23.1295L3.22302 23.1395Z" fill="#E5E5E5"/>
<path d="M61.9932 6.18945C61.9931 5.85162 61.8401 5.5103 61.6367 5.30664C61.5483 5.21819 61.2846 5.06934 60.7529 5.06934C60.1141 5.06933 59.784 5.04984 59.4707 5.03125C59.1942 5.01484 58.9336 5 58.3828 5C57.7819 5 57.4794 4.99666 57.1807 4.99414C56.887 4.99166 56.5964 4.98926 56.0127 4.98926C55.4102 4.98926 55.1049 4.98458 54.8047 4.97949C54.5151 4.97458 54.2302 4.96973 53.6533 4.96973C53.1267 4.96973 52.8816 4.99085 52.6123 5.01367C52.2916 5.04085 51.9463 5.06934 51.293 5.06934C50.6841 5.06934 50.374 5.06141 50.0713 5.05371C49.7841 5.04641 49.5036 5.03906 48.9326 5.03906C48.2985 5.03905 47.9684 5.02053 47.6553 5.00195C47.3785 4.98553 47.1187 4.96973 46.5732 4.96973C46.015 4.96973 45.7449 4.98121 45.4629 4.99316C45.1549 5.00622 44.8346 5.01953 44.2129 5.01953H41.8535C41.232 5.01953 40.9114 5.00621 40.6035 4.99316C40.3215 4.98122 40.0514 4.96973 39.4932 4.96973C38.9666 4.96973 38.7214 4.99085 38.4521 5.01367C38.1315 5.04085 37.7861 5.06934 37.1328 5.06934C36.4669 5.06933 36.1118 5.03409 35.7861 5.00098C35.5219 4.97411 35.2871 4.94923 34.7734 4.94922C34.2345 4.94922 33.9792 4.96677 33.7051 4.98535C33.3894 5.00675 33.0538 5.0293 32.4131 5.0293C31.8295 5.0293 31.5394 5.0317 31.2471 5.03418C30.9495 5.0367 30.6491 5.03906 30.0527 5.03906C29.4378 5.03906 29.1227 5.02891 28.8174 5.01855C28.5329 5.00891 28.2578 5 27.6934 5C27.0527 5 26.7171 4.97745 26.4014 4.95605C26.1271 4.93746 25.8723 4.91992 25.333 4.91992C24.7684 4.91992 24.4935 4.92883 24.209 4.93848C23.9036 4.94883 23.588 4.95996 22.9727 4.95996C22.5518 4.96007 21.8919 5.14339 21.0273 5.49707C20.1796 5.84393 19.5825 6.1831 19.2793 6.48633C18.8942 6.87146 18.7148 7.06472 18.5303 7.26465C18.3304 7.48114 18.1212 7.70952 17.6973 8.13867C17.3115 8.52924 17.1305 8.72668 16.9404 8.93262C16.7351 9.15508 16.5242 9.38207 16.0996 9.80664C15.7013 10.2049 15.5059 10.4042 15.3086 10.6064C15.1059 10.8141 14.9007 11.025 14.4893 11.4365C14.0485 11.8773 13.8031 12.0916 13.5723 12.293C13.3733 12.4665 13.1883 12.6272 12.8193 12.9961C12.3854 13.4301 12.147 13.6447 11.9238 13.8457C11.7255 14.0243 11.5376 14.1941 11.167 14.5693C10.8258 14.9149 10.689 15.0887 10.5283 15.291C10.3258 15.5459 10.1033 15.8225 9.63965 16.2861C9.22492 16.7009 9.01187 16.9059 8.80273 17.1074C8.60192 17.3009 8.40494 17.4915 8.00977 17.8867C7.59838 18.2981 7.38835 18.5034 7.18066 18.7061C6.97842 18.9034 6.77823 19.0977 6.37988 19.4961C6.03793 19.838 5.66178 20.4337 5.35059 21.1943C5.0938 21.822 4.94232 22.3883 4.89258 22.8359V23.1299C4.89258 23.7115 4.90004 23.9999 4.90625 24.3008C4.91275 24.6161 4.91824 24.9352 4.91309 25.5537C4.90222 26.8573 4.88282 26.7084 4.88281 27.9492C4.88281 28.5479 4.88522 28.8433 4.8877 29.1406C4.89022 29.4432 4.89258 29.7483 4.89258 30.3594C4.89258 31.0075 4.87402 31.3421 4.85547 31.6602C4.83903 31.942 4.82324 32.208 4.82324 32.7695C4.82324 33.3251 4.84075 33.5885 4.85938 33.8691C4.88068 34.1903 4.90332 34.5299 4.90332 35.1797C4.90332 35.8045 4.89217 36.1244 4.88184 36.4346C4.87219 36.7242 4.86329 37.0044 4.86328 37.5791C4.86328 38.1353 4.87906 38.3989 4.89551 38.6797C4.91409 38.9968 4.93262 39.3314 4.93262 39.9795C4.93262 40.6401 4.90803 40.9845 4.88379 41.3076C4.86303 41.5844 4.84277 41.8405 4.84277 42.3896C4.84278 42.9636 4.85424 43.242 4.86621 43.5303C4.87924 43.8439 4.89258 44.1689 4.89258 44.7998C4.89258 45.4122 4.8879 45.7196 4.88281 46.0234C4.8779 46.3168 4.87305 46.6069 4.87305 47.1992C4.87305 47.8165 4.8674 48.1291 4.8623 48.4355C4.85738 48.7317 4.85254 49.022 4.85254 49.6094C4.85254 50.172 4.86663 50.4429 4.88086 50.7275C4.89662 51.0427 4.91309 51.3726 4.91309 52.0098C4.91308 52.622 4.90742 52.9322 4.90234 53.2373C4.89744 53.532 4.89258 53.8221 4.89258 54.4092C4.89258 55.0591 4.87097 55.3994 4.84961 55.7197C4.83097 55.9992 4.81348 56.2597 4.81348 56.8096V59.21C4.81348 59.7723 4.82659 60.0425 4.84082 60.3271C4.85658 60.6424 4.87304 60.9721 4.87305 61.6094C4.87305 62.259 4.85046 62.5987 4.8291 62.9189C4.81045 63.1986 4.79297 63.4596 4.79297 64.0098C4.79297 64.5721 4.80706 64.8424 4.82129 65.127C4.83705 65.4422 4.85253 65.772 4.85254 66.4092C4.85254 66.9967 4.85739 67.2872 4.8623 67.582C4.8674 67.8872 4.87305 68.1971 4.87305 68.8096C4.87305 69.3909 4.8804 69.6764 4.8877 69.9688C4.89538 70.2763 4.90332 70.5916 4.90332 71.21C4.90331 71.8408 4.88998 72.1658 4.87695 72.4785C4.86499 72.7656 4.85254 73.0408 4.85254 73.6094C4.85254 74.1969 4.85739 74.4874 4.8623 74.7822C4.86739 75.0873 4.87305 75.3974 4.87305 76.0098V78.4092C4.87305 79.0214 4.86739 79.3317 4.8623 79.6367C4.85739 79.9316 4.85254 80.222 4.85254 80.8096C4.85254 81.3781 4.865 81.6534 4.87695 81.9404C4.88998 82.2532 4.90332 82.5788 4.90332 83.21C4.90332 83.8284 4.89538 84.1436 4.8877 84.4512C4.8804 84.7433 4.87305 85.0285 4.87305 85.6094C4.87305 86.228 4.86512 86.543 4.85742 86.8506C4.85011 87.1429 4.84277 87.4285 4.84277 88.0098C4.84277 88.6283 4.83483 88.9433 4.82715 89.251C4.81985 89.5431 4.81348 89.8283 4.81348 90.4092C4.81348 90.9905 4.81985 91.276 4.82715 91.5684C4.83483 91.876 4.84277 92.1909 4.84277 92.8096C4.84277 93.4157 4.8404 93.7209 4.83789 94.0234C4.83543 94.3208 4.83301 94.6163 4.83301 95.21V97.6094C4.83301 98.1845 4.84289 98.4651 4.85254 98.7549C4.86287 99.065 4.87305 99.3851 4.87305 100.01C4.87305 100.591 4.8804 100.876 4.8877 101.168C4.89538 101.476 4.90332 101.791 4.90332 102.409C4.90332 103.09 4.86414 103.455 4.82812 103.787C4.79917 104.055 4.77344 104.291 4.77344 104.81V107.21C4.77345 107.76 4.79094 108.02 4.80957 108.3C4.83091 108.62 4.85254 108.96 4.85254 109.609V112.01C4.85253 112.653 4.83397 112.988 4.81543 113.306C4.79897 113.588 4.78321 113.853 4.7832 114.409C4.7832 114.959 4.80069 115.22 4.81934 115.5C4.84069 115.82 4.86328 116.16 4.86328 116.81C4.86328 117.453 4.84374 117.788 4.8252 118.105C4.80873 118.388 4.79297 118.654 4.79297 119.21C4.79306 119.699 4.95685 120.428 5.27051 121.194C5.506 121.77 5.8645 122.301 6.22559 122.7L6.37988 122.862L6.38672 122.87C7.20413 123.697 7.20205 123.695 8.0293 124.522C8.46653 124.96 8.68398 125.196 8.8916 125.422C9.08187 125.629 9.26207 125.826 9.64941 126.213C10.0465 126.61 10.2488 126.803 10.4561 127C10.6737 127.207 10.8966 127.42 11.3193 127.843C11.7552 128.279 11.9711 128.516 12.1787 128.746C12.3663 128.954 12.5423 129.151 12.9268 129.54C13.324 129.942 13.5239 130.135 13.7285 130.332C13.9438 130.54 14.1643 130.752 14.5869 131.18C15.0063 131.604 15.2139 131.822 15.416 132.033C15.6104 132.236 15.8048 132.438 16.21 132.843C16.5643 133.197 16.7423 133.337 16.9463 133.5C17.2054 133.707 17.4865 133.934 17.957 134.41C18.427 134.886 18.6522 135.171 18.8535 135.426C19.0126 135.627 19.1513 135.804 19.5 136.152C19.8488 136.501 20.0255 136.641 20.2285 136.802C20.4854 137.006 20.7682 137.232 21.2393 137.703C21.6975 138.161 21.921 138.427 22.126 138.673C22.296 138.877 22.4479 139.061 22.8096 139.423C23.1709 139.784 23.3521 139.934 23.5547 140.103C23.8006 140.307 24.0664 140.53 24.5293 140.993C24.9633 141.427 25.1782 141.658 25.3848 141.88C25.4804 141.983 25.574 142.083 25.6924 142.207L26.1494 142.673L26.1572 142.68C26.7015 143.231 27.2458 143.779 27.79 144.323C28.1768 144.71 28.7947 145.136 29.4883 145.431C30.1251 145.702 30.8515 145.819 31.4434 145.819C32.0837 145.819 32.413 145.833 32.7305 145.846C33.0229 145.858 33.3036 145.869 33.8828 145.869C34.5235 145.869 34.8533 145.882 35.1709 145.896C35.4632 145.907 35.7441 145.92 36.3232 145.92C36.8595 145.92 37.1066 145.894 37.3818 145.867C37.7164 145.834 38.0796 145.8 38.7627 145.8C39.3971 145.8 39.7247 145.81 40.041 145.82C40.3374 145.83 40.623 145.84 41.2031 145.84C41.8204 145.84 42.1354 145.845 42.4453 145.85C42.7452 145.855 43.0404 145.859 43.6328 145.859C44.2811 145.859 44.6184 145.879 44.9395 145.897C45.2252 145.914 45.4966 145.93 46.0635 145.93C46.6609 145.93 46.9564 145.925 47.2549 145.92C47.5635 145.915 47.8759 145.909 48.4932 145.909C49.0485 145.909 49.3145 145.892 49.5996 145.873C49.9243 145.852 50.2687 145.829 50.9229 145.829H53.3535C54.0198 145.829 54.3737 145.858 54.7031 145.885C54.9835 145.908 55.24 145.93 55.7832 145.93C56.3142 145.93 56.5612 145.905 56.8369 145.878C57.171 145.845 57.5343 145.81 58.2129 145.81C58.824 145.81 59.134 145.812 59.4414 145.814C59.7439 145.817 60.044 145.819 60.6426 145.819C61.2909 145.819 61.6281 145.839 61.9492 145.857C62.235 145.874 62.5062 145.89 63.0732 145.89H65.5029C66.1201 145.89 66.4325 145.894 66.7412 145.899C67.0397 145.904 67.3352 145.909 67.9326 145.909H70.3633C70.9177 145.909 71.1767 145.89 71.4561 145.869C71.7815 145.845 72.1279 145.819 72.793 145.819C73.3905 145.819 73.6859 145.814 73.9844 145.81C74.293 145.804 74.6055 145.8 75.2227 145.8C75.8771 145.8 76.2195 145.821 76.543 145.843C76.8262 145.861 77.0925 145.88 77.6533 145.88C78.2816 145.88 78.599 145.888 78.9092 145.896C79.2038 145.903 79.4916 145.909 80.083 145.909C80.6438 145.909 80.9075 145.892 81.1895 145.873C81.5123 145.852 81.8539 145.829 82.5127 145.829C83.1533 145.829 83.4832 145.842 83.7998 145.855C84.0911 145.867 84.3694 145.88 84.9434 145.88C85.5294 145.88 85.8198 145.873 86.1172 145.865C86.4296 145.858 86.7496 145.85 87.373 145.85C87.9409 145.85 88.2141 145.836 88.5029 145.821C88.822 145.806 89.1562 145.789 89.8027 145.789C90.4495 145.789 90.7844 145.806 91.1035 145.821C91.3923 145.836 91.6657 145.85 92.2334 145.85C92.8688 145.85 93.1957 145.863 93.5117 145.876C93.8026 145.888 94.0837 145.899 94.6631 145.899C95.1125 145.899 95.799 145.722 96.6279 145.383C97.4298 145.055 98.0442 144.684 98.3662 144.362C98.7645 143.964 98.9599 143.765 99.1572 143.562C99.3599 143.355 99.565 143.144 99.9766 142.732C100.388 142.321 100.598 142.116 100.806 141.913C101.008 141.716 101.208 141.521 101.606 141.123L101.616 141.113C101.618 141.112 101.619 141.11 101.62 141.108L101.625 141.104C101.637 141.091 101.622 141.107 101.635 141.095C101.636 141.093 101.637 141.091 101.639 141.09L101.644 141.085C101.645 141.083 101.647 141.083 101.648 141.081C101.65 141.08 101.651 141.078 101.652 141.076L101.657 141.071C101.659 141.07 101.661 141.069 101.662 141.067L101.676 141.054C101.677 141.052 101.678 141.05 101.68 141.049C101.681 141.047 101.683 141.046 101.685 141.045C101.686 141.043 101.687 141.042 101.688 141.04C101.712 141.016 101.674 141.055 101.697 141.031C101.699 141.03 101.701 141.029 101.702 141.027C101.704 141.026 101.705 141.024 101.706 141.022C101.708 141.021 101.709 141.02 101.711 141.019C101.712 141.017 101.713 141.015 101.715 141.014C101.716 141.012 101.718 141.011 101.72 141.01L101.724 141.006C101.725 141.004 101.726 141.002 101.728 141.001C101.729 141 101.731 140.998 101.732 140.997C101.734 140.996 101.735 140.994 101.736 140.992L101.74 140.988C101.742 140.987 101.744 140.986 101.745 140.984L101.749 140.98C101.75 140.979 101.752 140.977 101.753 140.976C101.754 140.974 101.756 140.973 101.758 140.972C101.768 140.961 101.755 140.974 101.766 140.964C101.767 140.962 101.768 140.96 101.77 140.959L101.773 140.955C101.775 140.954 101.777 140.953 101.778 140.951L101.786 140.943C101.787 140.942 101.789 140.94 101.79 140.938L101.802 140.927C101.803 140.925 101.805 140.924 101.807 140.923L101.838 140.892C101.839 140.89 101.84 140.889 101.841 140.888L101.853 140.876C101.854 140.875 101.855 140.874 101.856 140.873L101.868 140.861C101.869 140.86 101.87 140.859 101.871 140.857L101.875 140.854C101.876 140.852 101.878 140.852 101.879 140.851L101.883 140.847C101.889 140.84 101.883 140.845 101.89 140.839C101.891 140.838 101.892 140.837 101.894 140.836L101.897 140.832C101.899 140.831 101.899 140.829 101.9 140.828L101.904 140.824C101.905 140.823 101.907 140.822 101.908 140.821L101.93 140.8C101.931 140.799 101.932 140.797 101.933 140.796C101.934 140.795 101.935 140.794 101.937 140.793C101.938 140.792 101.938 140.79 101.939 140.789C101.958 140.771 101.928 140.8 101.946 140.782C101.947 140.781 101.949 140.78 101.95 140.779C101.951 140.778 101.952 140.776 101.953 140.775C101.954 140.774 101.956 140.774 101.957 140.772C101.958 140.771 101.959 140.77 101.96 140.769C101.961 140.767 101.963 140.767 101.964 140.766C101.965 140.765 101.966 140.763 101.967 140.762C101.968 140.761 101.97 140.76 101.971 140.759C101.972 140.758 101.973 140.756 101.974 140.755C101.975 140.754 101.976 140.753 101.978 140.752L101.98 140.749C101.982 140.748 101.982 140.746 101.983 140.745C101.984 140.744 101.986 140.743 101.987 140.742C101.988 140.741 101.989 140.739 101.99 140.738C101.991 140.737 101.993 140.736 101.994 140.735C102.003 140.727 101.991 140.737 102 140.729C102.003 140.726 102.004 140.725 102.007 140.723C102.008 140.722 102.009 140.72 102.01 140.719C102.011 140.718 102.013 140.717 102.014 140.716L102.02 140.71C102.021 140.709 102.021 140.707 102.022 140.706C102.024 140.705 102.025 140.704 102.026 140.703L102.032 140.697C102.033 140.696 102.034 140.694 102.035 140.693L102.038 140.69C102.039 140.689 102.041 140.689 102.042 140.688L102.045 140.685C102.05 140.679 102.045 140.683 102.051 140.678L102.057 140.672C102.058 140.671 102.06 140.67 102.061 140.669L102.072 140.657C102.073 140.656 102.074 140.654 102.075 140.653L102.122 140.606C102.123 140.606 102.124 140.605 102.125 140.604L102.14 140.59C102.152 140.578 102.132 140.596 102.145 140.584C102.152 140.577 102.143 140.586 102.15 140.579L102.156 140.573C102.157 140.572 102.157 140.571 102.158 140.57L102.164 140.564C102.165 140.564 102.166 140.563 102.167 140.562L102.173 140.557C102.174 140.556 102.174 140.555 102.175 140.554C102.176 140.553 102.177 140.553 102.178 140.552L102.184 140.546C102.19 140.539 102.181 140.547 102.188 140.54C102.189 140.539 102.191 140.539 102.191 140.538L102.194 140.535C102.195 140.534 102.195 140.533 102.196 140.532C102.197 140.531 102.198 140.531 102.199 140.53L102.202 140.527C102.203 140.527 102.203 140.525 102.204 140.524L102.207 140.521C102.208 140.521 102.209 140.52 102.21 140.52L102.213 140.517C102.214 140.516 102.214 140.514 102.215 140.514C102.216 140.513 102.217 140.513 102.218 140.512L102.221 140.509C102.221 140.508 102.222 140.507 102.223 140.506C102.223 140.505 102.225 140.505 102.226 140.504C102.235 140.495 102.221 140.507 102.23 140.498L102.235 140.493C102.236 140.492 102.238 140.492 102.238 140.491L102.241 140.488C102.242 140.487 102.242 140.486 102.243 140.485C102.244 140.485 102.245 140.484 102.246 140.483C102.248 140.481 102.249 140.48 102.251 140.478C102.252 140.477 102.253 140.476 102.254 140.476C102.255 140.475 102.255 140.473 102.256 140.473C102.257 140.472 102.258 140.471 102.259 140.471L102.262 140.468C102.262 140.467 102.263 140.466 102.264 140.465C102.264 140.464 102.266 140.464 102.267 140.463L102.276 140.453C102.277 140.452 102.278 140.451 102.278 140.45C102.279 140.449 102.28 140.449 102.281 140.448L102.284 140.445C102.285 140.445 102.285 140.443 102.286 140.442C102.287 140.442 102.288 140.441 102.289 140.44C102.29 140.44 102.29 140.438 102.291 140.438L102.296 140.433C102.297 140.432 102.298 140.431 102.299 140.431C102.3 140.43 102.3 140.429 102.301 140.428C102.302 140.427 102.303 140.427 102.304 140.426C102.305 140.425 102.305 140.424 102.306 140.423C102.317 140.412 102.3 140.429 102.311 140.418C102.311 140.417 102.313 140.417 102.313 140.416C102.314 140.415 102.315 140.414 102.315 140.413C102.316 140.412 102.318 140.412 102.318 140.411C102.319 140.41 102.32 140.409 102.32 140.408C102.321 140.407 102.322 140.407 102.323 140.406C102.324 140.405 102.324 140.404 102.325 140.403C102.326 140.403 102.327 140.402 102.328 140.401C102.329 140.401 102.329 140.399 102.33 140.398L102.335 140.394C102.336 140.393 102.337 140.392 102.338 140.392C102.339 140.391 102.339 140.389 102.34 140.389C102.341 140.388 102.342 140.387 102.343 140.387L102.354 140.375C102.355 140.374 102.356 140.373 102.356 140.372C102.357 140.371 102.359 140.371 102.359 140.37C102.36 140.369 102.361 140.368 102.361 140.367C102.362 140.366 102.363 140.366 102.364 140.365C102.365 140.364 102.365 140.363 102.366 140.362C102.367 140.362 102.368 140.361 102.369 140.36L102.371 140.358C102.372 140.358 102.372 140.356 102.373 140.355C102.374 140.355 102.375 140.354 102.376 140.354C102.377 140.353 102.377 140.351 102.378 140.351C102.379 140.35 102.38 140.349 102.381 140.349C102.382 140.348 102.382 140.346 102.383 140.346C102.391 140.337 102.379 140.349 102.388 140.341C102.388 140.34 102.39 140.34 102.391 140.339L102.393 140.337C102.393 140.336 102.394 140.335 102.395 140.334C102.395 140.333 102.397 140.333 102.397 140.332C102.398 140.331 102.399 140.33 102.399 140.329C102.4 140.328 102.402 140.328 102.402 140.327C102.403 140.326 102.404 140.325 102.404 140.324C102.405 140.323 102.406 140.323 102.407 140.322C102.409 140.32 102.409 140.319 102.411 140.317C102.412 140.317 102.413 140.316 102.414 140.315C102.415 140.315 102.415 140.313 102.416 140.312C102.417 140.312 102.418 140.311 102.419 140.311C102.42 140.31 102.42 140.308 102.421 140.308C102.422 140.307 102.423 140.306 102.424 140.306L102.426 140.304C102.427 140.303 102.427 140.302 102.428 140.301C102.429 140.3 102.43 140.3 102.431 140.299C102.431 140.298 102.432 140.297 102.433 140.296C102.433 140.295 102.435 140.295 102.436 140.294C102.436 140.293 102.437 140.292 102.438 140.291C102.438 140.29 102.44 140.29 102.44 140.289L102.442 140.287C102.443 140.286 102.444 140.285 102.444 140.284C102.445 140.283 102.447 140.283 102.447 140.282C102.448 140.281 102.448 140.28 102.449 140.279C102.45 140.279 102.451 140.278 102.452 140.277C102.453 140.277 102.453 140.275 102.454 140.274C102.455 140.274 102.456 140.273 102.457 140.272C102.458 140.272 102.458 140.27 102.459 140.27C102.469 140.259 102.454 140.276 102.464 140.266C102.465 140.265 102.465 140.263 102.466 140.263C102.467 140.262 102.468 140.262 102.469 140.261C102.47 140.26 102.47 140.259 102.471 140.258C102.472 140.257 102.473 140.257 102.474 140.256C102.474 140.255 102.475 140.254 102.476 140.253C102.476 140.252 102.478 140.252 102.479 140.251C102.479 140.25 102.48 140.249 102.48 140.248C102.481 140.247 102.483 140.247 102.483 140.246L102.49 140.239C102.491 140.239 102.491 140.237 102.492 140.236C102.493 140.236 102.494 140.235 102.495 140.234C102.496 140.234 102.496 140.232 102.497 140.231L102.507 140.222C102.508 140.221 102.509 140.221 102.51 140.22C102.511 140.219 102.511 140.218 102.512 140.217C102.513 140.216 102.514 140.216 102.515 140.215C102.515 140.214 102.516 140.213 102.517 140.212L102.521 140.207C102.522 140.206 102.524 140.206 102.524 140.205C102.525 140.204 102.526 140.203 102.526 140.202C102.527 140.201 102.528 140.201 102.529 140.2C102.53 140.199 102.53 140.198 102.531 140.197C102.532 140.196 102.533 140.196 102.534 140.195C102.535 140.195 102.535 140.193 102.536 140.192L102.546 140.183C102.547 140.182 102.548 140.181 102.549 140.181L102.557 140.173C102.557 140.172 102.558 140.171 102.559 140.17C102.559 140.169 102.561 140.169 102.562 140.168C102.562 140.167 102.563 140.166 102.563 140.165C102.564 140.164 102.566 140.164 102.566 140.163C102.567 140.162 102.568 140.161 102.568 140.16C102.569 140.159 102.571 140.159 102.571 140.158L102.574 140.155C102.575 140.154 102.575 140.153 102.576 140.152C102.577 140.152 102.578 140.151 102.579 140.15C102.58 140.15 102.58 140.148 102.581 140.147C102.582 140.147 102.583 140.146 102.584 140.146L102.587 140.143C102.588 140.142 102.588 140.14 102.589 140.14C102.59 140.139 102.591 140.139 102.592 140.138C102.593 140.137 102.593 140.136 102.594 140.135L102.597 140.132C102.597 140.131 102.599 140.131 102.6 140.13C102.6 140.129 102.601 140.128 102.602 140.127C102.602 140.126 102.604 140.126 102.604 140.125L102.607 140.122C102.608 140.121 102.609 140.12 102.609 140.119C102.61 140.118 102.612 140.118 102.612 140.117L102.615 140.114C102.616 140.113 102.616 140.112 102.617 140.111C102.629 140.1 102.611 140.118 102.623 140.106C102.625 140.104 102.626 140.103 102.628 140.101C102.629 140.1 102.63 140.099 102.631 140.099L102.634 140.096C102.635 140.095 102.635 140.094 102.636 140.093C102.637 140.092 102.638 140.092 102.639 140.091L102.642 140.088C102.642 140.087 102.643 140.086 102.644 140.085L102.646 140.082C102.647 140.081 102.649 140.081 102.649 140.08L102.652 140.077C102.653 140.076 102.653 140.075 102.654 140.074L102.657 140.071C102.658 140.07 102.659 140.07 102.66 140.069L102.666 140.063C102.667 140.063 102.667 140.061 102.668 140.061L102.671 140.058C102.672 140.057 102.673 140.056 102.674 140.056L102.683 140.047C102.683 140.046 102.684 140.045 102.685 140.044L102.69 140.038C102.691 140.037 102.693 140.037 102.693 140.036L102.705 140.024C102.715 140.015 102.7 140.028 102.71 140.019L102.757 139.972C102.76 139.969 102.761 139.969 102.764 139.966L102.772 139.957C102.773 139.956 102.774 139.954 102.775 139.953L102.781 139.947C102.787 139.942 102.783 139.947 102.788 139.941L102.791 139.938C102.792 139.937 102.793 139.936 102.794 139.935L102.797 139.932C102.798 139.931 102.8 139.93 102.801 139.929C102.817 139.913 102.79 139.939 102.807 139.923C102.812 139.917 102.807 139.921 102.812 139.916C102.814 139.915 102.815 139.914 102.816 139.913L102.819 139.91C102.82 139.909 102.821 139.907 102.822 139.906C102.823 139.905 102.825 139.904 102.826 139.903L102.829 139.9C102.83 139.899 102.831 139.898 102.832 139.896C102.833 139.895 102.835 139.895 102.836 139.894L102.839 139.891C102.84 139.89 102.841 139.888 102.842 139.887C102.843 139.886 102.845 139.885 102.846 139.884C102.847 139.883 102.848 139.881 102.849 139.88L102.865 139.863C102.866 139.862 102.868 139.861 102.869 139.86C102.87 139.859 102.871 139.858 102.872 139.856C102.873 139.855 102.875 139.855 102.876 139.854C102.877 139.852 102.878 139.851 102.879 139.85C102.88 139.849 102.882 139.848 102.883 139.847C102.884 139.846 102.885 139.844 102.886 139.843C102.887 139.842 102.889 139.841 102.89 139.84C102.891 139.839 102.891 139.837 102.893 139.836C102.894 139.835 102.895 139.834 102.896 139.833C102.898 139.832 102.898 139.83 102.899 139.829C102.901 139.828 102.902 139.827 102.903 139.826L102.914 139.815C102.915 139.814 102.916 139.813 102.917 139.812C102.918 139.81 102.92 139.81 102.921 139.809L102.925 139.805C102.926 139.804 102.927 139.802 102.928 139.801L102.932 139.797C102.933 139.796 102.934 139.795 102.936 139.794C102.939 139.791 102.939 139.789 102.942 139.786C102.944 139.785 102.945 139.784 102.946 139.783L102.954 139.775C102.955 139.774 102.956 139.773 102.957 139.771L102.961 139.768C102.962 139.766 102.964 139.766 102.965 139.765L102.973 139.757C102.974 139.756 102.974 139.754 102.976 139.753L102.987 139.741C102.988 139.74 102.99 139.739 102.991 139.738L103.026 139.703C103.044 139.685 103.017 139.712 103.034 139.694L103.042 139.687C103.043 139.685 103.046 139.684 103.047 139.683L103.059 139.671C103.066 139.664 103.059 139.669 103.066 139.662C103.068 139.661 103.07 139.66 103.071 139.658L103.075 139.654C103.077 139.653 103.078 139.651 103.079 139.649C103.08 139.648 103.083 139.647 103.084 139.646L103.088 139.642C103.089 139.64 103.09 139.638 103.092 139.637C103.103 139.626 103.089 139.64 103.101 139.629C103.102 139.627 103.103 139.625 103.104 139.624C103.106 139.623 103.108 139.622 103.109 139.62L103.113 139.616C103.115 139.615 103.116 139.613 103.117 139.611C103.119 139.61 103.121 139.609 103.122 139.607C103.124 139.606 103.125 139.604 103.126 139.603L103.135 139.594C103.136 139.592 103.138 139.591 103.14 139.59C103.141 139.588 103.142 139.586 103.144 139.585C103.145 139.584 103.147 139.583 103.148 139.581C103.15 139.58 103.151 139.578 103.152 139.576C103.154 139.575 103.156 139.574 103.157 139.572C103.159 139.571 103.16 139.569 103.161 139.567C103.173 139.555 103.159 139.571 103.171 139.559C103.172 139.557 103.173 139.555 103.175 139.554C103.176 139.552 103.178 139.551 103.18 139.55L103.185 139.545C103.186 139.543 103.187 139.542 103.188 139.54L103.193 139.535C103.195 139.534 103.197 139.533 103.198 139.531L103.203 139.526C103.205 139.525 103.206 139.523 103.207 139.521L103.212 139.517C103.213 139.515 103.215 139.514 103.217 139.513L103.227 139.503C103.586 139.144 103.737 138.963 103.905 138.763C104.107 138.523 104.326 138.263 104.776 137.812C105.194 137.395 105.412 137.187 105.625 136.984C105.827 136.792 106.024 136.605 106.416 136.213C106.844 135.785 107.076 135.572 107.302 135.366C107.508 135.178 107.702 135.003 108.084 134.626C108.892 133.828 108.889 133.83 109.696 133.022C110.111 132.608 110.324 132.403 110.533 132.201C110.734 132.008 110.931 131.818 111.326 131.423C111.675 131.074 112.08 130.442 112.386 129.694C112.694 128.941 112.852 128.209 112.853 127.71C112.853 127.144 112.846 126.869 112.839 126.587C112.831 126.289 112.823 125.984 112.823 125.38C112.823 124.814 112.816 124.539 112.809 124.257C112.801 123.959 112.793 123.654 112.793 123.05C112.793 122.426 112.809 122.103 112.825 121.796C112.839 121.52 112.853 121.261 112.853 120.72C112.853 120.198 112.833 119.954 112.812 119.688C112.788 119.374 112.763 119.037 112.763 118.399C112.763 117.794 112.774 117.483 112.784 117.183C112.794 116.903 112.803 116.633 112.803 116.079C112.803 115.486 112.808 115.186 112.813 114.891C112.818 114.606 112.823 114.326 112.823 113.76C112.823 113.16 112.831 112.855 112.839 112.557C112.846 112.275 112.853 112 112.853 111.439C112.853 110.885 112.844 110.615 112.834 110.336C112.824 110.035 112.813 109.725 112.813 109.119C112.813 108.572 112.801 108.307 112.789 108.03C112.776 107.727 112.763 107.412 112.763 106.8C112.763 106.136 112.802 105.78 112.838 105.456C112.867 105.2 112.893 104.976 112.893 104.479V102.159C112.893 101.605 112.884 101.336 112.874 101.057C112.864 100.756 112.853 100.445 112.853 99.8398C112.853 99.2856 112.844 99.0157 112.834 98.7363C112.824 98.4357 112.813 98.1253 112.813 97.5195C112.813 96.888 112.835 96.5571 112.856 96.2461C112.875 95.9771 112.893 95.7276 112.893 95.1992C112.892 94.8816 112.745 94.5445 112.526 94.3262C112.329 94.1286 112 93.9796 111.653 93.9795C111.076 93.9795 110.791 93.9844 110.501 93.9893C110.201 93.9943 109.896 94 109.293 94H106.933C106.318 94 106.003 93.9889 105.697 93.9785C105.413 93.9689 105.138 93.96 104.573 93.96C104.009 93.96 103.734 93.9689 103.449 93.9785C103.144 93.9889 102.828 94 102.213 94C101.642 94 101.36 94.0064 101.071 94.0137C100.768 94.0214 100.457 94.0293 99.8535 94.0293C99.2432 94.0293 98.9299 94.0191 98.626 94.0088C98.3429 93.9992 98.0676 93.9893 97.5029 93.9893C96.9383 93.9893 96.663 93.9992 96.3799 94.0088C96.0761 94.0191 95.7634 94.0293 95.1533 94.0293H92.8027C92.2309 94.0293 91.946 94.0341 91.6562 94.0391C91.3561 94.0442 91.0508 94.0498 90.4531 94.0498C89.8554 94.0498 89.5501 94.0442 89.25 94.0391C88.9602 94.0341 88.6754 94.0293 88.1035 94.0293C87.4803 94.0293 87.1541 94.0128 86.8438 93.9971C86.5642 93.9829 86.2994 93.9697 85.7529 93.9697C85.1744 93.9697 84.8869 93.9721 84.5957 93.9746C84.2994 93.9771 83.9994 93.9795 83.4033 93.9795C82.4766 93.9795 81.2906 93.8402 80.1582 93.377C79.0531 92.9249 78.0834 92.2231 77.3965 91.5361C76.9787 91.1184 76.771 90.9004 76.5684 90.6875C76.3761 90.4855 76.1878 90.2884 75.7959 89.8965C75.4203 89.5209 75.2299 89.3503 75.0273 89.1689C74.7999 88.9653 74.5603 88.7507 74.126 88.3164C73.7343 87.9248 73.5378 87.7371 73.3359 87.5449C73.1229 87.3422 72.9044 87.1339 72.4863 86.7158C72.0228 86.2523 71.8005 85.9767 71.5996 85.7256C71.4406 85.5268 71.3023 85.3521 70.9561 85.0059C70.5514 84.6012 70.3489 84.3987 70.1465 84.1963C69.944 83.9938 69.7409 83.7917 69.3359 83.3867C68.9735 83.0243 68.7922 82.87 68.5938 82.7012C68.3573 82.5001 68.1037 82.2834 67.6562 81.8359C67.2546 81.4343 67.0546 81.2367 66.8535 81.0381C66.6497 80.8368 66.4442 80.6346 66.0361 80.2266C65.6411 79.8315 65.4439 79.6416 65.2432 79.4482C65.034 79.2467 64.8211 79.0408 64.4062 78.626V78.625C63.6526 77.8807 63.0275 76.852 62.6016 75.8389C62.1145 74.6802 62.0029 73.4771 62.0029 72.5791C62.0029 71.997 61.9981 71.7092 61.9932 71.417C61.9881 71.1144 61.9834 70.8066 61.9834 70.1992C61.9834 69.6423 61.9693 69.3747 61.9551 69.0928C61.9393 68.7798 61.9229 68.452 61.9229 67.8193V65.4395C61.9229 64.8684 61.9155 64.5858 61.9082 64.2959C61.9005 63.9908 61.8926 63.6781 61.8926 63.0693C61.8926 62.4921 61.8877 62.2045 61.8828 61.9121C61.8777 61.6096 61.873 61.3017 61.873 60.6992V55.96C61.873 55.3447 61.8832 55.0264 61.8936 54.7188C61.9032 54.4316 61.9131 54.1542 61.9131 53.5898C61.9131 53.0315 61.9016 52.7584 61.8896 52.4736C61.8766 52.1636 61.8633 51.8411 61.8633 51.2197C61.8633 50.5792 61.8849 50.2415 61.9062 49.9238C61.9249 49.6465 61.9434 49.389 61.9434 48.8496C61.9434 48.2978 61.9293 48.0302 61.915 47.748C61.8993 47.4354 61.8828 47.1074 61.8828 46.4795V44.1094C61.8828 43.5006 61.8907 43.1905 61.8984 42.8867C61.9057 42.5984 61.9131 42.3154 61.9131 41.7393C61.9131 41.1634 61.9057 40.881 61.8984 40.5928C61.8907 40.2889 61.8828 39.9782 61.8828 39.3691C61.8828 38.735 61.9024 38.4048 61.9209 38.0908C61.9373 37.8131 61.9531 37.5506 61.9531 37C61.9531 36.4239 61.9458 36.1435 61.9385 35.8564C61.9308 35.5536 61.9229 35.2436 61.9229 34.6299C61.9229 34.0601 61.9139 33.7844 61.9043 33.5C61.8939 33.1946 61.8828 32.8796 61.8828 32.2598C61.8828 31.6461 61.8907 31.3334 61.8984 31.0293C61.9058 30.7407 61.9131 30.4605 61.9131 29.8896C61.9131 29.2933 61.9155 28.9931 61.918 28.6943C61.9204 28.4007 61.9229 28.1082 61.9229 27.5195C61.9229 26.9561 61.9114 26.6861 61.8994 26.4043C61.8864 26.0961 61.873 25.7759 61.873 25.1494C61.8731 24.5106 61.8925 24.1805 61.9111 23.8672C61.9275 23.5907 61.9434 23.3301 61.9434 22.7793C61.9434 22.2096 61.9335 21.9321 61.9238 21.6465C61.9135 21.34 61.9033 21.0245 61.9033 20.4092C61.9033 19.7942 61.9135 19.4765 61.9238 19.1689C61.9335 18.8816 61.9434 18.6037 61.9434 18.0391C61.9434 17.4113 61.9598 17.0858 61.9756 16.7744C61.9898 16.4942 62.0029 16.2267 62.0029 15.6699V13.2998C62.0029 12.7227 61.9981 12.4375 61.9932 12.1465C61.9881 11.845 61.9834 11.5372 61.9834 10.9297C61.9834 10.3412 61.981 10.051 61.9785 9.75879C61.976 9.46116 61.9727 9.16082 61.9727 8.55957C61.9727 7.95203 61.9783 7.6443 61.9834 7.34277C61.9883 7.05169 61.9932 6.76665 61.9932 6.18945ZM65.2832 7.39844C65.2783 7.68941 65.2734 7.97711 65.2734 8.55957C65.2734 9.14817 65.2759 9.43817 65.2783 9.73047C65.2808 10.0281 65.2832 10.3284 65.2832 10.9297C65.2832 11.512 65.2881 11.7999 65.293 12.0908C65.2981 12.392 65.3027 12.6974 65.3027 13.2998V15.6699C65.3027 16.3022 65.2863 16.6295 65.2705 16.9414C65.2563 17.2223 65.2432 17.4874 65.2432 18.0391C65.2432 18.6543 65.232 18.9726 65.2217 19.2803C65.212 19.5674 65.2031 19.8449 65.2031 20.4092C65.2031 20.9738 65.212 21.2491 65.2217 21.5352C65.232 21.8419 65.2432 22.1593 65.2432 22.7793C65.2432 23.4185 65.2237 23.749 65.2051 24.0625C65.1887 24.3389 65.1729 24.5988 65.1729 25.1494C65.1729 25.7128 65.1844 25.9829 65.1963 26.2646C65.2093 26.5729 65.2227 26.893 65.2227 27.5195C65.2227 28.1205 65.2203 28.4229 65.2178 28.7217C65.2153 29.0154 65.2129 29.306 65.2129 29.8896C65.2129 30.4984 65.205 30.8085 65.1973 31.1123C65.19 31.4006 65.1826 31.6836 65.1826 32.2598C65.1826 32.8294 65.1925 33.1043 65.2021 33.3887C65.2125 33.6943 65.2227 34.0097 65.2227 34.6299C65.2227 35.2056 65.23 35.4855 65.2373 35.7725C65.245 36.0754 65.2529 36.3861 65.2529 37C65.2529 37.6384 65.2334 37.9707 65.2148 38.2852C65.1984 38.5636 65.1826 38.8238 65.1826 39.3691C65.1826 39.94 65.19 40.2203 65.1973 40.5088C65.205 40.8129 65.2129 41.1256 65.2129 41.7393C65.2129 42.3529 65.205 42.6657 65.1973 42.9697C65.19 43.2583 65.1826 43.5385 65.1826 44.1094V46.4795C65.1826 47.0314 65.1967 47.2989 65.2109 47.5811C65.2267 47.8937 65.2432 48.2217 65.2432 48.8496C65.2432 49.4901 65.2206 49.8279 65.1992 50.1455C65.1806 50.4227 65.1631 50.6805 65.1631 51.2197C65.1631 51.7778 65.1745 52.0503 65.1865 52.335C65.1996 52.6451 65.2129 52.9682 65.2129 53.5898C65.2129 54.2049 65.2027 54.5225 65.1924 54.8301C65.1827 55.1174 65.1729 55.3953 65.1729 55.96V60.6992C65.1729 61.2764 65.1777 61.5641 65.1826 61.8564C65.1877 62.159 65.1934 62.4668 65.1934 63.0693C65.1934 63.6403 65.1997 63.923 65.207 64.2129C65.2147 64.518 65.2227 64.8306 65.2227 65.4395V67.8193C65.2227 68.3766 65.2368 68.6447 65.251 68.9268C65.2667 69.2396 65.2832 69.5669 65.2832 70.1992C65.2832 70.7813 65.2881 71.0692 65.293 71.3613C65.2981 71.6639 65.3027 71.9718 65.3027 72.5791C65.3027 73.241 65.3918 73.9584 65.6445 74.5596C65.9175 75.2087 66.2666 75.7691 66.5918 76.1367L66.7295 76.2822L66.7344 76.2871L66.7393 76.293C67.1344 76.6881 67.3324 76.8778 67.5332 77.0713C67.7423 77.2728 67.9554 77.4779 68.3701 77.8926C68.7718 78.2943 68.9717 78.4918 69.1729 78.6904C69.3767 78.8917 69.5812 79.0948 69.9893 79.5029C70.3517 79.8654 70.5339 80.0187 70.7324 80.1875C70.9689 80.3886 71.2225 80.6053 71.6699 81.0527L73.29 82.6729C73.7537 83.1366 73.9758 83.4128 74.1768 83.6641C74.3356 83.8627 74.4734 84.0369 74.8193 84.3828C75.2112 84.7747 75.4084 84.9621 75.6104 85.1543C75.8233 85.357 76.042 85.5644 76.46 85.9824C76.8355 86.358 77.0261 86.5287 77.2285 86.71C77.4559 86.9136 77.6956 87.1282 78.1299 87.5625C78.5479 87.9806 78.7553 88.1991 78.958 88.4121C79.1503 88.6141 79.3375 88.8112 79.7295 89.2031C80.1426 89.6162 80.7533 90.0544 81.4082 90.3223C82.0357 90.5789 82.7702 90.6797 83.4033 90.6797C83.9866 90.6797 84.2765 90.6773 84.5674 90.6748C84.8637 90.6723 85.1616 90.6699 85.7529 90.6699C86.3761 90.6699 86.7014 90.6854 87.0117 90.7012C87.2914 90.7154 87.5567 90.7295 88.1035 90.7295C88.7007 90.7295 89.0057 90.7351 89.3057 90.7402C89.5955 90.7452 89.8809 90.75 90.4531 90.75C91.025 90.75 91.3099 90.7451 91.5996 90.7402C91.8997 90.7351 92.2052 90.7295 92.8027 90.7295H95.1533C95.7125 90.7295 95.9851 90.7206 96.2686 90.7109C96.5728 90.7006 96.8879 90.6895 97.5029 90.6895C98.1183 90.6895 98.4339 90.7006 98.7383 90.7109C99.0216 90.7206 99.2944 90.7295 99.8535 90.7295C100.419 90.7295 100.699 90.7222 100.987 90.7148C101.291 90.7071 101.604 90.6992 102.213 90.6992C102.777 90.6992 103.052 90.6903 103.337 90.6807C103.642 90.6703 103.958 90.6592 104.573 90.6592C105.188 90.6592 105.503 90.6703 105.809 90.6807C106.093 90.6903 106.368 90.6992 106.933 90.6992H109.293C109.87 90.6992 110.156 90.6944 110.445 90.6895C110.745 90.6844 111.051 90.6797 111.653 90.6797C112.867 90.6798 114.037 91.1709 114.859 91.9932C115.661 92.7947 116.193 93.9571 116.193 95.1992C116.193 95.8305 116.171 96.1617 116.149 96.4727C116.131 96.7416 116.113 96.9911 116.113 97.5195C116.113 98.0738 116.122 98.3436 116.132 98.623C116.142 98.9235 116.153 99.2343 116.153 99.8398C116.153 100.394 116.162 100.663 116.172 100.942C116.182 101.243 116.193 101.554 116.193 102.159V104.479C116.193 105.143 116.154 105.5 116.118 105.823C116.089 106.08 116.063 106.304 116.063 106.8C116.063 107.347 116.075 107.612 116.087 107.889C116.1 108.192 116.113 108.507 116.113 109.119C116.113 109.673 116.122 109.943 116.132 110.223C116.142 110.523 116.153 110.834 116.153 111.439C116.153 112.039 116.145 112.345 116.138 112.643C116.13 112.924 116.123 113.199 116.123 113.76C116.123 114.353 116.117 114.653 116.112 114.948C116.107 115.233 116.103 115.512 116.103 116.079C116.103 116.685 116.092 116.995 116.082 117.296C116.072 117.575 116.063 117.845 116.063 118.399C116.063 118.921 116.083 119.165 116.104 119.432C116.128 119.745 116.153 120.082 116.153 120.72C116.153 121.338 116.137 121.659 116.121 121.966C116.107 122.241 116.093 122.503 116.093 123.05C116.093 123.615 116.1 123.89 116.107 124.172C116.115 124.47 116.123 124.776 116.123 125.38C116.123 125.945 116.13 126.22 116.138 126.502C116.145 126.8 116.153 127.106 116.153 127.71C116.153 128.77 115.852 129.938 115.44 130.944C115.026 131.957 114.411 133.005 113.66 133.756C113.245 134.171 113.032 134.377 112.823 134.578C112.622 134.772 112.424 134.961 112.029 135.356C111.217 136.168 111.215 136.171 110.402 136.974C109.975 137.396 109.743 137.605 109.524 137.805C109.325 137.987 109.132 138.164 108.75 138.546C108.332 138.964 108.113 139.172 107.9 139.375C107.698 139.567 107.501 139.755 107.109 140.146C106.75 140.506 106.599 140.687 106.431 140.887C106.229 141.127 106.01 141.385 105.56 141.836L105.55 141.846C105.548 141.847 105.547 141.849 105.546 141.851L105.541 141.855C105.529 141.868 105.544 141.852 105.531 141.864C105.53 141.866 105.529 141.868 105.527 141.869L105.522 141.874C105.521 141.875 105.519 141.876 105.518 141.878C105.516 141.879 105.515 141.881 105.514 141.883L105.509 141.888C105.507 141.889 105.505 141.89 105.504 141.892C105.5 141.896 105.499 141.897 105.495 141.901C105.494 141.903 105.492 141.904 105.49 141.905C105.489 141.907 105.488 141.909 105.486 141.91C105.485 141.912 105.483 141.913 105.481 141.914C105.48 141.916 105.479 141.917 105.478 141.919C105.454 141.943 105.492 141.904 105.469 141.928C105.467 141.929 105.465 141.93 105.464 141.932C105.462 141.933 105.461 141.935 105.46 141.937C105.459 141.938 105.457 141.939 105.455 141.94C105.454 141.942 105.453 141.944 105.451 141.945C105.45 141.947 105.448 141.948 105.446 141.949L105.442 141.953C105.441 141.955 105.44 141.957 105.438 141.958C105.437 141.959 105.435 141.96 105.434 141.962C105.432 141.963 105.431 141.965 105.43 141.967L105.426 141.971C105.424 141.972 105.422 141.973 105.421 141.975C105.42 141.976 105.418 141.978 105.417 141.979L105.413 141.983C105.412 141.985 105.41 141.986 105.408 141.987C105.397 141.998 105.411 141.985 105.4 141.996L105.393 142.004C105.391 142.005 105.389 142.006 105.388 142.008L105.38 142.016C105.379 142.017 105.377 142.019 105.376 142.021L105.364 142.032C105.363 142.034 105.361 142.035 105.359 142.036L105.328 142.067C105.327 142.069 105.326 142.07 105.325 142.071L105.31 142.087C105.308 142.088 105.307 142.089 105.306 142.09L105.298 142.098C105.297 142.099 105.296 142.1 105.295 142.102L105.287 142.109C105.286 142.111 105.284 142.111 105.283 142.112C105.277 142.119 105.283 142.114 105.276 142.12L105.272 142.124C105.271 142.125 105.27 142.126 105.269 142.127C105.267 142.128 105.267 142.13 105.266 142.131L105.262 142.135C105.261 142.136 105.259 142.137 105.258 142.138L105.247 142.148C105.244 142.152 105.243 142.153 105.24 142.156C105.239 142.157 105.237 142.158 105.236 142.159C105.235 142.16 105.235 142.162 105.233 142.163C105.232 142.164 105.231 142.165 105.229 142.166C105.228 142.167 105.228 142.169 105.227 142.17C105.208 142.188 105.238 142.159 105.22 142.177C105.219 142.178 105.217 142.179 105.216 142.18C105.215 142.181 105.214 142.183 105.213 142.184C105.212 142.185 105.21 142.185 105.209 142.187C105.208 142.188 105.207 142.189 105.206 142.19C105.205 142.192 105.203 142.192 105.202 142.193C105.201 142.194 105.2 142.196 105.199 142.197C105.198 142.198 105.196 142.199 105.195 142.2C105.194 142.201 105.193 142.203 105.192 142.204C105.191 142.205 105.19 142.206 105.188 142.207C105.187 142.208 105.187 142.21 105.186 142.211L105.183 142.214C105.182 142.215 105.18 142.216 105.179 142.217C105.178 142.218 105.177 142.22 105.176 142.221C105.175 142.222 105.173 142.223 105.172 142.224C105.163 142.232 105.175 142.222 105.166 142.23C105.163 142.233 105.162 142.234 105.159 142.236C105.158 142.237 105.157 142.239 105.156 142.24C105.155 142.241 105.153 142.242 105.152 142.243L105.149 142.246C105.148 142.247 105.148 142.249 105.146 142.25L105.144 142.253C105.142 142.254 105.141 142.255 105.14 142.256L105.137 142.259C105.136 142.26 105.135 142.262 105.134 142.263L105.128 142.269C105.127 142.27 105.125 142.27 105.124 142.271L105.121 142.274C105.116 142.28 105.121 142.276 105.115 142.281L105.109 142.287C105.108 142.288 105.106 142.289 105.105 142.29L105.094 142.302C105.093 142.303 105.092 142.305 105.091 142.306L105.041 142.355C105.04 142.356 105.039 142.357 105.038 142.357L105.026 142.369C105.014 142.381 105.034 142.363 105.021 142.375C105.014 142.382 105.023 142.373 105.016 142.38L105.01 142.386C105.009 142.387 105.009 142.388 105.008 142.389L105.002 142.395C105.001 142.395 105 142.396 104.999 142.396L104.993 142.402C104.992 142.403 104.992 142.404 104.991 142.405L104.988 142.408C104.987 142.409 104.986 142.409 104.985 142.41L104.982 142.413C104.976 142.42 104.985 142.412 104.978 142.419C104.977 142.42 104.975 142.42 104.975 142.421L104.972 142.424C104.971 142.425 104.971 142.426 104.97 142.427C104.969 142.428 104.968 142.428 104.967 142.429L104.964 142.432C104.963 142.432 104.963 142.434 104.962 142.435L104.959 142.438C104.958 142.438 104.957 142.439 104.956 142.439L104.953 142.442C104.952 142.443 104.952 142.445 104.951 142.445C104.95 142.446 104.949 142.446 104.948 142.447L104.945 142.45C104.945 142.451 104.944 142.452 104.943 142.453C104.943 142.454 104.941 142.454 104.94 142.455C104.931 142.464 104.945 142.452 104.936 142.461L104.928 142.469C104.927 142.47 104.926 142.47 104.925 142.471C104.924 142.472 104.924 142.473 104.923 142.474C104.922 142.474 104.921 142.475 104.92 142.476C104.918 142.478 104.917 142.479 104.915 142.481C104.914 142.482 104.913 142.483 104.912 142.483C104.911 142.484 104.911 142.486 104.91 142.486C104.909 142.487 104.908 142.487 104.907 142.488L104.904 142.491C104.904 142.492 104.903 142.493 104.902 142.494C104.902 142.495 104.9 142.495 104.899 142.496L104.89 142.506C104.889 142.507 104.888 142.508 104.888 142.509L104.885 142.512C104.884 142.512 104.883 142.513 104.882 142.514C104.881 142.514 104.881 142.516 104.88 142.517C104.879 142.517 104.878 142.518 104.877 142.519C104.876 142.519 104.876 142.521 104.875 142.521L104.87 142.526C104.869 142.527 104.868 142.528 104.867 142.528C104.866 142.529 104.866 142.53 104.865 142.531C104.864 142.532 104.863 142.532 104.862 142.533C104.861 142.534 104.861 142.535 104.86 142.536C104.849 142.547 104.866 142.53 104.855 142.541C104.855 142.542 104.853 142.542 104.853 142.543C104.852 142.544 104.851 142.545 104.851 142.546C104.85 142.547 104.848 142.547 104.848 142.548C104.847 142.549 104.847 142.55 104.846 142.551C104.845 142.552 104.844 142.552 104.843 142.553C104.842 142.554 104.842 142.555 104.841 142.556C104.84 142.556 104.839 142.557 104.838 142.558C104.837 142.558 104.837 142.56 104.836 142.561L104.831 142.565C104.83 142.566 104.829 142.567 104.828 142.567C104.827 142.568 104.827 142.57 104.826 142.57C104.825 142.571 104.824 142.572 104.823 142.572C104.823 142.573 104.822 142.574 104.821 142.575C104.813 142.583 104.824 142.571 104.816 142.579L104.812 142.584C104.811 142.585 104.81 142.586 104.81 142.587C104.809 142.588 104.807 142.588 104.807 142.589C104.806 142.59 104.805 142.591 104.805 142.592C104.804 142.593 104.803 142.593 104.802 142.594C104.801 142.595 104.801 142.596 104.8 142.597C104.799 142.597 104.798 142.598 104.797 142.599C104.796 142.599 104.796 142.601 104.795 142.602L104.793 142.604C104.792 142.604 104.791 142.605 104.79 142.605C104.789 142.606 104.789 142.608 104.788 142.608C104.787 142.609 104.786 142.61 104.785 142.61C104.784 142.611 104.784 142.612 104.783 142.613C104.775 142.622 104.787 142.61 104.778 142.618C104.778 142.619 104.776 142.619 104.775 142.62L104.773 142.622C104.773 142.623 104.772 142.624 104.771 142.625C104.771 142.626 104.769 142.626 104.769 142.627C104.768 142.628 104.767 142.629 104.767 142.63C104.766 142.631 104.764 142.631 104.764 142.632C104.763 142.633 104.762 142.634 104.762 142.635C104.761 142.636 104.76 142.636 104.759 142.637C104.757 142.639 104.757 142.64 104.755 142.642C104.754 142.642 104.753 142.643 104.752 142.644C104.751 142.644 104.751 142.646 104.75 142.646C104.749 142.647 104.748 142.648 104.747 142.648C104.746 142.649 104.746 142.651 104.745 142.651C104.744 142.652 104.743 142.653 104.742 142.653L104.74 142.655C104.739 142.656 104.739 142.657 104.738 142.658C104.738 142.659 104.736 142.659 104.735 142.66C104.735 142.661 104.734 142.662 104.733 142.663C104.733 142.664 104.731 142.664 104.73 142.665C104.73 142.666 104.729 142.667 104.729 142.668C104.728 142.669 104.726 142.669 104.726 142.67C104.725 142.671 104.724 142.672 104.724 142.673L104.722 142.675C104.721 142.676 104.719 142.676 104.719 142.677C104.718 142.678 104.718 142.679 104.717 142.68C104.716 142.68 104.715 142.681 104.714 142.682C104.713 142.682 104.713 142.684 104.712 142.685C104.711 142.685 104.71 142.686 104.709 142.687C104.708 142.687 104.708 142.689 104.707 142.689C104.697 142.7 104.712 142.683 104.702 142.693C104.701 142.694 104.701 142.696 104.7 142.696C104.699 142.697 104.698 142.697 104.697 142.698C104.696 142.699 104.696 142.7 104.695 142.701C104.695 142.702 104.693 142.702 104.692 142.703C104.692 142.704 104.691 142.705 104.69 142.706C104.69 142.707 104.688 142.707 104.688 142.708C104.687 142.709 104.686 142.71 104.686 142.711C104.685 142.712 104.683 142.712 104.683 142.713C104.682 142.714 104.681 142.715 104.681 142.716C104.68 142.717 104.678 142.717 104.678 142.718L104.676 142.72C104.675 142.72 104.675 142.722 104.674 142.723C104.673 142.723 104.672 142.724 104.671 142.725C104.67 142.725 104.67 142.727 104.669 142.728L104.659 142.737C104.658 142.738 104.657 142.738 104.656 142.739C104.655 142.74 104.655 142.741 104.654 142.742C104.653 142.743 104.652 142.743 104.651 142.744C104.651 142.745 104.65 142.746 104.649 142.747L104.645 142.752C104.644 142.753 104.642 142.753 104.642 142.754C104.641 142.755 104.64 142.756 104.64 142.757C104.639 142.758 104.638 142.758 104.637 142.759C104.636 142.76 104.636 142.761 104.635 142.762C104.634 142.763 104.633 142.763 104.632 142.764C104.631 142.764 104.631 142.766 104.63 142.767L104.62 142.776C104.619 142.777 104.618 142.778 104.617 142.778L104.614 142.781C104.614 142.782 104.613 142.783 104.612 142.784C104.612 142.785 104.61 142.785 104.609 142.786C104.609 142.787 104.608 142.788 104.607 142.789C104.607 142.79 104.605 142.79 104.604 142.791C104.604 142.792 104.603 142.793 104.603 142.794C104.602 142.795 104.6 142.795 104.6 142.796C104.599 142.797 104.598 142.798 104.598 142.799L104.595 142.802C104.594 142.803 104.593 142.803 104.592 142.804C104.591 142.805 104.591 142.806 104.59 142.807C104.589 142.807 104.588 142.808 104.587 142.809C104.586 142.809 104.586 142.811 104.585 142.812C104.584 142.812 104.583 142.813 104.582 142.813L104.579 142.816C104.578 142.817 104.578 142.819 104.577 142.819C104.576 142.82 104.575 142.82 104.574 142.821C104.573 142.822 104.573 142.823 104.572 142.824L104.569 142.827C104.569 142.828 104.567 142.828 104.566 142.829C104.566 142.83 104.565 142.831 104.564 142.832L104.562 142.835C104.561 142.836 104.559 142.836 104.559 142.837C104.558 142.838 104.557 142.839 104.557 142.84C104.556 142.841 104.554 142.841 104.554 142.842L104.551 142.845C104.55 142.846 104.55 142.847 104.549 142.848C104.537 142.859 104.555 142.841 104.543 142.853C104.541 142.855 104.54 142.856 104.538 142.858C104.537 142.859 104.536 142.86 104.535 142.86L104.532 142.863C104.531 142.864 104.531 142.865 104.53 142.866C104.529 142.867 104.528 142.867 104.527 142.868L104.524 142.871C104.524 142.872 104.523 142.873 104.522 142.874L104.52 142.877C104.519 142.878 104.517 142.878 104.517 142.879L104.514 142.882C104.513 142.883 104.513 142.884 104.512 142.885L104.506 142.891C104.501 142.895 104.505 142.891 104.5 142.896C104.499 142.896 104.499 142.898 104.498 142.898L104.492 142.904C104.491 142.905 104.49 142.905 104.489 142.906L104.483 142.912C104.483 142.913 104.482 142.914 104.481 142.915L104.473 142.924C104.472 142.925 104.471 142.925 104.47 142.926L104.461 142.935C104.451 142.944 104.466 142.931 104.456 142.94L104.409 142.987C104.407 142.99 104.405 142.99 104.402 142.993L104.394 143.002C104.393 143.003 104.392 143.005 104.391 143.006L104.385 143.012C104.379 143.017 104.383 143.012 104.378 143.018L104.375 143.021C104.374 143.022 104.373 143.023 104.372 143.024L104.369 143.027C104.368 143.028 104.366 143.029 104.365 143.03C104.349 143.046 104.376 143.02 104.359 143.036C104.354 143.042 104.359 143.038 104.354 143.043C104.352 143.044 104.351 143.045 104.35 143.046C104.349 143.047 104.348 143.049 104.347 143.05L104.344 143.053C104.343 143.054 104.341 143.055 104.34 143.056L104.337 143.059C104.336 143.06 104.335 143.061 104.334 143.062C104.333 143.064 104.331 143.064 104.33 143.065L104.327 143.068C104.326 143.069 104.325 143.071 104.324 143.072C104.323 143.073 104.321 143.074 104.32 143.075C104.319 143.076 104.318 143.078 104.317 143.079L104.301 143.096C104.3 143.097 104.298 143.098 104.297 143.099C104.296 143.1 104.295 143.101 104.294 143.103C104.293 143.104 104.291 143.104 104.29 143.105C104.289 143.107 104.288 143.108 104.287 143.109C104.286 143.11 104.284 143.111 104.283 143.112C104.282 143.113 104.281 143.115 104.28 143.116C104.279 143.117 104.277 143.118 104.276 143.119C104.275 143.12 104.275 143.122 104.273 143.123C104.272 143.124 104.271 143.125 104.27 143.126C104.268 143.127 104.268 143.129 104.267 143.13C104.265 143.131 104.264 143.132 104.263 143.133L104.252 143.144C104.251 143.145 104.25 143.146 104.249 143.147L104.245 143.151C104.244 143.152 104.242 143.153 104.241 143.154C104.24 143.155 104.239 143.157 104.238 143.158L104.234 143.162C104.233 143.163 104.232 143.164 104.23 143.165C104.227 143.168 104.227 143.17 104.224 143.173C104.222 143.174 104.221 143.175 104.22 143.176L104.212 143.184C104.211 143.185 104.21 143.186 104.209 143.188L104.205 143.191C104.204 143.193 104.202 143.193 104.201 143.194L104.193 143.202C104.192 143.203 104.192 143.205 104.19 143.206L104.175 143.222C104.174 143.223 104.172 143.223 104.171 143.225L104.144 143.252C104.142 143.253 104.141 143.256 104.14 143.257L104.124 143.272C104.123 143.274 104.12 143.275 104.119 143.276L104.111 143.284C104.11 143.286 104.109 143.288 104.107 143.289L104.1 143.297C104.098 143.298 104.096 143.299 104.095 143.301L104.091 143.305C104.089 143.306 104.088 143.308 104.087 143.31C104.086 143.311 104.083 143.312 104.082 143.313L104.078 143.317C104.077 143.319 104.076 143.321 104.074 143.322C104.063 143.333 104.077 143.319 104.065 143.33C104.064 143.331 104.063 143.334 104.062 143.335C104.06 143.336 104.058 143.337 104.057 143.339L104.053 143.343C104.051 143.344 104.05 143.346 104.049 143.348C104.047 143.349 104.045 143.35 104.044 143.352C104.042 143.353 104.041 143.355 104.04 143.356L104.031 143.365C104.03 143.367 104.028 143.368 104.026 143.369C104.025 143.371 104.024 143.373 104.022 143.374C104.021 143.375 104.019 143.376 104.018 143.378C104.016 143.379 104.015 143.381 104.014 143.383C104.012 143.384 104.01 143.385 104.009 143.387C104.007 143.388 104.006 143.39 104.005 143.392C103.993 143.404 104.007 143.388 103.995 143.4C103.994 143.402 103.993 143.404 103.991 143.405L103.986 143.41C103.985 143.412 103.983 143.413 103.981 143.414C103.98 143.416 103.979 143.417 103.978 143.419L103.973 143.424C103.971 143.425 103.969 143.426 103.968 143.428L103.963 143.433C103.961 143.434 103.96 143.436 103.959 143.438L103.949 143.447C103.948 143.449 103.946 143.45 103.944 143.451L103.939 143.456C103.528 143.867 103.318 144.073 103.11 144.275C102.908 144.473 102.708 144.668 102.31 145.066C101.911 145.465 101.717 145.665 101.52 145.867C101.317 146.075 101.112 146.285 100.7 146.696C99.9223 147.474 98.836 148.045 97.8779 148.437C96.9471 148.817 95.7736 149.199 94.6631 149.199C94.0224 149.199 93.6926 149.186 93.376 149.173C93.0849 149.161 92.8069 149.149 92.2334 149.149C91.5913 149.149 91.2591 149.133 90.9404 149.117C90.6521 149.103 90.376 149.09 89.8027 149.09C89.2299 149.09 88.9542 149.103 88.666 149.117C88.3474 149.133 88.0152 149.149 87.373 149.149C86.7865 149.149 86.4958 149.157 86.1982 149.164C85.886 149.172 85.5664 149.18 84.9434 149.18C84.3075 149.18 83.9802 149.166 83.6641 149.153C83.3732 149.141 83.0921 149.13 82.5127 149.13C81.9524 149.13 81.689 149.147 81.4072 149.166C81.0842 149.187 80.7422 149.21 80.083 149.21C79.4546 149.21 79.1374 149.202 78.8271 149.194C78.5325 149.187 78.2446 149.18 77.6533 149.18C76.9945 149.18 76.6503 149.157 76.3262 149.136C76.0422 149.117 75.7782 149.1 75.2227 149.1C74.6304 149.1 74.3377 149.104 74.0391 149.109C73.7302 149.114 73.4152 149.119 72.793 149.119C72.2384 149.119 71.9796 149.139 71.7002 149.16C71.3748 149.184 71.0283 149.21 70.3633 149.21H67.9326C67.3109 149.21 66.9962 149.204 66.6875 149.199C66.3887 149.194 66.0956 149.189 65.5029 149.189H63.0732C62.4206 149.189 62.0813 149.17 61.7598 149.151C61.4733 149.135 61.2043 149.119 60.6426 149.119C60.0317 149.119 59.7215 149.117 59.4141 149.114C59.1117 149.112 58.8114 149.109 58.2129 149.109C57.6819 149.109 57.4349 149.134 57.1592 149.161C56.8251 149.194 56.4618 149.229 55.7832 149.229C55.1168 149.229 54.763 149.201 54.4336 149.174C54.1532 149.151 53.8966 149.13 53.3535 149.13H50.9229C50.3675 149.13 50.1015 149.147 49.8164 149.166C49.4917 149.187 49.1474 149.21 48.4932 149.21C47.9005 149.21 47.6074 149.215 47.3086 149.22C46.9999 149.225 46.6852 149.229 46.0635 149.229C45.4106 149.229 45.0707 149.21 44.749 149.191C44.4627 149.175 44.1943 149.159 43.6328 149.159C43.0156 149.159 42.7006 149.154 42.3906 149.149C42.0907 149.145 41.7955 149.14 41.2031 149.14C40.5735 149.14 40.2486 149.128 39.9326 149.118C39.6365 149.108 39.3481 149.1 38.7627 149.1C38.2265 149.1 37.9793 149.124 37.7041 149.151C37.3695 149.184 37.0064 149.22 36.3232 149.22C35.6826 149.22 35.3527 149.206 35.0352 149.193C34.7428 149.181 34.462 149.17 33.8828 149.17C33.2425 149.17 32.9132 149.157 32.5957 149.144C32.3034 149.132 32.0224 149.119 31.4434 149.119C30.4752 149.119 29.3004 148.937 28.1973 148.468C27.1513 148.023 26.1692 147.369 25.4561 146.656C24.9071 146.107 24.3585 145.555 23.8096 144.999V144.998C23.3854 144.574 23.1737 144.347 22.9688 144.127C22.7778 143.922 22.5922 143.722 22.1963 143.326C22.0128 143.143 21.8748 143.013 21.7578 142.908L21.04 142.293C20.8861 142.155 20.7058 141.985 20.4766 141.756C20.0186 141.298 19.7957 141.032 19.5908 140.786C19.4208 140.582 19.268 140.398 18.9062 140.036C18.5574 139.687 18.3808 139.548 18.1777 139.387C17.9208 139.183 17.6371 138.957 17.166 138.486C16.6949 138.015 16.4686 137.732 16.2627 137.471C16.0991 137.263 15.959 137.083 15.6094 136.729C15.2602 136.376 15.0859 136.237 14.8877 136.079C14.6342 135.877 14.3515 135.651 13.876 135.176C13.4518 134.752 13.2411 134.533 13.0332 134.316C12.8328 134.107 12.6399 133.905 12.2393 133.499C11.8421 133.097 11.6421 132.904 11.4375 132.707C11.2222 132.499 11.0017 132.287 10.5791 131.859C10.1439 131.419 9.92981 131.18 9.72754 130.956C9.54515 130.754 9.37045 130.56 8.98633 130.176C8.58929 129.779 8.38691 129.586 8.17969 129.389C7.96202 129.181 7.73911 128.969 7.31641 128.546C6.88411 128.114 6.66901 127.881 6.46191 127.655C6.27206 127.449 6.08899 127.249 5.69629 126.856C4.86399 126.024 4.86137 126.022 4.03906 125.189V125.188C3.35218 124.5 2.66509 123.543 2.21582 122.444C1.8097 121.452 1.49325 120.28 1.49316 119.21C1.49316 118.566 1.51271 118.231 1.53125 117.913C1.5477 117.631 1.56348 117.366 1.56348 116.81C1.56348 116.26 1.545 115.999 1.52637 115.72C1.50501 115.399 1.4834 115.059 1.4834 114.409C1.48341 113.766 1.50197 113.431 1.52051 113.113C1.53696 112.831 1.55273 112.566 1.55273 112.01V109.609C1.55273 109.06 1.53523 108.799 1.5166 108.52C1.49526 108.199 1.47267 107.86 1.47266 107.21V104.81C1.47266 104.129 1.51184 103.764 1.54785 103.432C1.5768 103.164 1.60254 102.928 1.60254 102.409C1.60254 101.828 1.59616 101.543 1.58887 101.251C1.58118 100.943 1.57324 100.628 1.57324 100.01C1.57324 99.4347 1.56336 99.154 1.55371 98.8643C1.54338 98.5541 1.5332 98.2342 1.5332 97.6094V95.21C1.5332 94.6039 1.53558 94.2986 1.53809 93.9961C1.54055 93.6987 1.54297 93.4034 1.54297 92.8096C1.54297 92.2282 1.53562 91.9427 1.52832 91.6504C1.52064 91.3428 1.5127 91.0276 1.5127 90.4092C1.5127 89.7907 1.52064 89.4756 1.52832 89.168C1.53562 88.8758 1.54297 88.5907 1.54297 88.0098C1.54297 87.3913 1.5509 87.0762 1.55859 86.7686C1.56591 86.4763 1.57324 86.1907 1.57324 85.6094C1.57324 84.9908 1.58118 84.6758 1.58887 84.3682C1.59616 84.076 1.60254 83.7909 1.60254 83.21C1.60254 82.6411 1.59107 82.3653 1.5791 82.0781C1.56607 81.7654 1.55274 81.4406 1.55273 80.8096C1.55273 80.1971 1.55839 79.8872 1.56348 79.582C1.5684 79.2872 1.57324 78.9967 1.57324 78.4092V76.0098C1.57324 75.4222 1.5684 75.1318 1.56348 74.8369C1.55839 74.5318 1.55273 74.2218 1.55273 73.6094C1.55274 72.9783 1.56607 72.6536 1.5791 72.3408C1.59106 72.0537 1.60253 71.7785 1.60254 71.21C1.60254 70.6287 1.59617 70.3431 1.58887 70.0508C1.58118 69.7431 1.57324 69.4282 1.57324 68.8096C1.57324 68.222 1.5684 67.9316 1.56348 67.6367C1.55839 67.3317 1.55273 67.0214 1.55273 66.4092C1.55273 65.8469 1.53962 65.5766 1.52539 65.292C1.50963 64.9767 1.49317 64.647 1.49316 64.0098C1.49316 63.3602 1.51576 63.0204 1.53711 62.7002C1.55576 62.4206 1.57324 62.1595 1.57324 61.6094C1.57324 61.0471 1.55915 60.7767 1.54492 60.4922C1.52916 60.1769 1.5127 59.8471 1.5127 59.21V56.8096C1.5127 56.1599 1.53528 55.8203 1.55664 55.5C1.57529 55.2204 1.59277 54.9593 1.59277 54.4092C1.59278 53.797 1.59844 53.4867 1.60352 53.1816C1.60842 52.887 1.61328 52.5969 1.61328 52.0098C1.61328 51.4472 1.59919 51.1763 1.58496 50.8916C1.5692 50.5764 1.55273 50.2466 1.55273 49.6094C1.55274 48.997 1.55839 48.6871 1.56348 48.3809C1.56839 48.0848 1.57324 47.7918 1.57324 47.1992C1.57324 46.582 1.57791 46.2718 1.58301 45.9678C1.58792 45.6744 1.59277 45.3868 1.59277 44.7998C1.59277 44.2312 1.58132 43.9556 1.56934 43.667C1.55629 43.3528 1.54297 43.0255 1.54297 42.3896C1.54297 41.7291 1.56853 41.3846 1.59277 41.0615C1.61354 40.7848 1.63281 40.5286 1.63281 39.9795C1.63281 39.4179 1.617 39.1523 1.60059 38.8721C1.58204 38.5555 1.56348 38.2228 1.56348 37.5791C1.56348 36.9545 1.57365 36.6344 1.58398 36.3242C1.59363 36.0346 1.60254 35.7544 1.60254 35.1797C1.60254 34.6298 1.58507 34.3691 1.56641 34.0879C1.54505 33.766 1.52344 33.4239 1.52344 32.7695C1.52344 32.1213 1.54199 31.7868 1.56055 31.4688C1.57699 31.1869 1.59277 30.9209 1.59277 30.3594C1.59277 29.7607 1.59037 29.4653 1.58789 29.168C1.58537 28.8655 1.58301 28.5602 1.58301 27.9492C1.58301 26.8723 1.5994 26.6549 1.60938 25.7891L1.57324 25.8076V23.1396C1.57324 22.0601 1.89493 20.9245 2.2959 19.9443C2.70463 18.9453 3.28813 17.921 4.0459 17.1631C4.45741 16.7516 4.66826 16.5464 4.87598 16.3438C5.07826 16.1464 5.27829 15.9512 5.67676 15.5527C6.0914 15.1381 6.30453 14.9329 6.51367 14.7314C6.71444 14.538 6.91155 14.3482 7.30664 13.9531C7.65281 13.607 7.79036 13.4333 7.94531 13.2383C8.14205 12.9906 8.36078 12.7143 8.81934 12.25C9.24853 11.8154 9.48577 11.5999 9.71484 11.3936C9.91911 11.2096 10.1106 11.0389 10.4863 10.6631C10.9273 10.2221 11.1724 10.0071 11.4033 9.80566C11.6023 9.63209 11.7873 9.4715 12.1562 9.10254C12.5546 8.70421 12.75 8.50496 12.9473 8.30273C13.1499 8.09502 13.3551 7.88417 13.7666 7.47266C14.1517 7.08751 14.3311 6.89426 14.5156 6.69434C14.7155 6.47777 14.9254 6.24974 15.3496 5.82031C15.7354 5.42976 15.9154 5.2323 16.1055 5.02637C16.3108 4.80388 16.5217 4.57695 16.9463 4.15234C17.743 3.35574 18.8665 2.81542 19.7783 2.44238C20.6734 2.0762 21.8536 1.65927 22.9727 1.65918C23.537 1.65918 23.8123 1.65026 24.0967 1.64062C24.4021 1.63027 24.7177 1.61914 25.333 1.61914C25.9737 1.61914 26.3093 1.64169 26.625 1.66309C26.8992 1.68167 27.1543 1.69922 27.6934 1.69922C28.3083 1.69922 28.6234 1.71035 28.9287 1.7207C29.2133 1.73035 29.4883 1.73925 30.0527 1.73926C30.6362 1.73926 30.9265 1.73685 31.2188 1.73438C31.5164 1.73185 31.8167 1.72949 32.4131 1.72949C32.9523 1.72949 33.2072 1.71196 33.4814 1.69336C33.7971 1.67196 34.1327 1.64941 34.7734 1.64941C35.4392 1.64943 35.7945 1.68466 36.1201 1.71777C36.3843 1.74464 36.6191 1.76953 37.1328 1.76953C37.6594 1.76953 37.9045 1.74841 38.1738 1.72559C38.4945 1.69841 38.8399 1.66992 39.4932 1.66992C40.1148 1.66992 40.4352 1.68324 40.7432 1.69629C41.0251 1.70823 41.2954 1.71973 41.8535 1.71973H44.2129C44.7712 1.71973 45.0413 1.70824 45.3232 1.69629C45.6312 1.68324 45.9516 1.66992 46.5732 1.66992C47.2073 1.66993 47.5375 1.68846 47.8506 1.70703C48.1274 1.72345 48.3873 1.73925 48.9326 1.73926C49.5416 1.73926 49.8525 1.74718 50.1553 1.75488C50.4423 1.76218 50.7222 1.76953 51.293 1.76953C51.8196 1.76953 52.0647 1.74841 52.334 1.72559C52.6546 1.69841 53.0001 1.66992 53.6533 1.66992C54.2558 1.66992 54.5612 1.6746 54.8613 1.67969C55.1509 1.6846 55.4358 1.68945 56.0127 1.68945C56.6089 1.68945 56.9093 1.69182 57.208 1.69434C57.5016 1.69681 57.7942 1.69922 58.3828 1.69922C59.022 1.69922 59.3526 1.71871 59.666 1.7373C59.9424 1.7537 60.2023 1.76953 60.7529 1.76953C61.7812 1.76953 63.0382 2.04118 63.9697 2.97266C64.7861 3.78901 65.2929 4.96755 65.293 6.18945C65.293 6.79202 65.2883 7.09714 65.2832 7.39844Z" fill="#1E1E1E"/>
<path d="M45.4434 135.601V124.041H47.4434V133.591H53.6133V135.601H45.4534H45.4434Z" fill="#1E1E1E"/>
<path d="M54.6738 124.28C54.6738 123.48 55.3239 122.82 56.1039 122.82C56.8839 122.82 57.5339 123.48 57.5339 124.28C57.5339 125.08 56.8839 125.74 56.1039 125.74C55.3239 125.74 54.6738 125.08 54.6738 124.28ZM55.1138 135.6V126.85H57.1138V135.6H55.1138Z" fill="#1E1E1E"/>
<path d="M61.4034 135.6L58.6034 127.25L60.4833 126.59L62.8633 133.64H63.3633L65.7333 126.59L67.6334 127.27L64.8134 135.6H61.3934H61.4034Z" fill="#1E1E1E"/>
<path d="M68.7031 124.28C68.7031 123.48 69.3531 122.82 70.1331 122.82C70.9131 122.82 71.5631 123.48 71.5631 124.28C71.5631 125.08 70.9131 125.74 70.1331 125.74C69.3531 125.74 68.7031 125.08 68.7031 124.28ZM69.1331 135.6V126.85H71.1331V135.6H69.1331Z" fill="#1E1E1E"/>
<path d="M73.6334 135.6V129.72L72.8633 127.22L74.7634 126.59L75.3633 128.53L77.0934 126.85H80.5634L82.5434 128.94V135.6H80.5434V129.72L79.7634 128.89H77.8434L75.6234 131.03V135.6H73.6234H73.6334Z" fill="#1E1E1E"/>
<path d="M85.8828 139.509L84.3027 137.809V135.909L85.1528 135.079L84.4728 134.549V132.699L85.6428 131.919L84.9728 131.239V128.809L86.8928 126.859H91.1428L91.7928 127.539L92.9128 126.609L95.2928 126.949L94.9128 128.839L93.5128 128.589L93.0627 128.979V131.259L90.9927 133.279H86.8127L86.4327 133.549V134.039L86.7128 134.239L93.1328 134.219L94.6328 135.649V137.739L92.8127 139.519H85.8928L85.8828 139.509ZM86.8127 137.709H91.8928L92.6127 137.009V136.359L92.1927 135.919H86.8127L86.2628 136.459V137.109L86.8127 137.699V137.709ZM87.8328 131.559H90.0527L91.0527 130.519V129.529L90.2028 128.649H87.7828L86.9327 129.529V130.519L87.8328 131.559Z" fill="#1E1E1E"/>
</svg>
