<svg width="107" height="151" viewBox="0 0 107 151" fill="none" xmlns="http://www.w3.org/2000/svg">
<path d="M3.44351 127.851C3.44351 128.631 3.62352 129.581 3.98352 130.461C4.34352 131.341 4.93352 132.091 5.48352 132.641C6.29352 133.451 6.24351 133.501 7.05351 134.311C7.86351 135.121 7.82351 135.161 8.63351 135.961C9.44351 136.761 9.46351 136.741 10.2735 137.551C11.0835 138.361 11.0735 138.371 11.8835 139.181C12.6935 139.991 12.6735 140.011 13.4835 140.811C14.2935 141.611 14.3535 141.561 15.1635 142.371C15.9735 143.181 15.9635 143.191 16.7735 144.001C17.5835 144.811 17.5735 144.821 18.3835 145.631C18.9335 146.181 19.7835 146.611 20.6635 146.981C21.5435 147.351 22.4535 147.701 23.2235 147.701C24.4435 147.701 24.4435 147.611 25.6635 147.611C26.8835 147.611 26.8835 147.651 28.0935 147.651C29.3035 147.651 29.3135 147.571 30.5335 147.571C31.7535 147.571 31.7535 147.681 32.9735 147.681C34.1935 147.681 34.1935 147.611 35.4135 147.611C36.6335 147.611 36.6335 147.651 37.8535 147.651C39.0735 147.651 39.0735 147.601 40.2935 147.601C41.5135 147.601 41.5135 147.611 42.7335 147.611C43.9535 147.611 43.9535 147.621 45.1735 147.621C46.3935 147.621 46.3935 147.591 47.6135 147.591C48.8335 147.591 48.8335 147.591 50.0535 147.591C51.2735 147.591 51.2735 147.591 52.4935 147.591C53.7135 147.591 53.7135 147.661 54.9335 147.661C56.1535 147.661 56.1535 147.681 57.3735 147.681C58.5935 147.681 58.5935 147.571 59.8135 147.571C61.0335 147.571 61.0335 147.651 62.2535 147.651C63.4735 147.651 63.4735 147.681 64.6935 147.681C65.9135 147.681 65.9135 147.661 67.1335 147.661C68.3535 147.661 68.3535 147.701 69.5735 147.701C70.7935 147.701 70.7935 147.651 72.0235 147.651C73.2535 147.651 73.2435 147.671 74.4735 147.671C75.7035 147.671 75.6935 147.651 76.9235 147.651C77.7035 147.651 78.6635 147.481 79.5435 147.121C80.4235 146.761 81.2035 146.181 81.7535 145.631C82.5735 144.811 82.5935 144.821 83.4135 144.001C84.2335 143.181 84.2235 143.161 85.0435 142.341C85.8635 141.521 85.8835 141.531 86.7035 140.711C87.5235 139.891 87.5235 139.881 88.3435 139.061C89.1635 138.241 89.1735 138.241 89.9935 137.421C90.8135 136.601 90.7635 136.541 91.5935 135.721C92.4235 134.901 92.4735 134.951 93.2935 134.131C94.1135 133.311 94.0935 133.281 94.9135 132.451C95.7335 131.621 95.7435 131.631 96.5635 130.801C97.3835 129.971 97.3835 129.971 98.2035 129.141C99.0235 128.311 99.0735 128.361 99.9035 127.531C100.734 126.701 100.674 126.641 101.494 125.811C102.314 124.981 102.384 125.041 103.204 124.211C103.754 123.661 104.204 122.801 104.564 121.931C104.924 121.061 105.144 120.131 105.144 119.351C105.144 118.171 105.224 118.171 105.224 117.001C105.224 115.831 105.124 115.821 105.124 114.651C105.124 113.481 105.174 113.471 105.174 112.301C105.174 111.131 105.174 111.121 105.174 109.951C105.174 108.781 105.134 108.771 105.134 107.601C105.134 106.431 105.184 106.431 105.184 105.251C105.184 104.071 105.154 104.071 105.154 102.901C105.154 101.731 105.124 101.721 105.124 100.541C105.124 99.3609 105.224 99.3608 105.224 98.1808C105.224 97.0008 105.124 97.0009 105.124 95.8209C105.124 94.6409 105.144 94.6408 105.144 93.4608C105.144 92.2808 105.124 92.2809 105.124 91.1009C105.124 90.3209 105.014 89.3608 104.644 88.4908C104.274 87.6208 103.694 86.8409 103.144 86.2909C102.604 85.7509 102.06 85.2075 101.514 84.6609C100.704 83.8509 100.714 83.8408 99.9035 83.0208C99.0935 82.2008 99.0935 82.2108 98.2835 81.4008C97.4735 80.5909 97.4335 80.6209 96.6235 79.8009C95.8135 78.9809 95.8635 78.9308 95.0535 78.1208C94.2435 77.3109 94.1835 77.3609 93.3635 76.5509C92.5435 75.7409 92.5835 75.6909 91.7735 74.8809C90.9635 74.0709 90.9935 74.0309 90.1835 73.2209C89.3735 72.4109 89.3535 72.4209 88.5335 71.6009C87.7135 70.7809 87.7035 70.7909 86.8935 69.9709C86.0835 69.1509 86.0335 69.2009 85.2135 68.3809C84.6635 67.8309 84.4135 67.0609 84.4135 66.3309C84.4135 65.6009 84.7435 64.9208 85.3035 64.3708C86.1135 63.5608 86.0935 63.5409 86.9035 62.7309C87.7135 61.9208 87.6635 61.8709 88.4735 61.0609C89.2835 60.2509 89.3135 60.2909 90.1235 59.4809C90.9335 58.6708 90.8835 58.6209 91.6935 57.8109C92.5035 57.0009 92.5935 57.0909 93.4035 56.2809C94.2135 55.4709 94.1335 55.3909 94.9435 54.5809C95.7535 53.7709 95.8135 53.8209 96.6235 53.0108C97.4335 52.2008 97.3735 52.1409 98.1835 51.3309C98.7335 50.7809 99.3435 50.0308 99.7035 49.1508C100.064 48.2708 100.174 47.3109 100.174 46.5309C100.174 45.2909 100.284 45.2909 100.284 44.0609C100.284 42.8309 100.204 42.8309 100.204 41.5909C100.204 40.3508 100.274 40.3508 100.274 39.1208C100.274 37.8909 100.164 37.8809 100.154 36.6409C100.144 35.4009 100.154 35.4009 100.154 34.1609C100.154 32.9209 100.164 32.9208 100.164 31.6808C100.164 30.4408 100.254 30.4409 100.254 29.2009C100.254 27.9609 100.134 27.9609 100.134 26.7209C100.134 25.9409 100.014 24.9909 99.6535 24.1109C99.2935 23.2309 98.7035 22.4709 98.1535 21.9209C97.3335 21.1009 97.3335 21.1108 96.5135 20.2908C95.6935 19.4708 95.7035 19.4708 94.8835 18.6508C94.0635 17.8308 94.0635 17.8308 93.2335 17.0108C92.4035 16.1908 92.4135 16.1908 91.5935 15.3708C90.7735 14.5508 90.8035 14.5209 89.9835 13.7009C89.1635 12.8809 89.2235 12.8209 88.4035 11.9909C87.5835 11.1609 87.5635 11.1908 86.7335 10.3708C85.9035 9.55085 85.8635 9.59086 85.0435 8.77086C84.2235 7.95086 84.2135 7.95085 83.3935 7.12085C82.5735 6.29085 82.6135 6.25085 81.7835 5.43085C81.2335 4.88085 80.4135 4.34085 79.5335 3.98085C78.6535 3.62085 77.7035 3.49086 76.9235 3.49086C75.7035 3.49086 75.7035 3.44086 74.4835 3.44086C73.2635 3.44086 73.2635 3.51085 72.0535 3.51085C70.8435 3.51085 70.8335 3.45085 69.6135 3.45085C68.3935 3.45085 68.3935 3.41086 67.1735 3.41086C65.9535 3.41086 65.9535 3.40085 64.7335 3.40085C63.5135 3.40085 63.5135 3.38086 62.2935 3.38086C61.0735 3.38086 61.0735 3.49086 59.8535 3.49086C58.6335 3.49086 58.6335 3.45085 57.4135 3.45085C56.1935 3.45085 56.1935 3.42085 54.9735 3.42085C53.7535 3.42085 53.7535 3.51085 52.5335 3.51085C51.3135 3.51085 51.3135 3.47086 50.0935 3.47086C48.8735 3.47086 48.8735 3.47086 47.6535 3.47086C46.4335 3.47086 46.4335 3.45085 45.2135 3.45085C43.9935 3.45085 43.9935 3.45085 42.7735 3.45085C41.5535 3.45085 41.5535 3.41086 40.3335 3.41086C39.1135 3.41086 39.1135 3.49086 37.8935 3.49086C36.6735 3.49086 36.6735 3.51085 35.4535 3.51085C34.2335 3.51085 34.2335 3.49086 33.0135 3.49086C31.7935 3.49086 31.7935 3.49086 30.5735 3.49086C29.3535 3.49086 29.3535 3.42085 28.1235 3.42085C26.8935 3.42085 26.9035 3.45085 25.6735 3.45085C24.4435 3.45085 24.4535 3.50085 23.2235 3.50085C22.4435 3.50085 21.5135 3.68085 20.6335 4.04085C19.7535 4.40085 18.9035 4.88085 18.3535 5.43085C17.5435 6.24085 17.5835 6.28085 16.7735 7.09085C15.9635 7.90085 15.9135 7.84085 15.1035 8.65085C14.2935 9.46085 14.3335 9.49086 13.5235 10.3009C12.7135 11.1109 12.7035 11.1009 11.8935 11.9109C11.0835 12.7209 11.0935 12.7308 10.2935 13.5408C9.49352 14.3508 9.44351 14.3108 8.63351 15.1208C7.82351 15.9309 7.88352 15.9909 7.06352 16.8009C6.24352 17.6109 6.21352 17.5709 5.40352 18.3909C4.85352 18.9409 4.38352 19.7909 4.01352 20.6709C3.64352 21.5509 3.45352 22.4808 3.45352 23.2608C3.45352 24.0542 3.45352 24.8442 3.45352 25.6309C3.45352 26.8209 3.41351 26.8209 3.41351 28.0009C3.41351 29.1809 3.44351 29.1908 3.44351 30.3708C3.44351 31.5508 3.37352 31.5609 3.37352 32.7509C3.37352 33.9409 3.44351 33.9409 3.44351 35.1309C3.44351 36.3209 3.35352 36.3209 3.35352 37.5108C3.35352 38.7008 3.47353 38.7009 3.47353 39.8809C3.47353 41.0609 3.43352 41.0709 3.43352 42.2509C3.43352 43.4309 3.43352 43.4409 3.43352 44.6309C3.43352 45.8209 3.47353 45.8209 3.47353 47.0108C3.47353 48.2008 3.44351 48.2009 3.44351 49.3909C3.44351 50.5809 3.40352 50.5809 3.40352 51.7709C3.40352 52.9609 3.47353 52.9608 3.47353 54.1508C3.47353 55.3408 3.48352 55.3409 3.48352 56.5309C3.48352 57.7209 3.42352 57.7209 3.42352 58.9109C3.42352 60.1009 3.38351 60.1008 3.38351 61.2908C3.38351 62.4808 3.38351 62.4809 3.38351 63.6709C3.38351 64.8609 3.47353 64.8609 3.47353 66.0509C3.47353 67.2409 3.43352 67.2408 3.43352 68.4308C3.43352 69.6208 3.43352 69.6208 3.43352 70.8109C3.43352 72.0009 3.48352 72.0009 3.48352 73.1909C3.48352 74.3809 3.42352 74.3808 3.42352 75.5708C3.42352 76.7608 3.43352 76.7609 3.43352 77.9409C3.43352 79.1209 3.39352 79.1309 3.39352 80.3109C3.39352 81.4909 3.39352 81.5008 3.39352 82.6808C3.39352 83.8608 3.37352 83.8708 3.37352 85.0609C3.37352 86.2509 3.47353 86.2509 3.47353 87.4409C3.47353 88.6309 3.35352 88.6309 3.35352 89.8109C3.35352 90.9909 3.45352 91.0009 3.45352 92.1909C3.45352 93.3809 3.41351 93.3809 3.41351 94.5709C3.41351 95.7609 3.41351 95.7609 3.41351 96.9509C3.41351 98.1409 3.40352 98.1408 3.40352 99.3308C3.40352 100.521 3.40352 100.521 3.40352 101.711C3.40352 102.901 3.43352 102.901 3.43352 104.091C3.43352 105.281 3.45352 105.281 3.45352 106.471C3.45352 107.661 3.39352 107.661 3.39352 108.851C3.39352 110.041 3.39352 110.041 3.39352 111.231C3.39352 112.421 3.37352 112.421 3.37352 113.611C3.37352 114.801 3.42352 114.801 3.42352 115.991C3.42352 117.181 3.40352 117.181 3.40352 118.371C3.40352 119.561 3.43352 119.561 3.43352 120.751C3.43352 121.941 3.35352 121.941 3.35352 123.131C3.35352 124.321 3.39352 124.321 3.40352 125.521C3.41352 126.721 3.43352 126.711 3.43352 127.911L3.44351 127.851Z" fill="#E5E5E5"/>
<path d="M1.80371 23.2607C1.80373 22.2373 2.04684 21.0905 2.49219 20.0312C2.88989 19.0854 3.45992 18.0012 4.23633 17.2246C4.65964 16.7963 4.88832 16.5832 5.11426 16.376C5.32205 16.1854 5.51679 16.0097 5.9043 15.627C6.27487 15.2609 6.43544 15.0769 6.60645 14.8799C6.80702 14.6487 7.02274 14.3982 7.4668 13.9541C7.90094 13.52 8.14007 13.3055 8.36328 13.1045C8.56145 12.926 8.74899 12.7566 9.11914 12.3818C9.86435 11.6273 9.93331 11.5374 10.7266 10.7441C11.1381 10.3326 11.3489 10.1275 11.5566 9.9248C11.7589 9.72752 11.9581 9.53213 12.3564 9.13379C12.7385 8.75171 12.9143 8.56136 13.0977 8.36133C13.2993 8.1414 13.5088 7.91213 13.9365 7.48438C14.3775 7.04336 14.6235 6.82836 14.8545 6.62695C15.0534 6.45352 15.2377 6.29253 15.6064 5.92383C15.9853 5.54498 16.1585 5.35457 16.3408 5.15332C16.5435 4.92959 16.7554 4.69479 17.1865 4.26367C17.9589 3.49134 19.0384 2.91065 20.0088 2.51367C21.071 2.07913 22.2127 1.85059 23.2236 1.85059C23.808 1.85058 24.0887 1.83912 24.3809 1.82715C24.6987 1.81412 25.0283 1.80078 25.6738 1.80078C26.2703 1.80078 26.5611 1.79344 26.8584 1.78613C27.1709 1.77845 27.4904 1.77051 28.123 1.77051C28.7805 1.77051 29.1223 1.79008 29.4463 1.80859C29.7353 1.82511 30.0064 1.84082 30.5732 1.84082H33.0137C33.6358 1.84082 33.9507 1.84648 34.2607 1.85156C34.5606 1.85647 34.8558 1.86133 35.4531 1.86133C36.0509 1.86133 36.3465 1.85648 36.6465 1.85156C36.9565 1.84648 37.2713 1.84082 37.8936 1.84082C38.4545 1.84082 38.7209 1.82337 39.0059 1.80469C39.3308 1.78338 39.6751 1.76074 40.334 1.76074C40.9681 1.76075 41.2925 1.7719 41.6074 1.78223C41.9023 1.79189 42.188 1.80078 42.7734 1.80078H45.2139C45.8359 1.80078 46.1509 1.80644 46.4609 1.81152C46.7607 1.81644 47.056 1.82129 47.6533 1.82129H50.0938C50.7279 1.82129 51.0523 1.83147 51.3672 1.8418C51.6621 1.85146 51.9479 1.86132 52.5332 1.86133C53.0878 1.86133 53.3494 1.84115 53.6318 1.82031C53.9593 1.79616 54.3084 1.77051 54.9736 1.77051C55.602 1.77051 55.9218 1.77845 56.2344 1.78613C56.5316 1.79344 56.822 1.80078 57.4131 1.80078C58.0475 1.80078 58.3725 1.81096 58.6875 1.82129C58.9824 1.83096 59.268 1.84082 59.8535 1.84082C60.3961 1.84082 60.6481 1.81801 60.9258 1.79297C61.258 1.76302 61.6168 1.73047 62.2939 1.73047C62.9159 1.73047 63.231 1.73613 63.541 1.74121C63.8408 1.74612 64.136 1.75098 64.7334 1.75098C65.3494 1.75098 65.6594 1.75334 65.9668 1.75586C66.2693 1.75834 66.57 1.76074 67.1738 1.76074C67.8079 1.76075 68.1323 1.7719 68.4473 1.78223C68.7421 1.79189 69.028 1.80078 69.6133 1.80078C70.2599 1.80078 70.5967 1.81727 70.918 1.83301C71.2097 1.8473 71.4857 1.86133 72.0537 1.86133C72.6153 1.86132 72.8835 1.84462 73.1699 1.82812C73.4916 1.8096 73.8306 1.79102 74.4834 1.79102C75.1241 1.79102 75.4539 1.80437 75.7715 1.81738C76.0638 1.82936 76.3447 1.84082 76.9238 1.84082C77.8666 1.84085 79.0374 1.9956 80.1582 2.4541C81.2124 2.88538 82.2208 3.53663 82.9434 4.25684L83.4648 4.78613C83.6009 4.929 83.7087 5.04653 83.8145 5.16309C84.0064 5.37461 84.1826 5.57143 84.5674 5.96094C85.385 6.78854 85.3736 6.76808 86.21 7.60449C86.594 7.9885 86.787 8.16336 86.9893 8.3457C87.2136 8.54802 87.4529 8.76192 87.8936 9.19727C88.2927 9.59163 88.4924 9.77734 88.7031 9.97559C88.927 10.1862 89.1515 10.4002 89.5771 10.8311C90.0252 11.2845 90.2433 11.5392 90.4453 11.7744C90.6183 11.9759 90.7792 12.163 91.1504 12.5342C91.5795 12.9633 91.792 13.1915 91.9971 13.4121C92.1869 13.6163 92.3693 13.8136 92.7598 14.2041C93.5964 15.0407 93.5659 15.0192 94.3936 15.8369C95.2258 16.6591 95.2276 16.6621 96.0498 17.4844C96.463 17.8976 96.6682 18.1052 96.8721 18.3115C97.0732 18.5152 97.2739 18.7173 97.6807 19.124C98.0872 19.5306 98.2896 19.7306 98.4932 19.9316C98.6995 20.1355 98.9071 20.3407 99.3203 20.7539C99.975 21.4086 100.714 22.3467 101.181 23.4863C101.643 24.617 101.783 25.7917 101.783 26.7207C101.783 27.2682 101.809 27.5211 101.836 27.8018C101.869 28.141 101.903 28.5088 101.903 29.2012C101.903 29.8753 101.879 30.2285 101.854 30.5605C101.834 30.8483 101.813 31.1152 101.813 31.6807C101.813 32.3067 101.811 32.6221 101.809 32.9346C101.806 33.2419 101.804 33.5474 101.804 34.1611C101.804 35.4319 101.794 35.3925 101.804 36.6279C101.808 37.1816 101.834 37.4427 101.86 37.7324C101.892 38.0749 101.924 38.4392 101.924 39.1211C101.924 39.7784 101.904 40.1196 101.886 40.4453C101.869 40.7364 101.854 41.013 101.854 41.5908C101.854 42.1624 101.871 42.4341 101.89 42.7227C101.911 43.0508 101.934 43.3971 101.934 44.0605C101.934 44.7425 101.902 45.1032 101.872 45.4385C101.847 45.7198 101.823 45.9776 101.823 46.5312C101.823 47.4438 101.698 48.6336 101.23 49.7754C100.756 50.9359 99.9825 51.8662 99.3506 52.498C98.9849 52.8637 98.826 53.0477 98.6533 53.248C98.451 53.4827 98.2342 53.7336 97.79 54.1777C97.3495 54.6183 97.1019 54.8348 96.8691 55.0381C96.667 55.2147 96.4795 55.3789 96.1104 55.748C95.7577 56.1007 95.6127 56.2783 95.4492 56.4775C95.2478 56.7231 95.0273 56.9903 94.5703 57.4473C94.1066 57.911 93.8303 58.133 93.5791 58.334C93.3804 58.493 93.2065 58.6314 92.8604 58.9775C92.488 59.3499 92.322 59.5374 92.1445 59.7383C91.942 59.9674 91.7276 60.2099 91.29 60.6475C90.8622 61.0753 90.633 61.2857 90.4131 61.4873C90.2132 61.6705 90.0224 61.8458 89.6406 62.2275C89.2683 62.5999 89.1023 62.7875 88.9248 62.9883C88.7223 63.2174 88.5079 63.4599 88.0703 63.8975C87.6784 64.2894 87.4911 64.4865 87.2988 64.6885C87.0962 64.9014 86.8885 65.1194 86.4707 65.5371L86.46 65.5479C86.1525 65.8498 86.0635 66.1253 86.0635 66.3311C86.0635 66.7132 86.1979 67.0317 86.3799 67.2139C86.7577 67.5917 86.9491 67.7607 87.1543 67.9434C87.3875 68.1509 87.63 68.3688 88.0674 68.8115C88.8937 69.6481 88.8256 69.56 89.7002 70.4346C90.1004 70.8348 90.3032 71.0293 90.5078 71.2266C90.7204 71.4315 90.9359 71.639 91.3506 72.0537C91.7784 72.4815 91.9905 72.7134 92.1943 72.9355C92.3805 73.1384 92.5584 73.3318 92.9404 73.7139C93.3745 74.1479 93.5882 74.3873 93.79 74.6113C93.9697 74.8107 94.1428 75.001 94.5234 75.377C94.8975 75.7464 95.0877 75.9107 95.2939 76.0898C95.5309 76.2957 95.7798 76.5132 96.2207 76.9541C96.6583 77.3917 96.8731 77.6349 97.0781 77.8682C97.2583 78.0732 97.425 78.2642 97.7979 78.6416C98.18 79.0285 98.3735 79.2081 98.5732 79.3926C98.792 79.5946 99.0227 79.8069 99.4502 80.2344C100.243 81.0274 100.265 81.0391 101.077 81.8613C101.942 82.737 101.854 82.6672 102.681 83.4941L102.684 83.4971L102.687 83.501L102.689 83.5039L102.693 83.5068L102.696 83.5098L102.699 83.5137L102.703 83.5166L102.706 83.5195L102.709 83.5234L102.712 83.5264L102.716 83.5293L102.719 83.5322L102.722 83.5361L102.725 83.5391L102.729 83.542L102.731 83.5449L102.734 83.5488L102.738 83.5518L102.741 83.5547L102.744 83.5586L102.747 83.5615L102.751 83.5645L102.754 83.5674L102.757 83.5713L102.761 83.5742L102.764 83.5771L102.767 83.5811L102.77 83.584L102.773 83.5869L102.776 83.5898L102.779 83.5938L102.782 83.5967L102.786 83.5996L102.789 83.6025L102.792 83.6064L102.796 83.6094L102.799 83.6123L102.802 83.6162L102.805 83.6191L102.809 83.6221L102.812 83.625L102.814 83.6289L102.818 83.6318L102.821 83.6348L102.824 83.6387L102.827 83.6416L102.831 83.6445L102.834 83.6475L102.837 83.6514L102.84 83.6543L102.844 83.6572L102.847 83.6602L102.85 83.6641L102.854 83.667L102.856 83.6699L102.859 83.6738L102.862 83.6768L102.866 83.6797L102.869 83.6826L102.872 83.6865L102.876 83.6895L102.882 83.6953L102.885 83.6992L102.889 83.7021L102.892 83.7051L102.895 83.709L102.897 83.7119L102.901 83.7148L102.904 83.7178L102.907 83.7217L102.911 83.7246L102.917 83.7305L102.92 83.7344L102.924 83.7373L102.927 83.7402L102.93 83.7441L102.933 83.7471L102.937 83.75L102.939 83.7529L102.942 83.7568L102.946 83.7598L102.949 83.7627L102.952 83.7666L102.955 83.7695L102.959 83.7725L102.962 83.7754L102.965 83.7793L102.968 83.7822L102.972 83.7852L102.975 83.7881L102.978 83.792L102.981 83.7949L102.984 83.7979L102.987 83.8018L102.99 83.8047L102.994 83.8076L102.997 83.8105L103 83.8145L103.003 83.8174L103.007 83.8203L103.01 83.8232L103.013 83.8271L103.017 83.8301L103.02 83.833L103.022 83.8369L103.025 83.8398L103.029 83.8428L103.032 83.8457L103.035 83.8496L103.038 83.8525L103.042 83.8555L103.045 83.8584L103.048 83.8623L103.052 83.8652L103.058 83.8711L103.061 83.875L103.064 83.8779L103.067 83.8809L103.07 83.8848L103.073 83.8877L103.077 83.8906L103.08 83.8936L103.083 83.8975L103.087 83.9004L103.093 83.9062L103.096 83.9102L103.1 83.9131L103.103 83.916L103.105 83.9199L103.108 83.9229L103.112 83.9258L103.115 83.9287L103.118 83.9326L103.121 83.9355L103.125 83.9385L103.128 83.9414L103.131 83.9453L103.135 83.9482L103.138 83.9512L103.141 83.9551L103.144 83.958L103.147 83.9609L103.15 83.9639L103.153 83.9678L103.156 83.9707L103.16 83.9736L103.163 83.9766L103.166 83.9805L103.169 83.9834L103.173 83.9863L103.176 83.9893L103.179 83.9932L103.183 83.9961L103.186 83.999L103.188 84.0029L103.191 84.0059L103.195 84.0088L103.198 84.0117L103.201 84.0156L103.204 84.0186L103.208 84.0215L103.211 84.0244L103.214 84.0283L103.218 84.0312L103.224 84.0371L103.227 84.041L103.23 84.0439L103.233 84.0469L103.236 84.0508L103.239 84.0537L103.243 84.0566L103.246 84.0596L103.249 84.0635L103.252 84.0664L103.256 84.0693L103.259 84.0723L103.262 84.0762L103.266 84.0791L103.271 84.085L103.274 84.0889L103.278 84.0918L103.281 84.0947L103.284 84.0986L103.287 84.1016L103.291 84.1045L103.294 84.1074L103.297 84.1113L103.3 84.1143L103.304 84.1172L103.307 84.1201L103.31 84.124L103.312 84.127L103.316 84.1299L103.319 84.1328L103.322 84.1367L103.326 84.1396L103.332 84.1455L103.335 84.1494L103.339 84.1523L103.342 84.1553L103.345 84.1592L103.348 84.1621L103.352 84.165L103.354 84.168L103.357 84.1719L103.36 84.1748L103.364 84.1777L103.367 84.1807L103.37 84.1846L103.373 84.1875L103.377 84.1904L103.38 84.1934L103.383 84.1973L103.387 84.2002L103.393 84.2061L103.396 84.21L103.399 84.2129L103.402 84.2158L103.405 84.2197L103.408 84.2227L103.412 84.2256L103.415 84.2285L103.418 84.2324L103.421 84.2354L103.425 84.2383L103.428 84.2412L103.431 84.2451L103.434 84.248L103.438 84.251L103.44 84.2539L103.443 84.2578L103.447 84.2607L103.453 84.2666L103.456 84.2705L103.46 84.2734L103.463 84.2764L103.466 84.2803L103.469 84.2832L103.473 84.2861L103.476 84.2891L103.479 84.293L103.481 84.2959L103.485 84.2988L103.488 84.3018L103.491 84.3057L103.494 84.3086L103.498 84.3115L103.501 84.3145L103.504 84.3184L103.507 84.3213L103.511 84.3242L103.514 84.3271L103.517 84.3311L103.521 84.334L103.526 84.3398L103.529 84.3438L103.533 84.3467L103.539 84.3525L103.542 84.3564L103.546 84.3594L103.549 84.3623L103.552 84.3662L103.555 84.3691L103.559 84.3721L103.562 84.375L103.564 84.3789L103.567 84.3818L103.571 84.3848L103.574 84.3877L103.577 84.3916L103.58 84.3945L103.584 84.3975L103.587 84.4004L103.59 84.4043L103.593 84.4072L103.597 84.4102L103.6 84.4131L103.603 84.417L103.605 84.4199L103.609 84.4229L103.612 84.4258L103.615 84.4297L103.619 84.4326L103.625 84.4385L103.628 84.4424L103.632 84.4453L103.638 84.4512L103.641 84.4551L103.645 84.458L103.647 84.4609L103.65 84.4648L103.653 84.4678L103.657 84.4707L103.66 84.4736L103.663 84.4775L103.666 84.4805L103.67 84.4834L103.673 84.4863L103.676 84.4902L103.679 84.4932L103.683 84.4961L103.686 84.499L103.688 84.5029L103.691 84.5059L103.695 84.5088L103.698 84.5117L103.701 84.5156L103.704 84.5186L103.708 84.5215L103.711 84.5244L103.714 84.5283L103.717 84.5312L103.721 84.5342L103.724 84.5371L103.727 84.541L103.729 84.5439L103.733 84.5469L103.736 84.5498L103.739 84.5537L103.742 84.5566L103.746 84.5596L103.749 84.5625L103.752 84.5664L103.755 84.5693L103.759 84.5723L103.762 84.5752L103.765 84.5791L103.769 84.582L103.774 84.5879L103.777 84.5918L103.781 84.5947L103.787 84.6006L103.79 84.6045L103.794 84.6074L103.8 84.6133L103.803 84.6172L103.807 84.6201L103.812 84.626L103.815 84.6299L103.819 84.6328L103.825 84.6387L103.828 84.6426L103.832 84.6455L103.838 84.6514L103.841 84.6553L103.845 84.6582L103.851 84.6641L103.854 84.668L103.857 84.6709L103.863 84.6768L103.866 84.6807L103.87 84.6836L103.873 84.6865L103.876 84.6904L103.879 84.6934L103.883 84.6963L103.886 84.6992L103.889 84.7031L103.892 84.7061L103.896 84.709L103.898 84.7119L103.901 84.7158L103.904 84.7188L103.908 84.7217L103.911 84.7246L103.914 84.7285L103.917 84.7314L103.921 84.7344L103.924 84.7373L103.927 84.7412L103.93 84.7441L103.934 84.7471L103.937 84.75L103.939 84.7539L103.942 84.7568L103.946 84.7598L103.952 84.7656L103.955 84.7695L103.959 84.7725L103.965 84.7783L103.968 84.7822L103.972 84.7852L103.978 84.791L103.98 84.7949L103.984 84.7979L103.99 84.8037L103.993 84.8076L103.997 84.8105L104.003 84.8164L104.006 84.8203L104.01 84.8232L104.016 84.8291L104.019 84.833L104.022 84.8359L104.028 84.8418L104.031 84.8457L104.035 84.8486L104.041 84.8545L104.044 84.8584L104.048 84.8613L104.054 84.8672L104.057 84.8711L104.06 84.874L104.063 84.877L104.066 84.8799L104.069 84.8838L104.072 84.8867L104.076 84.8896L104.079 84.8926L104.082 84.8965L104.085 84.8994L104.089 84.9023L104.092 84.9053L104.095 84.9092L104.098 84.9121L104.102 84.915L104.104 84.918L104.107 84.9219L104.11 84.9248L104.114 84.9277L104.117 84.9307L104.12 84.9346L104.123 84.9375L104.127 84.9404L104.13 84.9434L104.133 84.9473L104.136 84.9502L104.14 84.9531L104.143 84.9561L104.146 84.96L104.148 84.9629L104.152 84.9658L104.155 84.9688L104.158 84.9727L104.161 84.9756L104.165 84.9785L104.171 84.9844L104.174 84.9883L104.178 84.9912L104.184 84.9971L104.187 85.001L104.19 85.0039L104.196 85.0098L104.199 85.0137L104.202 85.0166L104.206 85.0195L104.209 85.0225L104.212 85.0264L104.215 85.0293L104.219 85.0322L104.222 85.0352L104.225 85.0391L104.228 85.042L104.231 85.0449L104.234 85.0479L104.237 85.0518L104.24 85.0547L104.244 85.0576L104.247 85.0605L104.25 85.0645L104.253 85.0674L104.257 85.0703L104.26 85.0732L104.263 85.0771L104.266 85.0801L104.27 85.083L104.275 85.0889L104.278 85.0928L104.282 85.0957L104.288 85.1016L104.291 85.1055L104.294 85.1084L104.298 85.1113L104.301 85.1143L104.304 85.1182L104.307 85.1211L104.311 85.124C104.984 85.7977 105.696 86.7494 106.162 87.8447C106.649 88.9888 106.773 90.1901 106.773 91.1006C106.773 91.6779 106.778 91.9632 106.783 92.2529C106.788 92.5531 106.794 92.8583 106.794 93.4609C106.794 94.0636 106.788 94.3687 106.783 94.6689C106.778 94.9587 106.773 95.244 106.773 95.8213C106.773 96.3475 106.795 96.5922 106.817 96.8613C106.845 97.182 106.873 97.5274 106.873 98.1807C106.873 98.8339 106.845 99.1793 106.817 99.5C106.795 99.7693 106.773 100.014 106.773 100.541C106.773 101.112 106.781 101.394 106.788 101.683C106.796 101.986 106.804 102.297 106.804 102.9C106.804 103.466 106.811 103.744 106.818 104.03C106.826 104.332 106.834 104.642 106.834 105.251C106.834 105.873 106.82 106.193 106.807 106.5C106.795 106.781 106.783 107.048 106.783 107.601C106.783 108.16 106.793 108.435 106.803 108.72C106.813 109.025 106.823 109.341 106.823 109.951V112.301C106.823 112.918 106.81 113.238 106.797 113.546C106.785 113.828 106.773 114.098 106.773 114.65C106.773 115.172 106.795 115.417 106.817 115.687C106.845 116.007 106.873 116.352 106.873 117.001C106.873 117.637 106.851 117.97 106.83 118.284C106.812 118.557 106.794 118.811 106.794 119.351C106.794 120.405 106.505 121.553 106.088 122.562C105.711 123.473 105.161 124.587 104.37 125.378L104.369 125.377C103.922 125.829 103.667 126.052 103.428 126.259C103.223 126.436 103.035 126.598 102.667 126.971C102.295 127.347 102.133 127.537 101.953 127.746C101.745 127.989 101.523 128.244 101.07 128.697C100.624 129.144 100.377 129.363 100.147 129.567C99.9454 129.747 99.755 129.918 99.377 130.301C98.9672 130.716 98.7626 130.923 98.5576 131.131C98.3526 131.338 98.1473 131.546 97.7373 131.961C97.3211 132.382 97.1085 132.592 96.8984 132.8C96.6936 133.002 96.4905 133.202 96.0869 133.61C95.6928 134.009 95.5051 134.212 95.3086 134.422C95.0997 134.645 94.8861 134.872 94.46 135.298C94.0179 135.74 93.7726 135.957 93.5371 136.164C93.3294 136.347 93.1358 136.516 92.7529 136.895C92.3736 137.269 92.2058 137.46 92.0283 137.661C91.8242 137.893 91.6054 138.143 91.1602 138.588C90.7471 139.001 90.5369 139.209 90.3281 139.415C90.122 139.619 89.9164 139.821 89.5098 140.228C89.1031 140.634 88.9009 140.84 88.6973 141.046C88.491 141.255 88.2832 141.465 87.8701 141.878C87.4506 142.297 87.2325 142.508 87.0186 142.714C86.8126 142.912 86.6101 143.108 86.21 143.508C85.8098 143.908 85.6146 144.11 85.416 144.316C85.2098 144.53 84.9996 144.748 84.5801 145.168C84.1606 145.587 83.9424 145.798 83.7285 146.004C83.5226 146.202 83.3201 146.398 82.9199 146.798C82.246 147.472 81.2876 148.19 80.168 148.648C79.0877 149.09 77.9155 149.301 76.9238 149.301C76.321 149.301 76.0255 149.306 75.7256 149.311C75.4155 149.316 75.1008 149.321 74.4736 149.321C73.8466 149.321 73.5317 149.316 73.2217 149.311C72.9218 149.306 72.6262 149.301 72.0234 149.301C71.439 149.301 71.1557 149.312 70.8623 149.324C70.5437 149.337 70.2139 149.351 69.5732 149.351C68.9391 149.351 68.6147 149.34 68.2998 149.33C68.0049 149.32 67.7191 149.311 67.1338 149.311C66.536 149.311 66.2404 149.315 65.9404 149.32C65.6304 149.325 65.3155 149.331 64.6934 149.331C64.0651 149.331 63.7452 149.323 63.4326 149.315C63.1354 149.308 62.845 149.301 62.2539 149.301C61.595 149.301 61.2508 149.278 60.9258 149.257C60.6408 149.238 60.3744 149.221 59.8135 149.221C59.271 149.221 59.0189 149.244 58.7412 149.27C58.409 149.299 58.0502 149.331 57.373 149.331C56.7514 149.331 56.4368 149.325 56.127 149.32C55.827 149.315 55.5313 149.311 54.9336 149.311C54.2808 149.311 53.9417 149.292 53.6191 149.273C53.3317 149.257 53.0602 149.241 52.4932 149.241H47.6133C47.0222 149.241 46.7318 149.248 46.4346 149.255C46.1221 149.263 45.802 149.271 45.1738 149.271C44.558 149.271 44.2478 149.268 43.9404 149.266C43.638 149.263 43.3373 149.261 42.7334 149.261C42.1174 149.261 41.8075 149.258 41.5 149.256C41.1976 149.253 40.8975 149.251 40.2939 149.251C39.7146 149.251 39.433 149.262 39.1406 149.274C38.8232 149.287 38.4939 149.301 37.8535 149.301C37.219 149.301 36.8942 149.291 36.5791 149.28C36.2843 149.271 35.9983 149.261 35.4131 149.261C34.8463 149.261 34.5754 149.276 34.2881 149.293C33.9655 149.311 33.6265 149.331 32.9736 149.331C32.2963 149.331 31.9378 149.299 31.6055 149.27C31.3278 149.244 31.0758 149.221 30.5332 149.221C29.9723 149.221 29.7032 149.239 29.417 149.258C29.0916 149.279 28.7477 149.301 28.0938 149.301C27.4641 149.301 27.1418 149.291 26.8281 149.28C26.5347 149.271 26.2486 149.261 25.6631 149.261C25.1089 149.261 24.8477 149.281 24.5654 149.302C24.238 149.326 23.8888 149.351 23.2236 149.351C22.0656 149.351 20.8488 148.849 20.0244 148.502C19.1308 148.126 18.0136 147.595 17.2168 146.798C16.8053 146.386 16.6001 146.175 16.3975 145.968C16.2002 145.766 16.0048 145.566 15.6064 145.168C15.1949 144.756 14.9898 144.546 14.7871 144.338C14.5899 144.136 14.3954 143.935 13.9971 143.537C13.628 143.168 13.4409 143.005 13.2422 142.833C13.0127 142.634 12.7653 142.42 12.3242 141.984C11.9061 141.571 11.6977 141.355 11.4922 141.141C11.297 140.937 11.1089 140.74 10.7168 140.348C10.3054 139.936 10.1 139.726 9.89746 139.519C9.70012 139.316 9.50491 139.116 9.10645 138.718C8.71455 138.326 8.51824 138.139 8.31934 137.951C8.10959 137.753 7.8916 137.548 7.47363 137.135C7.04231 136.709 6.8294 136.476 6.62402 136.251C6.43901 136.048 6.26575 135.857 5.88672 135.478C5.4491 135.04 5.23474 134.798 5.03223 134.568C4.85475 134.368 4.68875 134.18 4.31641 133.808C3.66773 133.159 2.92454 132.231 2.45605 131.086C2.02841 130.041 1.80487 128.904 1.7959 127.912L1.7832 127.911C1.7832 126.678 1.7648 126.841 1.75391 125.534C1.74911 124.959 1.73666 124.678 1.72559 124.384C1.71375 124.07 1.70312 123.751 1.70312 123.131C1.70312 122.486 1.72569 122.148 1.74707 121.83C1.76569 121.553 1.7832 121.296 1.7832 120.751C1.7832 120.175 1.77586 119.892 1.76855 119.603C1.76086 119.297 1.75391 118.985 1.75391 118.371C1.75391 117.764 1.75858 117.456 1.76367 117.153C1.76858 116.861 1.77344 116.573 1.77344 115.991C1.77344 115.428 1.76196 115.155 1.75 114.87C1.73696 114.56 1.72364 114.237 1.72363 113.611C1.72363 113.004 1.72831 112.696 1.7334 112.394C1.73831 112.101 1.74316 111.813 1.74316 111.23V108.851C1.74317 108.218 1.75962 107.891 1.77539 107.578C1.78961 107.296 1.80371 107.028 1.80371 106.471C1.80371 105.888 1.79886 105.601 1.79395 105.309C1.78886 105.006 1.7832 104.698 1.7832 104.091C1.7832 103.515 1.77586 103.232 1.76855 102.942C1.76086 102.637 1.75391 102.325 1.75391 101.711V99.3311C1.75391 98.7298 1.75627 98.427 1.75879 98.127C1.76127 97.8321 1.76367 97.5397 1.76367 96.9512V94.5713C1.76367 93.9511 1.77383 93.633 1.78418 93.3252C1.79383 93.0381 1.80371 92.7601 1.80371 92.1904C1.8037 91.6583 1.78166 91.408 1.75879 91.1348C1.73173 90.8115 1.70312 90.4637 1.70312 89.8105C1.70314 89.1446 1.73845 88.7891 1.77148 88.4629C1.79832 88.1979 1.82324 87.9598 1.82324 87.4404C1.82323 86.9086 1.80215 86.6606 1.7793 86.3887C1.75216 86.0658 1.72363 85.7182 1.72363 85.0605C1.72363 84.4535 1.72831 84.1436 1.7334 83.8398C1.73832 83.5461 1.74316 83.258 1.74316 82.6807V80.3105C1.74317 79.6955 1.75431 79.3779 1.76465 79.0703C1.7743 78.783 1.7832 78.5051 1.7832 77.9404C1.7832 77.3571 1.7808 77.0671 1.77832 76.7734C1.7758 76.4746 1.77344 76.1722 1.77344 75.5713C1.77344 74.9386 1.78989 74.6108 1.80566 74.2979C1.81988 74.0158 1.83398 73.7477 1.83398 73.1904C1.83398 72.6273 1.82152 72.3548 1.80957 72.0703C1.79653 71.7599 1.7832 71.437 1.7832 70.8105V68.4307C1.78321 67.8107 1.79434 67.4933 1.80469 67.1855C1.81434 66.8984 1.82324 66.6206 1.82324 66.0508C1.82324 65.5124 1.80396 65.2598 1.7832 64.9854C1.75896 64.6648 1.7334 64.3225 1.7334 63.6709V61.291C1.7334 60.6709 1.74453 60.3528 1.75488 60.0449C1.76453 59.758 1.77343 59.4805 1.77344 58.9111C1.77344 58.2784 1.78989 57.9506 1.80566 57.6377C1.81988 57.3557 1.83398 57.0882 1.83398 56.5312C1.83398 55.9425 1.8306 55.6494 1.82812 55.3545C1.82561 55.0545 1.82324 54.7515 1.82324 54.1504C1.82323 53.5997 1.80745 53.337 1.79102 53.0576C1.77246 52.7422 1.75391 52.4094 1.75391 51.7705C1.75391 51.1506 1.76407 50.8332 1.77441 50.5254C1.78406 50.2382 1.79395 49.9605 1.79395 49.3906C1.79395 48.7769 1.8009 48.4644 1.80859 48.1592C1.8159 47.8695 1.82324 47.5868 1.82324 47.0107C1.82324 46.441 1.81434 46.1631 1.80469 45.876C1.79434 45.5682 1.7832 45.2508 1.7832 44.6309V42.251C1.7832 41.6359 1.79435 41.3183 1.80469 41.0107C1.81435 40.7234 1.82324 40.4456 1.82324 39.8809C1.82324 39.3672 1.79843 39.1323 1.77148 38.8662C1.73833 38.5389 1.70312 38.1811 1.70312 37.5107C1.70313 36.8592 1.72869 36.5168 1.75293 36.1963C1.77368 35.9219 1.79395 35.6692 1.79395 35.1309C1.79395 34.5801 1.77815 34.3175 1.76172 34.0381C1.74316 33.7226 1.72364 33.3899 1.72363 32.751C1.72363 32.1124 1.74318 31.7775 1.76172 31.4609C1.7782 31.1795 1.79394 30.9167 1.79395 30.3711C1.79395 29.8001 1.7866 29.5174 1.7793 29.2275C1.77161 28.9224 1.76367 28.6098 1.76367 28.001C1.76367 27.3856 1.77383 27.0701 1.78418 26.7637C1.79382 26.4781 1.80371 26.2006 1.80371 25.6309V23.2607ZM5.10352 25.6309C5.10352 26.2508 5.09336 26.5683 5.08301 26.875C5.07335 27.1611 5.06348 27.4364 5.06348 28.001C5.06348 28.5719 5.07082 28.8547 5.07812 29.1445C5.08581 29.4496 5.09375 29.7623 5.09375 30.3711C5.09374 31.005 5.07417 31.3374 5.05566 31.6533C5.03922 31.9342 5.02344 32.1998 5.02344 32.751C5.02344 33.3017 5.03923 33.5643 5.05566 33.8438C5.07422 34.1592 5.09375 34.4919 5.09375 35.1309C5.09375 35.7824 5.06819 36.1248 5.04395 36.4453C5.02319 36.7198 5.00391 36.9724 5.00391 37.5107C5.00391 38.0302 5.02784 38.2681 5.05469 38.5332C5.08773 38.8595 5.12305 39.2147 5.12305 39.8809C5.12305 40.496 5.11288 40.8135 5.10254 41.1211C5.09288 41.4084 5.08398 41.6862 5.08398 42.251V44.6309C5.08398 45.2007 5.09288 45.4785 5.10254 45.7656C5.11289 46.0734 5.12305 46.3908 5.12305 47.0107C5.12305 47.6244 5.1161 47.937 5.1084 48.2422C5.10109 48.5319 5.09375 48.8146 5.09375 49.3906C5.09375 50.0108 5.08261 50.3289 5.07227 50.6367C5.06262 50.9237 5.05371 51.2012 5.05371 51.7705C5.05371 52.3215 5.06949 52.5848 5.08594 52.8643C5.10449 53.1796 5.12304 53.5119 5.12305 54.1504C5.12305 54.7391 5.12643 55.0322 5.12891 55.3271C5.13143 55.6272 5.13379 55.9301 5.13379 56.5312C5.13378 57.1635 5.11733 57.4909 5.10156 57.8037C5.08734 58.0858 5.07324 58.3538 5.07324 58.9111C5.07324 59.5311 5.06308 59.8485 5.05273 60.1562C5.04308 60.4434 5.0332 60.7212 5.0332 61.291V63.6709C5.0332 64.2093 5.05346 64.4619 5.07422 64.7363C5.09846 65.0569 5.12304 65.3992 5.12305 66.0508C5.12305 66.6707 5.11288 66.9882 5.10254 67.2959C5.09289 67.583 5.08399 67.8609 5.08398 68.4307V70.8105C5.08398 71.3741 5.09546 71.647 5.10742 71.9316C5.12046 72.2419 5.13378 72.5643 5.13379 73.1904C5.13379 73.8231 5.11734 74.1509 5.10156 74.4639C5.08734 74.7459 5.07324 75.014 5.07324 75.5713C5.07324 76.1597 5.07565 76.4526 5.07812 76.7461C5.08064 77.0447 5.08398 77.3446 5.08398 77.9404C5.08398 78.5557 5.07284 78.874 5.0625 79.1816C5.05285 79.4688 5.04395 79.7463 5.04395 80.3105V82.6807C5.04395 83.2832 5.03829 83.5909 5.0332 83.8945C5.02829 84.1881 5.02344 84.4783 5.02344 85.0605C5.02344 85.5924 5.04454 85.8405 5.06738 86.1123C5.09452 86.4353 5.12303 86.7828 5.12305 87.4404C5.12305 88.1108 5.08784 88.4686 5.05469 88.7959C5.02773 89.062 5.00392 89.2969 5.00391 89.8105C5.00391 90.3373 5.02491 90.5852 5.04785 90.8594C5.07497 91.1835 5.1035 91.5331 5.10352 92.1904C5.10352 92.8106 5.09336 93.1287 5.08301 93.4365C5.07336 93.7236 5.06348 94.0016 5.06348 94.5713V96.9512C5.06348 97.552 5.06111 97.8544 5.05859 98.1543C5.05612 98.4492 5.05371 98.7423 5.05371 99.3311V101.711C5.05371 102.287 5.06106 102.57 5.06836 102.859C5.07605 103.165 5.08398 103.477 5.08398 104.091C5.08398 104.673 5.08884 104.961 5.09375 105.253C5.09884 105.556 5.10351 105.863 5.10352 106.471C5.10352 107.103 5.08707 107.431 5.07129 107.744C5.05707 108.026 5.04395 108.294 5.04395 108.851V111.23C5.04395 111.838 5.03829 112.146 5.0332 112.448C5.02829 112.741 5.02344 113.029 5.02344 113.611C5.02344 114.174 5.03492 114.447 5.04688 114.731C5.05992 115.042 5.07324 115.365 5.07324 115.991C5.07324 116.599 5.06856 116.906 5.06348 117.209C5.05856 117.501 5.05371 117.789 5.05371 118.371C5.05371 118.947 5.06106 119.23 5.06836 119.52C5.07605 119.825 5.08398 120.137 5.08398 120.751C5.08398 121.396 5.06142 121.734 5.04004 122.052C5.02142 122.329 5.00391 122.586 5.00391 123.131C5.00391 123.7 5.01278 123.977 5.02344 124.26C5.03486 124.563 5.0485 124.882 5.05371 125.507C5.06265 126.58 5.08229 126.739 5.08301 127.85L5.09375 127.851C5.09375 128.404 5.22725 129.143 5.51074 129.836C5.76219 130.451 6.1992 131.022 6.65039 131.474C7.08788 131.911 7.30243 132.154 7.50488 132.383C7.68236 132.584 7.84836 132.772 8.2207 133.145C8.65138 133.575 8.86356 133.809 9.06348 134.028C9.24297 134.225 9.41463 134.413 9.79297 134.787C10.1849 135.174 10.3817 135.36 10.5869 135.554C10.803 135.758 11.0224 135.966 11.4404 136.384C11.852 136.795 12.0571 137.006 12.2598 137.214C12.457 137.416 12.6518 137.616 13.0498 138.014C13.4676 138.431 13.6752 138.65 13.875 138.858C14.0644 139.056 14.251 139.25 14.6426 139.637C15.0115 140.001 15.1998 140.162 15.4053 140.341C15.6415 140.546 15.8893 140.763 16.3301 141.204C16.7414 141.615 16.9468 141.826 17.1494 142.033C17.3468 142.235 17.542 142.436 17.9404 142.834C18.3519 143.245 18.5571 143.456 18.7598 143.664C18.9569 143.866 19.1518 144.066 19.5498 144.464C19.853 144.767 20.4365 145.096 21.3027 145.46C22.2384 145.853 22.8418 146.051 23.2236 146.051C23.7784 146.051 24.0398 146.032 24.3223 146.011C24.6496 145.987 24.9983 145.961 25.6631 145.961C26.2976 145.961 26.6225 145.971 26.9365 145.981C27.2303 145.991 27.5135 146.001 28.0938 146.001C28.6492 146.001 28.9153 145.984 29.2021 145.965C29.5283 145.944 29.8746 145.921 30.5332 145.921C31.2104 145.921 31.5691 145.952 31.9014 145.982C32.179 146.007 32.4311 146.031 32.9736 146.031C33.5404 146.031 33.8114 146.016 34.0986 145.999C34.4211 145.981 34.7604 145.961 35.4131 145.961C36.0475 145.961 36.3725 145.971 36.6875 145.981C36.9824 145.991 37.268 146.001 37.8535 146.001C38.4328 146.001 38.7135 145.99 39.0059 145.978C39.3234 145.965 39.6533 145.951 40.2939 145.951C40.9098 145.951 41.2199 145.954 41.5273 145.956C41.8297 145.959 42.1298 145.961 42.7334 145.961C43.3494 145.961 43.6594 145.963 43.9668 145.966C44.2693 145.968 44.57 145.971 45.1738 145.971C45.765 145.971 46.0553 145.963 46.3525 145.956C46.6651 145.948 46.9851 145.94 47.6133 145.94H52.4932C53.1458 145.94 53.4852 145.96 53.8076 145.979C54.0951 145.995 54.3665 146.011 54.9336 146.011C55.5558 146.011 55.8706 146.016 56.1807 146.021C56.4805 146.026 56.7757 146.031 57.373 146.031C57.9156 146.031 58.1677 146.007 58.4453 145.982C58.7776 145.952 59.1361 145.921 59.8135 145.921C60.4725 145.921 60.8166 145.944 61.1416 145.965C61.4265 145.984 61.6931 146.001 62.2539 146.001C62.8818 146.001 63.2013 146.009 63.5137 146.017C63.8111 146.024 64.1019 146.031 64.6934 146.031C65.2911 146.031 65.5868 146.026 65.8867 146.021C66.1967 146.016 66.5117 146.011 67.1338 146.011C67.7679 146.011 68.0923 146.022 68.4072 146.032C68.7021 146.042 68.988 146.051 69.5732 146.051C70.1526 146.051 70.4336 146.039 70.7275 146.027C71.0465 146.014 71.3781 146.001 72.0234 146.001C72.6505 146.001 72.9653 146.006 73.2754 146.011C73.5753 146.016 73.8708 146.021 74.4736 146.021C75.0763 146.021 75.372 146.016 75.6719 146.011C75.9819 146.006 76.2969 146.001 76.9238 146.001C77.4919 146.001 78.2396 145.872 78.9189 145.594C79.5591 145.332 80.1609 144.89 80.5869 144.464C81.0064 144.044 81.2245 143.834 81.4385 143.628C81.6444 143.429 81.8469 143.234 82.2471 142.834C82.6473 142.434 82.8424 142.231 83.041 142.025C83.2473 141.811 83.4574 141.593 83.877 141.174C84.2965 140.754 84.5146 140.544 84.7285 140.338C84.9344 140.139 85.1369 139.944 85.5371 139.544C85.9436 139.137 86.146 138.933 86.3496 138.727C86.5559 138.518 86.7637 138.308 87.1768 137.895C87.5898 137.481 87.8 137.274 88.0088 137.067C88.215 136.864 88.4204 136.661 88.8271 136.254C89.2017 135.879 89.3684 135.689 89.5518 135.48C89.7616 135.242 89.9832 134.992 90.4336 134.547C90.8807 134.105 91.1277 133.89 91.3574 133.688C91.5593 133.51 91.7493 133.342 92.127 132.964C92.5207 132.57 92.7074 132.371 92.8984 132.167C93.1019 131.95 93.3137 131.722 93.7393 131.291C94.1556 130.87 94.3689 130.66 94.5791 130.452C94.7839 130.25 94.9862 130.05 95.3896 129.642C95.7996 129.227 96.005 129.019 96.21 128.812C96.4149 128.604 96.6195 128.396 97.0293 127.981C97.4712 127.534 97.7167 127.314 97.9521 127.104C98.16 126.919 98.3533 126.747 98.7363 126.364C99.113 125.988 99.2772 125.798 99.4512 125.596C99.6539 125.36 99.8714 125.105 100.319 124.651C100.771 124.195 101.028 123.971 101.269 123.763C101.473 123.586 101.661 123.424 102.029 123.051L102.037 123.044C102.346 122.734 102.696 122.128 103.039 121.3C103.342 120.568 103.493 119.856 103.493 119.351C103.493 118.71 103.516 118.374 103.537 118.06C103.556 117.786 103.573 117.534 103.573 117.001C103.573 116.74 103.568 116.549 103.56 116.389L103.491 115.432C103.481 115.224 103.474 114.975 103.474 114.65C103.474 114.034 103.487 113.714 103.5 113.406C103.512 113.124 103.523 112.854 103.523 112.301V109.951C103.523 109.392 103.515 109.117 103.505 108.832C103.495 108.527 103.483 108.211 103.483 107.601C103.483 106.984 103.497 106.666 103.51 106.359C103.522 106.079 103.533 105.809 103.533 105.251C103.533 104.68 103.527 104.4 103.52 104.114C103.512 103.813 103.504 103.505 103.504 102.9C103.504 102.335 103.497 102.055 103.489 101.767C103.482 101.463 103.474 101.15 103.474 100.541C103.474 99.8877 103.502 99.5424 103.529 99.2217C103.552 98.9524 103.573 98.7073 103.573 98.1807C103.573 97.6545 103.552 97.4097 103.529 97.1406C103.502 96.82 103.474 96.4744 103.474 95.8213C103.474 95.2189 103.478 94.9134 103.483 94.6133C103.488 94.3235 103.493 94.0382 103.493 93.4609C103.493 92.8836 103.488 92.5984 103.483 92.3086C103.478 92.0085 103.474 91.7031 103.474 91.1006C103.474 90.4512 103.378 89.7324 103.125 89.1367C102.851 88.4923 102.403 87.8842 101.977 87.458L101.974 87.4541L101.968 87.4482L101.964 87.4453L101.961 87.4414L101.955 87.4355L101.951 87.4326L101.948 87.4287L101.942 87.4229L101.938 87.4199L101.936 87.416L101.93 87.4102L101.926 87.4072L101.923 87.4033L101.917 87.3975L101.913 87.3945L101.91 87.3916L101.907 87.3877L101.904 87.3848L101.9 87.3818L101.897 87.3789L101.895 87.375L101.892 87.3721L101.888 87.3691L101.885 87.3662L101.882 87.3623L101.876 87.3564L101.872 87.3535L101.869 87.3496L101.863 87.3438L101.859 87.3408L101.856 87.3369L101.851 87.3311L101.847 87.3281L101.844 87.3242L101.838 87.3184L101.834 87.3154L101.831 87.3115L101.825 87.3057L101.821 87.3027L101.818 87.2988L101.812 87.293L101.809 87.29L101.806 87.2861L101.8 87.2803L101.796 87.2773L101.793 87.2744L101.79 87.2705L101.787 87.2676L101.783 87.2646L101.78 87.2617L101.777 87.2578L101.774 87.2549L101.771 87.252L101.768 87.249L101.765 87.2451L101.762 87.2422L101.758 87.2393L101.755 87.2363L101.752 87.2324L101.746 87.2266L101.742 87.2236L101.739 87.2197L101.733 87.2139L101.729 87.2109L101.727 87.207L101.721 87.2012L101.717 87.1982L101.714 87.1943L101.708 87.1885L101.704 87.1855L101.701 87.1816L101.695 87.1758L101.691 87.1729L101.688 87.1689L101.683 87.1631L101.679 87.1602L101.676 87.1562L101.67 87.1504L101.666 87.1475L101.663 87.1436L101.657 87.1377L101.653 87.1348L101.65 87.1309L101.645 87.125L101.641 87.1221L101.638 87.1182L101.632 87.1123L101.628 87.1094L101.625 87.1055L101.619 87.0996L101.615 87.0967L101.612 87.0928L101.606 87.0869L101.603 87.084L101.6 87.0801L101.594 87.0742L101.59 87.0713L101.587 87.0674L101.581 87.0615L101.577 87.0586L101.574 87.0547L101.568 87.0488L101.564 87.0459L101.562 87.042L101.556 87.0361L101.552 87.0332L101.549 87.0293L101.543 87.0234L101.539 87.0205L101.536 87.0166L101.53 87.0107L101.526 87.0078L101.523 87.0039L101.518 86.998L101.514 86.9951L101.511 86.9912L101.505 86.9854L101.501 86.9824L101.498 86.9785L101.492 86.9727L101.488 86.9697L101.485 86.9658L101.479 86.96L101.476 86.957L101.473 86.9531L101.467 86.9473L101.463 86.9443L101.46 86.9404L101.454 86.9346L101.45 86.9316L101.447 86.9277L101.441 86.9219L101.438 86.9189L101.435 86.915L101.429 86.9092L101.425 86.9062L101.422 86.9023L101.416 86.8965L101.412 86.8936L101.409 86.8896L101.403 86.8838L101.399 86.8809L101.396 86.877L101.391 86.8711L101.387 86.8682L101.384 86.8643L101.381 86.8613L101.377 86.8584L101.374 86.8555L101.371 86.8516L101.368 86.8486L101.364 86.8457L101.361 86.8428L101.358 86.8389L101.355 86.8359L101.352 86.833L101.349 86.8301L101.346 86.8262L101.343 86.8232L101.339 86.8203L101.336 86.8164L101.33 86.8105L101.326 86.8076L101.323 86.8037L101.317 86.7979L101.313 86.7949L101.311 86.791L101.305 86.7852L101.301 86.7822L101.298 86.7783L101.292 86.7725L101.288 86.7695L101.285 86.7656L101.279 86.7598L101.275 86.7568L101.272 86.7529L101.267 86.7471L101.263 86.7441L101.26 86.7402L101.257 86.7373L101.253 86.7344L101.25 86.7314L101.247 86.7275L101.244 86.7246L101.24 86.7217L101.237 86.7188L101.234 86.7148L101.231 86.7119L101.228 86.709L101.225 86.7051L101.219 86.6992L101.215 86.6963L101.212 86.6924L101.206 86.6865L101.202 86.6836L101.199 86.6797L101.193 86.6738L101.189 86.6709L101.187 86.667L101.181 86.6611L101.177 86.6582L101.174 86.6543L101.171 86.6514L101.167 86.6484L101.164 86.6455L101.161 86.6416L101.158 86.6387L101.154 86.6357L101.151 86.6328L101.148 86.6289L101.146 86.626L101.142 86.623L101.139 86.6191L101.133 86.6133L101.129 86.6104L101.126 86.6064L101.12 86.6006L101.116 86.5977L101.113 86.5938L101.107 86.5879L101.104 86.585L101.101 86.5811L101.098 86.5781L101.094 86.5752L101.091 86.5723L101.088 86.5684L101.085 86.5654L101.081 86.5625L101.078 86.5596L101.075 86.5557L101.072 86.5527L101.068 86.5498L101.065 86.5459L101.06 86.54L101.056 86.5371L101.053 86.5332L101.047 86.5273L101.043 86.5244L101.04 86.5205L101.034 86.5146L101.03 86.5117L101.027 86.5078L101.024 86.5049L101.021 86.502L101.018 86.499L101.015 86.4951L101.012 86.4922L101.008 86.4893L101.005 86.4854L100.999 86.4795L100.995 86.4766L100.992 86.4727L100.986 86.4668L100.982 86.4639L100.979 86.46L100.977 86.457L100.973 86.4541L100.97 86.4512L100.967 86.4473L100.964 86.4443L100.96 86.4414L100.957 86.4385L100.954 86.4346L100.951 86.4316L100.947 86.4287L100.944 86.4248L100.938 86.4189L100.935 86.416L100.932 86.4121L100.926 86.4062L100.922 86.4033L100.919 86.3994L100.916 86.3965L100.912 86.3936L100.909 86.3906L100.906 86.3867L100.903 86.3838L100.899 86.3809L100.896 86.377L100.891 86.3711L100.887 86.3682L100.884 86.3643L100.878 86.3584L100.874 86.3555L100.871 86.3516L100.868 86.3486L100.864 86.3457L100.861 86.3428L100.858 86.3389L100.855 86.3359L100.852 86.333L100.849 86.3291L100.843 86.3232L100.839 86.3203L100.836 86.3164L100.83 86.3105L100.826 86.3076L100.823 86.3037L100.82 86.3008L100.816 86.2979L100.813 86.2939L100.808 86.2881L100.804 86.2852L100.801 86.2812L100.795 86.2754L100.791 86.2725L100.788 86.2686L100.785 86.2656L100.781 86.2627L100.778 86.2598L100.775 86.2559L100.772 86.2529L100.769 86.25L100.766 86.2461L100.76 86.2402L100.756 86.2373L100.753 86.2334L100.747 86.2275L100.743 86.2246L100.74 86.2207L100.737 86.2178L100.733 86.2148L100.73 86.2109L100.725 86.2051L100.721 86.2021L100.718 86.1982L100.712 86.1924L100.708 86.1895L100.705 86.1855L100.702 86.1826L100.698 86.1797L100.695 86.1768L100.692 86.1729L100.689 86.1699L100.686 86.167L100.683 86.1631L100.677 86.1572L100.673 86.1543L100.67 86.1504L100.667 86.1475L100.663 86.1445L100.66 86.1416L100.657 86.1377L100.654 86.1348L100.65 86.1318L100.647 86.1279L100.642 86.1221L100.638 86.1191L100.635 86.1152L100.632 86.1123L100.628 86.1094L100.625 86.1064L100.622 86.1025L100.619 86.0996L100.615 86.0967L100.612 86.0928L100.606 86.0869L100.603 86.084L100.6 86.0801L100.597 86.0771L100.593 86.0742L100.59 86.0713L100.587 86.0674L100.584 86.0645L100.58 86.0615L100.577 86.0576L100.571 86.0518L100.567 86.0488L100.564 86.0449L100.562 86.042L100.558 86.0391L100.555 86.0352L100.549 86.0293L100.545 86.0264L100.542 86.0225L100.536 86.0166L100.532 86.0137L100.529 86.0098L100.526 86.0068L100.522 86.0039L100.52 86L100.514 85.9941L100.51 85.9912L100.507 85.9873L100.504 85.9844L100.5 85.9814L100.497 85.9785L100.494 85.9746L100.491 85.9717L100.487 85.9688L100.484 85.9648L100.479 85.959L100.475 85.9561L100.472 85.9521L100.469 85.9492L100.465 85.9463L100.462 85.9424L100.456 85.9365L100.452 85.9336L100.449 85.9297L100.446 85.9268L100.442 85.9238L100.439 85.9209L100.437 85.917L100.434 85.9141L100.43 85.9111L100.427 85.9072L100.421 85.9014L100.417 85.8984L100.414 85.8945L100.411 85.8916L100.407 85.8887L100.404 85.8848L100.398 85.8789L100.395 85.876L100.392 85.8721L100.389 85.8691L100.385 85.8662L100.382 85.8633L100.379 85.8594L100.376 85.8564L100.372 85.8535L100.369 85.8496L100.363 85.8438L100.359 85.8408L100.356 85.8369L100.354 85.834L100.35 85.8311L100.347 85.8271C99.5539 85.0344 99.4844 84.9449 98.7295 84.1807C97.9219 83.3631 97.9439 83.3941 97.1172 82.5674C96.7348 82.185 96.5402 82.0068 96.334 81.8164C96.1089 81.6085 95.8767 81.3927 95.4492 80.96C95.0124 80.5177 94.7984 80.2732 94.5986 80.0459C94.4237 79.8468 94.2588 79.6592 93.8867 79.2871C93.5178 78.9182 93.3303 78.7561 93.1299 78.582C92.8988 78.3813 92.6497 78.1648 92.2041 77.7246C91.7647 77.2906 91.5467 77.0509 91.3389 76.8203C91.1534 76.6144 90.9822 76.4236 90.6064 76.0479C90.1787 75.6201 89.9665 75.3881 89.7627 75.166C89.5766 74.9632 89.3986 74.7697 89.0166 74.3877C88.6214 73.9925 88.4216 73.8 88.2168 73.6025C88.004 73.3974 87.7866 73.187 87.3672 72.7676C86.6019 72.0023 86.513 71.934 85.7197 71.1309C85.3471 70.7536 85.1593 70.5856 84.96 70.4082C84.7328 70.206 84.4888 69.9897 84.0469 69.5479C83.1291 68.6301 82.7637 67.4085 82.7637 66.3311C82.7637 65.0768 83.3349 63.9914 84.1475 63.1934C84.5321 62.8085 84.7177 62.6132 84.9082 62.4131C85.1109 62.2002 85.3186 61.9822 85.7363 61.5645C86.1087 61.1921 86.2747 61.0036 86.4521 60.8027C86.6545 60.5737 86.8694 60.3318 87.3066 59.8945C87.7345 59.4667 87.9636 59.2563 88.1836 59.0547C88.3836 58.8713 88.575 58.6965 88.957 58.3145C89.3291 57.9423 89.4945 57.7544 89.6719 57.5537C89.8743 57.3246 90.089 57.0819 90.5264 56.6445C90.99 56.1809 91.2664 55.9587 91.5176 55.7578C91.7163 55.5989 91.8903 55.4603 92.2363 55.1143C92.5889 54.7617 92.7341 54.5839 92.8975 54.3848C93.0989 54.1391 93.3192 53.8712 93.7764 53.4141C94.2172 52.9732 94.4654 52.7561 94.6982 52.5527C94.9003 52.3763 95.0881 52.2127 95.457 51.8438C95.8224 51.4784 95.9808 51.2939 96.1533 51.0938C96.3556 50.8591 96.5725 50.6082 97.0166 50.1641C97.4847 49.6959 97.9315 49.1259 98.1768 48.5264C98.4295 47.9084 98.5234 47.1785 98.5234 46.5312C98.5234 45.8449 98.555 45.4817 98.585 45.1455C98.6101 44.8634 98.6338 44.6085 98.6338 44.0605C98.6338 43.4946 98.6154 43.2257 98.5967 42.9365C98.5754 42.6077 98.5537 42.2591 98.5537 41.5908C98.5537 40.9287 98.5723 40.5851 98.5908 40.2588C98.6074 39.9671 98.623 39.6933 98.623 39.1211C98.623 38.573 98.6001 38.3161 98.5742 38.0361C98.5435 37.7037 98.5094 37.3398 98.5039 36.6543C98.4939 35.41 98.5039 35.3698 98.5039 34.1611C98.5039 33.5351 98.5063 33.2197 98.5088 32.9072C98.5113 32.5998 98.5137 32.2944 98.5137 31.6807C98.5137 31.0065 98.5384 30.6534 98.5625 30.3213C98.5834 30.0335 98.6035 29.7666 98.6035 29.2012C98.6035 28.6538 98.5779 28.4007 98.5508 28.1201C98.5179 27.7809 98.4834 27.4131 98.4834 26.7207C98.4834 26.0898 98.3833 25.3645 98.126 24.7354C97.8722 24.1151 97.4316 23.5332 96.9863 23.0879C96.5796 22.6812 96.3775 22.4804 96.1738 22.2793C95.9676 22.0756 95.7596 21.8709 95.3467 21.458C94.9335 21.0448 94.7282 20.8372 94.5244 20.6309C94.3233 20.4272 94.1236 20.2242 93.7168 19.8174C92.8993 18.9999 92.9017 19.0021 92.0742 18.1846C91.2419 17.3623 91.2301 17.3405 90.4268 16.5371C89.9976 16.108 89.7852 15.8798 89.5801 15.6592C89.3902 15.4549 89.2071 15.2578 88.8164 14.8672C88.3679 14.4186 88.1483 14.1658 87.9414 13.9248C87.7634 13.7175 87.6014 13.5268 87.2295 13.1504C86.8355 12.7516 86.6399 12.5657 86.4414 12.3789C86.2298 12.1798 86.0046 11.9701 85.5742 11.5449C85.1849 11.1603 84.9884 10.9836 84.7803 10.7959C84.5501 10.5883 84.3128 10.3733 83.877 9.9375C83.0734 9.13391 83.0421 9.11267 82.2197 8.28027C81.7847 7.83996 81.5706 7.60177 81.3701 7.38086C81.1893 7.18164 81.0131 6.98885 80.624 6.60449L80.6172 6.59766C80.2403 6.22074 79.6114 5.79512 78.9092 5.50781C78.2702 5.24641 77.5409 5.14066 76.9238 5.14062C76.2832 5.14062 75.9533 5.12727 75.6357 5.11426C75.3434 5.10228 75.0626 5.09082 74.4834 5.09082C73.9164 5.09082 73.6452 5.10658 73.3594 5.12305C73.0384 5.14154 72.7017 5.16113 72.0537 5.16113C71.4119 5.16113 71.0775 5.14461 70.7568 5.12891C70.4656 5.11464 70.1866 5.10059 69.6133 5.10059C68.9792 5.10058 68.6548 5.0904 68.3398 5.08008C68.045 5.07041 67.7591 5.06055 67.1738 5.06055C66.558 5.06055 66.2478 5.05819 65.9404 5.05566C65.638 5.05318 65.3373 5.05078 64.7334 5.05078C64.1112 5.05078 63.7964 5.0461 63.4863 5.04102C63.1865 5.0361 62.8913 5.03125 62.2939 5.03125C61.7514 5.03125 61.4994 5.05407 61.2217 5.0791C60.8894 5.10907 60.531 5.14062 59.8535 5.14062C59.219 5.14062 58.8942 5.13045 58.5791 5.12012C58.2843 5.11045 57.9983 5.10059 57.4131 5.10059C56.7852 5.10058 56.4657 5.09264 56.1533 5.08496C55.8559 5.07765 55.5652 5.07129 54.9736 5.07129C54.4189 5.07129 54.1575 5.09049 53.875 5.11133C53.5475 5.13549 53.1984 5.16113 52.5332 5.16113C51.8991 5.16113 51.5747 5.14997 51.2598 5.13965C50.9649 5.12998 50.6791 5.1211 50.0938 5.12109H47.6533C47.0312 5.12109 46.7163 5.11543 46.4062 5.11035C46.1064 5.10544 45.8112 5.10059 45.2139 5.10059H42.7734C42.139 5.10058 41.8141 5.09041 41.499 5.08008C41.2043 5.07042 40.9189 5.06055 40.334 5.06055C39.7731 5.06055 39.5066 5.07897 39.2217 5.09766C38.8967 5.11897 38.5526 5.14062 37.8936 5.14062C37.2958 5.14062 37.0002 5.14548 36.7002 5.15039C36.3903 5.15547 36.0751 5.16113 35.4531 5.16113C34.8311 5.16113 34.516 5.15547 34.2061 5.15039C33.9063 5.14548 33.611 5.14063 33.0137 5.14062H30.5732C29.9205 5.14062 29.5812 5.122 29.2578 5.10352C28.9695 5.08704 28.6953 5.07129 28.123 5.07129C27.5269 5.07129 27.2365 5.07766 26.9395 5.08496C26.6268 5.09265 26.3069 5.10058 25.6738 5.10059C25.0893 5.10059 24.8078 5.11205 24.5156 5.12402C24.198 5.13704 23.8688 5.15039 23.2236 5.15039C22.6746 5.15039 21.9556 5.28291 21.2578 5.56836C20.4686 5.89129 19.8481 6.27012 19.5205 6.59766C19.1417 6.97646 18.9684 7.16694 18.7861 7.36816C18.5835 7.5919 18.3716 7.82669 17.9404 8.25781C17.4996 8.69861 17.2543 8.91293 17.0234 9.11426C16.8244 9.28781 16.6393 9.44856 16.2705 9.81738C15.8886 10.1993 15.7136 10.3909 15.5303 10.5908C15.3286 10.8108 15.1183 11.0399 14.6904 11.4678C14.2789 11.8793 14.0681 12.0845 13.8604 12.2871C13.6582 12.4843 13.4586 12.6791 13.0605 13.0771C12.234 13.9037 12.3223 13.835 11.4678 14.7002C11.0384 15.1349 10.8004 15.3503 10.5713 15.5566C10.367 15.7406 10.1756 15.9113 9.7998 16.2871C9.43402 16.6529 9.27546 16.8382 9.09863 17.042C8.8922 17.2799 8.6719 17.5308 8.22266 17.9746C7.79026 18.4017 7.55941 18.6117 7.34473 18.8086C7.14951 18.9876 6.95927 19.1639 6.57715 19.5508L6.57031 19.5576C6.24697 19.881 5.87639 20.4966 5.53418 21.3105C5.23965 22.0112 5.10353 22.7243 5.10352 23.2607V25.6309Z" fill="#1E1E1E"/>
<path d="M55.1837 80.2812L47.0137 72.1112L52.5937 66.5312H55.2037L57.1937 68.5212L56.9737 69.8712L58.8737 69.3912L61.2437 71.7612L60.8537 74.6212L55.1837 80.2912V80.2812ZM51.6837 73.9512L54.9837 70.6512L55.1937 69.3312L54.3637 68.5012L53.4837 68.5212L49.8637 72.1412L51.6737 73.9512H51.6837ZM55.1537 77.4212L58.9637 73.6112L59.1237 72.4512L58.1337 71.4612L56.5037 71.8812L53.0637 75.3212L55.1537 77.4112V77.4212Z" fill="#1E1E1E"/>
<path d="M63.9544 71.5104L59.7944 67.3503L57.4844 66.1304L58.3844 64.3404L60.1744 65.2903L60.2144 62.8704L62.1844 60.9004L63.6244 62.3404L62.1844 63.7804L62.1344 66.8604L65.3644 70.0904L63.9544 71.5004V71.5104Z" fill="#1E1E1E"/>
<path d="M74.7137 61.1108L72.8537 61.4808L72.3637 60.9908L72.2437 62.3308L71.4637 64.0008L69.7937 65.6708L67.7137 65.5908L66.3337 64.2108L66.2237 62.3808L69.1537 58.0308L68.8537 57.7308H68.0237L66.0637 59.6808L65.9337 60.2108L66.2137 60.9608L64.3737 61.7208L63.9237 60.5108L64.3037 58.7908L67.2937 55.8008L69.7737 55.8208L73.2837 59.3308L73.8637 59.2008L74.5237 58.2308L75.9837 59.2408L74.7237 61.1008L74.7137 61.1108ZM69.1637 63.7708L70.0237 62.9108L70.5337 61.8208L70.8837 59.7908L70.3237 59.2308L68.0737 62.7308L68.1237 63.2108L68.6637 63.7508L69.1637 63.7808V63.7708Z" fill="#1E1E1E"/>
<path d="M76.9937 58.4709L72.8337 54.3109L70.5237 53.0909L71.4237 51.3008L73.2137 52.2509L73.2537 49.8309L75.7037 47.3809L78.5837 47.4609L83.2937 52.1708L81.8837 53.5809L77.7237 49.4208L76.5837 49.3909L75.2237 50.7509L75.1737 53.8309L78.4037 57.0609L76.9937 58.4709Z" fill="#1E1E1E"/>
<path d="M90.5342 45.2903L89.1242 44.5603L88.8842 46.5803L86.3142 49.1503L82.9642 49.0103L80.1642 46.2103L80.0742 43.0103L82.4742 40.6103L84.4142 40.2403L81.6542 37.4803L83.0642 36.0703L89.6542 42.6603L91.3842 43.5003L90.5342 45.3103V45.2903ZM85.5742 47.1003L86.9342 45.7403L87.2642 43.0803L86.1242 41.9403L83.3942 42.4803L82.1242 43.7503L82.1742 45.3803L83.8242 47.0303L85.5842 47.1003H85.5742Z" fill="#1E1E1E"/>
</svg>
