<svg width="126" height="150" viewBox="0 0 126 150" fill="none" xmlns="http://www.w3.org/2000/svg">
<path d="M42.3319 1.77039C41.5519 1.77039 40.6319 1.96038 39.7519 2.33038C38.8719 2.70038 38.0419 3.16039 37.4819 3.71039C36.6419 4.55039 36.6719 4.58038 35.8319 5.42038C34.9919 6.26038 34.9919 6.26039 34.1419 7.10039C33.2919 7.94039 33.3119 7.95039 32.4719 8.79039C31.6319 9.63039 31.6319 9.64038 30.7919 10.4804C29.9519 11.3204 29.8619 11.2304 29.0219 12.0804C28.1819 12.9304 28.2619 13.0004 27.4219 13.8404C26.5819 14.6804 26.5919 14.6904 25.7419 15.5304C24.8919 16.3704 24.8319 16.3004 23.9919 17.1404C23.1519 17.9804 23.2119 18.0504 22.3719 18.8904C21.5319 19.7304 21.4919 19.6904 20.6519 20.5304C19.8119 21.3704 19.8119 21.3704 18.9719 22.2104C18.1319 23.0504 18.0819 23.0104 17.2419 23.8504C16.4019 24.6904 16.4819 24.7704 15.6419 25.6104C14.8019 26.4504 14.7919 26.4504 13.9519 27.2904C13.1119 28.1304 13.0819 28.1104 12.2419 28.9504C11.4019 29.7904 11.4219 29.8204 10.5819 30.6604C9.74188 31.5004 9.6619 31.4304 8.8219 32.2704C7.9819 33.1104 8.04187 33.1804 7.20187 34.0304C6.36187 34.8804 6.33187 34.8504 5.48187 35.6904C4.93187 36.2404 4.5019 37.0904 4.1319 37.9704C3.7619 38.8504 3.43188 39.7604 3.43188 40.5304C3.43188 41.7404 3.47189 41.7404 3.47189 42.9604C3.47189 44.1804 3.44189 44.1704 3.44189 45.3904C3.44189 46.6104 3.49188 46.6004 3.49188 47.8204C3.49188 49.0404 3.42188 49.0304 3.42188 50.2504C3.42188 51.4704 3.51187 51.4604 3.51187 52.6804C3.51187 53.9004 3.45187 53.8904 3.45187 55.1104C3.45187 56.3304 3.51187 56.3204 3.51187 57.5404C3.51187 58.7604 3.43188 58.7504 3.43188 59.9704C3.43188 61.1904 3.49188 61.1804 3.49188 62.4004C3.49188 63.6204 3.5419 63.6104 3.5419 64.8304C3.5419 66.0504 3.45187 66.0404 3.45187 67.2504C3.45187 68.4604 3.55188 68.4604 3.55188 69.6804C3.55188 70.9004 3.52188 70.8904 3.52188 72.1104C3.52188 73.3304 3.46188 73.3204 3.46188 74.5404C3.46188 75.7604 3.46188 75.7504 3.46188 76.9704C3.46188 78.1904 3.46188 78.1804 3.46188 79.4004C3.46188 80.6204 3.49188 80.6204 3.49188 81.8304C3.49188 83.0404 3.56189 83.0404 3.56189 84.2604C3.56189 85.4804 3.45187 85.4804 3.45187 86.6904C3.45187 87.9004 3.53189 87.9004 3.53189 89.1204C3.53189 90.3404 3.53189 90.3404 3.53189 91.5504C3.53189 92.7604 3.46188 92.7704 3.46188 93.9804C3.46188 95.1904 3.46188 95.2004 3.46188 96.4104C3.46188 97.6204 3.50189 97.6304 3.50189 98.8404C3.50189 100.05 3.52188 100.05 3.52188 101.27C3.52188 102.49 3.49188 102.49 3.49188 103.7C3.49188 104.91 3.55188 104.92 3.55188 106.13C3.55188 107.34 3.5419 107.35 3.5419 108.56C3.5419 109.77 3.51187 109.78 3.51187 110.99C3.51187 112.2 3.43188 112.21 3.43188 113.43C3.43188 114.65 3.43188 114.65 3.43188 115.87C3.43188 116.65 3.70189 117.59 4.06189 118.47C4.42189 119.35 4.93187 120.17 5.48187 120.72C6.30187 121.54 6.29188 121.54 7.11188 122.36C7.93188 123.18 7.99189 123.13 8.81189 123.95C9.63189 124.77 9.54188 124.86 10.3619 125.68C11.1819 126.5 11.2419 126.45 12.0619 127.27C12.8819 128.09 12.8719 128.1 13.6919 128.92C14.5119 129.74 14.5519 129.7 15.3719 130.51C16.1919 131.32 16.1419 131.39 16.9619 132.21C17.7819 133.03 17.8219 132.99 18.6419 133.81C19.4619 134.63 19.3919 134.71 20.2119 135.53C21.0319 136.35 21.1119 136.27 21.9319 137.09C22.7519 137.91 22.6719 138 23.4919 138.82C24.3119 139.64 24.4019 139.55 25.2319 140.38C26.0619 141.21 26.0019 141.25 26.8319 142.08C27.6619 142.91 27.6819 142.87 28.5119 143.7C29.0619 144.25 29.8319 144.84 30.7119 145.2C31.5919 145.56 32.5519 145.73 33.3319 145.73C34.5319 145.73 34.5319 145.68 35.7319 145.68C36.9319 145.68 36.9319 145.67 38.1319 145.67C39.3319 145.67 39.3319 145.68 40.5319 145.68C41.7319 145.68 41.7319 145.78 42.9219 145.78C44.1119 145.78 44.1219 145.78 45.3219 145.78C46.5219 145.78 46.5219 145.67 47.7219 145.67C48.9219 145.67 48.9219 145.77 50.1219 145.77C51.3219 145.77 51.3219 145.68 52.5219 145.68C53.7219 145.68 53.7219 145.71 54.9219 145.71C56.1219 145.71 56.1219 145.73 57.3219 145.73C58.5219 145.73 58.5219 145.75 59.7219 145.75C60.9219 145.75 60.9219 145.67 62.1219 145.67C63.3219 145.67 63.3219 145.67 64.5219 145.67C65.7219 145.67 65.7219 145.77 66.9219 145.77C68.1219 145.77 68.1219 145.7 69.3219 145.7C70.5219 145.7 70.5219 145.76 71.7219 145.76C72.9219 145.76 72.9219 145.68 74.1219 145.68C75.3219 145.68 75.3219 145.67 76.5219 145.67C77.7219 145.67 77.7219 145.67 78.9219 145.67C80.1219 145.67 80.1219 145.77 81.3219 145.77C82.5219 145.77 82.5219 145.66 83.7219 145.66C84.9219 145.66 84.9219 145.71 86.1219 145.71C87.3219 145.71 87.3219 145.68 88.5319 145.68C89.7419 145.68 89.7319 145.64 90.9419 145.64C91.7219 145.64 92.6919 145.56 93.5819 145.21C94.4719 144.86 95.3319 144.36 95.9019 143.84C96.8119 143.01 96.7819 142.98 97.6919 142.16C98.6019 141.34 98.6019 141.33 99.5119 140.51C100.422 139.69 100.382 139.64 101.292 138.81C102.202 137.98 102.272 138.06 103.182 137.23C104.092 136.4 104.092 136.4 105.002 135.58C105.912 134.76 105.842 134.68 106.742 133.85C107.642 133.02 107.652 133.02 108.562 132.19C109.472 131.36 109.492 131.39 110.402 130.56C111.312 129.73 111.322 129.74 112.232 128.91C113.142 128.08 113.122 128.06 114.032 127.23C114.942 126.4 114.992 126.46 115.912 125.63C116.832 124.8 116.802 124.78 117.722 123.95C118.642 123.12 118.632 123.12 119.552 122.29C120.472 121.46 120.492 121.49 121.402 120.66C121.982 120.14 122.512 119.33 122.892 118.47C123.272 117.61 123.512 116.67 123.512 115.89C123.512 114.7 123.512 114.7 123.512 113.51C123.512 112.32 123.452 112.32 123.452 111.13C123.452 109.94 123.502 109.94 123.502 108.75C123.502 107.56 123.412 107.56 123.412 106.37C123.412 105.18 123.532 105.18 123.532 103.99C123.532 102.8 123.402 102.8 123.402 101.61C123.402 100.42 123.402 100.42 123.402 99.2304C123.402 98.0404 123.402 98.0404 123.402 96.8504C123.402 95.6604 123.522 95.6604 123.522 94.4704C123.522 93.2804 123.442 93.2804 123.442 92.0904C123.442 90.9004 123.442 90.9004 123.442 89.7104C123.442 88.5204 123.512 88.5204 123.512 87.3304C123.512 86.1404 123.452 86.1404 123.452 84.9404C123.452 83.7404 123.482 83.7504 123.482 82.5504C123.482 81.7704 123.252 80.8304 122.892 79.9504C122.532 79.0704 122.022 78.2504 121.472 77.7004C120.602 76.8304 120.552 76.8704 119.682 76.0004C118.812 75.1304 118.812 75.1304 117.942 74.2504C117.072 73.3704 117.102 73.3504 116.222 72.4704C115.342 71.5904 115.312 71.6304 114.442 70.7604C113.572 69.8904 113.572 69.8804 112.702 69.0104C111.832 68.1404 111.822 68.1404 110.952 67.2604C110.082 66.3804 110.082 66.3804 109.202 65.5004C108.322 64.6204 108.372 64.5704 107.502 63.7004C106.952 63.1504 106.082 62.7404 105.202 62.3704C104.322 62.0004 103.422 61.6804 102.642 61.6804C101.282 61.6804 101.282 61.7904 99.9119 61.7904C98.5419 61.7904 98.5519 61.7804 97.1819 61.7804C95.8119 61.7804 95.8219 61.7104 94.4519 61.7104C93.6719 61.7104 92.9619 62.0304 92.4519 62.5504C91.9419 63.0704 91.5719 63.7704 91.5719 64.5504C91.5719 65.7704 91.6619 65.7704 91.6619 66.9804C91.6619 68.1904 91.5619 68.2004 91.5619 69.4104C91.5619 70.6204 91.5519 70.6304 91.5519 71.8404C91.5519 73.0504 91.6719 73.0504 91.6719 74.2704C91.6719 75.4904 91.6319 75.4904 91.6319 76.7004C91.6319 77.9104 91.5719 77.9204 91.5719 79.1304C91.5719 80.3404 91.6519 80.3504 91.6519 81.5604C91.6519 82.7704 91.5619 82.7804 91.5619 83.9904C91.5619 85.2004 91.6519 85.2104 91.6519 86.4304C91.6519 87.6504 91.6319 87.6504 91.6319 88.8704C91.6319 89.6504 91.3319 90.4004 90.8219 90.9104C90.3119 91.4204 89.5619 91.7004 88.7819 91.7004C87.6119 91.7004 87.6119 91.6704 86.4319 91.6704C85.2519 91.6704 85.2519 91.7404 84.0819 91.7404C82.9119 91.7404 82.9019 91.6504 81.7319 91.6504C80.5619 91.6504 80.5519 91.6904 79.3819 91.6904C78.2119 91.6904 78.2019 91.7504 77.0319 91.7504C75.8619 91.7504 75.8519 91.7504 74.6719 91.7504C73.4919 91.7504 73.4919 91.6404 72.3119 91.6404C71.5319 91.6404 70.8019 91.4104 70.2819 90.9004C69.7619 90.3904 69.5119 89.6504 69.5119 88.8704C69.5119 87.6004 69.5219 87.6004 69.5219 86.3304C69.5219 85.0604 69.4819 85.0604 69.4819 83.8004C69.4819 82.5404 69.4619 82.5304 69.4619 81.2604C69.4619 79.9904 69.4919 79.9904 69.4919 78.7204C69.4919 77.4504 69.4519 77.4504 69.4519 76.1804C69.4519 74.9104 69.4519 74.9104 69.4519 73.6404C69.4519 72.3704 69.5019 72.3704 69.5019 71.0904C69.5019 69.8104 69.5119 69.8204 69.5119 68.5404C69.5119 67.7604 69.7519 66.8504 70.1219 65.9704C70.4919 65.0904 70.9219 64.2404 71.4719 63.6904C72.0519 63.1104 72.6319 62.5271 73.2119 61.9404C74.0819 61.0704 74.0919 61.0804 74.9619 60.2004C75.8319 59.3204 75.8019 59.3004 76.6819 58.4204C77.5619 57.5404 77.5419 57.5404 78.4219 56.6604C79.3019 55.7804 79.3019 55.8004 80.1819 54.9204C81.0619 54.0404 81.0919 54.0804 81.9619 53.2004C82.8319 52.3204 82.8419 52.3304 83.7219 51.4504C84.6019 50.5704 84.5619 50.5304 85.4319 49.6604C85.9819 49.1104 86.8319 48.6204 87.7119 48.2504C88.5919 47.8804 89.5319 47.6904 90.3119 47.6904C91.4919 47.6904 91.4919 47.7304 92.6619 47.7304C93.8319 47.7304 93.8419 47.7504 95.0119 47.7504C96.1819 47.7504 96.1919 47.7504 97.3619 47.7504C98.5319 47.7504 98.5419 47.6404 99.7119 47.6404C100.882 47.6404 100.882 47.6404 102.062 47.6404C103.242 47.6404 103.242 47.7004 104.412 47.7004C105.582 47.7004 105.592 47.7104 106.762 47.7104C107.932 47.7104 107.942 47.7504 109.112 47.7504C110.282 47.7504 110.292 47.7604 111.462 47.7604C112.632 47.7604 112.642 47.7004 113.822 47.7004C115.002 47.7004 115.002 47.7604 116.182 47.7604C116.962 47.7604 117.722 47.4304 118.232 46.9204C118.742 46.4104 119.012 45.6504 119.012 44.8704C119.012 43.6404 118.982 43.6404 118.992 42.4104C119.002 41.1804 119.052 41.1804 119.052 39.9504C119.052 38.7204 118.972 38.7204 118.972 37.4904C118.972 36.2604 119.042 36.2604 119.052 35.0304C119.062 33.8004 118.962 33.8004 118.962 32.5704C118.962 31.3404 118.982 31.3404 118.992 30.1104C118.992 29.3304 118.832 28.3904 118.472 27.5104C118.112 26.6304 117.632 25.7804 117.082 25.2304C116.252 24.4004 116.202 24.4504 115.372 23.6304C114.542 22.8104 114.542 22.8004 113.712 21.9704C112.882 21.1404 112.942 21.0804 112.112 20.2504C111.282 19.4204 111.222 19.4904 110.392 18.6604C109.562 17.8304 109.622 17.7704 108.802 16.9504C107.982 16.1304 107.892 16.2004 107.062 15.3704C106.232 14.5404 106.232 14.5404 105.402 13.7204C104.572 12.9004 104.632 12.8304 103.802 12.0004C102.972 11.1704 102.912 11.2304 102.082 10.4004C101.252 9.57039 101.322 9.50039 100.492 8.68039C99.6619 7.86039 99.6019 7.91038 98.7719 7.08038C97.9419 6.25038 97.9419 6.24039 97.1119 5.41039C96.2819 4.58039 96.2719 4.58038 95.4419 3.75038C94.8919 3.20038 94.0819 2.71039 93.2019 2.35039C92.3219 1.99039 91.4119 1.76039 90.6319 1.76039C89.8252 1.76039 89.0219 1.76039 88.2219 1.76039C87.0119 1.76039 87.0119 1.70038 85.8119 1.70038C84.6119 1.70038 84.6019 1.69038 83.4019 1.69038C82.2019 1.69038 82.1919 1.78038 80.9919 1.78038C79.7919 1.78038 79.7819 1.68039 78.5819 1.68039C77.3819 1.68039 77.3719 1.65039 76.1619 1.65039C74.9519 1.65039 74.9519 1.69038 73.7519 1.69038C72.5519 1.69038 72.5419 1.74039 71.3319 1.74039C70.1219 1.74039 70.1219 1.77039 68.9119 1.77039C67.7019 1.77039 67.7019 1.70038 66.4919 1.70038C65.2819 1.70038 65.2819 1.74039 64.0719 1.74039C62.8619 1.74039 62.8619 1.78038 61.6519 1.78038C60.4419 1.78038 60.4419 1.78038 59.2319 1.78038C58.0219 1.78038 58.0219 1.70038 56.8219 1.70038C55.6219 1.70038 55.6119 1.66039 54.4019 1.66039C53.1919 1.66039 53.1919 1.73038 51.9819 1.73038C50.7719 1.73038 50.7719 1.73038 49.5619 1.73038C48.3519 1.73038 48.3519 1.71039 47.1419 1.71039C45.9319 1.71039 45.9319 1.75039 44.7219 1.77039C43.5119 1.79039 43.5119 1.77039 42.3019 1.77039H42.3319Z" fill="#E5E5E5"/>
<path d="M67.8623 88.8701C67.8623 88.2294 67.8647 87.9068 67.8672 87.5869C67.8697 87.272 67.8721 86.9589 67.8721 86.3301C67.8721 85.7192 67.8622 85.4204 67.8525 85.1143C67.8422 84.7885 67.832 84.4543 67.832 83.8008C67.832 83.1826 67.8272 82.8736 67.8223 82.5596C67.8172 82.2362 67.8115 81.907 67.8115 81.2607C67.8115 80.6081 67.8195 80.2759 67.8271 79.9512C67.8345 79.6411 67.8418 79.3377 67.8418 78.7207C67.8418 78.1093 67.832 77.8098 67.8223 77.502C67.812 77.1749 67.8018 76.8388 67.8018 76.1807V73.6406C67.8018 72.9763 67.8152 72.6352 67.8281 72.3047C67.8401 71.9983 67.8516 71.7013 67.8516 71.0908C67.8516 70.4452 67.8539 70.1226 67.8564 69.8027C67.8589 69.4877 67.8623 69.1742 67.8623 68.54C67.8624 67.4587 68.1844 66.321 68.6006 65.3311C68.9763 64.4375 69.5079 63.3203 70.3047 62.5234C70.8824 61.9457 71.4603 61.3647 72.0381 60.7803L72.0449 60.7734C72.9662 59.8522 72.9026 59.9357 73.7881 59.04C74.2082 58.6151 74.4073 58.4022 74.6152 58.1807C74.8352 57.9464 75.0607 57.7089 75.5156 57.2539C75.9495 56.82 76.1596 56.6041 76.3721 56.3867C76.5894 56.1643 76.8093 55.9397 77.2549 55.4941C77.7008 55.0482 77.9259 54.8278 78.1484 54.6104C78.3659 54.3979 78.5817 54.1879 79.0156 53.7539C79.4765 53.293 79.7206 53.0664 79.9531 52.8506C80.1674 52.6517 80.3744 52.4585 80.7881 52.04C81.6427 51.1756 81.7257 51.1122 82.5547 50.2832C82.9707 49.8672 83.1632 49.6576 83.3623 49.4395C83.5802 49.2006 83.8064 48.9533 84.2656 48.4941C85.0312 47.7285 86.1018 47.1375 87.0723 46.7295C88.1339 46.2831 89.2906 46.0401 90.3115 46.04C90.9269 46.04 91.2425 46.0512 91.5469 46.0615C91.8303 46.0712 92.1028 46.0801 92.6621 46.0801C93.2597 46.0801 93.5651 46.0857 93.8652 46.0908C94.1549 46.0957 94.4398 46.1006 95.0117 46.1006H97.3623C97.8769 46.1006 98.1166 46.0776 98.3838 46.0527C98.7065 46.0227 99.0569 45.9902 99.7119 45.9902H102.062C102.69 45.9902 103.016 46.0066 103.325 46.0225C103.603 46.0367 103.866 46.0508 104.412 46.0508C105.003 46.0508 105.303 46.0531 105.601 46.0557C105.893 46.0581 106.183 46.0605 106.762 46.0605C107.372 46.0605 107.688 46.0707 107.993 46.0811C108.278 46.0907 108.553 46.1006 109.112 46.1006C109.703 46.1006 110.003 46.1029 110.301 46.1055C110.593 46.1079 110.883 46.1104 111.462 46.1104C112.009 46.1104 112.273 46.0963 112.555 46.082C112.866 46.0662 113.194 46.0508 113.822 46.0508C114.45 46.0508 114.775 46.0662 115.086 46.082C115.365 46.0962 115.63 46.1103 116.182 46.1104C116.52 46.1104 116.862 45.9576 117.065 45.7539C117.209 45.6099 117.362 45.2996 117.362 44.8701C117.362 44.2731 117.355 43.9796 117.349 43.6738C117.342 43.3535 117.337 43.0297 117.342 42.3965C117.347 41.7517 117.363 41.4206 117.377 41.1064C117.39 40.8169 117.402 40.5346 117.402 39.9502C117.402 39.384 117.384 39.1148 117.365 38.8271C117.344 38.4999 117.322 38.1537 117.322 37.4902C117.322 36.8328 117.341 36.4904 117.361 36.1602C117.379 35.8644 117.398 35.5893 117.402 35.0166C117.407 34.463 117.387 34.2049 117.365 33.9277C117.34 33.6011 117.312 33.2459 117.312 32.5703C117.312 31.3764 117.333 31.2253 117.342 30.1104C117.342 29.5347 117.22 28.8075 116.944 28.1348C116.621 27.3455 116.243 26.7251 115.915 26.3975C115.532 26.0145 115.34 25.8436 115.137 25.665C114.906 25.462 114.659 25.2454 114.212 24.8037C113.38 23.9817 113.358 23.9502 112.545 23.1367C112.092 22.6838 111.871 22.4295 111.664 22.1904C111.486 21.9846 111.322 21.7937 110.945 21.417C110.572 21.0436 110.385 20.8841 110.181 20.71C109.94 20.5042 109.682 20.2835 109.226 19.8271C108.772 19.374 108.551 19.1193 108.345 18.8809C108.168 18.676 108.006 18.4885 107.635 18.1172C107.276 17.7587 107.093 17.6077 106.886 17.4365C106.635 17.2293 106.361 17.0027 105.896 16.5371C105.068 15.7095 105.07 15.712 104.242 14.8945C103.785 14.4433 103.562 14.1848 103.352 13.9404C103.172 13.7316 103.009 13.5408 102.635 13.167C102.258 12.7904 102.068 12.6262 101.862 12.4482C101.623 12.2413 101.368 12.0206 100.915 11.5674C100.456 11.1079 100.234 10.845 100.029 10.6045C99.8585 10.4033 99.7017 10.2197 99.332 9.85449C98.9522 9.47928 98.7587 9.31247 98.5479 9.12891C98.3071 8.91927 98.0554 8.69695 97.6055 8.24707C97.1875 7.82907 96.9772 7.61648 96.7686 7.40527C96.5623 7.19659 96.3571 6.98891 95.9453 6.57715C95.5335 6.16532 95.3259 5.96013 95.1172 5.75391C94.9059 5.54516 94.6935 5.33509 94.2754 4.91699C93.9272 4.56883 93.3263 4.18441 92.5771 3.87793C91.8108 3.56444 91.122 3.41016 90.6318 3.41016H88.2217C87.5797 3.41015 87.2474 3.3937 86.9307 3.37793C86.6446 3.36368 86.3738 3.35059 85.8115 3.35059C85.2056 3.35058 84.8977 3.34822 84.5928 3.3457C84.293 3.34323 83.9955 3.34082 83.4023 3.34082C82.8583 3.34082 82.5995 3.36002 82.3193 3.38086C81.9946 3.40501 81.6479 3.43066 80.9922 3.43066C80.3303 3.43066 79.9784 3.40203 79.6514 3.375C79.3736 3.35204 79.1198 3.33008 78.582 3.33008C77.9634 3.33008 77.646 3.32213 77.335 3.31445C77.0388 3.30714 76.7485 3.30078 76.1621 3.30078C75.5818 3.30078 75.2987 3.30968 75.0078 3.31934C74.6966 3.32967 74.3768 3.34082 73.752 3.34082C73.183 3.34082 72.9048 3.35226 72.6133 3.36426C72.297 3.37727 71.9676 3.39062 71.332 3.39062C70.7458 3.39062 70.4579 3.39797 70.1631 3.40527C69.853 3.41296 69.5355 3.41992 68.9121 3.41992C68.2638 3.41992 67.9267 3.40134 67.6064 3.38281C67.3217 3.36634 67.0536 3.35059 66.4922 3.35059C65.9119 3.35059 65.6283 3.35947 65.3359 3.36914C65.0235 3.37947 64.7014 3.39062 64.0723 3.39062C63.492 3.39062 63.2084 3.39952 62.916 3.40918C62.6035 3.41951 62.2815 3.43066 61.6523 3.43066H59.2314C58.5774 3.43065 58.2358 3.40808 57.9141 3.38672C57.6328 3.36805 57.3721 3.35059 56.8223 3.35059C56.1975 3.35059 55.875 3.33942 55.5615 3.3291C55.268 3.31944 54.9824 3.31055 54.4023 3.31055C53.8406 3.31055 53.5719 3.3263 53.2871 3.34277C52.9669 3.36129 52.6297 3.38086 51.9814 3.38086H49.5615C48.9444 3.38086 48.6317 3.3752 48.3242 3.37012C48.0269 3.36521 47.734 3.36035 47.1416 3.36035C46.5613 3.36035 46.2816 3.3702 46 3.38184C45.6996 3.39425 45.3774 3.40954 44.749 3.41992C43.5387 3.43993 43.4494 3.4202 42.3262 3.41992C41.7928 3.42088 41.0924 3.55694 40.3916 3.85156C39.5833 4.19141 38.9775 4.55393 38.6377 4.8877C38.244 5.28167 38.0575 5.48188 37.8643 5.68945C37.6543 5.91493 37.4377 6.14822 36.999 6.58691C36.1567 7.42922 36.1541 7.43214 35.3018 8.27441C34.8863 8.68499 34.6869 8.8891 34.4873 9.09473C34.2802 9.3081 34.0679 9.52785 33.6387 9.95703C33.222 10.3738 33.0143 10.5838 32.8057 10.7949C32.5944 11.0087 32.3821 11.2243 31.959 11.6475C31.4826 12.1239 31.2014 12.3513 30.9473 12.5576C30.7433 12.7232 30.5592 12.872 30.1953 13.2402C29.8221 13.6179 29.666 13.8082 29.4912 14.0186C29.2813 14.2713 29.0561 14.5396 28.5889 15.0068C27.802 15.7937 27.735 15.8803 26.9014 16.7041C26.4358 17.1642 26.1741 17.3863 25.9326 17.5918C25.7275 17.7663 25.5371 17.9278 25.1582 18.3066C24.7791 18.6857 24.6144 18.879 24.4346 19.0889C24.2245 19.3339 23.9996 19.5961 23.5391 20.0566C23.0939 20.5018 22.8529 20.7218 22.6221 20.9316C22.4129 21.1218 22.2132 21.3025 21.8184 21.6973L20.1387 23.377C19.6904 23.8252 19.4445 24.047 19.21 24.2578C18.9995 24.447 18.7999 24.6259 18.4082 25.0176C18.0389 25.3869 17.8854 25.5736 17.7139 25.7812C17.5054 26.0335 17.2789 26.307 16.8086 26.7773C16.3856 27.2003 16.1707 27.4128 15.957 27.624C15.7458 27.8328 15.535 28.0402 15.1182 28.457C14.6826 28.8926 14.4525 29.1102 14.2285 29.3213C14.0176 29.5201 13.8124 29.713 13.4082 30.1172C13.0041 30.5213 12.8111 30.7266 12.6123 30.9375C12.4013 31.1614 12.1844 31.3918 11.749 31.8271C11.2819 32.2942 11.0112 32.5208 10.7607 32.7305C10.5512 32.9058 10.3612 33.0646 9.98828 33.4375C9.60956 33.8162 9.44508 34.0086 9.26758 34.2168C9.06002 34.4603 8.83517 34.7248 8.375 35.1904C7.93682 35.6338 7.70294 35.855 7.4707 36.0713C7.25493 36.2723 7.05059 36.4602 6.64844 36.8574L6.53418 36.9844C6.26329 37.3109 5.97206 37.8523 5.65332 38.6104C5.27348 39.5138 5.08207 40.136 5.08203 40.5303C5.08203 41.1105 5.09091 41.3937 5.10059 41.6875C5.11092 42.0014 5.12207 42.3258 5.12207 42.96C5.12207 43.5881 5.11413 43.9057 5.10645 44.2158C5.09914 44.5106 5.0918 44.7991 5.0918 45.3906C5.0918 45.9696 5.10327 46.2476 5.11523 46.5371C5.12826 46.8525 5.1416 47.1796 5.1416 47.8203C5.1416 48.4734 5.12304 48.8104 5.10449 49.1309C5.08804 49.4152 5.07227 49.6834 5.07227 50.25C5.07227 50.8045 5.09153 51.0634 5.1123 51.3428C5.13652 51.6683 5.16211 52.0153 5.16211 52.6807C5.1621 53.3274 5.14565 53.6596 5.12988 53.9775C5.11566 54.2644 5.10156 54.5376 5.10156 55.1104C5.10156 55.6834 5.11565 55.9571 5.12988 56.2441C5.14564 56.5619 5.1621 56.8937 5.16211 57.54C5.16211 58.1993 5.13952 58.5412 5.11816 58.8643C5.09953 59.1462 5.08203 59.41 5.08203 59.9707C5.08204 60.5434 5.09515 60.8166 5.10938 61.1035C5.12514 61.4215 5.1416 61.7535 5.1416 62.4004C5.1416 62.9794 5.15307 63.2574 5.16504 63.5469C5.17808 63.8622 5.19238 64.1895 5.19238 64.8301C5.19238 65.4954 5.16684 65.8422 5.14258 66.167C5.12178 66.4454 5.10157 66.7011 5.10156 67.25C5.10156 67.7931 5.12351 68.047 5.14648 68.3262C5.17358 68.6554 5.20215 69.0094 5.20215 69.6807C5.20215 70.3089 5.19421 70.6263 5.18652 70.9365C5.17922 71.2312 5.17188 71.519 5.17188 72.1104C5.17188 72.7573 5.15541 73.0893 5.13965 73.4072C5.12542 73.6942 5.11231 73.9673 5.1123 74.54V79.4004C5.1123 79.9918 5.11867 80.2822 5.12598 80.5781C5.13366 80.8893 5.1416 81.2067 5.1416 81.8301C5.1416 82.3915 5.15733 82.66 5.17383 82.9463C5.19236 83.268 5.21191 83.6078 5.21191 84.2607C5.2119 84.9379 5.18042 85.2963 5.15039 85.6279C5.12533 85.9047 5.10156 86.1535 5.10156 86.6904C5.10156 87.2458 5.11997 87.5091 5.13867 87.793C5.16002 88.1171 5.18163 88.4613 5.18164 89.1201V91.5508C5.18163 92.1986 5.16302 92.5382 5.14453 92.8604C5.12803 93.1479 5.1123 93.4189 5.1123 93.9805V96.4102C5.1123 96.9905 5.12118 97.2762 5.13086 97.5713C5.14119 97.8862 5.15234 98.2112 5.15234 98.8408C5.15235 99.4331 5.1572 99.7257 5.16211 100.024C5.16719 100.333 5.17188 100.648 5.17188 101.271C5.17187 101.899 5.16394 102.219 5.15625 102.53C5.14894 102.826 5.1416 103.114 5.1416 103.7C5.1416 104.268 5.15566 104.544 5.16992 104.834C5.18565 105.154 5.20215 105.489 5.20215 106.131C5.20215 106.741 5.19978 107.051 5.19727 107.358C5.19479 107.661 5.19238 107.962 5.19238 108.561C5.19238 109.184 5.18445 109.504 5.17676 109.816C5.16944 110.114 5.16211 110.404 5.16211 110.99C5.16211 111.645 5.13942 111.989 5.11816 112.314C5.09948 112.601 5.08203 112.87 5.08203 113.431V115.87C5.08203 116.33 5.257 117.034 5.58887 117.846C5.88906 118.579 6.29147 119.197 6.64844 119.554C7.06166 119.967 7.26686 120.174 7.4707 120.381C7.67181 120.584 7.87176 120.787 8.27832 121.193C8.65293 121.568 8.84399 121.735 9.04883 121.914C9.28381 122.12 9.53359 122.338 9.97852 122.783C10.4466 123.251 10.6707 123.53 10.874 123.783C11.0356 123.985 11.1766 124.162 11.5283 124.514C11.9029 124.888 12.094 125.054 12.2988 125.233C12.5339 125.439 12.7833 125.658 13.2285 126.104C13.645 126.52 13.8525 126.733 14.0576 126.943C14.2575 127.148 14.4549 127.35 14.8584 127.754C15.2426 128.138 15.4361 128.312 15.6367 128.493C15.8596 128.694 16.0953 128.906 16.5312 129.337C16.9803 129.78 17.2029 130.033 17.4121 130.273C17.5929 130.481 17.7573 130.672 18.1289 131.044C18.5128 131.428 18.7064 131.603 18.9102 131.788C19.1362 131.993 19.3728 132.208 19.8086 132.644C20.2668 133.102 20.4894 133.368 20.6943 133.614C20.8643 133.818 21.0172 134.002 21.3789 134.363C21.7373 134.722 21.918 134.87 22.1201 135.036C22.3679 135.24 22.6372 135.462 23.0986 135.924C23.5632 136.388 23.7878 136.663 23.9922 136.914C24.1577 137.118 24.3032 137.298 24.6582 137.653C25.0101 138.005 25.1879 138.147 25.3916 138.311C25.6467 138.515 25.9263 138.742 26.3984 139.214C26.8455 139.661 27.0624 139.905 27.2676 140.137C27.4474 140.34 27.6161 140.531 27.999 140.914C28.3944 141.309 28.591 141.492 28.7949 141.682C29.0158 141.887 29.2446 142.099 29.6787 142.533C30.1183 142.973 30.7108 143.417 31.3369 143.673C32.0164 143.951 32.7639 144.08 33.332 144.08C33.9006 144.08 34.1758 144.069 34.4629 144.057C34.7756 144.044 35.1005 144.03 35.7314 144.03C36.3251 144.03 36.6206 144.028 36.918 144.025C37.2205 144.023 37.5257 144.021 38.1318 144.021C38.7381 144.021 39.0431 144.023 39.3457 144.025C39.6431 144.028 39.9385 144.03 40.5322 144.03C41.1943 144.03 41.5436 144.059 41.8682 144.086C42.1419 144.109 42.3898 144.131 42.9219 144.131H45.3223C45.8533 144.131 46.099 144.107 46.3711 144.082C46.6988 144.052 47.0532 144.021 47.7217 144.021C48.3838 144.021 48.7334 144.049 49.0586 144.076C49.3333 144.099 49.5844 144.12 50.1221 144.12C50.6657 144.12 50.9212 144.101 51.1982 144.08C51.521 144.056 51.8656 144.03 52.5215 144.03C53.1399 144.03 53.4551 144.038 53.7627 144.046C54.055 144.053 54.3406 144.061 54.9219 144.061C55.5344 144.061 55.8443 144.065 56.1494 144.07C56.4443 144.075 56.7347 144.08 57.3223 144.08C57.9345 144.08 58.2447 144.086 58.5498 144.091C58.8445 144.096 59.1346 144.101 59.7217 144.101C60.2718 144.101 60.5329 144.083 60.8125 144.064C61.1328 144.043 61.4724 144.021 62.1221 144.021H64.5215C65.1835 144.021 65.5332 144.049 65.8584 144.076C66.1331 144.099 66.3842 144.12 66.9219 144.12C67.478 144.12 67.7434 144.104 68.0254 144.088C68.3432 144.069 68.6786 144.051 69.3223 144.051C69.9594 144.051 70.2892 144.066 70.6045 144.082C70.8891 144.096 71.1593 144.11 71.7217 144.11C72.2718 144.11 72.5329 144.093 72.8125 144.074C73.1327 144.053 73.4724 144.03 74.1221 144.03C74.7157 144.03 75.0112 144.028 75.3086 144.025C75.6109 144.023 75.9158 144.021 76.5215 144.021H78.9219C79.5841 144.021 79.9335 144.049 80.2588 144.076C80.5335 144.099 80.7846 144.12 81.3223 144.12C81.8533 144.12 82.099 144.097 82.3711 144.072C82.6988 144.042 83.0533 144.011 83.7217 144.011C84.3526 144.011 84.6775 144.024 84.9902 144.037C85.2774 144.049 85.5532 144.061 86.1221 144.061C86.7032 144.061 86.9885 144.053 87.2822 144.046C87.5912 144.038 87.9088 144.03 88.5322 144.03C89.112 144.03 89.3922 144.021 89.6816 144.012C89.9921 144.001 90.3126 143.99 90.9424 143.99C91.6336 143.99 92.3658 143.915 92.9775 143.675C93.7371 143.376 94.408 142.97 94.79 142.621C95.2261 142.223 95.4322 142.023 95.6475 141.813C95.8779 141.59 96.1128 141.362 96.5869 140.935C97.0385 140.528 97.2641 140.322 97.4902 140.116C97.719 139.908 97.949 139.697 98.4072 139.284C98.8329 138.901 99.028 138.706 99.2314 138.501C99.4573 138.274 99.6962 138.032 100.18 137.591C100.682 137.132 100.968 136.914 101.234 136.71C101.458 136.539 101.663 136.383 102.07 136.012C102.983 135.179 102.985 135.177 103.897 134.354C104.304 133.988 104.477 133.802 104.663 133.601C104.884 133.361 105.126 133.096 105.623 132.638C106.525 131.806 106.556 131.787 107.45 130.972C107.921 130.542 108.167 130.331 108.406 130.125C108.632 129.931 108.851 129.741 109.29 129.341C109.751 128.92 109.986 128.711 110.219 128.504C110.446 128.301 110.671 128.101 111.12 127.691C111.562 127.288 111.775 127.085 111.992 126.877C112.22 126.66 112.452 126.438 112.92 126.012C113.41 125.565 113.68 125.347 113.939 125.141C114.168 124.958 114.382 124.789 114.807 124.405C115.251 124.004 115.462 123.803 115.678 123.597C115.906 123.378 116.141 123.154 116.616 122.726C117.073 122.313 117.299 122.108 117.525 121.901C117.754 121.693 117.984 121.483 118.446 121.065C118.922 120.636 119.17 120.425 119.408 120.222C119.632 120.03 119.851 119.842 120.29 119.441L120.301 119.432C120.652 119.117 121.063 118.528 121.383 117.804C121.701 117.084 121.862 116.375 121.862 115.891V113.511C121.862 112.953 121.848 112.685 121.834 112.403C121.818 112.09 121.802 111.763 121.802 111.131C121.802 110.504 121.815 110.181 121.828 109.871C121.84 109.586 121.852 109.314 121.852 108.75C121.852 108.212 121.832 107.959 121.812 107.685C121.787 107.364 121.762 107.022 121.762 106.37C121.762 105.7 121.797 105.343 121.83 105.015C121.857 104.748 121.882 104.51 121.882 103.99C121.882 103.477 121.855 103.244 121.826 102.979C121.79 102.649 121.752 102.287 121.752 101.61V96.8506C121.752 96.1803 121.787 95.823 121.82 95.4951C121.847 95.2281 121.872 94.99 121.872 94.4707C121.872 93.926 121.855 93.6676 121.836 93.3906C121.815 93.0728 121.792 92.7355 121.792 92.0908V89.71C121.792 89.0714 121.812 88.7392 121.83 88.4238C121.847 88.1443 121.862 87.8811 121.862 87.3301C121.862 86.773 121.848 86.5053 121.834 86.2217C121.818 85.9073 121.802 85.5776 121.802 84.9404C121.802 84.3219 121.81 84.0094 121.817 83.7041C121.825 83.4146 121.832 83.1317 121.832 82.5508C121.832 82.0537 121.674 81.3322 121.364 80.5752C121.064 79.8414 120.662 79.2242 120.305 78.8672C119.897 78.4596 119.69 78.2722 119.472 78.0752C119.23 77.8573 118.978 77.6291 118.516 77.167C117.643 76.2947 117.641 76.2924 116.769 75.4102C116.319 74.9553 116.097 74.7186 115.883 74.4902C115.68 74.2746 115.48 74.0616 115.055 73.6367C114.636 73.2181 114.426 73.0242 114.209 72.8242C113.974 72.6072 113.732 72.383 113.275 71.9268C112.838 71.4889 112.617 71.2671 112.398 71.0459C112.182 70.8271 111.967 70.6087 111.535 70.1768C110.681 69.3225 110.65 69.3029 109.778 68.4209C108.911 67.5431 108.913 67.5448 108.035 66.667C107.565 66.1973 107.335 65.9398 107.117 65.6953C106.922 65.4768 106.74 65.2718 106.335 64.8672C106.046 64.5779 105.473 64.2744 104.562 63.8916C103.672 63.5173 103.052 63.3301 102.642 63.3301C102.022 63.3301 101.73 63.3543 101.413 63.3799C101.047 63.4094 100.657 63.4404 99.9121 63.4404C99.2219 63.4404 98.8773 63.4381 98.5352 63.4355C98.1975 63.4331 97.8612 63.4307 97.1816 63.4307C96.4587 63.4307 96.0883 63.4119 95.7324 63.3936C95.4085 63.3769 95.0986 63.3604 94.4521 63.3604C94.1316 63.3604 93.8412 63.4906 93.6299 63.7061C93.3422 63.9994 93.2217 64.3054 93.2217 64.5508C93.2217 65.1054 93.2419 65.3667 93.2627 65.6475C93.2868 65.9733 93.3115 66.32 93.3115 66.9805C93.3115 67.6469 93.2838 68.0006 93.2568 68.3301C93.2338 68.6106 93.2119 68.8669 93.2119 69.4102C93.2119 70.0212 93.2096 70.3313 93.207 70.6387C93.2046 70.9412 93.2021 71.242 93.2021 71.8408C93.2022 72.3713 93.2268 72.6153 93.2539 72.8896C93.2869 73.2237 93.3223 73.5871 93.3223 74.2705C93.3223 74.9046 93.3111 75.2291 93.3008 75.543C93.2911 75.8367 93.2822 76.12 93.2822 76.7002C93.2822 77.3419 93.2657 77.6764 93.25 77.9961C93.2357 78.2863 93.2217 78.5628 93.2217 79.1309C93.2217 79.6862 93.2401 79.9521 93.2588 80.2373C93.2801 80.562 93.3018 80.9063 93.3018 81.5605C93.3018 82.2207 93.2761 82.5695 93.252 82.8965C93.2311 83.1794 93.2119 83.4408 93.2119 83.9902C93.2119 84.5398 93.232 84.8013 93.2529 85.0859C93.2771 85.4145 93.3018 85.7659 93.3018 86.4307C93.3018 87.0527 93.2971 87.3677 93.292 87.6777C93.2871 87.9775 93.2822 88.2728 93.2822 88.8701C93.2822 90.0537 92.831 91.2345 91.9883 92.0771C91.1258 92.9395 89.9346 93.3505 88.7822 93.3506C88.178 93.3506 87.8698 93.3427 87.5684 93.335C87.2827 93.3277 87.0025 93.3203 86.4316 93.3203C85.8864 93.3203 85.6266 93.3362 85.3516 93.3525C85.0399 93.3711 84.7117 93.3906 84.082 93.3906C83.4397 93.3906 83.0991 93.3651 82.7812 93.3408C82.5091 93.3201 82.259 93.3008 81.7314 93.3008C81.1725 93.3008 80.8978 93.3097 80.6133 93.3193C80.3081 93.3297 79.9923 93.3408 79.3818 93.3408C78.8353 93.3408 78.5706 93.354 78.291 93.3682C77.9808 93.3839 77.6552 93.4004 77.0322 93.4004H74.6719C74.0122 93.4004 73.6621 93.368 73.3389 93.3379C73.0721 93.313 72.8318 93.29 72.3115 93.29C71.2253 93.29 70.0347 92.9684 69.127 92.0781C68.2185 91.1871 67.8623 89.9809 67.8623 88.8701ZM120.612 32.5703C120.612 33.1244 120.633 33.3847 120.655 33.6729C120.681 34.0105 120.708 34.368 120.702 35.0439C120.697 35.7008 120.675 36.0412 120.655 36.3604C120.638 36.645 120.622 36.918 120.622 37.4902C120.622 38.0566 120.639 38.3257 120.658 38.6133C120.679 38.9406 120.702 39.2867 120.702 39.9502C120.702 40.5955 120.688 40.9286 120.674 41.2539C120.66 41.5546 120.646 41.8389 120.642 42.4238C120.637 43.0203 120.641 43.3119 120.647 43.6064C120.654 43.9156 120.662 44.2375 120.662 44.8701C120.662 46.0006 120.274 47.2109 119.398 48.0869C118.582 48.9032 117.404 49.4102 116.182 49.4102C115.554 49.4102 115.229 49.3937 114.918 49.3779C114.639 49.3637 114.374 49.3506 113.822 49.3506C113.27 49.3506 113.002 49.3637 112.722 49.3779C112.41 49.3937 112.085 49.4102 111.462 49.4102C110.871 49.4102 110.57 49.4078 110.272 49.4053C109.98 49.4028 109.69 49.4004 109.112 49.4004C108.502 49.4004 108.186 49.3902 107.881 49.3799C107.596 49.3702 107.321 49.3604 106.762 49.3604C106.171 49.3604 105.871 49.358 105.573 49.3555C105.281 49.353 104.991 49.3506 104.412 49.3506C103.789 49.3506 103.465 49.3341 103.156 49.3184C102.879 49.3042 102.613 49.29 102.062 49.29H99.7119C99.1973 49.29 98.9575 49.313 98.6904 49.3379C98.3678 49.368 98.0171 49.4004 97.3623 49.4004H95.0117C94.4141 49.4004 94.1087 49.3957 93.8086 49.3906C93.5189 49.3857 93.234 49.3809 92.6621 49.3809C92.0516 49.3809 91.7386 49.3697 91.4346 49.3594C91.1515 49.3497 90.8762 49.3408 90.3115 49.3408C89.7726 49.3409 89.0496 49.478 88.3516 49.7715C87.5621 50.1034 86.933 50.4928 86.5986 50.8271C86.188 51.2378 85.9993 51.4455 85.7998 51.6641C85.5814 51.9034 85.3527 52.1532 84.8887 52.6172C83.9578 53.548 84.0208 53.4651 83.1357 54.3604C82.6797 54.8216 82.4363 55.0486 82.1982 55.2695C81.9783 55.4736 81.7676 55.6679 81.3486 56.0869C80.9026 56.533 80.6777 56.7532 80.4551 56.9707C80.2377 57.1831 80.0227 57.3934 79.5889 57.8271C79.1552 58.2609 78.9448 58.4761 78.7324 58.6934C78.5149 58.9159 78.2946 59.1409 77.8486 59.5869C77.424 60.0116 77.2238 60.2239 77.0215 60.4395C76.807 60.6679 76.5855 60.9054 76.1357 61.3604C75.2813 62.2246 75.1976 62.2887 74.3789 63.1074C73.7989 63.694 73.2187 64.2774 72.6387 64.8574C72.3355 65.1606 72.0068 65.7441 71.6426 66.6104C71.3191 67.3798 71.1622 68.0617 71.1621 68.54C71.1621 69.1857 71.1597 69.5082 71.1572 69.8281C71.1548 70.1432 71.1523 70.4567 71.1523 71.0908C71.1523 71.7596 71.139 72.1027 71.126 72.4336C71.1139 72.7405 71.1016 73.0351 71.1016 73.6406V76.1807C71.1016 76.7919 71.1114 77.0907 71.1211 77.3984C71.1314 77.7256 71.1416 78.0621 71.1416 78.7207C71.1416 79.3731 71.1336 79.7046 71.126 80.0293C71.1186 80.3395 71.1123 80.6434 71.1123 81.2607C71.1123 81.8835 71.1171 82.1941 71.1221 82.5078C71.1271 82.8312 71.1318 83.159 71.1318 83.8008C71.1318 84.4067 71.1417 84.7031 71.1514 85.0098C71.1617 85.3358 71.1719 85.6719 71.1719 86.3301C71.1719 86.9709 71.1695 87.2934 71.167 87.6133C71.1645 87.9283 71.1621 88.2412 71.1621 88.8701C71.1621 89.3193 71.306 89.5937 71.4375 89.7227C71.5697 89.8521 71.8384 89.9902 72.3115 89.9902C72.9709 89.9902 73.3214 90.0226 73.6445 90.0527C73.9113 90.0776 74.1516 90.1006 74.6719 90.1006H77.0322C77.5788 90.1006 77.8434 90.0865 78.123 90.0723C78.4333 90.0565 78.7587 90.04 79.3818 90.04C79.9414 90.04 80.2162 90.0311 80.501 90.0215C80.8061 90.0111 81.1212 90 81.7314 90C82.3737 90 82.7145 90.0256 83.0322 90.0498C83.3044 90.0706 83.5544 90.0908 84.082 90.0908C84.6222 90.0908 84.8794 90.075 85.1553 90.0586C85.4675 90.04 85.7976 90.0205 86.4316 90.0205C87.0404 90.0205 87.3507 90.0284 87.6523 90.0361C87.9384 90.0434 88.2164 90.0508 88.7822 90.0508C89.1894 90.0507 89.4979 89.9014 89.6553 89.7441C89.8326 89.5668 89.9814 89.2465 89.9814 88.8701C89.9814 88.248 89.9871 87.933 89.9922 87.623C89.9971 87.3232 90.002 87.028 90.002 86.4307C90.002 85.8756 89.9818 85.611 89.9609 85.3271C89.9369 84.9994 89.9121 84.6504 89.9121 83.9902C89.9121 83.3301 89.9368 82.9813 89.9609 82.6543C89.9818 82.3714 90.0019 82.11 90.002 81.5605C90.002 81.0048 89.9845 80.7384 89.9658 80.4531C89.9445 80.1286 89.9219 79.7847 89.9219 79.1309C89.9219 78.4889 89.9384 78.1538 89.9541 77.834C89.9684 77.5439 89.9814 77.268 89.9814 76.7002C89.9814 76.0706 89.9926 75.7482 90.0029 75.4346C90.0126 75.1412 90.0215 74.8557 90.0215 74.2705C90.0215 73.7341 89.9967 73.4873 89.9697 73.2139C89.9368 72.8809 89.9024 72.5198 89.9023 71.8408C89.9023 71.23 89.9047 70.9196 89.9072 70.6123C89.9097 70.3098 89.9121 70.009 89.9121 69.4102C89.9121 68.7437 89.9408 68.39 89.9678 68.0605C89.9908 67.7801 90.0117 67.5238 90.0117 66.9805C90.0117 66.4311 89.9925 66.1722 89.9717 65.8906C89.9475 65.5641 89.9219 65.2154 89.9219 64.5508C89.9219 63.2365 90.5414 62.1421 91.2734 61.3955C92.0821 60.571 93.2127 60.0605 94.4521 60.0605C95.1751 60.0606 95.5455 60.0793 95.9014 60.0977C96.2253 60.1143 96.5351 60.1309 97.1816 60.1309C97.8718 60.1309 98.2164 60.1332 98.5586 60.1357C98.8963 60.1382 99.2326 60.1406 99.9121 60.1406C100.537 60.1406 100.832 60.1163 101.148 60.0908C101.514 60.0614 101.901 60.0303 102.642 60.0303C103.792 60.0303 104.972 60.4839 105.842 60.8496C106.691 61.2068 107.858 61.7227 108.669 62.5332C109.134 62.9984 109.362 63.2542 109.579 63.498C109.773 63.7159 109.958 63.9241 110.368 64.334C111.25 65.2162 111.253 65.2184 112.125 66.1006C112.993 66.9783 112.983 66.9584 113.868 67.8438C114.306 68.2818 114.526 68.5043 114.745 68.7256C114.961 68.9443 115.177 69.1619 115.608 69.5938C116.022 70.0074 116.23 70.199 116.447 70.3994C116.683 70.6167 116.928 70.8429 117.389 71.3037C117.844 71.7587 118.068 71.9971 118.288 72.2314C118.496 72.453 118.695 72.6659 119.115 73.0908C119.983 73.9684 119.981 73.9663 120.849 74.834C121.256 75.2416 121.464 75.428 121.683 75.625C121.924 75.8429 122.177 76.0711 122.639 76.5332C123.382 77.2761 123.999 78.2992 124.419 79.3252C124.829 80.3282 125.132 81.4879 125.132 82.5508C125.132 83.1693 125.124 83.4818 125.116 83.7871C125.109 84.0767 125.102 84.3593 125.102 84.9404C125.102 85.503 125.116 85.7735 125.13 86.0566C125.146 86.3704 125.162 86.6977 125.162 87.3301C125.162 87.969 125.143 88.3017 125.124 88.6172C125.108 88.8966 125.092 89.1592 125.092 89.71V92.0908C125.092 92.6352 125.109 92.893 125.128 93.1699C125.149 93.4879 125.172 93.8255 125.172 94.4707C125.172 95.1409 125.137 95.4983 125.104 95.8262C125.077 96.0931 125.052 96.3312 125.052 96.8506V101.61C125.052 102.124 125.079 102.356 125.107 102.621C125.144 102.951 125.182 103.314 125.182 103.99C125.182 104.661 125.146 105.018 125.113 105.346C125.086 105.613 125.062 105.851 125.062 106.37C125.062 106.908 125.082 107.161 125.103 107.436C125.127 107.756 125.152 108.099 125.152 108.75C125.152 109.376 125.138 109.699 125.125 110.01C125.113 110.294 125.102 110.567 125.102 111.131C125.102 111.688 125.116 111.955 125.13 112.237C125.146 112.55 125.162 112.878 125.162 113.511V115.891C125.162 116.966 124.843 118.138 124.401 119.138C123.963 120.129 123.317 121.155 122.513 121.879L122.514 121.88C122.043 122.309 121.797 122.521 121.554 122.729C121.324 122.926 121.101 123.115 120.657 123.516C120.2 123.928 119.975 124.133 119.749 124.34C119.52 124.548 119.29 124.758 118.827 125.176C118.383 125.577 118.172 125.777 117.956 125.983C117.727 126.202 117.493 126.427 117.018 126.855C116.523 127.302 116.251 127.517 115.997 127.72C115.774 127.898 115.563 128.066 115.144 128.449C114.701 128.853 114.489 129.056 114.271 129.264C114.044 129.481 113.811 129.703 113.344 130.13C112.883 130.55 112.648 130.76 112.415 130.967C112.188 131.169 111.962 131.37 111.514 131.779C111.043 132.209 110.797 132.42 110.558 132.626C110.332 132.82 110.113 133.009 109.674 133.409C108.748 134.253 108.758 134.236 107.86 135.063C107.458 135.435 107.284 135.625 107.088 135.838C106.856 136.089 106.61 136.353 106.106 136.807C105.199 137.624 105.201 137.622 104.294 138.449C103.791 138.908 103.505 139.128 103.239 139.331C103.015 139.502 102.811 139.658 102.404 140.029C101.978 140.418 101.781 140.617 101.572 140.827C101.341 141.06 101.1 141.3 100.616 141.736C100.165 142.143 99.94 142.348 99.7139 142.555C99.4851 142.763 99.2549 142.973 98.7969 143.386C98.3612 143.778 98.1558 143.976 97.9463 144.18C97.7216 144.398 97.4875 144.627 97.0137 145.06C96.2557 145.751 95.2059 146.345 94.1855 146.746C93.0178 147.205 91.8108 147.29 90.9424 147.29C90.3623 147.29 90.0815 147.3 89.792 147.31C89.4816 147.32 89.1618 147.33 88.5322 147.33C87.9458 147.33 87.6577 147.337 87.3643 147.345C87.0555 147.352 86.7407 147.36 86.1221 147.36C85.4911 147.36 85.1662 147.347 84.8535 147.334C84.5663 147.322 84.2905 147.311 83.7217 147.311C83.1906 147.311 82.9449 147.333 82.6729 147.358C82.3451 147.388 81.9906 147.42 81.3223 147.42C80.6602 147.42 80.3105 147.391 79.9854 147.364C79.7107 147.341 79.4595 147.32 78.9219 147.32H76.5215C75.9282 147.32 75.6332 147.323 75.3359 147.325C75.0334 147.328 74.7282 147.33 74.1221 147.33C73.572 147.33 73.3109 147.349 73.0312 147.367C72.711 147.389 72.3713 147.41 71.7217 147.41C71.0844 147.41 70.7547 147.394 70.4395 147.378C70.1549 147.364 69.8846 147.351 69.3223 147.351C68.7659 147.351 68.4999 147.366 68.2178 147.383C67.9 147.401 67.5654 147.42 66.9219 147.42C66.2596 147.42 65.9103 147.391 65.585 147.364C65.3103 147.341 65.0592 147.32 64.5215 147.32H62.1221C61.5719 147.32 61.3109 147.338 61.0312 147.356C60.711 147.378 60.3713 147.4 59.7217 147.4C59.1094 147.4 58.7992 147.396 58.4941 147.391C58.1994 147.386 57.9094 147.381 57.3223 147.381C56.71 147.381 56.3997 147.375 56.0947 147.37C55.7999 147.365 55.5094 147.36 54.9219 147.36C54.3032 147.36 53.9883 147.352 53.6807 147.345C53.3884 147.337 53.1028 147.33 52.5215 147.33C51.9779 147.33 51.7224 147.35 51.4453 147.371C51.1225 147.395 50.7781 147.42 50.1221 147.42C49.4599 147.42 49.1104 147.391 48.7852 147.364C48.5105 147.341 48.2594 147.32 47.7217 147.32C47.1906 147.32 46.9449 147.343 46.6729 147.368C46.3451 147.398 45.9906 147.431 45.3223 147.431H42.9219C42.264 147.431 41.9165 147.402 41.5928 147.375C41.32 147.352 41.0695 147.33 40.5322 147.33C39.9261 147.33 39.6209 147.328 39.3184 147.325C39.0209 147.323 38.7256 147.32 38.1318 147.32C37.5381 147.32 37.2427 147.323 36.9453 147.325C36.6428 147.328 36.3375 147.33 35.7314 147.33C35.1629 147.33 34.8877 147.342 34.6006 147.354C34.2878 147.367 33.9631 147.381 33.332 147.381C32.3402 147.381 31.1674 147.17 30.0869 146.728C28.9531 146.264 28.0051 145.528 27.3447 144.867C26.9491 144.472 26.7529 144.288 26.5488 144.099C26.3279 143.893 26.0992 143.681 25.665 143.247C25.2181 142.8 25.0011 142.556 24.7959 142.324C24.6161 142.121 24.4484 141.93 24.0654 141.547C23.7078 141.189 23.5275 141.045 23.3252 140.883C23.0714 140.679 22.7932 140.455 22.3252 139.987C21.8605 139.523 21.6361 139.248 21.4316 138.996C21.2662 138.793 21.1207 138.612 20.7656 138.257C20.4074 137.899 20.2264 137.751 20.0244 137.585C19.7765 137.381 19.5065 137.159 19.0449 136.697C18.5867 136.239 18.3642 135.973 18.1592 135.727C17.9893 135.523 17.8369 135.339 17.4756 134.978C17.0914 134.593 16.8973 134.417 16.6934 134.232C16.4673 134.027 16.2307 133.813 15.7949 133.377C15.3467 132.929 15.126 132.674 14.9219 132.439C14.7462 132.238 14.5827 132.051 14.2119 131.685C13.8282 131.306 13.6347 131.132 13.4277 130.945C13.1984 130.739 12.9612 130.523 12.5254 130.087C12.1091 129.671 11.9013 129.458 11.6963 129.248C11.4965 129.043 11.2988 128.841 10.8955 128.438C10.5209 128.063 10.3298 127.896 10.125 127.717C9.88995 127.511 9.64047 127.292 9.19531 126.847C8.72734 126.379 8.50306 126.101 8.2998 125.848C8.13816 125.646 7.99722 125.469 7.64551 125.117C7.2709 124.743 7.07984 124.577 6.875 124.397C6.63989 124.192 6.39055 123.973 5.94531 123.527C5.53218 123.114 5.32684 122.907 5.12305 122.7C4.92189 122.497 4.72219 122.293 4.31543 121.887C3.57243 121.144 2.95494 120.121 2.53516 119.095C2.14705 118.146 1.78223 116.97 1.78223 115.87V113.431C1.78223 112.772 1.8039 112.425 1.8252 112.099C1.84392 111.812 1.8623 111.546 1.8623 110.99C1.86231 110.367 1.86926 110.047 1.87695 109.734C1.88427 109.437 1.8916 109.147 1.8916 108.561C1.8916 107.95 1.89397 107.639 1.89648 107.332C1.89896 107.03 1.90234 106.729 1.90234 106.131C1.90234 105.563 1.88829 105.286 1.87402 104.996C1.8583 104.676 1.8418 104.342 1.8418 103.7C1.8418 103.077 1.84974 102.759 1.85742 102.448C1.86473 102.152 1.87207 101.862 1.87207 101.271C1.87207 100.673 1.86722 100.378 1.8623 100.079C1.85723 99.7704 1.85156 99.4579 1.85156 98.8408C1.85156 98.2606 1.84268 97.9747 1.83301 97.6797C1.82268 97.3648 1.81152 97.0398 1.81152 96.4102V93.9805C1.81152 93.3324 1.83112 92.9931 1.84961 92.6709C1.86612 92.3832 1.88183 92.1124 1.88184 91.5508V89.1201C1.88183 88.5593 1.86436 88.293 1.8457 88.0098C1.8244 87.6863 1.80176 87.3447 1.80176 86.6904C1.80176 86.0174 1.83334 85.6608 1.86328 85.3301C1.88824 85.0544 1.9121 84.8029 1.91211 84.2607C1.91211 83.6938 1.89635 83.4225 1.87988 83.1367C1.86138 82.8156 1.8418 82.4784 1.8418 81.8301C1.84179 81.244 1.83446 80.9563 1.82715 80.6602C1.81946 80.3487 1.81152 80.0288 1.81152 79.4004V74.54C1.81153 73.8937 1.82799 73.5619 1.84375 73.2441C1.85798 72.9571 1.87207 72.6834 1.87207 72.1104C1.87207 71.4819 1.88 71.1647 1.8877 70.8545C1.895 70.5598 1.90234 70.272 1.90234 69.6807C1.90234 69.132 1.88033 68.875 1.85742 68.5967C1.8304 68.2684 1.80176 67.9166 1.80176 67.25C1.80177 66.5894 1.82736 66.2448 1.85156 65.9209C1.8723 65.6433 1.8916 65.3845 1.8916 64.8301C1.8916 64.2511 1.88013 63.9731 1.86816 63.6836C1.85513 63.3682 1.8418 63.0412 1.8418 62.4004C1.8418 61.8276 1.8277 61.5545 1.81348 61.2676C1.79771 60.9497 1.78223 60.6174 1.78223 59.9707C1.78223 59.3115 1.80384 58.9695 1.8252 58.6465C1.84383 58.3645 1.8623 58.1008 1.8623 57.54C1.8623 56.9673 1.84821 56.6942 1.83398 56.4072C1.81822 56.0893 1.80176 55.7573 1.80176 55.1104C1.80176 54.4635 1.81822 54.1314 1.83398 53.8135C1.84821 53.5266 1.8623 53.2534 1.8623 52.6807C1.8623 52.1261 1.84207 51.8673 1.82129 51.5879C1.79708 51.2623 1.77148 50.9154 1.77148 50.25C1.77149 49.5974 1.79104 49.2608 1.80957 48.9404C1.82603 48.6559 1.8418 48.3872 1.8418 47.8203C1.8418 47.5309 1.83936 47.3167 1.83496 47.1387L1.7998 46.1543C1.79483 45.953 1.79199 45.7111 1.79199 45.3906C1.79199 44.7623 1.79993 44.4449 1.80762 44.1348C1.81492 43.84 1.82227 43.5515 1.82227 42.96C1.82226 42.3748 1.8124 42.0893 1.80273 41.7959C1.79241 41.4822 1.78223 41.16 1.78223 40.5303C1.78226 39.3846 2.25128 38.1874 2.61133 37.3311C2.98704 36.4375 3.51859 35.3203 4.31543 34.5234L4.32227 34.5166C4.76527 34.0788 5.00032 33.8625 5.2207 33.6572C5.42578 33.4662 5.62696 33.2763 6.02832 32.8701C6.40787 32.486 6.57351 32.2901 6.75586 32.0762C6.96825 31.827 7.19436 31.5644 7.65527 31.1035C8.12216 30.6366 8.39221 30.4098 8.64258 30.2002C8.85206 30.0249 9.04234 29.8668 9.41504 29.4941C9.81921 29.09 10.0122 28.8847 10.2109 28.6738C10.4221 28.4498 10.6395 28.2189 11.0752 27.7832C11.5105 27.3479 11.7409 27.131 11.9648 26.9199C12.1758 26.7211 12.381 26.5282 12.7852 26.124C13.2083 25.7009 13.4229 25.4876 13.6367 25.2764C13.8479 25.0676 14.0587 24.8602 14.4756 24.4434C14.8449 24.074 14.9984 23.8873 15.1699 23.6797C15.3784 23.4274 15.6048 23.154 16.0752 22.6836C16.5233 22.2355 16.7695 22.0144 17.0039 21.8037C17.2143 21.6146 17.4132 21.4354 17.8047 21.0439C18.2247 20.624 18.4355 20.4141 18.6455 20.2041C18.8555 19.9941 19.0653 19.7833 19.4854 19.3633C19.9304 18.9183 20.1716 18.699 20.4023 18.4893C20.6114 18.2992 20.8105 18.1182 21.2051 17.7236C21.5842 17.3445 21.7488 17.1513 21.9287 16.9414C22.1388 16.6963 22.3644 16.4345 22.8252 15.9736C23.2862 15.5126 23.5467 15.2895 23.7939 15.0791C24.0048 14.8997 24.1979 14.736 24.582 14.3564C25.4482 13.5005 25.362 13.5667 26.2549 12.6738C26.6272 12.3015 26.7822 12.1147 26.9521 11.9102C27.1574 11.6631 27.382 11.3931 27.8486 10.9209C28.3246 10.4392 28.6062 10.208 28.8672 9.99609C29.078 9.82493 29.2616 9.6769 29.625 9.31348C30.0418 8.89671 30.2493 8.68675 30.458 8.47559C30.6692 8.26188 30.8818 8.04688 31.3047 7.62402C31.7155 7.21326 31.9138 7.00751 32.1191 6.7959C32.332 6.57661 32.5481 6.35596 32.9824 5.92676C33.8299 5.08928 33.8276 5.09135 34.665 4.25391C35.066 3.85293 35.2543 3.65079 35.4492 3.44141C35.6592 3.21587 35.8765 2.98283 36.3154 2.54395L36.3203 2.53809L36.3262 2.5332C37.1063 1.76712 38.1607 1.20968 39.1123 0.80957C40.1587 0.369615 41.2837 0.125827 42.3018 0.121094V0.120117H42.332V0.121094C43.5742 0.121407 43.5033 0.140777 44.6943 0.121094C45.2757 0.111485 45.5589 0.0965644 45.8633 0.0839844C46.1866 0.0706265 46.5123 0.0605499 47.1416 0.0605469C47.7588 0.0605469 48.0714 0.0652325 48.3789 0.0703125C48.6763 0.0752247 48.9691 0.0800761 49.5615 0.0800781H51.9814C52.5432 0.0800781 52.8119 0.0643259 53.0967 0.0478516C53.4169 0.0293316 53.7541 0.0107422 54.4023 0.0107422C55.0317 0.0107473 55.3561 0.0209212 55.6699 0.03125C55.9639 0.0409267 56.2471 0.0507812 56.8223 0.0507812C57.4719 0.0507896 57.8117 0.0724309 58.1328 0.09375C58.4132 0.112368 58.6764 0.13085 59.2314 0.130859H61.6523C62.2323 0.130854 62.5154 0.120988 62.8076 0.111328C63.1202 0.100996 63.4427 0.0908203 64.0723 0.0908203C64.6523 0.0908163 64.9353 0.0809531 65.2275 0.0712891C65.5401 0.0609528 65.8626 0.0507812 66.4922 0.0507812C67.14 0.0507873 67.4768 0.0693735 67.7969 0.0878906C68.0817 0.104368 68.3504 0.120117 68.9121 0.120117C69.4984 0.120115 69.7862 0.112778 70.0811 0.105469C70.3912 0.0977805 70.7085 0.0908203 71.332 0.0908203C71.906 0.0908183 72.1865 0.0783827 72.4775 0.0664062C72.7935 0.0534034 73.1209 0.0400391 73.752 0.0400391C74.327 0.0400384 74.6072 0.0311496 74.8984 0.0214844C75.2101 0.011142 75.5324 0 76.1621 0C76.7852 1.78421e-06 77.1048 0.00794147 77.416 0.015625C77.7124 0.0229436 78.0007 0.0302734 78.582 0.0302734C79.244 0.0302778 79.5957 0.0589027 79.9229 0.0859375C80.2006 0.108894 80.4543 0.130859 80.9922 0.130859C81.5359 0.130852 81.7941 0.110675 82.0742 0.0898438C82.399 0.0656885 82.7464 0.0400391 83.4023 0.0400391C84.008 0.0400403 84.3153 0.0433809 84.6201 0.0458984C84.9201 0.0483759 85.218 0.0507802 85.8115 0.0507812C86.4486 0.0507812 86.7786 0.0662888 87.0947 0.0820312C87.3804 0.0962595 87.6539 0.110348 88.2217 0.110352H90.6318C91.7015 0.110352 92.8326 0.416811 93.8262 0.823242C94.837 1.23675 95.8566 1.83217 96.6084 2.58398C97.02 2.9956 97.2279 3.20013 97.4365 3.40625C97.6478 3.61503 97.8601 3.82597 98.2783 4.24414C98.6964 4.66223 98.9065 4.87467 99.1152 5.08594C99.3215 5.29464 99.5266 5.50224 99.9385 5.91406C100.318 6.29396 100.512 6.46184 100.716 6.63965C100.95 6.84355 101.201 7.06213 101.651 7.50684C102.112 7.96153 102.336 8.22246 102.545 8.46875C102.721 8.67566 102.879 8.86301 103.249 9.2334C103.626 9.60999 103.816 9.77418 104.021 9.95215C104.261 10.1591 104.516 10.3807 104.969 10.834C105.425 11.29 105.647 11.5494 105.853 11.7881C106.027 11.9911 106.188 12.1783 106.562 12.5469C107.394 13.3691 107.396 13.3718 108.229 14.2041C108.593 14.5682 108.779 14.7215 108.985 14.8916C109.235 15.0979 109.507 15.3219 109.969 15.7832C110.417 16.2319 110.636 16.485 110.842 16.7227C111.018 16.9266 111.182 17.1175 111.559 17.4941C111.932 17.8673 112.119 18.0261 112.323 18.2002C112.564 18.406 112.822 18.6274 113.278 19.084C113.732 19.5372 113.953 19.792 114.16 20.0312C114.338 20.2369 114.502 20.4272 114.879 20.8037C115.725 21.6499 115.704 21.6395 116.531 22.457C116.914 22.8353 117.108 23.004 117.317 23.1885C117.554 23.3973 117.802 23.6166 118.249 24.0635C119.021 24.8358 119.602 25.9154 119.999 26.8857C120.444 27.973 120.642 29.1261 120.642 30.1104V30.124C120.631 31.4566 120.612 31.3092 120.612 32.5703Z" fill="#1E1E1E"/>
<path d="M16.6237 97.9907L17.2137 96.8506L15.4237 96.5507L12.2637 93.3907L12.3937 89.0406L16.2137 85.2207L20.4737 85.2507L23.9937 88.7707L23.6737 92.3707L21.6837 92.2307L21.9037 89.5607L19.5937 87.2507L17.0237 87.2307L14.3937 89.8607L14.3037 92.5406L16.6137 94.8506L18.2937 95.1107L19.1637 94.2407L17.6037 92.6807L18.9837 91.3007L21.9537 94.2707L19.5337 96.6907L18.3137 98.8607L16.6237 97.9807V97.9907Z" fill="#1E1E1E"/>
<path d="M19.2031 100.331L23.3631 96.1713L24.5831 93.8613L26.3731 94.7614L25.4231 96.5513L27.8431 96.5914L29.8131 98.5613L28.3731 100.001L26.9331 98.5613L23.8531 98.5114L20.6231 101.741L19.2131 100.331H19.2031Z" fill="#1E1E1E"/>
<path d="M29.603 111.091L29.233 109.231L29.723 108.741L28.383 108.621L26.713 107.841L25.043 106.171L25.123 104.091L26.503 102.711L28.333 102.601L32.683 105.531L32.983 105.231V104.401L31.033 102.441L30.503 102.311L29.753 102.591L28.993 100.751L30.203 100.301L31.923 100.681L34.913 103.671L34.893 106.151L31.383 109.661L31.513 110.241L32.483 110.901L31.473 112.361L29.613 111.111L29.603 111.091ZM26.943 105.551L27.803 106.411L28.893 106.921L30.923 107.271L31.483 106.711L27.983 104.461L27.503 104.511L26.963 105.051L26.933 105.551H26.943Z" fill="#1E1E1E"/>
<path d="M30.0845 115.53L36.4045 109.21L37.6245 106.9L39.4145 107.8L38.6345 109.28L40.9945 109.74L43.3945 112.14L43.3045 115.34L40.5045 118.14L37.1545 118.28L34.5845 115.71L34.3845 114.02L31.4745 116.93L30.0645 115.52L30.0845 115.53ZM36.5445 114.89L37.9045 116.25L39.6645 116.18L41.3145 114.53L41.3645 112.9L40.0945 111.63L37.3645 111.09L36.2245 112.23L36.5545 114.89H36.5445Z" fill="#1E1E1E"/>
<path d="M40.2446 121.371L48.4146 113.201L49.8246 114.611L46.8446 117.591L48.8746 117.631L51.3346 120.091L51.2446 122.961L46.5346 127.671L45.1246 126.261L49.2846 122.101L49.3146 120.961L47.9546 119.601L44.8846 119.541L41.6346 122.791L40.2246 121.381L40.2446 121.371Z" fill="#1E1E1E"/>
<path d="M55.9539 121.071C56.5139 120.511 57.4439 120.501 58.0039 121.051C58.5639 121.601 58.5539 122.531 57.9839 123.101C57.4139 123.671 56.4939 123.671 55.9339 123.121C55.3739 122.571 55.3839 121.641 55.9539 121.071ZM48.2539 129.381L54.4439 123.191L55.8539 124.601L49.6639 130.791L48.2539 129.381Z" fill="#1E1E1E"/>
<path d="M52.7031 133.831L52.8031 130.591L55.6931 127.701L58.9931 127.731L62.0831 130.821L62.0031 133.991L60.0431 133.971L60.1031 131.621L58.2131 129.731H56.5031L54.8131 131.421L54.7631 133.071L56.8131 135.121L58.8231 135.961L58.0631 137.801L55.7031 136.811L52.7131 133.821L52.7031 133.831Z" fill="#1E1E1E"/>
</svg>
