<svg width="135" height="150" viewBox="0 0 135 150" fill="none" xmlns="http://www.w3.org/2000/svg">
<path d="M3.94751 24.5504C3.94751 23.7704 4.14751 22.8104 4.50751 21.9304C4.86751 21.0504 5.39752 20.2304 5.95752 19.6804C6.82752 18.8104 6.85754 18.8304 7.72754 17.9604C8.59754 17.0904 8.6275 17.1104 9.4975 16.2404C10.3675 15.3704 10.3975 15.4004 11.2775 14.5204C12.1575 13.6404 12.0775 13.5704 12.9475 12.7004C13.8175 11.8304 13.8475 11.8504 14.7175 10.9804C15.5875 10.1104 15.6075 10.1204 16.4875 9.25038C17.3675 8.38038 17.3875 8.40039 18.2575 7.52039C19.1275 6.64039 19.1075 6.61039 19.9775 5.74039C20.5275 5.19039 21.3275 4.65039 22.2075 4.29039C23.0875 3.93039 24.0275 3.67038 24.8075 3.67038C26.0375 3.67038 26.0375 3.73038 27.2675 3.73038C28.4975 3.73038 28.4975 3.77039 29.7275 3.77039C30.9575 3.77039 30.9575 3.74039 32.1875 3.74039C33.4175 3.74039 33.4175 3.73038 34.6575 3.73038C35.8975 3.73038 35.8875 3.75038 37.1275 3.75038C37.9075 3.75038 38.8375 3.95039 39.7175 4.32039C40.5975 4.69039 41.4575 5.14038 42.0075 5.69038C42.8775 6.56038 42.8675 6.58038 43.7375 7.45038C44.6075 8.32038 44.5875 8.34038 45.4575 9.22038C46.3275 10.1004 46.2875 10.1304 47.1675 11.0004C48.0475 11.8704 48.0975 11.8204 48.9675 12.6904C49.8375 13.5604 49.8575 13.5504 50.7275 14.4204C51.5975 15.2904 51.6075 15.2904 52.4775 16.1704C53.3475 17.0504 53.2976 17.1004 54.1776 17.9804C55.0576 18.8604 55.0375 18.8804 55.9075 19.7504C56.4575 20.3004 57.2976 20.8104 58.1776 21.1704C59.0576 21.5304 60.0075 21.6704 60.7875 21.6704C62.0175 21.6704 62.0175 21.7004 63.2475 21.7004C64.4775 21.7004 64.4775 21.7204 65.7075 21.7204C66.9375 21.7204 66.9375 21.6504 68.1675 21.6504C69.3975 21.6504 69.3975 21.7604 70.6375 21.7604C71.8775 21.7604 71.8675 21.7704 73.1075 21.7704C73.8875 21.7704 74.8175 21.4704 75.6975 21.1104C76.5775 20.7504 77.3775 20.2404 77.9276 19.6904C78.7976 18.8204 78.8375 18.8504 79.7075 17.9704C80.5775 17.0904 80.5375 17.0504 81.4075 16.1804C82.2775 15.3104 82.2875 15.3204 83.1675 14.4404C84.0475 13.5604 84.0875 13.6204 84.9675 12.7404C85.8475 11.8604 85.8275 11.8604 86.7075 10.9804C87.5875 10.1004 87.5375 10.0604 88.4075 9.18039C89.2775 8.30039 89.3375 8.35038 90.2075 7.48038C91.0775 6.61038 91.0275 6.55038 91.8975 5.67038C92.4475 5.12038 93.3175 4.68039 94.1975 4.32039C95.0775 3.96039 95.9975 3.74039 96.7775 3.74039C98.0075 3.74039 98.0075 3.65039 99.2375 3.65039C100.468 3.65039 100.468 3.68039 101.698 3.68039C102.928 3.68039 102.928 3.71039 104.158 3.71039C105.388 3.71039 105.388 3.77039 106.628 3.77039C107.868 3.77039 107.858 3.66039 109.098 3.66039C109.878 3.66039 110.798 3.96039 111.678 4.32039C112.558 4.68039 113.378 5.17038 113.928 5.72038C114.798 6.59038 114.838 6.56039 115.718 7.43039C116.598 8.30039 116.578 8.32038 117.448 9.19038C118.318 10.0604 118.298 10.0904 119.168 10.9604C120.038 11.8304 120.058 11.8204 120.928 12.6904C121.798 13.5604 121.818 13.5404 122.698 14.4204C123.578 15.3004 123.578 15.2904 124.458 16.1604C125.338 17.0304 125.278 17.1004 126.148 17.9704C127.018 18.8404 127.078 18.8004 127.948 19.6704C128.498 20.2204 129.028 21.0404 129.398 21.9104C129.768 22.7804 129.938 23.7404 129.938 24.5204C129.938 25.7204 129.908 25.7204 129.908 26.9304C129.908 28.1404 129.958 28.1304 129.958 29.3404C129.958 30.5504 129.888 30.5404 129.888 31.7504C129.888 32.9604 129.988 32.9504 129.988 34.1604C129.988 35.3704 129.948 35.3604 129.948 36.5704C129.948 37.7804 129.888 37.7704 129.888 38.9804C129.888 40.1904 129.997 40.1804 129.997 41.3904C129.997 42.6004 129.878 42.5904 129.878 43.8004C129.878 45.0104 129.878 45.0004 129.878 46.2104C129.878 47.4204 129.908 47.4104 129.908 48.6204C129.908 49.8304 129.908 49.8204 129.908 51.0304C129.908 52.2404 129.858 52.2304 129.858 53.4404C129.858 54.6504 129.978 54.6404 129.978 55.8504C129.978 57.0604 129.878 57.0504 129.878 58.2504C129.878 59.4504 129.988 59.4504 129.988 60.6504C129.988 61.8504 129.988 61.8504 129.988 63.0504C129.988 64.2504 129.908 64.2504 129.908 65.4604C129.908 66.6704 129.908 66.6604 129.908 67.8704C129.908 69.0804 129.878 69.0704 129.878 70.2804C129.878 71.4904 129.878 71.4804 129.878 72.6904C129.878 73.9004 129.898 73.8904 129.898 75.1004C129.898 76.3104 129.918 76.3004 129.918 77.5104C129.918 78.7204 129.908 78.7204 129.908 79.9204C129.908 81.1204 129.978 81.1204 129.978 82.3304C129.978 83.5404 129.888 83.5404 129.888 84.7404C129.888 85.9404 129.958 85.9404 129.958 87.1504C129.958 88.3604 129.918 88.3604 129.918 89.5604C129.918 90.7604 129.968 90.7704 129.968 91.9704C129.968 93.1704 129.888 93.1704 129.888 94.3804C129.888 95.5904 129.928 95.5804 129.928 96.7904C129.928 98.0004 129.978 98.0004 129.978 99.2004C129.978 100.4 129.858 100.41 129.858 101.61C129.858 102.81 129.858 102.82 129.858 104.02C129.858 105.22 129.858 105.23 129.858 106.44C129.858 107.65 129.878 107.65 129.878 108.86C129.878 109.64 129.667 110.56 129.307 111.44C128.947 112.32 128.438 113.12 127.888 113.67C127.048 114.51 127.118 114.59 126.278 115.43C125.438 116.27 125.378 116.21 124.538 117.05C123.698 117.89 123.738 117.93 122.898 118.77C122.058 119.61 122.038 119.59 121.198 120.44C120.358 121.29 120.378 121.3 119.538 122.14C118.698 122.98 118.668 122.95 117.828 123.79C116.988 124.63 116.967 124.61 116.128 125.45C115.288 126.29 115.318 126.32 114.478 127.16C113.638 128 113.608 127.97 112.768 128.81C111.928 129.65 111.908 129.63 111.068 130.47C110.228 131.31 110.277 131.36 109.438 132.2C108.598 133.04 108.587 133.04 107.747 133.88C106.908 134.72 106.928 134.74 106.088 135.58C105.248 136.42 105.238 136.41 104.398 137.25C103.558 138.09 103.527 138.07 102.688 138.91C101.848 139.75 101.878 139.79 101.038 140.63C100.198 141.47 100.168 141.45 99.3275 142.29C98.4875 143.13 98.4375 143.09 97.5975 143.94C96.7575 144.79 96.7975 144.83 95.9575 145.68C95.4075 146.23 94.5575 146.67 93.6776 147.03C92.7976 147.39 91.8875 147.71 91.1075 147.71C89.9375 147.71 89.9375 147.64 88.7775 147.64C87.6175 147.64 87.6175 147.74 86.4475 147.74C85.2775 147.74 85.2775 147.7 84.1175 147.7C82.9575 147.7 82.9475 147.7 81.7875 147.7C80.6275 147.7 80.6175 147.62 79.4575 147.62C78.2975 147.62 78.2875 147.69 77.1275 147.69C75.9675 147.69 75.9675 147.71 74.7975 147.71C73.6275 147.71 73.6275 147.64 72.4675 147.64C71.3075 147.64 71.2975 147.7 70.1375 147.7C68.9775 147.7 68.9675 147.74 67.8075 147.74C66.6475 147.74 66.6375 147.6 65.4775 147.6C64.3175 147.6 64.3075 147.67 63.1375 147.67C61.9675 147.67 61.9675 147.71 60.7975 147.71C60.0175 147.71 59.0775 147.45 58.1975 147.09C57.3175 146.73 56.5375 146.18 55.9875 145.63C55.1175 144.76 55.0975 144.77 54.2275 143.9C53.3575 143.03 53.3075 143.08 52.4375 142.2C51.5675 141.32 51.5576 141.34 50.6776 140.46C49.7976 139.58 49.8475 139.54 48.9775 138.67C48.1075 137.8 48.0775 137.82 47.2075 136.95C46.3375 136.08 46.3475 136.06 45.4775 135.18C44.6075 134.3 44.6075 134.3 43.7375 133.42C42.8675 132.54 42.8975 132.51 42.0175 131.63C41.4675 131.08 40.6175 130.61 39.7375 130.24C38.8575 129.87 37.9275 129.71 37.1475 129.71C35.9175 129.71 35.9175 129.62 34.6875 129.62C33.4575 129.62 33.4575 129.59 32.2275 129.59C30.9975 129.59 30.9975 129.69 29.7675 129.69C28.5375 129.69 28.5375 129.71 27.2975 129.71C26.0575 129.71 26.0675 129.66 24.8275 129.66C24.0475 129.66 23.1075 129.45 22.2275 129.09C21.3475 128.73 20.5075 128.23 19.9575 127.68C19.0875 126.81 19.0675 126.83 18.1875 125.95C17.3075 125.07 17.3975 124.99 16.5275 124.12C15.6575 123.25 15.6575 123.24 14.7875 122.37C13.9175 121.5 13.8475 121.57 12.9675 120.69C12.0875 119.81 12.0875 119.82 11.2175 118.95C10.3475 118.08 10.3975 118.02 9.52753 117.14C8.65753 116.26 8.66754 116.25 7.78754 115.37C6.90754 114.49 6.90753 114.5 6.02753 113.62C5.47753 113.07 4.9175 112.29 4.5575 111.42C4.1975 110.55 4.02753 109.6 4.02753 108.82C4.02753 107.62 3.9975 107.62 3.9975 106.41C3.9975 105.2 3.9975 105.21 3.9975 104C3.9975 102.79 3.9975 102.8 3.9975 101.59C3.9975 100.38 3.9975 100.39 3.9975 99.1804C3.9975 97.9704 3.94751 97.9804 3.94751 96.7704C3.94751 95.5604 3.95752 95.5704 3.95752 94.3604C3.95752 93.1504 3.96753 93.1604 3.96753 91.9504C3.96753 90.7404 4.04755 90.7504 4.04755 89.5404C4.04755 88.3304 3.95752 88.3404 3.95752 87.1304C3.95752 85.9204 4.0575 85.9304 4.0575 84.7204C4.0575 83.5104 4.02753 83.5204 4.02753 82.3104C4.02753 81.1004 4.02753 81.1104 4.02753 79.9004C4.02753 78.6904 3.9975 78.7004 3.9975 77.4904C3.9975 76.2804 4.02753 76.2904 4.02753 75.0904C4.02753 73.8904 4.02753 73.8904 4.02753 72.6904C4.02753 71.4904 3.96753 71.4904 3.96753 70.2904C3.96753 69.0904 4.03754 69.0904 4.03754 67.8804C4.03754 66.6704 3.95752 66.6804 3.95752 65.4704C3.95752 64.2604 4.00751 64.2704 4.00751 63.0604C4.00751 61.8504 4.03754 61.8604 4.03754 60.6504C4.03754 59.4404 3.96753 59.4404 3.96753 58.2404C3.96753 57.0404 3.94751 57.0404 3.94751 55.8304C3.94751 54.6204 4.07751 54.6204 4.07751 53.4204C4.07751 52.2204 3.9975 52.2204 3.9975 51.0104C3.9975 49.8004 4.0675 49.8004 4.0675 48.6004C4.0675 47.4004 4.04755 47.4004 4.04755 46.1904C4.04755 44.9804 4.02753 44.9804 4.02753 43.7804C4.02753 42.5804 3.9375 42.5704 3.9375 41.3704C3.9375 40.1704 3.94751 40.1704 3.94751 38.9604C3.94751 37.7504 3.9975 37.7604 3.9975 36.5504C3.9975 35.3404 3.9975 35.3404 3.9975 34.1404C3.9975 32.9404 3.94751 32.9304 3.94751 31.7304C3.94751 30.5304 3.9975 30.5204 3.9975 29.3204C3.9975 28.1204 3.96752 28.1104 3.95752 26.9004C3.94752 25.6904 3.95752 25.6904 3.95752 24.4804L3.94751 24.5504Z" fill="#E5E5E5"/>
<path d="M128.287 24.5205C128.287 23.9516 128.158 23.2118 127.879 22.5557C127.574 21.8384 127.152 21.2081 126.781 20.8369C126.377 20.4324 126.169 20.2478 125.949 20.0518C125.704 19.8329 125.446 19.602 124.98 19.1367C124.506 18.6627 124.275 18.3951 124.06 18.1465C123.873 17.9315 123.698 17.7297 123.298 17.334C122.434 16.4796 122.413 16.469 121.531 15.5869C121.103 15.159 120.887 14.9538 120.669 14.7451C120.44 14.5266 120.208 14.3045 119.761 13.8574C119.335 13.4316 119.12 13.2231 118.901 13.0117C118.675 12.7931 118.445 12.5711 118.001 12.127C117.551 11.6768 117.327 11.4393 117.108 11.208C116.902 10.9894 116.701 10.777 116.281 10.3574C115.834 9.91045 115.612 9.67773 115.396 9.45312C115.19 9.23854 114.985 9.02641 114.558 8.60352C114.139 8.18948 113.926 7.99533 113.703 7.79102C113.463 7.57034 113.217 7.343 112.761 6.88672C112.416 6.54244 111.809 6.15697 111.053 5.84766C110.19 5.49477 109.529 5.31058 109.098 5.31055C108.544 5.31055 108.29 5.33337 108.01 5.3584C107.675 5.38836 107.314 5.41991 106.628 5.41992C105.972 5.41992 105.632 5.40441 105.309 5.38867C105.015 5.37439 104.736 5.36035 104.157 5.36035C103.524 5.36035 103.203 5.3524 102.888 5.34473C102.588 5.33741 102.294 5.33008 101.697 5.33008C101.064 5.33008 100.743 5.32213 100.428 5.31445C100.128 5.30714 99.8341 5.30078 99.2373 5.30078C98.6772 5.30079 98.4131 5.31996 98.1279 5.34082C97.7981 5.36495 97.4471 5.39062 96.7773 5.39062C96.2748 5.39066 95.5722 5.54087 94.8223 5.84766C93.9668 6.19763 93.365 6.53645 93.0645 6.83691C92.6668 7.23943 92.4869 7.44591 92.293 7.66699C92.0731 7.91771 91.8425 8.17902 91.374 8.64746C90.9061 9.11542 90.6458 9.34454 90.4023 9.56055C90.1871 9.75152 89.983 9.93424 89.5811 10.3408C89.1734 10.7532 88.9883 10.9606 88.79 11.1816C88.5704 11.4265 88.3412 11.6803 87.874 12.1475C87.4403 12.5812 87.23 12.7963 87.0176 13.0137C86.8001 13.2363 86.5798 13.4612 86.1338 13.9072C85.6638 14.3772 85.4084 14.6053 85.165 14.8223C84.9486 15.0152 84.7436 15.1978 84.334 15.6074C83.8883 16.0531 83.6612 16.2755 83.4375 16.4941C83.2187 16.708 83.003 16.9179 82.5742 17.3467C82.1636 17.7573 81.9749 17.9651 81.7793 18.1807C81.565 18.4169 81.3395 18.667 80.8809 19.1309C80.4251 19.5918 80.1796 19.8209 79.9404 20.043C79.7188 20.2488 79.5086 20.4435 79.0947 20.8574C78.36 21.5921 77.3621 22.2123 76.3223 22.6377C75.4209 23.0064 74.2335 23.4199 73.1074 23.4199C72.4816 23.4199 72.1693 23.4176 71.8594 23.415C71.5544 23.4126 71.2515 23.4102 70.6377 23.4102C69.9514 23.4102 69.5882 23.3786 69.252 23.3486C68.97 23.3235 68.7154 23.3008 68.168 23.3008C67.5955 23.3008 67.3213 23.3165 67.0312 23.333C66.7064 23.3515 66.3652 23.3701 65.708 23.3701C65.0808 23.3701 64.7627 23.3654 64.4502 23.3604C64.1479 23.3554 63.8496 23.3506 63.2471 23.3506C62.6143 23.3506 62.2924 23.3426 61.9775 23.335C61.6776 23.3276 61.3839 23.3203 60.7871 23.3203C59.831 23.3203 58.6633 23.1516 57.5527 22.6973C56.5405 22.2831 55.4921 21.6678 54.7412 20.917C54.2941 20.4699 54.072 20.2375 53.8535 20.0088C53.6448 19.7903 53.4386 19.5754 53.0107 19.1475C52.5407 18.6774 52.3104 18.4185 52.0898 18.1699C51.8924 17.9474 51.7088 17.7398 51.3037 17.3301C50.4363 16.4527 50.4459 16.4723 49.5605 15.5869C49.1349 15.1613 48.9198 14.9535 48.7012 14.7422C48.4749 14.5236 48.2448 14.3014 47.8008 13.8574C47.3963 13.4529 47.1919 13.271 46.9766 13.0801C46.735 12.866 46.4779 12.6386 46.0078 12.1738C45.5465 11.7178 45.3181 11.4744 45.0957 11.2334C44.8899 11.0104 44.6983 10.7998 44.2842 10.3809C43.8374 9.92894 43.616 9.69376 43.4014 9.46777C43.1963 9.25188 42.9939 9.03981 42.5713 8.61719C42.1272 8.17311 41.9042 7.94304 41.6855 7.7168C41.4743 7.49818 41.2664 7.28302 40.8408 6.85742C40.5308 6.54739 39.9252 6.19795 39.0781 5.8418C38.3656 5.54221 37.653 5.40047 37.1279 5.40039C36.4958 5.40039 36.1778 5.39571 35.8652 5.39062C35.563 5.38571 35.2648 5.38086 34.6572 5.38086C34.0438 5.38086 33.7386 5.38326 33.4326 5.38574C33.1214 5.38826 32.8086 5.39062 32.1875 5.39062C31.5909 5.39062 31.2979 5.39796 30.998 5.40527C30.6831 5.41296 30.3608 5.41992 29.7275 5.41992C29.0885 5.41992 28.7617 5.40974 28.4443 5.39941C28.1468 5.38974 27.8582 5.38086 27.2676 5.38086C26.6161 5.38086 26.2795 5.36436 25.957 5.34863C25.6645 5.33437 25.386 5.32031 24.8076 5.32031C24.3388 5.32031 23.6293 5.49121 22.832 5.81738C22.1428 6.09934 21.5306 6.52118 21.1445 6.90723C20.7249 7.32686 20.5243 7.53871 20.3203 7.75586C20.1045 7.98559 19.8805 8.22571 19.4307 8.68066C18.5917 9.52928 18.4248 9.65534 17.6475 10.4238C17.1989 10.8673 16.9667 11.089 16.7422 11.3047C16.5248 11.5135 16.3097 11.7216 15.8838 12.1475C15.434 12.5972 15.197 12.8217 14.9658 13.04C14.7471 13.2466 14.5341 13.4474 14.1143 13.8672C13.725 14.2564 13.5609 14.4526 13.3789 14.6689C13.1627 14.926 12.9295 15.2024 12.4443 15.6875C11.9865 16.1453 11.7438 16.3713 11.5098 16.5898C11.291 16.7941 11.0808 16.9905 10.6641 17.4072C10.214 17.8573 9.97639 18.0814 9.74512 18.2998C9.52652 18.5063 9.31416 18.7073 8.89453 19.127C8.44456 19.5769 8.20681 19.8012 7.97559 20.0195C7.75692 20.226 7.54379 20.4269 7.12402 20.8467L7.11914 20.8525L7.11328 20.8574C6.74162 21.2225 6.32576 21.842 6.03418 22.5547C5.75479 23.2376 5.6117 23.952 5.59961 24.4795L5.60742 24.4805C5.60742 25.7222 5.59746 25.6813 5.60742 26.8867C5.61227 27.4736 5.62217 27.7645 5.63086 28.0664C5.63997 28.3829 5.64746 28.7017 5.64746 29.3203C5.64746 29.9514 5.63411 30.2788 5.62109 30.5938C5.60912 30.8837 5.59766 31.1617 5.59766 31.7305C5.59766 32.2993 5.60911 32.5772 5.62109 32.8672C5.63411 33.1822 5.64746 33.5096 5.64746 34.1406V36.5508C5.64746 37.1865 5.63413 37.5113 5.62109 37.8242C5.60914 38.1111 5.59766 38.3864 5.59766 38.96C5.59766 39.571 5.5953 39.8788 5.59277 40.1826C5.59029 40.4813 5.58789 40.7765 5.58789 41.3701C5.58789 41.9142 5.60708 42.1729 5.62793 42.4531C5.65209 42.7778 5.67773 43.1245 5.67773 43.7803C5.67773 44.3677 5.68258 44.6579 5.6875 44.9541C5.69259 45.2606 5.69727 45.5731 5.69727 46.1904C5.69727 46.7831 5.70213 47.076 5.70703 47.3721C5.7121 47.6782 5.71777 47.9883 5.71777 48.6006C5.71777 49.2441 5.6982 49.5788 5.67969 49.8975C5.66324 50.1806 5.64746 50.4491 5.64746 51.0107C5.64747 51.5658 5.66497 51.829 5.68359 52.1094C5.70492 52.4305 5.72753 52.7703 5.72754 53.4199C5.72754 54.101 5.68926 54.4657 5.65332 54.7988C5.6244 55.0669 5.59767 55.3057 5.59766 55.8301C5.59766 56.4227 5.6025 56.7157 5.60742 57.0117C5.61251 57.318 5.61719 57.6278 5.61719 58.2402C5.61719 58.7964 5.63293 59.062 5.64941 59.3457C5.66797 59.665 5.6875 60.0021 5.6875 60.6504C5.6875 61.2739 5.67958 61.5887 5.67188 61.8965C5.66456 62.1887 5.65723 62.4742 5.65723 63.0605C5.65722 63.6964 5.6439 64.021 5.63086 64.334C5.6189 64.621 5.60742 64.8967 5.60742 65.4707C5.60743 66.0257 5.62494 66.2863 5.64355 66.5654C5.66494 66.8861 5.6875 67.2262 5.6875 67.8809C5.68749 68.5286 5.66796 68.8654 5.64941 69.1846C5.63293 69.4683 5.61719 69.7339 5.61719 70.29C5.61719 70.8526 5.63127 71.1235 5.64551 71.4082C5.66127 71.7235 5.67773 72.0532 5.67773 72.6904V75.0908C5.67773 75.7093 5.66981 76.0217 5.66211 76.3281C5.6548 76.6188 5.64746 76.904 5.64746 77.4902C5.64746 78.0766 5.6548 78.3621 5.66211 78.6543C5.66981 78.9621 5.67773 79.2769 5.67773 79.9004V82.3105C5.67774 82.8968 5.68509 83.1824 5.69238 83.4746C5.70007 83.7823 5.70703 84.0974 5.70703 84.7207C5.70702 85.3875 5.6785 85.7368 5.65137 86.0625C5.62852 86.3367 5.60742 86.588 5.60742 87.1309C5.60743 87.6796 5.62671 87.9353 5.64746 88.2119C5.67171 88.5351 5.69726 88.8794 5.69727 89.54C5.69727 90.1947 5.67568 90.5348 5.6543 90.8555C5.63568 91.1346 5.61719 91.3952 5.61719 91.9502C5.61719 92.5613 5.61483 92.8664 5.6123 93.1689C5.60982 93.4663 5.60742 93.7616 5.60742 94.3604C5.60742 94.9715 5.60506 95.2765 5.60254 95.5791C5.60006 95.8765 5.59766 96.1717 5.59766 96.7705C5.59766 97.3441 5.60915 97.6194 5.62109 97.9062C5.63413 98.2193 5.64746 98.5446 5.64746 99.1807V106.41C5.64746 106.997 5.6548 107.285 5.66211 107.578C5.6698 107.887 5.67773 108.202 5.67773 108.82C5.67773 109.387 5.80621 110.122 6.08203 110.789C6.35144 111.44 6.78284 112.043 7.19434 112.454C7.63114 112.891 7.84869 113.106 8.06738 113.322C8.28864 113.541 8.51111 113.761 8.9541 114.204C9.81852 115.069 9.88184 115.152 10.7012 115.98C11.1688 116.454 11.3983 116.716 11.6133 116.961C11.8033 117.178 11.9826 117.382 12.3838 117.783C12.8157 118.215 13.0315 118.429 13.249 118.644C13.4689 118.861 13.6912 119.081 14.1338 119.523C14.5317 119.921 14.7339 120.093 14.9512 120.278C15.2055 120.495 15.4766 120.727 15.9541 121.204C16.392 121.642 16.6124 121.864 16.8311 122.085C17.0473 122.304 17.2624 122.522 17.6943 122.954C18.181 123.441 18.4141 123.723 18.6289 123.984C18.8055 124.199 18.9661 124.395 19.3545 124.783C19.7824 125.211 19.9973 125.417 20.2158 125.626C20.4445 125.844 20.6769 126.067 21.124 126.514C21.4669 126.857 22.0936 127.253 22.8525 127.563C23.5838 127.863 24.3095 128.011 24.8271 128.011C25.4774 128.011 25.8097 128.024 26.1299 128.037C26.4246 128.049 26.7084 128.061 27.2979 128.061C27.9056 128.061 28.2061 128.056 28.5098 128.051C28.8233 128.046 29.1405 128.04 29.7676 128.04C30.3217 128.04 30.5815 128.019 30.8643 127.996C31.1964 127.969 31.552 127.94 32.2275 127.94C32.8608 127.94 33.1831 127.948 33.498 127.956C33.7979 127.963 34.0909 127.971 34.6875 127.971C35.3572 127.971 35.7083 127.995 36.0381 128.02C36.3232 128.04 36.5873 128.061 37.1475 128.061C38.1347 128.061 39.2834 128.26 40.377 128.72C41.3231 129.118 42.4079 129.687 43.1846 130.464C43.6424 130.922 43.8698 131.164 44.0908 131.402C44.2977 131.625 44.494 131.839 44.9111 132.261L46.6514 134.021C47.0948 134.469 47.3165 134.701 47.5322 134.926C47.741 135.143 47.9484 135.358 48.374 135.783C48.7938 136.203 49.007 136.404 49.2256 136.61C49.4569 136.829 49.6944 137.054 50.1445 137.504C50.6068 137.966 50.8321 138.217 51.0488 138.457C51.2441 138.674 51.4318 138.881 51.8447 139.294C52.2757 139.725 52.4907 139.933 52.7109 140.147C52.9387 140.369 53.1674 140.591 53.6113 141.04C54.0159 141.449 54.2199 141.634 54.4336 141.825C54.6736 142.04 54.9292 142.268 55.3945 142.733C55.8204 143.159 56.0352 143.368 56.2539 143.579C56.4801 143.798 56.7102 144.02 57.1543 144.464C57.5574 144.867 58.1554 145.291 58.8223 145.563C59.6195 145.89 60.3291 146.061 60.7979 146.061C61.3571 146.061 61.6292 146.051 61.9111 146.041C62.2141 146.031 62.5271 146.021 63.1377 146.021C63.6778 146.021 63.9375 146.005 64.2129 145.988C64.5242 145.97 64.8525 145.95 65.4775 145.95C66.1475 145.95 66.5112 145.993 66.8389 146.032C67.096 146.063 67.3178 146.091 67.8076 146.091C68.3618 146.091 68.6339 146.081 68.916 146.071C69.2188 146.061 69.532 146.051 70.1377 146.051C70.6789 146.051 70.9408 146.037 71.2178 146.022C71.5257 146.007 71.8492 145.99 72.4678 145.99C73.0926 145.99 73.4183 146.01 73.7275 146.028C74.0001 146.045 74.2576 146.061 74.7979 146.061C75.3696 146.061 75.6518 146.056 75.9375 146.051C76.2339 146.046 76.535 146.04 77.1279 146.04C77.6627 146.04 77.9199 146.025 78.1943 146.009C78.5047 145.99 78.8333 145.971 79.458 145.971C80.0891 145.971 80.4224 145.993 80.7354 146.015C81.0072 146.033 81.259 146.051 81.7871 146.051H84.1172C84.7227 146.051 85.0335 146.061 85.335 146.071C85.6154 146.081 85.888 146.091 86.4473 146.091C86.9684 146.091 87.2108 146.07 87.4756 146.047C87.7923 146.02 88.1332 145.99 88.7773 145.99C89.4025 145.99 89.7288 146.01 90.0381 146.028C90.3105 146.045 90.5675 146.061 91.1074 146.061C91.5232 146.061 92.1548 145.87 93.0527 145.503C93.8931 145.159 94.4849 144.82 94.791 144.514C95.1813 144.119 95.3616 143.917 95.5508 143.707C95.7604 143.474 95.9792 143.23 96.4238 142.78C96.8717 142.327 97.118 142.103 97.3555 141.888C97.5692 141.694 97.7693 141.516 98.1611 141.124C98.5968 140.688 98.8268 140.471 99.0508 140.26C99.2617 140.061 99.4668 139.868 99.8711 139.464C100.269 139.066 100.455 138.864 100.648 138.653C100.859 138.424 101.079 138.186 101.521 137.744C101.956 137.308 102.187 137.091 102.411 136.88C102.622 136.681 102.826 136.488 103.23 136.084C103.657 135.658 103.875 135.444 104.09 135.234C104.3 135.03 104.507 134.827 104.921 134.414C105.328 134.007 105.524 133.801 105.724 133.592C105.934 133.372 106.149 133.146 106.581 132.714C107.004 132.291 107.219 132.078 107.433 131.867C107.644 131.658 107.854 131.45 108.271 131.033C108.659 130.645 108.833 130.449 109.019 130.24C109.228 130.004 109.449 129.755 109.9 129.304C110.333 128.871 110.559 128.656 110.779 128.446C110.989 128.246 111.193 128.051 111.601 127.644C112.039 127.205 112.272 126.987 112.498 126.777C112.707 126.582 112.91 126.395 113.311 125.994C113.712 125.593 113.9 125.39 114.095 125.181C114.305 124.955 114.522 124.722 114.961 124.283C115.393 123.851 115.619 123.636 115.839 123.426C116.048 123.226 116.254 123.031 116.661 122.624C117.1 122.185 117.333 121.968 117.559 121.758C117.768 121.563 117.97 121.375 118.371 120.974C118.781 120.563 118.978 120.359 119.177 120.152C119.383 119.938 119.594 119.714 120.023 119.28C120.456 118.843 120.682 118.625 120.905 118.411C121.118 118.207 121.323 118.011 121.73 117.604C122.125 117.209 122.307 117.01 122.497 116.801C122.707 116.57 122.926 116.329 123.371 115.884C123.829 115.426 124.086 115.202 124.327 114.993C124.535 114.813 124.728 114.646 125.11 114.264C125.483 113.891 125.642 113.701 125.817 113.491C126.027 113.241 126.254 112.971 126.721 112.504C127.086 112.139 127.486 111.536 127.78 110.815C128.082 110.078 128.228 109.373 128.228 108.86C128.228 108.268 128.223 107.975 128.218 107.678C128.213 107.37 128.208 107.058 128.208 106.44V101.61C128.208 100.936 128.242 100.574 128.275 100.242C128.302 99.9693 128.327 99.7254 128.327 99.2002C128.327 98.6315 128.316 98.3561 128.304 98.0674C128.291 97.7532 128.277 97.4258 128.277 96.79C128.277 96.2103 128.268 95.9301 128.259 95.6406C128.248 95.3303 128.237 95.0104 128.237 94.3809C128.237 93.7265 128.26 93.3843 128.281 93.0625C128.3 92.7812 128.317 92.5206 128.317 91.9707C128.317 91.4017 128.306 91.123 128.294 90.833C128.281 90.5182 128.268 90.1912 128.268 89.5605C128.268 88.9358 128.278 88.6159 128.288 88.3047C128.298 88.0138 128.308 87.7307 128.308 87.1504C128.308 86.5886 128.292 86.3203 128.275 86.0371C128.257 85.7185 128.237 85.3838 128.237 84.7402C128.237 84.0842 128.263 83.7396 128.287 83.416C128.308 83.138 128.327 82.8793 128.327 82.3301C128.327 81.7688 128.311 81.5007 128.295 81.2178C128.276 80.8991 128.258 80.5636 128.258 79.9199C128.258 79.314 128.26 79.0088 128.263 78.7051C128.265 78.4066 128.268 78.1091 128.268 77.5107C128.268 76.9182 128.263 76.6278 128.258 76.333C128.253 76.0278 128.247 75.7179 128.247 75.1006C128.247 74.508 128.242 74.2176 128.237 73.9229C128.232 73.6177 128.228 73.3078 128.228 72.6904V70.2803C128.228 69.6568 128.235 69.342 128.243 69.0342C128.25 68.742 128.258 68.4565 128.258 67.8701V65.46C128.258 64.806 128.279 64.4643 128.301 64.1426C128.319 63.8613 128.338 63.6006 128.338 63.0508V60.6504C128.338 60.119 128.314 59.8728 128.289 59.6006C128.259 59.2729 128.228 58.9183 128.228 58.25C128.228 57.5876 128.256 57.2401 128.283 56.916C128.306 56.6438 128.327 56.3931 128.327 55.8506C128.327 55.32 128.302 55.0789 128.275 54.8096C128.242 54.4789 128.208 54.1198 128.208 53.4404C128.208 52.8046 128.221 52.4799 128.234 52.167C128.246 51.88 128.258 51.6043 128.258 51.0303V48.6201C128.258 48.0342 128.25 47.749 128.243 47.457C128.235 47.1492 128.228 46.8336 128.228 46.21V43.8008C128.228 43.1216 128.263 42.7622 128.296 42.4316C128.323 42.1624 128.348 41.921 128.348 41.3906C128.348 40.8539 128.325 40.6077 128.3 40.3359C128.27 40.0077 128.237 39.6537 128.237 38.9805C128.237 38.3385 128.254 38.0088 128.27 37.6934C128.284 37.4089 128.298 37.1381 128.298 36.5703C128.298 35.9406 128.308 35.6209 128.318 35.3105C128.328 35.021 128.338 34.7403 128.338 34.1602C128.338 33.6176 128.316 33.3669 128.293 33.0928C128.266 32.767 128.237 32.4171 128.237 31.75C128.237 31.1018 128.257 30.7673 128.275 30.4492C128.292 30.1675 128.308 29.902 128.308 29.3408C128.308 28.7669 128.296 28.4911 128.284 28.2041C128.271 27.8911 128.258 27.5665 128.258 26.9307C128.258 26.3072 128.266 25.9897 128.273 25.6807C128.281 25.387 128.287 25.1017 128.287 24.5205ZM131.588 24.5205C131.588 25.1391 131.58 25.4539 131.572 25.7627C131.565 26.0562 131.558 26.3442 131.558 26.9307C131.558 27.5043 131.569 27.7796 131.581 28.0664C131.594 28.3794 131.607 28.7048 131.607 29.3408C131.607 29.989 131.588 30.3235 131.569 30.6416C131.553 30.9233 131.537 31.1888 131.537 31.75C131.537 32.2929 131.559 32.5441 131.582 32.8184C131.609 33.1441 131.638 33.4933 131.638 34.1602C131.638 34.7897 131.627 35.1096 131.616 35.4199C131.607 35.7095 131.598 35.9902 131.598 36.5703C131.598 37.2123 131.581 37.5419 131.565 37.8574C131.551 38.1418 131.537 38.4127 131.537 38.9805C131.537 39.5172 131.561 39.7634 131.586 40.0352C131.616 40.3633 131.647 40.7177 131.647 41.3906C131.647 42.0699 131.612 42.4291 131.579 42.7598C131.552 43.029 131.527 43.2704 131.527 43.8008V46.21C131.527 46.7963 131.535 47.0819 131.542 47.374C131.55 47.6818 131.558 47.9967 131.558 48.6201V51.0303C131.558 51.666 131.544 51.9908 131.531 52.3037C131.519 52.5907 131.508 52.8664 131.508 53.4404C131.508 53.9709 131.533 54.2122 131.56 54.4814C131.593 54.8121 131.628 55.1713 131.628 55.8506C131.628 56.5173 131.598 56.8665 131.571 57.1914C131.548 57.4647 131.527 57.7129 131.527 58.25C131.527 58.7814 131.55 59.0276 131.575 59.2998C131.605 59.6276 131.638 59.9818 131.638 60.6504V63.0508C131.638 63.7004 131.615 64.0402 131.594 64.3613C131.575 64.6417 131.558 64.9049 131.558 65.46V67.8701C131.558 68.4934 131.55 68.8085 131.542 69.1162C131.535 69.4084 131.527 69.694 131.527 70.2803V72.6904C131.527 73.283 131.532 73.5734 131.537 73.8682C131.542 74.1733 131.548 74.4834 131.548 75.1006C131.548 75.693 131.553 75.9836 131.558 76.2783C131.563 76.5834 131.567 76.8936 131.567 77.5107C131.567 78.1214 131.565 78.4288 131.562 78.7324C131.56 79.0311 131.558 79.3265 131.558 79.9199C131.558 80.4763 131.573 80.7426 131.59 81.0264C131.608 81.3455 131.628 81.6823 131.628 82.3301C131.628 82.9907 131.602 83.3377 131.578 83.6621C131.557 83.941 131.537 84.1965 131.537 84.7402C131.537 85.2964 131.553 85.562 131.569 85.8457C131.588 86.165 131.607 86.5021 131.607 87.1504C131.607 87.7801 131.597 88.1024 131.587 88.4141C131.577 88.7052 131.567 88.9856 131.567 89.5605C131.567 90.1294 131.579 90.4073 131.591 90.6973C131.604 91.0122 131.617 91.3397 131.617 91.9707C131.617 92.6204 131.596 92.9601 131.574 93.2812C131.556 93.5618 131.537 93.8255 131.537 94.3809C131.537 94.9606 131.547 95.2408 131.557 95.5303C131.567 95.8406 131.577 96.1604 131.577 96.79C131.577 97.3641 131.59 97.6424 131.602 97.9307C131.615 98.2444 131.628 98.5692 131.628 99.2002C131.628 99.8747 131.592 100.236 131.56 100.568C131.533 100.841 131.508 101.085 131.508 101.61V106.44C131.508 107.033 131.513 107.326 131.518 107.623C131.523 107.931 131.527 108.243 131.527 108.86C131.527 109.907 131.253 111.043 130.835 112.065C130.41 113.105 129.789 114.102 129.055 114.837C128.682 115.21 128.523 115.4 128.348 115.609C128.138 115.86 127.911 116.13 127.444 116.597C126.987 117.054 126.73 117.278 126.488 117.487C126.28 117.668 126.086 117.835 125.704 118.217C125.309 118.612 125.129 118.811 124.938 119.021C124.729 119.251 124.51 119.492 124.064 119.938C123.632 120.37 123.407 120.584 123.189 120.792C122.983 120.99 122.779 121.188 122.371 121.601C121.96 122.016 121.763 122.224 121.559 122.437C121.347 122.657 121.133 122.877 120.704 123.307C120.265 123.746 120.032 123.963 119.807 124.173C119.597 124.368 119.395 124.556 118.994 124.957C118.562 125.39 118.336 125.604 118.116 125.814C117.907 126.014 117.701 126.21 117.294 126.617C116.893 127.018 116.705 127.22 116.51 127.43C116.3 127.655 116.083 127.888 115.645 128.327C115.206 128.766 114.973 128.983 114.747 129.193C114.538 129.388 114.336 129.576 113.935 129.978C113.502 130.41 113.276 130.625 113.056 130.835C112.846 131.035 112.641 131.23 112.234 131.637C111.846 132.025 111.672 132.222 111.486 132.431C111.277 132.667 111.056 132.916 110.604 133.367C110.181 133.79 109.966 134.003 109.752 134.214C109.541 134.423 109.331 134.63 108.914 135.047C108.507 135.454 108.311 135.659 108.111 135.869C107.901 136.089 107.686 136.315 107.254 136.747C106.828 137.173 106.611 137.386 106.396 137.596C106.186 137.801 105.978 138.003 105.564 138.417C105.129 138.853 104.898 139.07 104.674 139.281C104.463 139.48 104.259 139.673 103.854 140.077C103.456 140.475 103.27 140.677 103.076 140.888C102.865 141.117 102.646 141.355 102.204 141.797C101.768 142.233 101.538 142.45 101.314 142.661C101.103 142.86 100.898 143.053 100.494 143.457C100.046 143.905 99.8005 144.126 99.5693 144.335C99.3619 144.523 99.1635 144.704 98.7715 145.101C98.3766 145.5 98.1951 145.702 98.0049 145.913C97.7952 146.146 97.5757 146.39 97.1309 146.84L97.124 146.847C96.3303 147.64 95.2223 148.181 94.3027 148.558C93.4407 148.91 92.2517 149.36 91.1074 149.36C90.4778 149.36 90.1498 149.341 89.8398 149.322C89.5666 149.306 89.3122 149.29 88.7773 149.29C88.2623 149.29 88.0233 149.311 87.7578 149.334C87.44 149.361 87.0962 149.391 86.4473 149.391C85.8369 149.391 85.5236 149.38 85.2217 149.369C84.941 149.36 84.6711 149.351 84.1172 149.351H81.7871C81.156 149.351 80.8227 149.328 80.5098 149.307C80.2379 149.288 79.9862 149.271 79.458 149.271C78.923 149.271 78.6652 149.286 78.3906 149.303C78.0804 149.321 77.7523 149.341 77.1279 149.341C76.5608 149.341 76.2802 149.346 75.9941 149.351C75.6977 149.356 75.3951 149.36 74.7979 149.36C74.1684 149.36 73.8401 149.341 73.5303 149.322C73.2571 149.306 73.0025 149.29 72.4678 149.29C71.9263 149.29 71.6638 149.304 71.3867 149.318C71.0789 149.334 70.7559 149.351 70.1377 149.351C69.5837 149.351 69.3113 149.359 69.0293 149.369C68.7265 149.379 68.4132 149.391 67.8076 149.391C67.1377 149.391 66.774 149.348 66.4463 149.309C66.1891 149.278 65.9675 149.25 65.4775 149.25C64.9425 149.25 64.6854 149.266 64.4092 149.282C64.0973 149.301 63.767 149.32 63.1377 149.32C62.5783 149.32 62.3054 149.33 62.0234 149.34C61.7206 149.35 61.4079 149.36 60.7979 149.36C59.7068 149.36 58.5359 149.011 57.5732 148.617C56.4802 148.17 55.5182 147.494 54.8213 146.797C54.3954 146.371 54.1797 146.163 53.9609 145.952C53.7347 145.734 53.5046 145.511 53.0605 145.067C52.6559 144.663 52.4514 144.479 52.2314 144.282C51.9853 144.062 51.7288 143.831 51.2637 143.36C50.8378 142.93 50.6258 142.722 50.4111 142.514C50.189 142.298 49.9595 142.076 49.5107 141.627C49.044 141.16 48.8158 140.908 48.5986 140.667C48.4029 140.45 48.2181 140.244 47.8105 139.837C47.3909 139.417 47.1786 139.216 46.96 139.01C46.7287 138.791 46.4911 138.567 46.041 138.117C45.5969 137.673 45.3735 137.442 45.1523 137.212C44.9383 136.989 44.7297 136.772 44.3037 136.341C43.8687 135.901 43.6521 135.68 43.4346 135.46C43.2171 135.24 42.9994 135.02 42.5645 134.58C42.1116 134.122 41.8875 133.881 41.6719 133.648C41.4704 133.432 41.2725 133.219 40.8506 132.797C40.5272 132.474 39.9113 132.104 39.0977 131.762C38.4313 131.482 37.7201 131.36 37.1475 131.36C36.4778 131.36 36.1267 131.335 35.7969 131.311C35.5118 131.29 35.2476 131.271 34.6875 131.271C34.0543 131.271 33.732 131.263 33.417 131.255C33.1171 131.248 32.8241 131.24 32.2275 131.24C31.6734 131.24 31.4137 131.262 31.1309 131.285C30.7988 131.312 30.4431 131.341 29.7676 131.341C29.1647 131.341 28.8663 131.346 28.5625 131.351C28.2489 131.356 27.9294 131.36 27.2979 131.36C26.6476 131.36 26.3153 131.347 25.9951 131.334C25.7004 131.322 25.4166 131.311 24.8271 131.311C23.785 131.31 22.6308 131.038 21.6025 130.617C20.6015 130.208 19.548 129.604 18.791 128.847C18.3684 128.424 18.1552 128.222 17.9365 128.013C17.7076 127.794 17.4725 127.569 17.0205 127.117C16.5294 126.626 16.2948 126.342 16.0791 126.079C15.9015 125.863 15.7434 125.67 15.3604 125.287C14.9225 124.849 14.703 124.626 14.4844 124.405C14.2681 124.187 14.053 123.969 13.6211 123.537C13.2287 123.145 13.0296 122.976 12.8115 122.79C12.5563 122.573 12.2827 122.339 11.8008 121.857C11.3638 121.42 11.1461 121.205 10.9287 120.99C10.7087 120.773 10.4888 120.555 10.0508 120.117C9.58234 119.649 9.35172 119.387 9.13184 119.137C8.93706 118.915 8.75626 118.707 8.35449 118.301C7.43391 117.37 7.51638 117.432 6.62109 116.537C6.18411 116.1 5.96581 115.885 5.74707 115.669C5.52584 115.45 5.30329 115.23 4.86035 114.787C4.17203 114.099 3.48375 113.14 3.0332 112.052C2.58915 110.979 2.37793 109.813 2.37793 108.82C2.37793 108.239 2.3706 107.954 2.36328 107.66C2.35558 107.351 2.34766 107.034 2.34766 106.41V99.1807C2.34766 98.6067 2.33617 98.3309 2.32422 98.0439C2.31118 97.731 2.29785 97.4064 2.29785 96.7705C2.29785 96.1594 2.30021 95.8543 2.30273 95.5518C2.30522 95.2544 2.30762 94.9591 2.30762 94.3604C2.30762 93.7492 2.30998 93.4442 2.3125 93.1416C2.31498 92.8442 2.31738 92.549 2.31738 91.9502C2.31739 91.2958 2.33995 90.9564 2.36133 90.6357C2.37995 90.3564 2.39746 90.0954 2.39746 89.54C2.39745 88.9913 2.37818 88.7356 2.35742 88.459C2.33318 88.1358 2.30763 87.7914 2.30762 87.1309C2.30762 86.4638 2.33614 86.1138 2.36328 85.7881C2.38612 85.514 2.40722 85.2632 2.40723 84.7207C2.40723 84.1343 2.39987 83.8488 2.39258 83.5566C2.38489 83.2489 2.37793 82.934 2.37793 82.3105V79.9004C2.37793 79.314 2.37059 79.0285 2.36328 78.7363C2.35558 78.4286 2.34766 78.1136 2.34766 77.4902C2.34766 76.8667 2.35557 76.5518 2.36328 76.2451C2.37059 75.9542 2.37793 75.6717 2.37793 75.0908V72.6904C2.37793 72.1281 2.36383 71.8577 2.34961 71.5732C2.33384 71.2579 2.31738 70.9274 2.31738 70.29C2.31739 69.6466 2.33696 69.3118 2.35547 68.9932C2.37191 68.7102 2.38769 68.4421 2.3877 67.8809C2.3877 67.3255 2.37019 67.0644 2.35156 66.7852C2.33018 66.4645 2.30762 66.1251 2.30762 65.4707C2.30762 64.8347 2.32095 64.5093 2.33398 64.1963C2.34593 63.9095 2.35742 63.6341 2.35742 63.0605C2.35742 62.4371 2.36535 62.1222 2.37305 61.8145C2.38036 61.5223 2.3877 61.2368 2.3877 60.6504C2.3877 60.0886 2.37192 59.8203 2.35547 59.5371C2.33696 59.2185 2.31738 58.8838 2.31738 58.2402C2.31738 57.6528 2.31254 57.3626 2.30762 57.0664C2.30253 56.76 2.29785 56.4474 2.29785 55.8301C2.29786 55.1449 2.33601 54.7786 2.37207 54.4443C2.40112 54.1751 2.42773 53.9386 2.42773 53.4199C2.42772 52.8701 2.41028 52.6094 2.3916 52.3281C2.37024 52.0064 2.34766 51.6647 2.34766 51.0107C2.34766 50.3625 2.36719 50.0254 2.38574 49.7061C2.40223 49.4223 2.41797 49.1568 2.41797 48.6006C2.41797 48.0132 2.41311 47.7229 2.4082 47.4268C2.40313 47.1203 2.39746 46.8077 2.39746 46.1904C2.39746 45.5978 2.39261 45.3048 2.3877 45.0088C2.38261 44.7026 2.37793 44.3926 2.37793 43.7803C2.37793 43.2365 2.35775 42.9783 2.33691 42.6982C2.31275 42.3735 2.28711 42.026 2.28711 41.3701C2.28711 40.764 2.29045 40.459 2.29297 40.1553C2.29545 39.8567 2.29785 39.5587 2.29785 38.96C2.29786 38.3242 2.31118 37.9995 2.32422 37.6865C2.33617 37.3997 2.34765 37.1244 2.34766 36.5508V34.1406C2.34766 33.572 2.33619 33.2938 2.32422 33.0039C2.31121 32.689 2.29785 32.3615 2.29785 31.7305C2.29785 31.0994 2.31121 30.772 2.32422 30.457C2.3362 30.1671 2.34766 29.8891 2.34766 29.3203C2.34766 28.7393 2.3404 28.4529 2.33203 28.1621C2.32324 27.8566 2.31277 27.537 2.30762 26.9141C2.29778 25.7242 2.30723 25.6607 2.30762 24.5508H2.29785C2.29785 23.5241 2.55259 22.3516 2.98047 21.3057C3.40885 20.2585 4.0535 19.2378 4.80176 18.5029C5.2449 18.06 5.4805 17.8378 5.70996 17.6211C5.92859 17.4146 6.14092 17.2136 6.56055 16.7939C7.01069 16.3438 7.24819 16.1188 7.47949 15.9004C7.69811 15.6939 7.91132 15.493 8.33105 15.0732C8.78409 14.6202 9.02409 14.396 9.25781 14.1777C9.47607 13.974 9.68863 13.7752 10.1104 13.3535C10.505 12.9589 10.6724 12.7602 10.8535 12.5449C11.069 12.2888 11.3005 12.014 11.7812 11.5332C12.231 11.0834 12.468 10.859 12.6992 10.6406C12.9179 10.4341 13.1309 10.2333 13.5508 9.81348C13.9948 9.36942 14.2259 9.14693 14.4561 8.92578C14.6788 8.71171 14.8963 8.50313 15.3271 8.07715C16.3097 7.10573 16.1832 7.27144 17.084 6.36035C17.5042 5.93531 17.7058 5.71984 17.915 5.49707C18.136 5.26184 18.3604 5.0234 18.8105 4.57324C19.5245 3.85936 20.5123 3.20168 21.583 2.76367C22.5457 2.36985 23.7164 2.02051 24.8076 2.02051C25.459 2.02051 25.7957 2.03701 26.1182 2.05273C26.4106 2.067 26.6893 2.08008 27.2676 2.08008C27.9066 2.08008 28.2334 2.09124 28.5508 2.10156C28.8483 2.11124 29.1369 2.12012 29.7275 2.12012C30.3241 2.12012 30.6171 2.11278 30.917 2.10547C31.232 2.09779 31.5543 2.09082 32.1875 2.09082C32.7963 2.09082 33.099 2.08744 33.4053 2.08496C33.7165 2.08244 34.0314 2.08008 34.6572 2.08008C35.2891 2.08008 35.6065 2.08574 35.9189 2.09082C36.2213 2.09574 36.52 2.10059 37.1279 2.10059C38.1627 2.10066 39.3103 2.35954 40.3574 2.7998C41.2701 3.18356 42.384 3.7338 43.1738 4.52344C43.6178 4.96738 43.84 5.19765 44.0586 5.42383C44.27 5.64255 44.4785 5.85743 44.9043 6.2832C45.3515 6.73036 45.5741 6.96377 45.7939 7.19531C46.0043 7.4168 46.2077 7.63253 46.6309 8.06055C47.0865 8.52139 47.3098 8.7657 47.5215 8.99512C47.7166 9.20659 47.9086 9.4133 48.3271 9.82715C48.7369 10.2322 48.9451 10.4145 49.166 10.6104C49.4131 10.8294 49.6685 11.0582 50.1338 11.5234C50.5597 11.9493 50.7754 12.1578 50.9941 12.3691C51.2203 12.5877 51.4506 12.8099 51.8945 13.2539C52.7488 14.1081 52.7792 14.1286 53.6514 15.0107C54.116 15.4807 54.3436 15.7381 54.5586 15.9805C54.7505 16.1968 54.935 16.4037 55.3447 16.8135C55.7966 17.2654 56.0206 17.5006 56.2393 17.7295C56.4483 17.9483 56.6514 18.1612 57.0742 18.584C57.4233 18.933 58.0552 19.3378 58.8027 19.6436C59.4518 19.909 60.1836 20.0205 60.7871 20.0205C61.4203 20.0205 61.7427 20.0285 62.0576 20.0361C62.3575 20.0434 62.6506 20.0508 63.2471 20.0508C63.8739 20.0508 64.1915 20.0555 64.5039 20.0605C64.8064 20.0655 65.1052 20.0703 65.708 20.0703C66.2801 20.0703 66.5538 20.0546 66.8438 20.0381C67.1687 20.0196 67.5104 20 68.168 20C68.8494 20 69.2098 20.0317 69.5449 20.0615C69.8262 20.0866 70.084 20.1104 70.6377 20.1104C71.2635 20.1104 71.5758 20.1127 71.8857 20.1152C72.1907 20.1177 72.4936 20.1201 73.1074 20.1201C73.5413 20.1201 74.2146 19.9343 75.0732 19.583C75.7932 19.2884 76.3955 18.8887 76.7607 18.5234C77.2166 18.0676 77.4611 17.8416 77.6943 17.625C77.91 17.4247 78.1203 17.2292 78.5342 16.8105C78.9452 16.3948 79.1344 16.184 79.335 15.9629C79.5544 15.721 79.7818 15.473 80.2412 15.0137C80.6822 14.5727 80.9072 14.3524 81.1309 14.1338C81.3494 13.9202 81.5672 13.7072 82.001 13.2734C82.4711 12.8034 82.7263 12.5754 82.9697 12.3584C83.1862 12.1654 83.3911 11.9829 83.8008 11.5732C84.2346 11.1395 84.4448 10.9244 84.6572 10.707C84.8748 10.4844 85.095 10.2595 85.541 9.81348C85.9537 9.40075 86.1402 9.19357 86.333 8.97852C86.5471 8.73977 86.7725 8.48767 87.2344 8.02051C87.7024 7.54713 87.9632 7.31429 88.2129 7.09277C88.4343 6.89635 88.6392 6.71526 89.041 6.31348C89.4423 5.9122 89.6215 5.70786 89.8115 5.49121C90.0266 5.24598 90.2568 4.98393 90.7246 4.51074L90.7305 4.50391C91.53 3.70442 92.6689 3.16292 93.5732 2.79297C94.583 2.37993 95.7202 2.09085 96.7773 2.09082C97.3373 2.09082 97.6017 2.07066 97.8867 2.0498C98.2165 2.02568 98.5677 2.00001 99.2373 2C99.8706 2 100.193 2.00794 100.508 2.01562C100.808 2.02294 101.101 2.03027 101.697 2.03027C102.331 2.03027 102.653 2.03822 102.968 2.0459C103.268 2.05321 103.561 2.06054 104.157 2.06055C104.809 2.06055 105.145 2.07706 105.469 2.09277C105.762 2.10704 106.044 2.12012 106.628 2.12012C107.181 2.12011 107.436 2.09729 107.716 2.07227C108.051 2.04231 108.411 2.01074 109.098 2.01074C110.226 2.01077 111.405 2.42591 112.303 2.79297C113.306 3.20358 114.339 3.79812 115.095 4.55371C115.508 4.96726 115.717 5.16106 115.935 5.36035C116.169 5.57592 116.417 5.80114 116.878 6.25684C117.33 6.70376 117.555 6.93666 117.776 7.16699C117.988 7.38737 118.191 7.60047 118.614 8.02344C119.064 8.47349 119.288 8.71112 119.507 8.94238C119.713 9.16107 119.914 9.3741 120.334 9.79395C120.76 10.2198 120.976 10.4273 121.194 10.6387C121.421 10.8573 121.651 11.0794 122.095 11.5234C122.517 11.946 122.73 12.1495 122.948 12.3584C123.177 12.5771 123.412 12.8019 123.864 13.2539C124.742 14.1316 124.722 14.1018 125.617 14.9873C126.097 15.4612 126.332 15.7294 126.553 15.9844C126.745 16.2056 126.919 16.408 127.314 16.8037C127.719 17.2083 127.927 17.3927 128.146 17.5889C128.392 17.8077 128.649 18.0387 129.114 18.5039C129.843 19.2327 130.481 20.2422 130.916 21.2646C131.377 22.3485 131.588 23.5294 131.588 24.5205Z" fill="#1E1E1E"/>
<path d="M88.7427 136.369L85.1028 136.259L78.8027 129.959L80.2128 128.549L85.9327 134.269L87.9128 134.309L90.2228 131.999L90.1827 130.019L84.4628 124.299L85.8727 122.889L92.1727 129.189L92.2828 132.829L88.7527 136.359L88.7427 136.369Z" fill="#1E1E1E"/>
<path d="M95.8127 129.299L87.6428 121.129L89.0527 119.719L97.2228 127.889L95.8127 129.299Z" fill="#1E1E1E"/>
<path d="M98.062 126.479L92.752 115.659L94.542 114.809L99.852 125.629L98.062 126.479Z" fill="#1E1E1E"/>
<path d="M105.313 119.798L101.673 119.688L95.373 113.388L96.7831 111.978L102.503 117.698L104.483 117.738L106.793 115.428L106.753 113.448L101.033 107.728L102.443 106.318L108.743 112.618L108.853 116.258L105.323 119.788L105.313 119.798Z" fill="#1E1E1E"/>
<path d="M112.972 112.499L111.022 112.909L109.632 107.179L104.072 105.839L104.522 103.879L110.112 105.259L110.462 104.909L109.082 99.3192L111.042 98.8691L112.382 104.429L118.112 105.819L117.702 107.769L111.902 106.359L111.552 106.709L112.962 112.509L112.972 112.499Z" fill="#1E1E1E"/>
</svg>
