<svg width="126" height="150" viewBox="0 0 126 150" fill="none" xmlns="http://www.w3.org/2000/svg">
<path d="M42.3319 1.77039C41.5519 1.77039 40.6319 1.96038 39.7519 2.33038C38.8719 2.70038 38.0419 3.16039 37.4819 3.71039C36.6419 4.55039 36.6719 4.58038 35.8319 5.42038C34.9919 6.26038 34.9919 6.26039 34.1419 7.10039C33.2919 7.94039 33.3119 7.95039 32.4719 8.79039C31.6319 9.63039 31.6319 9.64038 30.7919 10.4804C29.9519 11.3204 29.8619 11.2304 29.0219 12.0804C28.1819 12.9304 28.2619 13.0004 27.4219 13.8404C26.5819 14.6804 26.5919 14.6904 25.7419 15.5304C24.8919 16.3704 24.8319 16.3004 23.9919 17.1404C23.1519 17.9804 23.2119 18.0504 22.3719 18.8904C21.5319 19.7304 21.4919 19.6904 20.6519 20.5304C19.8119 21.3704 19.8119 21.3704 18.9719 22.2104C18.1319 23.0504 18.0819 23.0104 17.2419 23.8504C16.4019 24.6904 16.4819 24.7704 15.6419 25.6104C14.8019 26.4504 14.7919 26.4504 13.9519 27.2904C13.1119 28.1304 13.0819 28.1104 12.2419 28.9504C11.4019 29.7904 11.4219 29.8204 10.5819 30.6604C9.74188 31.5004 9.6619 31.4304 8.8219 32.2704C7.9819 33.1104 8.04187 33.1804 7.20187 34.0304C6.36187 34.8804 6.33187 34.8504 5.48187 35.6904C4.93187 36.2404 4.5019 37.0904 4.1319 37.9704C3.7619 38.8504 3.43188 39.7604 3.43188 40.5304C3.43188 41.7404 3.47189 41.7404 3.47189 42.9604C3.47189 44.1804 3.44189 44.1704 3.44189 45.3904C3.44189 46.6104 3.49188 46.6004 3.49188 47.8204C3.49188 49.0404 3.42188 49.0304 3.42188 50.2504C3.42188 51.4704 3.51187 51.4604 3.51187 52.6804C3.51187 53.9004 3.45187 53.8904 3.45187 55.1104C3.45187 56.3304 3.51187 56.3204 3.51187 57.5404C3.51187 58.7604 3.43188 58.7504 3.43188 59.9704C3.43188 61.1904 3.49188 61.1804 3.49188 62.4004C3.49188 63.6204 3.5419 63.6104 3.5419 64.8304C3.5419 66.0504 3.45187 66.0404 3.45187 67.2504C3.45187 68.4604 3.55188 68.4604 3.55188 69.6804C3.55188 70.9004 3.52188 70.8904 3.52188 72.1104C3.52188 73.3304 3.46188 73.3204 3.46188 74.5404C3.46188 75.7604 3.46188 75.7504 3.46188 76.9704C3.46188 78.1904 3.46188 78.1804 3.46188 79.4004C3.46188 80.6204 3.49188 80.6204 3.49188 81.8304C3.49188 83.0404 3.56189 83.0404 3.56189 84.2604C3.56189 85.4804 3.45187 85.4804 3.45187 86.6904C3.45187 87.9004 3.53189 87.9004 3.53189 89.1204C3.53189 90.3404 3.53189 90.3404 3.53189 91.5504C3.53189 92.7604 3.46188 92.7704 3.46188 93.9804C3.46188 95.1904 3.46188 95.2004 3.46188 96.4104C3.46188 97.6204 3.50189 97.6304 3.50189 98.8404C3.50189 100.05 3.52188 100.05 3.52188 101.27C3.52188 102.49 3.49188 102.49 3.49188 103.7C3.49188 104.91 3.55188 104.92 3.55188 106.13C3.55188 107.34 3.5419 107.35 3.5419 108.56C3.5419 109.77 3.51187 109.78 3.51187 110.99C3.51187 112.2 3.43188 112.21 3.43188 113.43C3.43188 114.65 3.43188 114.65 3.43188 115.87C3.43188 116.65 3.70189 117.59 4.06189 118.47C4.42189 119.35 4.93187 120.17 5.48187 120.72C6.30187 121.54 6.29188 121.54 7.11188 122.36C7.93188 123.18 7.99189 123.13 8.81189 123.95C9.63189 124.77 9.54188 124.86 10.3619 125.68C11.1819 126.5 11.2419 126.45 12.0619 127.27C12.8819 128.09 12.8719 128.1 13.6919 128.92C14.5119 129.74 14.5519 129.7 15.3719 130.51C16.1919 131.32 16.1419 131.39 16.9619 132.21C17.7819 133.03 17.8219 132.99 18.6419 133.81C19.4619 134.63 19.3919 134.71 20.2119 135.53C21.0319 136.35 21.1119 136.27 21.9319 137.09C22.7519 137.91 22.6719 138 23.4919 138.82C24.3119 139.64 24.4019 139.55 25.2319 140.38C26.0619 141.21 26.0019 141.25 26.8319 142.08C27.6619 142.91 27.6819 142.87 28.5119 143.7C29.0619 144.25 29.8319 144.84 30.7119 145.2C31.5919 145.56 32.5519 145.73 33.3319 145.73C34.5319 145.73 34.5319 145.68 35.7319 145.68C36.9319 145.68 36.9319 145.67 38.1319 145.67C39.3319 145.67 39.3319 145.68 40.5319 145.68C41.7319 145.68 41.7319 145.78 42.9219 145.78C44.1119 145.78 44.1219 145.78 45.3219 145.78C46.5219 145.78 46.5219 145.67 47.7219 145.67C48.9219 145.67 48.9219 145.77 50.1219 145.77C51.3219 145.77 51.3219 145.68 52.5219 145.68C53.7219 145.68 53.7219 145.71 54.9219 145.71C56.1219 145.71 56.1219 145.73 57.3219 145.73C58.5219 145.73 58.5219 145.75 59.7219 145.75C60.9219 145.75 60.9219 145.67 62.1219 145.67C63.3219 145.67 63.3219 145.67 64.5219 145.67C65.7219 145.67 65.7219 145.77 66.9219 145.77C68.1219 145.77 68.1219 145.7 69.3219 145.7C70.5219 145.7 70.5219 145.76 71.7219 145.76C72.9219 145.76 72.9219 145.68 74.1219 145.68C75.3219 145.68 75.3219 145.67 76.5219 145.67C77.7219 145.67 77.7219 145.67 78.9219 145.67C80.1219 145.67 80.1219 145.77 81.3219 145.77C82.5219 145.77 82.5219 145.66 83.7219 145.66C84.9219 145.66 84.9219 145.71 86.1219 145.71C87.3219 145.71 87.3219 145.68 88.5319 145.68C89.7419 145.68 89.7319 145.64 90.9419 145.64C91.7219 145.64 92.6919 145.56 93.5819 145.21C94.4719 144.86 95.3319 144.36 95.9019 143.84C96.8119 143.01 96.7819 142.98 97.6919 142.16C98.6019 141.34 98.6019 141.33 99.5119 140.51C100.422 139.69 100.382 139.64 101.292 138.81C102.202 137.98 102.272 138.06 103.182 137.23C104.092 136.4 104.092 136.4 105.002 135.58C105.912 134.76 105.842 134.68 106.742 133.85C107.642 133.02 107.652 133.02 108.562 132.19C109.472 131.36 109.492 131.39 110.402 130.56C111.312 129.73 111.322 129.74 112.232 128.91C113.142 128.08 113.122 128.06 114.032 127.23C114.942 126.4 114.992 126.46 115.912 125.63C116.832 124.8 116.802 124.78 117.722 123.95C118.642 123.12 118.632 123.12 119.552 122.29C120.472 121.46 120.492 121.49 121.402 120.66C121.982 120.14 122.512 119.33 122.892 118.47C123.272 117.61 123.512 116.67 123.512 115.89C123.512 114.7 123.512 114.7 123.512 113.51C123.512 112.32 123.452 112.32 123.452 111.13C123.452 109.94 123.502 109.94 123.502 108.75C123.502 107.56 123.412 107.56 123.412 106.37C123.412 105.18 123.532 105.18 123.532 103.99C123.532 102.8 123.402 102.8 123.402 101.61C123.402 100.42 123.402 100.42 123.402 99.2304C123.402 98.0404 123.402 98.0404 123.402 96.8504C123.402 95.6604 123.522 95.6604 123.522 94.4704C123.522 93.2804 123.442 93.2804 123.442 92.0904C123.442 90.9004 123.442 90.9004 123.442 89.7104C123.442 88.5204 123.512 88.5204 123.512 87.3304C123.512 86.1404 123.452 86.1404 123.452 84.9404C123.452 83.7404 123.482 83.7504 123.482 82.5504C123.482 81.7704 123.252 80.8304 122.892 79.9504C122.532 79.0704 122.022 78.2504 121.472 77.7004C120.602 76.8304 120.552 76.8704 119.682 76.0004C118.812 75.1304 118.812 75.1304 117.942 74.2504C117.072 73.3704 117.102 73.3504 116.222 72.4704C115.342 71.5904 115.312 71.6304 114.442 70.7604C113.572 69.8904 113.572 69.8804 112.702 69.0104C111.832 68.1404 111.822 68.1404 110.952 67.2604C110.082 66.3804 110.082 66.3804 109.202 65.5004C108.322 64.6204 108.372 64.5704 107.502 63.7004C106.952 63.1504 106.082 62.7404 105.202 62.3704C104.322 62.0004 103.422 61.6804 102.642 61.6804C101.282 61.6804 101.282 61.7904 99.9119 61.7904C98.5419 61.7904 98.5519 61.7804 97.1819 61.7804C95.8119 61.7804 95.8219 61.7104 94.4519 61.7104C93.6719 61.7104 92.9619 62.0304 92.4519 62.5504C91.9419 63.0704 91.5719 63.7704 91.5719 64.5504C91.5719 65.7704 91.6619 65.7704 91.6619 66.9804C91.6619 68.1904 91.5619 68.2004 91.5619 69.4104C91.5619 70.6204 91.5519 70.6304 91.5519 71.8404C91.5519 73.0504 91.6719 73.0504 91.6719 74.2704C91.6719 75.4904 91.6319 75.4904 91.6319 76.7004C91.6319 77.9104 91.5719 77.9204 91.5719 79.1304C91.5719 80.3404 91.6519 80.3504 91.6519 81.5604C91.6519 82.7704 91.5619 82.7804 91.5619 83.9904C91.5619 85.2004 91.6519 85.2104 91.6519 86.4304C91.6519 87.6504 91.6319 87.6504 91.6319 88.8704C91.6319 89.6504 91.3319 90.4004 90.8219 90.9104C90.3119 91.4204 89.5619 91.7004 88.7819 91.7004C87.6119 91.7004 87.6119 91.6704 86.4319 91.6704C85.2519 91.6704 85.2519 91.7404 84.0819 91.7404C82.9119 91.7404 82.9019 91.6504 81.7319 91.6504C80.5619 91.6504 80.5519 91.6904 79.3819 91.6904C78.2119 91.6904 78.2019 91.7504 77.0319 91.7504C75.8619 91.7504 75.8519 91.7504 74.6719 91.7504C73.4919 91.7504 73.4919 91.6404 72.3119 91.6404C71.5319 91.6404 70.8019 91.4104 70.2819 90.9004C69.7619 90.3904 69.5119 89.6504 69.5119 88.8704C69.5119 87.6004 69.5219 87.6004 69.5219 86.3304C69.5219 85.0604 69.4819 85.0604 69.4819 83.8004C69.4819 82.5404 69.4619 82.5304 69.4619 81.2604C69.4619 79.9904 69.4919 79.9904 69.4919 78.7204C69.4919 77.4504 69.4519 77.4504 69.4519 76.1804C69.4519 74.9104 69.4519 74.9104 69.4519 73.6404C69.4519 72.3704 69.5019 72.3704 69.5019 71.0904C69.5019 69.8104 69.5119 69.8204 69.5119 68.5404C69.5119 67.7604 69.7519 66.8504 70.1219 65.9704C70.4919 65.0904 70.9219 64.2404 71.4719 63.6904C72.0519 63.1104 72.6319 62.5271 73.2119 61.9404C74.0819 61.0704 74.0919 61.0804 74.9619 60.2004C75.8319 59.3204 75.8019 59.3004 76.6819 58.4204C77.5619 57.5404 77.5419 57.5404 78.4219 56.6604C79.3019 55.7804 79.3019 55.8004 80.1819 54.9204C81.0619 54.0404 81.0919 54.0804 81.9619 53.2004C82.8319 52.3204 82.8419 52.3304 83.7219 51.4504C84.6019 50.5704 84.5619 50.5304 85.4319 49.6604C85.9819 49.1104 86.8319 48.6204 87.7119 48.2504C88.5919 47.8804 89.5319 47.6904 90.3119 47.6904C91.4919 47.6904 91.4919 47.7304 92.6619 47.7304C93.8319 47.7304 93.8419 47.7504 95.0119 47.7504C96.1819 47.7504 96.1919 47.7504 97.3619 47.7504C98.5319 47.7504 98.5419 47.6404 99.7119 47.6404C100.882 47.6404 100.882 47.6404 102.062 47.6404C103.242 47.6404 103.242 47.7004 104.412 47.7004C105.582 47.7004 105.592 47.7104 106.762 47.7104C107.932 47.7104 107.942 47.7504 109.112 47.7504C110.282 47.7504 110.292 47.7604 111.462 47.7604C112.632 47.7604 112.642 47.7004 113.822 47.7004C115.002 47.7004 115.002 47.7604 116.182 47.7604C116.962 47.7604 117.722 47.4304 118.232 46.9204C118.742 46.4104 119.012 45.6504 119.012 44.8704C119.012 43.6404 118.982 43.6404 118.992 42.4104C119.002 41.1804 119.052 41.1804 119.052 39.9504C119.052 38.7204 118.972 38.7204 118.972 37.4904C118.972 36.2604 119.042 36.2604 119.052 35.0304C119.062 33.8004 118.962 33.8004 118.962 32.5704C118.962 31.3404 118.982 31.3404 118.992 30.1104C118.992 29.3304 118.832 28.3904 118.472 27.5104C118.112 26.6304 117.632 25.7804 117.082 25.2304C116.252 24.4004 116.202 24.4504 115.372 23.6304C114.542 22.8104 114.542 22.8004 113.712 21.9704C112.882 21.1404 112.942 21.0804 112.112 20.2504C111.282 19.4204 111.222 19.4904 110.392 18.6604C109.562 17.8304 109.622 17.7704 108.802 16.9504C107.982 16.1304 107.892 16.2004 107.062 15.3704C106.232 14.5404 106.232 14.5404 105.402 13.7204C104.572 12.9004 104.632 12.8304 103.802 12.0004C102.972 11.1704 102.912 11.2304 102.082 10.4004C101.252 9.57039 101.322 9.50039 100.492 8.68039C99.6619 7.86039 99.6019 7.91038 98.7719 7.08038C97.9419 6.25038 97.9419 6.24039 97.1119 5.41039C96.2819 4.58039 96.2719 4.58038 95.4419 3.75038C94.8919 3.20038 94.0819 2.71039 93.2019 2.35039C92.3219 1.99039 91.4119 1.76039 90.6319 1.76039C89.8252 1.76039 89.0219 1.76039 88.2219 1.76039C87.0119 1.76039 87.0119 1.70038 85.8119 1.70038C84.6119 1.70038 84.6019 1.69038 83.4019 1.69038C82.2019 1.69038 82.1919 1.78038 80.9919 1.78038C79.7919 1.78038 79.7819 1.68039 78.5819 1.68039C77.3819 1.68039 77.3719 1.65039 76.1619 1.65039C74.9519 1.65039 74.9519 1.69038 73.7519 1.69038C72.5519 1.69038 72.5419 1.74039 71.3319 1.74039C70.1219 1.74039 70.1219 1.77039 68.9119 1.77039C67.7019 1.77039 67.7019 1.70038 66.4919 1.70038C65.2819 1.70038 65.2819 1.74039 64.0719 1.74039C62.8619 1.74039 62.8619 1.78038 61.6519 1.78038C60.4419 1.78038 60.4419 1.78038 59.2319 1.78038C58.0219 1.78038 58.0219 1.70038 56.8219 1.70038C55.6219 1.70038 55.6119 1.66039 54.4019 1.66039C53.1919 1.66039 53.1919 1.73038 51.9819 1.73038C50.7719 1.73038 50.7719 1.73038 49.5619 1.73038C48.3519 1.73038 48.3519 1.71039 47.1419 1.71039C45.9319 1.71039 45.9319 1.75039 44.7219 1.77039C43.5119 1.79039 43.5119 1.77039 42.3019 1.77039H42.3319Z" fill="#009E92"/>
<path d="M67.8623 88.8701C67.8623 88.2294 67.8647 87.9068 67.8672 87.5869C67.8697 87.272 67.8721 86.9589 67.8721 86.3301C67.8721 85.7192 67.8622 85.4204 67.8525 85.1143C67.8422 84.7885 67.832 84.4543 67.832 83.8008C67.832 83.1826 67.8272 82.8736 67.8223 82.5596C67.8172 82.2362 67.8115 81.907 67.8115 81.2607C67.8115 80.6081 67.8195 80.2759 67.8271 79.9512C67.8345 79.6411 67.8418 79.3377 67.8418 78.7207C67.8418 78.1093 67.832 77.8098 67.8223 77.502C67.812 77.1749 67.8018 76.8388 67.8018 76.1807V73.6406C67.8018 72.9763 67.8152 72.6352 67.8281 72.3047C67.8401 71.9983 67.8516 71.7013 67.8516 71.0908C67.8516 70.4452 67.8539 70.1226 67.8564 69.8027C67.8589 69.4877 67.8623 69.1742 67.8623 68.54C67.8624 67.4587 68.1844 66.321 68.6006 65.3311C68.9763 64.4375 69.5079 63.3203 70.3047 62.5234C70.8824 61.9457 71.4603 61.3647 72.0381 60.7803L72.0449 60.7734C72.9662 59.8522 72.9026 59.9357 73.7881 59.04C74.2082 58.6151 74.4073 58.4022 74.6152 58.1807C74.8352 57.9464 75.0607 57.7089 75.5156 57.2539C75.9495 56.82 76.1596 56.6041 76.3721 56.3867C76.5894 56.1643 76.8093 55.9397 77.2549 55.4941C77.7008 55.0482 77.9259 54.8278 78.1484 54.6104C78.3659 54.3979 78.5817 54.1879 79.0156 53.7539C79.4765 53.293 79.7206 53.0664 79.9531 52.8506C80.1674 52.6517 80.3744 52.4585 80.7881 52.04C81.6427 51.1756 81.7257 51.1122 82.5547 50.2832C82.9707 49.8672 83.1632 49.6576 83.3623 49.4395C83.5802 49.2006 83.8064 48.9533 84.2656 48.4941C85.0312 47.7285 86.1018 47.1375 87.0723 46.7295C88.1339 46.2831 89.2906 46.0401 90.3115 46.04C90.9269 46.04 91.2425 46.0512 91.5469 46.0615C91.8303 46.0712 92.1028 46.0801 92.6621 46.0801C93.2597 46.0801 93.5651 46.0857 93.8652 46.0908C94.1549 46.0957 94.4398 46.1006 95.0117 46.1006H97.3623C97.8769 46.1006 98.1166 46.0776 98.3838 46.0527C98.7065 46.0227 99.0569 45.9902 99.7119 45.9902H102.062C102.69 45.9902 103.016 46.0066 103.325 46.0225C103.603 46.0367 103.866 46.0508 104.412 46.0508C105.003 46.0508 105.303 46.0531 105.601 46.0557C105.893 46.0581 106.183 46.0605 106.762 46.0605C107.372 46.0605 107.688 46.0707 107.993 46.0811C108.278 46.0907 108.553 46.1006 109.112 46.1006C109.703 46.1006 110.003 46.1029 110.301 46.1055C110.593 46.1079 110.883 46.1104 111.462 46.1104C112.009 46.1104 112.273 46.0963 112.555 46.082C112.866 46.0662 113.194 46.0508 113.822 46.0508C114.45 46.0508 114.775 46.0662 115.086 46.082C115.365 46.0962 115.63 46.1103 116.182 46.1104C116.52 46.1104 116.862 45.9576 117.065 45.7539C117.209 45.6099 117.362 45.2996 117.362 44.8701C117.362 44.2731 117.355 43.9796 117.349 43.6738C117.342 43.3535 117.337 43.0297 117.342 42.3965C117.347 41.7517 117.363 41.4206 117.377 41.1064C117.39 40.8169 117.402 40.5346 117.402 39.9502C117.402 39.384 117.384 39.1148 117.365 38.8271C117.344 38.4999 117.322 38.1537 117.322 37.4902C117.322 36.8328 117.341 36.4904 117.361 36.1602C117.379 35.8644 117.398 35.5893 117.402 35.0166C117.407 34.463 117.387 34.2049 117.365 33.9277C117.34 33.6011 117.312 33.2459 117.312 32.5703C117.312 31.3764 117.333 31.2253 117.342 30.1104C117.342 29.5347 117.22 28.8075 116.944 28.1348C116.621 27.3455 116.243 26.7251 115.915 26.3975C115.532 26.0145 115.34 25.8436 115.137 25.665C114.906 25.462 114.659 25.2454 114.212 24.8037C113.38 23.9817 113.358 23.9502 112.545 23.1367C112.092 22.6838 111.871 22.4295 111.664 22.1904C111.486 21.9846 111.322 21.7937 110.945 21.417C110.572 21.0436 110.385 20.8841 110.181 20.71C109.94 20.5042 109.682 20.2835 109.226 19.8271C108.772 19.374 108.551 19.1193 108.345 18.8809C108.168 18.676 108.006 18.4885 107.635 18.1172C107.276 17.7587 107.093 17.6077 106.886 17.4365C106.635 17.2293 106.361 17.0027 105.896 16.5371C105.068 15.7095 105.07 15.712 104.242 14.8945C103.785 14.4433 103.562 14.1848 103.352 13.9404C103.172 13.7316 103.009 13.5408 102.635 13.167C102.258 12.7904 102.068 12.6262 101.862 12.4482C101.623 12.2413 101.368 12.0206 100.915 11.5674C100.456 11.1079 100.234 10.845 100.029 10.6045C99.8585 10.4033 99.7017 10.2197 99.332 9.85449C98.9522 9.47928 98.7587 9.31247 98.5479 9.12891C98.3071 8.91927 98.0554 8.69695 97.6055 8.24707C97.1875 7.82907 96.9772 7.61648 96.7686 7.40527C96.5623 7.19659 96.3571 6.98891 95.9453 6.57715C95.5335 6.16532 95.3259 5.96013 95.1172 5.75391C94.9059 5.54516 94.6935 5.33509 94.2754 4.91699C93.9272 4.56883 93.3263 4.18441 92.5771 3.87793C91.8108 3.56444 91.122 3.41016 90.6318 3.41016H88.2217C87.5797 3.41015 87.2474 3.3937 86.9307 3.37793C86.6446 3.36368 86.3738 3.35059 85.8115 3.35059C85.2056 3.35058 84.8977 3.34822 84.5928 3.3457C84.293 3.34323 83.9955 3.34082 83.4023 3.34082C82.8583 3.34082 82.5995 3.36002 82.3193 3.38086C81.9946 3.40501 81.6479 3.43066 80.9922 3.43066C80.3303 3.43066 79.9784 3.40203 79.6514 3.375C79.3736 3.35204 79.1198 3.33008 78.582 3.33008C77.9634 3.33008 77.646 3.32213 77.335 3.31445C77.0388 3.30714 76.7485 3.30078 76.1621 3.30078C75.5818 3.30078 75.2987 3.30968 75.0078 3.31934C74.6966 3.32967 74.3768 3.34082 73.752 3.34082C73.183 3.34082 72.9048 3.35226 72.6133 3.36426C72.297 3.37727 71.9676 3.39062 71.332 3.39062C70.7458 3.39062 70.4579 3.39797 70.1631 3.40527C69.853 3.41296 69.5355 3.41992 68.9121 3.41992C68.2638 3.41992 67.9267 3.40134 67.6064 3.38281C67.3217 3.36634 67.0536 3.35059 66.4922 3.35059C65.9119 3.35059 65.6283 3.35947 65.3359 3.36914C65.0235 3.37947 64.7014 3.39062 64.0723 3.39062C63.492 3.39062 63.2084 3.39952 62.916 3.40918C62.6035 3.41951 62.2815 3.43066 61.6523 3.43066H59.2314C58.5774 3.43065 58.2358 3.40808 57.9141 3.38672C57.6328 3.36805 57.3721 3.35059 56.8223 3.35059C56.1975 3.35059 55.875 3.33942 55.5615 3.3291C55.268 3.31944 54.9824 3.31055 54.4023 3.31055C53.8406 3.31055 53.5719 3.3263 53.2871 3.34277C52.9669 3.36129 52.6297 3.38086 51.9814 3.38086H49.5615C48.9444 3.38086 48.6317 3.3752 48.3242 3.37012C48.0269 3.36521 47.734 3.36035 47.1416 3.36035C46.5613 3.36035 46.2816 3.3702 46 3.38184C45.6996 3.39425 45.3774 3.40954 44.749 3.41992C43.5387 3.43993 43.4494 3.4202 42.3262 3.41992C41.7928 3.42088 41.0924 3.55694 40.3916 3.85156C39.5833 4.19141 38.9775 4.55393 38.6377 4.8877C38.244 5.28167 38.0575 5.48188 37.8643 5.68945C37.6543 5.91493 37.4377 6.14822 36.999 6.58691C36.1567 7.42922 36.1541 7.43214 35.3018 8.27441C34.8863 8.68499 34.6869 8.8891 34.4873 9.09473C34.2802 9.3081 34.0679 9.52785 33.6387 9.95703C33.222 10.3738 33.0143 10.5838 32.8057 10.7949C32.5944 11.0087 32.3821 11.2243 31.959 11.6475C31.4826 12.1239 31.2014 12.3513 30.9473 12.5576C30.7433 12.7232 30.5592 12.872 30.1953 13.2402C29.8221 13.6179 29.666 13.8082 29.4912 14.0186C29.2813 14.2713 29.0561 14.5396 28.5889 15.0068C27.802 15.7937 27.735 15.8803 26.9014 16.7041C26.4358 17.1642 26.1741 17.3863 25.9326 17.5918C25.7275 17.7663 25.5371 17.9278 25.1582 18.3066C24.7791 18.6857 24.6144 18.879 24.4346 19.0889C24.2245 19.3339 23.9996 19.5961 23.5391 20.0566C23.0939 20.5018 22.8529 20.7218 22.6221 20.9316C22.4129 21.1218 22.2132 21.3025 21.8184 21.6973L20.1387 23.377C19.6904 23.8252 19.4445 24.047 19.21 24.2578C18.9995 24.447 18.7999 24.6259 18.4082 25.0176C18.0389 25.3869 17.8854 25.5736 17.7139 25.7812C17.5054 26.0335 17.2789 26.307 16.8086 26.7773C16.3856 27.2003 16.1707 27.4128 15.957 27.624C15.7458 27.8328 15.535 28.0402 15.1182 28.457C14.6826 28.8926 14.4525 29.1102 14.2285 29.3213C14.0176 29.5201 13.8124 29.713 13.4082 30.1172C13.0041 30.5213 12.8111 30.7266 12.6123 30.9375C12.4013 31.1614 12.1844 31.3918 11.749 31.8271C11.2819 32.2942 11.0112 32.5208 10.7607 32.7305C10.5512 32.9058 10.3612 33.0646 9.98828 33.4375C9.60956 33.8162 9.44508 34.0086 9.26758 34.2168C9.06002 34.4603 8.83517 34.7248 8.375 35.1904C7.93682 35.6338 7.70294 35.855 7.4707 36.0713C7.25493 36.2723 7.05059 36.4602 6.64844 36.8574L6.53418 36.9844C6.26329 37.3109 5.97206 37.8523 5.65332 38.6104C5.27348 39.5138 5.08207 40.136 5.08203 40.5303C5.08203 41.1105 5.09091 41.3937 5.10059 41.6875C5.11092 42.0014 5.12207 42.3258 5.12207 42.96C5.12207 43.5881 5.11413 43.9057 5.10645 44.2158C5.09914 44.5106 5.0918 44.7991 5.0918 45.3906C5.0918 45.9696 5.10327 46.2476 5.11523 46.5371C5.12826 46.8525 5.1416 47.1796 5.1416 47.8203C5.1416 48.4734 5.12304 48.8104 5.10449 49.1309C5.08804 49.4152 5.07227 49.6834 5.07227 50.25C5.07227 50.8045 5.09153 51.0634 5.1123 51.3428C5.13652 51.6683 5.16211 52.0153 5.16211 52.6807C5.1621 53.3274 5.14565 53.6596 5.12988 53.9775C5.11566 54.2644 5.10156 54.5376 5.10156 55.1104C5.10156 55.6834 5.11565 55.9571 5.12988 56.2441C5.14564 56.5619 5.1621 56.8937 5.16211 57.54C5.16211 58.1993 5.13952 58.5412 5.11816 58.8643C5.09953 59.1462 5.08203 59.41 5.08203 59.9707C5.08204 60.5434 5.09515 60.8166 5.10938 61.1035C5.12514 61.4215 5.1416 61.7535 5.1416 62.4004C5.1416 62.9794 5.15307 63.2574 5.16504 63.5469C5.17808 63.8622 5.19238 64.1895 5.19238 64.8301C5.19238 65.4954 5.16684 65.8422 5.14258 66.167C5.12178 66.4454 5.10157 66.7011 5.10156 67.25C5.10156 67.7931 5.12351 68.047 5.14648 68.3262C5.17358 68.6554 5.20215 69.0094 5.20215 69.6807C5.20215 70.3089 5.19421 70.6263 5.18652 70.9365C5.17922 71.2312 5.17188 71.519 5.17188 72.1104C5.17188 72.7573 5.15541 73.0893 5.13965 73.4072C5.12542 73.6942 5.11231 73.9673 5.1123 74.54V79.4004C5.1123 79.9918 5.11867 80.2822 5.12598 80.5781C5.13366 80.8893 5.1416 81.2067 5.1416 81.8301C5.1416 82.3915 5.15733 82.66 5.17383 82.9463C5.19236 83.268 5.21191 83.6078 5.21191 84.2607C5.2119 84.9379 5.18042 85.2963 5.15039 85.6279C5.12533 85.9047 5.10156 86.1535 5.10156 86.6904C5.10156 87.2458 5.11997 87.5091 5.13867 87.793C5.16002 88.1171 5.18163 88.4613 5.18164 89.1201V91.5508C5.18163 92.1986 5.16302 92.5382 5.14453 92.8604C5.12803 93.1479 5.1123 93.4189 5.1123 93.9805V96.4102C5.1123 96.9905 5.12118 97.2762 5.13086 97.5713C5.14119 97.8862 5.15234 98.2112 5.15234 98.8408C5.15235 99.4331 5.1572 99.7257 5.16211 100.024C5.16719 100.333 5.17188 100.648 5.17188 101.271C5.17187 101.899 5.16394 102.219 5.15625 102.53C5.14894 102.826 5.1416 103.114 5.1416 103.7C5.1416 104.268 5.15566 104.544 5.16992 104.834C5.18565 105.154 5.20215 105.489 5.20215 106.131C5.20215 106.741 5.19978 107.051 5.19727 107.358C5.19479 107.661 5.19238 107.962 5.19238 108.561C5.19238 109.184 5.18445 109.504 5.17676 109.816C5.16944 110.114 5.16211 110.404 5.16211 110.99C5.16211 111.645 5.13942 111.989 5.11816 112.314C5.09948 112.601 5.08203 112.87 5.08203 113.431V115.87C5.08203 116.33 5.257 117.034 5.58887 117.846C5.88906 118.579 6.29147 119.197 6.64844 119.554C7.06166 119.967 7.26686 120.174 7.4707 120.381C7.67181 120.584 7.87176 120.787 8.27832 121.193C8.65293 121.568 8.84399 121.735 9.04883 121.914C9.28381 122.12 9.53359 122.338 9.97852 122.783C10.4466 123.251 10.6707 123.53 10.874 123.783C11.0356 123.985 11.1766 124.162 11.5283 124.514C11.9029 124.888 12.094 125.054 12.2988 125.233C12.5339 125.439 12.7833 125.658 13.2285 126.104C13.645 126.52 13.8525 126.733 14.0576 126.943C14.2575 127.148 14.4549 127.35 14.8584 127.754C15.2426 128.138 15.4361 128.312 15.6367 128.493C15.8596 128.694 16.0953 128.906 16.5312 129.337C16.9803 129.78 17.2029 130.033 17.4121 130.273C17.5929 130.481 17.7573 130.672 18.1289 131.044C18.5128 131.428 18.7064 131.603 18.9102 131.788C19.1362 131.993 19.3728 132.208 19.8086 132.644C20.2668 133.102 20.4894 133.368 20.6943 133.614C20.8643 133.818 21.0172 134.002 21.3789 134.363C21.7373 134.722 21.918 134.87 22.1201 135.036C22.3679 135.24 22.6372 135.462 23.0986 135.924C23.5632 136.388 23.7878 136.663 23.9922 136.914C24.1577 137.118 24.3032 137.298 24.6582 137.653C25.0101 138.005 25.1879 138.147 25.3916 138.311C25.6467 138.515 25.9263 138.742 26.3984 139.214C26.8455 139.661 27.0624 139.905 27.2676 140.137C27.4474 140.34 27.6161 140.531 27.999 140.914C28.3944 141.309 28.591 141.492 28.7949 141.682C29.0158 141.887 29.2446 142.099 29.6787 142.533C30.1183 142.973 30.7108 143.417 31.3369 143.673C32.0164 143.951 32.7639 144.08 33.332 144.08C33.9006 144.08 34.1758 144.069 34.4629 144.057C34.7756 144.044 35.1005 144.03 35.7314 144.03C36.3251 144.03 36.6206 144.028 36.918 144.025C37.2205 144.023 37.5257 144.021 38.1318 144.021C38.7381 144.021 39.0431 144.023 39.3457 144.025C39.6431 144.028 39.9385 144.03 40.5322 144.03C41.1943 144.03 41.5436 144.059 41.8682 144.086C42.1419 144.109 42.3898 144.131 42.9219 144.131H45.3223C45.8533 144.131 46.099 144.107 46.3711 144.082C46.6988 144.052 47.0532 144.021 47.7217 144.021C48.3838 144.021 48.7334 144.049 49.0586 144.076C49.3333 144.099 49.5844 144.12 50.1221 144.12C50.6657 144.12 50.9212 144.101 51.1982 144.08C51.521 144.056 51.8656 144.03 52.5215 144.03C53.1399 144.03 53.4551 144.038 53.7627 144.046C54.055 144.053 54.3406 144.061 54.9219 144.061C55.5344 144.061 55.8443 144.065 56.1494 144.07C56.4443 144.075 56.7347 144.08 57.3223 144.08C57.9345 144.08 58.2447 144.086 58.5498 144.091C58.8445 144.096 59.1346 144.101 59.7217 144.101C60.2718 144.101 60.5329 144.083 60.8125 144.064C61.1328 144.043 61.4724 144.021 62.1221 144.021H64.5215C65.1835 144.021 65.5332 144.049 65.8584 144.076C66.1331 144.099 66.3842 144.12 66.9219 144.12C67.478 144.12 67.7434 144.104 68.0254 144.088C68.3432 144.069 68.6786 144.051 69.3223 144.051C69.9594 144.051 70.2892 144.066 70.6045 144.082C70.8891 144.096 71.1593 144.11 71.7217 144.11C72.2718 144.11 72.5329 144.093 72.8125 144.074C73.1327 144.053 73.4724 144.03 74.1221 144.03C74.7157 144.03 75.0112 144.028 75.3086 144.025C75.6109 144.023 75.9158 144.021 76.5215 144.021H78.9219C79.5841 144.021 79.9335 144.049 80.2588 144.076C80.5335 144.099 80.7846 144.12 81.3223 144.12C81.8533 144.12 82.099 144.097 82.3711 144.072C82.6988 144.042 83.0533 144.011 83.7217 144.011C84.3526 144.011 84.6775 144.024 84.9902 144.037C85.2774 144.049 85.5532 144.061 86.1221 144.061C86.7032 144.061 86.9885 144.053 87.2822 144.046C87.5912 144.038 87.9088 144.03 88.5322 144.03C89.112 144.03 89.3922 144.021 89.6816 144.012C89.9921 144.001 90.3126 143.99 90.9424 143.99C91.6336 143.99 92.3658 143.915 92.9775 143.675C93.7371 143.376 94.408 142.97 94.79 142.621C95.2261 142.223 95.4322 142.023 95.6475 141.813C95.8779 141.59 96.1128 141.362 96.5869 140.935C97.0385 140.528 97.2641 140.322 97.4902 140.116C97.719 139.908 97.949 139.697 98.4072 139.284C98.8329 138.901 99.028 138.706 99.2314 138.501C99.4573 138.274 99.6962 138.032 100.18 137.591C100.682 137.132 100.968 136.914 101.234 136.71C101.458 136.539 101.663 136.383 102.07 136.012C102.983 135.179 102.985 135.177 103.897 134.354C104.304 133.988 104.477 133.802 104.663 133.601C104.884 133.361 105.126 133.096 105.623 132.638C106.525 131.806 106.556 131.787 107.45 130.972C107.921 130.542 108.167 130.331 108.406 130.125C108.632 129.931 108.851 129.741 109.29 129.341C109.751 128.92 109.986 128.711 110.219 128.504C110.446 128.301 110.671 128.101 111.12 127.691C111.562 127.288 111.775 127.085 111.992 126.877C112.22 126.66 112.452 126.438 112.92 126.012C113.41 125.565 113.68 125.347 113.939 125.141C114.168 124.958 114.382 124.789 114.807 124.405C115.251 124.004 115.462 123.803 115.678 123.597C115.906 123.378 116.141 123.154 116.616 122.726C117.073 122.313 117.299 122.108 117.525 121.901C117.754 121.693 117.984 121.483 118.446 121.065C118.922 120.636 119.17 120.425 119.408 120.222C119.632 120.03 119.851 119.842 120.29 119.441L120.301 119.432C120.652 119.117 121.063 118.528 121.383 117.804C121.701 117.084 121.862 116.375 121.862 115.891V113.511C121.862 112.953 121.848 112.685 121.834 112.403C121.818 112.09 121.802 111.763 121.802 111.131C121.802 110.504 121.815 110.181 121.828 109.871C121.84 109.586 121.852 109.314 121.852 108.75C121.852 108.212 121.832 107.959 121.812 107.685C121.787 107.364 121.762 107.022 121.762 106.37C121.762 105.7 121.797 105.343 121.83 105.015C121.857 104.748 121.882 104.51 121.882 103.99C121.882 103.477 121.855 103.244 121.826 102.979C121.79 102.649 121.752 102.287 121.752 101.61V96.8506C121.752 96.1803 121.787 95.823 121.82 95.4951C121.847 95.2281 121.872 94.99 121.872 94.4707C121.872 93.926 121.855 93.6676 121.836 93.3906C121.815 93.0728 121.792 92.7355 121.792 92.0908V89.71C121.792 89.0714 121.812 88.7392 121.83 88.4238C121.847 88.1443 121.862 87.8811 121.862 87.3301C121.862 86.773 121.848 86.5053 121.834 86.2217C121.818 85.9073 121.802 85.5776 121.802 84.9404C121.802 84.3219 121.81 84.0094 121.817 83.7041C121.825 83.4146 121.832 83.1317 121.832 82.5508C121.832 82.0537 121.674 81.3322 121.364 80.5752C121.064 79.8414 120.662 79.2242 120.305 78.8672C119.897 78.4596 119.69 78.2722 119.472 78.0752C119.23 77.8573 118.978 77.6291 118.516 77.167C117.643 76.2947 117.641 76.2924 116.769 75.4102C116.319 74.9553 116.097 74.7186 115.883 74.4902C115.68 74.2746 115.48 74.0616 115.055 73.6367C114.636 73.2181 114.426 73.0242 114.209 72.8242C113.974 72.6072 113.732 72.383 113.275 71.9268C112.838 71.4889 112.617 71.2671 112.398 71.0459C112.182 70.8271 111.967 70.6087 111.535 70.1768C110.681 69.3225 110.65 69.3029 109.778 68.4209C108.911 67.5431 108.913 67.5448 108.035 66.667C107.565 66.1973 107.335 65.9398 107.117 65.6953C106.922 65.4768 106.74 65.2718 106.335 64.8672C106.046 64.5779 105.473 64.2744 104.562 63.8916C103.672 63.5173 103.052 63.3301 102.642 63.3301C102.022 63.3301 101.73 63.3543 101.413 63.3799C101.047 63.4094 100.657 63.4404 99.9121 63.4404C99.2219 63.4404 98.8773 63.4381 98.5352 63.4355C98.1975 63.4331 97.8612 63.4307 97.1816 63.4307C96.4587 63.4307 96.0883 63.4119 95.7324 63.3936C95.4085 63.3769 95.0986 63.3604 94.4521 63.3604C94.1316 63.3604 93.8412 63.4906 93.6299 63.7061C93.3422 63.9994 93.2217 64.3054 93.2217 64.5508C93.2217 65.1054 93.2419 65.3667 93.2627 65.6475C93.2868 65.9733 93.3115 66.32 93.3115 66.9805C93.3115 67.6469 93.2838 68.0006 93.2568 68.3301C93.2338 68.6106 93.2119 68.8669 93.2119 69.4102C93.2119 70.0212 93.2096 70.3313 93.207 70.6387C93.2046 70.9412 93.2021 71.242 93.2021 71.8408C93.2022 72.3713 93.2268 72.6153 93.2539 72.8896C93.2869 73.2237 93.3223 73.5871 93.3223 74.2705C93.3223 74.9046 93.3111 75.2291 93.3008 75.543C93.2911 75.8367 93.2822 76.12 93.2822 76.7002C93.2822 77.3419 93.2657 77.6764 93.25 77.9961C93.2357 78.2863 93.2217 78.5628 93.2217 79.1309C93.2217 79.6862 93.2401 79.9521 93.2588 80.2373C93.2801 80.562 93.3018 80.9063 93.3018 81.5605C93.3018 82.2207 93.2761 82.5695 93.252 82.8965C93.2311 83.1794 93.2119 83.4408 93.2119 83.9902C93.2119 84.5398 93.232 84.8013 93.2529 85.0859C93.2771 85.4145 93.3018 85.7659 93.3018 86.4307C93.3018 87.0527 93.2971 87.3677 93.292 87.6777C93.2871 87.9775 93.2822 88.2728 93.2822 88.8701C93.2822 90.0537 92.831 91.2345 91.9883 92.0771C91.1258 92.9395 89.9346 93.3505 88.7822 93.3506C88.178 93.3506 87.8698 93.3427 87.5684 93.335C87.2827 93.3277 87.0025 93.3203 86.4316 93.3203C85.8864 93.3203 85.6266 93.3362 85.3516 93.3525C85.0399 93.3711 84.7117 93.3906 84.082 93.3906C83.4397 93.3906 83.0991 93.3651 82.7812 93.3408C82.5091 93.3201 82.259 93.3008 81.7314 93.3008C81.1725 93.3008 80.8978 93.3097 80.6133 93.3193C80.3081 93.3297 79.9923 93.3408 79.3818 93.3408C78.8353 93.3408 78.5706 93.354 78.291 93.3682C77.9808 93.3839 77.6552 93.4004 77.0322 93.4004H74.6719C74.0122 93.4004 73.6621 93.368 73.3389 93.3379C73.0721 93.313 72.8318 93.29 72.3115 93.29C71.2253 93.29 70.0347 92.9684 69.127 92.0781C68.2185 91.1871 67.8623 89.9809 67.8623 88.8701ZM120.612 32.5703C120.612 33.1244 120.633 33.3847 120.655 33.6729C120.681 34.0105 120.708 34.368 120.702 35.0439C120.697 35.7008 120.675 36.0412 120.655 36.3604C120.638 36.645 120.622 36.918 120.622 37.4902C120.622 38.0566 120.639 38.3257 120.658 38.6133C120.679 38.9406 120.702 39.2867 120.702 39.9502C120.702 40.5955 120.688 40.9286 120.674 41.2539C120.66 41.5546 120.646 41.8389 120.642 42.4238C120.637 43.0203 120.641 43.3119 120.647 43.6064C120.654 43.9156 120.662 44.2375 120.662 44.8701C120.662 46.0006 120.274 47.2109 119.398 48.0869C118.582 48.9032 117.404 49.4102 116.182 49.4102C115.554 49.4102 115.229 49.3937 114.918 49.3779C114.639 49.3637 114.374 49.3506 113.822 49.3506C113.27 49.3506 113.002 49.3637 112.722 49.3779C112.41 49.3937 112.085 49.4102 111.462 49.4102C110.871 49.4102 110.57 49.4078 110.272 49.4053C109.98 49.4028 109.69 49.4004 109.112 49.4004C108.502 49.4004 108.186 49.3902 107.881 49.3799C107.596 49.3702 107.321 49.3604 106.762 49.3604C106.171 49.3604 105.871 49.358 105.573 49.3555C105.281 49.353 104.991 49.3506 104.412 49.3506C103.789 49.3506 103.465 49.3341 103.156 49.3184C102.879 49.3042 102.613 49.29 102.062 49.29H99.7119C99.1973 49.29 98.9575 49.313 98.6904 49.3379C98.3678 49.368 98.0171 49.4004 97.3623 49.4004H95.0117C94.4141 49.4004 94.1087 49.3957 93.8086 49.3906C93.5189 49.3857 93.234 49.3809 92.6621 49.3809C92.0516 49.3809 91.7386 49.3697 91.4346 49.3594C91.1515 49.3497 90.8762 49.3408 90.3115 49.3408C89.7726 49.3409 89.0496 49.478 88.3516 49.7715C87.5621 50.1034 86.933 50.4928 86.5986 50.8271C86.188 51.2378 85.9993 51.4455 85.7998 51.6641C85.5814 51.9034 85.3527 52.1532 84.8887 52.6172C83.9578 53.548 84.0208 53.4651 83.1357 54.3604C82.6797 54.8216 82.4363 55.0486 82.1982 55.2695C81.9783 55.4736 81.7676 55.6679 81.3486 56.0869C80.9026 56.533 80.6777 56.7532 80.4551 56.9707C80.2377 57.1831 80.0227 57.3934 79.5889 57.8271C79.1552 58.2609 78.9448 58.4761 78.7324 58.6934C78.5149 58.9159 78.2946 59.1409 77.8486 59.5869C77.424 60.0116 77.2238 60.2239 77.0215 60.4395C76.807 60.6679 76.5855 60.9054 76.1357 61.3604C75.2813 62.2246 75.1976 62.2887 74.3789 63.1074C73.7989 63.694 73.2187 64.2774 72.6387 64.8574C72.3355 65.1606 72.0068 65.7441 71.6426 66.6104C71.3191 67.3798 71.1622 68.0617 71.1621 68.54C71.1621 69.1857 71.1597 69.5082 71.1572 69.8281C71.1548 70.1432 71.1523 70.4567 71.1523 71.0908C71.1523 71.7596 71.139 72.1027 71.126 72.4336C71.1139 72.7405 71.1016 73.0351 71.1016 73.6406V76.1807C71.1016 76.7919 71.1114 77.0907 71.1211 77.3984C71.1314 77.7256 71.1416 78.0621 71.1416 78.7207C71.1416 79.3731 71.1336 79.7046 71.126 80.0293C71.1186 80.3395 71.1123 80.6434 71.1123 81.2607C71.1123 81.8835 71.1171 82.1941 71.1221 82.5078C71.1271 82.8312 71.1318 83.159 71.1318 83.8008C71.1318 84.4067 71.1417 84.7031 71.1514 85.0098C71.1617 85.3358 71.1719 85.6719 71.1719 86.3301C71.1719 86.9709 71.1695 87.2934 71.167 87.6133C71.1645 87.9283 71.1621 88.2412 71.1621 88.8701C71.1621 89.3193 71.306 89.5937 71.4375 89.7227C71.5697 89.8521 71.8384 89.9902 72.3115 89.9902C72.9709 89.9902 73.3214 90.0226 73.6445 90.0527C73.9113 90.0776 74.1516 90.1006 74.6719 90.1006H77.0322C77.5788 90.1006 77.8434 90.0865 78.123 90.0723C78.4333 90.0565 78.7587 90.04 79.3818 90.04C79.9414 90.04 80.2162 90.0311 80.501 90.0215C80.8061 90.0111 81.1212 90 81.7314 90C82.3737 90 82.7145 90.0256 83.0322 90.0498C83.3044 90.0706 83.5544 90.0908 84.082 90.0908C84.6222 90.0908 84.8794 90.075 85.1553 90.0586C85.4675 90.04 85.7976 90.0205 86.4316 90.0205C87.0404 90.0205 87.3507 90.0284 87.6523 90.0361C87.9384 90.0434 88.2164 90.0508 88.7822 90.0508C89.1894 90.0507 89.4979 89.9014 89.6553 89.7441C89.8326 89.5668 89.9814 89.2465 89.9814 88.8701C89.9814 88.248 89.9871 87.933 89.9922 87.623C89.9971 87.3232 90.002 87.028 90.002 86.4307C90.002 85.8756 89.9818 85.611 89.9609 85.3271C89.9369 84.9994 89.9121 84.6504 89.9121 83.9902C89.9121 83.3301 89.9368 82.9813 89.9609 82.6543C89.9818 82.3714 90.0019 82.11 90.002 81.5605C90.002 81.0048 89.9845 80.7384 89.9658 80.4531C89.9445 80.1286 89.9219 79.7847 89.9219 79.1309C89.9219 78.4889 89.9384 78.1538 89.9541 77.834C89.9684 77.5439 89.9814 77.268 89.9814 76.7002C89.9814 76.0706 89.9926 75.7482 90.0029 75.4346C90.0126 75.1412 90.0215 74.8557 90.0215 74.2705C90.0215 73.7341 89.9967 73.4873 89.9697 73.2139C89.9368 72.8809 89.9024 72.5198 89.9023 71.8408C89.9023 71.23 89.9047 70.9196 89.9072 70.6123C89.9097 70.3098 89.9121 70.009 89.9121 69.4102C89.9121 68.7437 89.9408 68.39 89.9678 68.0605C89.9908 67.7801 90.0117 67.5238 90.0117 66.9805C90.0117 66.4311 89.9925 66.1722 89.9717 65.8906C89.9475 65.5641 89.9219 65.2154 89.9219 64.5508C89.9219 63.2365 90.5414 62.1421 91.2734 61.3955C92.0821 60.571 93.2127 60.0605 94.4521 60.0605C95.1751 60.0606 95.5455 60.0793 95.9014 60.0977C96.2253 60.1143 96.5351 60.1309 97.1816 60.1309C97.8718 60.1309 98.2164 60.1332 98.5586 60.1357C98.8963 60.1382 99.2326 60.1406 99.9121 60.1406C100.537 60.1406 100.832 60.1163 101.148 60.0908C101.514 60.0614 101.901 60.0303 102.642 60.0303C103.792 60.0303 104.972 60.4839 105.842 60.8496C106.691 61.2068 107.858 61.7227 108.669 62.5332C109.134 62.9984 109.362 63.2542 109.579 63.498C109.773 63.7159 109.958 63.9241 110.368 64.334C111.25 65.2162 111.253 65.2184 112.125 66.1006C112.993 66.9783 112.983 66.9584 113.868 67.8438C114.306 68.2818 114.526 68.5043 114.745 68.7256C114.961 68.9443 115.177 69.1619 115.608 69.5938C116.022 70.0074 116.23 70.199 116.447 70.3994C116.683 70.6167 116.928 70.8429 117.389 71.3037C117.844 71.7587 118.068 71.9971 118.288 72.2314C118.496 72.453 118.695 72.6659 119.115 73.0908C119.983 73.9684 119.981 73.9663 120.849 74.834C121.256 75.2416 121.464 75.428 121.683 75.625C121.924 75.8429 122.177 76.0711 122.639 76.5332C123.382 77.2761 123.999 78.2992 124.419 79.3252C124.829 80.3282 125.132 81.4879 125.132 82.5508C125.132 83.1693 125.124 83.4818 125.116 83.7871C125.109 84.0767 125.102 84.3593 125.102 84.9404C125.102 85.503 125.116 85.7735 125.13 86.0566C125.146 86.3704 125.162 86.6977 125.162 87.3301C125.162 87.969 125.143 88.3017 125.124 88.6172C125.108 88.8966 125.092 89.1592 125.092 89.71V92.0908C125.092 92.6352 125.109 92.893 125.128 93.1699C125.149 93.4879 125.172 93.8255 125.172 94.4707C125.172 95.1409 125.137 95.4983 125.104 95.8262C125.077 96.0931 125.052 96.3312 125.052 96.8506V101.61C125.052 102.124 125.079 102.356 125.107 102.621C125.144 102.951 125.182 103.314 125.182 103.99C125.182 104.661 125.146 105.018 125.113 105.346C125.086 105.613 125.062 105.851 125.062 106.37C125.062 106.908 125.082 107.161 125.103 107.436C125.127 107.756 125.152 108.099 125.152 108.75C125.152 109.376 125.138 109.699 125.125 110.01C125.113 110.294 125.102 110.567 125.102 111.131C125.102 111.688 125.116 111.955 125.13 112.237C125.146 112.55 125.162 112.878 125.162 113.511V115.891C125.162 116.966 124.843 118.138 124.401 119.138C123.963 120.129 123.317 121.155 122.513 121.879L122.514 121.88C122.043 122.309 121.797 122.521 121.554 122.729C121.324 122.926 121.101 123.115 120.657 123.516C120.2 123.928 119.975 124.133 119.749 124.34C119.52 124.548 119.29 124.758 118.827 125.176C118.383 125.577 118.172 125.777 117.956 125.983C117.727 126.202 117.493 126.427 117.018 126.855C116.523 127.302 116.251 127.517 115.997 127.72C115.774 127.898 115.563 128.066 115.144 128.449C114.701 128.853 114.489 129.056 114.271 129.264C114.044 129.481 113.811 129.703 113.344 130.13C112.883 130.55 112.648 130.76 112.415 130.967C112.188 131.169 111.962 131.37 111.514 131.779C111.043 132.209 110.797 132.42 110.558 132.626C110.332 132.82 110.113 133.009 109.674 133.409C108.748 134.253 108.758 134.236 107.86 135.063C107.458 135.435 107.284 135.625 107.088 135.838C106.856 136.089 106.61 136.353 106.106 136.807C105.199 137.624 105.201 137.622 104.294 138.449C103.791 138.908 103.505 139.128 103.239 139.331C103.015 139.502 102.811 139.658 102.404 140.029C101.978 140.418 101.781 140.617 101.572 140.827C101.341 141.06 101.1 141.3 100.616 141.736C100.165 142.143 99.94 142.348 99.7139 142.555C99.4851 142.763 99.2549 142.973 98.7969 143.386C98.3612 143.778 98.1558 143.976 97.9463 144.18C97.7216 144.398 97.4875 144.627 97.0137 145.06C96.2557 145.751 95.2059 146.345 94.1855 146.746C93.0178 147.205 91.8108 147.29 90.9424 147.29C90.3623 147.29 90.0815 147.3 89.792 147.31C89.4816 147.32 89.1618 147.33 88.5322 147.33C87.9458 147.33 87.6577 147.337 87.3643 147.345C87.0555 147.352 86.7407 147.36 86.1221 147.36C85.4911 147.36 85.1662 147.347 84.8535 147.334C84.5663 147.322 84.2905 147.311 83.7217 147.311C83.1906 147.311 82.9449 147.333 82.6729 147.358C82.3451 147.388 81.9906 147.42 81.3223 147.42C80.6602 147.42 80.3105 147.391 79.9854 147.364C79.7107 147.341 79.4595 147.32 78.9219 147.32H76.5215C75.9282 147.32 75.6332 147.323 75.3359 147.325C75.0334 147.328 74.7282 147.33 74.1221 147.33C73.572 147.33 73.3109 147.349 73.0312 147.367C72.711 147.389 72.3713 147.41 71.7217 147.41C71.0844 147.41 70.7547 147.394 70.4395 147.378C70.1549 147.364 69.8846 147.351 69.3223 147.351C68.7659 147.351 68.4999 147.366 68.2178 147.383C67.9 147.401 67.5654 147.42 66.9219 147.42C66.2596 147.42 65.9103 147.391 65.585 147.364C65.3103 147.341 65.0592 147.32 64.5215 147.32H62.1221C61.5719 147.32 61.3109 147.338 61.0312 147.356C60.711 147.378 60.3713 147.4 59.7217 147.4C59.1094 147.4 58.7992 147.396 58.4941 147.391C58.1994 147.386 57.9094 147.381 57.3223 147.381C56.71 147.381 56.3997 147.375 56.0947 147.37C55.7999 147.365 55.5094 147.36 54.9219 147.36C54.3032 147.36 53.9883 147.352 53.6807 147.345C53.3884 147.337 53.1028 147.33 52.5215 147.33C51.9779 147.33 51.7224 147.35 51.4453 147.371C51.1225 147.395 50.7781 147.42 50.1221 147.42C49.4599 147.42 49.1104 147.391 48.7852 147.364C48.5105 147.341 48.2594 147.32 47.7217 147.32C47.1906 147.32 46.9449 147.343 46.6729 147.368C46.3451 147.398 45.9906 147.431 45.3223 147.431H42.9219C42.264 147.431 41.9165 147.402 41.5928 147.375C41.32 147.352 41.0695 147.33 40.5322 147.33C39.9261 147.33 39.6209 147.328 39.3184 147.325C39.0209 147.323 38.7256 147.32 38.1318 147.32C37.5381 147.32 37.2427 147.323 36.9453 147.325C36.6428 147.328 36.3375 147.33 35.7314 147.33C35.1629 147.33 34.8877 147.342 34.6006 147.354C34.2878 147.367 33.9631 147.381 33.332 147.381C32.3402 147.381 31.1674 147.17 30.0869 146.728C28.9531 146.264 28.0051 145.528 27.3447 144.867C26.9491 144.472 26.7529 144.288 26.5488 144.099C26.3279 143.893 26.0992 143.681 25.665 143.247C25.2181 142.8 25.0011 142.556 24.7959 142.324C24.6161 142.121 24.4484 141.93 24.0654 141.547C23.7078 141.189 23.5275 141.045 23.3252 140.883C23.0714 140.679 22.7932 140.455 22.3252 139.987C21.8605 139.523 21.6361 139.248 21.4316 138.996C21.2662 138.793 21.1207 138.612 20.7656 138.257C20.4074 137.899 20.2264 137.751 20.0244 137.585C19.7765 137.381 19.5065 137.159 19.0449 136.697C18.5867 136.239 18.3642 135.973 18.1592 135.727C17.9893 135.523 17.8369 135.339 17.4756 134.978C17.0914 134.593 16.8973 134.417 16.6934 134.232C16.4673 134.027 16.2307 133.813 15.7949 133.377C15.3467 132.929 15.126 132.674 14.9219 132.439C14.7462 132.238 14.5827 132.051 14.2119 131.685C13.8282 131.306 13.6347 131.132 13.4277 130.945C13.1984 130.739 12.9612 130.523 12.5254 130.087C12.1091 129.671 11.9013 129.458 11.6963 129.248C11.4965 129.043 11.2988 128.841 10.8955 128.438C10.5209 128.063 10.3298 127.896 10.125 127.717C9.88995 127.511 9.64047 127.292 9.19531 126.847C8.72734 126.379 8.50306 126.101 8.2998 125.848C8.13816 125.646 7.99722 125.469 7.64551 125.117C7.2709 124.743 7.07984 124.577 6.875 124.397C6.63989 124.192 6.39055 123.973 5.94531 123.527C5.53218 123.114 5.32684 122.907 5.12305 122.7C4.92189 122.497 4.72219 122.293 4.31543 121.887C3.57243 121.144 2.95494 120.121 2.53516 119.095C2.14705 118.146 1.78223 116.97 1.78223 115.87V113.431C1.78223 112.772 1.8039 112.425 1.8252 112.099C1.84392 111.812 1.8623 111.546 1.8623 110.99C1.86231 110.367 1.86926 110.047 1.87695 109.734C1.88427 109.437 1.8916 109.147 1.8916 108.561C1.8916 107.95 1.89397 107.639 1.89648 107.332C1.89896 107.03 1.90234 106.729 1.90234 106.131C1.90234 105.563 1.88829 105.286 1.87402 104.996C1.8583 104.676 1.8418 104.342 1.8418 103.7C1.8418 103.077 1.84974 102.759 1.85742 102.448C1.86473 102.152 1.87207 101.862 1.87207 101.271C1.87207 100.673 1.86722 100.378 1.8623 100.079C1.85723 99.7704 1.85156 99.4579 1.85156 98.8408C1.85156 98.2606 1.84268 97.9747 1.83301 97.6797C1.82268 97.3648 1.81152 97.0398 1.81152 96.4102V93.9805C1.81152 93.3324 1.83112 92.9931 1.84961 92.6709C1.86612 92.3832 1.88183 92.1124 1.88184 91.5508V89.1201C1.88183 88.5593 1.86436 88.293 1.8457 88.0098C1.8244 87.6863 1.80176 87.3447 1.80176 86.6904C1.80176 86.0174 1.83334 85.6608 1.86328 85.3301C1.88824 85.0544 1.9121 84.8029 1.91211 84.2607C1.91211 83.6938 1.89635 83.4225 1.87988 83.1367C1.86138 82.8156 1.8418 82.4784 1.8418 81.8301C1.84179 81.244 1.83446 80.9563 1.82715 80.6602C1.81946 80.3487 1.81152 80.0288 1.81152 79.4004V74.54C1.81153 73.8937 1.82799 73.5619 1.84375 73.2441C1.85798 72.9571 1.87207 72.6834 1.87207 72.1104C1.87207 71.4819 1.88 71.1647 1.8877 70.8545C1.895 70.5598 1.90234 70.272 1.90234 69.6807C1.90234 69.132 1.88033 68.875 1.85742 68.5967C1.8304 68.2684 1.80176 67.9166 1.80176 67.25C1.80177 66.5894 1.82736 66.2448 1.85156 65.9209C1.8723 65.6433 1.8916 65.3845 1.8916 64.8301C1.8916 64.2511 1.88013 63.9731 1.86816 63.6836C1.85513 63.3682 1.8418 63.0412 1.8418 62.4004C1.8418 61.8276 1.8277 61.5545 1.81348 61.2676C1.79771 60.9497 1.78223 60.6174 1.78223 59.9707C1.78223 59.3115 1.80384 58.9695 1.8252 58.6465C1.84383 58.3645 1.8623 58.1008 1.8623 57.54C1.8623 56.9673 1.84821 56.6942 1.83398 56.4072C1.81822 56.0893 1.80176 55.7573 1.80176 55.1104C1.80176 54.4635 1.81822 54.1314 1.83398 53.8135C1.84821 53.5266 1.8623 53.2534 1.8623 52.6807C1.8623 52.1261 1.84207 51.8673 1.82129 51.5879C1.79708 51.2623 1.77148 50.9154 1.77148 50.25C1.77149 49.5974 1.79104 49.2608 1.80957 48.9404C1.82603 48.6559 1.8418 48.3872 1.8418 47.8203C1.8418 47.5309 1.83936 47.3167 1.83496 47.1387L1.7998 46.1543C1.79483 45.953 1.79199 45.7111 1.79199 45.3906C1.79199 44.7623 1.79993 44.4449 1.80762 44.1348C1.81492 43.84 1.82227 43.5515 1.82227 42.96C1.82226 42.3748 1.8124 42.0893 1.80273 41.7959C1.79241 41.4822 1.78223 41.16 1.78223 40.5303C1.78226 39.3846 2.25128 38.1874 2.61133 37.3311C2.98704 36.4375 3.51859 35.3203 4.31543 34.5234L4.32227 34.5166C4.76527 34.0788 5.00032 33.8625 5.2207 33.6572C5.42578 33.4662 5.62696 33.2763 6.02832 32.8701C6.40787 32.486 6.57351 32.2901 6.75586 32.0762C6.96825 31.827 7.19436 31.5644 7.65527 31.1035C8.12216 30.6366 8.39221 30.4098 8.64258 30.2002C8.85206 30.0249 9.04234 29.8668 9.41504 29.4941C9.81921 29.09 10.0122 28.8847 10.2109 28.6738C10.4221 28.4498 10.6395 28.2189 11.0752 27.7832C11.5105 27.3479 11.7409 27.131 11.9648 26.9199C12.1758 26.7211 12.381 26.5282 12.7852 26.124C13.2083 25.7009 13.4229 25.4876 13.6367 25.2764C13.8479 25.0676 14.0587 24.8602 14.4756 24.4434C14.8449 24.074 14.9984 23.8873 15.1699 23.6797C15.3784 23.4274 15.6048 23.154 16.0752 22.6836C16.5233 22.2355 16.7695 22.0144 17.0039 21.8037C17.2143 21.6146 17.4132 21.4354 17.8047 21.0439C18.2247 20.624 18.4355 20.4141 18.6455 20.2041C18.8555 19.9941 19.0653 19.7833 19.4854 19.3633C19.9304 18.9183 20.1716 18.699 20.4023 18.4893C20.6114 18.2992 20.8105 18.1182 21.2051 17.7236C21.5842 17.3445 21.7488 17.1513 21.9287 16.9414C22.1388 16.6963 22.3644 16.4345 22.8252 15.9736C23.2862 15.5126 23.5467 15.2895 23.7939 15.0791C24.0048 14.8997 24.1979 14.736 24.582 14.3564C25.4482 13.5005 25.362 13.5667 26.2549 12.6738C26.6272 12.3015 26.7822 12.1147 26.9521 11.9102C27.1574 11.6631 27.382 11.3931 27.8486 10.9209C28.3246 10.4392 28.6062 10.208 28.8672 9.99609C29.078 9.82493 29.2616 9.6769 29.625 9.31348C30.0418 8.89671 30.2493 8.68675 30.458 8.47559C30.6692 8.26188 30.8818 8.04688 31.3047 7.62402C31.7155 7.21326 31.9138 7.00751 32.1191 6.7959C32.332 6.57661 32.5481 6.35596 32.9824 5.92676C33.8299 5.08928 33.8276 5.09135 34.665 4.25391C35.066 3.85293 35.2543 3.65079 35.4492 3.44141C35.6592 3.21587 35.8765 2.98283 36.3154 2.54395L36.3203 2.53809L36.3262 2.5332C37.1063 1.76712 38.1607 1.20968 39.1123 0.80957C40.1587 0.369615 41.2837 0.125827 42.3018 0.121094V0.120117H42.332V0.121094C43.5742 0.121407 43.5033 0.140777 44.6943 0.121094C45.2757 0.111485 45.5589 0.0965644 45.8633 0.0839844C46.1866 0.0706265 46.5123 0.0605499 47.1416 0.0605469C47.7588 0.0605469 48.0714 0.0652325 48.3789 0.0703125C48.6763 0.0752247 48.9691 0.0800761 49.5615 0.0800781H51.9814C52.5432 0.0800781 52.8119 0.0643259 53.0967 0.0478516C53.4169 0.0293316 53.7541 0.0107422 54.4023 0.0107422C55.0317 0.0107473 55.3561 0.0209212 55.6699 0.03125C55.9639 0.0409267 56.2471 0.0507812 56.8223 0.0507812C57.4719 0.0507896 57.8117 0.0724309 58.1328 0.09375C58.4132 0.112368 58.6764 0.13085 59.2314 0.130859H61.6523C62.2323 0.130854 62.5154 0.120988 62.8076 0.111328C63.1202 0.100996 63.4427 0.0908203 64.0723 0.0908203C64.6523 0.0908163 64.9353 0.0809531 65.2275 0.0712891C65.5401 0.0609528 65.8626 0.0507812 66.4922 0.0507812C67.14 0.0507873 67.4768 0.0693735 67.7969 0.0878906C68.0817 0.104368 68.3504 0.120117 68.9121 0.120117C69.4984 0.120115 69.7862 0.112778 70.0811 0.105469C70.3912 0.0977805 70.7085 0.0908203 71.332 0.0908203C71.906 0.0908183 72.1865 0.0783827 72.4775 0.0664062C72.7935 0.0534034 73.1209 0.0400391 73.752 0.0400391C74.327 0.0400384 74.6072 0.0311496 74.8984 0.0214844C75.2101 0.011142 75.5324 0 76.1621 0C76.7852 1.78421e-06 77.1048 0.00794147 77.416 0.015625C77.7124 0.0229436 78.0007 0.0302734 78.582 0.0302734C79.244 0.0302778 79.5957 0.0589027 79.9229 0.0859375C80.2006 0.108894 80.4543 0.130859 80.9922 0.130859C81.5359 0.130852 81.7941 0.110675 82.0742 0.0898438C82.399 0.0656885 82.7464 0.0400391 83.4023 0.0400391C84.008 0.0400403 84.3153 0.0433809 84.6201 0.0458984C84.9201 0.0483759 85.218 0.0507802 85.8115 0.0507812C86.4486 0.0507812 86.7786 0.0662888 87.0947 0.0820312C87.3804 0.0962595 87.6539 0.110348 88.2217 0.110352H90.6318C91.7015 0.110352 92.8326 0.416811 93.8262 0.823242C94.837 1.23675 95.8566 1.83217 96.6084 2.58398C97.02 2.9956 97.2279 3.20013 97.4365 3.40625C97.6478 3.61503 97.8601 3.82597 98.2783 4.24414C98.6964 4.66223 98.9065 4.87467 99.1152 5.08594C99.3215 5.29464 99.5266 5.50224 99.9385 5.91406C100.318 6.29396 100.512 6.46184 100.716 6.63965C100.95 6.84355 101.201 7.06213 101.651 7.50684C102.112 7.96153 102.336 8.22246 102.545 8.46875C102.721 8.67566 102.879 8.86301 103.249 9.2334C103.626 9.60999 103.816 9.77418 104.021 9.95215C104.261 10.1591 104.516 10.3807 104.969 10.834C105.425 11.29 105.647 11.5494 105.853 11.7881C106.027 11.9911 106.188 12.1783 106.562 12.5469C107.394 13.3691 107.396 13.3718 108.229 14.2041C108.593 14.5682 108.779 14.7215 108.985 14.8916C109.235 15.0979 109.507 15.3219 109.969 15.7832C110.417 16.2319 110.636 16.485 110.842 16.7227C111.018 16.9266 111.182 17.1175 111.559 17.4941C111.932 17.8673 112.119 18.0261 112.323 18.2002C112.564 18.406 112.822 18.6274 113.278 19.084C113.732 19.5372 113.953 19.792 114.16 20.0312C114.338 20.2369 114.502 20.4272 114.879 20.8037C115.725 21.6499 115.704 21.6395 116.531 22.457C116.914 22.8353 117.108 23.004 117.317 23.1885C117.554 23.3973 117.802 23.6166 118.249 24.0635C119.021 24.8358 119.602 25.9154 119.999 26.8857C120.444 27.973 120.642 29.1261 120.642 30.1104V30.124C120.631 31.4566 120.612 31.3092 120.612 32.5703Z" fill="#1E1E1E"/>
<path d="M62.5524 10.7109C62.5524 11.9809 62.5424 11.9809 62.5424 13.2609C62.5424 14.5409 62.4924 14.5409 62.4924 15.8109C62.4924 17.0809 62.5324 17.0909 62.5324 18.3609C62.5324 19.6309 62.4824 19.6409 62.4824 20.9109C62.4824 22.1809 62.5724 22.1909 62.5724 23.4709C62.5724 24.7509 62.4824 24.7509 62.4824 26.0309" fill="#009E92"/>
<path d="M62.5517 10.7109C64.2817 14.1909 64.4317 18.3809 63.8217 22.1109C63.6917 23.5209 63.1817 24.8009 62.4817 26.0309C61.8817 24.9309 61.6117 23.4509 61.2317 22.3009C60.5117 18.2609 60.6917 14.4809 62.5517 10.7209V10.7109Z" fill="#1E1E1E"/>
<path d="M70.1426 10.7207C70.9926 11.5707 71.0126 11.5407 71.8626 12.3907C72.7126 13.2407 72.7226 13.2307 73.5726 14.0807C74.4226 14.9307 74.3526 15.0007 75.2026 15.8407C76.0526 16.6807 76.1326 16.6107 76.9826 17.4607C77.8326 18.3107 77.7726 18.3707 78.6226 19.2307C79.4726 20.0907 79.4826 20.0707 80.3326 20.9207C81.1826 21.7707 81.1626 21.7907 82.0226 22.6407C82.8826 23.4907 82.9226 23.4507 83.7826 24.3007C84.6426 25.1507 84.6026 25.1907 85.4526 26.0407" fill="#009E92"/>
<path d="M70.1426 10.7207C72.6926 11.7607 74.8126 13.5207 76.8926 15.2807C77.6126 15.7707 78.4626 16.5807 79.0726 17.2807C81.3626 19.7707 84.0826 22.7507 85.4626 26.0407C81.7026 24.1807 78.5926 21.7507 75.7626 18.5307C73.4226 16.3007 71.6326 13.6207 70.1526 10.7207H70.1426Z" fill="#1E1E1E"/>
<path d="M20.8906 109.33C21.7406 110.18 21.6706 110.25 22.5106 111.1C23.3506 111.95 23.4006 111.9 24.2506 112.75C25.1006 113.6 25.0806 113.61 25.9306 114.46C26.7806 115.31 26.8306 115.26 27.6806 116.11C28.5306 116.96 28.4306 117.05 29.2806 117.9C30.1306 118.75 30.1906 118.68 31.0406 119.53C31.8906 120.38 31.8906 120.38 32.7306 121.23C33.5706 122.08 33.5606 122.1 34.4106 122.95C35.2606 123.8 35.3006 123.76 36.1506 124.61C37.0006 125.46 36.9406 125.52 37.7906 126.38C38.6406 127.24 38.7106 127.17 39.5606 128.02" fill="#009E92"/>
<path d="M20.8911 109.33C23.7911 111.06 26.5111 113.04 29.0311 115.25C29.6011 115.8 30.1111 116.47 30.6911 116.98C32.6511 118.65 34.1711 120.49 35.7411 122.43C37.1911 124.05 38.3811 126.11 39.5511 128C38.6011 127.53 37.3811 126.93 36.5611 126.25C35.3111 125.19 33.8411 124.36 32.6211 123.21C30.5811 121.3 28.3711 119.61 26.7511 117.41C24.5111 114.94 22.3011 112.36 20.8711 109.34L20.8911 109.33Z" fill="#1E1E1E"/>
<path d="M87.4609 116.51C88.6209 116.51 88.621 116.41 89.791 116.41C90.961 116.41 90.9509 116.43 92.1209 116.43C93.2909 116.43 93.2809 116.5 94.4509 116.5C95.6209 116.5 95.6109 116.4 96.7809 116.4C97.9509 116.4 97.9409 116.4 99.1109 116.4C100.281 116.4 100.281 116.5 101.441 116.5C102.601 116.5 102.611 116.45 103.771 116.45C104.931 116.45 104.941 116.47 106.101 116.47C107.261 116.47 107.271 116.45 108.441 116.45C109.611 116.45 109.611 116.46 110.781 116.46" fill="#009E92"/>
<path d="M87.4609 116.509C89.7609 115.519 92.2209 115.239 94.7209 115.039C96.6709 114.719 98.7909 114.669 100.681 114.849C104.081 115.009 107.451 115.269 110.781 116.459C107.091 117.669 102.991 118.199 99.1209 118.049C96.0709 118.029 93.3509 117.939 90.3709 117.209C89.5209 116.979 88.3009 116.819 87.4609 116.509Z" fill="#1E1E1E"/>
<path d="M54.8217 10.6914C53.9717 11.5414 53.9517 11.5114 53.1017 12.3614C52.2517 13.2114 52.3017 13.2614 51.4517 14.1114C50.6017 14.9614 50.6317 14.9914 49.7817 15.8414C48.9317 16.6914 48.9317 16.6914 48.0817 17.5414C47.2317 18.3914 47.1717 18.3314 46.3217 19.1814C45.4717 20.0314 45.5017 20.0714 44.6517 20.9214C43.8017 21.7714 43.7917 21.7614 42.9417 22.6214C42.0917 23.4814 42.1117 23.5014 41.2617 24.3614C40.4117 25.2214 40.3617 25.1714 39.5117 26.0314" fill="#009E92"/>
<path d="M54.8217 10.6914C52.8317 14.9014 49.9017 18.2914 46.4117 21.3614C44.2817 23.2214 42.1317 24.9214 39.5117 26.0214C41.7417 21.5014 45.1517 17.7014 49.0517 14.5214C50.8317 13.0414 52.6617 11.5814 54.8217 10.6914Z" fill="#1E1E1E"/>
<path d="M4.93097 84.2898C3.47097 84.2898 2.26098 83.2698 2.00098 81.8098C1.97098 81.6598 1.94098 81.5697 1.91098 81.4897C1.84098 81.2897 1.78096 81.0897 1.70096 80.6797C1.55096 79.8597 1.75096 79.0298 2.26096 78.3598C2.73096 77.7298 3.43098 77.3098 4.22098 77.1698L6.59097 76.7398C7.19097 76.6298 8.38097 76.4398 8.96097 76.3298C9.53097 76.2298 9.82098 76.1698 10.101 76.1098C10.401 76.0498 10.711 75.9898 11.321 75.8798C11.901 75.7798 12.181 75.7198 12.471 75.6698C12.771 75.6098 13.071 75.5498 13.681 75.4398C14.291 75.3298 14.601 75.2898 14.911 75.2398C15.201 75.1998 15.481 75.1498 16.061 75.0498C16.631 74.9498 16.911 74.8898 17.191 74.8298C17.501 74.7698 17.801 74.6998 18.421 74.5898C18.981 74.4898 19.261 74.4298 19.541 74.3698C19.851 74.2998 20.161 74.2398 20.771 74.1298C21.411 74.0198 21.731 73.9798 22.051 73.9398C22.321 73.9098 22.601 73.8698 23.141 73.7798C23.691 73.6798 23.971 73.6198 24.241 73.5598C24.551 73.4898 24.861 73.4198 25.491 73.3098C26.091 73.1998 26.391 73.1498 26.691 73.0998C26.981 73.0498 27.271 72.9998 27.861 72.8998L30.221 72.4798C30.801 72.3798 31.081 72.3198 31.371 72.2598C31.671 72.1998 31.981 72.1398 32.581 72.0298C33.241 71.9098 33.581 71.8798 33.911 71.8498C34.181 71.8298 34.441 71.7998 34.961 71.7098L37.331 71.2798C37.881 71.1798 38.151 71.1198 38.421 71.0598C38.731 70.9898 39.051 70.9098 39.691 70.7998C40.301 70.6898 42.061 70.3898 42.061 70.3898C42.691 70.2798 43.011 70.2398 43.331 70.1998C43.611 70.1598 43.891 70.1298 44.441 70.0298C44.991 69.9298 45.271 69.8698 45.541 69.8098C45.851 69.7398 46.161 69.6698 46.801 69.5598C47.431 69.4498 47.741 69.4098 48.061 69.3598C48.341 69.3198 48.621 69.2798 49.181 69.1898C49.701 69.0998 49.951 69.0298 50.211 68.9598C50.541 68.8698 50.871 68.7798 51.541 68.6598C52.161 68.5498 52.481 68.5098 52.791 68.4598C53.071 68.4198 53.351 68.3798 53.911 68.2798C54.471 68.1798 54.761 68.1198 55.041 68.0598C55.351 67.9898 55.661 67.9298 56.281 67.8198L58.651 67.3998C59.311 67.2798 59.641 67.2498 59.971 67.2198C60.241 67.1898 60.511 67.1698 61.041 67.0698C61.651 66.9598 61.961 66.9098 62.261 66.8698C62.551 66.8198 62.841 66.7798 63.411 66.6798C63.981 66.5798 64.271 66.5198 64.561 66.4698C64.871 66.4098 65.171 66.3498 65.781 66.2398C66.361 66.1398 66.661 66.0798 66.951 66.0298C67.251 65.9698 67.551 65.9198 68.151 65.8098C68.331 65.7798 68.521 65.7598 68.701 65.7598C70.211 65.7598 71.491 66.8098 71.751 68.2598C71.821 68.6398 71.831 68.8398 71.841 69.0398C71.841 69.1398 71.851 69.2298 71.881 69.4198C72.171 71.0798 71.071 72.6698 69.421 72.9598L67.051 73.3798C66.431 73.4898 66.111 73.5298 65.801 73.5798C65.521 73.6198 65.231 73.6598 64.671 73.7598C64.151 73.8498 63.891 73.9198 63.631 73.9898C63.301 74.0798 62.981 74.1598 62.321 74.2798C61.701 74.3898 61.391 74.4298 61.071 74.4798C60.791 74.5198 60.501 74.5598 59.941 74.6598C59.381 74.7598 59.091 74.8198 58.811 74.8798C58.501 74.9398 58.201 75.0098 57.581 75.1198C56.951 75.2298 56.621 75.2698 56.301 75.3098C56.021 75.3398 55.751 75.3798 55.201 75.4798C54.651 75.5798 54.381 75.6398 54.111 75.6998C53.801 75.7698 53.481 75.8498 52.851 75.9598C52.191 76.0798 51.851 76.1098 51.521 76.1398C51.261 76.1598 50.991 76.1898 50.471 76.2798L48.101 76.6998C47.531 76.7998 47.251 76.8598 46.971 76.9198C46.661 76.9798 46.361 77.0498 45.741 77.1598C45.181 77.2598 44.911 77.3198 44.631 77.3798C44.321 77.4498 44.011 77.5198 43.381 77.6298C42.801 77.7298 42.511 77.7898 42.221 77.8398C41.921 77.8998 41.621 77.9598 41.011 78.0598C40.351 78.1798 40.011 78.2098 39.681 78.2398C39.411 78.2598 39.151 78.2898 38.631 78.3798C38.071 78.4798 37.801 78.5398 37.521 78.5998C37.211 78.6698 36.901 78.7398 36.271 78.8498L33.901 79.2598C33.361 79.3598 33.091 79.4198 32.821 79.4898C32.501 79.5698 32.191 79.6398 31.551 79.7598C30.911 79.8698 30.581 79.9098 30.261 79.9498C29.991 79.9798 29.711 80.0098 29.171 80.1098C28.591 80.2098 28.311 80.2698 28.021 80.3298C27.721 80.3898 27.411 80.4498 26.801 80.5598C26.191 80.6698 25.891 80.7197 25.581 80.7697C25.291 80.8197 25.001 80.8698 24.431 80.9698C23.891 81.0698 23.621 81.1298 23.361 81.1998C23.041 81.2798 22.721 81.3598 22.071 81.4698C21.441 81.5798 21.121 81.6198 20.801 81.6598C20.521 81.6898 20.241 81.7298 19.691 81.8298C19.121 81.9298 18.841 81.9897 18.551 82.0497C18.241 82.1097 17.941 82.1798 17.321 82.2898C16.691 82.3998 16.371 82.4398 16.051 82.4798C15.771 82.5198 15.491 82.5497 14.941 82.6497C14.371 82.7498 14.081 82.8098 13.791 82.8598C13.481 82.9198 13.181 82.9798 12.571 83.0898C12.021 83.1898 11.741 83.2498 11.471 83.3098C11.161 83.3798 10.841 83.4498 10.211 83.5598C9.58097 83.6698 9.26098 83.7098 8.94098 83.7498C8.66098 83.7898 8.38098 83.8198 7.82098 83.9198C7.19098 84.0298 6.87097 84.0698 6.55097 84.1098C6.27097 84.1498 5.99098 84.1798 5.44098 84.2798C5.25098 84.3098 5.07096 84.3298 4.89096 84.3298L4.93097 84.2898Z" fill="#E5E5E5"/>
<path d="M68.7312 67.3898C69.4112 67.3898 70.0412 67.8498 70.1612 68.5298C70.2612 69.1098 70.1912 69.1198 70.3012 69.6998C70.4412 70.4698 69.9412 71.1898 69.1712 71.3298C68.3845 71.4698 67.5945 71.6098 66.8012 71.7498C65.6212 71.9598 65.6112 71.9199 64.4212 72.1299C63.2412 72.3399 63.2512 72.4399 62.0712 72.6499C60.8912 72.8599 60.8812 72.8198 59.6912 73.0298C58.5112 73.2398 58.5112 73.2698 57.3312 73.4798C56.1512 73.6898 56.1412 73.6298 54.9512 73.8298C53.7712 74.0398 53.7812 74.0998 52.6012 74.3098C51.4212 74.5198 51.4012 74.4199 50.2212 74.6299C49.4345 74.7699 48.6446 74.9099 47.8512 75.0499C46.6712 75.2599 46.6712 75.2898 45.4912 75.4998C44.3112 75.7098 44.3212 75.7598 43.1312 75.9698C41.9512 76.1798 41.9512 76.1999 40.7712 76.4099C39.5912 76.6199 39.5712 76.5198 38.3812 76.7298C37.2012 76.9398 37.2012 76.9898 36.0212 77.1998C34.8412 77.4098 34.8312 77.3998 33.6512 77.6098C32.4712 77.8198 32.4812 77.8899 31.2912 78.0999C30.1012 78.3099 30.0912 78.2398 28.9112 78.4498C27.7312 78.6598 27.7312 78.6899 26.5512 78.8999C25.3612 79.1099 25.3612 79.0998 24.1812 79.3098C22.9912 79.5198 23.0112 79.5998 21.8212 79.8098C20.6412 80.0198 20.6312 79.9598 19.4412 80.1698C18.2612 80.3798 18.2612 80.4098 17.0812 80.6198C15.8912 80.8298 15.8812 80.7699 14.7012 80.9799C13.5112 81.1899 13.5212 81.2099 12.3312 81.4199C11.1412 81.6299 11.1512 81.6898 9.97121 81.8998C8.78121 82.1098 8.7712 82.0598 7.5812 82.2698C6.3912 82.4798 6.38121 82.4199 5.19121 82.6299C5.10121 82.6499 5.0112 82.6498 4.9312 82.6498C4.2812 82.6498 3.75121 82.2098 3.63121 81.5298C3.52121 80.9598 3.44121 80.9698 3.34121 80.3898C3.20121 79.6198 3.7512 78.9399 4.5212 78.7999C5.7012 78.5899 5.70119 78.5798 6.89119 78.3698C8.07119 78.1598 8.08119 78.1699 9.26119 77.9599C10.4412 77.7499 10.4412 77.7199 11.6212 77.5099C12.8012 77.2999 12.8012 77.2799 13.9812 77.0699C15.1612 76.8599 15.1712 76.8899 16.3512 76.6799C17.5312 76.4699 17.5312 76.4298 18.7112 76.2198C19.8912 76.0098 19.8812 75.9699 21.0612 75.7599C22.2412 75.5499 22.2512 75.6199 23.4412 75.4099C24.6212 75.1999 24.6112 75.1399 25.8012 74.9299C26.9812 74.7199 26.9912 74.7299 28.1712 74.5199C29.3512 74.3099 29.3512 74.2998 30.5312 74.0898C31.7112 73.8798 31.7112 73.8599 32.8912 73.6499C34.0712 73.4399 34.0912 73.5398 35.2812 73.3298C36.4612 73.1198 36.4612 73.1099 37.6512 72.8999C38.8312 72.6899 38.8212 72.6298 40.0112 72.4198C41.1912 72.2098 41.2012 72.2199 42.3812 72.0099C43.5712 71.7999 43.5812 71.8599 44.7612 71.6499C45.9412 71.4399 45.9412 71.3899 47.1212 71.1799C48.3112 70.9699 48.3112 71.0198 49.5012 70.8098C50.6912 70.5998 50.6712 70.4898 51.8512 70.2798C53.0312 70.0698 53.0412 70.1199 54.2312 69.9099C55.4112 69.6999 55.4112 69.6598 56.5912 69.4498C57.3845 69.3098 58.1745 69.1698 58.9612 69.0298C60.1512 68.8198 60.1612 68.9098 61.3512 68.6998C62.5412 68.4898 62.5412 68.5099 63.7312 68.2999C64.9212 68.0899 64.9212 68.0698 66.1012 67.8598C67.2812 67.6498 67.2912 67.6399 68.4812 67.4299C68.5712 67.4099 68.6512 67.4099 68.7412 67.4099M68.7312 64.0898C68.4512 64.0898 68.1712 64.1099 67.8912 64.1599C67.2812 64.2699 66.9812 64.3299 66.6712 64.3799C66.3812 64.4299 66.0912 64.4898 65.5112 64.5898C64.8912 64.6998 64.5812 64.7599 64.2712 64.8199C63.9912 64.8699 63.7012 64.9298 63.1412 65.0298C62.5812 65.1298 62.3012 65.1698 62.0212 65.2198C61.7112 65.2698 61.3912 65.3199 60.7612 65.4299C60.2912 65.5099 60.0812 65.5298 59.8212 65.5598C59.5012 65.5898 59.0912 65.6299 58.3712 65.7599L57.1812 65.9698L56.0012 66.1799C55.3512 66.2999 55.0312 66.3599 54.7112 66.4299C54.4412 66.4899 54.1812 66.5398 53.6412 66.6398C53.1212 66.7298 52.8512 66.7699 52.5912 66.7999C52.2612 66.8399 51.9312 66.8899 51.2712 67.0099C50.5212 67.1399 50.1212 67.2498 49.7912 67.3398C49.5412 67.4098 49.3612 67.4599 48.9212 67.5399C48.4012 67.6299 48.1312 67.6698 47.8712 67.6998C47.5412 67.7398 47.2012 67.7899 46.5412 67.9099C45.8812 68.0299 45.5512 68.0999 45.2212 68.1799C44.9612 68.2399 44.7012 68.2998 44.1812 68.3898C43.6712 68.4798 43.4112 68.5099 43.1512 68.5499C42.8112 68.5899 42.4712 68.6399 41.8012 68.7599C41.2212 68.8599 40.9312 68.9099 40.6412 68.9599C40.3412 69.0099 40.0312 69.0598 39.4312 69.1698C38.7512 69.2898 38.3912 69.3698 38.0812 69.4498C37.8312 69.5098 37.5812 69.5699 37.0812 69.6599C36.4812 69.7699 36.1812 69.8199 35.8812 69.8799C35.5912 69.9299 35.3012 69.9898 34.7112 70.0898C34.2512 70.1698 34.0612 70.1899 33.7912 70.2099C33.4612 70.2399 33.0512 70.2799 32.3212 70.4099C31.6912 70.5199 31.3812 70.5798 31.0712 70.6398C30.7912 70.6998 30.5112 70.7499 29.9612 70.8499C29.3612 70.9599 29.0612 71.0099 28.7612 71.0699C28.4712 71.1199 28.1812 71.1798 27.5912 71.2798C27.0112 71.3798 26.7312 71.4298 26.4412 71.4798C26.1412 71.5298 25.8312 71.5798 25.2212 71.6898C24.5512 71.8098 24.1912 71.8899 23.8812 71.9599C23.6312 72.0199 23.3712 72.0798 22.8612 72.1698C22.3612 72.2598 22.1312 72.2899 21.8612 72.3199C21.5412 72.3599 21.1712 72.3999 20.4812 72.5199C19.8312 72.6399 19.5012 72.7098 19.1812 72.7798C18.9212 72.8398 18.6512 72.8899 18.1212 72.9899C17.4812 73.0999 17.1612 73.1699 16.8312 73.2399C16.5612 73.2999 16.3012 73.3498 15.7612 73.4498C15.2112 73.5498 14.9412 73.5899 14.6612 73.6299C14.3412 73.6799 14.0212 73.7298 13.3812 73.8398C12.7612 73.9498 12.4512 74.0099 12.1412 74.0699C11.8612 74.1299 11.5812 74.1798 11.0212 74.2798C10.3912 74.3898 10.0712 74.4599 9.76119 74.5199C9.49119 74.5799 9.21121 74.6298 8.66121 74.7298C8.08121 74.8298 7.80119 74.8799 7.51119 74.9299C7.21119 74.9799 6.90122 75.0298 6.29122 75.1398C5.69122 75.2498 5.39121 75.2998 5.09121 75.3598C4.80121 75.4098 4.51119 75.4699 3.92119 75.5699C1.35119 76.0299 -0.378784 78.4598 0.0712164 80.9898C0.161216 81.4798 0.251196 81.7698 0.331196 82.0298L0.351215 82.0898C0.351215 82.0898 0.361204 82.1399 0.371204 82.1699C0.761204 84.3799 2.63121 85.9698 4.91121 85.9698C5.19121 85.9698 5.47121 85.9498 5.75121 85.8998C6.27121 85.8098 6.53122 85.7798 6.79122 85.7398C7.13122 85.6998 7.47119 85.6498 8.14119 85.5298C8.66119 85.4398 8.9212 85.3998 9.1812 85.3698C9.5212 85.3298 9.8512 85.2799 10.5212 85.1599C11.1912 85.0399 11.5212 84.9699 11.8512 84.8899C12.1112 84.8299 12.3612 84.7698 12.8812 84.6798C13.5012 84.5698 13.8112 84.5099 14.1212 84.4499C14.4012 84.3999 14.6812 84.3398 15.2512 84.2398C15.7612 84.1498 16.0212 84.1199 16.2812 84.0799C16.6212 84.0399 16.9612 83.9898 17.6312 83.8698C18.2712 83.7598 18.5912 83.6898 18.9112 83.6198C19.1812 83.5598 19.4512 83.5099 20.0012 83.4099C20.5112 83.3199 20.7612 83.2899 21.0212 83.2599C21.3412 83.2199 21.7012 83.1798 22.3812 83.0598C23.0812 82.9398 23.4412 82.8498 23.7712 82.7698C24.0412 82.6998 24.2512 82.6499 24.7412 82.5699C25.3112 82.4699 25.6012 82.4198 25.8912 82.3698C26.2012 82.3198 26.5012 82.2699 27.1212 82.1599C27.7512 82.0499 28.0612 81.9899 28.3712 81.9199C28.6512 81.8599 28.9212 81.8098 29.4812 81.7098C29.9712 81.6198 30.1912 81.5999 30.4712 81.5699C30.8012 81.5299 31.1712 81.4898 31.8712 81.3698C32.5612 81.2498 32.9212 81.1599 33.2412 81.0799C33.5112 81.0099 33.7312 80.9598 34.2212 80.8698C34.8012 80.7698 35.0912 80.7199 35.3912 80.6699C35.6912 80.6199 35.9912 80.5698 36.6012 80.4598C37.2612 80.3398 37.5812 80.2698 37.9112 80.1998C38.1712 80.1398 38.4312 80.0899 38.9612 79.9899C39.4112 79.9099 39.6012 79.8898 39.8712 79.8698C40.2012 79.8398 40.6112 79.7998 41.3512 79.6698C41.9712 79.5598 42.2712 79.4999 42.5812 79.4398C42.8612 79.3898 43.1512 79.3298 43.7112 79.2298C44.3712 79.1098 44.7012 79.0398 45.0312 78.9698C45.2912 78.9098 45.5512 78.8499 46.0612 78.7599C46.7012 78.6499 47.0212 78.5799 47.3312 78.5099C47.6012 78.4499 47.8712 78.3999 48.4212 78.2999L49.7312 78.0699L50.7912 77.8799C51.2412 77.7999 51.4312 77.7799 51.7012 77.7599C52.0312 77.7299 52.4412 77.6898 53.1812 77.5598C53.8612 77.4398 54.2212 77.3598 54.5312 77.2798C54.7812 77.2198 55.0312 77.1599 55.5312 77.0699C56.0312 76.9799 56.2912 76.9498 56.5412 76.9198C56.8612 76.8798 57.2312 76.8398 57.9112 76.7198C58.5512 76.6098 58.8712 76.5398 59.1812 76.4798C59.4512 76.4198 59.7212 76.3699 60.2712 76.2699C60.8012 76.1799 61.0712 76.1399 61.3412 76.0999C61.6712 76.0499 62.0012 76.0098 62.6512 75.8898C63.3812 75.7598 63.7812 75.6499 64.1012 75.5699C64.3612 75.4999 64.5512 75.4498 65.0012 75.3698C65.5312 75.2798 65.8012 75.2398 66.0712 75.1998C66.4012 75.1498 66.7312 75.1099 67.3812 74.9899L68.5412 74.7798L69.7412 74.5699C72.2912 74.1199 74.0012 71.6698 73.5412 69.1198C73.5212 69.0298 73.5212 69.0199 73.5212 68.9299C73.5112 68.6799 73.4912 68.3998 73.4112 67.9498C73.0112 65.7098 71.0512 64.0898 68.7412 64.0898H68.7312Z" fill="#1E1E1E"/>
<path d="M63.9695 148.061C62.7095 148.061 61.5995 147.281 61.1195 146.081L60.2495 143.871C60.0295 143.321 59.6095 142.211 59.3995 141.661C59.1895 141.131 59.0795 140.861 58.9695 140.601C58.8495 140.321 58.7295 140.031 58.5095 139.461C58.2995 138.921 58.1895 138.661 58.0795 138.391C57.9595 138.111 57.8495 137.831 57.6195 137.261C57.3995 136.691 57.2895 136.401 57.1895 136.111C57.0895 135.841 56.9995 135.571 56.7895 135.041C56.5795 134.511 56.4695 134.251 56.3595 133.991C56.2395 133.701 56.1095 133.421 55.8895 132.841C55.6895 132.321 55.5695 132.061 55.4595 131.801C55.3295 131.511 55.2095 131.221 54.9795 130.641C54.7495 130.041 54.6495 129.741 54.5495 129.431C54.4695 129.171 54.3795 128.911 54.1795 128.401C53.9795 127.881 53.8595 127.631 53.7495 127.381C53.6195 127.091 53.4895 126.801 53.2595 126.211C53.0395 125.651 52.6195 124.541 52.4095 123.991L51.5395 121.781C51.3295 121.241 51.2195 120.981 51.1095 120.711C50.9895 120.431 50.8795 120.151 50.6495 119.581C50.4095 118.961 50.3095 118.641 50.2195 118.321C50.1495 118.071 50.0695 117.821 49.8795 117.331L49.0095 115.121C48.8095 114.611 48.6995 114.361 48.5795 114.111C48.4495 113.821 48.3095 113.531 48.0795 112.931C47.8595 112.371 47.2195 110.711 47.2195 110.711C46.9895 110.121 46.8895 109.821 46.7895 109.521C46.6995 109.261 46.6095 108.991 46.4095 108.481C46.2095 107.961 46.0895 107.701 45.9795 107.451C45.8495 107.161 45.7195 106.871 45.4895 106.291C45.2595 105.701 45.1595 105.411 45.0595 105.111C44.9695 104.851 44.8795 104.581 44.6795 104.061C44.4895 103.581 44.3695 103.351 44.2595 103.121C44.1095 102.821 43.9495 102.521 43.7095 101.891C43.4795 101.301 43.3795 101.011 43.2795 100.711C43.1895 100.451 43.0995 100.181 42.8895 99.6606C42.6795 99.1306 42.5695 98.8706 42.4595 98.6106C42.3395 98.3206 42.2095 98.0406 41.9795 97.4606L41.1095 95.2506C40.8695 94.6406 40.7695 94.3206 40.6795 94.0006C40.5995 93.7506 40.5295 93.4906 40.3295 93.0006C40.1095 92.4306 39.9995 92.1406 39.8995 91.8506C39.7995 91.5806 39.6995 91.3106 39.4895 90.7706C39.2795 90.2306 39.1695 89.9606 39.0595 89.6906C38.9395 89.4106 38.8295 89.1306 38.6095 88.5606C38.3895 88.0106 38.2795 87.7406 38.1695 87.4606C38.0595 87.1806 37.9495 86.9006 37.7295 86.3506C37.5295 85.8506 37.4195 85.6006 37.2995 85.3506C37.1595 85.0606 37.0195 84.7606 36.7895 84.1606C36.5595 83.5606 36.4595 83.2506 36.3595 82.9506C36.2795 82.6906 36.1895 82.4306 35.9895 81.9206L34.2495 77.4906C34.0195 76.9106 33.9195 76.6106 33.8095 76.3206C33.7195 76.0506 33.6195 75.7906 33.4195 75.2606C33.2295 74.7706 33.1095 74.5406 32.9995 74.3006C32.8495 74.0006 32.6995 73.7006 32.4595 73.0806C32.2295 72.5006 32.1295 72.2006 32.0295 71.9106C31.9395 71.6406 31.8395 71.3806 31.6395 70.8506C31.4295 70.3206 31.3195 70.0606 31.2095 69.7906C31.0895 69.5106 30.9695 69.2206 30.7395 68.6506C30.5095 68.0506 30.4095 67.7506 30.3095 67.4406C30.2195 67.1806 30.1395 66.9206 29.9395 66.4106C29.7395 65.9006 29.6195 65.6506 29.5095 65.3906C29.3795 65.1006 29.2395 64.8106 29.0095 64.2106C28.7695 63.5906 28.6695 63.2706 28.5795 62.9506C28.5095 62.7006 28.4295 62.4506 28.2395 61.9606L27.3695 59.7506C27.1595 59.2206 27.0495 58.9606 26.9395 58.6906C26.8195 58.4006 26.6995 58.1206 26.4695 57.5406C26.2695 57.0206 26.1495 56.7706 26.0395 56.5106C25.9095 56.2206 25.7795 55.9306 25.5495 55.3406C25.3395 54.7906 25.2295 54.5206 25.1195 54.2506C25.0095 53.9706 24.8895 53.6906 24.6695 53.1306C24.4295 52.5106 24.3295 52.1906 24.2395 51.8706C24.1695 51.6206 24.0895 51.3706 23.8995 50.8806C23.6895 50.3606 23.5795 50.1006 23.4695 49.8406C23.3395 49.5506 23.2195 49.2606 22.9895 48.6806L22.1295 46.4606C21.9295 45.9506 21.8195 45.7006 21.6995 45.4606C21.5595 45.1706 21.4295 44.8706 21.1895 44.2706C20.9495 43.6706 20.8595 43.3606 20.7595 43.0506C20.6795 42.7906 20.5895 42.5306 20.3995 42.0206C20.1895 41.4806 20.0795 41.2206 19.9695 40.9506C19.8495 40.6706 19.7295 40.3906 19.5095 39.8206C19.2895 39.2606 19.1795 38.9706 19.0695 38.6906C18.9695 38.4206 18.8595 38.1406 18.6495 37.6006C18.4495 37.1006 18.3395 36.8506 18.2195 36.6006C18.0795 36.3106 17.9395 36.0106 17.7095 35.4106C17.4795 34.8106 17.3795 34.5106 17.2695 34.2106C17.1795 33.9506 17.0995 33.6806 16.8895 33.1706C16.6795 32.6406 16.5695 32.3806 16.4595 32.1106C16.3395 31.8206 16.2195 31.5406 15.9895 30.9606C15.7595 30.3706 15.6595 30.0606 15.5495 29.7606C15.4595 29.5006 15.3695 29.2306 15.1695 28.7106C14.9595 28.1706 14.8495 27.9006 14.7395 27.6306C14.6195 27.3506 14.5095 27.0606 14.2795 26.5006C13.9895 25.7506 13.9895 24.9206 14.2995 24.1706C14.6095 23.3906 15.2295 22.7806 15.9995 22.4806C16.3395 22.3506 16.5195 22.2906 16.6995 22.2406C16.7995 22.2106 16.9095 22.1806 17.1095 22.1006C17.4595 21.9606 17.8295 21.8906 18.2095 21.8906C19.4495 21.8906 20.5595 22.6606 21.0295 23.8506L21.8895 26.0606C22.0995 26.5906 22.2095 26.8506 22.3195 27.1106C22.4395 27.3906 22.5695 27.6806 22.7895 28.2606L23.6595 30.4706L25.3895 34.8906C25.5895 35.3906 25.6995 35.6306 25.8195 35.8706C25.9595 36.1706 26.0995 36.4606 26.3395 37.0706C26.5895 37.7106 26.6895 38.0606 26.7695 38.3706C26.8395 38.6206 26.8995 38.8606 27.0895 39.3306C27.2895 39.8306 27.3995 40.0806 27.5195 40.3306C27.6595 40.6206 27.7895 40.9206 28.0295 41.5206C28.2495 42.0906 28.3595 42.3806 28.4595 42.6706C28.5595 42.9406 28.6595 43.2106 28.8595 43.7406C29.0595 44.2606 29.1795 44.5206 29.2895 44.7806C29.4095 45.0706 29.5395 45.3506 29.7695 45.9406C30.0095 46.5506 30.1095 46.8606 30.1995 47.1706C30.2795 47.4306 30.3595 47.6806 30.5495 48.1806C30.7595 48.7106 30.8695 48.9706 30.9795 49.2406C31.0995 49.5206 31.2195 49.8106 31.4495 50.3806C31.6495 50.8906 31.7695 51.1506 31.8795 51.4006C32.0095 51.6906 32.1395 51.9806 32.3695 52.5706C32.6095 53.1806 32.7095 53.4906 32.7995 53.8006C32.8795 54.0606 32.9595 54.3106 33.1495 54.8106C33.3395 55.2906 33.4595 55.5306 33.5695 55.7606C33.7195 56.0606 33.8695 56.3606 34.1195 56.9906C34.3495 57.5706 34.4495 57.8606 34.5495 58.1606C34.6395 58.4306 34.7395 58.6906 34.9395 59.2206C35.1695 59.8106 35.2695 60.1006 35.3695 60.4006C35.4595 60.6606 35.5495 60.9306 35.7595 61.4506C35.9495 61.9306 36.0695 62.1706 36.1795 62.4006C36.3295 62.7006 36.4795 63.0006 36.7195 63.6206C36.9595 64.2206 37.0495 64.5306 37.1495 64.8306C37.2295 65.0906 37.3195 65.3506 37.5195 65.8606C37.7495 66.4506 37.8495 66.7506 37.9495 67.0506C38.0395 67.3106 38.1295 67.5806 38.3295 68.1006C38.5395 68.6306 38.6495 68.8906 38.7595 69.1606C38.8795 69.4506 38.9995 69.7306 39.2295 70.3106C39.4495 70.8706 39.5595 71.1606 39.6595 71.4406C39.7595 71.7106 39.8695 71.9906 40.0795 72.5306C40.2995 73.1006 40.4095 73.3906 40.5195 73.6806C40.6195 73.9506 40.7195 74.2206 40.9295 74.7606C41.1295 75.2606 41.2395 75.5106 41.3595 75.7506C41.4995 76.0406 41.6395 76.3406 41.8795 76.9506C42.0995 77.5206 42.2095 77.8006 42.3195 78.0806C42.4195 78.3506 42.5295 78.6306 42.7395 79.1706C42.9595 79.7306 43.0695 80.0206 43.1695 80.3006C43.2695 80.5706 43.3795 80.8506 43.5895 81.3906C43.7895 81.8906 43.8995 82.1406 44.0195 82.3906C44.1595 82.6806 44.2895 82.9806 44.5295 83.5806C44.7795 84.2206 44.8795 84.5806 44.9595 84.8906C45.0295 85.1506 45.0895 85.3806 45.2695 85.8406C45.4595 86.3406 45.5795 86.5806 45.6995 86.8206C45.8395 87.1206 45.9895 87.4106 46.2295 88.0306C46.4595 88.6106 46.5595 88.9106 46.6695 89.2006C46.7595 89.4706 46.8595 89.7306 47.0695 90.2606C47.2695 90.7606 47.3795 91.0106 47.4995 91.2506C47.6395 91.5506 47.7795 91.8406 48.0195 92.4506C48.2595 93.0706 48.3595 93.4006 48.4495 93.7206C48.5195 93.9706 48.5895 94.2206 48.7795 94.7006C48.9795 95.2006 49.0895 95.4506 49.2095 95.7006C49.3495 95.9906 49.4795 96.2906 49.7195 96.8906C49.9495 97.4706 50.0495 97.7606 50.1495 98.0606C50.2395 98.3306 50.3395 98.5906 50.5395 99.1206C50.7395 99.6406 50.8595 99.9006 50.9695 100.151C51.0995 100.441 51.2195 100.731 51.4495 101.311C51.6695 101.881 51.7795 102.161 51.8895 102.441C51.9895 102.711 52.0995 102.991 52.3095 103.531C52.5295 104.091 52.9595 105.211 53.1695 105.751C53.3795 106.281 53.4895 106.551 53.5995 106.811C53.7195 107.091 53.8395 107.381 54.0595 107.951L55.7795 112.381C56.0095 112.981 56.1095 113.281 56.2095 113.591C56.2995 113.851 56.3795 114.111 56.5795 114.621C56.7995 115.191 56.9095 115.471 57.0195 115.761C57.1195 116.031 57.2195 116.301 57.4395 116.841C57.6295 117.321 57.7495 117.551 57.8595 117.781C58.0095 118.081 58.1695 118.381 58.4095 119.011C58.6495 119.621 58.7495 119.931 58.8395 120.241C58.9195 120.501 58.9995 120.761 59.1995 121.261C59.4295 121.841 59.5295 122.121 59.6395 122.421C59.7395 122.691 59.8395 122.961 60.0395 123.491C60.2495 124.031 60.3595 124.301 60.4695 124.571C60.5895 124.851 60.6995 125.131 60.9295 125.701C61.1595 126.281 61.2595 126.571 61.3695 126.861C61.4695 127.131 61.5595 127.401 61.7695 127.931C61.9695 128.451 62.0895 128.711 62.1995 128.961C62.3295 129.251 62.4595 129.541 62.6895 130.121C62.9095 130.681 63.0195 130.971 63.1195 131.251C63.2195 131.521 63.3295 131.801 63.5395 132.341C63.7495 132.881 63.8595 133.151 63.9695 133.411C64.0895 133.691 64.1995 133.981 64.4295 134.551C64.6595 135.141 64.7595 135.451 64.8695 135.751C64.9595 136.011 65.0495 136.281 65.2495 136.791C65.4495 137.291 65.5595 137.541 65.6795 137.781C65.8195 138.081 65.9595 138.371 66.1995 138.981C66.4195 139.551 66.5295 139.841 66.6395 140.121C66.7395 140.391 66.8395 140.671 67.0595 141.211C67.2695 141.751 67.3795 142.021 67.4895 142.291C67.6095 142.571 67.7195 142.851 67.9395 143.421C68.2395 144.191 68.2195 145.031 67.8795 145.781C67.5495 146.521 66.9495 147.091 66.1895 147.391C65.9895 147.471 65.8695 147.531 65.7595 147.571C65.5895 147.641 65.4495 147.711 65.1095 147.841C64.7595 147.981 64.3995 148.051 64.0295 148.051L63.9695 148.061Z" fill="#E5E5E5"/>
<path d="M18.1505 23.5204C18.7005 23.5204 19.2105 23.8704 19.4305 24.4404C19.8605 25.5504 19.8605 25.5504 20.2905 26.6504C20.7205 27.7604 20.7605 27.7404 21.1905 28.8504C21.6205 29.9604 21.6305 29.9504 22.0605 31.0604C22.3472 31.8004 22.6372 32.5371 22.9305 33.2704C23.2238 34.0037 23.5105 34.7404 23.7905 35.4804C24.2205 36.5904 24.3005 36.5604 24.7405 37.6604C25.1705 38.7704 25.0605 38.8104 25.4905 39.9204C25.9205 41.0304 25.9905 41.0004 26.4305 42.1104C26.8605 43.2204 26.8305 43.2304 27.2705 44.3304C27.7005 45.4404 27.7405 45.4204 28.1805 46.5304C28.6105 47.6404 28.5305 47.6704 28.9705 48.7704C29.4005 49.8804 29.4405 49.8604 29.8705 50.9704C30.3005 52.0804 30.3605 52.0504 30.7905 53.1604C31.2205 54.2704 31.1405 54.3004 31.5805 55.4104C32.0105 56.5204 32.1205 56.4804 32.5505 57.5904C32.9805 58.7004 32.9405 58.7104 33.3805 59.8204C33.8105 60.9304 33.7705 60.9504 34.2005 62.0504C34.6305 63.1604 34.7305 63.1204 35.1705 64.2204C35.6005 65.3304 35.5405 65.3504 35.9705 66.4604C36.4005 67.5704 36.3505 67.5904 36.7905 68.7004C37.2205 69.8104 37.2605 69.7904 37.6905 70.9004C38.1205 72.0104 38.1105 72.0104 38.5405 73.1204C38.9705 74.2304 38.9505 74.2404 39.3805 75.3404C39.8105 76.4504 39.8905 76.4204 40.3205 77.5304C40.7505 78.6404 40.7405 78.6404 41.1705 79.7504C41.6005 80.8604 41.5905 80.8604 42.0205 81.9704C42.4505 83.0804 42.5205 83.0504 42.9605 84.1604C43.3905 85.2704 43.2705 85.3204 43.7005 86.4304C44.1305 87.5404 44.2205 87.5104 44.6505 88.6104C45.0805 89.7204 45.0505 89.7304 45.4805 90.8404C45.9105 91.9504 45.9905 91.9204 46.4205 93.0304C46.8505 94.1404 46.7505 94.1804 47.1905 95.2904C47.6205 96.4004 47.6905 96.3704 48.1305 97.4804C48.5605 98.5904 48.5305 98.6004 48.9605 99.7104C49.3905 100.82 49.4405 100.8 49.8705 101.9C50.3005 103.01 50.2905 103.01 50.7305 104.12C51.1605 105.23 51.1505 105.23 51.5905 106.34C52.0205 107.45 52.0505 107.44 52.4805 108.54C52.7671 109.28 53.0538 110.02 53.3405 110.76C53.7705 111.87 53.7705 111.87 54.2005 112.98C54.6305 114.09 54.5705 114.11 55.0105 115.22C55.4405 116.33 55.4305 116.34 55.8605 117.44C56.2905 118.55 56.4005 118.51 56.8305 119.61C57.2605 120.72 57.1905 120.75 57.6205 121.86C58.0505 122.97 58.0305 122.98 58.4605 124.09C58.8905 125.2 58.9205 125.19 59.3505 126.3C59.7805 127.41 59.7505 127.42 60.1805 128.53C60.6105 129.64 60.6605 129.62 61.1005 130.73C61.5305 131.84 61.5205 131.84 61.9505 132.95C62.3805 134.06 62.4105 134.05 62.8405 135.16C63.2705 136.27 63.2205 136.29 63.6505 137.4C64.0805 138.51 64.1605 138.48 64.6005 139.59C65.0405 140.7 65.0205 140.71 65.4505 141.82C65.8905 142.93 65.9005 142.93 66.3405 144.04C66.6205 144.77 66.2505 145.59 65.5205 145.87C64.9805 146.09 64.9905 146.11 64.4405 146.33C64.2805 146.39 64.1205 146.42 63.9605 146.42C63.4005 146.42 62.8705 146.05 62.6505 145.49C62.2205 144.38 62.2105 144.39 61.7805 143.28C61.3505 142.17 61.3605 142.17 60.9305 141.06C60.5005 139.95 60.4705 139.97 60.0405 138.86C59.6105 137.75 59.5905 137.76 59.1505 136.66C58.7205 135.55 58.7505 135.54 58.3105 134.44C57.8805 133.33 57.8405 133.35 57.4105 132.24C56.9805 131.13 56.9305 131.15 56.5005 130.04C56.0705 128.93 56.1305 128.91 55.7005 127.8C55.2705 126.69 55.2105 126.72 54.7805 125.61C54.3505 124.5 54.3605 124.5 53.9205 123.39C53.4905 122.28 53.4805 122.29 53.0505 121.18C52.6205 120.07 52.5905 120.08 52.1605 118.98C51.7305 117.87 51.8205 117.84 51.3905 116.73C50.9605 115.62 50.9505 115.62 50.5205 114.52C50.0905 113.41 50.0305 113.44 49.5905 112.33C49.1605 111.22 49.1705 111.22 48.7305 110.11C48.3005 109 48.3505 108.98 47.9205 107.88C47.4905 106.77 47.4405 106.79 47.0005 105.69C46.5705 104.58 46.6105 104.56 46.1805 103.46C45.7505 102.35 45.6405 102.39 45.2105 101.29C44.7805 100.18 44.8205 100.16 44.3905 99.0604C43.9605 97.9504 43.9205 97.9704 43.4805 96.8604C43.1938 96.1204 42.9038 95.3837 42.6105 94.6504C42.1805 93.5404 42.2605 93.5104 41.8305 92.4004C41.4005 91.2904 41.4205 91.2804 40.9905 90.1704C40.5605 89.0604 40.5405 89.0704 40.1005 87.9604C39.6705 86.8504 39.6605 86.8604 39.2205 85.7504C38.7905 84.6404 38.7105 84.6704 38.2805 83.5604C37.8505 82.4504 37.9105 82.4304 37.4805 81.3204C37.0505 80.2104 37.0405 80.2104 36.6105 79.1104C36.3238 78.3704 36.0338 77.6304 35.7405 76.8904C35.3105 75.7804 35.3505 75.7704 34.9105 74.6604C34.4805 73.5504 34.3805 73.5904 33.9505 72.4904C33.5205 71.3804 33.5605 71.3704 33.1205 70.2604C32.6905 69.1504 32.6605 69.1704 32.2205 68.0604C31.7905 66.9504 31.8505 66.9304 31.4105 65.8204C30.9805 64.7104 30.9205 64.7404 30.4805 63.6304C30.0505 62.5204 30.1405 62.4904 29.7105 61.3804C29.4238 60.6404 29.1338 59.9037 28.8405 59.1704C28.4105 58.0604 28.3705 58.0704 27.9405 56.9704C27.5105 55.8604 27.4605 55.8804 27.0205 54.7704C26.5905 53.6604 26.5705 53.6704 26.1305 52.5604C25.7005 51.4504 25.7905 51.4104 25.3605 50.3104C24.9305 49.2004 24.8805 49.2204 24.4505 48.1104C24.0205 47.0004 24.0205 47.0004 23.5905 45.8904C23.1605 44.7804 23.0905 44.8104 22.6505 43.7004C22.2205 42.5904 22.2905 42.5604 21.8505 41.4504C21.4205 40.3404 21.3905 40.3504 20.9605 39.2404C20.5305 38.1304 20.5405 38.1304 20.1105 37.0204C19.6805 35.9104 19.6005 35.9404 19.1705 34.8304C18.7405 33.7204 18.7905 33.7004 18.3605 32.5904C17.9305 31.4804 17.8905 31.4904 17.4605 30.3804C17.0205 29.2704 17.0805 29.2504 16.6405 28.1304C16.2005 27.0104 16.1905 27.0304 15.7505 25.9104C15.4705 25.1804 15.8005 24.3104 16.5305 24.0304C17.0805 23.8204 17.1005 23.8704 17.6405 23.6504C17.8005 23.5904 17.9705 23.5604 18.1305 23.5604M18.1505 20.2204C17.5705 20.2204 17.0005 20.3304 16.4505 20.5404C16.3205 20.5904 16.2605 20.6104 16.1905 20.6304C15.9605 20.7004 15.7205 20.7704 15.3405 20.9204C14.1605 21.3804 13.2005 22.3304 12.7205 23.5304C12.2605 24.6704 12.2505 25.9304 12.7005 27.0804C12.9305 27.6604 13.0505 27.9504 13.1705 28.2404C13.2805 28.5004 13.3905 28.7704 13.5905 29.3004C13.7805 29.7804 13.8605 30.0304 13.9405 30.2704C14.0405 30.5704 14.1605 30.9104 14.4005 31.5504C14.6305 32.1504 14.7605 32.4504 14.8905 32.7404C15.0005 32.9904 15.1005 33.2404 15.3005 33.7604C15.4905 34.2404 15.5705 34.4804 15.6505 34.7204C15.7505 35.0204 15.8705 35.3704 16.1105 36.0004C16.3705 36.6504 16.5205 36.9904 16.6605 37.2904C16.7805 37.5404 16.8705 37.7304 17.0505 38.1904C17.2605 38.7304 17.3605 38.9904 17.4605 39.2604C17.5705 39.5504 17.6805 39.8404 17.9005 40.4104C18.1305 41.0004 18.2505 41.2904 18.3705 41.5804C18.4805 41.8404 18.5905 42.1004 18.7905 42.6204C18.9705 43.0804 19.0405 43.2804 19.1205 43.5504C19.2205 43.8604 19.3305 44.2204 19.5905 44.8704C19.8405 45.5204 20.0005 45.8504 20.1405 46.1504C20.2605 46.4004 20.3505 46.6004 20.5305 47.0604C20.7405 47.6104 20.8505 47.8804 20.9505 48.1504C21.0605 48.4304 21.1705 48.7104 21.3905 49.2804C21.6305 49.9004 21.7605 50.2004 21.9005 50.5004C22.0105 50.7404 22.1105 50.9804 22.3105 51.4804C22.4705 51.9004 22.5305 52.0804 22.6005 52.3304C22.6905 52.6504 22.8105 53.0404 23.0805 53.7304C23.3105 54.3104 23.4205 54.5904 23.5405 54.8804C23.6505 55.1404 23.7605 55.4104 23.9605 55.9404C24.2005 56.5604 24.3405 56.8704 24.4805 57.1704C24.5905 57.4104 24.6905 57.6504 24.8805 58.1304C25.1105 58.7304 25.2405 59.0304 25.3705 59.3204C25.4805 59.5704 25.5805 59.8204 25.7805 60.3304L26.2105 61.4404L26.6405 62.5504C26.8005 62.9704 26.8605 63.1504 26.9305 63.4004C27.0205 63.7204 27.1405 64.1104 27.4105 64.8004C27.6605 65.4404 27.8105 65.7704 27.9505 66.0604C28.0505 66.2904 28.1605 66.5204 28.3405 66.9904C28.5205 67.4604 28.6005 67.7004 28.6805 67.9404C28.7805 68.2504 28.8905 68.5904 29.1405 69.2304C29.3705 69.8304 29.5005 70.1204 29.6205 70.4204C29.7305 70.6704 29.8305 70.9204 30.0305 71.4304C30.2205 71.9304 30.3105 72.1804 30.4005 72.4304C30.5105 72.7404 30.6205 73.0504 30.8505 73.6604C31.1205 74.3504 31.3005 74.7104 31.4505 75.0104C31.5705 75.2504 31.6505 75.4204 31.8205 75.8404C32.0105 76.3404 32.1005 76.5904 32.1905 76.8404C32.3005 77.1504 32.4105 77.4604 32.6505 78.0704L33.0805 79.1804L33.5105 80.2904C33.7305 80.8504 33.8405 81.1304 33.9505 81.4104C34.0605 81.6804 34.1705 81.9504 34.3805 82.5004C34.5605 82.9604 34.6305 83.1704 34.7205 83.4404C34.8205 83.7504 34.9305 84.1004 35.1905 84.7404C35.4505 85.3904 35.6005 85.7304 35.7405 86.0304C35.8605 86.2804 35.9505 86.4704 36.1305 86.9304C36.3505 87.5004 36.4705 87.7804 36.5805 88.0604C36.6905 88.3304 36.8005 88.6004 37.0105 89.1404C37.2405 89.7204 37.3505 90.0104 37.4705 90.2904C37.5805 90.5504 37.6905 90.8204 37.8905 91.3404C38.0905 91.8604 38.1905 92.1204 38.2905 92.3904C38.4005 92.6904 38.5105 92.9804 38.7405 93.5704C38.9105 94.0004 38.9705 94.2004 39.0505 94.4504C39.1405 94.7604 39.2605 95.1404 39.5205 95.8204L39.9605 96.9304L40.3905 98.0304C40.6305 98.6404 40.7605 98.9404 40.8905 99.2404C41.0005 99.4904 41.1005 99.7304 41.3005 100.23C41.4905 100.72 41.5805 100.97 41.6605 101.22C41.7705 101.53 41.8805 101.85 42.1205 102.47C42.3905 103.17 42.5805 103.54 42.7405 103.84C42.8605 104.07 42.9405 104.23 43.1005 104.64C43.2905 105.13 43.3805 105.37 43.4605 105.62C43.5705 105.94 43.6805 106.25 43.9205 106.87C44.1605 107.49 44.3005 107.8 44.4405 108.1C44.5505 108.34 44.6505 108.58 44.8405 109.06C45.0305 109.54 45.1105 109.78 45.1905 110.03C45.3005 110.35 45.4105 110.67 45.6505 111.3C45.8605 111.84 45.9705 112.11 46.0705 112.38C46.1805 112.66 46.2905 112.95 46.5105 113.51C46.7605 114.15 46.9105 114.48 47.0405 114.77C47.1405 115 47.2505 115.23 47.4305 115.7C47.6505 116.26 47.7605 116.54 47.8705 116.82C47.9805 117.09 48.0905 117.36 48.3005 117.91C48.4705 118.33 48.5205 118.52 48.5905 118.77C48.6805 119.09 48.8005 119.48 49.0705 120.16C49.3005 120.75 49.4205 121.04 49.5405 121.33C49.6505 121.59 49.7505 121.85 49.9605 122.37C50.1805 122.93 50.2905 123.21 50.4005 123.49C50.5105 123.76 50.6205 124.03 50.8305 124.58C51.0405 125.12 51.1405 125.39 51.2505 125.66C51.3605 125.95 51.4705 126.23 51.6905 126.8C51.9405 127.43 52.0805 127.76 52.2205 128.05C52.3305 128.28 52.4305 128.52 52.6205 128.99C52.8005 129.45 52.8705 129.68 52.9605 129.93C53.0605 130.24 53.1705 130.59 53.4305 131.23C53.6705 131.84 53.8005 132.14 53.9305 132.45C54.0405 132.69 54.1405 132.94 54.3405 133.43C54.5805 134.03 54.7005 134.33 54.8305 134.63C54.9405 134.88 55.0405 135.13 55.2405 135.63C55.4405 136.14 55.5305 136.4 55.6205 136.65C55.7305 136.95 55.8405 137.25 56.0705 137.85C56.3005 138.43 56.4205 138.72 56.5405 139.01C56.6505 139.27 56.7605 139.53 56.9605 140.05C57.1905 140.64 57.3105 140.93 57.4405 141.23C57.5505 141.48 57.6505 141.74 57.8605 142.25C58.0705 142.79 58.1705 143.06 58.2805 143.33C58.3905 143.62 58.5005 143.9 58.7205 144.47C58.9405 145.03 59.0505 145.31 59.1605 145.59C59.2705 145.86 59.3805 146.13 59.5905 146.68C60.3105 148.52 62.0305 149.71 63.9705 149.71C64.5505 149.71 65.1105 149.6 65.6505 149.39C66.0205 149.24 66.1805 149.17 66.3705 149.09C66.4705 149.05 66.5805 149 66.7805 148.92C67.8905 148.48 68.8205 147.61 69.3305 146.47C69.8505 145.31 69.8905 144.01 69.4205 142.83C69.1905 142.25 69.0705 141.96 68.9605 141.67C68.8505 141.41 68.7405 141.14 68.5405 140.61C68.3305 140.08 68.2305 139.81 68.1305 139.54C68.0205 139.25 67.9105 138.96 67.6805 138.37C67.4205 137.71 67.2605 137.37 67.1205 137.07C67.0005 136.82 66.9105 136.63 66.7405 136.18C66.5505 135.7 66.4705 135.46 66.3905 135.21C66.2905 134.91 66.1705 134.57 65.9305 133.93C65.7005 133.35 65.5805 133.06 65.4605 132.77C65.3505 132.51 65.2405 132.25 65.0405 131.72C64.8305 131.18 64.7305 130.92 64.6305 130.65C64.5205 130.36 64.4105 130.07 64.1905 129.5C63.9505 128.88 63.8105 128.57 63.6805 128.27C63.5705 128.03 63.4705 127.79 63.2805 127.3C63.0805 126.79 62.9905 126.54 62.9005 126.28C62.7905 125.98 62.6805 125.67 62.4505 125.07C62.2205 124.49 62.1005 124.2 61.9805 123.91C61.8705 123.65 61.7605 123.39 61.5605 122.86C61.3605 122.34 61.2605 122.08 61.1705 121.82C61.0605 121.52 60.9505 121.22 60.7205 120.63C60.5405 120.18 60.4805 119.97 60.4005 119.71C60.3005 119.39 60.1905 119.04 59.9305 118.38C59.6605 117.68 59.4705 117.31 59.3105 117C59.1905 116.77 59.1105 116.61 58.9505 116.2C58.7405 115.67 58.6405 115.4 58.5405 115.13C58.4305 114.84 58.3205 114.55 58.1005 113.97C57.9205 113.5 57.8405 113.26 57.7605 113.02C57.6605 112.71 57.5505 112.37 57.2905 111.73C57.0805 111.19 56.9705 110.91 56.8705 110.64C56.7605 110.36 56.6505 110.07 56.4305 109.51L56.0005 108.41L55.5605 107.29C55.3305 106.7 55.2105 106.41 55.0805 106.12C54.9705 105.86 54.8705 105.61 54.6605 105.09C54.4505 104.55 54.3505 104.28 54.2405 104.01C54.1305 103.73 54.0205 103.44 53.8005 102.87C53.5905 102.33 53.4905 102.06 53.3905 101.79C53.2805 101.5 53.1705 101.22 52.9505 100.64C52.7105 100.02 52.5805 99.7204 52.4405 99.4204C52.3305 99.1804 52.2305 98.9404 52.0405 98.4504C51.8405 97.9504 51.7505 97.6904 51.6605 97.4404C51.5505 97.1304 51.4405 96.8304 51.2105 96.2204C50.9605 95.5704 50.8005 95.2304 50.6605 94.9404C50.5405 94.6904 50.4505 94.4904 50.2705 94.0404C50.1105 93.6304 50.0605 93.4504 49.9905 93.2004C49.9005 92.8804 49.7805 92.4804 49.5105 91.7804C49.2505 91.1204 49.0905 90.7804 48.9505 90.4804C48.8305 90.2304 48.7405 90.0404 48.5705 89.5904C48.3705 89.0904 48.2805 88.8304 48.1905 88.5804C48.0805 88.2704 47.9705 87.9704 47.7405 87.3604C47.4805 86.6904 47.3005 86.3304 47.1705 86.0404C47.0605 85.8004 46.9705 85.6104 46.7905 85.1804C46.6405 84.8004 46.6005 84.6404 46.5405 84.4004C46.4505 84.0604 46.3405 83.6404 46.0505 82.9104C45.8005 82.2604 45.6405 81.9204 45.5005 81.6204C45.3805 81.3704 45.2905 81.1704 45.1105 80.7204C44.9005 80.1904 44.8005 79.9204 44.7005 79.6504C44.5905 79.3604 44.4805 79.0704 44.2605 78.5004C44.0505 77.9604 43.9505 77.7004 43.8505 77.4304C43.7405 77.1404 43.6305 76.8504 43.4105 76.2804C43.1505 75.6204 42.9905 75.2804 42.8505 74.9804C42.7305 74.7404 42.6405 74.5404 42.4705 74.1004C42.2705 73.5804 42.1705 73.3104 42.0705 73.0504C41.9605 72.7604 41.8505 72.4604 41.6205 71.8804C41.4105 71.3504 41.3105 71.0804 41.2105 70.8104C41.1005 70.5204 40.9905 70.2304 40.7705 69.6604C40.5405 69.0604 40.4105 68.7604 40.2805 68.4704C40.1705 68.2204 40.0705 67.9704 39.8705 67.4604C39.6805 66.9804 39.6005 66.7304 39.5105 66.4804C39.4005 66.1604 39.2905 65.8404 39.0505 65.2204C38.8705 64.7604 38.8005 64.5504 38.7205 64.2804C38.6205 63.9704 38.5105 63.6204 38.2505 62.9804C37.9805 62.2904 37.8005 61.9204 37.6505 61.6204C37.5305 61.3904 37.4505 61.2204 37.2905 60.8004C37.1005 60.3104 37.0105 60.0604 36.9305 59.8204C36.8205 59.5104 36.7105 59.1904 36.4705 58.5704C36.2705 58.0704 36.1805 57.8204 36.1005 57.5604C35.9905 57.2504 35.8805 56.9404 35.6505 56.3404C35.3805 55.6404 35.1905 55.2704 35.0405 54.9704C34.9205 54.7404 34.8405 54.5704 34.6805 54.1604C34.5105 53.7204 34.4405 53.5204 34.3705 53.2604C34.2705 52.9404 34.1605 52.5804 33.9005 51.9104C33.6505 51.2804 33.5005 50.9504 33.3705 50.6604C33.2605 50.4304 33.1605 50.1904 32.9705 49.7204C32.7405 49.1204 32.6105 48.8304 32.4805 48.5304C32.3705 48.2804 32.2705 48.0304 32.0705 47.5204C31.9005 47.0804 31.8305 46.8804 31.7605 46.6204C31.6605 46.3004 31.5505 45.9404 31.2905 45.2704C31.0505 44.6604 30.9205 44.3604 30.7905 44.0604C30.6805 43.8204 30.5805 43.5704 30.3805 43.0804C30.1805 42.5704 30.0805 42.3104 29.9905 42.0504C29.8805 41.7504 29.7705 41.4504 29.5405 40.8604C29.2805 40.2104 29.1305 39.8704 28.9905 39.5704C28.8705 39.3204 28.7805 39.1304 28.6005 38.6704C28.4505 38.2804 28.4005 38.1204 28.3405 37.8704C28.2505 37.5404 28.1405 37.1204 27.8505 36.4004C27.5905 35.7404 27.4305 35.4004 27.2805 35.0904C27.1705 34.8504 27.0705 34.6604 26.9005 34.2104L26.4705 33.1104L26.0305 31.9904L25.6305 30.9604L25.1705 29.7704C24.9505 29.2104 24.8405 28.9304 24.7305 28.6504C24.6205 28.3804 24.5105 28.1104 24.3005 27.5704C24.0605 26.9704 23.9305 26.6704 23.8105 26.3704C23.7005 26.1204 23.6005 25.8804 23.4005 25.3804L22.9705 24.2804L22.5305 23.1604C21.8105 21.3304 20.1005 20.1504 18.1805 20.1504L18.1505 20.2204Z" fill="#1E1E1E"/>
<path d="M41.8519 81.3513C41.2719 81.3513 40.7119 81.1913 40.2219 80.8813C39.6719 80.5313 39.4019 80.3413 39.1319 80.1613C38.8819 79.9913 38.6219 79.8213 38.1119 79.4913C37.6019 79.1613 37.3319 79.0013 37.0719 78.8413C36.7919 78.6713 36.5219 78.5013 35.9719 78.1513C35.4619 77.8213 35.2019 77.6613 34.9319 77.5013C34.6519 77.3313 34.3719 77.1613 33.8319 76.8113C33.2919 76.4713 33.0219 76.2913 32.7619 76.1213C32.5019 75.9513 32.2419 75.7813 31.7119 75.4413L29.5919 74.0913C28.1719 73.1813 27.7819 71.2613 28.7119 69.8113C28.8319 69.6313 28.8719 69.5413 28.9219 69.4413C29.0019 69.2813 29.0819 69.1113 29.2719 68.8113C29.8519 67.9113 30.8619 67.3613 31.9419 67.3613C32.5319 67.3613 33.1019 67.5313 33.5919 67.8413C34.1819 68.2213 34.4619 68.4313 34.7419 68.6413C34.9719 68.8113 35.1919 68.9813 35.6719 69.2913C36.1919 69.6213 36.4519 69.7813 36.7119 69.9413C36.9919 70.1113 37.2619 70.2813 37.8119 70.6313L39.9419 71.9813C40.4819 72.3313 41.5419 73.0213 42.0619 73.3513C42.5619 73.6713 42.8119 73.8213 43.0719 73.9613C43.3619 74.1313 43.6519 74.2913 44.2119 74.6513C44.9119 75.1013 45.3819 75.8013 45.5419 76.6313C45.6819 77.4113 45.5319 78.2113 45.0919 78.8913C44.9719 79.0813 44.9119 79.1813 44.8619 79.2913C44.7819 79.4513 44.6919 79.6013 44.5019 79.9013C43.9319 80.7913 42.9219 81.3413 41.8619 81.3413L41.8519 81.3513Z" fill="#E5E5E5"/>
<path d="M31.9413 69.0207C32.2113 69.0207 32.4713 69.0907 32.7013 69.2407C33.7613 69.9207 33.7113 70.0107 34.7713 70.6907C35.8313 71.3707 35.8513 71.3507 36.9113 72.0307C37.9713 72.7107 37.9713 72.7007 39.0413 73.3807C40.1013 74.0607 40.0913 74.0707 41.1613 74.7507C42.2213 75.4307 42.2513 75.3807 43.3113 76.0607C43.9713 76.4807 44.1113 77.3607 43.6913 78.0207C43.3713 78.5107 43.4113 78.5407 43.1013 79.0307C42.8213 79.4607 42.3413 79.7107 41.8513 79.7107C41.5913 79.7107 41.3413 79.6407 41.1113 79.5007C40.0513 78.8207 40.0613 78.7907 39.0013 78.1107C37.9413 77.4307 37.9213 77.4507 36.8613 76.7707C35.8013 76.0907 35.7813 76.1207 34.7213 75.4407C33.6613 74.7607 33.6713 74.7507 32.6013 74.0707C31.5413 73.3907 31.5413 73.4007 30.4713 72.7207C29.8113 72.3007 29.6713 71.3807 30.0913 70.7207C30.4113 70.2307 30.3613 70.2007 30.6613 69.7007C30.9313 69.2707 31.4313 69.0307 31.9213 69.0307M31.9413 65.7207C30.3113 65.7207 28.7613 66.5607 27.9013 67.9107C27.6613 68.2907 27.5513 68.5207 27.4513 68.7207C27.4213 68.7807 27.3913 68.8307 27.3313 68.9407C25.9113 71.1607 26.5313 74.1007 28.7113 75.4907C29.2513 75.8307 29.5213 76.0007 29.7813 76.1707C30.0413 76.3407 30.3113 76.5007 30.8313 76.8407C31.3513 77.1707 31.6013 77.3407 31.8613 77.5107C32.1313 77.6907 32.4013 77.8607 32.9413 78.2107C33.5013 78.5707 33.7913 78.7407 34.0813 78.9207C34.3313 79.0707 34.5913 79.2307 35.0813 79.5507C35.6413 79.9107 35.9213 80.0807 36.2013 80.2507C36.4613 80.4107 36.7113 80.5707 37.2213 80.8907C37.7113 81.2107 37.9613 81.3707 38.2013 81.5407C38.4813 81.7307 38.7613 81.9207 39.3313 82.2807C40.0813 82.7607 40.9513 83.0107 41.8513 83.0107C43.4713 83.0107 45.0113 82.1707 45.8813 80.8107C46.1113 80.4607 46.2113 80.2707 46.3113 80.0907C46.3513 80.0207 46.3913 79.9407 46.4813 79.8007C47.8913 77.6007 47.2713 74.6707 45.1013 73.2807C44.5013 72.9007 44.1813 72.7107 43.8913 72.5407C43.6513 72.4007 43.4113 72.2607 42.9513 71.9707C42.4313 71.6407 42.1813 71.4707 41.9213 71.3007C41.6513 71.1207 41.3813 70.9507 40.8413 70.6007C40.3013 70.2607 40.0313 70.0907 39.7713 69.9207C39.5113 69.7507 39.2413 69.5907 38.7213 69.2507C38.1613 68.8907 37.8813 68.7207 37.6013 68.5507C37.3413 68.3907 37.0913 68.2407 36.5813 67.9107C36.1613 67.6407 35.9813 67.5107 35.7613 67.3407C35.4913 67.1307 35.1513 66.8807 34.5113 66.4607C33.7613 65.9807 32.8813 65.7207 31.9713 65.7207H31.9413Z" fill="#1E1E1E"/>
<path d="M34.0705 83.0412C33.4705 83.0412 32.8805 82.8712 32.3705 82.5412C32.1805 82.4212 32.0805 82.3612 31.9705 82.3112C31.8105 82.2312 31.6605 82.1412 31.3605 81.9512C30.6805 81.5112 30.2005 80.8412 30.0105 80.0412C29.8205 79.2312 29.9605 78.3712 30.4005 77.6912C30.7505 77.1412 30.9405 76.8712 31.1205 76.6012C31.2905 76.3512 31.4605 76.1012 31.7905 75.5912C32.1205 75.0812 32.2805 74.8112 32.4405 74.5512C32.6105 74.2712 32.7805 74.0012 33.1305 73.4512C33.4605 72.9412 33.6205 72.6712 33.7805 72.4112C33.9505 72.1312 34.1205 71.8512 34.4705 71.3112C34.8105 70.7812 34.9805 70.5112 35.1605 70.2512C35.3305 69.9912 35.5005 69.7312 35.8405 69.2012L37.1905 67.0812C37.7405 66.2212 38.7005 65.7012 39.7605 65.7012C40.3705 65.7012 40.9605 65.8712 41.4705 66.2012C41.6505 66.3212 41.7505 66.3612 41.8405 66.4112C42.0005 66.4912 42.1705 66.5712 42.4705 66.7612C43.9205 67.6912 44.3505 69.6612 43.4405 71.0812C43.0605 71.6712 42.8505 71.9512 42.6405 72.2312C42.4705 72.4612 42.3005 72.6812 41.9905 73.1612C41.6605 73.6812 41.5005 73.9412 41.3405 74.2012C41.1705 74.4812 41.0005 74.7512 40.6505 75.3012L39.3005 77.4312C38.9605 77.9712 38.2705 79.0212 37.9305 79.5512C37.6105 80.0512 37.4605 80.3012 37.3205 80.5612C37.1505 80.8512 36.9905 81.1412 36.6305 81.7012C36.0805 82.5612 35.1305 83.0812 34.0905 83.0812L34.0705 83.0412Z" fill="#E5E5E5"/>
<path d="M39.7506 67.3313C40.0306 67.3313 40.3206 67.4113 40.5706 67.5713C41.0606 67.8913 41.0906 67.8413 41.5906 68.1413C42.2506 68.5613 42.4606 69.5112 42.0406 70.1712C41.3606 71.2312 41.2706 71.1813 40.5906 72.2413C39.9106 73.3013 39.9306 73.3213 39.2506 74.3813C38.5706 75.4413 38.5806 75.4413 37.9006 76.5113C37.2206 77.5713 37.2106 77.5613 36.5306 78.6313C35.8506 79.6913 35.9006 79.7213 35.2206 80.7812C34.9606 81.1912 34.5206 81.4012 34.0706 81.4012C33.7906 81.4012 33.5106 81.3213 33.2606 81.1613C32.7706 80.8413 32.7406 80.8813 32.2506 80.5713C31.5906 80.1513 31.3706 79.2413 31.7906 78.5813C32.4706 77.5213 32.5006 77.5313 33.1806 76.4713C33.8606 75.4113 33.8406 75.3913 34.5206 74.3313C35.2006 73.2713 35.1706 73.2513 35.8506 72.1913C36.5306 71.1313 36.5406 71.1413 37.2206 70.0713C37.9006 69.0113 37.8906 69.0113 38.5706 67.9413C38.8306 67.5313 39.2806 67.3213 39.7506 67.3213M39.7506 64.0312C38.1306 64.0312 36.6506 64.8312 35.7906 66.1712C35.4506 66.7112 35.2806 66.9813 35.1106 67.2413C34.9406 67.5013 34.7806 67.7713 34.4406 68.2913C34.1106 68.8113 33.9406 69.0613 33.7706 69.3213C33.5906 69.5913 33.4206 69.8613 33.0706 70.4013C32.7106 70.9613 32.5406 71.2513 32.3606 71.5413C32.2106 71.7913 32.0506 72.0513 31.7406 72.5413C31.3806 73.1013 31.2106 73.3813 31.0406 73.6613C30.8806 73.9213 30.7206 74.1713 30.4006 74.6813C30.0806 75.1713 29.9206 75.4213 29.7506 75.6613C29.5606 75.9413 29.3706 76.2213 29.0106 76.7913C28.3306 77.8513 28.1106 79.1712 28.4106 80.4212C28.7006 81.6312 29.4306 82.6712 30.4806 83.3412C30.8306 83.5712 31.0206 83.6712 31.2006 83.7712C31.2706 83.8112 31.3506 83.8513 31.4906 83.9413C32.2606 84.4413 33.1606 84.7013 34.0806 84.7013C35.6906 84.7013 37.1606 83.9012 38.0106 82.5612C38.3906 81.9612 38.5806 81.6413 38.7406 81.3513C38.8806 81.1113 39.0206 80.8713 39.3106 80.4113C39.6406 79.8913 39.8106 79.6413 39.9806 79.3813C40.1606 79.1113 40.3306 78.8413 40.6806 78.3013C41.0206 77.7613 41.1906 77.5012 41.3606 77.2312C41.5306 76.9712 41.6906 76.7013 42.0306 76.1813C42.3906 75.6213 42.5606 75.3412 42.7306 75.0612C42.8906 74.8012 43.0406 74.5513 43.3706 74.0513C43.6406 73.6313 43.7706 73.4512 43.9406 73.2312C44.1506 72.9612 44.4006 72.6212 44.8206 71.9812C46.2106 69.8112 45.5506 66.7913 43.3706 65.4013C42.9906 65.1613 42.7606 65.0512 42.5606 64.9512C42.5006 64.9212 42.4506 64.8913 42.3406 64.8313C41.5706 64.3313 40.6706 64.0713 39.7406 64.0713L39.7506 64.0312Z" fill="#1E1E1E"/>
</svg>
