<svg width="104" height="152" viewBox="0 0 104 152" fill="none" xmlns="http://www.w3.org/2000/svg">
<path d="M3.82251 21.9709C3.82251 21.1909 3.99242 20.2309 4.35242 19.3509C4.71242 18.4709 5.2525 17.6609 5.8125 17.1009C6.6225 16.2909 6.68243 16.3409 7.49243 15.5309C8.30243 14.7209 8.28242 14.6909 9.10242 13.8809C9.92242 13.0709 9.8924 13.0409 10.7124 12.2309C11.2524 11.6909 11.7957 11.1475 12.3424 10.6009C13.1624 9.78086 13.1924 9.81085 14.0024 9.00085C14.8124 8.19085 14.7525 8.12086 15.5725 7.30086C16.3925 6.48086 16.4725 6.56086 17.2825 5.74086C17.8325 5.19086 18.6324 4.67086 19.5024 4.30086C20.3724 3.93086 21.3124 3.69086 22.0924 3.69086C23.2924 3.69086 23.2924 3.75085 24.4924 3.75085C25.6924 3.75085 25.6925 3.68086 26.8925 3.68086C28.0925 3.68086 28.0925 3.75085 29.2925 3.75085C30.4925 3.75085 30.4925 3.75085 31.6925 3.75085C32.8925 3.75085 32.8924 3.75085 34.0924 3.75085C35.2924 3.75085 35.2924 3.68086 36.4924 3.68086C37.6924 3.68086 37.6925 3.67085 38.8925 3.67085C40.0925 3.67085 40.0925 3.77086 41.2925 3.77086C42.4925 3.77086 42.4925 3.70085 43.6925 3.70085C44.8925 3.70085 44.8924 3.68086 46.0924 3.68086C47.2924 3.68086 47.2924 3.75085 48.4924 3.75085C49.6924 3.75085 49.6925 3.78085 50.8925 3.78085C52.0925 3.78085 52.0925 3.65086 53.3025 3.65086C54.5125 3.65086 54.5025 3.77086 55.7025 3.77086C56.9025 3.77086 56.9024 3.70085 58.1024 3.70085C59.3024 3.70085 59.3025 3.65086 60.5125 3.65086C61.7225 3.65086 61.7125 3.67085 62.9225 3.67085C64.1325 3.67085 64.1225 3.63086 65.3325 3.63086C66.5425 3.63086 66.5424 3.69086 67.7424 3.69086C68.9424 3.69086 68.9525 3.64085 70.1525 3.64085C70.9325 3.64085 71.8724 3.91085 72.7324 4.28085C73.5924 4.65085 74.3725 5.21085 74.9025 5.78085C75.7225 6.64085 75.7325 6.62086 76.5525 7.47086C77.3725 8.32086 77.4124 8.28085 78.2324 9.14085C79.0524 10.0009 78.9725 10.0709 79.7925 10.9309C80.6125 11.7909 80.6824 11.7209 81.5024 12.5809C82.3224 13.4409 82.3325 13.4209 83.1525 14.2809C83.9725 15.1409 83.9024 15.1909 84.7224 16.0509C85.5424 16.9109 85.5624 16.8809 86.3824 17.7409C87.2024 18.6009 87.1424 18.6509 87.9624 19.5009C88.7824 20.3509 88.8124 20.3309 89.6324 21.1809C90.4524 22.0309 90.4625 22.0309 91.2825 22.8809C92.1025 23.7409 92.0724 23.7708 92.8824 24.6208C93.6924 25.4708 93.7425 25.4409 94.5625 26.3009C95.3825 27.1609 95.3625 27.1809 96.1825 28.0409C97.0025 28.9009 97.0624 28.8409 97.8824 29.7009C98.4224 30.2609 98.9125 31.1209 99.2725 32.0009C99.6325 32.8809 99.7925 33.8408 99.7925 34.6208C99.7925 35.7608 99.8624 35.7609 99.8624 36.9109C99.8624 38.0609 99.8125 38.0508 99.8125 39.2009C99.8125 40.3509 99.7524 40.3409 99.7524 41.4909C99.7524 42.6409 99.8225 42.6309 99.8225 43.7709C99.8225 44.9109 99.8624 44.9109 99.8624 46.0609C99.8624 47.2109 99.7625 47.2109 99.7625 48.3509C99.7625 49.4909 99.8724 49.5009 99.8724 50.6409C99.8724 51.7809 99.8724 51.7909 99.8724 52.9309C99.8724 54.0709 99.8025 54.0808 99.8025 55.2309C99.8025 56.3809 99.7524 56.3809 99.7524 57.5309C99.7524 58.3109 99.5724 59.2408 99.2124 60.1208C98.8524 61.0009 98.3824 61.8409 97.8424 62.4009C96.9924 63.2809 97.0025 63.2809 96.1525 64.1609C95.3025 65.0409 95.3424 65.0709 94.4924 65.9409C93.6424 66.8109 93.5824 66.7609 92.7324 67.6309C91.8824 68.5009 91.8825 68.5109 91.0425 69.3809C90.2025 70.2509 90.2425 70.3009 89.3925 71.1809C88.5425 72.0609 88.4724 71.9909 87.6324 72.8609C86.7824 73.7409 86.7925 73.7508 85.9425 74.6208C85.0925 75.4909 85.1425 75.5409 84.2925 76.4209C83.4425 77.3008 83.4324 77.2809 82.5924 78.1609C81.7424 79.0409 81.7024 79.0009 80.8524 79.8809C80.0024 80.7609 80.0325 80.7809 79.1825 81.6609C78.3325 82.5409 78.4025 82.6009 77.5525 83.4809C76.7025 84.3609 76.6625 84.3109 75.8125 85.1909C74.9625 86.0709 74.9925 86.0909 74.1425 86.9709C73.2925 87.8509 73.2825 87.8409 72.4325 88.7209C71.5825 89.6009 71.5724 89.5909 70.7224 90.4709C69.8724 91.3509 69.8224 91.3009 68.9724 92.1909C68.4324 92.7509 67.9425 93.6108 67.5825 94.4908C67.2225 95.3708 67.0725 96.3309 67.0725 97.1109C67.0725 98.3009 67.1024 98.3008 67.1024 99.4908C67.1024 100.681 67.1224 100.681 67.1224 101.881C67.1224 103.071 67.0825 103.071 67.0825 104.271C67.0825 105.471 67.1024 105.461 67.1024 106.651C67.1024 107.841 67.1024 107.841 67.1024 109.041C67.1024 110.231 67.0525 110.231 67.0525 111.431C67.0525 112.631 67.1024 112.621 67.1024 113.821C67.1024 115.011 67.1024 115.011 67.1024 116.211C67.1024 117.411 67.1024 117.401 67.1024 118.601C67.1024 119.801 67.0125 119.791 67.0125 120.991C67.0125 122.181 67.0425 122.181 67.0425 123.381C67.0425 124.581 67.1224 124.571 67.1224 125.771C67.1224 126.971 67.0325 126.971 67.0325 128.161C67.0325 129.351 67.0325 129.351 67.0325 130.541C67.0325 131.731 67.0924 131.731 67.0924 132.931C67.0924 134.131 67.0325 134.131 67.0325 135.321C67.0325 136.511 67.0024 136.521 67.0024 137.711C67.0024 138.901 67.0725 138.911 67.0725 140.101C67.0725 141.291 67.0525 141.301 67.0525 142.501C67.0525 143.701 67.0225 143.701 67.0225 144.901C67.0225 145.681 66.7224 146.371 66.2124 146.881C65.7024 147.391 65.0124 147.801 64.2324 147.801C63.0624 147.801 63.0625 147.681 61.8925 147.681C60.7225 147.681 60.7225 147.681 59.5525 147.681C58.3825 147.681 58.3824 147.781 57.2124 147.781C56.0424 147.781 56.0424 147.711 54.8724 147.711C53.7024 147.711 53.7025 147.711 52.5325 147.711C51.3625 147.711 51.3625 147.781 50.1925 147.781C49.0225 147.781 49.0224 147.681 47.8524 147.681C46.6824 147.681 46.6824 147.721 45.5125 147.721C44.3425 147.721 44.3425 147.671 43.1725 147.671C42.0025 147.671 42.0025 147.781 40.8325 147.781C39.6625 147.781 39.6624 147.701 38.4924 147.701C37.3224 147.701 37.3225 147.721 36.1525 147.721C34.9825 147.721 34.9825 147.691 33.8125 147.691C32.6425 147.691 32.6424 147.681 31.4724 147.681C30.3024 147.681 30.3024 147.711 29.1324 147.711C27.9624 147.711 27.9625 147.711 26.7925 147.711C25.6225 147.711 25.6225 147.751 24.4425 147.751C23.2625 147.751 23.2724 147.701 22.0924 147.701C21.3124 147.701 20.3925 147.491 19.5125 147.131C18.6325 146.771 17.8425 146.261 17.2925 145.711C16.4825 144.901 16.4725 144.911 15.6525 144.091C14.8325 143.271 14.7725 143.341 13.9525 142.531C13.1325 141.721 13.1525 141.701 12.3325 140.891C11.5125 140.081 11.5225 140.071 10.7025 139.261C9.88251 138.451 9.8825 138.451 9.0625 137.641C8.2425 136.831 8.32244 136.741 7.50244 135.921C6.68244 135.101 6.59247 135.191 5.78247 134.371C5.23247 133.821 4.76246 132.961 4.39246 132.081C4.02246 131.201 3.8125 130.261 3.8125 129.481C3.8125 128.291 3.83252 128.291 3.83252 127.101C3.83252 125.911 3.8125 125.911 3.8125 124.721C3.8125 123.531 3.79248 123.531 3.79248 122.341C3.79248 121.151 3.82251 121.151 3.82251 119.951C3.82251 118.751 3.79248 118.761 3.79248 117.561C3.79248 116.361 3.85242 116.371 3.85242 115.171C3.85242 113.971 3.84241 113.981 3.84241 112.781C3.84241 111.581 3.84241 111.591 3.84241 110.391C3.84241 109.191 3.80249 109.201 3.80249 108.001C3.80249 106.801 3.74243 106.811 3.74243 105.611C3.74243 104.411 3.77246 104.421 3.77246 103.221C3.77246 102.031 3.76245 102.031 3.76245 100.831C3.76245 99.6309 3.83252 99.6409 3.83252 98.4409C3.83252 97.2409 3.83252 97.2508 3.83252 96.0508C3.83252 94.8608 3.8125 94.8609 3.8125 93.6609C3.8125 92.4709 3.8125 92.4708 3.8125 91.2708C3.8125 90.0808 3.8125 90.0809 3.8125 88.8809C3.8125 87.6909 3.74243 87.6908 3.74243 86.4908C3.74243 85.2908 3.82251 85.3009 3.82251 84.1009C3.82251 82.9009 3.78247 82.9109 3.78247 81.7109C3.78247 80.5109 3.76245 80.5209 3.76245 79.3209C3.76245 78.1309 3.75244 78.1309 3.75244 76.9309C3.75244 75.7409 3.74243 75.7409 3.74243 74.5409C3.74243 73.3409 3.85242 73.3509 3.85242 72.1609C3.85242 70.9709 3.82251 70.9709 3.82251 69.7809C3.82251 68.5909 3.74243 68.5909 3.74243 67.4009C3.74243 66.2109 3.86243 66.2109 3.86243 65.0109C3.86243 63.8109 3.75244 63.8209 3.75244 62.6208C3.75244 61.4208 3.82251 61.4309 3.82251 60.2309C3.82251 59.0308 3.82251 59.0409 3.82251 57.8409C3.82251 56.6409 3.73242 56.6409 3.73242 55.4509C3.73242 54.2609 3.73242 54.2609 3.73242 53.0609C3.73242 51.8609 3.73242 51.8609 3.73242 50.6709C3.73242 49.4809 3.73242 49.4809 3.73242 48.2809C3.73242 47.0809 3.79248 47.0809 3.79248 45.8909C3.79248 44.7009 3.79248 44.7009 3.79248 43.5009C3.79248 42.3009 3.79248 42.3009 3.79248 41.1109C3.79248 39.9209 3.80249 39.9109 3.80249 38.7209C3.80249 37.5309 3.86243 37.5309 3.86243 36.3309C3.86243 35.1309 3.80249 35.1309 3.80249 33.9409C3.80249 32.7509 3.73242 32.7409 3.73242 31.5509C3.73242 30.3609 3.85242 30.3509 3.85242 29.1609C3.85242 27.9709 3.79248 27.9609 3.79248 26.7709C3.79248 25.5809 3.75244 25.5709 3.75244 24.3708C3.75244 23.1708 3.78247 23.1709 3.78247 21.9709H3.82251Z" fill="#009E92"/>
<path d="M2.16211 129.48C2.16211 128.873 2.16776 128.565 2.17285 128.263C2.17777 127.971 2.18262 127.683 2.18262 127.101C2.18262 126.518 2.17777 126.231 2.17285 125.938C2.16776 125.636 2.16211 125.328 2.16211 124.721C2.16211 124.138 2.15726 123.851 2.15234 123.559C2.14725 123.256 2.14258 122.948 2.14258 122.341C2.14258 121.727 2.15051 121.415 2.1582 121.108C2.16551 120.818 2.17285 120.532 2.17285 119.951C2.17285 119.37 2.16551 119.087 2.1582 118.798C2.1505 118.492 2.14258 118.179 2.14258 117.561C2.14258 116.923 2.15904 116.596 2.1748 116.283C2.189 116.001 2.20215 115.733 2.20215 115.171C2.20215 114.577 2.19975 114.284 2.19727 113.989C2.19474 113.689 2.19238 113.387 2.19238 112.781V110.391C2.19238 109.816 2.18345 109.538 2.17383 109.251C2.1635 108.943 2.15235 108.626 2.15234 108.001C2.15234 107.439 2.13922 107.17 2.125 106.889C2.1092 106.576 2.09278 106.248 2.09277 105.611C2.09277 104.993 2.10069 104.679 2.1084 104.374C2.1157 104.084 2.12207 103.802 2.12207 103.221C2.12207 102.632 2.11967 102.339 2.11719 102.043C2.11466 101.742 2.11231 101.437 2.1123 100.831C2.1123 100.187 2.1318 99.8548 2.15039 99.5391C2.16683 99.2599 2.18262 98.9966 2.18262 98.4404V96.0508C2.18262 95.4687 2.17777 95.1812 2.17285 94.8877C2.16776 94.5837 2.16211 94.2734 2.16211 93.6611V88.8809C2.16211 88.3299 2.14637 88.0673 2.12988 87.7861C2.1113 87.4692 2.09278 87.1346 2.09277 86.4912C2.09277 85.8415 2.11433 85.5038 2.13574 85.1855C2.15436 84.909 2.17285 84.6505 2.17285 84.1006C2.17285 83.5258 2.16297 83.2479 2.15332 82.9609C2.14296 82.6531 2.13281 82.3357 2.13281 81.7109C2.13281 81.1237 2.12796 80.8361 2.12305 80.5439C2.11795 80.2412 2.11231 79.9335 2.1123 79.3213C2.1123 78.7327 2.1099 78.4397 2.10742 78.1436C2.1049 77.8422 2.10254 77.5369 2.10254 76.9307C2.10254 76.3424 2.10014 76.0499 2.09766 75.7539C2.09513 75.4526 2.09277 75.1471 2.09277 74.541C2.09277 73.8722 2.1241 73.5197 2.1543 73.1943C2.17917 72.9263 2.20214 72.6863 2.20215 72.1611C2.20215 71.5852 2.19478 71.3023 2.1875 71.0127C2.17983 70.7075 2.17285 70.3948 2.17285 69.7812C2.17285 69.2366 2.15438 68.9781 2.13574 68.7012C2.11435 68.3833 2.09277 68.0454 2.09277 67.4004C2.09279 66.7303 2.12815 66.3733 2.16113 66.0449C2.18803 65.777 2.21289 65.536 2.21289 65.0107C2.21289 64.4797 2.18892 64.2368 2.16406 63.9678C2.13394 63.6418 2.10255 63.2898 2.10254 62.6211C2.10254 61.9774 2.12203 61.6449 2.14062 61.3291C2.15706 61.0499 2.17285 60.7866 2.17285 60.2305V57.8408C2.17285 57.2973 2.15258 57.0418 2.13184 56.7666C2.10762 56.4453 2.08204 56.1026 2.08203 55.4512V48.2812C2.08203 47.6438 2.09846 47.3134 2.11426 46.999C2.12851 46.7155 2.14258 46.4477 2.14258 45.8906V41.1113C2.14258 40.5102 2.14494 40.2048 2.14746 39.9023C2.14994 39.6049 2.15234 39.3094 2.15234 38.7207C2.15235 38.0883 2.16883 37.761 2.18457 37.4473C2.19877 37.1642 2.21289 36.8936 2.21289 36.3311C2.21289 35.7685 2.19877 35.4979 2.18457 35.2148C2.16883 34.901 2.15234 34.5731 2.15234 33.9404C2.15234 33.3896 2.13661 33.1242 2.12012 32.8418C2.10158 32.5243 2.08203 32.1895 2.08203 31.5508C2.08203 30.8807 2.11743 30.5211 2.15039 30.1914C2.17741 29.9212 2.20214 29.6806 2.20215 29.1611C2.20215 28.6037 2.18904 28.3328 2.1748 28.0479C2.15907 27.7329 2.14258 27.4028 2.14258 26.7705C2.14257 26.2011 2.13272 25.921 2.12305 25.6299C2.1127 25.3185 2.10254 24.9958 2.10254 24.3711C2.10254 23.7526 2.11047 23.4375 2.11816 23.1299C2.12548 22.8376 2.13281 22.552 2.13281 21.9707V20.3213H2.34668C2.45453 19.7888 2.61236 19.2469 2.8252 18.7266C3.26122 17.6607 3.91839 16.6618 4.64551 15.9346C5.08614 15.4939 5.33366 15.2766 5.56641 15.0732C5.76855 14.8966 5.95697 14.7335 6.32617 14.3643C6.71496 13.9755 6.90033 13.7777 7.0957 13.5713C7.30354 13.3517 7.5165 13.1277 7.94238 12.707C8.33256 12.3216 8.51546 12.1274 8.70508 11.9258C8.91033 11.7075 9.12314 11.481 9.55273 11.0566C9.82031 10.7891 10.0892 10.5212 10.3584 10.252C10.63 9.98034 10.9025 9.70784 11.1758 9.43457C11.6051 9.00527 11.833 8.79202 12.0527 8.58789C12.2559 8.39915 12.4506 8.21937 12.8359 7.83398C13.1983 7.47161 13.3548 7.28741 13.5283 7.08398C13.733 6.84411 13.9545 6.58555 14.4062 6.13379C14.8675 5.67261 15.1362 5.45048 15.3799 5.24902C15.5777 5.08543 15.7552 4.93861 16.1084 4.58105L16.1152 4.57422H16.1162C16.843 3.84751 17.831 3.21836 18.8564 2.78223C19.8516 2.35902 21.0186 2.04102 22.0928 2.04102C22.7299 2.04102 23.0597 2.05748 23.375 2.07324C23.6596 2.08747 23.9299 2.10058 24.4922 2.10059C25.0486 2.10059 25.3145 2.08482 25.5967 2.06836C25.9144 2.04983 26.2492 2.03125 26.8926 2.03125C27.5361 2.03125 27.8707 2.04982 28.1885 2.06836C28.4706 2.08482 28.7366 2.10059 29.293 2.10059H34.0928C34.6489 2.10058 34.9142 2.08481 35.1963 2.06836C35.5141 2.04982 35.8487 2.03125 36.4922 2.03125C37.0859 2.03125 37.3813 2.02885 37.6787 2.02637C37.9813 2.02384 38.2864 2.02051 38.8926 2.02051C39.5548 2.02051 39.9042 2.04906 40.2295 2.07617C40.5042 2.09906 40.7553 2.12109 41.293 2.12109C41.849 2.12108 42.1144 2.10532 42.3965 2.08887C42.7143 2.07033 43.0489 2.05078 43.6924 2.05078C44.2799 2.05078 44.5704 2.04593 44.8652 2.04102C45.1703 2.03593 45.4805 2.03125 46.0928 2.03125C46.7362 2.03126 47.0709 2.04982 47.3887 2.06836C47.6707 2.08481 47.9361 2.10058 48.4922 2.10059C49.1107 2.10059 49.4258 2.10852 49.7334 2.11621C50.0257 2.12352 50.3113 2.13086 50.8926 2.13086C51.4114 2.13086 51.6477 2.10425 51.917 2.0752C52.2512 2.03914 52.6176 2.00098 53.3027 2.00098C53.9819 2.00098 54.3409 2.0362 54.6709 2.06934C54.9393 2.09628 55.1775 2.12108 55.7021 2.12109C56.2585 2.12109 56.5245 2.10533 56.8066 2.08887C57.1244 2.07033 57.4591 2.05078 58.1025 2.05078C58.6713 2.05078 58.9466 2.03932 59.2354 2.02734C59.5495 2.01431 59.8768 2.00098 60.5127 2.00098C61.1299 2.00098 61.4399 2.00566 61.7451 2.01074C62.0399 2.01565 62.3304 2.02051 62.9229 2.02051C63.5026 2.0205 63.7828 2.0116 64.0723 2.00195C64.3827 1.99161 64.7032 1.98047 65.333 1.98047C65.9746 1.98048 66.3064 1.99693 66.623 2.0127C66.9092 2.02695 67.1798 2.04101 67.7422 2.04102C68.3109 2.04102 68.589 2.02956 68.8789 2.01758C69.1939 2.00456 69.5214 1.99121 70.1523 1.99121C71.2549 1.99121 72.434 2.35659 73.3848 2.76562C74.4387 3.21911 75.4039 3.90338 76.0957 4.64258H76.0967C76.4974 5.06285 76.6967 5.26481 76.8975 5.4668C77.1059 5.67643 77.3212 5.89086 77.7402 6.3252C78.1254 6.72446 78.32 6.90796 78.5273 7.10449C78.756 7.32115 78.9922 7.5462 79.4268 8.00195C79.883 8.48041 80.1016 8.75476 80.3037 9.00879C80.4715 9.2196 80.6229 9.41081 80.9863 9.79199C81.3533 10.1769 81.5398 10.3409 81.7432 10.5215C81.9847 10.7359 82.2433 10.9673 82.6963 11.4424C83.0971 11.8628 83.2974 12.0654 83.501 12.2715C83.7124 12.4854 83.9276 12.703 84.3467 13.1426C84.7937 13.6114 85.0091 13.8713 85.2109 14.1162C85.384 14.3263 85.5442 14.5211 85.917 14.9121C86.3113 15.3257 86.5087 15.5209 86.7119 15.7217C86.9285 15.9357 87.1509 16.1565 87.5762 16.6025C88.0198 17.0678 88.2349 17.3245 88.4355 17.5635C88.61 17.7712 88.7739 17.9662 89.1494 18.3555C89.5438 18.7643 89.7442 18.959 89.9502 19.1602C90.1692 19.374 90.3947 19.594 90.8203 20.0352C91.2269 20.4566 91.4316 20.6668 91.6377 20.8779L92.4697 21.7354L92.4766 21.7422C92.905 22.1915 93.1165 22.4303 93.3203 22.6602C93.5095 22.8735 93.6909 23.0771 94.0771 23.4824C94.4571 23.8811 94.6515 24.0663 94.8574 24.2627C95.0842 24.4789 95.3223 24.7063 95.7568 25.1621C96.1791 25.6049 96.3888 25.8352 96.5938 26.0605C96.7888 26.2751 96.9792 26.4852 97.377 26.9023C97.75 27.2935 97.9389 27.4652 98.1426 27.6504C98.3775 27.864 98.6269 28.092 99.0693 28.5557H99.0703C99.8123 29.3252 100.399 30.3968 100.8 31.376C101.246 32.4674 101.442 33.6415 101.442 34.6211C101.442 35.1448 101.458 35.3934 101.475 35.6611C101.493 35.9664 101.513 36.2907 101.513 36.9111C101.513 37.5185 101.499 37.8293 101.486 38.1279C101.474 38.3993 101.463 38.6588 101.463 39.2012C101.463 39.8151 101.447 40.1313 101.431 40.4326C101.417 40.7012 101.402 40.9554 101.402 41.4912C101.402 42.0202 101.418 42.2691 101.435 42.5332C101.453 42.8357 101.473 43.1547 101.473 43.7705C101.473 44.3142 101.482 44.5788 101.491 44.8545C101.502 45.1516 101.513 45.4598 101.513 46.0605C101.513 46.7005 101.483 47.0403 101.456 47.3535C101.433 47.6136 101.412 47.8467 101.412 48.3506C101.412 48.8487 101.435 49.0798 101.46 49.3389C101.49 49.6547 101.522 49.9989 101.522 50.6406V52.9307C101.522 53.5464 101.503 53.8702 101.484 54.1768C101.468 54.4469 101.452 54.701 101.452 55.2305C101.452 55.8377 101.439 56.1514 101.426 56.4521C101.414 56.7263 101.402 56.9888 101.402 57.5312C101.402 58.5421 101.174 59.6832 100.739 60.7451C100.343 61.7145 99.7769 62.7715 99.0303 63.5459L99.0293 63.5469C98.6076 63.9835 98.4 64.2014 98.1914 64.4199C97.9801 64.6413 97.7669 64.8644 97.3389 65.3076C96.9351 65.7256 96.7483 65.9357 96.5518 66.1553C96.3384 66.3936 96.119 66.6371 95.6729 67.0938C95.2145 67.5629 94.9586 67.7938 94.7168 68.0117C94.5037 68.2037 94.3045 68.3835 93.9131 68.7842C93.0656 69.6516 93.0845 69.6418 92.2295 70.5273C91.8368 70.934 91.6571 71.1406 91.4658 71.3604C91.2539 71.6038 91.031 71.8594 90.5791 72.3271C90.1121 72.8106 89.8464 73.0457 89.5986 73.2637C89.4409 73.4024 89.294 73.5314 89.0713 73.752L88.8193 74.0068C88.0211 74.8332 87.9567 74.9211 87.123 75.7744C86.7286 76.1782 86.5513 76.3816 86.3652 76.5967C86.1561 76.8384 85.9342 77.0966 85.4795 77.5674C85.0457 78.0165 84.823 78.2382 84.6084 78.4541C84.4013 78.6624 84.1969 78.8695 83.7861 79.2998L83.7793 79.3076C83.5551 79.5398 83.382 79.7128 83.2363 79.8555L82.5176 80.543C82.3903 80.6677 82.2396 80.8197 82.0391 81.0273C81.6294 81.4515 81.4361 81.6636 81.2373 81.8818C81.0262 82.1135 80.8093 82.352 80.3691 82.8076C79.9838 83.2066 79.8176 83.4072 79.6377 83.624C79.4278 83.8769 79.2034 84.1465 78.7393 84.627C78.2872 85.095 78.042 85.3244 77.8076 85.543C77.5971 85.7393 77.3968 85.9251 76.999 86.3369C76.5891 86.7613 76.3962 86.9741 76.1973 87.1924C75.9862 87.4241 75.7691 87.6616 75.3291 88.1172C74.8982 88.5633 74.6784 88.7858 74.4609 89.0059C74.2485 89.2208 74.0381 89.4334 73.6191 89.8672C73.1882 90.3133 72.9685 90.5359 72.751 90.7559C72.5385 90.9708 72.3281 91.1834 71.9092 91.6172C71.4543 92.0882 71.2047 92.3191 70.9697 92.5371C70.7608 92.731 70.5609 92.9166 70.166 93.3301L70.1602 93.3359C69.8223 93.6863 69.4288 94.3344 69.1094 95.1152C68.8402 95.7731 68.7227 96.5182 68.7227 97.1113C68.7227 97.6872 68.73 97.9701 68.7373 98.2598C68.745 98.5649 68.752 98.8777 68.752 99.4912C68.752 100.073 68.7568 100.361 68.7617 100.654C68.7668 100.958 68.7725 101.268 68.7725 101.881C68.7725 102.501 68.7623 102.818 68.752 103.127C68.7423 103.415 68.7324 103.696 68.7324 104.271C68.7324 104.858 68.7373 105.146 68.7422 105.437C68.7472 105.738 68.752 106.043 68.752 106.65V109.041C68.752 109.667 68.7386 109.99 68.7256 110.301C68.7137 110.586 68.7021 110.862 68.7021 111.431C68.7021 111.999 68.7137 112.272 68.7256 112.557C68.7386 112.867 68.752 113.19 68.752 113.821V118.601C68.752 119.257 68.7274 119.599 68.7031 119.92C68.6824 120.194 68.6621 120.448 68.6621 120.991C68.6621 121.567 68.6694 121.85 68.6768 122.141C68.6845 122.447 68.6924 122.762 68.6924 123.381C68.6924 123.931 68.7099 124.188 68.7285 124.465C68.7499 124.783 68.7725 125.121 68.7725 125.771C68.7725 126.427 68.7469 126.772 68.7227 127.094C68.7019 127.37 68.6826 127.623 68.6826 128.161V130.541C68.6826 131.098 68.6957 131.366 68.71 131.649C68.7257 131.964 68.7422 132.293 68.7422 132.931C68.7422 133.568 68.7257 133.898 68.71 134.212C68.6957 134.496 68.6826 134.764 68.6826 135.321C68.6826 135.935 68.6747 136.25 68.667 136.558C68.6597 136.85 68.6523 137.135 68.6523 137.711C68.6523 138.262 68.6681 138.527 68.6846 138.81C68.7031 139.127 68.7226 139.462 68.7227 140.101C68.7227 140.708 68.717 141.018 68.7119 141.324C68.707 141.62 68.7021 141.913 68.7021 142.501C68.7021 143.12 68.6942 143.435 68.6865 143.742C68.6792 144.034 68.6729 144.319 68.6729 144.9C68.6729 146.121 68.1961 147.231 67.3789 148.048C66.6861 148.741 65.6012 149.451 64.2324 149.451C63.571 149.451 63.2179 149.415 62.8945 149.382C62.633 149.355 62.4008 149.331 61.8926 149.331H59.5527C59.032 149.331 58.7898 149.352 58.5234 149.375C58.2051 149.402 57.8615 149.431 57.2129 149.431C56.5834 149.431 56.255 149.411 55.9443 149.393C55.6701 149.376 55.4123 149.361 54.8721 149.361H52.5322C51.9922 149.361 51.7351 149.376 51.4609 149.393C51.1502 149.411 50.8221 149.431 50.1924 149.431C49.5435 149.431 49.2003 149.402 48.8818 149.375C48.6153 149.352 48.3734 149.331 47.8525 149.331C47.2934 149.331 47.0211 149.34 46.7393 149.35C46.4363 149.36 46.1231 149.371 45.5127 149.371C44.896 149.371 44.5779 149.358 44.2725 149.345C43.9931 149.333 43.7256 149.321 43.1729 149.321C42.6584 149.321 42.4211 149.343 42.1572 149.368C41.8364 149.398 41.488 149.431 40.833 149.431C40.1969 149.431 39.8632 149.408 39.5498 149.387C39.2782 149.368 39.0259 149.351 38.4922 149.351C37.9201 149.351 37.6378 149.355 37.3506 149.36C37.0528 149.365 36.7501 149.371 36.1523 149.371C35.5484 149.371 35.2407 149.363 34.9404 149.355C34.6558 149.348 34.3783 149.341 33.8125 149.341C33.2211 149.341 32.9231 149.338 32.6279 149.336C32.3382 149.333 32.0508 149.331 31.4727 149.331C30.9068 149.331 30.6293 149.338 30.3447 149.346C30.0444 149.353 29.7367 149.361 29.1328 149.361H26.793C26.2338 149.361 25.9611 149.37 25.6777 149.38C25.3733 149.39 25.0577 149.4 24.4424 149.4C23.8208 149.4 23.503 149.387 23.1973 149.374C22.9181 149.362 22.6507 149.351 22.0928 149.351C21.0458 149.351 19.9105 149.077 18.8877 148.658C17.8411 148.23 16.8563 147.608 16.126 146.878C15.7277 146.48 15.5277 146.285 15.3242 146.086C15.1152 145.882 14.9018 145.674 14.4854 145.258C14.1175 144.89 13.9341 144.734 13.7363 144.566C13.501 144.367 13.2453 144.152 12.793 143.705C12.3699 143.287 12.1593 143.068 11.9541 142.855C11.8568 142.755 11.761 142.655 11.6396 142.531L9.54297 140.435C9.13303 140.03 8.92764 139.827 8.72266 139.625C8.51767 139.423 8.31327 139.219 7.90332 138.814C7.43783 138.355 7.21186 138.082 7.00488 137.829C6.83717 137.624 6.69114 137.443 6.33594 137.088C5.98384 136.736 5.80576 136.594 5.60254 136.43C5.34754 136.224 5.07138 135.999 4.6084 135.53V135.529C3.83266 134.75 3.26445 133.656 2.87109 132.721C2.43474 131.683 2.16211 130.524 2.16211 129.48ZM5.40234 24.3711C5.40235 24.9459 5.41221 25.2286 5.42188 25.5195C5.43221 25.8306 5.44238 26.1507 5.44238 26.7705C5.44238 27.328 5.45647 27.5988 5.4707 27.8838C5.48643 28.1988 5.50195 28.5288 5.50195 29.1611C5.50194 29.8311 5.46753 30.1909 5.43457 30.5205C5.40756 30.7907 5.38281 31.0313 5.38281 31.5508C5.38281 32.1017 5.39855 32.3671 5.41504 32.6494C5.43358 32.9669 5.45214 33.3018 5.45215 33.9404C5.45215 34.4977 5.46624 34.7662 5.48047 35.0498C5.49623 35.3641 5.5127 35.694 5.5127 36.3311C5.51269 36.9683 5.49624 37.298 5.48047 37.6123C5.46624 37.8959 5.45215 38.1635 5.45215 38.7207C5.45215 39.322 5.44979 39.6272 5.44727 39.9297C5.44478 40.2271 5.44238 40.5226 5.44238 41.1113V45.8906C5.44238 46.5234 5.42593 46.8512 5.41016 47.165C5.39593 47.4481 5.38281 47.7188 5.38281 48.2812V55.4512C5.38282 55.989 5.40205 56.2416 5.42285 56.5176C5.44713 56.8397 5.47266 57.1847 5.47266 57.8408V60.2305C5.47266 60.8741 5.45316 61.2067 5.43457 61.5225C5.41813 61.8016 5.40234 62.0649 5.40234 62.6211C5.40235 63.1521 5.42533 63.3951 5.4502 63.6641C5.48032 63.99 5.51269 64.342 5.5127 65.0107C5.5127 65.6852 5.47742 66.0446 5.44434 66.374C5.41734 66.6429 5.39259 66.8812 5.39258 67.4004C5.39258 67.9451 5.41007 68.2035 5.42871 68.4805C5.4501 68.7984 5.47266 69.1362 5.47266 69.7812C5.47266 70.3572 5.48002 70.64 5.4873 70.9297C5.49497 71.2348 5.50195 71.5475 5.50195 72.1611C5.50194 72.8254 5.47053 73.1757 5.44043 73.5C5.41565 73.767 5.39258 74.0101 5.39258 74.541C5.39258 75.1345 5.39498 75.4296 5.39746 75.7256C5.39998 76.0268 5.40234 76.3295 5.40234 76.9307C5.40234 77.5244 5.40475 77.8201 5.40723 78.1162C5.40975 78.4174 5.41211 78.7203 5.41211 79.3213C5.41211 79.9085 5.41696 80.1961 5.42188 80.4883C5.42697 80.791 5.43262 81.0985 5.43262 81.7109C5.43262 82.2858 5.44152 82.5636 5.45117 82.8506C5.46153 83.1585 5.47265 83.4759 5.47266 84.1006C5.47266 84.7504 5.45013 85.088 5.42871 85.4062C5.4101 85.6828 5.39258 85.9413 5.39258 86.4912C5.39259 87.0471 5.40837 87.3124 5.4248 87.5928C5.44336 87.9091 5.46289 88.2418 5.46289 88.8809V93.6611C5.46289 94.2485 5.46774 94.5386 5.47266 94.832C5.47775 95.1358 5.48242 95.4433 5.48242 96.0508V98.4404C5.48242 99.084 5.46292 99.4167 5.44434 99.7324C5.4279 100.012 5.41211 100.275 5.41211 100.831C5.41211 101.425 5.41451 101.72 5.41699 102.016C5.41952 102.317 5.42285 102.62 5.42285 103.221C5.42285 103.839 5.41493 104.152 5.40723 104.457C5.39992 104.747 5.39258 105.03 5.39258 105.611C5.39259 106.173 5.40571 106.441 5.41992 106.723C5.43573 107.036 5.45215 107.363 5.45215 108.001C5.45215 108.576 5.46205 108.854 5.47168 109.141C5.48201 109.449 5.49218 109.766 5.49219 110.391V112.781C5.49219 113.375 5.49459 113.667 5.49707 113.962C5.49959 114.262 5.50195 114.565 5.50195 115.171C5.50195 115.808 5.48648 116.136 5.4707 116.449C5.45652 116.731 5.44239 116.998 5.44238 117.561C5.44238 118.142 5.44973 118.424 5.45703 118.714C5.46474 119.019 5.47266 119.332 5.47266 119.951C5.47265 120.57 5.46473 120.885 5.45703 121.191C5.44972 121.482 5.44238 121.765 5.44238 122.341C5.44238 122.923 5.44723 123.211 5.45215 123.503C5.45724 123.806 5.46289 124.113 5.46289 124.721C5.46289 125.303 5.46774 125.591 5.47266 125.883C5.47775 126.185 5.48242 126.493 5.48242 127.101C5.48242 127.708 5.47775 128.016 5.47266 128.318C5.46774 128.611 5.46289 128.898 5.46289 129.48C5.46289 129.997 5.60947 130.719 5.91309 131.441C6.21531 132.16 6.537 132.726 6.82715 133.07L6.94922 133.204L6.95605 133.211C7.30285 133.562 7.47743 133.702 7.6748 133.861C7.92402 134.062 8.20118 134.286 8.66895 134.754C9.13345 135.218 9.35735 135.493 9.55957 135.74C9.72258 135.94 9.86738 136.117 10.2217 136.467C10.6317 136.872 10.837 137.075 11.042 137.277C11.2469 137.48 11.4524 137.682 11.8623 138.087L13.4922 139.717C13.915 140.134 14.125 140.353 14.3301 140.565C14.5248 140.767 14.7154 140.965 15.1123 141.357C15.4795 141.72 15.6637 141.875 15.8682 142.048C16.1104 142.253 16.3673 142.472 16.8193 142.924C17.2229 143.327 17.4254 143.525 17.6289 143.724C17.8377 143.927 18.0477 144.133 18.459 144.544C18.8286 144.914 19.4236 145.312 20.1367 145.604C20.8739 145.905 21.5797 146.051 22.0928 146.051C22.7143 146.051 23.0321 146.064 23.3379 146.077C23.6171 146.089 23.8843 146.101 24.4424 146.101C25.007 146.101 25.2823 146.092 25.5654 146.082C25.8694 146.072 26.1826 146.061 26.793 146.061H29.1328C29.6981 146.061 29.9754 146.054 30.2598 146.047C30.5601 146.039 30.8685 146.031 31.4727 146.031C32.0637 146.031 32.3612 146.034 32.6562 146.036C32.9461 146.039 33.2339 146.041 33.8125 146.041C34.4164 146.041 34.7241 146.049 35.0244 146.057C35.309 146.064 35.5866 146.071 36.1523 146.071C36.7243 146.071 37.0068 146.066 37.2939 146.062C37.5917 146.056 37.8946 146.051 38.4922 146.051C39.1283 146.051 39.462 146.073 39.7754 146.095C40.0469 146.113 40.2994 146.131 40.833 146.131C41.3471 146.131 41.5839 146.108 41.8477 146.083C42.1686 146.053 42.5175 146.021 43.1729 146.021C43.7896 146.021 44.1075 146.035 44.4131 146.048C44.6924 146.06 44.9598 146.071 45.5127 146.071C46.0719 146.071 46.3441 146.061 46.626 146.052C46.929 146.041 47.242 146.031 47.8525 146.031C48.5014 146.031 48.8446 146.06 49.1631 146.087C49.4296 146.11 49.6715 146.131 50.1924 146.131C50.7325 146.131 50.9896 146.115 51.2637 146.099C51.5744 146.08 51.9026 146.061 52.5322 146.061H54.8721C55.5016 146.061 55.8299 146.08 56.1406 146.099C56.4148 146.115 56.6726 146.131 57.2129 146.131C57.7336 146.131 57.9757 146.11 58.2422 146.087C58.5606 146.06 58.904 146.031 59.5527 146.031H61.8926C62.554 146.031 62.9071 146.066 63.2305 146.1C63.492 146.126 63.7242 146.15 64.2324 146.15C64.4234 146.15 64.7187 146.041 65.0459 145.714C65.2486 145.511 65.3721 145.239 65.3721 144.9C65.3721 144.282 65.38 143.967 65.3877 143.659C65.395 143.367 65.4023 143.082 65.4023 142.501C65.4023 141.889 65.408 141.576 65.4131 141.27C65.418 140.973 65.4229 140.683 65.4229 140.101C65.4228 139.55 65.4071 139.284 65.3906 139.002C65.3721 138.684 65.3525 138.35 65.3525 137.711C65.3525 137.097 65.3605 136.782 65.3682 136.475C65.3755 136.182 65.3828 135.897 65.3828 135.321C65.3828 134.689 65.3983 134.361 65.4141 134.047C65.4283 133.764 65.4424 133.493 65.4424 132.931C65.4424 132.368 65.4283 132.098 65.4141 131.814C65.3983 131.501 65.3828 131.173 65.3828 130.541V128.161C65.3828 127.51 65.4075 127.167 65.4316 126.846C65.4524 126.57 65.4727 126.314 65.4727 125.771C65.4726 125.221 65.4551 124.963 65.4365 124.687C65.4151 124.368 65.3926 124.031 65.3926 123.381C65.3926 122.8 65.3852 122.514 65.3779 122.224C65.3702 121.917 65.3623 121.605 65.3623 120.991C65.3623 120.335 65.3879 119.993 65.4121 119.672C65.4328 119.398 65.4521 119.144 65.4521 118.601V113.821C65.4521 113.253 65.4406 112.98 65.4287 112.695C65.4157 112.385 65.4023 112.062 65.4023 111.431C65.4023 110.8 65.4157 110.475 65.4287 110.163C65.4407 109.877 65.4521 109.604 65.4521 109.041V106.65C65.4521 106.068 65.4473 105.783 65.4424 105.492C65.4373 105.191 65.4326 104.883 65.4326 104.271C65.4326 103.646 65.4428 103.326 65.4531 103.017C65.4628 102.728 65.4727 102.45 65.4727 101.881C65.4727 101.293 65.4678 101.003 65.4629 100.71C65.4578 100.406 65.4522 100.099 65.4521 99.4912C65.4521 98.9153 65.4448 98.6324 65.4375 98.3428C65.4298 98.0376 65.4229 97.7248 65.4229 97.1113C65.4229 96.1444 65.6048 94.9684 66.0557 93.8662C66.4553 92.8894 67.0396 91.82 67.7793 91.0508L68.332 90.4893C68.4816 90.3433 68.6051 90.2289 68.7256 90.1172C68.9405 89.9178 69.1404 89.7329 69.5352 89.3242C69.9662 88.878 70.1868 88.6556 70.4043 88.4355C70.6167 88.2207 70.8273 88.0078 71.2461 87.5742C71.6769 87.1283 71.8968 86.9055 72.1143 86.6855C72.3266 86.4707 72.5373 86.2578 72.9561 85.8242C73.3657 85.4001 73.559 85.1879 73.7578 84.9697C73.9689 84.738 74.1859 84.5005 74.626 84.0449C75.078 83.5769 75.3232 83.3475 75.5576 83.1289C75.768 82.9327 75.9678 82.7464 76.3652 82.335C76.7509 81.9357 76.9176 81.7346 77.0977 81.5176C77.3075 81.2647 77.5319 80.9952 77.9961 80.5146C78.4059 80.0904 78.599 79.8774 78.7979 79.6592C79.0089 79.4276 79.2261 79.1898 79.666 78.7344C80.1147 78.2698 80.3571 78.041 80.5898 77.8213C80.802 77.6211 81.0045 77.4296 81.4053 77.0146C81.8298 76.57 82.0494 76.3483 82.2686 76.1279C82.4814 75.9138 82.6893 75.7053 83.1055 75.2744C83.5006 74.8654 83.6783 74.6581 83.8691 74.4375C84.0831 74.1901 84.3072 73.9339 84.7627 73.4678C85.6287 72.5814 85.5439 72.648 86.4453 71.7148C86.9078 71.2358 87.1719 71.0035 87.4189 70.7861C87.6286 70.6017 87.8231 70.4307 88.2061 70.0342C88.6038 69.6224 88.7861 69.4132 88.9766 69.1943C89.1878 68.9517 89.4083 68.6976 89.8555 68.2344C90.6802 67.3802 90.6994 67.35 91.5518 66.4775C92.01 66.0085 92.2661 65.7784 92.5078 65.5605C92.721 65.3685 92.9209 65.1889 93.3125 64.7881C93.7161 64.375 93.9012 64.1681 94.0928 63.9541C94.3012 63.7212 94.5199 63.4764 94.9658 63.0146C95.3877 62.5779 95.595 62.3602 95.8037 62.1416C96.0149 61.9203 96.2274 61.6978 96.6553 61.2549C96.9884 60.9092 97.3623 60.2862 97.6855 59.4961C97.9709 58.7985 98.1025 58.0802 98.1025 57.5312C98.1025 56.924 98.1158 56.6103 98.1289 56.3096C98.1408 56.0354 98.1523 55.7729 98.1523 55.2305C98.1524 54.6105 98.1718 54.2847 98.1904 53.9775C98.2068 53.7066 98.2227 53.4549 98.2227 52.9307V50.6406C98.2226 50.1429 98.1996 49.9122 98.1748 49.6533C98.1446 49.3374 98.1123 48.9925 98.1123 48.3506C98.1123 47.7153 98.1417 47.3785 98.1689 47.0664C98.1916 46.8071 98.2129 46.5705 98.2129 46.0605C98.2129 45.5118 98.203 45.245 98.1934 44.9697C98.183 44.673 98.1729 44.3667 98.1729 43.7705C98.1728 43.247 98.157 43.0011 98.1406 42.7363C98.1219 42.4331 98.1025 42.1117 98.1025 41.4912C98.1025 40.877 98.1189 40.5602 98.1348 40.2588C98.1489 39.9904 98.1621 39.7366 98.1621 39.2012C98.1621 38.5936 98.1764 38.2821 98.1895 37.9834C98.2013 37.7122 98.2129 37.4532 98.2129 36.9111C98.2129 36.3816 98.197 36.1295 98.1807 35.8623C98.1621 35.5579 98.1426 35.2366 98.1426 34.6211C98.1426 34.0407 98.0185 33.2945 97.7451 32.626C97.4257 31.8452 97.0322 31.1961 96.6943 30.8457L96.6885 30.8398C96.3155 30.4486 96.1265 30.277 95.9229 30.0918C95.6867 29.8771 95.4351 29.6483 94.9883 29.1797C94.5661 28.7369 94.3562 28.5066 94.1514 28.2812C93.9563 28.0667 93.7659 27.8566 93.3682 27.4395C92.9829 27.0354 92.7858 26.8476 92.5801 26.6514C92.3536 26.4354 92.1174 26.2099 91.6875 25.7588C91.2641 25.3145 91.0547 25.0787 90.8516 24.8496C90.663 24.637 90.4794 24.4302 90.0879 24.0195V24.0186C89.6861 23.602 89.4823 23.3934 89.2773 23.1836C89.0686 22.9698 88.8585 22.7544 88.4453 22.3262C88.0509 21.9173 87.8505 21.7226 87.6445 21.5215C87.4256 21.3077 87.2008 21.0874 86.7754 20.6465C86.331 20.1859 86.1147 19.9302 85.9092 19.6855C85.7299 19.4721 85.5645 19.2742 85.1885 18.8799C84.7938 18.466 84.596 18.2703 84.3926 18.0693C84.176 17.8554 83.9535 17.6354 83.5283 17.1895C83.0811 16.7205 82.8659 16.4598 82.6641 16.2148C82.4911 16.0049 82.3306 15.8107 81.958 15.4199C81.5572 14.9995 81.3569 14.7969 81.1533 14.5908C80.942 14.3769 80.7275 14.1591 80.3086 13.7197C79.9416 13.3349 79.7551 13.1708 79.5518 12.9902C79.3102 12.7758 79.0516 12.5444 78.5986 12.0693C78.1426 11.5911 77.9238 11.3174 77.7217 11.0635C77.5538 10.8525 77.4019 10.6608 77.0381 10.2793C76.653 9.87544 76.459 9.69068 76.2578 9.5C76.0353 9.28907 75.8 9.06684 75.3652 8.61621C74.9645 8.20078 74.7641 8.00072 74.5576 7.79297C74.3434 7.5775 74.1271 7.35945 73.708 6.91992L73.6943 6.9043C73.3272 6.50948 72.7387 6.08024 72.0801 5.79688C71.3109 5.46594 70.6097 5.29102 70.1523 5.29102C69.5835 5.29102 69.3056 5.30247 69.0156 5.31445C68.7007 5.32747 68.3732 5.34082 67.7422 5.34082C67.1049 5.34082 66.7752 5.32434 66.459 5.30859C66.1734 5.29437 65.9005 5.28126 65.333 5.28125C64.7529 5.28125 64.4722 5.29016 64.1826 5.2998C63.8723 5.31015 63.5524 5.32129 62.9229 5.32129C62.3057 5.32129 61.9955 5.31563 61.6904 5.31055C61.3957 5.30564 61.1051 5.30078 60.5127 5.30078C59.9386 5.30078 59.6604 5.31226 59.3721 5.32422C59.0583 5.33723 58.7336 5.35058 58.1025 5.35059C57.5465 5.35059 57.281 5.36636 56.999 5.38281C56.6812 5.40136 56.3458 5.4209 55.7021 5.4209C55.0275 5.42089 54.6707 5.38556 54.3418 5.35254C54.0744 5.32569 53.8331 5.30079 53.3027 5.30078C52.7781 5.30078 52.5387 5.32751 52.2705 5.35645C51.9374 5.39238 51.5735 5.43066 50.8926 5.43066C50.274 5.43066 49.959 5.42273 49.6514 5.41504C49.3591 5.40773 49.0735 5.40039 48.4922 5.40039C47.8487 5.40039 47.5141 5.38182 47.1963 5.36328C46.9142 5.34683 46.6489 5.33106 46.0928 5.33105C45.5052 5.33105 45.2148 5.33591 44.9199 5.34082C44.6148 5.3459 44.3048 5.35059 43.6924 5.35059C43.1363 5.35059 42.8709 5.36636 42.5889 5.38281C42.2711 5.40135 41.9363 5.42089 41.293 5.4209C40.6306 5.4209 40.2804 5.39235 39.9551 5.36523C39.6805 5.34236 39.4299 5.32129 38.8926 5.32129C38.2988 5.32129 38.0035 5.32369 37.7061 5.32617C37.4035 5.3287 37.0983 5.33105 36.4922 5.33105C35.9361 5.33106 35.6707 5.34683 35.3887 5.36328C35.0709 5.38182 34.7362 5.40038 34.0928 5.40039H29.293C28.6493 5.40039 28.3139 5.38182 27.9961 5.36328C27.7141 5.34683 27.4487 5.33106 26.8926 5.33105C26.3362 5.33105 26.0702 5.34682 25.7881 5.36328C25.4704 5.38181 25.1355 5.40039 24.4922 5.40039C23.8549 5.40039 23.5252 5.3849 23.21 5.36914C22.9254 5.35491 22.6551 5.34083 22.0928 5.34082C21.607 5.34082 20.8933 5.50259 20.1484 5.81934C19.4341 6.12311 18.8224 6.5341 18.4492 6.90723C17.9968 7.36478 17.7307 7.5867 17.4824 7.79199C17.2787 7.96047 17.0978 8.10923 16.7393 8.46777C16.3711 8.83593 16.2119 9.02299 16.0391 9.22559C15.8352 9.46452 15.6163 9.72063 15.1689 10.168C14.7445 10.5924 14.5181 10.8021 14.2988 11.0059C14.0961 11.1942 13.8994 11.377 13.5088 11.7676L11.8721 13.4043C11.4817 13.7899 11.2991 13.9848 11.1094 14.1865C10.9042 14.4047 10.6912 14.6304 10.2617 15.0547C9.86822 15.4434 9.6816 15.6397 9.49219 15.8398C9.29012 16.0534 9.08016 16.2763 8.65918 16.6973C8.21842 17.138 7.97109 17.3552 7.73828 17.5586C7.53616 17.7352 7.34861 17.8985 6.97949 18.2676C6.58678 18.6603 6.16378 19.2817 5.87988 19.9756C5.60197 20.6549 5.47268 21.4025 5.47266 21.9707V23.6211H5.4082C5.40495 23.8139 5.40234 24.0464 5.40234 24.3711Z" fill="#1E1E1E"/>
<path d="M64.7113 46.5716C63.5413 46.5716 63.5413 46.4916 62.3713 46.4916C61.2013 46.4916 61.2014 46.5116 60.0314 46.5116C58.8614 46.5116 58.8614 46.5216 57.6914 46.5216C56.5214 46.5216 56.5213 46.4316 55.3513 46.4316C54.1813 46.4316 54.1814 46.5416 53.0114 46.5416C51.8414 46.5416 51.8414 46.4616 50.6714 46.4616C49.5014 46.4616 49.5014 46.4616 48.3314 46.4616C47.1614 46.4616 47.1613 46.4916 45.9913 46.4916C44.8213 46.4916 44.8214 46.5616 43.6514 46.5616C42.4814 46.5616 42.4814 46.4816 41.3114 46.4816C40.1414 46.4816 40.1413 46.5216 38.9613 46.5216C37.7813 46.5216 37.7913 46.5016 36.6113 46.5016" fill="#009E92"/>
<path d="M64.7115 46.5714C62.4115 47.1214 60.0216 47.5414 57.6816 47.8114C56.4516 47.9214 55.4616 47.8514 54.3116 48.0414C51.9316 48.2814 49.5116 48.0514 47.1816 48.0414C43.6016 47.9414 40.0416 47.4714 36.6016 46.5014C38.9116 45.8514 41.2816 45.4114 43.6316 45.2614C46.5216 44.8814 49.6316 44.6914 52.4716 44.9014C54.1616 44.9314 56.0617 44.9014 57.6917 45.2214C60.0517 45.4814 62.4716 45.7714 64.7216 46.5614L64.7115 46.5714Z" fill="#1E1E1E"/>
<path d="M32.5117 124.11C33.3317 123.29 33.2917 123.25 34.1117 122.43C34.9317 121.61 34.9517 121.63 35.7717 120.81C36.5917 119.99 36.5717 119.98 37.3917 119.16C38.2117 118.34 38.2618 118.38 39.0818 117.56C39.9018 116.74 39.8618 116.7 40.6818 115.88C41.5018 115.06 41.4918 115.04 42.3118 114.22C43.1318 113.4 43.1617 113.43 43.9817 112.6C44.8017 111.77 44.7817 111.76 45.6017 110.93C46.4217 110.1 46.4417 110.13 47.2717 109.3C48.1017 108.47 48.0918 108.47 48.9218 107.65C49.7518 106.83 49.7218 106.8 50.5518 105.98" fill="#009E92"/>
<path d="M32.5117 124.11C34.0317 120.95 36.3418 118.29 38.6718 115.68C39.8518 114.31 41.3118 112.85 42.7018 111.68C45.1118 109.48 47.6418 107.59 50.5518 105.99C48.6118 109.85 45.6918 113.14 42.7018 116.18C39.7418 119.24 36.2317 122.02 32.5117 124.11Z" fill="#1E1E1E"/>
<path d="M43.2617 66.7402C44.0717 67.5502 44.1118 67.5102 44.9218 68.3202C45.7318 69.1302 45.7618 69.1002 46.5718 69.9202C47.3818 70.7402 47.3017 70.8202 48.1117 71.6402C48.9217 72.4602 48.9517 72.4302 49.7617 73.2402C50.5717 74.0502 50.6218 74.0102 51.4418 74.8202C52.2618 75.6302 52.2117 75.6802 53.0317 76.4902C53.8517 77.3002 53.8818 77.2702 54.6918 78.0802C55.5018 78.8902 55.4417 78.9602 56.2617 79.7802C57.0817 80.6002 57.1118 80.5702 57.9218 81.3902C58.7318 82.2102 58.7917 82.1502 59.6117 82.9702" fill="#009E92"/>
<path d="M43.2617 66.7402C46.0617 67.9202 48.1017 69.7202 50.4617 71.7302C54.1817 74.8902 57.2417 78.6702 59.6217 82.9702C57.7617 82.1302 56.0717 81.1902 54.5117 79.7902C53.9417 79.2802 52.9917 78.5402 52.3817 78.0402C50.2217 75.9402 48.1417 74.1202 46.3617 71.6102C45.4517 70.1302 44.0517 68.4202 43.2717 66.7502L43.2617 66.7402Z" fill="#1E1E1E"/>
<path d="M48.4528 11.7109C48.4528 12.8709 48.4227 12.8709 48.4227 14.0309C48.4227 15.1909 48.4727 15.1909 48.4727 16.3509C48.4727 17.5109 48.4427 17.5109 48.4427 18.6809C48.4427 19.8509 48.4727 19.8409 48.4727 21.0109C48.4727 22.1809 48.4227 22.1709 48.4227 23.3409C48.4227 24.5109 48.4227 24.5109 48.4227 25.6709C48.4227 26.8309 48.3827 26.8409 48.3827 28.0009" fill="#009E92"/>
<path d="M48.4528 11.7109C50.6828 16.8109 50.7627 22.9009 48.3827 28.0009C47.1627 25.4309 46.8427 22.7009 46.8027 19.9009C46.8427 17.1109 47.1627 14.2609 48.4427 11.7209L48.4528 11.7109Z" fill="#1E1E1E"/>
<path d="M56.4531 11.7598C57.2631 12.5698 57.3631 12.4798 58.1731 13.2898C58.9831 14.0998 58.9731 14.1098 59.7831 14.9298C60.5931 15.7498 60.523 15.8198 61.343 16.6298C62.163 17.4398 62.2131 17.3898 63.0231 18.1998C63.8331 19.0098 63.793 19.0598 64.603 19.8798C65.413 20.6998 65.403 20.7098 66.223 21.5198C67.033 22.3298 67.0931 22.2698 67.9131 23.0898C68.7331 23.9098 68.7131 23.9198 69.5331 24.7398C70.3531 25.5598 70.3431 25.5698 71.1631 26.3798C71.9831 27.1898 71.9631 27.2098 72.7831 28.0298" fill="#009E92"/>
<path d="M56.4531 11.76C58.7831 12.62 60.7031 14.18 62.5631 15.79C63.6731 16.55 64.8431 17.72 65.7831 18.71C68.5631 21.55 71.0631 24.33 72.7731 28.01C70.5131 26.9 68.6031 25.48 66.7031 23.92C64.7631 22.54 63.0931 20.69 61.5531 18.93C59.4931 16.86 57.9831 14.23 56.4531 11.75V11.76Z" fill="#1E1E1E"/>
<path d="M24.2324 28.1003C25.0424 27.2903 25.0624 27.3103 25.8724 26.5003C26.6824 25.6903 26.6824 25.6903 27.4924 24.8803C28.3024 24.0703 28.2824 24.0403 29.0924 23.2203C29.9024 22.4003 29.8525 22.3603 30.6725 21.5403C31.4925 20.7203 31.5424 20.7803 32.3524 19.9703C33.1624 19.1603 33.1125 19.1003 33.9325 18.2903C34.7525 17.4803 34.7425 17.4803 35.5625 16.6603C36.3825 15.8403 36.4525 15.9203 37.2625 15.1003C38.0725 14.2803 38.0825 14.2803 38.9025 13.4703C39.7225 12.6603 39.7025 12.6403 40.5225 11.8203" fill="#009E92"/>
<path d="M24.2324 28.1003C27.8924 21.2503 33.6125 15.4003 40.5325 11.8203C38.9225 15.3903 36.1625 18.1803 33.5425 21.1203C30.6725 23.7203 27.8224 26.5003 24.2324 28.1003Z" fill="#1E1E1E"/>
<path d="M24.7419 149.469C23.0319 149.469 21.642 148.079 21.642 146.379C21.642 145.799 21.6419 145.519 21.6219 145.229C21.6119 144.909 21.6019 144.599 21.6019 143.969V141.559C21.6019 140.919 21.622 140.599 21.642 140.279C21.652 139.999 21.672 139.719 21.672 139.159C21.672 138.519 21.682 138.199 21.702 137.879C21.712 137.599 21.7319 137.319 21.7319 136.749C21.7319 136.179 21.722 135.909 21.702 135.619C21.682 135.299 21.672 134.979 21.672 134.339C21.672 133.749 21.672 133.459 21.662 133.169C21.662 132.859 21.652 132.549 21.652 131.939C21.652 131.329 21.672 130.979 21.682 130.659C21.692 130.379 21.7119 130.099 21.7119 129.539C21.7119 128.979 21.712 128.669 21.692 128.379C21.692 128.069 21.672 127.759 21.672 127.129C21.672 126.499 21.692 126.159 21.702 125.839C21.712 125.559 21.7319 125.279 21.7319 124.719C21.7319 124.159 21.712 123.899 21.692 123.619C21.672 123.289 21.652 122.969 21.652 122.309C21.652 121.699 21.652 121.389 21.652 121.089C21.652 120.799 21.652 120.499 21.652 119.909C21.652 119.319 21.652 119.039 21.642 118.739C21.642 118.429 21.632 118.119 21.632 117.499C21.632 116.849 21.652 116.519 21.672 116.199C21.692 115.929 21.702 115.649 21.702 115.099C21.702 114.549 21.682 114.269 21.672 113.999C21.652 113.679 21.632 113.349 21.632 112.699V110.299C21.632 109.729 21.6319 109.449 21.6119 109.169C21.6019 108.849 21.582 108.539 21.582 107.899C21.582 107.229 21.612 106.889 21.642 106.559C21.662 106.299 21.692 106.029 21.692 105.499C21.692 104.909 21.692 104.619 21.692 104.319C21.692 104.009 21.692 103.709 21.692 103.099C21.692 102.539 21.682 102.249 21.672 101.969C21.662 101.649 21.642 101.329 21.642 100.699C21.642 100.119 21.6419 99.8394 21.6219 99.5494C21.6219 99.2394 21.6019 98.9294 21.6019 98.2994V95.8994C21.6019 95.2294 21.632 94.8894 21.662 94.5594C21.682 94.2994 21.7119 94.0294 21.7119 93.4994C21.7119 92.9494 21.692 92.6694 21.682 92.3894C21.662 92.0694 21.642 91.7394 21.642 91.0994C21.642 90.4594 21.662 90.1294 21.682 89.8094C21.702 89.5294 21.7119 89.2594 21.7119 88.6994C21.7119 88.1394 21.712 87.8294 21.692 87.5494C21.692 87.2394 21.672 86.9294 21.672 86.2994C21.672 85.6694 21.682 85.3494 21.692 85.0394C21.702 84.7494 21.7119 84.4694 21.7119 83.8994C21.7119 83.3694 21.692 83.1094 21.662 82.8394C21.632 82.5094 21.6019 82.1694 21.6019 81.4994C21.6019 80.8694 21.6119 80.5594 21.6219 80.2394C21.6319 79.9494 21.642 79.6694 21.642 79.0994V74.2994C21.642 73.6494 21.652 73.3294 21.672 72.9994C21.692 72.7194 21.702 72.4494 21.702 71.8994C21.702 71.3494 21.682 71.0794 21.662 70.8094C21.642 70.4794 21.6219 70.1594 21.6219 69.4994C21.6219 68.9094 21.6119 67.7094 21.6119 67.0994C21.6119 66.4894 21.6119 66.2194 21.6119 65.9294C21.6119 65.6194 21.6119 65.3194 21.6119 64.6994C21.6119 64.0794 21.6119 63.7694 21.6219 63.4594C21.6219 63.1694 21.632 62.8794 21.632 62.2894C21.632 61.6294 21.662 61.2894 21.682 60.9594C21.702 60.6894 21.7219 60.4194 21.7219 59.8894V57.4894C21.7219 56.9194 21.712 56.6294 21.702 56.3494C21.692 56.0394 21.682 55.7194 21.682 55.0894C21.682 54.4594 21.6919 54.1394 21.7119 53.8194C21.7219 53.5394 21.7319 53.2494 21.7319 52.6894C21.7319 52.1694 21.712 51.9094 21.682 51.6494C21.652 51.3094 21.6219 50.9694 21.6219 50.2894C21.6219 49.6494 21.632 49.3394 21.652 49.0194C21.662 48.7394 21.672 48.4594 21.672 47.8894C21.672 47.3194 21.662 47.0494 21.642 46.7694C21.632 46.4494 21.6119 46.1294 21.6119 45.4994C21.6119 44.8694 21.632 44.5394 21.642 44.2194C21.652 43.9394 21.672 43.6594 21.672 43.0994V40.6994C21.672 40.1494 21.672 39.8694 21.652 39.5894C21.632 39.2694 21.6219 38.9494 21.6219 38.2994V35.8994C21.6219 35.2294 21.642 34.8994 21.672 34.5594C21.692 34.2994 21.7119 34.0294 21.7119 33.4994C21.7119 32.9194 21.712 32.6294 21.702 32.3294C21.702 32.0194 21.692 31.7094 21.692 31.0894V28.6894C21.692 28.0794 21.692 27.7794 21.692 27.4694C21.692 27.1694 21.692 26.8794 21.692 26.2894C21.692 25.7294 21.682 25.4494 21.662 25.1694C21.642 24.8494 21.632 24.5294 21.632 23.8894C21.632 23.2494 21.652 22.9194 21.672 22.5994C21.692 22.3194 21.702 22.0494 21.702 21.4994C21.702 20.9494 21.692 20.6494 21.682 20.3594C21.672 20.0394 21.662 19.7294 21.662 19.0994C21.662 18.5294 21.662 18.2394 21.642 17.9594C21.632 17.6494 21.6219 17.3294 21.6219 16.7094C21.6219 16.0894 21.622 15.7794 21.642 15.4594C21.642 15.1694 21.662 14.8794 21.662 14.3094C21.662 13.7394 21.662 13.4294 21.652 13.1394C21.652 12.8294 21.642 12.5194 21.642 11.9094C21.642 11.3294 21.642 11.0394 21.632 10.7494C21.632 10.4394 21.6119 10.1294 21.6119 9.50938C21.6119 8.88938 21.6119 8.59938 21.6119 8.28938C21.6119 7.98938 21.6119 7.69938 21.6119 7.10938V4.70938C21.6119 3.02938 23.0119 1.65938 24.7319 1.65938C24.9719 1.65938 25.082 1.65937 25.202 1.63937C25.372 1.62937 25.542 1.60938 25.882 1.60938C27.572 1.60938 28.922 2.99938 28.922 4.70938C28.922 5.24938 28.9419 5.52938 28.9619 5.79938C28.9819 6.12938 29.012 6.45937 29.012 7.11937C29.012 7.77937 28.9919 8.08938 28.9719 8.40938C28.9519 8.68938 28.942 8.96937 28.942 9.52937C28.942 10.1194 28.952 11.3294 28.952 11.9394V14.3494C28.952 14.9194 28.9519 15.2094 28.9619 15.4994C28.9719 15.8094 28.9819 16.1294 28.9819 16.7594C28.9819 17.3894 28.962 17.7394 28.942 18.0694C28.922 18.3394 28.902 18.6194 28.902 19.1594C28.902 19.6994 28.922 19.9894 28.932 20.2594C28.952 20.5794 28.9719 20.9094 28.9719 21.5594V23.9694V26.3694C28.9719 26.9894 28.9719 27.2894 28.9619 27.5994C28.9619 27.8894 28.952 28.1894 28.952 28.7694C28.952 29.3494 28.952 29.6494 28.952 29.9494C28.952 30.2594 28.952 30.5594 28.952 31.1794C28.952 31.7994 28.952 32.0994 28.952 32.4094C28.952 32.6994 28.952 32.9994 28.952 33.5794C28.952 34.1194 28.9719 34.3994 28.9919 34.6694C29.0119 34.9994 29.032 35.3294 29.032 35.9794C29.032 36.6294 29.012 36.9394 29.002 37.2594C28.992 37.5394 28.9719 37.8194 28.9719 38.3794C28.9719 38.9394 28.9719 39.2594 28.9819 39.5494C28.9819 39.8594 28.9919 40.1694 28.9919 40.7794C28.9919 41.3894 28.9919 41.6994 28.9919 41.9994C28.9919 42.2894 28.9919 42.5894 28.9919 43.1794C28.9919 43.7694 29.002 44.0294 29.012 44.3094C29.022 44.6294 29.042 44.9494 29.042 45.5794C29.042 46.2094 29.042 46.5194 29.022 46.8294C29.022 47.1194 29.002 47.4094 29.002 47.9794C29.002 48.5494 29.002 48.8594 29.012 49.1494C29.012 49.4594 29.022 49.7694 29.022 50.3794C29.022 50.9894 29.022 51.3094 29.002 51.6194C29.002 51.9094 28.9919 52.1994 28.9919 52.7794C28.9919 53.4294 28.972 53.7594 28.952 54.0894C28.932 54.3594 28.912 54.6294 28.912 55.1794C28.912 55.7294 28.9319 55.9594 28.9619 56.2194C28.9919 56.5594 29.022 56.8994 29.022 57.5694C29.022 58.1794 29.022 58.4894 29.022 58.7994C29.022 59.0894 29.022 59.3894 29.022 59.9794C29.022 60.6294 29.0019 60.9494 28.9819 61.2694C28.9619 61.5494 28.952 61.8194 28.952 62.3794V67.1794C28.942 67.7594 28.952 68.0494 28.952 68.3394C28.952 68.6494 28.9619 68.9594 28.9619 69.5794C28.9619 70.1994 28.952 71.3894 28.952 71.9794C28.952 72.5694 28.952 72.8894 28.952 73.1994C28.952 73.4994 28.952 73.7894 28.952 74.3794C28.952 74.9694 28.9619 75.2294 28.9719 75.5094C28.9819 75.8294 29.002 76.1394 29.002 76.7794C29.002 77.4194 28.9919 77.7194 28.9819 78.0294C28.9819 78.3194 28.9619 78.5994 28.9619 79.1794C28.9619 79.7594 28.9819 79.9994 28.9919 80.2794C29.0119 80.6094 29.032 80.9294 29.032 81.5794C29.032 82.2294 29.0019 82.5894 28.9719 82.9294C28.9519 83.1894 28.922 83.4494 28.922 83.9794C28.922 84.5094 28.9419 84.7994 28.9619 85.0694C28.9819 85.3994 29.002 85.7294 29.002 86.3794C29.002 87.0294 28.9919 87.3194 28.9819 87.6394C28.9819 87.9294 28.9619 88.2094 28.9619 88.7794C28.9619 89.3194 28.982 89.5894 29.002 89.8594C29.022 90.1894 29.052 90.5194 29.052 91.1794C29.052 91.8394 29.0119 92.2394 28.9719 92.5594C28.9419 92.8294 28.912 93.0694 28.912 93.5694C28.912 94.1194 28.932 94.3894 28.942 94.6694C28.962 94.9994 28.9819 95.3194 28.9819 95.9694C28.9819 96.5794 28.9819 96.8894 28.9819 97.1894C28.9819 97.4794 28.9819 97.7794 28.9819 98.3694C28.9819 98.9594 28.9819 99.2894 28.9819 99.5894C28.9819 99.8794 28.9819 100.179 28.9819 100.769C28.9819 101.309 29.002 101.589 29.022 101.859C29.042 102.189 29.062 102.519 29.062 103.169C29.062 103.789 29.062 104.089 29.052 104.399C29.052 104.689 29.042 104.979 29.042 105.569C29.042 106.159 29.042 106.489 29.042 106.789C29.042 107.079 29.042 107.379 29.042 107.969C29.042 108.559 29.042 108.829 29.062 109.119C29.062 109.429 29.082 109.739 29.082 110.369C29.082 110.999 29.072 111.329 29.052 111.639C29.042 111.919 29.022 112.199 29.022 112.759C29.022 113.409 29.0019 113.729 28.9819 114.049C28.9619 114.329 28.952 114.599 28.952 115.149C28.952 115.699 28.972 115.939 29.002 116.199C29.032 116.539 29.062 116.869 29.062 117.549C29.062 118.179 29.052 118.499 29.032 118.819C29.022 119.099 29.012 119.389 29.012 119.949C29.012 120.579 29.0019 120.889 28.9919 121.209C28.9819 121.499 28.9719 121.779 28.9719 122.349C28.9719 122.869 28.992 123.139 29.022 123.399C29.052 123.739 29.082 124.069 29.082 124.749C29.082 125.429 29.062 125.739 29.032 126.069C29.012 126.339 28.9919 126.609 28.9919 127.149C28.9919 127.689 29.002 127.989 29.022 128.269C29.042 128.589 29.052 128.909 29.052 129.549C29.052 130.119 29.052 130.409 29.072 130.699C29.072 131.009 29.0919 131.319 29.0919 131.949C29.0919 132.609 29.072 132.939 29.042 133.269C29.022 133.539 29.002 133.809 29.002 134.349C29.002 134.919 29.012 135.199 29.022 135.489C29.032 135.799 29.042 136.119 29.042 136.749C29.042 137.379 29.042 137.679 29.022 137.989C29.022 138.279 29.002 138.569 29.002 139.149C29.002 139.699 29.022 139.969 29.032 140.249C29.052 140.579 29.072 140.899 29.072 141.549C29.072 142.239 29.032 142.599 29.002 142.919C28.972 143.179 28.952 143.429 28.952 143.949C28.952 144.489 28.9719 144.759 28.9919 145.029C29.0119 145.359 29.042 145.689 29.042 146.339C29.042 148.039 27.652 149.429 25.952 149.429H24.782L24.7419 149.469Z" fill="#E5E5E5"/>
<path d="M25.9116 3.31C26.6916 3.31 27.2816 3.98001 27.2816 4.76001C27.2816 5.97001 27.3716 5.97 27.3716 7.17C27.3716 8.37 27.3016 8.38 27.3016 9.58C27.3016 10.78 27.3116 10.78 27.3116 11.99C27.3116 13.2 27.3116 13.19 27.3116 14.4C27.3116 15.61 27.3516 15.6 27.3516 16.81C27.3516 18.02 27.2716 18.01 27.2716 19.21C27.2716 20.41 27.3416 20.41 27.3416 21.61C27.3416 22.81 27.3416 22.81 27.3416 24.01C27.3416 25.21 27.3416 25.21 27.3416 26.41C27.3416 27.61 27.3217 27.61 27.3217 28.81C27.3217 30.01 27.3416 30.01 27.3416 31.21C27.3416 32.41 27.3217 32.41 27.3217 33.61C27.3217 34.81 27.4016 34.81 27.4016 36.01C27.4016 37.21 27.3416 37.21 27.3416 38.41C27.3416 39.61 27.3616 39.61 27.3616 40.81C27.3616 42.01 27.3416 42.01 27.3416 43.21C27.3416 44.41 27.3916 44.41 27.3916 45.61C27.3916 46.81 27.3516 46.81 27.3516 48.01C27.3516 49.21 27.3716 49.21 27.3716 50.41C27.3716 51.61 27.3416 51.61 27.3416 52.81C27.3416 54.01 27.2616 54.01 27.2616 55.21C27.2616 56.41 27.3716 56.41 27.3716 57.61C27.3716 58.81 27.3516 58.81 27.3516 60.01C27.3516 61.21 27.2816 61.21 27.2816 62.41C27.2816 63.61 27.2816 63.61 27.2816 64.81C27.2816 66.01 27.2816 66.01 27.2816 67.21C27.2816 68.41 27.3116 68.41 27.3116 69.61C27.3116 70.81 27.3016 70.81 27.3016 72.01C27.3016 73.21 27.2916 73.21 27.2916 74.41C27.2916 75.61 27.3416 75.61 27.3416 76.81C27.3416 78.01 27.3016 78.01 27.3016 79.21C27.3016 80.41 27.3716 80.41 27.3716 81.61C27.3716 82.81 27.2616 82.81 27.2616 84.01C27.2616 85.21 27.3416 85.21 27.3416 86.41C27.3416 87.61 27.3016 87.61 27.3016 88.81C27.3016 90.01 27.3916 90.01 27.3916 91.21C27.3916 92.41 27.2516 92.41 27.2516 93.61C27.2516 94.81 27.3317 94.81 27.3317 96.01C27.3317 97.21 27.3116 97.21 27.3116 98.41C27.3116 99.61 27.3016 99.61 27.3016 100.81C27.3016 102.01 27.3816 102.01 27.3816 103.21C27.3816 104.41 27.3616 104.41 27.3616 105.61C27.3616 106.81 27.3516 106.81 27.3516 108.01C27.3516 109.21 27.3916 109.21 27.3916 110.41C27.3916 111.61 27.3416 111.61 27.3416 112.81C27.3416 114.01 27.2716 114.01 27.2716 115.21C27.2716 116.41 27.3816 116.41 27.3816 117.61C27.3816 118.81 27.3317 118.81 27.3317 120.01C27.3317 121.21 27.2916 121.21 27.2916 122.41C27.2916 123.61 27.4016 123.61 27.4016 124.81C27.4016 126.01 27.3116 126.01 27.3116 127.21C27.3116 128.41 27.3716 128.41 27.3716 129.61C27.3716 130.81 27.4016 130.81 27.4016 132.01C27.4016 133.21 27.3116 133.21 27.3116 134.41C27.3116 135.61 27.3516 135.61 27.3516 136.81C27.3516 138.01 27.3217 138.01 27.3217 139.21C27.3217 140.41 27.4016 140.41 27.4016 141.61C27.4016 142.81 27.2716 142.81 27.2716 144.01C27.2716 145.21 27.3516 145.21 27.3516 146.41C27.3516 147.19 26.6916 147.85 25.9116 147.85H24.7416C23.9616 147.85 23.2916 147.19 23.2916 146.41C23.2916 145.2 23.2516 145.2 23.2516 144C23.2516 142.8 23.2516 142.79 23.2516 141.59C23.2516 140.39 23.3116 140.39 23.3116 139.18C23.3116 137.97 23.3716 137.98 23.3716 136.77C23.3716 135.56 23.3116 135.57 23.3116 134.36C23.3116 133.15 23.2916 133.16 23.2916 131.96C23.2916 130.76 23.3516 130.76 23.3516 129.56C23.3516 128.36 23.3217 128.36 23.3217 127.16C23.3217 125.96 23.3816 125.96 23.3816 124.76C23.3816 123.56 23.3016 123.56 23.3016 122.36C23.3016 121.16 23.3116 121.16 23.3116 119.96C23.3116 118.76 23.2816 118.76 23.2816 117.56C23.2816 116.36 23.3616 116.36 23.3616 115.16C23.3616 113.96 23.2916 113.96 23.2916 112.76C23.2916 111.56 23.2916 111.56 23.2916 110.36C23.2916 109.16 23.2416 109.16 23.2416 107.96C23.2416 106.76 23.3416 106.76 23.3416 105.56C23.3416 104.36 23.3217 104.36 23.3217 103.16C23.3217 101.96 23.2716 101.96 23.2716 100.76C23.2716 99.56 23.2416 99.56 23.2416 98.36C23.2416 97.16 23.2416 97.16 23.2416 95.96C23.2416 94.76 23.3416 94.76 23.3416 93.56C23.3416 92.36 23.2716 92.36 23.2716 91.16C23.2716 89.96 23.3416 89.96 23.3416 88.76C23.3416 87.56 23.3116 87.56 23.3116 86.36C23.3116 85.16 23.3516 85.16 23.3516 83.96C23.3516 82.76 23.2516 82.76 23.2516 81.56C23.2516 80.36 23.2916 80.36 23.2916 79.16C23.2916 77.96 23.2916 77.96 23.2916 76.76C23.2916 75.56 23.2916 75.56 23.2916 74.36C23.2916 73.16 23.3616 73.16 23.3616 71.96C23.3616 70.76 23.2816 70.76 23.2816 69.56C23.2816 68.36 23.2716 68.36 23.2716 67.16C23.2716 65.96 23.2516 65.96 23.2516 64.76C23.2516 63.56 23.2816 63.56 23.2816 62.36C23.2816 61.16 23.3716 61.16 23.3716 59.96C23.3716 58.76 23.3716 58.76 23.3716 57.56C23.3716 56.36 23.3317 56.36 23.3317 55.16C23.3317 53.96 23.3816 53.96 23.3816 52.76C23.3816 51.56 23.2716 51.56 23.2716 50.36C23.2716 49.16 23.3217 49.16 23.3217 47.96C23.3217 46.76 23.2716 46.76 23.2716 45.56C23.2716 44.36 23.3317 44.36 23.3317 43.16C23.3317 41.96 23.3317 41.96 23.3317 40.76C23.3317 39.56 23.2616 39.56 23.2616 38.36C23.2616 37.16 23.2616 37.16 23.2616 35.96C23.2616 34.76 23.3616 34.76 23.3616 33.56C23.3616 32.36 23.3416 32.36 23.3416 31.16C23.3416 29.96 23.3416 29.96 23.3416 28.76C23.3416 27.56 23.3516 27.56 23.3516 26.36C23.3516 25.16 23.2916 25.16 23.2916 23.96C23.2916 22.76 23.3616 22.76 23.3616 21.56C23.3616 20.36 23.3116 20.36 23.3116 19.16C23.3116 17.96 23.2716 17.96 23.2716 16.76C23.2716 15.56 23.3016 15.56 23.3016 14.36C23.3016 13.16 23.2816 13.16 23.2816 11.96C23.2816 10.76 23.2516 10.76 23.2516 9.56C23.2516 8.36 23.2616 8.36 23.2616 7.16C23.2616 5.96 23.2616 5.96001 23.2616 4.76001C23.2616 3.98001 23.9616 3.36 24.7416 3.36C25.3316 3.36 25.3216 3.32 25.9116 3.31ZM25.9116 0.0100098H25.8616C25.4716 0.0100098 25.2617 0.0300031 25.0717 0.0500031C24.9917 0.0500031 24.9116 0.0599976 24.7416 0.0599976C22.1116 0.0599976 19.9615 2.17001 19.9615 4.76001C19.9615 5.37001 19.9615 5.67 19.9615 5.98C19.9615 6.28 19.9615 6.57 19.9615 7.16C19.9615 7.75 19.9615 8.03 19.9615 8.33C19.9615 8.64 19.9615 8.95 19.9615 9.56C19.9615 10.17 19.9616 10.52 19.9816 10.84C19.9816 11.12 19.9916 11.4 19.9916 11.96C19.9916 12.59 19.9916 12.91 20.0016 13.22C20.0016 13.5 20.0116 13.79 20.0116 14.36C20.0116 14.93 20.0116 15.19 19.9916 15.47C19.9916 15.79 19.9716 16.12 19.9716 16.76C19.9716 17.4 19.9816 17.74 19.9916 18.07C19.9916 18.34 20.0116 18.62 20.0116 19.16C20.0116 19.82 20.0216 20.15 20.0416 20.48C20.0516 20.75 20.0616 21.02 20.0616 21.55C20.0616 22.05 20.0516 22.29 20.0316 22.56C20.0116 22.89 19.9916 23.25 19.9916 23.95C19.9916 24.65 20.0116 24.99 20.0216 25.31C20.0316 25.57 20.0516 25.83 20.0516 26.34C20.0516 26.92 20.0516 27.21 20.0516 27.51C20.0516 27.82 20.0516 28.13 20.0516 28.74C20.0516 29.35 20.0516 29.65 20.0516 29.95C20.0516 30.25 20.0516 30.54 20.0516 31.13C20.0516 31.76 20.0516 32.08 20.0616 32.4C20.0616 32.68 20.0717 32.97 20.0717 33.53C20.0717 33.99 20.0516 34.18 20.0316 34.45C20.0016 34.78 19.9716 35.19 19.9716 35.93C19.9716 36.54 19.9716 36.84 19.9716 37.15C19.9716 37.45 19.9716 37.74 19.9716 38.33C19.9716 39.02 19.9916 39.39 20.0116 39.71C20.0216 39.96 20.0416 40.22 20.0416 40.73C20.0416 41.32 20.0416 41.61 20.0416 41.9C20.0416 42.21 20.0416 42.51 20.0416 43.13C20.0416 43.65 20.0316 43.91 20.0116 44.17C19.9916 44.51 19.9816 44.85 19.9816 45.53C19.9816 46.21 20.0016 46.54 20.0116 46.88C20.0216 47.14 20.0316 47.41 20.0316 47.93C20.0316 48.45 20.0216 48.72 20.0116 48.99C20.0016 49.33 19.9816 49.66 19.9816 50.33C19.9816 51.09 20.0216 51.5 20.0516 51.84C20.0716 52.1 20.0916 52.29 20.0916 52.73C20.0916 53.26 20.0817 53.53 20.0717 53.79C20.0617 54.12 20.0416 54.46 20.0416 55.13C20.0416 55.8 20.0516 56.12 20.0616 56.44C20.0616 56.71 20.0817 56.98 20.0817 57.52V58.73V59.92C20.0817 60.39 20.0616 60.6 20.0416 60.86C20.0116 61.18 19.9816 61.59 19.9816 62.32C19.9816 62.89 19.9816 63.17 19.9716 63.45C19.9716 63.77 19.9615 64.09 19.9615 64.72C19.9615 65.35 19.9616 65.66 19.9716 65.97C19.9716 66.26 19.9716 66.54 19.9716 67.12C19.9716 67.74 19.9716 68.04 19.9716 68.35C19.9716 68.64 19.9716 68.93 19.9716 69.52C19.9716 70.23 19.9916 70.6 20.0216 70.93C20.0416 71.21 20.0516 71.42 20.0516 71.92C20.0516 72.42 20.0416 72.66 20.0216 72.93C20.0016 73.26 19.9816 73.63 19.9816 74.32C19.9816 74.93 19.9816 75.23 19.9816 75.54C19.9816 75.84 19.9816 76.13 19.9816 76.72V77.92V79.12C19.9816 79.66 19.9815 79.93 19.9615 80.2C19.9515 80.53 19.9417 80.86 19.9417 81.52C19.9417 82.26 19.9816 82.67 20.0016 83C20.0216 83.27 20.0416 83.46 20.0416 83.92C20.0416 84.46 20.0416 84.73 20.0216 85C20.0116 85.33 20.0016 85.66 20.0016 86.32C20.0016 86.98 20.0016 87.29 20.0216 87.61C20.0216 87.89 20.0416 88.16 20.0416 88.72C20.0416 89.23 20.0316 89.49 20.0116 89.74C19.9916 90.06 19.9716 90.43 19.9716 91.12C19.9716 91.81 19.9916 92.18 20.0116 92.5C20.0216 92.76 20.0416 93.01 20.0416 93.52C20.0416 93.98 20.0216 94.17 20.0016 94.43C19.9716 94.76 19.9417 95.17 19.9417 95.92V97.12V98.32C19.9417 98.97 19.9415 99.29 19.9615 99.61C19.9615 99.89 19.9816 100.16 19.9816 100.71C19.9816 101.38 19.9916 101.72 20.0116 102.06C20.0216 102.32 20.0316 102.59 20.0316 103.11C20.0316 103.74 20.0316 104.05 20.0316 104.36C20.0316 104.65 20.0316 104.94 20.0316 105.51C20.0316 105.97 20.0116 106.16 19.9916 106.42C19.9616 106.75 19.9316 107.16 19.9316 107.9C19.9316 108.57 19.9415 108.9 19.9615 109.23C19.9715 109.5 19.9816 109.76 19.9816 110.3C19.9816 110.89 19.9816 111.19 19.9816 111.48C19.9816 111.78 19.9816 112.09 19.9816 112.7C19.9816 113.4 20.0016 113.77 20.0216 114.1C20.0416 114.38 20.0516 114.6 20.0516 115.1C20.0516 115.6 20.0416 115.82 20.0216 116.09C20.0016 116.42 19.9816 116.79 19.9816 117.5C19.9816 118.14 19.9816 118.45 19.9916 118.77C19.9916 119.05 20.0016 119.33 20.0016 119.9C20.0016 120.47 20.0016 120.77 20.0016 121.06C20.0016 121.37 20.0016 121.68 20.0016 122.3C20.0016 123.01 20.0216 123.38 20.0516 123.71C20.0716 123.99 20.0817 124.2 20.0817 124.7C20.0817 125.2 20.0716 125.47 20.0516 125.73C20.0316 126.05 20.0116 126.42 20.0116 127.1C20.0116 127.75 20.0116 128.07 20.0316 128.4C20.0316 128.68 20.0516 128.95 20.0516 129.51C20.0516 130.03 20.0416 130.29 20.0216 130.55C20.0016 130.87 19.9916 131.23 19.9916 131.91C19.9916 132.54 19.9916 132.85 20.0016 133.17C20.0016 133.46 20.0016 133.74 20.0016 134.32C20.0016 135 20.0216 135.34 20.0316 135.68C20.0416 135.94 20.0516 136.2 20.0516 136.73C20.0516 137.26 20.0416 137.52 20.0316 137.78C20.0116 138.12 20.0016 138.46 20.0016 139.14C20.0016 139.66 19.9916 139.92 19.9716 140.18C19.9516 140.52 19.9417 140.86 19.9417 141.54V142.73V143.95C19.9417 144.61 19.9515 144.94 19.9615 145.27C19.9615 145.54 19.9816 145.82 19.9816 146.36C19.9816 148.97 22.1116 151.1 24.7316 151.1H25.9016C28.5216 151.1 30.6416 148.97 30.6416 146.36C30.6416 145.64 30.6116 145.26 30.5916 144.93C30.5716 144.66 30.5616 144.45 30.5616 143.96C30.5616 143.53 30.5816 143.37 30.6116 143.11C30.6516 142.77 30.6917 142.34 30.6917 141.56C30.6917 140.86 30.6716 140.48 30.6516 140.15C30.6316 139.87 30.6216 139.65 30.6216 139.16C30.6216 138.6 30.6216 138.32 30.6316 138.05C30.6316 137.73 30.6516 137.41 30.6516 136.77C30.6516 136.13 30.6416 135.78 30.6316 135.45C30.6216 135.18 30.6116 134.91 30.6116 134.37C30.6116 133.89 30.6316 133.68 30.6416 133.41C30.6616 133.07 30.6917 132.69 30.6917 131.98C30.6917 131.33 30.6916 131.01 30.6716 130.69C30.6716 130.41 30.6516 130.14 30.6516 129.59C30.6516 128.91 30.6316 128.54 30.6216 128.23C30.6116 127.97 30.5916 127.71 30.5916 127.2C30.5916 126.72 30.6116 126.51 30.6216 126.24C30.6416 125.9 30.6716 125.52 30.6716 124.8C30.6716 124.08 30.6316 123.63 30.6016 123.3C30.5816 123.04 30.5616 122.85 30.5616 122.4C30.5616 121.86 30.5617 121.59 30.5817 121.31C30.5917 120.98 30.6016 120.65 30.6016 120C30.6016 119.47 30.6116 119.2 30.6216 118.94C30.6316 118.61 30.6516 118.27 30.6516 117.6C30.6516 116.85 30.6117 116.44 30.5817 116.11C30.5617 115.85 30.5416 115.66 30.5416 115.2C30.5416 114.7 30.5517 114.48 30.5717 114.19C30.5917 113.86 30.6116 113.49 30.6116 112.8C30.6116 112.28 30.6216 112.01 30.6316 111.75C30.6516 111.41 30.6616 111.08 30.6616 110.4C30.6616 109.72 30.6616 109.43 30.6416 109.1C30.6416 108.82 30.6216 108.55 30.6216 108C30.6216 107.42 30.6216 107.13 30.6216 106.84C30.6216 106.53 30.6216 106.22 30.6216 105.6C30.6216 105.03 30.6216 104.75 30.6316 104.47C30.6316 104.15 30.6416 103.84 30.6416 103.2C30.6416 102.49 30.6116 102.11 30.5916 101.78C30.5716 101.51 30.5616 101.29 30.5616 100.8C30.5616 100.22 30.5616 99.93 30.5616 99.64C30.5616 99.33 30.5616 99.02 30.5616 98.4C30.5616 97.82 30.5616 97.53 30.5616 97.24C30.5616 96.93 30.5616 96.62 30.5616 96C30.5616 95.3 30.5416 94.92 30.5216 94.59C30.5016 94.31 30.4916 94.09 30.4916 93.6C30.4916 93.19 30.5116 93.02 30.5416 92.77C30.5816 92.42 30.6316 91.98 30.6316 91.2C30.6316 90.48 30.6017 90.08 30.5817 89.75C30.5617 89.48 30.5416 89.27 30.5416 88.8C30.5416 88.26 30.5416 87.98 30.5616 87.71C30.5716 87.38 30.5817 87.05 30.5817 86.4C30.5817 85.69 30.5516 85.31 30.5316 84.98C30.5116 84.71 30.5016 84.49 30.5016 84C30.5016 83.55 30.5216 83.36 30.5416 83.1C30.5716 82.77 30.6116 82.35 30.6116 81.6C30.6116 80.9 30.5917 80.52 30.5717 80.2C30.5517 79.92 30.5416 79.7 30.5416 79.2C30.5416 78.65 30.5416 78.38 30.5616 78.11C30.5716 77.78 30.5817 77.45 30.5817 76.8C30.5817 76.15 30.5716 75.8 30.5516 75.46C30.5416 75.19 30.5316 74.93 30.5316 74.39C30.5316 73.81 30.5316 73.52 30.5316 73.23C30.5316 72.92 30.5316 72.61 30.5316 71.99C30.5316 71.4 30.5316 71.11 30.5316 70.82C30.5316 70.51 30.5316 70.21 30.5316 69.59C30.5316 68.97 30.5316 68.63 30.5116 68.31C30.5116 68.03 30.5016 67.75 30.5016 67.19V66V64.79C30.5016 64.2 30.5016 63.91 30.5016 63.61C30.5016 63.3 30.5016 63 30.5016 62.39C30.5016 61.88 30.5116 61.63 30.5316 61.37C30.5516 61.05 30.5717 60.68 30.5717 59.99C30.5717 59.41 30.5717 59.13 30.5717 58.84C30.5717 58.53 30.5717 58.21 30.5717 57.59C30.5717 56.83 30.5316 56.41 30.5016 56.08C30.4816 55.82 30.4615 55.64 30.4615 55.19C30.4615 54.7 30.4716 54.48 30.4916 54.21C30.5116 53.88 30.5416 53.5 30.5416 52.79C30.5416 52.23 30.5416 51.95 30.5516 51.67C30.5516 51.35 30.5717 51.03 30.5717 50.39C30.5717 49.75 30.5716 49.44 30.5616 49.13C30.5616 48.85 30.5516 48.56 30.5516 47.99C30.5516 47.42 30.5517 47.17 30.5717 46.89C30.5717 46.56 30.5916 46.24 30.5916 45.59C30.5916 44.94 30.5816 44.58 30.5616 44.25C30.5516 43.99 30.5416 43.72 30.5416 43.19C30.5416 42.61 30.5416 42.32 30.5416 42.03C30.5416 41.72 30.5416 41.41 30.5416 40.79C30.5416 40.17 30.5416 39.84 30.5316 39.53C30.5316 39.24 30.5216 38.96 30.5216 38.39C30.5216 37.87 30.5316 37.61 30.5516 37.35C30.5716 37.03 30.5817 36.67 30.5817 35.99C30.5817 35.31 30.5516 34.9 30.5316 34.57C30.5116 34.3 30.5016 34.08 30.5016 33.59C30.5016 33.02 30.5016 32.73 30.5016 32.44C30.5016 32.13 30.5116 31.81 30.5116 31.19C30.5116 30.57 30.5116 30.25 30.5116 29.94C30.5116 29.65 30.5116 29.36 30.5116 28.79C30.5116 28.22 30.5116 27.94 30.5216 27.65C30.5216 27.33 30.5316 27.02 30.5316 26.39C30.5316 25.76 30.5316 25.47 30.5316 25.17C30.5316 24.87 30.5316 24.58 30.5316 23.99V22.8V21.59C30.5316 20.89 30.5116 20.52 30.4916 20.19C30.4716 19.91 30.4615 19.69 30.4615 19.19C30.4615 18.69 30.4716 18.48 30.4916 18.21C30.5116 17.88 30.5416 17.5 30.5416 16.79C30.5416 16.13 30.5316 15.81 30.5216 15.48C30.5216 15.21 30.5016 14.93 30.5016 14.39C30.5016 13.8 30.5016 13.5 30.5016 13.2C30.5016 12.9 30.5016 12.59 30.5016 11.98C30.5016 11.37 30.5016 11.06 30.5016 10.75C30.5016 10.46 30.5016 10.16 30.5016 9.58C30.5016 9.07 30.5116 8.81 30.5316 8.55C30.5516 8.23 30.5717 7.86 30.5717 7.16C30.5717 6.46 30.5416 6.06 30.5216 5.72C30.5016 5.45 30.4916 5.23 30.4916 4.75C30.4916 2.13 28.4017 0 25.8217 0L25.9116 0.0100098Z" fill="#1E1E1E"/>
<path d="M5.03261 77.9492C3.65261 77.9492 2.39262 76.9492 2.04262 75.5692C1.97262 75.3092 1.9426 75.1892 1.9026 75.0592C1.8626 74.9092 1.81256 74.7492 1.73256 74.4392C1.53256 73.6592 1.64261 72.8392 2.03261 72.1392C2.44261 71.3992 3.11262 70.8892 3.92262 70.6792C4.48262 70.5392 4.77263 70.4592 5.05263 70.3792C5.35263 70.2892 5.6626 70.2092 6.2726 70.0492L8.63258 69.4492C9.29258 69.2792 9.62254 69.2292 9.96254 69.1692C10.2325 69.1292 10.4926 69.0792 11.0126 68.9492C11.5626 68.8092 11.8326 68.7292 12.1026 68.6392C12.4126 68.5392 12.7226 68.4492 13.3626 68.2792C13.9926 68.1192 14.3126 68.0592 14.6326 67.9892C14.9126 67.9392 15.1826 67.8792 15.7326 67.7392C16.3026 67.5992 16.5826 67.5192 16.8626 67.4392C17.1626 67.3492 17.4727 67.2692 18.0827 67.1092C18.6927 66.9492 19.0026 66.8892 19.3126 66.8192C19.5926 66.7592 19.8826 66.6992 20.4426 66.5592C20.9626 66.4292 21.2225 66.3392 21.4725 66.2492C21.7925 66.1392 22.1126 66.0292 22.7726 65.8592C23.3926 65.6992 23.7026 65.6392 24.0126 65.5692C24.2926 65.5092 24.5726 65.4492 25.1326 65.3092L29.8425 64.1092C30.4725 63.9492 30.8026 63.8892 31.1226 63.8192C31.3926 63.7692 31.6725 63.7092 32.2125 63.5792C32.7525 63.4392 33.0126 63.3592 33.2826 63.2692C33.5926 63.1692 33.9126 63.0692 34.5426 62.9092C35.1326 62.7592 36.3026 62.4492 36.8926 62.2992C37.4726 62.1492 37.7626 62.0692 38.0526 61.9992C38.3526 61.9192 38.6426 61.8392 39.2426 61.6892C39.8426 61.5392 40.1426 61.4692 40.4426 61.3992C40.7326 61.3292 41.0225 61.2692 41.5925 61.1192C42.2425 60.9492 42.5726 60.8992 42.9026 60.8392C43.1726 60.7892 43.4425 60.7492 43.9625 60.6092L46.3126 60.0092C46.8726 59.8692 47.1426 59.7892 47.4226 59.7092C47.7326 59.6192 48.0326 59.5292 48.6526 59.3792C49.2726 59.2192 49.5826 59.1592 49.9026 59.0892C50.1826 59.0292 50.4626 58.9692 51.0126 58.8292C51.5226 58.6992 51.7726 58.6092 52.0226 58.5192C52.3426 58.3992 52.6727 58.2892 53.3327 58.1192C53.9527 57.9592 54.2627 57.8992 54.5827 57.8292C54.8627 57.7692 55.1426 57.7092 55.6926 57.5692C56.2426 57.4292 56.5226 57.3492 56.7926 57.2592C57.1026 57.1692 57.4126 57.0692 58.0326 56.9192C58.6626 56.7592 58.9726 56.6992 59.2926 56.6292C59.5726 56.5692 59.8526 56.5192 60.3926 56.3792C60.9926 56.2292 62.7426 55.7892 62.7426 55.7892C63.2826 55.6492 63.5526 55.5692 63.8226 55.4792C64.1326 55.3792 64.4426 55.2892 65.0726 55.1292L67.4226 54.5292C68.0826 54.3592 68.4126 54.3092 68.7526 54.2492C69.0226 54.2092 69.2826 54.1592 69.8026 54.0292C70.3626 53.8892 70.6526 53.8092 70.9326 53.7292C71.2326 53.6492 71.5326 53.5592 72.1426 53.4092L74.4926 52.8092C75.0926 52.6592 76.2625 52.3692 76.8425 52.2292C77.3925 52.0892 77.6626 52.0092 77.9326 51.9292C78.2426 51.8292 78.5526 51.7392 79.1826 51.5792C79.8126 51.4192 80.1327 51.3592 80.4527 51.2892C80.7327 51.2392 81.0026 51.1792 81.5426 51.0392C82.1026 50.8992 82.3826 50.8192 82.6626 50.7292C82.9626 50.6392 83.2726 50.5492 83.8826 50.3892C84.4426 50.2492 84.7226 50.1692 85.0026 50.0892C85.3026 49.9992 85.6125 49.9092 86.2225 49.7592C86.8326 49.6092 87.1326 49.5392 87.4426 49.4692C87.7326 49.4092 88.0127 49.3392 88.5827 49.1992C89.1627 49.0492 89.4426 48.9692 89.7326 48.8992C90.0326 48.8192 90.3326 48.7392 90.9226 48.5892C91.4926 48.4392 91.7726 48.3692 92.0626 48.2892C92.3626 48.2092 92.6626 48.1192 93.2626 47.9692C93.8426 47.8192 95.0226 47.5292 95.6126 47.3892L97.9625 46.7892C98.2025 46.7292 98.4426 46.6992 98.6926 46.6992C100.083 46.6992 101.343 47.6992 101.693 49.0692C101.783 49.4092 101.813 49.5992 101.843 49.7692C101.863 49.8792 101.873 49.9792 101.933 50.1892C102.133 50.9892 102.043 51.7892 101.663 52.4792C101.263 53.2092 100.603 53.7292 99.7826 53.9292C99.1826 54.0792 98.8827 54.1592 98.5827 54.2292C98.2927 54.2992 98.0026 54.3692 97.4226 54.5192C96.8226 54.6692 96.5226 54.7392 96.2225 54.8192C95.9325 54.8892 95.6426 54.9592 95.0626 55.1092C94.5226 55.2492 94.2626 55.3292 94.0026 55.4192C93.6926 55.5192 93.3726 55.6292 92.7326 55.7892C92.1326 55.9392 91.8326 56.0092 91.5326 56.0792C91.2426 56.1492 90.9526 56.2092 90.3726 56.3592C89.7726 56.5092 89.4726 56.5792 89.1726 56.6592C88.8826 56.7292 88.5926 56.7992 88.0126 56.9492C87.4526 57.0892 87.1626 57.1692 86.8826 57.2492C86.5826 57.3392 86.2726 57.4192 85.6626 57.5792C85.0326 57.7392 84.7226 57.7992 84.4026 57.8692C84.1226 57.9292 83.8426 57.9892 83.2926 58.1192C82.6626 58.2792 82.3326 58.3392 82.0126 58.4092C81.7426 58.4592 81.4626 58.5192 80.9226 58.6492C80.4026 58.7792 80.1526 58.8692 79.8926 58.9592C79.5726 59.0692 79.2525 59.1792 78.5925 59.3492C77.9725 59.5092 77.6525 59.5692 77.3425 59.6392C77.0625 59.6992 76.7825 59.7592 76.2225 59.8992C75.6025 60.0592 75.2926 60.1192 74.9826 60.1892C74.7026 60.2492 74.4126 60.3092 73.8526 60.4592C73.3326 60.5892 73.0827 60.6792 72.8327 60.7692C72.5127 60.8792 72.1826 60.9992 71.5226 61.1692C70.8826 61.3292 70.5526 61.3892 70.2225 61.4492C69.9526 61.4992 69.6826 61.5492 69.1526 61.6792C68.6026 61.8192 68.3326 61.8992 68.0626 61.9792C67.7526 62.0792 67.4426 62.1692 66.8126 62.3292C66.2526 62.4692 65.9726 62.5492 65.6926 62.6292C65.3926 62.7192 65.0826 62.7992 64.4725 62.9592C63.8326 63.1192 63.5026 63.1792 63.1726 63.2392C62.9026 63.2892 62.6326 63.3392 62.1026 63.4692C61.5426 63.6092 61.2726 63.6892 60.9926 63.7692C60.6826 63.8592 60.3826 63.9492 59.7626 64.1092C59.1526 64.2592 58.8526 64.3292 58.5426 64.3992C58.2526 64.4592 57.9726 64.5292 57.4026 64.6692C56.8626 64.8092 56.6027 64.8892 56.3327 64.9792C56.0227 65.0792 55.7026 65.1792 55.0626 65.3392C54.3926 65.5092 54.0227 65.5592 53.7027 65.6092C53.4427 65.6492 53.1826 65.6892 52.6826 65.8092C52.1526 65.9392 51.8926 66.0292 51.6326 66.1192C51.3126 66.2192 51.0026 66.3292 50.3626 66.4892L45.6626 67.6792L43.3126 68.2892C42.7426 68.4292 42.4726 68.5092 42.1926 68.5892C41.8926 68.6792 41.5826 68.7692 40.9725 68.9192L38.6226 69.5092C38.0026 69.6692 37.6826 69.7292 37.3626 69.7992C37.0826 69.8592 36.8026 69.9092 36.2526 70.0492C35.6226 70.2092 35.3126 70.2692 34.9926 70.3392C34.7126 70.3992 34.4326 70.4492 33.8926 70.5892C33.3426 70.7292 33.0726 70.8092 32.8026 70.8892C32.4926 70.9792 32.1826 71.0792 31.5626 71.2392C30.9926 71.3892 30.7026 71.4592 30.4126 71.5392C30.1126 71.6192 29.8125 71.6992 29.2125 71.8592C28.5825 72.0192 28.2727 72.0792 27.9527 72.1492C27.6727 72.2092 27.3926 72.2592 26.8526 72.3992C26.2926 72.5392 26.0026 72.6192 25.7326 72.6992C25.4326 72.7892 25.1226 72.8692 24.5126 73.0292C23.8826 73.1892 23.5626 73.2492 23.2526 73.3192C22.9726 73.3692 22.7026 73.4292 22.1526 73.5692C21.6126 73.7092 21.3527 73.7892 21.0827 73.8792C20.7727 73.9792 20.4526 74.0792 19.8126 74.2392C19.2126 74.3892 18.9126 74.4592 18.6126 74.5392C18.3226 74.6092 18.0327 74.6792 17.4527 74.8292C16.8927 74.9692 16.6026 75.0492 16.3226 75.1292C16.0226 75.2092 15.7226 75.2992 15.1126 75.4492C14.4726 75.6092 14.1526 75.6692 13.8226 75.7292C13.5526 75.7792 13.2726 75.8292 12.7426 75.9692C12.2026 76.1092 11.9426 76.1892 11.6726 76.2792C11.3626 76.3792 11.0526 76.4792 10.4126 76.6392L8.06264 77.2292C7.50264 77.3692 7.23265 77.4492 6.95265 77.5392C6.65265 77.6292 6.34255 77.7192 5.72255 77.8792C5.49255 77.9392 5.24258 77.9692 5.00258 77.9692L5.03261 77.9492Z" fill="#E5E5E5"/>
<path d="M98.7019 48.3195C99.3419 48.3195 99.9318 48.7995 100.102 49.4495C100.242 50.0195 100.192 50.0295 100.342 50.5995C100.532 51.3595 100.142 52.1195 99.3819 52.3095C98.2019 52.6095 98.2019 52.5995 97.0219 52.8995C95.8419 53.1995 95.8419 53.1895 94.6619 53.4895C93.4819 53.7895 93.5019 53.8695 92.3219 54.1695C91.1419 54.4695 91.1418 54.4495 89.9618 54.7495C88.7818 55.0495 88.7818 55.0295 87.6018 55.3295C86.4218 55.6295 86.4319 55.6595 85.2619 55.9595C84.0919 56.2595 84.0719 56.2095 82.9019 56.4995C81.7219 56.7995 81.7119 56.7295 80.5319 57.0295C79.3519 57.3295 79.3819 57.4295 78.2019 57.7295C77.0219 58.0295 77.0118 57.9795 75.8418 58.2795C74.6618 58.5795 74.6518 58.5395 73.4818 58.8395C72.3018 59.1395 72.3319 59.2495 71.1619 59.5395C69.9819 59.8395 69.9619 59.7595 68.7919 60.0495C67.6119 60.3495 67.6319 60.4095 66.4519 60.7095C65.2719 61.0095 65.2819 61.0395 64.1119 61.3395C62.9419 61.6395 62.9119 61.5595 61.7419 61.8495C60.5719 62.1495 60.5819 62.1895 59.4019 62.4895C58.2219 62.7895 58.2219 62.7595 57.0419 63.0595C55.8619 63.3595 55.8818 63.4295 54.7118 63.7295C53.5418 64.0295 53.5119 63.8995 52.3319 64.1995C51.1619 64.4995 51.1819 64.5795 50.0019 64.8795C48.8319 65.1795 48.8319 65.1695 47.6519 65.4695C46.8652 65.6695 46.0819 65.8695 45.3019 66.0695C44.1219 66.3695 44.1319 66.3795 42.9519 66.6695C41.7819 66.9695 41.7819 67.0095 40.6119 67.3095C39.4319 67.6095 39.4319 67.5995 38.2619 67.8995C37.0819 68.1995 37.0719 68.1395 35.9019 68.4395C34.7319 68.7395 34.7119 68.6795 33.5419 68.9795C32.3619 69.2795 32.3819 69.3295 31.2019 69.6295C30.0219 69.9295 30.0318 69.9495 28.8518 70.2495C27.6818 70.5495 27.6619 70.4895 26.4919 70.7895C25.3219 71.0895 25.3219 71.1195 24.1519 71.4195C22.9819 71.7195 22.9619 71.6595 21.7919 71.9595C20.6119 72.2595 20.6318 72.3295 19.4618 72.6295C18.2818 72.9295 18.2819 72.9095 17.1119 73.2095C15.9419 73.5095 15.9419 73.5295 14.7719 73.8295C13.6019 74.1295 13.5819 74.0595 12.4019 74.3495C11.2219 74.6395 11.2419 74.7195 10.0719 75.0195C8.90194 75.3195 8.89184 75.3095 7.72184 75.6095C6.54184 75.9095 6.56187 75.9595 5.38187 76.2495C5.28187 76.2795 5.17194 76.2895 5.07194 76.2895C4.43194 76.2895 3.84192 75.7995 3.68192 75.1495C3.54192 74.5795 3.52186 74.5895 3.37186 74.0195C3.18186 73.2595 3.61186 72.4595 4.37186 72.2695C5.55186 71.9695 5.54184 71.9395 6.72184 71.6395C7.50851 71.4395 8.29528 71.2395 9.08195 71.0395C10.2619 70.7395 10.2818 70.8395 11.4618 70.5395C12.6418 70.2395 12.6219 70.1795 13.8019 69.8795C14.9819 69.5795 14.9919 69.6395 16.1719 69.3495C17.3519 69.0495 17.3419 69.0195 18.5119 68.7195C19.6819 68.4195 19.7019 68.4595 20.8719 68.1695C22.0519 67.8695 22.0219 67.7695 23.2019 67.4695C24.3819 67.1695 24.3919 67.2095 25.5619 66.9095C26.3486 66.7095 27.1319 66.5095 27.9119 66.3095C29.0919 66.0095 29.0919 65.9995 30.2619 65.7095C31.4419 65.4095 31.4519 65.4795 32.6319 65.1795C33.8119 64.8795 33.7918 64.8095 34.9618 64.5095C36.1418 64.2095 36.1319 64.1995 37.3119 63.8995C38.4919 63.5995 38.4819 63.5795 39.6619 63.2795C40.8319 62.9795 40.8419 63.0095 42.0219 62.7095C43.1919 62.4095 43.2219 62.4995 44.3919 62.1995C45.1786 61.9995 45.9619 61.7995 46.7419 61.5995C47.9219 61.2995 47.9119 61.2595 49.0819 60.9595C50.2519 60.6595 50.2719 60.7095 51.4419 60.4095C52.6119 60.1095 52.5919 59.9995 53.7619 59.6995C54.9319 59.3995 54.9519 59.4495 56.1219 59.1495C57.3019 58.8495 57.2818 58.7995 58.4618 58.4995C59.6418 58.1995 59.6519 58.2595 60.8219 57.9595C62.0019 57.6595 62.0019 57.6695 63.1719 57.3695C64.3519 57.0695 64.3319 57.0095 65.5119 56.7095C66.6919 56.4095 66.6819 56.4095 67.8619 56.1095C69.0319 55.8095 69.0619 55.9095 70.2318 55.6095C71.4018 55.3095 71.4019 55.2895 72.5719 54.9895C73.7519 54.6895 73.7419 54.6895 74.9219 54.3895C76.1019 54.0895 76.1019 54.0995 77.2719 53.7995C78.4419 53.4995 78.4318 53.4395 79.6018 53.1495C80.7718 52.8595 80.7918 52.9195 81.9718 52.6195C83.1518 52.3195 83.1319 52.2795 84.3119 51.9795C85.4919 51.6795 85.4819 51.6395 86.6519 51.3395C87.8219 51.0395 87.8319 51.0695 89.0119 50.7795C90.1819 50.4795 90.1818 50.4595 91.3518 50.1595C92.5218 49.8595 92.5219 49.8295 93.6919 49.5295C94.8619 49.2295 94.8719 49.2395 96.0419 48.9395C97.2219 48.6395 97.2119 48.6395 98.3919 48.3395C98.5019 48.3095 98.6018 48.2995 98.7118 48.2995M98.7019 45.0195C98.3219 45.0195 97.9419 45.0695 97.5719 45.1595C96.9719 45.3095 96.6819 45.3895 96.3819 45.4695C96.0919 45.5495 95.8018 45.6195 95.2218 45.7695C94.6518 45.9195 94.3619 45.9795 94.0819 46.0495C93.7819 46.1195 93.4819 46.1995 92.8719 46.3495C92.2419 46.5095 91.9319 46.5995 91.6219 46.6795C91.3519 46.7595 91.0819 46.8295 90.5319 46.9695C89.9119 47.1295 89.6119 47.2095 89.3019 47.2895C89.0219 47.3695 88.7519 47.4395 88.1919 47.5795C87.6519 47.7195 87.3718 47.7795 87.1018 47.8395C86.7818 47.9095 86.4619 47.9795 85.8319 48.1395C85.1919 48.2995 84.8719 48.3895 84.5619 48.4895C84.2919 48.5695 84.0319 48.6395 83.4919 48.7795C82.8419 48.9395 82.5219 49.0395 82.2019 49.1295C81.9419 49.2095 81.6819 49.2795 81.1519 49.4195C80.6519 49.5495 80.4219 49.5895 80.1519 49.6395C79.8319 49.6995 79.4619 49.7695 78.7819 49.9495C78.1119 50.1195 77.7618 50.2295 77.4618 50.3195C77.2118 50.3995 76.9619 50.4695 76.4519 50.5995C75.8819 50.7495 75.5919 50.8195 75.3019 50.8895C75.0019 50.9595 74.7018 51.0395 74.0918 51.1895C73.4918 51.3395 73.2019 51.4195 72.9019 51.4995C72.6119 51.5795 72.3219 51.6495 71.7419 51.7995C71.1219 51.9595 70.8119 52.0395 70.5019 52.1295C70.2219 52.2095 69.9519 52.2795 69.3919 52.4195C68.9419 52.5395 68.7418 52.5695 68.4718 52.6095C68.1418 52.6595 67.7319 52.7295 67.0119 52.9195C66.4119 53.0695 66.1219 53.1495 65.8219 53.2295C65.5319 53.3095 65.2419 53.3795 64.6619 53.5295C63.9919 53.6995 63.6319 53.8095 63.3219 53.9095C63.0719 53.9895 62.8319 54.0595 62.3219 54.1895C61.7419 54.3395 61.4619 54.4095 61.1719 54.4795C60.8719 54.5495 60.5718 54.6295 59.9718 54.7795C59.4618 54.9095 59.2019 54.9595 58.9419 55.0195C58.6019 55.0895 58.2718 55.1595 57.6018 55.3295C56.9418 55.4995 56.6219 55.5995 56.2919 55.6895C56.0319 55.7695 55.7819 55.8395 55.2619 55.9795C54.7419 56.1095 54.4818 56.1695 54.2218 56.2195C53.8918 56.2895 53.5619 56.3595 52.9019 56.5195C52.1619 56.7095 51.7719 56.8495 51.4519 56.9595C51.2019 57.0495 51.0218 57.1095 50.5918 57.2195C50.0718 57.3495 49.8119 57.4095 49.5419 57.4595C49.2119 57.5295 48.8819 57.5995 48.2318 57.7595C47.5919 57.9195 47.2719 58.0195 46.9519 58.1095C46.6919 58.1895 46.4219 58.2595 45.8919 58.3995L44.7118 58.6995L43.5419 58.9995C43.0819 59.1195 42.8718 59.1495 42.6018 59.1995C42.2818 59.2595 41.8819 59.3295 41.1719 59.5095C40.6219 59.6495 40.3419 59.7195 40.0619 59.7795C39.7519 59.8495 39.4419 59.9195 38.8119 60.0795C38.2019 60.2395 37.8918 60.3195 37.5918 60.3995C37.3118 60.4795 37.0318 60.5495 36.4718 60.6895C35.8718 60.8395 35.5719 60.9195 35.2719 60.9995C34.9819 61.0795 34.7019 61.1495 34.1319 61.2995C33.4419 61.4795 33.0819 61.5895 32.7619 61.6895C32.4919 61.7795 32.2819 61.8395 31.7919 61.9695C31.2919 62.0995 31.0619 62.1395 30.7919 62.1895C30.4719 62.2495 30.1019 62.3195 29.4219 62.4995C28.8219 62.6495 28.5318 62.7295 28.2318 62.8095C27.9418 62.8895 27.6519 62.9595 27.0719 63.1095L25.8919 63.4095L24.7218 63.7095C24.1918 63.8395 23.9219 63.8995 23.6619 63.9595C23.3319 64.0295 23.0119 64.0995 22.3619 64.2695C21.6419 64.4495 21.2419 64.5895 20.9319 64.6995C20.6719 64.7895 20.4919 64.8495 20.0319 64.9695C19.5019 65.0995 19.2318 65.1595 18.9718 65.2195C18.6418 65.2895 18.3219 65.3595 17.6719 65.5195C17.0419 65.6795 16.7219 65.7695 16.4119 65.8595C16.1419 65.9395 15.8719 66.0095 15.3319 66.1495C14.8319 66.2795 14.5719 66.3295 14.3219 66.3795C14.0019 66.4395 13.6418 66.5195 12.9618 66.6895C12.2818 66.8595 11.9319 66.9695 11.6219 67.0695C11.3719 67.1495 11.1219 67.2195 10.6219 67.3495C10.1719 67.4595 9.97183 67.4995 9.71183 67.5395C9.38183 67.5895 8.97186 67.6595 8.24186 67.8495L7.00187 68.1595L5.88187 68.4495C5.24187 68.6095 4.93185 68.6995 4.61185 68.7895C4.34185 68.8695 4.0719 68.9395 3.5319 69.0795C2.3019 69.3895 1.24185 70.2095 0.611855 71.3295C0.0118546 72.3995 -0.158106 73.6495 0.151894 74.8395C0.231894 75.1695 0.281947 75.3395 0.331947 75.4995C0.361947 75.6195 0.40183 75.7295 0.46183 75.9695C1.00183 78.0995 2.89192 79.5995 5.05192 79.5995C5.43192 79.5995 5.81192 79.5495 6.18192 79.4595C6.83192 79.2895 7.15185 79.1995 7.48185 79.0995C7.74185 79.0195 8.00189 78.9495 8.52189 78.8095C9.10189 78.6595 9.39192 78.5895 9.68192 78.5195C9.98192 78.4495 10.2819 78.3695 10.8719 78.2195C11.5519 78.0495 11.9118 77.9295 12.2218 77.8295C12.4918 77.7395 12.7019 77.6795 13.2019 77.5495C13.6919 77.4295 13.9119 77.3795 14.1819 77.3295C14.5119 77.2695 14.8819 77.1995 15.5619 77.0195C16.1819 76.8595 16.4919 76.7795 16.8019 76.6895C17.0719 76.6095 17.3519 76.5395 17.9019 76.3995C18.4719 76.2595 18.7519 76.1895 19.0419 76.1195C19.3419 76.0495 19.6519 75.9695 20.2619 75.8195C20.9519 75.6395 21.3119 75.5295 21.6319 75.4295C21.9019 75.3395 22.1118 75.2795 22.5918 75.1495C23.1018 75.0195 23.3519 74.9695 23.6119 74.9195C23.9319 74.8595 24.2918 74.7795 24.9618 74.6095C25.5918 74.4495 25.9118 74.3595 26.2218 74.2695C26.4918 74.1895 26.7619 74.1195 27.3019 73.9795C27.8119 73.8495 28.0719 73.7995 28.3319 73.7495C28.6719 73.6795 29.0019 73.6095 29.6719 73.4395C30.2819 73.2795 30.5919 73.1995 30.9019 73.1195C31.1819 73.0395 31.4619 72.9695 32.0219 72.8295C32.6819 72.6595 33.0118 72.5595 33.3418 72.4595C33.5918 72.3795 33.8519 72.3095 34.3619 72.1795C34.8719 72.0495 35.1319 71.9995 35.3919 71.9395C35.7219 71.8695 36.0618 71.7995 36.7218 71.6295C37.2318 71.4995 37.4919 71.4495 37.7519 71.3995C38.0919 71.3295 38.4218 71.2595 39.0918 71.0895L40.2619 70.7995L41.4519 70.4995C42.0919 70.3395 42.4118 70.2495 42.7318 70.1495C43.0019 70.0695 43.2619 69.9995 43.7919 69.8595C44.3919 69.7095 44.6918 69.6295 44.9818 69.5495C45.2719 69.4695 45.5619 69.3995 46.1419 69.2495L47.4618 68.9095L48.4919 68.6495L49.6519 68.3595L50.8418 68.0595C51.5418 67.8795 51.9018 67.7595 52.2218 67.6595C52.4818 67.5695 52.6919 67.5095 53.1619 67.3895C53.5819 67.2795 53.7519 67.2595 54.0119 67.2195C54.3519 67.1695 54.7819 67.1095 55.5419 66.9195C56.2319 66.7495 56.5919 66.6295 56.9019 66.5295C57.1719 66.4395 57.3819 66.3795 57.8719 66.2495C58.4219 66.1095 58.6918 66.0495 58.9718 65.9895C59.2918 65.9195 59.6018 65.8495 60.2318 65.6895C60.8819 65.5295 61.2019 65.4295 61.5219 65.3395C61.7819 65.2595 62.0419 65.1895 62.5719 65.0495C63.0419 64.9295 63.2619 64.8895 63.5319 64.8395C63.8619 64.7795 64.2419 64.7095 64.9419 64.5295C65.5719 64.3695 65.8919 64.2795 66.2019 64.1895C66.4719 64.1095 66.7419 64.0395 67.2819 63.8995C67.9519 63.7295 68.3019 63.6195 68.6119 63.5295C68.8619 63.4495 69.1119 63.3795 69.6219 63.2495C70.0919 63.1295 70.312 63.0895 70.5819 63.0395C70.9119 62.9795 71.2919 62.9095 72.0019 62.7295C72.7319 62.5395 73.1319 62.3995 73.4519 62.2895C73.7019 62.1995 73.882 62.1395 74.3319 62.0195C74.8619 61.8795 75.1319 61.8295 75.4019 61.7695C75.7219 61.6995 76.0519 61.6295 76.6919 61.4695C77.2119 61.3395 77.4819 61.2795 77.7419 61.2295C78.0719 61.1595 78.4019 61.0895 79.0619 60.9195C79.7919 60.7295 80.1819 60.5995 80.5019 60.4895C80.7519 60.3995 80.9419 60.3395 81.3919 60.2195C81.8919 60.0895 82.1219 60.0495 82.3919 59.9995C82.7119 59.9395 83.0819 59.8695 83.7619 59.6895C84.2819 59.5595 84.5419 59.5095 84.8019 59.4495C85.1319 59.3795 85.4719 59.3095 86.1319 59.1395C86.7619 58.9795 87.0819 58.8895 87.3919 58.7995C87.6619 58.7195 87.9318 58.6495 88.4718 58.5095C89.0418 58.3695 89.3219 58.2995 89.6119 58.2295C89.9219 58.1595 90.2219 58.0795 90.8319 57.9295C91.3919 57.7895 91.6719 57.7195 91.9519 57.6595C92.2619 57.5895 92.5719 57.5095 93.2019 57.3595C93.9019 57.1795 94.2619 57.0595 94.5819 56.9595C94.8419 56.8695 95.0519 56.8095 95.5419 56.6795C96.1119 56.5295 96.4019 56.4695 96.6819 56.3995C96.9919 56.3295 97.2919 56.2495 97.9019 56.0995C98.4719 55.9495 98.7619 55.8895 99.0419 55.8195C99.3519 55.7495 99.6519 55.6695 100.262 55.5195C102.742 54.8895 104.242 52.3195 103.602 49.7995C103.552 49.6295 103.542 49.5595 103.532 49.4995C103.492 49.2795 103.452 49.0395 103.362 48.6495C102.822 46.5195 100.932 45.0395 98.7619 45.0395L98.7019 45.0195Z" fill="#1E1E1E"/>
<path d="M30.3222 76.3203C29.6522 76.3203 29.0122 76.1103 28.4922 75.7103C27.9722 75.3103 27.7221 75.1103 27.4621 74.9103C27.2221 74.7203 26.9822 74.5303 26.5022 74.1603C26.0022 73.7803 25.7622 73.6003 25.5122 73.4203C25.2522 73.2303 24.9922 73.0403 24.4822 72.6503C23.9922 72.2803 23.7422 72.1003 23.4922 71.9203C23.2322 71.7303 22.9722 71.5403 22.4522 71.1503C21.9322 70.7603 21.6822 70.5603 21.4222 70.3603C21.1822 70.1703 20.9322 69.9803 20.4522 69.6103L18.4422 68.0903C17.1022 67.0703 16.8622 65.1303 17.9122 63.7603C18.0422 63.5903 18.0922 63.5003 18.1522 63.4103C18.2422 63.2603 18.3422 63.1003 18.5522 62.8103C19.1522 62.0303 20.0822 61.5703 21.0722 61.5703C21.7522 61.5703 22.4122 61.7903 22.9422 62.1903C23.5022 62.6103 23.7622 62.8503 24.0222 63.0803C24.2322 63.2703 24.4422 63.4603 24.8922 63.8003C25.3822 64.1803 25.6322 64.3603 25.8822 64.5403C26.1422 64.7303 26.4022 64.9203 26.9122 65.3103L28.9222 66.8303C29.4322 67.2203 29.6822 67.4103 29.9322 67.6103C30.1822 67.8003 30.4222 67.9903 30.9222 68.3703C31.3922 68.7303 31.6422 68.9003 31.8822 69.0703C32.1522 69.2603 32.4321 69.4503 32.9621 69.8503C34.2921 70.8603 34.5322 72.7903 33.4922 74.1503C33.3522 74.3303 33.2922 74.4303 33.2322 74.5303C33.1322 74.6803 33.0422 74.8303 32.8222 75.1103C32.2322 75.8803 31.3023 76.3403 30.3323 76.3403L30.3222 76.3203Z" fill="#E5E5E5"/>
<path d="M21.0728 63.2104C21.3828 63.2104 21.6928 63.3004 21.9428 63.4904C22.9428 64.2504 22.8828 64.3404 23.8928 65.1004C24.8928 65.8604 24.9128 65.8404 25.9128 66.6104C26.5794 67.117 27.2495 67.6237 27.9228 68.1304C28.9228 68.8904 28.9228 68.9004 29.9228 69.6704C30.9228 70.4304 30.9627 70.3904 31.9627 71.1504C32.5827 71.6204 32.6528 72.5204 32.1828 73.1404C31.8328 73.6104 31.8628 73.6304 31.5128 74.1004C31.2328 74.4704 30.7828 74.6804 30.3328 74.6804C30.0328 74.6804 29.7427 74.5904 29.4927 74.4004C28.4927 73.6404 28.5127 73.6104 27.5027 72.8404C26.4927 72.0704 26.4827 72.0904 25.4827 71.3304C24.4827 70.5704 24.4627 70.5904 23.4627 69.8304C22.4627 69.0704 22.4627 69.0604 21.4627 68.2904C20.4627 67.5304 20.4528 67.5304 19.4528 66.7704C18.8328 66.3004 18.7627 65.3704 19.2327 64.7504C19.5827 64.2804 19.5428 64.2504 19.8928 63.7804C20.1728 63.4104 20.6328 63.2104 21.0828 63.2104M21.0728 59.9104C19.5728 59.9104 18.1528 60.6104 17.2628 61.7804L17.2427 61.8004V61.8204C16.9927 62.1404 16.8627 62.3604 16.7427 62.5504C16.7127 62.6004 16.6827 62.6604 16.6027 62.7604C15.8627 63.7304 15.5228 64.9304 15.6428 66.1404C15.7728 67.4304 16.4228 68.6204 17.4428 69.4004C17.9528 69.7904 18.2027 69.9804 18.4627 70.1704C18.7127 70.3604 18.9628 70.5404 19.4528 70.9204C19.9428 71.2904 20.1828 71.4804 20.4228 71.6704C20.6828 71.8704 20.9328 72.0704 21.4428 72.4604C21.9728 72.8704 22.2428 73.0604 22.5228 73.2604C22.7628 73.4304 23.0027 73.6104 23.4727 73.9604C24.0027 74.3604 24.2628 74.5604 24.5328 74.7504C24.7728 74.9304 25.0227 75.1104 25.4927 75.4704C25.9627 75.8304 26.1928 76.0104 26.4228 76.1904C26.6828 76.4004 26.9527 76.6104 27.4827 77.0204C28.3027 77.6404 29.2828 77.9704 30.3128 77.9704C31.8028 77.9704 33.2227 77.2704 34.1227 76.0904C34.3727 75.7604 34.4927 75.5804 34.6027 75.4004C34.6427 75.3304 34.6928 75.2604 34.7928 75.1304C35.5328 74.1604 35.8727 72.9604 35.7527 71.7504C35.6227 70.4704 34.9628 69.2904 33.9528 68.5204C33.3928 68.0904 33.0828 67.8804 32.8028 67.6904C32.5728 67.5304 32.3528 67.3804 31.9128 67.0404C31.4228 66.6704 31.1828 66.4804 30.9328 66.2904C30.6828 66.0904 30.4228 65.8904 29.9128 65.5004C29.4028 65.1104 29.1528 64.9204 28.8928 64.7304C28.6428 64.5404 28.3928 64.3504 27.9028 63.9804C27.3728 63.5804 27.1027 63.3804 26.8427 63.1904C26.6027 63.0104 26.3627 62.8404 25.8827 62.4704C25.4827 62.1704 25.3227 62.0204 25.1127 61.8304C24.8627 61.6004 24.5428 61.3204 23.9328 60.8604C23.1228 60.2404 22.1028 59.9004 21.0628 59.9004L21.0728 59.9104Z" fill="#1E1E1E"/>
<path d="M22.4236 77.3698C21.7436 77.3698 21.0636 77.1398 20.5236 76.7298C20.3436 76.5898 20.2436 76.5298 20.1436 76.4698C19.9936 76.3698 19.8436 76.2798 19.5636 76.0598C18.9236 75.5698 18.4936 74.8498 18.3736 74.0498C18.2436 73.2298 18.4536 72.3798 18.9536 71.7298C19.3536 71.2098 19.5536 70.9598 19.7536 70.6998C19.9436 70.4598 20.1336 70.2298 20.5036 69.7398C20.8836 69.2498 21.0636 68.9998 21.2436 68.7498C21.4336 68.4898 21.6236 68.2298 22.0136 67.7198C22.3836 67.2298 22.5636 66.9898 22.7436 66.7398C22.9336 66.4798 23.1236 66.2098 23.5136 65.6998C23.9036 65.1898 24.6736 64.1898 25.0536 63.6998L26.5736 61.6898C27.1436 60.9398 28.0236 60.5098 28.9836 60.5098C29.6736 60.5098 30.3536 60.7398 30.9036 61.1498C31.0736 61.2798 31.1636 61.3298 31.2536 61.3898C31.4036 61.4798 31.5635 61.5798 31.8535 61.7898C33.2235 62.8298 33.4935 64.8298 32.4735 66.1698C32.0535 66.7298 31.8136 66.9898 31.5836 67.2498C31.3937 67.4598 31.2036 67.6698 30.8636 68.1198C30.4936 68.6098 30.3136 68.8598 30.1336 69.1098C29.9436 69.3698 29.7536 69.6298 29.3636 70.1498L27.8435 72.1598C27.4635 72.6598 27.2636 72.9098 27.0736 73.1598C26.8836 73.4098 26.6936 73.6498 26.3036 74.1598C25.9436 74.6298 25.7735 74.8698 25.6035 75.1198C25.4135 75.3998 25.2236 75.6698 24.8236 76.1998C24.2536 76.9498 23.3836 77.3798 22.4236 77.3798V77.3698Z" fill="#E5E5E5"/>
<path d="M28.9931 62.1596C29.3131 62.1596 29.6431 62.2596 29.9131 62.4696C30.3831 62.8196 30.4131 62.7796 30.8831 63.1296C31.5031 63.5996 31.6431 64.5696 31.1631 65.1896C30.4031 66.1896 30.3131 66.1296 29.5531 67.1396C28.7931 68.1396 28.8131 68.1596 28.0431 69.1596C27.5364 69.8263 27.0298 70.4963 26.5231 71.1696C25.7631 72.1696 25.753 72.1696 24.983 73.1696C24.223 74.1696 24.2631 74.2096 23.5031 75.2096C23.2331 75.5596 22.8331 75.7396 22.4231 75.7396C22.1131 75.7396 21.7931 75.6396 21.5231 75.4296C21.0531 75.0796 21.0331 75.1096 20.5631 74.7596C19.9431 74.2896 19.7931 73.3596 20.2631 72.7396C21.0231 71.7396 21.0531 71.7596 21.8231 70.7496C22.5831 69.7496 22.5731 69.7296 23.3331 68.7296C24.0931 67.7296 24.0731 67.7096 24.8331 66.7096C25.5931 65.7096 25.6031 65.7096 26.3731 64.7096C27.1331 63.7096 27.1331 63.6996 27.8931 62.6996C28.1631 62.3496 28.5731 62.1696 28.9931 62.1696M28.9931 58.8596C27.5131 58.8596 26.1531 59.5296 25.2631 60.6896C24.8731 61.1996 24.6831 61.4496 24.4931 61.7096C24.3031 61.9596 24.1231 62.2096 23.7431 62.6996C23.3731 63.1896 23.1831 63.4296 22.9931 63.6696C22.7931 63.9296 22.5931 64.1796 22.2031 64.6896C21.7931 65.2196 21.6031 65.4896 21.4031 65.7696C21.2331 66.0096 21.0531 66.2496 20.7031 66.7196C20.3031 67.2496 20.1031 67.5096 19.9131 67.7796C19.7331 68.0196 19.5531 68.2596 19.1931 68.7396C18.8331 69.2096 18.653 69.4396 18.473 69.6596C18.263 69.9196 18.0531 70.1896 17.6431 70.7196C16.0631 72.7896 16.4831 75.7696 18.5731 77.3596C18.9031 77.6096 19.0831 77.7296 19.2631 77.8396C19.3331 77.8796 19.4031 77.9296 19.5331 78.0296C20.3631 78.6596 21.3931 79.0096 22.4331 79.0096C23.9031 79.0096 25.2531 78.3396 26.1431 77.1796C26.5731 76.6196 26.783 76.3096 26.973 76.0296C27.133 75.7996 27.2831 75.5796 27.6231 75.1396C27.9931 74.6496 28.1831 74.4096 28.3731 74.1696C28.5731 73.9096 28.7731 73.6596 29.1631 73.1496C29.5531 72.6396 29.7431 72.3896 29.9331 72.1296C30.1231 71.8796 30.3031 71.6296 30.6831 71.1396C31.0831 70.6096 31.283 70.3396 31.473 70.0796C31.653 69.8396 31.8231 69.5996 32.1931 69.1196C32.4931 68.7196 32.6431 68.5596 32.8331 68.3496C33.0631 68.0996 33.3431 67.7796 33.8031 67.1696C35.3631 65.1096 34.9531 62.0596 32.8931 60.4896C32.5331 60.2196 32.3131 60.0896 32.1231 59.9696C32.0731 59.9396 32.0131 59.9096 31.9131 59.8296C31.0831 59.1996 30.0431 58.8496 28.9931 58.8496V58.8596Z" fill="#1E1E1E"/>
</svg>
