<svg width="562" height="150" viewBox="0 0 562 150" fill="none" xmlns="http://www.w3.org/2000/svg">
<path d="M6.17549 42.7026L0 35.365L4.19702 31.6962L8.72059 37.065H19.4677L22.2337 34.3374V31.4657L13.7052 28.9206L1.3926 26.8077V16.6465L7.99067 10.7207H20.2168L25.6143 14.063L27.7849 19.2396L22.7619 21.3141L21.2829 17.9238L18.8338 16.368H10.0268L6.93422 19.1916V22.2937L15.4627 23.7536L27.7753 27.4704V36.7384L21.6862 42.7122H6.19469L6.17549 42.7026Z" fill="#1E1E1E"/>
<path d="M32.7578 42.7023V10.7012H43.2744L54.9435 37.2855H56.3265V10.7012H61.8585V42.7023H51.3419L39.6728 16.1179H38.2898V42.7023H32.7578Z" fill="#1E1E1E"/>
<path d="M74.8447 42.7025L67.9297 35.3649V10.7109H73.4617V33.1079L77.2457 37.0648H86.2833L90.0673 33.1079V10.7109H95.5993V35.3649L88.6843 42.7025H74.8447Z" fill="#1E1E1E"/>
<path d="M115.154 42.7023V10.7012H134.843L143.65 19.4026V33.9913L134.843 42.6927H115.154V42.7023ZM120.686 37.055H132.634L138.118 31.5999V21.8132L132.634 16.358H120.686V37.0646V37.055Z" fill="#1E1E1E"/>
<path d="M148.873 42.7023V10.7012H172.624V16.1083H154.405V23.542H169.397V28.9491H154.405V37.2759H173.316V42.6831H148.873V42.7023Z" fill="#1E1E1E"/>
<path d="M182.134 42.7026L175.959 35.365L180.156 31.6962L184.68 37.065H195.427L198.193 34.3374V31.4657L189.664 28.9206L177.352 26.8077V16.6465L183.95 10.7207H196.176L201.573 14.063L203.744 19.2396L198.721 21.3141L197.242 17.9238L194.802 16.368H185.995L182.903 19.1916V22.2937L191.431 23.7536L203.744 27.4704V36.7384L197.655 42.7122H182.163L182.134 42.7026Z" fill="#1E1E1E"/>
<path d="M208.822 42.7023V10.7012H214.354V42.7023H208.822Z" fill="#1E1E1E"/>
<path d="M245.377 43.1731L244.321 39.7828L240.22 42.7025H227.859L219.6 33.953V18.9897L227.994 10.7109H241.785L248.191 18.3847L244.042 22.0055L239.25 16.3582H230.212L225.141 21.3428V31.648L230.212 37.0552H239.25L243.034 34.2796V30.8893H236.945V25.4822H248.566V34.9423L250.41 41.5788L245.387 43.1827L245.377 43.1731Z" fill="#1E1E1E"/>
<path d="M254.5 42.7023V10.7012H265.017L276.686 37.2855H278.069V10.7012H283.601V42.7023H273.084L261.415 16.1179H260.032V42.7023H254.5Z" fill="#1E1E1E"/>
<path d="M306.43 42.7022L300.85 10.9892L306.295 10L311.184 37.8137H312.567L318.012 10.9892H328.529L333.974 37.8137H335.357L340.246 10L345.692 10.9892L340.111 42.7022H329.412L323.967 15.8778H322.584L317.138 42.7022H306.439H306.43Z" fill="#1E1E1E"/>
<path d="M349.822 42.7023V10.7012H373.573V16.1083H355.354V23.542H370.346V28.9491H355.354V37.2759H374.265V42.6831H349.822V42.7023Z" fill="#1E1E1E"/>
<path d="M378.645 42.7023V10.7012H402.396V16.1083H384.177V23.542H399.169V28.9491H384.177V37.2759H403.087V42.6831H378.645V42.7023Z" fill="#1E1E1E"/>
<path d="M435.509 39.9264L431.13 43.4127L420.152 28.4974L413.007 37.2469V42.702H407.475V10.7009H413.007V28.5839L427.999 10.2783L432.148 13.8511L423.802 24.0123L435.519 39.9168L435.509 39.9264Z" fill="#1E1E1E"/>
<path d="M450.686 42.7025V32.9158L468.213 21.7653V18.1926L466.235 16.1661H459.358L456.679 18.3271V21.6213H451.147V15.6475L457.418 10.7109H468.53L473.745 15.9836V24.685L456.218 35.8355V37.2473H474.206V42.7025H450.686Z" fill="#1E1E1E"/>
<path d="M485.117 42.7025L478.105 35.7874V17.6259L485.117 10.7109H496.92L503.931 17.6259V35.7874L496.92 42.7025H485.117ZM487.421 37.2377H494.615L498.399 33.5209V19.8733L494.615 16.1565H487.421L483.637 19.8733V33.5209L487.421 37.2377Z" fill="#1E1E1E"/>
<path d="M508.223 42.7025V32.9158L525.75 21.7653V18.1926L523.772 16.1661H516.905L514.225 18.3271V21.6213H508.693V15.6475L514.965 10.7109H526.077L531.292 15.9836V24.685L513.764 35.8355V37.2473H531.753V42.7025H508.232H508.223Z" fill="#1E1E1E"/>
<path d="M541.695 42.7023L535.375 39.9267L537.584 34.8461L542.981 37.2471H551.971L554.507 34.75V29.8999L551.789 27.2204H546.766L543.903 29.4293H536.527L538.323 10.7012H557.743V16.1563H543.212L542.472 23.8781H542.751L545.238 21.7556H554.046L560.039 27.5949V37.007L554.276 42.7023H541.685H541.695Z" fill="#1E1E1E"/>
<path d="M16.4402 148.233L2.42773 68.6146L16.0849 66.1367L28.359 135.949H31.8357L45.4929 68.6146H71.8851L85.5423 135.949H89.019L101.293 66.1367L114.95 68.6146L100.938 148.233H74.0749L60.4178 80.8983H56.941L43.2839 148.233H16.421H16.4402Z" fill="#1E1E1E"/>
<path d="M124.382 148.234V67.9043H177.522L193.148 81.014V102.873L185.158 109.721L194.301 116.098V137.477L197.192 144.45L184.802 150.001L180.404 139.724V123.301L170.444 116.453H138.261V148.234H124.363H124.382ZM138.27 102.873H172.192L179.251 96.7264V87.3912L172.538 81.84H138.27V102.863V102.873Z" fill="#1E1E1E"/>
<path d="M273.68 150.001L265.459 128.737H224.708L216.487 150.001L203.637 144.565L233.16 67.8945H257.007L286.53 144.565L273.68 150.001ZM230.029 114.801H260.128L246.817 80.3031H243.34L230.029 114.801Z" fill="#1E1E1E"/>
<path d="M295.048 148.234V67.9043H348.649L364.275 81.014V106.062L348.179 119.527H308.936V148.234H295.039H295.048ZM308.936 105.591H343.089L350.378 99.5693V87.516L343.895 82.0801H308.936V105.591Z" fill="#1E1E1E"/>
<path d="M425.511 148.234L408.146 129.803V67.9043H422.044V124.137L431.533 134.058H454.227L463.716 124.137V67.9043H477.614V129.803L460.249 148.234H425.52H425.511Z" fill="#1E1E1E"/>
<path d="M492.01 148.329V68H545.611L561.237 81.1097V106.157L545.14 119.622H505.897V148.329H492H492.01ZM505.897 105.687H540.05L547.339 99.665V87.6117L540.856 82.1758H505.897V105.687Z" fill="#1E1E1E"/>
</svg>
