<svg  viewBox="0 0 20 20" fill="none" xmlns="http://www.w3.org/2000/svg">
<mask id="mask0_1_4314" style="mask-type:alpha" maskUnits="userSpaceOnUse" x="0" y="0" width="20" height="20">
<rect width="20" height="20" fill="#D9D9D9"/>
</mask>
<g mask="url(#mask0_1_4314)">
<path d="M3.32975 16.6619C2.87142 16.6619 2.47906 16.4987 2.15267 16.1724C1.82628 15.846 1.66309 15.4536 1.66309 14.9953V4.99528C1.66309 4.53695 1.82628 4.14459 2.15267 3.8182C2.47906 3.49181 2.87142 3.32861 3.32975 3.32861H16.6631C17.1214 3.32861 17.5138 3.49181 17.8402 3.8182C18.1666 4.14459 18.3298 4.53695 18.3298 4.99528V14.9953C18.3298 15.4536 18.1666 15.846 17.8402 16.1724C17.5138 16.4987 17.1214 16.6619 16.6631 16.6619H3.32975ZM16.6631 6.66195L10.4339 10.5578C10.3645 10.5994 10.2916 10.6307 10.2152 10.6515C10.1388 10.6724 10.0659 10.6828 9.99642 10.6828C9.92697 10.6828 9.85406 10.6724 9.77767 10.6515C9.70128 10.6307 9.62836 10.5994 9.55892 10.5578L3.32975 6.66195V14.9953H16.6631V6.66195ZM9.99642 9.16194L16.6631 4.99528H3.32975L9.99642 9.16194ZM3.32975 6.87028V5.64111V5.66195V5.65153V6.87028Z" fill="#009E92"/>
</g>
</svg>
