<svg  viewBox="0 0 20 20" fill="none" xmlns="http://www.w3.org/2000/svg">
<path d="M10.9995 16.6663V18.3329H8.99919V16.6663H10.9995ZM16.666 10.9998V8.99943C16.666 7.68862 16.6647 6.80571 16.609 6.12508C16.555 5.46387 16.4579 5.14164 16.3478 4.92554C16.0682 4.37677 15.6222 3.93075 15.0734 3.65112C14.8573 3.54101 14.5351 3.44392 13.8739 3.38989C13.1932 3.33429 12.3103 3.33293 10.9995 3.33293H8.99919C7.68838 3.33293 6.80547 3.33429 6.12484 3.38989C5.46363 3.44392 5.14139 3.54101 4.92529 3.65112C4.37653 3.93075 3.9305 4.37677 3.65088 4.92554C3.54077 5.14164 3.44367 5.46387 3.38965 6.12508C3.33405 6.80571 3.33268 7.68862 3.33268 8.99943V10.9998C3.33268 12.3106 3.33405 13.1935 3.38965 13.8741C3.44367 14.5353 3.54077 14.8575 3.65088 15.0736C3.9305 15.6224 4.37653 16.0684 4.92529 16.3481C5.14139 16.4582 5.46363 16.5553 6.12484 16.6093C6.80547 16.6649 7.68838 16.6663 8.99919 16.6663V18.3329C6.43239 18.3329 5.14887 18.3328 4.16846 17.8333C3.35998 17.4213 2.69338 16.7792 2.25114 15.99L2.16569 15.8305C1.72858 14.9726 1.67366 13.8826 1.66683 11.9039L1.66602 8.99943C1.66602 6.5932 1.66626 5.3149 2.0778 4.35669L2.16569 4.1687C2.57766 3.36022 3.21971 2.69362 4.00895 2.25138L4.16846 2.16593C5.14887 1.66639 6.43239 1.66626 8.99919 1.66626L11.9036 1.66707C13.8824 1.6739 14.9724 1.72882 15.8302 2.16593C16.6925 2.60534 17.3936 3.30639 17.833 4.1687C18.3326 5.14911 18.3327 6.43263 18.3327 8.99943L18.3319 11.9039C18.325 13.8826 18.2701 14.9726 17.833 15.8305L17.7476 15.99C17.3053 16.7792 16.6387 17.4213 15.8302 17.8333L15.6423 17.9211C14.8118 18.2778 13.7409 18.3258 11.9036 18.3321L10.9995 18.3329V16.6663C12.3103 16.6663 13.1932 16.6649 13.8739 16.6093C14.5351 16.5553 14.8573 16.4582 15.0734 16.3481C15.6222 16.0684 16.0682 15.6224 16.3478 15.0736C16.4579 14.8575 16.555 14.5353 16.609 13.8741C16.6647 13.1935 16.666 12.3106 16.666 10.9998Z" fill="#009E92"/>
<path d="M12.4993 9.99959C12.4993 8.61888 11.3801 7.49959 9.99935 7.49959C8.61864 7.49959 7.49935 8.61888 7.49935 9.99959C7.49935 11.3803 8.61864 12.4996 9.99935 12.4996V14.1663C7.69816 14.1663 5.83268 12.3008 5.83268 9.99959C5.83268 7.69841 7.69816 5.83293 9.99935 5.83293C12.3005 5.83293 14.166 7.69841 14.166 9.99959C14.166 12.3008 12.3005 14.1663 9.99935 14.1663V12.4996C11.3801 12.4996 12.4993 11.3803 12.4993 9.99959Z" fill="#009E92"/>
<path d="M15.416 5.83293C15.416 6.38521 14.9683 6.83293 14.416 6.83293C13.8637 6.83293 13.416 6.38521 13.416 5.83293C13.416 5.28064 13.8637 4.83293 14.416 4.83293C14.9683 4.83293 15.416 5.28064 15.416 5.83293Z" fill="#009E92"/>
</svg>
